<?xml version="1.0" encoding="utf-8"?>
<svg xmlns="http://www.w3.org/2000/svg" xmlns:xlink="http://www.w3.org/1999/xlink" width="300" height="180" viewBox="0 0 1200 720">
<defs>
  <clipPath id="clip400">
    <rect x="0" y="0" width="1200" height="720"/>
  </clipPath>
</defs>
<path clip-path="url(#clip400)" d="
M0 720 L1200 720 L1200 0 L0 0  Z
  " fill="#ffffff" fill-rule="evenodd" fill-opacity="1"/>
<defs>
  <clipPath id="clip401">
    <rect x="240" y="0" width="841" height="720"/>
  </clipPath>
</defs>
<path clip-path="url(#clip400)" d="
M219.451 560.188 L1152.76 560.188 L1152.76 47.2441 L219.451 47.2441  Z
  " fill="#ffffff" fill-rule="evenodd" fill-opacity="1"/>
<defs>
  <clipPath id="clip402">
    <rect x="219" y="47" width="934" height="514"/>
  </clipPath>
</defs>
<polyline clip-path="url(#clip400)" style="stroke:#000000; stroke-linecap:round; stroke-linejoin:round; stroke-width:4; stroke-opacity:1; fill:none" points="
  219.451,560.188 1152.76,560.188 
  "/>
<polyline clip-path="url(#clip400)" style="stroke:#000000; stroke-linecap:round; stroke-linejoin:round; stroke-width:4; stroke-opacity:1; fill:none" points="
  219.451,560.188 219.451,541.29 
  "/>
<polyline clip-path="url(#clip400)" style="stroke:#000000; stroke-linecap:round; stroke-linejoin:round; stroke-width:4; stroke-opacity:1; fill:none" points="
  452.777,560.188 452.777,541.29 
  "/>
<polyline clip-path="url(#clip400)" style="stroke:#000000; stroke-linecap:round; stroke-linejoin:round; stroke-width:4; stroke-opacity:1; fill:none" points="
  686.104,560.188 686.104,541.29 
  "/>
<polyline clip-path="url(#clip400)" style="stroke:#000000; stroke-linecap:round; stroke-linejoin:round; stroke-width:4; stroke-opacity:1; fill:none" points="
  919.43,560.188 919.43,541.29 
  "/>
<polyline clip-path="url(#clip400)" style="stroke:#000000; stroke-linecap:round; stroke-linejoin:round; stroke-width:4; stroke-opacity:1; fill:none" points="
  1152.76,560.188 1152.76,541.29 
  "/>
<path clip-path="url(#clip400)" d="M203.283 599.623 Q203.579 599.92 203.579 600.34 Q203.579 600.76 203.283 601.056 Q202.986 601.353 202.566 601.353 L170.897 601.353 Q170.477 601.353 170.18 601.056 Q169.884 600.76 169.884 600.34 Q169.884 599.92 170.18 599.623 Q170.477 599.327 170.897 599.327 L202.566 599.327 Q202.986 599.327 203.283 599.623 Z" fill="#000000" fill-rule="evenodd" fill-opacity="1" /><path clip-path="url(#clip400)" d="M208.915 604.836 Q208.915 603.329 209.73 602.761 Q210.546 602.168 211.41 602.168 Q212.571 602.168 213.238 602.909 Q213.93 603.625 213.93 604.638 Q213.93 605.651 213.238 606.392 Q212.571 607.108 211.41 607.108 Q210.842 607.108 210.546 607.01 Q211.213 609.332 213.238 611.012 Q215.289 612.691 217.981 612.691 Q221.366 612.691 223.391 609.406 Q224.602 607.281 224.602 602.464 Q224.602 598.215 223.688 596.091 Q222.28 592.855 219.389 592.855 Q215.289 592.855 212.868 596.387 Q212.571 596.832 212.225 596.857 Q211.731 596.857 211.608 596.585 Q211.509 596.288 211.509 595.523 L211.509 580.552 Q211.509 579.342 212.003 579.342 Q212.201 579.342 212.621 579.49 Q215.807 580.898 219.34 580.923 Q222.971 580.923 226.232 579.441 Q226.479 579.292 226.627 579.292 Q227.122 579.292 227.146 579.861 Q227.146 580.058 226.726 580.651 Q226.331 581.219 225.466 581.985 Q224.602 582.726 223.49 583.443 Q222.378 584.159 220.748 584.653 Q219.142 585.122 217.364 585.122 Q215.239 585.122 213.065 584.455 L213.065 594.312 Q215.684 591.743 219.488 591.743 Q223.54 591.743 226.331 595.004 Q229.123 598.265 229.123 602.81 Q229.123 607.578 225.812 610.839 Q222.527 614.099 218.08 614.099 Q214.029 614.099 211.46 611.209 Q208.915 608.319 208.915 604.836 Z" fill="#000000" fill-rule="evenodd" fill-opacity="1" /><path clip-path="url(#clip400)" d="M236.756 612.173 Q235.99 611.357 235.99 610.295 Q235.99 609.233 236.756 608.467 Q237.522 607.677 238.683 607.677 Q239.794 607.677 240.535 608.418 Q241.301 609.134 241.301 610.32 Q241.301 611.481 240.486 612.247 Q239.696 612.988 238.683 612.988 Q237.522 612.988 236.756 612.173 Z" fill="#000000" fill-rule="evenodd" fill-opacity="1" /><path clip-path="url(#clip400)" d="M247.724 596.807 Q247.724 589.371 249.602 585.32 Q252.22 579.292 258.396 579.292 Q259.705 579.292 261.064 579.663 Q262.447 580.009 264.177 581.368 Q265.931 582.726 266.993 584.95 Q269.018 589.248 269.018 596.807 Q269.018 604.193 267.141 608.22 Q264.399 614.099 258.347 614.099 Q256.074 614.099 253.752 612.938 Q251.454 611.777 249.997 608.986 Q247.724 604.811 247.724 596.807 M251.924 596.19 Q251.924 603.823 252.467 606.861 Q253.085 610.147 254.765 611.58 Q256.469 612.988 258.347 612.988 Q260.372 612.988 262.052 611.481 Q263.757 609.949 264.275 606.664 Q264.844 603.428 264.819 596.19 Q264.819 589.149 264.325 586.333 Q263.658 583.047 261.879 581.738 Q260.125 580.404 258.347 580.404 Q257.68 580.404 256.963 580.602 Q256.272 580.799 255.259 581.368 Q254.246 581.936 253.455 583.344 Q252.69 584.752 252.319 586.876 Q251.924 589.618 251.924 596.19 Z" fill="#000000" fill-rule="evenodd" fill-opacity="1" /><path clip-path="url(#clip400)" d="M436.881 599.623 Q437.177 599.92 437.177 600.34 Q437.177 600.76 436.881 601.056 Q436.584 601.353 436.164 601.353 L404.495 601.353 Q404.075 601.353 403.778 601.056 Q403.482 600.76 403.482 600.34 Q403.482 599.92 403.778 599.623 Q404.075 599.327 404.495 599.327 L436.164 599.327 Q436.584 599.327 436.881 599.623 Z" fill="#000000" fill-rule="evenodd" fill-opacity="1" /><path clip-path="url(#clip400)" d="M442.513 612.988 Q442.513 612.074 442.587 611.802 Q442.686 611.53 443.081 611.11 L452.79 600.29 Q458.101 594.312 458.101 589.1 Q458.101 585.715 456.322 583.294 Q454.568 580.873 451.332 580.873 Q449.109 580.873 447.231 582.232 Q445.354 583.591 444.489 586.012 Q444.638 585.962 445.156 585.962 Q446.416 585.962 447.108 586.753 Q447.824 587.543 447.824 588.606 Q447.824 589.964 446.935 590.631 Q446.07 591.274 445.206 591.274 Q444.86 591.274 444.391 591.199 Q443.946 591.125 443.229 590.434 Q442.513 589.717 442.513 588.457 Q442.513 584.925 445.181 582.109 Q447.874 579.292 451.974 579.292 Q456.619 579.292 459.657 582.059 Q462.72 584.801 462.72 589.1 Q462.72 590.607 462.251 591.99 Q461.806 593.349 461.189 594.411 Q460.596 595.473 458.966 597.178 Q457.335 598.882 456.026 600.093 Q454.717 601.303 451.777 603.872 L446.416 609.085 L455.532 609.085 Q459.978 609.085 460.324 608.689 Q460.818 607.973 461.436 604.193 L462.72 604.193 L461.288 612.988 L442.513 612.988 Z" fill="#000000" fill-rule="evenodd" fill-opacity="1" /><path clip-path="url(#clip400)" d="M470.354 612.173 Q469.588 611.357 469.588 610.295 Q469.588 609.233 470.354 608.467 Q471.12 607.677 472.281 607.677 Q473.392 607.677 474.133 608.418 Q474.899 609.134 474.899 610.32 Q474.899 611.481 474.084 612.247 Q473.293 612.988 472.281 612.988 Q471.12 612.988 470.354 612.173 Z" fill="#000000" fill-rule="evenodd" fill-opacity="1" /><path clip-path="url(#clip400)" d="M481.866 604.836 Q481.866 603.329 482.681 602.761 Q483.496 602.168 484.361 602.168 Q485.522 602.168 486.189 602.909 Q486.88 603.625 486.88 604.638 Q486.88 605.651 486.189 606.392 Q485.522 607.108 484.361 607.108 Q483.792 607.108 483.496 607.01 Q484.163 609.332 486.189 611.012 Q488.239 612.691 490.932 612.691 Q494.316 612.691 496.342 609.406 Q497.552 607.281 497.552 602.464 Q497.552 598.215 496.638 596.091 Q495.23 592.855 492.34 592.855 Q488.239 592.855 485.818 596.387 Q485.522 596.832 485.176 596.857 Q484.682 596.857 484.558 596.585 Q484.459 596.288 484.459 595.523 L484.459 580.552 Q484.459 579.342 484.953 579.342 Q485.151 579.342 485.571 579.49 Q488.758 580.898 492.29 580.923 Q495.922 580.923 499.183 579.441 Q499.43 579.292 499.578 579.292 Q500.072 579.292 500.097 579.861 Q500.097 580.058 499.677 580.651 Q499.281 581.219 498.417 581.985 Q497.552 582.726 496.441 583.443 Q495.329 584.159 493.698 584.653 Q492.093 585.122 490.314 585.122 Q488.19 585.122 486.016 584.455 L486.016 594.312 Q488.634 591.743 492.439 591.743 Q496.49 591.743 499.281 595.004 Q502.073 598.265 502.073 602.81 Q502.073 607.578 498.763 610.839 Q495.477 614.099 491.03 614.099 Q486.979 614.099 484.41 611.209 Q481.866 608.319 481.866 604.836 Z" fill="#000000" fill-rule="evenodd" fill-opacity="1" /><path clip-path="url(#clip400)" d="M655.78 596.807 Q655.78 589.371 657.658 585.32 Q660.276 579.292 666.452 579.292 Q667.761 579.292 669.12 579.663 Q670.503 580.009 672.233 581.368 Q673.987 582.726 675.049 584.95 Q677.074 589.248 677.074 596.807 Q677.074 604.193 675.197 608.22 Q672.455 614.099 666.403 614.099 Q664.13 614.099 661.808 612.938 Q659.51 611.777 658.053 608.986 Q655.78 604.811 655.78 596.807 M659.98 596.19 Q659.98 603.823 660.523 606.861 Q661.141 610.147 662.821 611.58 Q664.525 612.988 666.403 612.988 Q668.428 612.988 670.108 611.481 Q671.813 609.949 672.331 606.664 Q672.9 603.428 672.875 596.19 Q672.875 589.149 672.381 586.333 Q671.714 583.047 669.935 581.738 Q668.181 580.404 666.403 580.404 Q665.736 580.404 665.019 580.602 Q664.328 580.799 663.315 581.368 Q662.302 581.936 661.511 583.344 Q660.746 584.752 660.375 586.876 Q659.98 589.618 659.98 596.19 Z" fill="#000000" fill-rule="evenodd" fill-opacity="1" /><path clip-path="url(#clip400)" d="M684.164 612.173 Q683.399 611.357 683.399 610.295 Q683.399 609.233 684.164 608.467 Q684.93 607.677 686.091 607.677 Q687.203 607.677 687.944 608.418 Q688.71 609.134 688.71 610.32 Q688.71 611.481 687.895 612.247 Q687.104 612.988 686.091 612.988 Q684.93 612.988 684.164 612.173 Z" fill="#000000" fill-rule="evenodd" fill-opacity="1" /><path clip-path="url(#clip400)" d="M695.133 596.807 Q695.133 589.371 697.01 585.32 Q699.629 579.292 705.804 579.292 Q707.114 579.292 708.472 579.663 Q709.856 580.009 711.585 581.368 Q713.339 582.726 714.401 584.95 Q716.427 589.248 716.427 596.807 Q716.427 604.193 714.549 608.22 Q711.807 614.099 705.755 614.099 Q703.482 614.099 701.16 612.938 Q698.863 611.777 697.405 608.986 Q695.133 604.811 695.133 596.807 M699.332 596.19 Q699.332 603.823 699.876 606.861 Q700.493 610.147 702.173 611.58 Q703.878 612.988 705.755 612.988 Q707.781 612.988 709.461 611.481 Q711.165 609.949 711.684 606.664 Q712.252 603.428 712.227 596.19 Q712.227 589.149 711.733 586.333 Q711.066 583.047 709.288 581.738 Q707.534 580.404 705.755 580.404 Q705.088 580.404 704.372 580.602 Q703.68 580.799 702.667 581.368 Q701.654 581.936 700.864 583.344 Q700.098 584.752 699.727 586.876 Q699.332 589.618 699.332 596.19 Z" fill="#000000" fill-rule="evenodd" fill-opacity="1" /><path clip-path="url(#clip400)" d="M889.65 612.988 Q889.65 612.074 889.724 611.802 Q889.823 611.53 890.218 611.11 L899.926 600.29 Q905.238 594.312 905.238 589.1 Q905.238 585.715 903.459 583.294 Q901.705 580.873 898.469 580.873 Q896.246 580.873 894.368 582.232 Q892.491 583.591 891.626 586.012 Q891.774 585.962 892.293 585.962 Q893.553 585.962 894.245 586.753 Q894.961 587.543 894.961 588.606 Q894.961 589.964 894.072 590.631 Q893.207 591.274 892.342 591.274 Q891.997 591.274 891.527 591.199 Q891.083 591.125 890.366 590.434 Q889.65 589.717 889.65 588.457 Q889.65 584.925 892.318 582.109 Q895.01 579.292 899.111 579.292 Q903.755 579.292 906.794 582.059 Q909.857 584.801 909.857 589.1 Q909.857 590.607 909.388 591.99 Q908.943 593.349 908.326 594.411 Q907.733 595.473 906.102 597.178 Q904.472 598.882 903.163 600.093 Q901.853 601.303 898.914 603.872 L893.553 609.085 L902.668 609.085 Q907.115 609.085 907.461 608.689 Q907.955 607.973 908.573 604.193 L909.857 604.193 L908.424 612.988 L889.65 612.988 Z" fill="#000000" fill-rule="evenodd" fill-opacity="1" /><path clip-path="url(#clip400)" d="M917.491 612.173 Q916.725 611.357 916.725 610.295 Q916.725 609.233 917.491 608.467 Q918.256 607.677 919.417 607.677 Q920.529 607.677 921.27 608.418 Q922.036 609.134 922.036 610.32 Q922.036 611.481 921.221 612.247 Q920.43 612.988 919.417 612.988 Q918.256 612.988 917.491 612.173 Z" fill="#000000" fill-rule="evenodd" fill-opacity="1" /><path clip-path="url(#clip400)" d="M929.002 604.836 Q929.002 603.329 929.817 602.761 Q930.633 602.168 931.497 602.168 Q932.658 602.168 933.325 602.909 Q934.017 603.625 934.017 604.638 Q934.017 605.651 933.325 606.392 Q932.658 607.108 931.497 607.108 Q930.929 607.108 930.633 607.01 Q931.3 609.332 933.325 611.012 Q935.376 612.691 938.068 612.691 Q941.453 612.691 943.478 609.406 Q944.689 607.281 944.689 602.464 Q944.689 598.215 943.775 596.091 Q942.367 592.855 939.476 592.855 Q935.376 592.855 932.955 596.387 Q932.658 596.832 932.313 596.857 Q931.818 596.857 931.695 596.585 Q931.596 596.288 931.596 595.523 L931.596 580.552 Q931.596 579.342 932.09 579.342 Q932.288 579.342 932.708 579.49 Q935.895 580.898 939.427 580.923 Q943.058 580.923 946.319 579.441 Q946.566 579.292 946.715 579.292 Q947.209 579.292 947.233 579.861 Q947.233 580.058 946.813 580.651 Q946.418 581.219 945.554 581.985 Q944.689 582.726 943.577 583.443 Q942.466 584.159 940.835 584.653 Q939.229 585.122 937.451 585.122 Q935.326 585.122 933.152 584.455 L933.152 594.312 Q935.771 591.743 939.575 591.743 Q943.627 591.743 946.418 595.004 Q949.21 598.265 949.21 602.81 Q949.21 607.578 945.899 610.839 Q942.614 614.099 938.167 614.099 Q934.116 614.099 931.547 611.209 Q929.002 608.319 929.002 604.836 Z" fill="#000000" fill-rule="evenodd" fill-opacity="1" /><path clip-path="url(#clip400)" d="M1122.7 604.836 Q1122.7 603.329 1123.52 602.761 Q1124.33 602.168 1125.2 602.168 Q1126.36 602.168 1127.03 602.909 Q1127.72 603.625 1127.72 604.638 Q1127.72 605.651 1127.03 606.392 Q1126.36 607.108 1125.2 607.108 Q1124.63 607.108 1124.33 607.01 Q1125 609.332 1127.03 611.012 Q1129.08 612.691 1131.77 612.691 Q1135.15 612.691 1137.18 609.406 Q1138.39 607.281 1138.39 602.464 Q1138.39 598.215 1137.48 596.091 Q1136.07 592.855 1133.18 592.855 Q1129.08 592.855 1126.66 596.387 Q1126.36 596.832 1126.01 596.857 Q1125.52 596.857 1125.4 596.585 Q1125.3 596.288 1125.3 595.523 L1125.3 580.552 Q1125.3 579.342 1125.79 579.342 Q1125.99 579.342 1126.41 579.49 Q1129.6 580.898 1133.13 580.923 Q1136.76 580.923 1140.02 579.441 Q1140.27 579.292 1140.42 579.292 Q1140.91 579.292 1140.94 579.861 Q1140.94 580.058 1140.52 580.651 Q1140.12 581.219 1139.26 581.985 Q1138.39 582.726 1137.28 583.443 Q1136.17 584.159 1134.54 584.653 Q1132.93 585.122 1131.15 585.122 Q1129.03 585.122 1126.85 584.455 L1126.85 594.312 Q1129.47 591.743 1133.28 591.743 Q1137.33 591.743 1140.12 595.004 Q1142.91 598.265 1142.91 602.81 Q1142.91 607.578 1139.6 610.839 Q1136.32 614.099 1131.87 614.099 Q1127.82 614.099 1125.25 611.209 Q1122.7 608.319 1122.7 604.836 Z" fill="#000000" fill-rule="evenodd" fill-opacity="1" /><path clip-path="url(#clip400)" d="M1150.54 612.173 Q1149.78 611.357 1149.78 610.295 Q1149.78 609.233 1150.54 608.467 Q1151.31 607.677 1152.47 607.677 Q1153.58 607.677 1154.32 608.418 Q1155.09 609.134 1155.09 610.32 Q1155.09 611.481 1154.28 612.247 Q1153.48 612.988 1152.47 612.988 Q1151.31 612.988 1150.54 612.173 Z" fill="#000000" fill-rule="evenodd" fill-opacity="1" /><path clip-path="url(#clip400)" d="M1161.51 596.807 Q1161.51 589.371 1163.39 585.32 Q1166.01 579.292 1172.19 579.292 Q1173.49 579.292 1174.85 579.663 Q1176.24 580.009 1177.97 581.368 Q1179.72 582.726 1180.78 584.95 Q1182.81 589.248 1182.81 596.807 Q1182.81 604.193 1180.93 608.22 Q1178.19 614.099 1172.14 614.099 Q1169.86 614.099 1167.54 612.938 Q1165.24 611.777 1163.79 608.986 Q1161.51 604.811 1161.51 596.807 M1165.71 596.19 Q1165.71 603.823 1166.26 606.861 Q1166.87 610.147 1168.55 611.58 Q1170.26 612.988 1172.14 612.988 Q1174.16 612.988 1175.84 611.481 Q1177.55 609.949 1178.06 606.664 Q1178.63 603.428 1178.61 596.19 Q1178.61 589.149 1178.11 586.333 Q1177.45 583.047 1175.67 581.738 Q1173.91 580.404 1172.14 580.404 Q1171.47 580.404 1170.75 580.602 Q1170.06 580.799 1169.05 581.368 Q1168.03 581.936 1167.24 583.344 Q1166.48 584.752 1166.11 586.876 Q1165.71 589.618 1165.71 596.19 Z" fill="#000000" fill-rule="evenodd" fill-opacity="1" /><path clip-path="url(#clip400)" d="M469.088 641.706 L469.088 639.532 Q476.594 639.736 477.919 639.736 Q485.358 639.736 487.871 639.532 L487.871 641.706 Q482.165 641.706 482.165 643.71 Q482.165 643.982 482.573 644.967 L495.854 680.089 L508.591 646.563 Q508.931 645.51 508.931 645.17 Q508.931 643.778 507.64 642.793 Q506.383 641.774 503.87 641.706 L503.87 639.532 Q509.305 639.736 511.784 639.736 Q515.317 639.736 518.544 639.532 L518.544 641.706 Q512.701 641.774 510.969 646.359 L495.446 687.256 Q495.174 688.105 494.903 688.343 Q494.631 688.58 493.782 688.58 Q493.102 688.58 492.729 688.309 Q492.389 688.037 492.049 687.052 L475.915 644.355 Q475.236 642.487 474.013 642.113 Q472.79 641.706 469.088 641.706 Z" fill="#000000" fill-rule="evenodd" fill-opacity="1" /><path clip-path="url(#clip400)" d="M516.098 671.733 Q516.098 665.177 520.31 660.524 Q524.522 655.87 530.568 655.87 Q536.682 655.87 539.841 659.844 Q543.034 663.818 543.034 669.525 Q543.034 670.578 542.762 670.782 Q542.491 670.985 541.302 670.985 L521.873 670.985 Q521.873 678.085 523.978 681.413 Q526.9 686.067 531.825 686.067 Q532.504 686.067 533.319 685.931 Q534.135 685.795 535.799 685.218 Q537.463 684.606 538.924 683.01 Q540.385 681.413 541.234 678.9 Q541.438 677.915 542.117 677.949 Q543.034 677.949 543.034 678.764 Q543.034 679.375 542.355 680.768 Q541.709 682.127 540.453 683.757 Q539.196 685.387 536.75 686.61 Q534.338 687.833 531.417 687.833 Q525.303 687.833 520.684 683.214 Q516.098 678.56 516.098 671.733 M521.94 669.525 L538.448 669.525 Q538.448 668.064 538.177 666.434 Q537.939 664.803 537.192 662.562 Q536.478 660.286 534.78 658.859 Q533.082 657.433 530.568 657.433 Q529.447 657.433 528.224 657.908 Q527.036 658.384 525.575 659.538 Q524.114 660.693 523.095 663.309 Q522.076 665.924 521.94 669.525 Z" fill="#000000" fill-rule="evenodd" fill-opacity="1" /><path clip-path="url(#clip400)" d="M547.348 687.052 L547.348 684.912 Q551.05 684.912 551.899 684.47 Q552.749 683.995 552.749 681.753 L552.749 645.578 Q552.749 642.996 551.832 642.351 Q550.948 641.706 547.348 641.706 L547.348 639.532 L557.334 638.785 L557.334 681.753 Q557.334 683.995 558.217 684.47 Q559.1 684.912 562.769 684.912 L562.769 687.052 Q561.92 687.052 560.153 686.984 Q558.387 686.916 557.096 686.882 Q555.806 686.848 555.058 686.848 Q554.243 686.848 547.348 687.052 Z" fill="#000000" fill-rule="evenodd" fill-opacity="1" /><path clip-path="url(#clip400)" d="M570.819 683.315 Q566.234 678.764 566.234 672.174 Q566.234 665.551 570.717 660.727 Q575.235 655.87 581.689 655.87 Q588.006 655.87 592.524 660.693 Q597.076 665.483 597.076 672.174 Q597.076 678.73 592.49 683.281 Q587.939 687.833 581.621 687.833 Q575.439 687.833 570.819 683.315 M572.008 671.597 Q572.008 678.356 573.774 681.413 Q576.492 686.067 581.689 686.067 Q584.27 686.067 586.41 684.674 Q588.584 683.281 589.773 680.938 Q591.301 677.881 591.301 671.597 Q591.301 664.905 589.467 661.95 Q586.75 657.433 581.621 657.433 Q579.379 657.433 577.171 658.621 Q574.997 659.776 573.672 662.086 Q572.008 665.143 572.008 671.597 Z" fill="#000000" fill-rule="evenodd" fill-opacity="1" /><path clip-path="url(#clip400)" d="M607.809 683.248 Q603.394 678.628 603.394 672.038 Q603.394 665.415 607.741 660.659 Q612.089 655.87 618.475 655.87 Q622.721 655.87 625.914 657.908 Q629.107 659.912 629.107 663.343 Q629.107 664.871 628.19 665.754 Q627.306 666.604 625.914 666.604 Q624.453 666.604 623.57 665.72 Q622.721 664.803 622.721 663.411 Q622.721 662.799 622.925 662.188 Q623.128 661.577 623.876 660.931 Q624.657 660.286 625.982 660.184 Q623.502 657.636 618.679 657.636 Q618.611 657.636 618.543 657.636 Q615.01 657.636 612.089 660.965 Q609.168 664.294 609.168 671.903 Q609.168 675.877 610.119 678.798 Q611.104 681.685 612.701 683.18 Q614.297 684.674 615.86 685.387 Q617.422 686.067 618.951 686.067 Q625.778 686.067 628.088 678.764 Q628.291 678.085 628.971 678.085 Q629.888 678.085 629.888 678.764 Q629.888 679.104 629.616 679.987 Q629.344 680.87 628.495 682.262 Q627.646 683.655 626.423 684.878 Q625.234 686.067 623.095 686.95 Q620.989 687.833 618.339 687.833 Q612.225 687.833 607.809 683.248 Z" fill="#000000" fill-rule="evenodd" fill-opacity="1" /><path clip-path="url(#clip400)" d="M634.202 687.052 L634.202 684.912 Q637.904 684.912 638.753 684.47 Q639.603 683.995 639.603 681.753 L639.603 663.037 Q639.603 660.456 638.719 659.844 Q637.87 659.233 634.474 659.233 L634.474 657.059 L644.188 656.312 L644.188 681.821 Q644.188 683.893 644.935 684.402 Q645.683 684.912 649.079 684.912 L649.079 687.052 Q641.98 686.848 641.844 686.848 Q640.893 686.848 634.202 687.052 M637.123 644.185 Q637.123 642.793 638.176 641.672 Q639.263 640.517 640.791 640.517 Q642.32 640.517 643.407 641.57 Q644.494 642.589 644.494 644.219 Q644.494 645.816 643.407 646.869 Q642.32 647.888 640.791 647.888 Q639.195 647.888 638.142 646.767 Q637.123 645.646 637.123 644.185 Z" fill="#000000" fill-rule="evenodd" fill-opacity="1" /><path clip-path="url(#clip400)" d="M652.476 659.233 L652.476 657.704 Q655.669 657.568 657.775 655.327 Q659.915 653.051 660.628 650.265 Q661.375 647.48 661.443 644.253 L663.176 644.253 L663.176 657.059 L673.128 657.059 L673.128 659.233 L663.176 659.233 L663.176 678.56 Q663.176 686.067 667.863 686.067 Q669.867 686.067 671.192 684.029 Q672.517 681.957 672.517 678.288 L672.517 674.45 L674.249 674.45 L674.249 678.424 Q674.249 682.195 672.517 685.014 Q670.784 687.833 667.354 687.833 Q666.097 687.833 664.84 687.493 Q663.617 687.188 661.987 686.373 Q660.39 685.523 659.371 683.485 Q658.386 681.413 658.386 678.424 L658.386 659.233 L652.476 659.233 Z" fill="#000000" fill-rule="evenodd" fill-opacity="1" /><path clip-path="url(#clip400)" d="M677.51 695.679 Q677.51 694.219 678.359 693.438 Q679.242 692.69 680.431 692.69 Q681.688 692.69 682.503 693.472 Q683.352 694.287 683.352 695.612 Q683.352 698.193 680.635 698.533 Q681.96 699.79 683.896 699.79 Q685.968 699.79 687.632 698.261 Q689.33 696.732 690.044 695.272 Q690.791 693.811 691.844 691.162 Q692.829 689.09 693.576 687.052 L683.148 661.644 Q682.469 659.98 681.416 659.606 Q680.363 659.233 677.51 659.233 L677.51 657.059 Q680.635 657.263 684.269 657.263 Q686.409 657.263 691.844 657.059 L691.844 659.233 Q687.938 659.233 687.938 661.033 Q687.938 661.237 688.345 662.29 L696.09 681.006 L703.121 663.886 Q703.529 662.901 703.529 662.222 Q703.529 659.369 700.268 659.233 L700.268 657.059 Q704.853 657.263 706.314 657.263 Q709.167 657.263 711.511 657.059 L711.511 659.233 Q706.857 659.233 705.057 663.682 L692.795 693.37 Q689.466 701.284 683.896 701.318 Q681.246 701.318 679.378 699.688 Q677.51 698.057 677.51 695.679 Z" fill="#000000" fill-rule="evenodd" fill-opacity="1" /><path clip-path="url(#clip400)" d="M742.863 669.661 Q742.863 657.908 747.244 648.431 Q749.113 644.457 751.728 641.128 Q754.343 637.8 756.076 636.339 Q757.808 634.878 758.284 634.878 Q758.963 634.878 758.997 635.558 Q758.997 635.897 758.08 636.747 Q746.871 648.159 746.905 669.661 Q746.905 691.23 757.808 702.201 Q758.997 703.39 758.997 703.764 Q758.997 704.443 758.284 704.443 Q757.808 704.443 756.144 703.05 Q754.479 701.658 751.898 698.465 Q749.316 695.272 747.448 691.366 Q742.863 681.889 742.863 669.661 Z" fill="#000000" fill-rule="evenodd" fill-opacity="1" /><path clip-path="url(#clip400)" d="M765.179 687.052 L765.179 684.912 Q768.881 684.912 769.731 684.47 Q770.58 683.995 770.58 681.753 L770.58 663.105 Q770.58 660.524 769.663 659.878 Q768.779 659.233 765.179 659.233 L765.179 657.059 L774.962 656.312 L774.962 663.615 Q778.222 656.312 785.254 656.312 Q793.406 656.312 794.527 663.105 Q795.715 660.456 798.195 658.384 Q800.709 656.312 804.615 656.312 Q809.846 656.312 811.918 658.893 Q813.446 660.625 813.752 662.562 Q814.058 664.498 814.058 669.525 L814.058 682.806 Q814.126 684.267 815.247 684.606 Q816.367 684.912 819.492 684.912 L819.492 687.052 Q812.393 686.848 811.714 686.848 Q811.17 686.848 803.834 687.052 L803.834 684.912 Q807.536 684.912 808.385 684.47 Q809.268 683.995 809.268 681.753 L809.268 665.551 Q809.268 662.018 808.181 659.946 Q807.094 657.84 804.105 657.84 Q800.505 657.84 797.618 660.863 Q794.73 663.886 794.73 668.981 L794.73 681.753 Q794.73 683.995 795.58 684.47 Q796.463 684.912 800.165 684.912 L800.165 687.052 Q793.066 686.848 792.353 686.848 Q791.809 686.848 784.506 687.052 L784.506 684.912 Q788.209 684.912 789.058 684.47 Q789.941 683.995 789.941 681.753 L789.941 665.551 Q789.941 662.018 788.854 659.946 Q787.767 657.84 784.778 657.84 Q781.177 657.84 778.29 660.863 Q775.403 663.886 775.403 668.981 L775.403 681.753 Q775.403 683.995 776.252 684.47 Q777.135 684.912 780.804 684.912 L780.804 687.052 Q773.705 686.848 773.025 686.848 Q772.482 686.848 765.179 687.052 Z" fill="#000000" fill-rule="evenodd" fill-opacity="1" /><path clip-path="url(#clip400)" d="M824.825 703.458 Q824.825 703.118 825.097 702.371 L849.655 636.747 Q849.655 636.679 849.825 636.305 Q849.995 635.931 850.097 635.694 Q850.199 635.422 850.402 635.218 Q850.64 635.014 850.912 635.014 Q851.591 635.014 851.591 635.863 Q851.591 635.931 851.388 636.747 L826.761 702.439 Q826.354 703.628 826.082 703.967 Q825.844 704.307 825.437 704.307 Q824.825 704.307 824.825 703.458 Z" fill="#000000" fill-rule="evenodd" fill-opacity="1" /><path clip-path="url(#clip400)" d="M857.943 686.135 L857.943 676.964 Q857.943 676.182 857.977 675.911 Q858.011 675.639 858.215 675.435 Q858.419 675.231 858.826 675.231 Q859.302 675.231 859.472 675.435 Q859.676 675.639 859.811 676.42 Q860.864 681.209 863.106 683.757 Q865.382 686.271 869.492 686.271 Q873.398 686.271 875.368 684.538 Q877.338 682.806 877.338 679.953 Q877.338 674.858 870.103 673.567 Q865.925 672.718 864.193 672.174 Q862.461 671.597 860.932 670.34 Q857.943 667.894 857.943 664.43 Q857.943 660.965 860.559 658.418 Q863.208 655.87 869.05 655.87 Q872.957 655.87 875.606 657.84 Q876.387 657.229 876.795 656.719 Q877.712 655.87 878.188 655.87 Q878.731 655.87 878.833 656.244 Q878.935 656.583 878.935 657.568 L878.935 664.566 Q878.935 665.347 878.901 665.619 Q878.867 665.89 878.663 666.094 Q878.459 666.264 878.018 666.264 Q877.237 666.264 877.203 665.619 Q876.659 657.195 869.05 657.195 Q864.94 657.195 863.106 658.791 Q861.272 660.354 861.272 662.494 Q861.272 663.682 861.815 664.6 Q862.393 665.483 863.106 666.026 Q863.853 666.536 865.212 667.045 Q866.571 667.521 867.386 667.691 Q868.235 667.86 869.832 668.2 Q875.402 669.253 877.746 671.529 Q880.667 674.45 880.667 678.152 Q880.667 682.262 877.882 685.048 Q875.097 687.833 869.492 687.833 Q864.974 687.833 861.815 684.81 Q861.408 685.218 861.102 685.591 Q860.796 685.931 860.661 686.067 Q860.559 686.203 860.525 686.305 Q860.491 686.373 860.423 686.44 Q859.03 687.833 858.69 687.833 Q858.147 687.833 858.045 687.459 Q857.943 687.12 857.943 686.135 Z" fill="#000000" fill-rule="evenodd" fill-opacity="1" /><path clip-path="url(#clip400)" d="M886.985 703.764 Q886.985 703.424 887.868 702.575 Q899.077 691.162 899.077 669.661 Q899.077 648.092 888.31 637.188 Q886.985 635.931 886.985 635.558 Q886.985 634.878 887.664 634.878 Q888.14 634.878 889.804 636.271 Q891.503 637.664 894.05 640.857 Q896.632 644.049 898.534 647.956 Q903.119 657.433 903.119 669.661 Q903.119 681.413 898.738 690.89 Q896.87 694.864 894.254 698.193 Q891.639 701.522 889.906 702.982 Q888.174 704.443 887.664 704.443 Q886.985 704.443 886.985 703.764 Z" fill="#000000" fill-rule="evenodd" fill-opacity="1" /><polyline clip-path="url(#clip400)" style="stroke:#000000; stroke-linecap:round; stroke-linejoin:round; stroke-width:4; stroke-opacity:1; fill:none" points="
  219.451,560.188 219.451,47.2441 
  "/>
<polyline clip-path="url(#clip400)" style="stroke:#000000; stroke-linecap:round; stroke-linejoin:round; stroke-width:4; stroke-opacity:1; fill:none" points="
  219.451,560.188 238.349,560.188 
  "/>
<polyline clip-path="url(#clip400)" style="stroke:#000000; stroke-linecap:round; stroke-linejoin:round; stroke-width:4; stroke-opacity:1; fill:none" points="
  219.451,453.325 238.349,453.325 
  "/>
<polyline clip-path="url(#clip400)" style="stroke:#000000; stroke-linecap:round; stroke-linejoin:round; stroke-width:4; stroke-opacity:1; fill:none" points="
  219.451,346.461 238.349,346.461 
  "/>
<polyline clip-path="url(#clip400)" style="stroke:#000000; stroke-linecap:round; stroke-linejoin:round; stroke-width:4; stroke-opacity:1; fill:none" points="
  219.451,239.598 238.349,239.598 
  "/>
<polyline clip-path="url(#clip400)" style="stroke:#000000; stroke-linecap:round; stroke-linejoin:round; stroke-width:4; stroke-opacity:1; fill:none" points="
  219.451,132.735 238.349,132.735 
  "/>
<path clip-path="url(#clip400)" d="M115.508 561.287 Q115.508 553.851 117.386 549.8 Q120.004 543.772 126.18 543.772 Q127.489 543.772 128.848 544.143 Q130.231 544.489 131.961 545.848 Q133.715 547.206 134.777 549.43 Q136.802 553.728 136.802 561.287 Q136.802 568.673 134.925 572.7 Q132.183 578.579 126.131 578.579 Q123.858 578.579 121.536 577.418 Q119.238 576.257 117.781 573.466 Q115.508 569.291 115.508 561.287 M119.708 560.67 Q119.708 568.303 120.251 571.341 Q120.869 574.627 122.549 576.06 Q124.253 577.468 126.131 577.468 Q128.156 577.468 129.836 575.961 Q131.541 574.429 132.059 571.144 Q132.628 567.908 132.603 560.67 Q132.603 553.629 132.109 550.813 Q131.442 547.527 129.663 546.218 Q127.909 544.884 126.131 544.884 Q125.464 544.884 124.747 545.082 Q124.056 545.279 123.043 545.848 Q122.03 546.416 121.239 547.824 Q120.474 549.232 120.103 551.356 Q119.708 554.098 119.708 560.67 Z" fill="#000000" fill-rule="evenodd" fill-opacity="1" /><path clip-path="url(#clip400)" d="M143.892 576.653 Q143.127 575.837 143.127 574.775 Q143.127 573.713 143.892 572.947 Q144.658 572.157 145.819 572.157 Q146.931 572.157 147.672 572.898 Q148.438 573.614 148.438 574.8 Q148.438 575.961 147.623 576.727 Q146.832 577.468 145.819 577.468 Q144.658 577.468 143.892 576.653 Z" fill="#000000" fill-rule="evenodd" fill-opacity="1" /><path clip-path="url(#clip400)" d="M154.861 561.287 Q154.861 553.851 156.738 549.8 Q159.357 543.772 165.532 543.772 Q166.842 543.772 168.2 544.143 Q169.584 544.489 171.313 545.848 Q173.067 547.206 174.129 549.43 Q176.155 553.728 176.155 561.287 Q176.155 568.673 174.277 572.7 Q171.535 578.579 165.483 578.579 Q163.21 578.579 160.888 577.418 Q158.591 576.257 157.133 573.466 Q154.861 569.291 154.861 561.287 M159.06 560.67 Q159.06 568.303 159.604 571.341 Q160.221 574.627 161.901 576.06 Q163.606 577.468 165.483 577.468 Q167.509 577.468 169.189 575.961 Q170.893 574.429 171.412 571.144 Q171.98 567.908 171.955 560.67 Q171.955 553.629 171.461 550.813 Q170.794 547.527 169.016 546.218 Q167.262 544.884 165.483 544.884 Q164.816 544.884 164.1 545.082 Q163.408 545.279 162.395 545.848 Q161.382 546.416 160.592 547.824 Q159.826 549.232 159.455 551.356 Q159.06 554.098 159.06 560.67 Z" fill="#000000" fill-rule="evenodd" fill-opacity="1" /><path clip-path="url(#clip400)" d="M180.157 561.287 Q180.157 553.851 182.034 549.8 Q184.653 543.772 190.829 543.772 Q192.138 543.772 193.497 544.143 Q194.88 544.489 196.609 545.848 Q198.363 547.206 199.425 549.43 Q201.451 553.728 201.451 561.287 Q201.451 568.673 199.574 572.7 Q196.832 578.579 190.779 578.579 Q188.507 578.579 186.184 577.418 Q183.887 576.257 182.43 573.466 Q180.157 569.291 180.157 561.287 M184.356 560.67 Q184.356 568.303 184.9 571.341 Q185.517 574.627 187.197 576.06 Q188.902 577.468 190.779 577.468 Q192.805 577.468 194.485 575.961 Q196.189 574.429 196.708 571.144 Q197.276 567.908 197.252 560.67 Q197.252 553.629 196.758 550.813 Q196.091 547.527 194.312 546.218 Q192.558 544.884 190.779 544.884 Q190.112 544.884 189.396 545.082 Q188.704 545.279 187.691 545.848 Q186.679 546.416 185.888 547.824 Q185.122 549.232 184.752 551.356 Q184.356 554.098 184.356 560.67 Z" fill="#000000" fill-rule="evenodd" fill-opacity="1" /><path clip-path="url(#clip400)" d="M116.052 454.424 Q116.052 446.988 117.929 442.937 Q120.548 436.909 126.723 436.909 Q128.033 436.909 129.391 437.28 Q130.775 437.626 132.504 438.984 Q134.258 440.343 135.32 442.566 Q137.346 446.865 137.346 454.424 Q137.346 461.81 135.468 465.837 Q132.726 471.716 126.674 471.716 Q124.401 471.716 122.079 470.555 Q119.782 469.394 118.324 466.603 Q116.052 462.428 116.052 454.424 M120.251 453.806 Q120.251 461.44 120.795 464.478 Q121.412 467.764 123.092 469.196 Q124.797 470.605 126.674 470.605 Q128.7 470.605 130.38 469.098 Q132.084 467.566 132.603 464.281 Q133.171 461.044 133.146 453.806 Q133.146 446.766 132.652 443.95 Q131.985 440.664 130.207 439.355 Q128.453 438.021 126.674 438.021 Q126.007 438.021 125.291 438.218 Q124.599 438.416 123.586 438.984 Q122.573 439.552 121.783 440.961 Q121.017 442.369 120.646 444.493 Q120.251 447.235 120.251 453.806 Z" fill="#000000" fill-rule="evenodd" fill-opacity="1" /><path clip-path="url(#clip400)" d="M144.436 469.789 Q143.67 468.974 143.67 467.912 Q143.67 466.85 144.436 466.084 Q145.202 465.293 146.363 465.293 Q147.474 465.293 148.215 466.034 Q148.981 466.751 148.981 467.937 Q148.981 469.098 148.166 469.863 Q147.375 470.605 146.363 470.605 Q145.202 470.605 144.436 469.789 Z" fill="#000000" fill-rule="evenodd" fill-opacity="1" /><path clip-path="url(#clip400)" d="M155.948 470.605 Q155.948 469.691 156.022 469.419 Q156.12 469.147 156.516 468.727 L166.224 457.907 Q171.535 451.929 171.535 446.716 Q171.535 443.332 169.757 440.911 Q168.003 438.49 164.767 438.49 Q162.543 438.49 160.666 439.849 Q158.788 441.208 157.924 443.628 Q158.072 443.579 158.591 443.579 Q159.851 443.579 160.542 444.37 Q161.259 445.16 161.259 446.222 Q161.259 447.581 160.369 448.248 Q159.505 448.89 158.64 448.89 Q158.294 448.89 157.825 448.816 Q157.38 448.742 156.664 448.05 Q155.948 447.334 155.948 446.074 Q155.948 442.542 158.616 439.725 Q161.308 436.909 165.409 436.909 Q170.053 436.909 173.092 439.676 Q176.155 442.418 176.155 446.716 Q176.155 448.223 175.686 449.607 Q175.241 450.965 174.623 452.028 Q174.03 453.09 172.4 454.794 Q170.77 456.499 169.46 457.709 Q168.151 458.92 165.211 461.489 L159.851 466.701 L168.966 466.701 Q173.413 466.701 173.759 466.306 Q174.253 465.59 174.87 461.81 L176.155 461.81 L174.722 470.605 L155.948 470.605 Z" fill="#000000" fill-rule="evenodd" fill-opacity="1" /><path clip-path="url(#clip400)" d="M181.244 462.452 Q181.244 460.946 182.059 460.377 Q182.874 459.784 183.739 459.784 Q184.9 459.784 185.567 460.526 Q186.259 461.242 186.259 462.255 Q186.259 463.268 185.567 464.009 Q184.9 464.725 183.739 464.725 Q183.171 464.725 182.874 464.626 Q183.541 466.948 185.567 468.628 Q187.617 470.308 190.31 470.308 Q193.694 470.308 195.72 467.023 Q196.93 464.898 196.93 460.081 Q196.93 455.832 196.016 453.707 Q194.608 450.471 191.718 450.471 Q187.617 450.471 185.196 454.004 Q184.9 454.449 184.554 454.473 Q184.06 454.473 183.936 454.202 Q183.838 453.905 183.838 453.139 L183.838 438.169 Q183.838 436.959 184.332 436.959 Q184.529 436.959 184.949 437.107 Q188.136 438.515 191.669 438.54 Q195.3 438.54 198.561 437.057 Q198.808 436.909 198.956 436.909 Q199.45 436.909 199.475 437.477 Q199.475 437.675 199.055 438.268 Q198.66 438.836 197.795 439.602 Q196.93 440.343 195.819 441.059 Q194.707 441.776 193.077 442.27 Q191.471 442.739 189.692 442.739 Q187.568 442.739 185.394 442.072 L185.394 451.929 Q188.013 449.36 191.817 449.36 Q195.868 449.36 198.66 452.621 Q201.451 455.881 201.451 460.427 Q201.451 465.195 198.141 468.455 Q194.855 471.716 190.409 471.716 Q186.357 471.716 183.788 468.826 Q181.244 465.936 181.244 462.452 Z" fill="#000000" fill-rule="evenodd" fill-opacity="1" /><path clip-path="url(#clip400)" d="M115.508 347.561 Q115.508 340.125 117.386 336.074 Q120.004 330.046 126.18 330.046 Q127.489 330.046 128.848 330.416 Q130.231 330.762 131.961 332.121 Q133.715 333.48 134.777 335.703 Q136.802 340.001 136.802 347.561 Q136.802 354.947 134.925 358.974 Q132.183 364.853 126.131 364.853 Q123.858 364.853 121.536 363.692 Q119.238 362.531 117.781 359.739 Q115.508 355.564 115.508 347.561 M119.708 346.943 Q119.708 354.576 120.251 357.615 Q120.869 360.9 122.549 362.333 Q124.253 363.741 126.131 363.741 Q128.156 363.741 129.836 362.234 Q131.541 360.703 132.059 357.417 Q132.628 354.181 132.603 346.943 Q132.603 339.903 132.109 337.086 Q131.442 333.801 129.663 332.492 Q127.909 331.158 126.131 331.158 Q125.464 331.158 124.747 331.355 Q124.056 331.553 123.043 332.121 Q122.03 332.689 121.239 334.097 Q120.474 335.505 120.103 337.63 Q119.708 340.372 119.708 346.943 Z" fill="#000000" fill-rule="evenodd" fill-opacity="1" /><path clip-path="url(#clip400)" d="M143.892 362.926 Q143.127 362.111 143.127 361.049 Q143.127 359.986 143.892 359.221 Q144.658 358.43 145.819 358.43 Q146.931 358.43 147.672 359.171 Q148.438 359.888 148.438 361.073 Q148.438 362.234 147.623 363 Q146.832 363.741 145.819 363.741 Q144.658 363.741 143.892 362.926 Z" fill="#000000" fill-rule="evenodd" fill-opacity="1" /><path clip-path="url(#clip400)" d="M155.404 355.589 Q155.404 354.082 156.219 353.514 Q157.035 352.921 157.899 352.921 Q159.06 352.921 159.727 353.662 Q160.419 354.379 160.419 355.392 Q160.419 356.404 159.727 357.145 Q159.06 357.862 157.899 357.862 Q157.331 357.862 157.035 357.763 Q157.701 360.085 159.727 361.765 Q161.778 363.445 164.47 363.445 Q167.855 363.445 169.88 360.159 Q171.091 358.035 171.091 353.218 Q171.091 348.969 170.177 346.844 Q168.769 343.608 165.878 343.608 Q161.778 343.608 159.357 347.141 Q159.06 347.585 158.714 347.61 Q158.22 347.61 158.097 347.338 Q157.998 347.042 157.998 346.276 L157.998 331.306 Q157.998 330.095 158.492 330.095 Q158.69 330.095 159.11 330.244 Q162.296 331.652 165.829 331.676 Q169.46 331.676 172.721 330.194 Q172.968 330.046 173.116 330.046 Q173.61 330.046 173.635 330.614 Q173.635 330.812 173.215 331.405 Q172.82 331.973 171.955 332.739 Q171.091 333.48 169.979 334.196 Q168.867 334.912 167.237 335.407 Q165.631 335.876 163.853 335.876 Q161.728 335.876 159.554 335.209 L159.554 345.066 Q162.173 342.496 165.977 342.496 Q170.028 342.496 172.82 345.757 Q175.611 349.018 175.611 353.563 Q175.611 358.331 172.301 361.592 Q169.016 364.853 164.569 364.853 Q160.518 364.853 157.949 361.963 Q155.404 359.072 155.404 355.589 Z" fill="#000000" fill-rule="evenodd" fill-opacity="1" /><path clip-path="url(#clip400)" d="M180.157 347.561 Q180.157 340.125 182.034 336.074 Q184.653 330.046 190.829 330.046 Q192.138 330.046 193.497 330.416 Q194.88 330.762 196.609 332.121 Q198.363 333.48 199.425 335.703 Q201.451 340.001 201.451 347.561 Q201.451 354.947 199.574 358.974 Q196.832 364.853 190.779 364.853 Q188.507 364.853 186.184 363.692 Q183.887 362.531 182.43 359.739 Q180.157 355.564 180.157 347.561 M184.356 346.943 Q184.356 354.576 184.9 357.615 Q185.517 360.9 187.197 362.333 Q188.902 363.741 190.779 363.741 Q192.805 363.741 194.485 362.234 Q196.189 360.703 196.708 357.417 Q197.276 354.181 197.252 346.943 Q197.252 339.903 196.758 337.086 Q196.091 333.801 194.312 332.492 Q192.558 331.158 190.779 331.158 Q190.112 331.158 189.396 331.355 Q188.704 331.553 187.691 332.121 Q186.679 332.689 185.888 334.097 Q185.122 335.505 184.752 337.63 Q184.356 340.372 184.356 346.943 Z" fill="#000000" fill-rule="evenodd" fill-opacity="1" /><path clip-path="url(#clip400)" d="M116.052 240.697 Q116.052 233.262 117.929 229.21 Q120.548 223.183 126.723 223.183 Q128.033 223.183 129.391 223.553 Q130.775 223.899 132.504 225.258 Q134.258 226.616 135.32 228.84 Q137.346 233.138 137.346 240.697 Q137.346 248.084 135.468 252.11 Q132.726 257.99 126.674 257.99 Q124.401 257.99 122.079 256.829 Q119.782 255.668 118.324 252.876 Q116.052 248.701 116.052 240.697 M120.251 240.08 Q120.251 247.713 120.795 250.752 Q121.412 254.037 123.092 255.47 Q124.797 256.878 126.674 256.878 Q128.7 256.878 130.38 255.371 Q132.084 253.839 132.603 250.554 Q133.171 247.318 133.146 240.08 Q133.146 233.039 132.652 230.223 Q131.985 226.938 130.207 225.628 Q128.453 224.294 126.674 224.294 Q126.007 224.294 125.291 224.492 Q124.599 224.69 123.586 225.258 Q122.573 225.826 121.783 227.234 Q121.017 228.642 120.646 230.767 Q120.251 233.509 120.251 240.08 Z" fill="#000000" fill-rule="evenodd" fill-opacity="1" /><path clip-path="url(#clip400)" d="M144.436 256.063 Q143.67 255.248 143.67 254.185 Q143.67 253.123 144.436 252.357 Q145.202 251.567 146.363 251.567 Q147.474 251.567 148.215 252.308 Q148.981 253.024 148.981 254.21 Q148.981 255.371 148.166 256.137 Q147.375 256.878 146.363 256.878 Q145.202 256.878 144.436 256.063 Z" fill="#000000" fill-rule="evenodd" fill-opacity="1" /><path clip-path="url(#clip400)" d="M156.269 233.089 L157.924 222.689 L159.184 222.689 Q159.332 223.306 159.579 223.578 Q159.851 223.85 161.283 224.072 Q162.741 224.294 165.681 224.294 L177.958 224.294 Q177.958 225.455 177.514 226.073 L170.671 235.683 Q168.497 238.721 167.533 244.329 Q166.965 248.084 166.99 252.629 L166.99 255.198 Q166.99 257.99 164.643 257.99 Q162.321 257.99 162.321 255.198 Q162.321 245.539 168.546 236.177 Q169.213 235.213 171.659 231.779 Q174.129 228.346 174.228 228.197 L163.754 228.197 Q159.159 228.197 158.788 228.494 Q158.294 228.939 157.529 233.089 L156.269 233.089 Z" fill="#000000" fill-rule="evenodd" fill-opacity="1" /><path clip-path="url(#clip400)" d="M181.244 248.726 Q181.244 247.219 182.059 246.651 Q182.874 246.058 183.739 246.058 Q184.9 246.058 185.567 246.799 Q186.259 247.515 186.259 248.528 Q186.259 249.541 185.567 250.282 Q184.9 250.999 183.739 250.999 Q183.171 250.999 182.874 250.9 Q183.541 253.222 185.567 254.902 Q187.617 256.582 190.31 256.582 Q193.694 256.582 195.72 253.296 Q196.93 251.172 196.93 246.354 Q196.93 242.105 196.016 239.981 Q194.608 236.745 191.718 236.745 Q187.617 236.745 185.196 240.277 Q184.9 240.722 184.554 240.747 Q184.06 240.747 183.936 240.475 Q183.838 240.179 183.838 239.413 L183.838 224.442 Q183.838 223.232 184.332 223.232 Q184.529 223.232 184.949 223.38 Q188.136 224.788 191.669 224.813 Q195.3 224.813 198.561 223.331 Q198.808 223.183 198.956 223.183 Q199.45 223.183 199.475 223.751 Q199.475 223.948 199.055 224.541 Q198.66 225.109 197.795 225.875 Q196.93 226.616 195.819 227.333 Q194.707 228.049 193.077 228.543 Q191.471 229.013 189.692 229.013 Q187.568 229.013 185.394 228.346 L185.394 238.202 Q188.013 235.633 191.817 235.633 Q195.868 235.633 198.66 238.894 Q201.451 242.155 201.451 246.7 Q201.451 251.468 198.141 254.729 Q194.855 257.99 190.409 257.99 Q186.357 257.99 183.788 255.099 Q181.244 252.209 181.244 248.726 Z" fill="#000000" fill-rule="evenodd" fill-opacity="1" /><path clip-path="url(#clip400)" d="M118.028 121.136 L118.028 119.555 Q124.105 119.555 127.242 116.319 Q128.107 116.319 128.255 116.517 Q128.403 116.715 128.403 117.629 L128.403 146.013 Q128.403 147.52 129.144 147.989 Q129.886 148.458 133.122 148.458 L134.727 148.458 L134.727 150.015 Q132.949 149.866 126.526 149.866 Q120.103 149.866 118.349 150.015 L118.349 148.458 L119.955 148.458 Q123.141 148.458 123.907 148.014 Q124.673 147.544 124.673 146.013 L124.673 119.803 Q122.03 121.136 118.028 121.136 Z" fill="#000000" fill-rule="evenodd" fill-opacity="1" /><path clip-path="url(#clip400)" d="M143.892 149.2 Q143.127 148.384 143.127 147.322 Q143.127 146.26 143.892 145.494 Q144.658 144.703 145.819 144.703 Q146.931 144.703 147.672 145.445 Q148.438 146.161 148.438 147.347 Q148.438 148.508 147.623 149.274 Q146.832 150.015 145.819 150.015 Q144.658 150.015 143.892 149.2 Z" fill="#000000" fill-rule="evenodd" fill-opacity="1" /><path clip-path="url(#clip400)" d="M154.861 133.834 Q154.861 126.398 156.738 122.347 Q159.357 116.319 165.532 116.319 Q166.842 116.319 168.2 116.69 Q169.584 117.036 171.313 118.394 Q173.067 119.753 174.129 121.976 Q176.155 126.275 176.155 133.834 Q176.155 141.22 174.277 145.247 Q171.535 151.126 165.483 151.126 Q163.21 151.126 160.888 149.965 Q158.591 148.804 157.133 146.013 Q154.861 141.838 154.861 133.834 M159.06 133.216 Q159.06 140.85 159.604 143.888 Q160.221 147.174 161.901 148.607 Q163.606 150.015 165.483 150.015 Q167.509 150.015 169.189 148.508 Q170.893 146.976 171.412 143.691 Q171.98 140.455 171.955 133.216 Q171.955 126.176 171.461 123.36 Q170.794 120.074 169.016 118.765 Q167.262 117.431 165.483 117.431 Q164.816 117.431 164.1 117.629 Q163.408 117.826 162.395 118.394 Q161.382 118.963 160.592 120.371 Q159.826 121.779 159.455 123.903 Q159.06 126.645 159.06 133.216 Z" fill="#000000" fill-rule="evenodd" fill-opacity="1" /><path clip-path="url(#clip400)" d="M180.157 133.834 Q180.157 126.398 182.034 122.347 Q184.653 116.319 190.829 116.319 Q192.138 116.319 193.497 116.69 Q194.88 117.036 196.609 118.394 Q198.363 119.753 199.425 121.976 Q201.451 126.275 201.451 133.834 Q201.451 141.22 199.574 145.247 Q196.832 151.126 190.779 151.126 Q188.507 151.126 186.184 149.965 Q183.887 148.804 182.43 146.013 Q180.157 141.838 180.157 133.834 M184.356 133.216 Q184.356 140.85 184.9 143.888 Q185.517 147.174 187.197 148.607 Q188.902 150.015 190.779 150.015 Q192.805 150.015 194.485 148.508 Q196.189 146.976 196.708 143.691 Q197.276 140.455 197.252 133.216 Q197.252 126.176 196.758 123.36 Q196.091 120.074 194.312 118.765 Q192.558 117.431 190.779 117.431 Q190.112 117.431 189.396 117.629 Q188.704 117.826 187.691 118.394 Q186.679 118.963 185.888 120.371 Q185.122 121.779 184.752 123.903 Q184.356 126.645 184.356 133.216 Z" fill="#000000" fill-rule="evenodd" fill-opacity="1" /><path clip-path="url(#clip400)" d="M83.2522 489.737 L81.1122 489.737 L81.1122 488.073 Q81.1122 484.302 80.5008 483.453 Q79.8554 482.57 77.8174 482.57 L41.1669 482.57 Q39.1628 482.57 38.5514 483.453 Q37.9061 484.336 37.9061 488.073 L37.9061 489.737 L35.7322 489.737 L35.7322 465.179 Q35.7322 458.147 39.6044 453.46 Q43.4767 448.773 48.6736 448.773 Q53.8366 448.773 57.573 453.562 Q61.2754 458.317 61.2754 464.635 L61.2754 476.388 L77.8174 476.388 Q79.8215 476.388 80.4669 475.539 Q81.1122 474.655 81.1122 470.885 L81.1122 469.221 L83.2522 469.221 Q83.0484 471.666 83.0484 479.513 Q83.0484 487.291 83.2522 489.737 M59.4752 476.592 L59.4752 467.013 Q59.4752 463.888 58.592 461.612 Q57.7089 459.336 56.6559 458.317 Q55.569 457.264 53.8366 456.687 Q52.0703 456.075 51.1193 456.008 Q50.1342 455.94 48.6736 455.94 Q47.1451 455.94 46.194 456.008 Q45.209 456.075 43.4767 456.687 Q41.7104 457.264 40.6574 458.317 Q39.5704 459.336 38.7552 461.612 Q37.9061 463.854 37.9061 467.013 L37.9061 473.195 Q37.9061 475.573 38.3816 476.082 Q38.8571 476.592 40.6914 476.592 L59.4752 476.592 Z" fill="#000000" fill-rule="evenodd" fill-opacity="1" /><path clip-path="url(#clip400)" d="M79.5158 440.315 Q74.9642 444.9 68.3746 444.9 Q61.751 444.9 56.9276 440.417 Q52.0703 435.899 52.0703 429.445 Q52.0703 423.127 56.8937 418.61 Q61.683 414.058 68.3746 414.058 Q74.9302 414.058 79.4818 418.644 Q84.0334 423.195 84.0334 429.513 Q84.0334 435.695 79.5158 440.315 M67.7971 439.126 Q74.5566 439.126 77.6136 437.36 Q82.2671 434.642 82.2671 429.445 Q82.2671 426.864 80.8745 424.724 Q79.4818 422.55 77.1381 421.361 Q74.081 419.833 67.7971 419.833 Q61.1056 419.833 58.1505 421.667 Q53.6328 424.384 53.6328 429.513 Q53.6328 431.755 54.8217 433.963 Q55.9766 436.137 58.2863 437.462 Q61.3434 439.126 67.7971 439.126 Z" fill="#000000" fill-rule="evenodd" fill-opacity="1" /><path clip-path="url(#clip400)" d="M82.335 409.744 L73.1639 409.744 Q72.3827 409.744 72.1109 409.71 Q71.8392 409.676 71.6354 409.473 Q71.4316 409.269 71.4316 408.861 Q71.4316 408.386 71.6354 408.216 Q71.8392 408.012 72.6204 407.876 Q77.4098 406.823 79.9573 404.581 Q82.4709 402.306 82.4709 398.196 Q82.4709 394.289 80.7386 392.319 Q79.0063 390.349 76.153 390.349 Q71.058 390.349 69.7672 397.584 Q68.918 401.762 68.3746 403.494 Q67.7971 405.227 66.5403 406.755 Q64.0947 409.744 60.6301 409.744 Q57.1654 409.744 54.6179 407.129 Q52.0703 404.479 52.0703 398.637 Q52.0703 394.731 54.0404 392.081 Q53.429 391.3 52.9195 390.893 Q52.0703 389.975 52.0703 389.5 Q52.0703 388.956 52.444 388.855 Q52.7837 388.753 53.7687 388.753 L60.7659 388.753 Q61.5472 388.753 61.8189 388.787 Q62.0906 388.821 62.2944 389.024 Q62.4643 389.228 62.4643 389.67 Q62.4643 390.451 61.8189 390.485 Q53.3951 391.028 53.3951 398.637 Q53.3951 402.747 54.9915 404.581 Q56.554 406.416 58.6939 406.416 Q59.8828 406.416 60.7999 405.872 Q61.683 405.295 62.2265 404.581 Q62.736 403.834 63.2455 402.475 Q63.7211 401.117 63.8909 400.301 Q64.0607 399.452 64.4004 397.856 Q65.4534 392.285 67.7292 389.942 Q70.6504 387.02 74.3528 387.02 Q78.4628 387.02 81.2481 389.806 Q84.0334 392.591 84.0334 398.196 Q84.0334 402.713 81.0103 405.872 Q81.4179 406.28 81.7916 406.585 Q82.1312 406.891 82.2671 407.027 Q82.403 407.129 82.5049 407.163 Q82.5728 407.197 82.6407 407.265 Q84.0334 408.657 84.0334 408.997 Q84.0334 409.541 83.6598 409.642 Q83.3201 409.744 82.335 409.744 Z" fill="#000000" fill-rule="evenodd" fill-opacity="1" /><path clip-path="url(#clip400)" d="M83.2522 382.367 L81.1122 382.367 Q81.1122 378.664 80.6707 377.815 Q80.1951 376.966 77.9533 376.966 L59.2374 376.966 Q56.6559 376.966 56.0445 377.849 Q55.4331 378.698 55.4331 382.095 L53.2592 382.095 L52.5119 372.381 L78.0212 372.381 Q80.0932 372.381 80.6027 371.633 Q81.1122 370.886 81.1122 367.489 L83.2522 367.489 Q83.0484 374.588 83.0484 374.724 Q83.0484 375.675 83.2522 382.367 M40.3857 379.446 Q38.993 379.446 37.8721 378.393 Q36.7172 377.306 36.7172 375.777 Q36.7172 374.249 37.7702 373.162 Q38.7892 372.075 40.4196 372.075 Q42.0161 372.075 43.0691 373.162 Q44.0881 374.249 44.0881 375.777 Q44.0881 377.374 42.9672 378.427 Q41.8462 379.446 40.3857 379.446 Z" fill="#000000" fill-rule="evenodd" fill-opacity="1" /><path clip-path="url(#clip400)" d="M55.4331 364.093 L53.9046 364.093 Q53.7687 360.9 51.5269 358.794 Q49.2511 356.654 46.4658 355.94 Q43.6805 355.193 40.4536 355.125 L40.4536 353.393 L53.2592 353.393 L53.2592 343.441 L55.4331 343.441 L55.4331 353.393 L74.7604 353.393 Q82.2671 353.393 82.2671 348.705 Q82.2671 346.701 80.2291 345.377 Q78.1571 344.052 74.4886 344.052 L70.6504 344.052 L70.6504 342.32 L74.6245 342.32 Q78.3949 342.32 81.2141 344.052 Q84.0334 345.784 84.0334 349.215 Q84.0334 350.472 83.6937 351.728 Q83.388 352.951 82.5728 354.582 Q81.7236 356.178 79.6856 357.197 Q77.6136 358.182 74.6245 358.182 L55.4331 358.182 L55.4331 364.093 Z" fill="#000000" fill-rule="evenodd" fill-opacity="1" /><path clip-path="url(#clip400)" d="M83.2522 336.138 L81.1122 336.138 Q81.1122 332.435 80.6707 331.586 Q80.1951 330.737 77.9533 330.737 L59.2374 330.737 Q56.6559 330.737 56.0445 331.62 Q55.4331 332.469 55.4331 335.866 L53.2592 335.866 L52.5119 326.151 L78.0212 326.151 Q80.0932 326.151 80.6027 325.404 Q81.1122 324.657 81.1122 321.26 L83.2522 321.26 Q83.0484 328.359 83.0484 328.495 Q83.0484 329.446 83.2522 336.138 M40.3857 333.216 Q38.993 333.216 37.8721 332.163 Q36.7172 331.076 36.7172 329.548 Q36.7172 328.019 37.7702 326.932 Q38.7892 325.846 40.4196 325.846 Q42.0161 325.846 43.0691 326.932 Q44.0881 328.019 44.0881 329.548 Q44.0881 331.144 42.9672 332.197 Q41.8462 333.216 40.3857 333.216 Z" fill="#000000" fill-rule="evenodd" fill-opacity="1" /><path clip-path="url(#clip400)" d="M79.5158 312.666 Q74.9642 317.252 68.3746 317.252 Q61.751 317.252 56.9276 312.768 Q52.0703 308.251 52.0703 301.797 Q52.0703 295.479 56.8937 290.961 Q61.683 286.41 68.3746 286.41 Q74.9302 286.41 79.4818 290.995 Q84.0334 295.547 84.0334 301.865 Q84.0334 308.047 79.5158 312.666 M67.7971 311.477 Q74.5566 311.477 77.6136 309.711 Q82.2671 306.994 82.2671 301.797 Q82.2671 299.215 80.8745 297.075 Q79.4818 294.902 77.1381 293.713 Q74.081 292.184 67.7971 292.184 Q61.1056 292.184 58.1505 294.018 Q53.6328 296.736 53.6328 301.865 Q53.6328 304.107 54.8217 306.314 Q55.9766 308.488 58.2863 309.813 Q61.3434 311.477 67.7971 311.477 Z" fill="#000000" fill-rule="evenodd" fill-opacity="1" /><path clip-path="url(#clip400)" d="M83.2522 282.164 L81.1122 282.164 Q81.1122 278.461 80.6707 277.612 Q80.1951 276.763 77.9533 276.763 L59.3053 276.763 Q56.7238 276.763 56.0785 277.68 Q55.4331 278.563 55.4331 282.164 L53.2592 282.164 L52.5119 272.381 L59.8148 272.381 Q52.5119 269.12 52.5119 262.089 Q52.5119 256.858 55.0934 254.786 Q56.8257 253.258 58.7619 252.952 Q60.698 252.612 65.7251 252.612 L79.0063 252.612 Q80.4669 252.545 80.8065 251.424 Q81.1122 250.303 81.1122 247.178 L83.2522 247.178 Q83.0484 254.277 83.0484 254.99 Q83.0484 255.534 83.2522 262.837 L81.1122 262.837 Q81.1122 259.134 80.6707 258.285 Q80.1951 257.402 77.9533 257.402 L61.751 257.402 Q58.2184 257.402 56.1464 258.489 Q54.0404 259.576 54.0404 262.565 Q54.0404 266.165 57.0635 269.053 Q60.0866 271.94 65.1816 271.94 L77.9533 271.94 Q80.1951 271.94 80.6707 271.091 Q81.1122 270.207 81.1122 266.539 L83.2522 266.539 Q83.0484 273.638 83.0484 274.317 Q83.0484 274.861 83.2522 282.164 Z" fill="#000000" fill-rule="evenodd" fill-opacity="1" /><path clip-path="url(#clip400)" d="M65.861 215.792 Q54.1084 215.792 44.6315 211.41 Q40.6574 209.542 37.3286 206.927 Q33.9998 204.311 32.5392 202.579 Q31.0787 200.847 31.0787 200.371 Q31.0787 199.692 31.758 199.658 Q32.0977 199.658 32.9469 200.575 Q44.3598 211.784 65.861 211.75 Q87.4301 211.75 98.4015 200.847 Q99.5903 199.658 99.964 199.658 Q100.643 199.658 100.643 200.371 Q100.643 200.847 99.2507 202.511 Q97.858 204.175 94.6651 206.757 Q91.4722 209.338 87.566 211.207 Q78.0892 215.792 65.861 215.792 Z" fill="#000000" fill-rule="evenodd" fill-opacity="1" /><path clip-path="url(#clip400)" d="M83.2522 193.476 L81.1122 193.476 Q81.1122 189.773 80.6707 188.924 Q80.1951 188.075 77.9533 188.075 L59.3053 188.075 Q56.7238 188.075 56.0785 188.992 Q55.4331 189.875 55.4331 193.476 L53.2592 193.476 L52.5119 183.693 L59.8148 183.693 Q52.5119 180.432 52.5119 173.401 Q52.5119 165.249 59.3053 164.128 Q56.6559 162.939 54.5839 160.46 Q52.5119 157.946 52.5119 154.04 Q52.5119 148.809 55.0934 146.737 Q56.8257 145.208 58.7619 144.903 Q60.698 144.597 65.7251 144.597 L79.0063 144.597 Q80.4669 144.529 80.8065 143.408 Q81.1122 142.287 81.1122 139.162 L83.2522 139.162 Q83.0484 146.261 83.0484 146.941 Q83.0484 147.484 83.2522 154.821 L81.1122 154.821 Q81.1122 151.119 80.6707 150.27 Q80.1951 149.386 77.9533 149.386 L61.751 149.386 Q58.2184 149.386 56.1464 150.473 Q54.0404 151.56 54.0404 154.549 Q54.0404 158.15 57.0635 161.037 Q60.0866 163.924 65.1816 163.924 L77.9533 163.924 Q80.1951 163.924 80.6707 163.075 Q81.1122 162.192 81.1122 158.49 L83.2522 158.49 Q83.0484 165.589 83.0484 166.302 Q83.0484 166.845 83.2522 174.148 L81.1122 174.148 Q81.1122 170.446 80.6707 169.597 Q80.1951 168.714 77.9533 168.714 L61.751 168.714 Q58.2184 168.714 56.1464 169.801 Q54.0404 170.888 54.0404 173.877 Q54.0404 177.477 57.0635 180.364 Q60.0866 183.252 65.1816 183.252 L77.9533 183.252 Q80.1951 183.252 80.6707 182.402 Q81.1122 181.519 81.1122 177.851 L83.2522 177.851 Q83.0484 184.95 83.0484 185.629 Q83.0484 186.173 83.2522 193.476 Z" fill="#000000" fill-rule="evenodd" fill-opacity="1" /><path clip-path="url(#clip400)" d="M99.964 133.829 Q99.6243 133.829 98.7751 132.946 Q87.3622 121.737 65.861 121.737 Q44.2919 121.737 33.3884 132.505 Q32.1316 133.829 31.758 133.829 Q31.0787 133.829 31.0787 133.15 Q31.0787 132.675 32.4713 131.01 Q33.864 129.312 37.0569 126.764 Q40.2498 124.183 44.156 122.281 Q53.6328 117.695 65.861 117.695 Q77.6136 117.695 87.0904 122.077 Q91.0646 123.945 94.3934 126.56 Q97.7222 129.176 99.1827 130.908 Q100.643 132.641 100.643 133.15 Q100.643 133.829 99.964 133.829 Z" fill="#000000" fill-rule="evenodd" fill-opacity="1" /><polyline clip-path="url(#clip402)" style="stroke:#34495e; stroke-linecap:round; stroke-linejoin:round; stroke-width:8; stroke-opacity:1; fill:none" stroke-dasharray="32, 20" points="
  686.104,132.735 685.188,132.737 684.272,132.743 683.357,132.754 682.441,132.768 681.526,132.787 680.61,132.81 679.695,132.837 678.779,132.869 677.863,132.905 
  676.948,132.944 676.032,132.988 675.117,133.037 674.201,133.089 673.286,133.146 672.37,133.206 671.454,133.271 670.539,133.341 669.623,133.414 668.708,133.492 
  667.792,133.573 666.877,133.659 665.961,133.75 665.045,133.844 664.13,133.942 663.214,134.045 662.299,134.152 661.383,134.263 660.468,134.378 659.552,134.498 
  658.636,134.622 657.721,134.75 656.805,134.882 655.89,135.018 654.974,135.158 654.059,135.303 653.143,135.452 652.227,135.605 651.312,135.762 650.396,135.924 
  649.481,136.089 648.565,136.259 647.65,136.433 646.734,136.611 645.818,136.794 644.903,136.98 643.987,137.171 643.072,137.366 642.156,137.565 641.24,137.769 
  640.325,137.976 639.409,138.188 638.494,138.404 637.578,138.624 636.663,138.849 635.747,139.077 634.831,139.31 633.916,139.547 633,139.788 632.085,140.033 
  631.169,140.283 630.254,140.536 629.338,140.794 628.422,141.056 627.507,141.323 626.591,141.593 625.676,141.868 624.76,142.147 623.845,142.43 622.929,142.717 
  622.013,143.008 621.098,143.304 620.182,143.604 619.267,143.908 618.351,144.216 617.436,144.528 616.52,144.845 615.604,145.166 614.689,145.491 613.773,145.82 
  612.858,146.153 611.942,146.491 611.027,146.833 610.111,147.179 609.195,147.529 608.28,147.883 607.364,148.242 606.449,148.604 605.533,148.971 604.618,149.342 
  603.702,149.718 602.786,150.097 601.871,150.481 600.955,150.869 600.04,151.261 599.124,151.657 598.209,152.058 597.293,152.462 596.377,152.871 595.462,153.284 
  594.546,153.701 593.631,154.123 592.715,154.548 591.8,154.978 590.884,155.412 589.968,155.85 589.053,156.293 588.137,156.739 587.222,157.19 586.306,157.645 
  585.391,158.104 584.475,158.568 583.559,159.035 582.644,159.507 581.728,159.983 580.813,160.463 579.897,160.947 578.982,161.436 578.066,161.929 577.15,162.425 
  576.235,162.927 575.319,163.432 574.404,163.941 573.488,164.455 572.573,164.973 571.657,165.495 570.741,166.021 569.826,166.552 568.91,167.086 567.995,167.625 
  567.079,168.168 566.164,168.715 565.248,169.267 564.332,169.822 563.417,170.382 562.501,170.946 561.586,171.514 560.67,172.087 559.755,172.663 558.839,173.244 
  557.923,173.829 557.008,174.418 556.092,175.012 555.177,175.609 554.261,176.211 553.346,176.817 552.43,177.427 551.514,178.041 550.599,178.66 549.683,179.283 
  548.768,179.91 547.852,180.541 546.937,181.176 546.021,181.815 545.105,182.459 544.19,183.107 543.274,183.759 542.359,184.415 541.443,185.076 540.528,185.74 
  539.612,186.409 538.696,187.082 537.781,187.759 536.865,188.441 535.95,189.126 535.034,189.816 534.119,190.51 533.203,191.208 532.287,191.911 531.372,192.617 
  530.456,193.328 529.541,194.043 528.625,194.762 527.71,195.486 526.794,196.213 525.878,196.945 524.963,197.681 524.047,198.421 523.132,199.165 522.216,199.914 
  521.301,200.666 520.385,201.423 519.469,202.184 518.554,202.95 517.638,203.719 516.723,204.493 515.807,205.271 514.892,206.053 513.976,206.839 513.06,207.629 
  512.145,208.424 511.229,209.223 510.314,210.026 509.398,210.833 508.483,211.645 507.567,212.46 506.651,213.28 505.736,214.104 504.82,214.932 503.905,215.764 
  502.989,216.601 502.074,217.442 501.158,218.287 500.242,219.136 499.327,219.989 498.411,220.847 497.496,221.708 496.58,222.574 495.665,223.445 494.749,224.319 
  493.833,225.197 492.918,226.08 492.002,226.967 491.087,227.858 490.171,228.753 489.256,229.653 488.34,230.556 487.424,231.464 486.509,232.376 485.593,233.293 
  484.678,234.213 483.762,235.138 482.847,236.066 481.931,236.999 481.015,237.937 480.1,238.878 479.184,239.824 478.269,240.773 477.353,241.727 476.438,242.686 
  475.522,243.648 474.606,244.614 473.691,245.585 472.775,246.56 471.86,247.539 470.944,248.523 470.029,249.51 469.113,250.502 468.197,251.498 467.282,252.498 
  466.366,253.502 465.451,254.511 464.535,255.523 463.62,256.54 462.704,257.561 461.788,258.587 460.873,259.616 459.957,260.65 459.042,261.688 458.126,262.73 
  457.211,263.776 456.295,264.826 455.379,265.881 454.464,266.94 453.548,268.003 452.633,269.07 451.717,270.141 450.802,271.217 449.886,272.297 448.97,273.381 
  448.055,274.469 447.139,275.561 446.224,276.658 445.308,277.758 444.393,278.863 443.477,279.972 442.561,281.086 441.646,282.203 440.73,283.325 439.815,284.451 
  438.899,285.581 437.984,286.715 437.068,287.854 436.152,288.997 435.237,290.143 434.321,291.294 433.406,292.45 432.49,293.609 431.575,294.773 430.659,295.941 
  429.743,297.113 428.828,298.289 427.912,299.469 426.997,300.654 426.081,301.843 425.166,303.036 424.25,304.233 423.334,305.434 422.419,306.64 421.503,307.85 
  420.588,309.064 419.672,310.282 418.757,311.504 417.841,312.731 416.925,313.961 416.01,315.196 415.094,316.435 414.179,317.679 413.263,318.926 412.348,320.178 
  411.432,321.434 410.516,322.694 409.601,323.958 408.685,325.227 407.77,326.499 406.854,327.776 405.939,329.057 405.023,330.343 404.107,331.632 403.192,332.926 
  402.276,334.224 401.361,335.526 400.445,336.832 399.529,338.142 398.614,339.457 397.698,340.776 396.783,342.099 395.867,343.426 394.952,344.757 394.036,346.093 
  393.12,347.432 392.205,348.776 391.289,350.125 390.374,351.477 389.458,352.833 388.543,354.194 387.627,355.559 386.711,356.928 385.796,358.302 384.88,359.679 
  383.965,361.061 383.049,362.447 382.134,363.837 381.218,365.231 380.302,366.629 379.387,368.032 378.471,369.439 377.556,370.85 376.64,372.265 375.725,373.685 
  374.809,375.108 373.893,376.536 372.978,377.968 372.062,379.404 371.147,380.845 370.231,382.289 369.316,383.738 368.4,385.191 367.484,386.648 366.569,388.11 
  365.653,389.575 364.738,391.045 363.822,392.519 362.907,393.997 361.991,395.479 361.075,396.966 360.16,398.457 359.244,399.952 358.329,401.451 357.413,402.954 
  356.498,404.462 355.582,405.973 354.666,407.489 353.751,409.009 352.835,410.533 351.92,412.062 351.004,413.595 350.089,415.131 349.173,416.672 348.257,418.218 
  347.342,419.767 346.426,421.321 345.511,422.879 344.595,424.441 343.68,426.007 342.764,427.577 341.848,429.152 340.933,430.731 340.017,432.314 339.102,433.901 
  338.186,435.492 337.271,437.088 336.355,438.687 335.439,440.291 334.524,441.899 333.608,443.512 332.693,445.128 331.777,446.749 330.862,448.374 329.946,450.003 
  329.03,451.636 328.115,453.274 327.199,454.916 326.284,456.561 325.368,458.211 324.453,459.866 323.537,461.524 322.621,463.187 321.706,464.854 320.79,466.525 
  319.875,468.2 318.959,469.879 318.044,471.563 317.128,473.251 316.212,474.943 315.297,476.639 314.381,478.339 313.466,480.044 312.55,481.753 311.635,483.466 
  310.719,485.183 309.803,486.904 308.888,488.63 307.972,490.36 307.057,492.093 306.141,493.832 305.226,495.574 304.31,497.32 303.394,499.071 302.479,500.826 
  301.563,502.585 300.648,504.348 299.732,506.116 298.817,507.888 297.901,509.663 296.985,511.443 296.07,513.228 295.154,515.016 294.239,516.809 293.323,518.606 
  292.408,520.407 291.492,522.212 290.576,524.021 289.661,525.835 288.745,527.653 287.83,529.475 286.914,531.301 285.999,533.131 285.083,534.966 284.167,536.805 
  283.252,538.648 282.336,540.495 281.421,542.346 280.505,544.202 279.59,546.061 278.674,547.925 277.758,549.793 276.843,551.666 275.927,553.542 275.012,555.423 
  274.096,557.308 273.181,559.197 1061.86,559.368 1060.95,557.649 1060.03,555.934 1059.12,554.223 1058.2,552.517 1057.29,550.815 1056.37,549.117 1055.45,547.423 
  1054.54,545.734 1053.62,544.049 1052.71,542.367 1051.79,540.69 1050.88,539.018 1049.96,537.349 1049.05,535.685 1048.13,534.025 1047.21,532.369 1046.3,530.717 
  1045.38,529.069 1044.47,527.426 1043.55,525.787 1042.64,524.152 1041.72,522.521 1040.81,520.894 1039.89,519.272 1038.97,517.653 1038.06,516.039 1037.14,514.43 
  1036.23,512.824 1035.31,511.222 1034.4,509.625 1033.48,508.032 1032.57,506.443 1031.65,504.859 1030.73,503.278 1029.82,501.702 1028.9,500.13 1027.99,498.562 
  1027.07,496.998 1026.16,495.438 1025.24,493.883 1024.33,492.332 1023.41,490.785 1022.49,489.242 1021.58,487.704 1020.66,486.169 1019.75,484.639 1018.83,483.113 
  
  "/>
<line clip-path="url(#clip402)" x1="686.104" y1="132.735" x2="670.104" y2="116.735" style="stroke:#3498db; stroke-width:8.64; stroke-opacity:1"/>
<line clip-path="url(#clip402)" x1="686.104" y1="132.735" x2="670.104" y2="148.735" style="stroke:#3498db; stroke-width:8.64; stroke-opacity:1"/>
<line clip-path="url(#clip402)" x1="686.104" y1="132.735" x2="702.104" y2="148.735" style="stroke:#3498db; stroke-width:8.64; stroke-opacity:1"/>
<line clip-path="url(#clip402)" x1="686.104" y1="132.735" x2="702.104" y2="116.735" style="stroke:#3498db; stroke-width:8.64; stroke-opacity:1"/>
<polyline clip-path="url(#clip402)" style="stroke:#27ae60; stroke-linecap:round; stroke-linejoin:round; stroke-width:16; stroke-opacity:1; fill:none" points="
  973.357,493.001 1064.31,473.225 
  "/>
<path clip-path="url(#clip400)" d="
M817.803 254.058 L1172.03 254.058 L1172.03 46.6985 L817.803 46.6985  Z
  " fill="#ffffff" fill-rule="evenodd" fill-opacity="1"/>
<polyline clip-path="url(#clip400)" style="stroke:#000000; stroke-linecap:round; stroke-linejoin:round; stroke-width:4; stroke-opacity:1; fill:none" points="
  817.803,254.058 1172.03,254.058 1172.03,46.6985 817.803,46.6985 817.803,254.058 
  "/>
<polyline clip-path="url(#clip400)" style="stroke:#34495e; stroke-linecap:round; stroke-linejoin:round; stroke-width:8; stroke-opacity:1; fill:none" stroke-dasharray="32, 20" points="
  828.173,98.5385 890.394,98.5385 
  "/>
<path clip-path="url(#clip400)" d="M900.764 92.9432 L901.727 81.5796 L932.631 81.5796 L933.594 92.9432 L932.335 92.9432 Q932.137 90.6704 931.939 89.3612 Q931.766 88.0519 931.322 86.8167 Q930.902 85.5569 930.358 84.964 Q929.839 84.3464 928.827 83.877 Q927.814 83.383 926.505 83.2594 Q925.195 83.1359 923.219 83.1359 Q920.897 83.1359 920.329 83.2347 Q919.711 83.383 919.563 83.8276 Q919.415 84.2476 919.415 85.1616 L919.415 111.817 Q919.415 112.829 919.612 113.249 Q919.835 113.645 920.996 113.966 Q922.157 114.262 924.726 114.262 L926.752 114.262 L926.752 115.818 Q924.676 115.67 917.142 115.67 Q909.657 115.67 907.582 115.818 L907.582 114.262 L909.607 114.262 Q912.177 114.262 913.338 113.966 Q914.523 113.645 914.721 113.249 Q914.919 112.829 914.919 111.817 L914.919 85.1616 Q914.919 84.4452 914.869 84.1488 Q914.82 83.8523 914.598 83.6053 Q914.375 83.3336 913.856 83.2347 Q913.362 83.1359 911.139 83.1359 Q909.163 83.1359 907.829 83.2594 Q906.52 83.383 905.507 83.877 Q904.494 84.3464 903.95 84.964 Q903.432 85.5569 902.987 86.8167 Q902.567 88.0519 902.394 89.3612 Q902.221 90.6704 902.023 92.9432 L900.764 92.9432 Z" fill="#000000" fill-rule="evenodd" fill-opacity="1" /><path clip-path="url(#clip400)" d="M932.656 115.818 L932.656 114.262 Q935.348 114.262 935.966 113.941 Q936.608 113.595 936.608 111.965 L936.608 98.4026 Q936.608 96.5251 935.941 96.0558 Q935.299 95.5864 932.656 95.5864 L932.656 94.0054 L939.696 93.4619 L939.696 99.0202 Q940.413 96.8463 941.919 95.1665 Q943.451 93.4619 945.921 93.4619 Q947.552 93.4619 948.589 94.376 Q949.652 95.29 949.652 96.5498 Q949.652 97.6615 948.96 98.2297 Q948.293 98.7732 947.478 98.7732 Q946.564 98.7732 945.921 98.205 Q945.304 97.6121 945.304 96.5993 Q945.304 95.9817 945.576 95.5123 Q945.872 95.0182 946.094 94.8453 Q946.317 94.6724 946.465 94.623 Q946.366 94.5736 945.921 94.5736 Q943.13 94.5736 941.524 97.3651 Q939.943 100.132 939.943 104.084 L939.943 111.866 Q939.943 113.323 940.536 113.793 Q941.154 114.262 943.797 114.262 L944.859 114.262 L944.859 115.818 Q942.833 115.67 938.436 115.67 Q937.819 115.67 936.855 115.695 Q935.892 115.72 934.632 115.769 Q933.372 115.818 932.656 115.818 Z" fill="#000000" fill-rule="evenodd" fill-opacity="1" /><path clip-path="url(#clip400)" d="M953.135 111.001 Q953.135 106.703 958.199 104.43 Q961.237 102.973 967.512 102.602 L967.512 100.749 Q967.512 97.6121 965.857 95.957 Q964.227 94.2771 962.151 94.2771 Q958.446 94.2771 956.667 96.5993 Q958.174 96.6487 958.718 97.4145 Q959.261 98.1556 959.261 98.9214 Q959.261 99.9342 958.619 100.601 Q958.001 101.243 956.939 101.243 Q955.926 101.243 955.259 100.626 Q954.592 99.9836 954.592 98.872 Q954.592 96.4016 956.816 94.7712 Q959.064 93.1408 962.25 93.1408 Q966.4 93.1408 969.167 95.9323 Q970.032 96.7969 970.452 97.9085 Q970.896 99.0202 970.946 99.7613 Q970.995 100.478 970.995 101.91 L970.995 112.014 Q970.995 112.311 971.094 112.805 Q971.193 113.299 971.638 113.941 Q972.107 114.559 972.873 114.559 Q974.701 114.559 974.676 111.322 L974.676 108.482 L975.961 108.482 L975.961 111.322 Q975.961 114.015 974.528 115.077 Q973.12 116.115 971.81 116.115 Q970.131 116.115 969.068 114.88 Q968.006 113.645 967.858 111.965 Q967.092 113.892 965.338 115.151 Q963.609 116.387 961.237 116.387 Q959.409 116.387 957.68 115.917 Q955.976 115.473 954.543 114.213 Q953.135 112.928 953.135 111.001 M957.038 110.952 Q957.038 112.829 958.372 114.04 Q959.706 115.25 961.583 115.25 Q963.708 115.25 965.61 113.62 Q967.512 111.965 967.512 108.729 L967.512 103.664 Q961.904 103.862 959.459 106.11 Q957.038 108.333 957.038 110.952 Z" fill="#000000" fill-rule="evenodd" fill-opacity="1" /><path clip-path="url(#clip400)" d="M977.122 122.143 Q977.122 121.13 977.764 120.463 Q978.382 119.82 979.444 119.82 Q980.506 119.82 981.124 120.463 Q981.766 121.13 981.766 122.143 Q981.766 123.057 981.222 123.625 Q980.704 124.218 980.012 124.415 Q981.321 125.082 982.729 125.082 Q983.89 125.082 984.681 124.391 Q985.471 123.699 985.817 122.562 Q986.188 121.426 986.311 120.463 Q986.435 119.524 986.435 118.437 L986.435 98.4026 Q986.435 96.5251 985.694 96.0558 Q984.977 95.5864 982.087 95.5864 L982.087 94.0054 L989.77 93.4619 L989.77 118.338 Q989.77 121.723 987.744 123.946 Q985.718 126.194 982.853 126.194 Q980.531 126.194 978.826 125.107 Q977.122 124.02 977.122 122.143 M985.2 86.5697 Q984.409 85.7792 984.409 84.6675 Q984.409 83.5559 985.2 82.7654 Q985.99 81.9749 987.102 81.9749 Q988.214 81.9749 989.004 82.7654 Q989.795 83.5559 989.795 84.6675 Q989.795 85.7792 989.004 86.5697 Q988.214 87.3355 987.102 87.3355 Q985.99 87.3355 985.2 86.5697 Z" fill="#000000" fill-rule="evenodd" fill-opacity="1" /><path clip-path="url(#clip400)" d="M995.97 104.677 Q995.97 99.9095 999.034 96.5251 Q1002.1 93.1408 1006.49 93.1408 Q1010.94 93.1408 1013.24 96.0311 Q1015.56 98.9214 1015.56 103.072 Q1015.56 103.837 1015.36 103.986 Q1015.16 104.134 1014.3 104.134 L1000.17 104.134 Q1000.17 109.297 1001.7 111.718 Q1003.83 115.102 1007.41 115.102 Q1007.9 115.102 1008.49 115.003 Q1009.09 114.904 1010.3 114.484 Q1011.51 114.04 1012.57 112.879 Q1013.63 111.718 1014.25 109.89 Q1014.4 109.173 1014.89 109.198 Q1015.56 109.198 1015.56 109.791 Q1015.56 110.236 1015.07 111.248 Q1014.6 112.236 1013.68 113.422 Q1012.77 114.608 1010.99 115.497 Q1009.24 116.387 1007.11 116.387 Q1002.66 116.387 999.305 113.027 Q995.97 109.643 995.97 104.677 M1000.22 103.072 L1012.23 103.072 Q1012.23 102.009 1012.03 100.824 Q1011.85 99.6378 1011.31 98.0073 Q1010.79 96.3522 1009.56 95.3147 Q1008.32 94.2771 1006.49 94.2771 Q1005.68 94.2771 1004.79 94.623 Q1003.92 94.9688 1002.86 95.8087 Q1001.8 96.6487 1001.06 98.5508 Q1000.32 100.453 1000.22 103.072 Z" fill="#000000" fill-rule="evenodd" fill-opacity="1" /><path clip-path="url(#clip400)" d="M1021.96 113.052 Q1018.75 109.692 1018.75 104.9 Q1018.75 100.082 1021.91 96.624 Q1025.07 93.1408 1029.72 93.1408 Q1032.8 93.1408 1035.13 94.623 Q1037.45 96.0805 1037.45 98.5755 Q1037.45 99.6872 1036.78 100.329 Q1036.14 100.947 1035.13 100.947 Q1034.06 100.947 1033.42 100.305 Q1032.8 99.6378 1032.8 98.6249 Q1032.8 98.1803 1032.95 97.7356 Q1033.1 97.2909 1033.64 96.8216 Q1034.21 96.3522 1035.17 96.2781 Q1033.37 94.4254 1029.86 94.4254 Q1029.81 94.4254 1029.76 94.4254 Q1027.2 94.4254 1025.07 96.8463 Q1022.95 99.2672 1022.95 104.801 Q1022.95 107.691 1023.64 109.816 Q1024.35 111.915 1025.52 113.002 Q1026.68 114.089 1027.81 114.608 Q1028.95 115.102 1030.06 115.102 Q1035.03 115.102 1036.71 109.791 Q1036.85 109.297 1037.35 109.297 Q1038.02 109.297 1038.02 109.791 Q1038.02 110.038 1037.82 110.68 Q1037.62 111.322 1037 112.335 Q1036.39 113.348 1035.5 114.237 Q1034.63 115.102 1033.07 115.744 Q1031.54 116.387 1029.62 116.387 Q1025.17 116.387 1021.96 113.052 Z" fill="#000000" fill-rule="evenodd" fill-opacity="1" /><path clip-path="url(#clip400)" d="M1040.44 95.5864 L1040.44 94.4748 Q1042.76 94.376 1044.29 92.7455 Q1045.85 91.0904 1046.37 89.0647 Q1046.91 87.0391 1046.96 84.6922 L1048.22 84.6922 L1048.22 94.0054 L1055.46 94.0054 L1055.46 95.5864 L1048.22 95.5864 L1048.22 109.643 Q1048.22 115.102 1051.63 115.102 Q1053.08 115.102 1054.05 113.62 Q1055.01 112.113 1055.01 109.445 L1055.01 106.654 L1056.27 106.654 L1056.27 109.544 Q1056.27 112.286 1055.01 114.336 Q1053.75 116.387 1051.26 116.387 Q1050.34 116.387 1049.43 116.14 Q1048.54 115.917 1047.35 115.324 Q1046.19 114.707 1045.45 113.225 Q1044.73 111.718 1044.73 109.544 L1044.73 95.5864 L1040.44 95.5864 Z" fill="#000000" fill-rule="evenodd" fill-opacity="1" /><path clip-path="url(#clip400)" d="M1063.83 113.101 Q1060.5 109.791 1060.5 104.998 Q1060.5 100.181 1063.76 96.6734 Q1067.04 93.1408 1071.74 93.1408 Q1076.33 93.1408 1079.62 96.6487 Q1082.93 100.132 1082.93 104.998 Q1082.93 109.766 1079.59 113.076 Q1076.28 116.387 1071.69 116.387 Q1067.19 116.387 1063.83 113.101 M1064.7 104.578 Q1064.7 109.494 1065.98 111.718 Q1067.96 115.102 1071.74 115.102 Q1073.61 115.102 1075.17 114.089 Q1076.75 113.076 1077.61 111.372 Q1078.73 109.149 1078.73 104.578 Q1078.73 99.7119 1077.39 97.5627 Q1075.42 94.2771 1071.69 94.2771 Q1070.06 94.2771 1068.45 95.1418 Q1066.87 95.9817 1065.91 97.6615 Q1064.7 99.8848 1064.7 104.578 Z" fill="#000000" fill-rule="evenodd" fill-opacity="1" /><path clip-path="url(#clip400)" d="M1085.79 115.818 L1085.79 114.262 Q1088.48 114.262 1089.1 113.941 Q1089.74 113.595 1089.74 111.965 L1089.74 98.4026 Q1089.74 96.5251 1089.08 96.0558 Q1088.44 95.5864 1085.79 95.5864 L1085.79 94.0054 L1092.83 93.4619 L1092.83 99.0202 Q1093.55 96.8463 1095.06 95.1665 Q1096.59 93.4619 1099.06 93.4619 Q1100.69 93.4619 1101.73 94.376 Q1102.79 95.29 1102.79 96.5498 Q1102.79 97.6615 1102.1 98.2297 Q1101.43 98.7732 1100.61 98.7732 Q1099.7 98.7732 1099.06 98.205 Q1098.44 97.6121 1098.44 96.5993 Q1098.44 95.9817 1098.71 95.5123 Q1099.01 95.0182 1099.23 94.8453 Q1099.45 94.6724 1099.6 94.623 Q1099.5 94.5736 1099.06 94.5736 Q1096.27 94.5736 1094.66 97.3651 Q1093.08 100.132 1093.08 104.084 L1093.08 111.866 Q1093.08 113.323 1093.67 113.793 Q1094.29 114.262 1096.93 114.262 L1098 114.262 L1098 115.818 Q1095.97 115.67 1091.57 115.67 Q1090.95 115.67 1089.99 115.695 Q1089.03 115.72 1087.77 115.769 Q1086.51 115.818 1085.79 115.818 Z" fill="#000000" fill-rule="evenodd" fill-opacity="1" /><path clip-path="url(#clip400)" d="M1105.11 122.093 Q1105.11 121.031 1105.73 120.463 Q1106.37 119.919 1107.23 119.919 Q1108.15 119.919 1108.74 120.487 Q1109.36 121.08 1109.36 122.044 Q1109.36 123.921 1107.38 124.168 Q1108.35 125.082 1109.75 125.082 Q1111.26 125.082 1112.47 123.971 Q1113.71 122.859 1114.23 121.797 Q1114.77 120.734 1115.53 118.808 Q1116.25 117.301 1116.79 115.818 L1109.21 97.3404 Q1108.72 96.1299 1107.95 95.8582 Q1107.18 95.5864 1105.11 95.5864 L1105.11 94.0054 Q1107.38 94.1536 1110.03 94.1536 Q1111.58 94.1536 1115.53 94.0054 L1115.53 95.5864 Q1112.69 95.5864 1112.69 96.8957 Q1112.69 97.0439 1112.99 97.8097 L1118.62 111.421 L1123.74 98.9708 Q1124.03 98.2544 1124.03 97.7603 Q1124.03 95.6852 1121.66 95.5864 L1121.66 94.0054 Q1125 94.1536 1126.06 94.1536 Q1128.13 94.1536 1129.84 94.0054 L1129.84 95.5864 Q1126.45 95.5864 1125.14 98.8226 L1116.23 120.413 Q1113.81 126.169 1109.75 126.194 Q1107.83 126.194 1106.47 125.008 Q1105.11 123.822 1105.11 122.093 Z" fill="#000000" fill-rule="evenodd" fill-opacity="1" /><line clip-path="url(#clip400)" x1="859.283" y1="150.378" x2="833.683" y2="124.778" style="stroke:#3498db; stroke-width:13.824; stroke-opacity:1"/>
<line clip-path="url(#clip400)" x1="859.283" y1="150.378" x2="833.683" y2="175.978" style="stroke:#3498db; stroke-width:13.824; stroke-opacity:1"/>
<line clip-path="url(#clip400)" x1="859.283" y1="150.378" x2="884.883" y2="175.978" style="stroke:#3498db; stroke-width:13.824; stroke-opacity:1"/>
<line clip-path="url(#clip400)" x1="859.283" y1="150.378" x2="884.883" y2="124.778" style="stroke:#3498db; stroke-width:13.824; stroke-opacity:1"/>
<path clip-path="url(#clip400)" d="M900.764 167.658 L900.764 166.102 L902.098 166.102 Q904.938 166.102 905.581 165.657 Q906.248 165.188 906.248 163.706 L906.248 137.051 Q906.248 135.594 905.581 135.149 Q904.914 134.679 902.098 134.679 L900.764 134.679 L900.764 133.098 Q902.542 133.247 908.52 133.247 Q914.449 133.247 916.203 133.098 L916.203 134.679 L914.894 134.679 Q912.053 134.679 911.386 135.149 Q910.744 135.594 910.744 137.051 L910.744 163.706 Q910.744 165.163 911.386 165.633 Q912.053 166.102 914.894 166.102 L916.203 166.102 L916.203 167.658 Q914.425 167.51 908.471 167.51 Q902.542 167.51 900.764 167.658 Z" fill="#000000" fill-rule="evenodd" fill-opacity="1" /><path clip-path="url(#clip400)" d="M919.242 167.658 L919.242 166.102 Q921.934 166.102 922.552 165.781 Q923.17 165.435 923.17 163.805 L923.17 150.243 Q923.17 148.365 922.503 147.896 Q921.86 147.426 919.242 147.426 L919.242 145.845 L926.356 145.302 L926.356 150.613 Q928.728 145.302 933.841 145.302 Q937.646 145.302 939.153 147.179 Q940.264 148.439 940.487 149.847 Q940.734 151.255 940.734 154.912 L940.734 164.571 Q940.783 165.633 941.598 165.88 Q942.413 166.102 944.686 166.102 L944.686 167.658 Q939.523 167.51 939.004 167.51 Q938.609 167.51 933.298 167.658 L933.298 166.102 Q935.991 166.102 936.608 165.781 Q937.25 165.435 937.25 163.805 L937.25 152.021 Q937.25 149.452 936.46 147.945 Q935.669 146.414 933.496 146.414 Q930.877 146.414 928.777 148.612 Q926.677 150.811 926.677 154.516 L926.677 163.805 Q926.677 165.435 927.295 165.781 Q927.937 166.102 930.605 166.102 L930.605 167.658 Q925.442 167.51 924.948 167.51 Q924.553 167.51 919.242 167.658 Z" fill="#000000" fill-rule="evenodd" fill-opacity="1" /><path clip-path="url(#clip400)" d="M947.354 167.658 L947.354 166.102 Q950.047 166.102 950.664 165.781 Q951.282 165.435 951.282 163.805 L951.282 150.193 Q951.282 148.316 950.64 147.871 Q950.022 147.426 947.552 147.426 L947.552 145.845 L954.617 145.302 L954.617 163.854 Q954.617 165.361 955.16 165.732 Q955.704 166.102 958.174 166.102 L958.174 167.658 Q953.011 167.51 952.912 167.51 Q952.221 167.51 947.354 167.658 M949.479 136.483 Q949.479 135.47 950.244 134.655 Q951.035 133.815 952.147 133.815 Q953.258 133.815 954.049 134.581 Q954.839 135.322 954.839 136.508 Q954.839 137.669 954.049 138.434 Q953.258 139.175 952.147 139.175 Q950.986 139.175 950.22 138.36 Q949.479 137.545 949.479 136.483 Z" fill="#000000" fill-rule="evenodd" fill-opacity="1" /><path clip-path="url(#clip400)" d="M960.645 147.426 L960.645 146.315 Q962.967 146.216 964.498 144.586 Q966.055 142.93 966.573 140.905 Q967.117 138.879 967.166 136.532 L968.426 136.532 L968.426 145.845 L975.664 145.845 L975.664 147.426 L968.426 147.426 L968.426 161.483 Q968.426 166.942 971.835 166.942 Q973.293 166.942 974.256 165.46 Q975.22 163.953 975.22 161.285 L975.22 158.494 L976.479 158.494 L976.479 161.384 Q976.479 164.126 975.22 166.176 Q973.96 168.227 971.465 168.227 Q970.551 168.227 969.637 167.98 Q968.747 167.757 967.562 167.164 Q966.4 166.547 965.659 165.065 Q964.943 163.558 964.943 161.384 L964.943 147.426 L960.645 147.426 Z" fill="#000000" fill-rule="evenodd" fill-opacity="1" /><path clip-path="url(#clip400)" d="M980.975 167.658 L980.975 166.102 Q983.668 166.102 984.286 165.781 Q984.903 165.435 984.903 163.805 L984.903 150.193 Q984.903 148.316 984.261 147.871 Q983.643 147.426 981.173 147.426 L981.173 145.845 L988.238 145.302 L988.238 163.854 Q988.238 165.361 988.782 165.732 Q989.325 166.102 991.796 166.102 L991.796 167.658 Q986.632 167.51 986.534 167.51 Q985.842 167.51 980.975 167.658 M983.1 136.483 Q983.1 135.47 983.866 134.655 Q984.656 133.815 985.768 133.815 Q986.88 133.815 987.67 134.581 Q988.461 135.322 988.461 136.508 Q988.461 137.669 987.67 138.434 Q986.88 139.175 985.768 139.175 Q984.607 139.175 983.841 138.36 Q983.1 137.545 983.1 136.483 Z" fill="#000000" fill-rule="evenodd" fill-opacity="1" /><path clip-path="url(#clip400)" d="M995.427 162.841 Q995.427 158.543 1000.49 156.27 Q1003.53 154.813 1009.8 154.442 L1009.8 152.589 Q1009.8 149.452 1008.15 147.797 Q1006.52 146.117 1004.44 146.117 Q1000.74 146.117 998.959 148.439 Q1000.47 148.489 1001.01 149.254 Q1001.55 149.996 1001.55 150.761 Q1001.55 151.774 1000.91 152.441 Q1000.29 153.083 999.231 153.083 Q998.218 153.083 997.551 152.466 Q996.884 151.824 996.884 150.712 Q996.884 148.242 999.108 146.611 Q1001.36 144.981 1004.54 144.981 Q1008.69 144.981 1011.46 147.772 Q1012.32 148.637 1012.74 149.749 Q1013.19 150.86 1013.24 151.601 Q1013.29 152.318 1013.29 153.75 L1013.29 163.854 Q1013.29 164.151 1013.39 164.645 Q1013.49 165.139 1013.93 165.781 Q1014.4 166.399 1015.16 166.399 Q1016.99 166.399 1016.97 163.162 L1016.97 160.322 L1018.25 160.322 L1018.25 163.162 Q1018.25 165.855 1016.82 166.917 Q1015.41 167.955 1014.1 167.955 Q1012.42 167.955 1011.36 166.72 Q1010.3 165.485 1010.15 163.805 Q1009.38 165.732 1007.63 166.991 Q1005.9 168.227 1003.53 168.227 Q1001.7 168.227 999.972 167.757 Q998.268 167.313 996.835 166.053 Q995.427 164.768 995.427 162.841 M999.33 162.792 Q999.33 164.669 1000.66 165.88 Q1002 167.09 1003.88 167.09 Q1006 167.09 1007.9 165.46 Q1009.8 163.805 1009.8 160.569 L1009.8 155.504 Q1004.2 155.702 1001.75 157.95 Q999.33 160.173 999.33 162.792 Z" fill="#000000" fill-rule="evenodd" fill-opacity="1" /><path clip-path="url(#clip400)" d="M1020.28 167.658 L1020.28 166.102 Q1022.97 166.102 1023.59 165.781 Q1024.21 165.435 1024.21 163.805 L1024.21 137.496 Q1024.21 135.618 1023.54 135.149 Q1022.9 134.679 1020.28 134.679 L1020.28 133.098 L1027.54 132.555 L1027.54 163.805 Q1027.54 165.435 1028.18 165.781 Q1028.83 166.102 1031.49 166.102 L1031.49 167.658 Q1030.88 167.658 1029.59 167.609 Q1028.31 167.56 1027.37 167.535 Q1026.43 167.51 1025.89 167.51 Q1025.29 167.51 1020.28 167.658 Z" fill="#000000" fill-rule="evenodd" fill-opacity="1" /><path clip-path="url(#clip400)" d="M1050.84 175.909 Q1053.53 175.909 1054.15 175.564 Q1054.79 175.242 1054.79 173.637 L1054.79 149.946 Q1054.79 148.266 1054.15 147.846 Q1053.53 147.426 1050.84 147.426 L1050.84 145.845 L1058.12 145.302 L1058.12 148.637 Q1061.16 145.302 1065.21 145.302 Q1069.51 145.302 1072.65 148.637 Q1075.79 151.972 1075.79 156.74 Q1075.79 161.557 1072.45 164.892 Q1069.12 168.227 1064.5 168.227 Q1061.98 168.227 1060.27 166.942 Q1058.59 165.633 1058.27 164.669 L1058.27 165.139 L1058.27 173.637 Q1058.27 175.267 1058.91 175.588 Q1059.56 175.909 1062.22 175.909 L1062.22 177.466 Q1056.91 177.317 1056.52 177.317 Q1056.02 177.317 1050.84 177.466 L1050.84 175.909 M1058.27 161.903 Q1058.27 162.668 1058.37 162.94 Q1058.49 163.212 1058.99 164.027 Q1060.99 167.09 1064.25 167.09 Q1064.28 167.09 1064.3 167.09 Q1067.19 167.09 1069.39 164.151 Q1071.59 161.186 1071.59 156.74 Q1071.59 152.491 1069.59 149.526 Q1067.59 146.562 1064.82 146.562 Q1062.84 146.562 1061.11 147.624 Q1059.38 148.686 1058.27 150.613 L1058.27 161.903 Z" fill="#000000" fill-rule="evenodd" fill-opacity="1" /><path clip-path="url(#clip400)" d="M1083.64 164.941 Q1080.31 161.631 1080.31 156.838 Q1080.31 152.021 1083.57 148.513 Q1086.85 144.981 1091.55 144.981 Q1096.14 144.981 1099.43 148.489 Q1102.74 151.972 1102.74 156.838 Q1102.74 161.606 1099.4 164.916 Q1096.09 168.227 1091.5 168.227 Q1087 168.227 1083.64 164.941 M1084.51 156.418 Q1084.51 161.334 1085.79 163.558 Q1087.77 166.942 1091.55 166.942 Q1093.43 166.942 1094.98 165.929 Q1096.56 164.916 1097.43 163.212 Q1098.54 160.989 1098.54 156.418 Q1098.54 151.552 1097.2 149.403 Q1095.23 146.117 1091.5 146.117 Q1089.87 146.117 1088.26 146.982 Q1086.68 147.822 1085.72 149.502 Q1084.51 151.725 1084.51 156.418 Z" fill="#000000" fill-rule="evenodd" fill-opacity="1" /><path clip-path="url(#clip400)" d="M1105.88 167.658 L1105.88 166.102 Q1108.57 166.102 1109.19 165.781 Q1109.8 165.435 1109.8 163.805 L1109.8 150.193 Q1109.8 148.316 1109.16 147.871 Q1108.54 147.426 1106.07 147.426 L1106.07 145.845 L1113.14 145.302 L1113.14 163.854 Q1113.14 165.361 1113.68 165.732 Q1114.23 166.102 1116.7 166.102 L1116.7 167.658 Q1111.53 167.51 1111.43 167.51 Q1110.74 167.51 1105.88 167.658 M1108 136.483 Q1108 135.47 1108.77 134.655 Q1109.56 133.815 1110.67 133.815 Q1111.78 133.815 1112.57 134.581 Q1113.36 135.322 1113.36 136.508 Q1113.36 137.669 1112.57 138.434 Q1111.78 139.175 1110.67 139.175 Q1109.51 139.175 1108.74 138.36 Q1108 137.545 1108 136.483 Z" fill="#000000" fill-rule="evenodd" fill-opacity="1" /><path clip-path="url(#clip400)" d="M1119.83 167.658 L1119.83 166.102 Q1122.53 166.102 1123.14 165.781 Q1123.76 165.435 1123.76 163.805 L1123.76 150.243 Q1123.76 148.365 1123.09 147.896 Q1122.45 147.426 1119.83 147.426 L1119.83 145.845 L1126.95 145.302 L1126.95 150.613 Q1129.32 145.302 1134.43 145.302 Q1138.24 145.302 1139.74 147.179 Q1140.86 148.439 1141.08 149.847 Q1141.32 151.255 1141.32 154.912 L1141.32 164.571 Q1141.37 165.633 1142.19 165.88 Q1143 166.102 1145.28 166.102 L1145.28 167.658 Q1140.11 167.51 1139.6 167.51 Q1139.2 167.51 1133.89 167.658 L1133.89 166.102 Q1136.58 166.102 1137.2 165.781 Q1137.84 165.435 1137.84 163.805 L1137.84 152.021 Q1137.84 149.452 1137.05 147.945 Q1136.26 146.414 1134.09 146.414 Q1131.47 146.414 1129.37 148.612 Q1127.27 150.811 1127.27 154.516 L1127.27 163.805 Q1127.27 165.435 1127.89 165.781 Q1128.53 166.102 1131.2 166.102 L1131.2 167.658 Q1126.03 167.51 1125.54 167.51 Q1125.14 167.51 1119.83 167.658 Z" fill="#000000" fill-rule="evenodd" fill-opacity="1" /><path clip-path="url(#clip400)" d="M1145.82 147.426 L1145.82 146.315 Q1148.14 146.216 1149.67 144.586 Q1151.23 142.93 1151.75 140.905 Q1152.29 138.879 1152.34 136.532 L1153.6 136.532 L1153.6 145.845 L1160.84 145.845 L1160.84 147.426 L1153.6 147.426 L1153.6 161.483 Q1153.6 166.942 1157.01 166.942 Q1158.47 166.942 1159.43 165.46 Q1160.4 163.953 1160.4 161.285 L1160.4 158.494 L1161.66 158.494 L1161.66 161.384 Q1161.66 164.126 1160.4 166.176 Q1159.14 168.227 1156.64 168.227 Q1155.73 168.227 1154.81 167.98 Q1153.92 167.757 1152.74 167.164 Q1151.58 166.547 1150.84 165.065 Q1150.12 163.558 1150.12 161.384 L1150.12 147.426 L1145.82 147.426 Z" fill="#000000" fill-rule="evenodd" fill-opacity="1" /><polyline clip-path="url(#clip400)" style="stroke:#27ae60; stroke-linecap:round; stroke-linejoin:round; stroke-width:16; stroke-opacity:1; fill:none" points="
  828.173,202.218 890.394,202.218 
  "/>
<path clip-path="url(#clip400)" d="M900.764 219.498 L900.764 217.942 L901.974 217.942 Q904.716 217.942 905.334 217.497 Q905.976 217.028 905.976 215.546 L905.976 188.891 Q905.976 187.434 905.334 186.989 Q904.691 186.519 901.974 186.519 L900.764 186.519 L900.764 184.938 L919.266 184.938 Q925.739 184.938 930.235 190.101 Q934.755 195.264 934.755 202.503 Q934.755 209.592 930.21 214.558 Q925.689 219.498 919.266 219.498 L900.764 219.498 M910.324 215.916 Q910.324 217.226 910.694 217.596 Q911.065 217.942 912.794 217.942 L917.908 217.942 Q921.243 217.942 923.491 216.583 Q925.739 215.2 926.9 213.619 Q929.691 209.815 929.691 202.503 Q929.691 194.82 927.073 191.213 Q923.688 186.519 917.858 186.519 L912.794 186.519 Q911.065 186.519 910.694 186.865 Q910.324 187.211 910.324 188.545 L910.324 215.916 Z" fill="#000000" fill-rule="evenodd" fill-opacity="1" /><path clip-path="url(#clip400)" d="M938.98 208.357 Q938.98 203.59 942.043 200.205 Q945.106 196.821 949.503 196.821 Q953.95 196.821 956.247 199.711 Q958.569 202.601 958.569 206.752 Q958.569 207.517 958.372 207.666 Q958.174 207.814 957.31 207.814 L943.179 207.814 Q943.179 212.977 944.711 215.398 Q946.835 218.782 950.417 218.782 Q950.911 218.782 951.504 218.683 Q952.097 218.584 953.308 218.164 Q954.518 217.72 955.58 216.559 Q956.643 215.398 957.26 213.57 Q957.408 212.853 957.902 212.878 Q958.569 212.878 958.569 213.471 Q958.569 213.916 958.075 214.928 Q957.606 215.916 956.692 217.102 Q955.778 218.288 953.999 219.177 Q952.245 220.067 950.121 220.067 Q945.674 220.067 942.315 216.707 Q938.98 213.323 938.98 208.357 M943.229 206.752 L955.235 206.752 Q955.235 205.689 955.037 204.504 Q954.864 203.318 954.321 201.687 Q953.802 200.032 952.567 198.995 Q951.331 197.957 949.503 197.957 Q948.688 197.957 947.799 198.303 Q946.934 198.649 945.872 199.489 Q944.81 200.329 944.069 202.231 Q943.328 204.133 943.229 206.752 Z" fill="#000000" fill-rule="evenodd" fill-opacity="1" /><path clip-path="url(#clip400)" d="M961.657 219.498 L961.657 217.942 Q964.35 217.942 964.968 217.621 Q965.585 217.275 965.585 215.645 L965.585 202.083 Q965.585 200.205 964.918 199.736 Q964.276 199.266 961.657 199.266 L961.657 197.685 L968.772 197.142 L968.772 202.453 Q971.143 197.142 976.257 197.142 Q980.061 197.142 981.568 199.019 Q982.68 200.279 982.902 201.687 Q983.149 203.095 983.149 206.752 L983.149 216.411 Q983.199 217.473 984.014 217.72 Q984.829 217.942 987.102 217.942 L987.102 219.498 Q981.939 219.35 981.42 219.35 Q981.025 219.35 975.714 219.498 L975.714 217.942 Q978.406 217.942 979.024 217.621 Q979.666 217.275 979.666 215.645 L979.666 203.861 Q979.666 201.292 978.876 199.785 Q978.085 198.254 975.911 198.254 Q973.293 198.254 971.193 200.452 Q969.093 202.651 969.093 206.356 L969.093 215.645 Q969.093 217.275 969.711 217.621 Q970.353 217.942 973.021 217.942 L973.021 219.498 Q967.858 219.35 967.364 219.35 Q966.969 219.35 961.657 219.498 Z" fill="#000000" fill-rule="evenodd" fill-opacity="1" /><path clip-path="url(#clip400)" d="M989.77 218.831 L989.77 212.162 Q989.77 211.593 989.795 211.396 Q989.819 211.198 989.967 211.05 Q990.116 210.902 990.412 210.902 Q990.758 210.902 990.881 211.05 Q991.03 211.198 991.129 211.766 Q991.894 215.249 993.525 217.102 Q995.18 218.93 998.169 218.93 Q1001.01 218.93 1002.44 217.67 Q1003.88 216.411 1003.88 214.335 Q1003.88 210.63 998.614 209.691 Q995.575 209.074 994.315 208.678 Q993.055 208.258 991.944 207.344 Q989.77 205.566 989.77 203.046 Q989.77 200.526 991.672 198.674 Q993.599 196.821 997.848 196.821 Q1000.69 196.821 1002.62 198.254 Q1003.18 197.809 1003.48 197.438 Q1004.15 196.821 1004.49 196.821 Q1004.89 196.821 1004.96 197.093 Q1005.04 197.34 1005.04 198.056 L1005.04 203.145 Q1005.04 203.713 1005.01 203.911 Q1004.99 204.108 1004.84 204.256 Q1004.69 204.38 1004.37 204.38 Q1003.8 204.38 1003.78 203.911 Q1003.38 197.784 997.848 197.784 Q994.859 197.784 993.525 198.945 Q992.191 200.082 992.191 201.638 Q992.191 202.503 992.586 203.17 Q993.006 203.812 993.525 204.207 Q994.068 204.578 995.056 204.948 Q996.044 205.294 996.637 205.418 Q997.255 205.541 998.416 205.788 Q1002.47 206.554 1004.17 208.209 Q1006.3 210.334 1006.3 213.026 Q1006.3 216.015 1004.27 218.041 Q1002.25 220.067 998.169 220.067 Q994.883 220.067 992.586 217.868 Q992.29 218.164 992.067 218.436 Q991.845 218.683 991.746 218.782 Q991.672 218.881 991.647 218.955 Q991.623 219.004 991.573 219.054 Q990.56 220.067 990.313 220.067 Q989.918 220.067 989.844 219.795 Q989.77 219.548 989.77 218.831 Z" fill="#000000" fill-rule="evenodd" fill-opacity="1" /><path clip-path="url(#clip400)" d="M1009.68 219.498 L1009.68 217.942 Q1012.37 217.942 1012.99 217.621 Q1013.61 217.275 1013.61 215.645 L1013.61 202.033 Q1013.61 200.156 1012.97 199.711 Q1012.35 199.266 1009.88 199.266 L1009.88 197.685 L1016.94 197.142 L1016.94 215.694 Q1016.94 217.201 1017.49 217.572 Q1018.03 217.942 1020.5 217.942 L1020.5 219.498 Q1015.34 219.35 1015.24 219.35 Q1014.55 219.35 1009.68 219.498 M1011.81 188.323 Q1011.81 187.31 1012.57 186.495 Q1013.36 185.655 1014.47 185.655 Q1015.58 185.655 1016.38 186.421 Q1017.17 187.162 1017.17 188.348 Q1017.17 189.509 1016.38 190.274 Q1015.58 191.015 1014.47 191.015 Q1013.31 191.015 1012.55 190.2 Q1011.81 189.385 1011.81 188.323 Z" fill="#000000" fill-rule="evenodd" fill-opacity="1" /><path clip-path="url(#clip400)" d="M1022.97 199.266 L1022.97 198.155 Q1025.29 198.056 1026.82 196.426 Q1028.38 194.77 1028.9 192.745 Q1029.44 190.719 1029.49 188.372 L1030.75 188.372 L1030.75 197.685 L1037.99 197.685 L1037.99 199.266 L1030.75 199.266 L1030.75 213.323 Q1030.75 218.782 1034.16 218.782 Q1035.62 218.782 1036.58 217.3 Q1037.55 215.793 1037.55 213.125 L1037.55 210.334 L1038.81 210.334 L1038.81 213.224 Q1038.81 215.966 1037.55 218.016 Q1036.29 220.067 1033.79 220.067 Q1032.88 220.067 1031.96 219.82 Q1031.07 219.597 1029.89 219.004 Q1028.73 218.387 1027.99 216.905 Q1027.27 215.398 1027.27 213.224 L1027.27 199.266 L1022.97 199.266 Z" fill="#000000" fill-rule="evenodd" fill-opacity="1" /><path clip-path="url(#clip400)" d="M1041.18 225.773 Q1041.18 224.711 1041.8 224.143 Q1042.44 223.599 1043.3 223.599 Q1044.22 223.599 1044.81 224.167 Q1045.43 224.76 1045.43 225.724 Q1045.43 227.601 1043.45 227.848 Q1044.41 228.762 1045.82 228.762 Q1047.33 228.762 1048.54 227.651 Q1049.77 226.539 1050.29 225.477 Q1050.84 224.414 1051.6 222.488 Q1052.32 220.981 1052.86 219.498 L1045.28 201.02 Q1044.78 199.81 1044.02 199.538 Q1043.25 199.266 1041.18 199.266 L1041.18 197.685 Q1043.45 197.834 1046.09 197.834 Q1047.65 197.834 1051.6 197.685 L1051.6 199.266 Q1048.76 199.266 1048.76 200.576 Q1048.76 200.724 1049.06 201.49 L1054.69 215.101 L1059.8 202.651 Q1060.1 201.934 1060.1 201.44 Q1060.1 199.365 1057.73 199.266 L1057.73 197.685 Q1061.06 197.834 1062.13 197.834 Q1064.2 197.834 1065.91 197.685 L1065.91 199.266 Q1062.52 199.266 1061.21 202.503 L1052.29 224.093 Q1049.87 229.849 1045.82 229.874 Q1043.89 229.874 1042.54 228.688 Q1041.18 227.502 1041.18 225.773 Z" fill="#000000" fill-rule="evenodd" fill-opacity="1" /></svg>
