<?xml version="1.0" encoding="UTF-8" standalone="no"?>
<svg
   width="300"
   height="150"
   viewBox="0 0 1200 600"
   version="1.1"
   id="svg445"
   sodipodi:docname="BarbaricAccuracyG.svg"
   inkscape:version="1.2.2 (b0a8486, 2022-12-01)"
   inkscape:export-filename="BarbaricAccuracyG.png"
   inkscape:export-xdpi="96"
   inkscape:export-ydpi="96"
   xmlns:inkscape="http://www.inkscape.org/namespaces/inkscape"
   xmlns:sodipodi="http://sodipodi.sourceforge.net/DTD/sodipodi-0.dtd"
   xmlns="http://www.w3.org/2000/svg"
   xmlns:svg="http://www.w3.org/2000/svg">
  <sodipodi:namedview
     id="namedview447"
     pagecolor="#ffffff"
     bordercolor="#000000"
     borderopacity="0.25"
     inkscape:showpageshadow="2"
     inkscape:pageopacity="0.0"
     inkscape:pagecheckerboard="0"
     inkscape:deskcolor="#d1d1d1"
     showgrid="false"
     inkscape:zoom="6.2933333"
     inkscape:cx="150"
     inkscape:cy="74.920551"
     inkscape:window-width="2560"
     inkscape:window-height="1376"
     inkscape:window-x="0"
     inkscape:window-y="0"
     inkscape:window-maximized="1"
     inkscape:current-layer="svg445" />
  <defs
     id="defs185">
    <clipPath
       id="clip640">
      <rect
         x="0"
         y="0"
         width="1200"
         height="600"
         id="rect182" />
    </clipPath>
  </defs>
  <path
     clip-path="url(#clip640)"
     d=" M0 600 L1200 600 L1200 0 L0 0  Z   "
     fill="#ffffff"
     fill-rule="evenodd"
     fill-opacity="1"
     id="path187" />
  <defs
     id="defs192">
    <clipPath
       id="clip641">
      <rect
         x="240"
         y="0"
         width="841"
         height="600"
         id="rect189" />
    </clipPath>
  </defs>
  <defs
     id="defs197">
    <clipPath
       id="clip642">
      <rect
         x="238"
         y="47"
         width="915"
         height="407"
         id="rect194" />
    </clipPath>
  </defs>
  <path
     clip-path="url(#clip640)"
     d=" M238.879 453.7 L1152.76 453.7 L1152.76 47.2441 L238.879 47.2441  Z   "
     fill="#ffffff"
     fill-rule="evenodd"
     fill-opacity="1"
     id="path199" />
  <polyline
     clip-path="url(#clip642)"
     style="stroke:#000000; stroke-linecap:round; stroke-linejoin:round; stroke-width:2; stroke-opacity:0.1; fill:none"
     points="   264.744,453.7 264.744,47.2441    "
     id="polyline201" />
  <polyline
     clip-path="url(#clip642)"
     style="stroke:#000000; stroke-linecap:round; stroke-linejoin:round; stroke-width:2; stroke-opacity:0.1; fill:none"
     points="   387.908,453.7 387.908,47.2441    "
     id="polyline203" />
  <polyline
     clip-path="url(#clip642)"
     style="stroke:#000000; stroke-linecap:round; stroke-linejoin:round; stroke-width:2; stroke-opacity:0.1; fill:none"
     points="   511.072,453.7 511.072,47.2441    "
     id="polyline205" />
  <polyline
     clip-path="url(#clip642)"
     style="stroke:#000000; stroke-linecap:round; stroke-linejoin:round; stroke-width:2; stroke-opacity:0.1; fill:none"
     points="   634.236,453.7 634.236,47.2441    "
     id="polyline207" />
  <polyline
     clip-path="url(#clip642)"
     style="stroke:#000000; stroke-linecap:round; stroke-linejoin:round; stroke-width:2; stroke-opacity:0.1; fill:none"
     points="   757.4,453.7 757.4,47.2441    "
     id="polyline209" />
  <polyline
     clip-path="url(#clip642)"
     style="stroke:#000000; stroke-linecap:round; stroke-linejoin:round; stroke-width:2; stroke-opacity:0.1; fill:none"
     points="   880.564,453.7 880.564,47.2441    "
     id="polyline211" />
  <polyline
     clip-path="url(#clip642)"
     style="stroke:#000000; stroke-linecap:round; stroke-linejoin:round; stroke-width:2; stroke-opacity:0.1; fill:none"
     points="   1003.73,453.7 1003.73,47.2441    "
     id="polyline213" />
  <polyline
     clip-path="url(#clip642)"
     style="stroke:#000000; stroke-linecap:round; stroke-linejoin:round; stroke-width:2; stroke-opacity:0.1; fill:none"
     points="   1126.89,453.7 1126.89,47.2441    "
     id="polyline215" />
  <polyline
     clip-path="url(#clip640)"
     style="stroke:#000000; stroke-linecap:round; stroke-linejoin:round; stroke-width:4; stroke-opacity:1; fill:none"
     points="   238.879,453.7 1152.76,453.7    "
     id="polyline217" />
  <polyline
     clip-path="url(#clip640)"
     style="stroke:#000000; stroke-linecap:round; stroke-linejoin:round; stroke-width:4; stroke-opacity:1; fill:none"
     points="   264.744,453.7 264.744,434.802    "
     id="polyline219" />
  <polyline
     clip-path="url(#clip640)"
     style="stroke:#000000; stroke-linecap:round; stroke-linejoin:round; stroke-width:4; stroke-opacity:1; fill:none"
     points="   387.908,453.7 387.908,434.802    "
     id="polyline221" />
  <polyline
     clip-path="url(#clip640)"
     style="stroke:#000000; stroke-linecap:round; stroke-linejoin:round; stroke-width:4; stroke-opacity:1; fill:none"
     points="   511.072,453.7 511.072,434.802    "
     id="polyline223" />
  <polyline
     clip-path="url(#clip640)"
     style="stroke:#000000; stroke-linecap:round; stroke-linejoin:round; stroke-width:4; stroke-opacity:1; fill:none"
     points="   634.236,453.7 634.236,434.802    "
     id="polyline225" />
  <polyline
     clip-path="url(#clip640)"
     style="stroke:#000000; stroke-linecap:round; stroke-linejoin:round; stroke-width:4; stroke-opacity:1; fill:none"
     points="   757.4,453.7 757.4,434.802    "
     id="polyline227" />
  <polyline
     clip-path="url(#clip640)"
     style="stroke:#000000; stroke-linecap:round; stroke-linejoin:round; stroke-width:4; stroke-opacity:1; fill:none"
     points="   880.564,453.7 880.564,434.802    "
     id="polyline229" />
  <polyline
     clip-path="url(#clip640)"
     style="stroke:#000000; stroke-linecap:round; stroke-linejoin:round; stroke-width:4; stroke-opacity:1; fill:none"
     points="   1003.73,453.7 1003.73,434.802    "
     id="polyline231" />
  <polyline
     clip-path="url(#clip640)"
     style="stroke:#000000; stroke-linecap:round; stroke-linejoin:round; stroke-width:4; stroke-opacity:1; fill:none"
     points="   1126.89,453.7 1126.89,434.802    "
     id="polyline233" />
  <path
     clip-path="url(#clip640)"
     d="M235.68 477.622 L235.68 476.041 Q241.757 476.041 244.895 472.804 Q245.759 472.804 245.907 473.002 Q246.056 473.2 246.056 474.114 L246.056 502.498 Q246.056 504.005 246.797 504.474 Q247.538 504.944 250.774 504.944 L252.38 504.944 L252.38 506.5 Q250.601 506.352 244.178 506.352 Q237.755 506.352 236.001 506.5 L236.001 504.944 L237.607 504.944 Q240.794 504.944 241.56 504.499 Q242.325 504.03 242.325 502.498 L242.325 476.288 Q239.682 477.622 235.68 477.622 Z"
     fill="#000000"
     fill-rule="evenodd"
     fill-opacity="1"
     id="path235" />
  <path
     clip-path="url(#clip640)"
     d="M261.545 505.685 Q260.779 504.869 260.779 503.807 Q260.779 502.745 261.545 501.979 Q262.31 501.189 263.471 501.189 Q264.583 501.189 265.324 501.93 Q266.09 502.646 266.09 503.832 Q266.09 504.993 265.275 505.759 Q264.484 506.5 263.471 506.5 Q262.31 506.5 261.545 505.685 Z"
     fill="#000000"
     fill-rule="evenodd"
     fill-opacity="1"
     id="path237" />
  <path
     clip-path="url(#clip640)"
     d="M272.513 490.319 Q272.513 482.883 274.39 478.832 Q277.009 472.804 283.185 472.804 Q284.494 472.804 285.853 473.175 Q287.236 473.521 288.965 474.88 Q290.719 476.238 291.782 478.462 Q293.807 482.76 293.807 490.319 Q293.807 497.705 291.93 501.732 Q289.188 507.611 283.135 507.611 Q280.863 507.611 278.541 506.45 Q276.243 505.289 274.786 502.498 Q272.513 498.323 272.513 490.319 M276.712 489.702 Q276.712 497.335 277.256 500.373 Q277.874 503.659 279.553 505.092 Q281.258 506.5 283.135 506.5 Q285.161 506.5 286.841 504.993 Q288.545 503.461 289.064 500.176 Q289.632 496.94 289.608 489.702 Q289.608 482.661 289.114 479.845 Q288.447 476.559 286.668 475.25 Q284.914 473.916 283.135 473.916 Q282.468 473.916 281.752 474.114 Q281.06 474.311 280.047 474.88 Q279.035 475.448 278.244 476.856 Q277.478 478.264 277.108 480.388 Q276.712 483.13 276.712 489.702 Z"
     fill="#000000"
     fill-rule="evenodd"
     fill-opacity="1"
     id="path239" />
  <path
     clip-path="url(#clip640)"
     d="M357.856 490.319 Q357.856 482.883 359.733 478.832 Q362.352 472.804 368.528 472.804 Q369.837 472.804 371.196 473.175 Q372.579 473.521 374.308 474.88 Q376.062 476.238 377.125 478.462 Q379.15 482.76 379.15 490.319 Q379.15 497.705 377.273 501.732 Q374.531 507.611 368.478 507.611 Q366.206 507.611 363.884 506.45 Q361.586 505.289 360.129 502.498 Q357.856 498.323 357.856 490.319 M362.056 489.702 Q362.056 497.335 362.599 500.373 Q363.217 503.659 364.896 505.092 Q366.601 506.5 368.478 506.5 Q370.504 506.5 372.184 504.993 Q373.889 503.461 374.407 500.176 Q374.975 496.94 374.951 489.702 Q374.951 482.661 374.457 479.845 Q373.79 476.559 372.011 475.25 Q370.257 473.916 368.478 473.916 Q367.811 473.916 367.095 474.114 Q366.403 474.311 365.391 474.88 Q364.378 475.448 363.587 476.856 Q362.821 478.264 362.451 480.388 Q362.056 483.13 362.056 489.702 Z"
     fill="#000000"
     fill-rule="evenodd"
     fill-opacity="1"
     id="path241" />
  <path
     clip-path="url(#clip640)"
     d="M386.24 505.685 Q385.474 504.869 385.474 503.807 Q385.474 502.745 386.24 501.979 Q387.006 501.189 388.167 501.189 Q389.279 501.189 390.02 501.93 Q390.786 502.646 390.786 503.832 Q390.786 504.993 389.97 505.759 Q389.18 506.5 388.167 506.5 Q387.006 506.5 386.24 505.685 Z"
     fill="#000000"
     fill-rule="evenodd"
     fill-opacity="1"
     id="path243" />
  <path
     clip-path="url(#clip640)"
     d="M397.752 498.348 Q397.752 496.841 398.567 496.273 Q399.382 495.68 400.247 495.68 Q401.408 495.68 402.075 496.421 Q402.767 497.137 402.767 498.15 Q402.767 499.163 402.075 499.904 Q401.408 500.62 400.247 500.62 Q399.679 500.62 399.382 500.522 Q400.049 502.844 402.075 504.524 Q404.125 506.203 406.818 506.203 Q410.202 506.203 412.228 502.918 Q413.439 500.793 413.439 495.976 Q413.439 491.727 412.525 489.603 Q411.116 486.367 408.226 486.367 Q404.125 486.367 401.704 489.899 Q401.408 490.344 401.062 490.369 Q400.568 490.369 400.445 490.097 Q400.346 489.8 400.346 489.035 L400.346 474.064 Q400.346 472.854 400.84 472.854 Q401.037 472.854 401.457 473.002 Q404.644 474.41 408.177 474.435 Q411.808 474.435 415.069 472.953 Q415.316 472.804 415.464 472.804 Q415.958 472.804 415.983 473.373 Q415.983 473.57 415.563 474.163 Q415.168 474.731 414.303 475.497 Q413.439 476.238 412.327 476.955 Q411.215 477.671 409.585 478.165 Q407.979 478.634 406.2 478.634 Q404.076 478.634 401.902 477.967 L401.902 487.824 Q404.521 485.255 408.325 485.255 Q412.376 485.255 415.168 488.516 Q417.959 491.777 417.959 496.322 Q417.959 501.09 414.649 504.351 Q411.363 507.611 406.917 507.611 Q402.866 507.611 400.296 504.721 Q397.752 501.831 397.752 498.348 Z"
     fill="#000000"
     fill-rule="evenodd"
     fill-opacity="1"
     id="path245" />
  <path
     clip-path="url(#clip640)"
     d="M468.372 490.319 Q468.372 482.883 470.249 478.832 Q472.868 472.804 479.044 472.804 Q480.353 472.804 481.712 473.175 Q483.095 473.521 484.824 474.88 Q486.578 476.238 487.64 478.462 Q489.666 482.76 489.666 490.319 Q489.666 497.705 487.789 501.732 Q485.047 507.611 478.994 507.611 Q476.722 507.611 474.399 506.45 Q472.102 505.289 470.645 502.498 Q468.372 498.323 468.372 490.319 M472.571 489.702 Q472.571 497.335 473.115 500.373 Q473.732 503.659 475.412 505.092 Q477.117 506.5 478.994 506.5 Q481.02 506.5 482.7 504.993 Q484.404 503.461 484.923 500.176 Q485.491 496.94 485.467 489.702 Q485.467 482.661 484.973 479.845 Q484.306 476.559 482.527 475.25 Q480.773 473.916 478.994 473.916 Q478.327 473.916 477.611 474.114 Q476.919 474.311 475.906 474.88 Q474.894 475.448 474.103 476.856 Q473.337 478.264 472.967 480.388 Q472.571 483.13 472.571 489.702 Z"
     fill="#000000"
     fill-rule="evenodd"
     fill-opacity="1"
     id="path247" />
  <path
     clip-path="url(#clip640)"
     d="M496.756 505.685 Q495.99 504.869 495.99 503.807 Q495.99 502.745 496.756 501.979 Q497.522 501.189 498.683 501.189 Q499.795 501.189 500.536 501.93 Q501.301 502.646 501.301 503.832 Q501.301 504.993 500.486 505.759 Q499.696 506.5 498.683 506.5 Q497.522 506.5 496.756 505.685 Z"
     fill="#000000"
     fill-rule="evenodd"
     fill-opacity="1"
     id="path249" />
  <path
     clip-path="url(#clip640)"
     d="M508.268 506.5 Q508.268 505.586 508.342 505.314 Q508.441 505.042 508.836 504.622 L518.544 493.802 Q523.856 487.824 523.856 482.612 Q523.856 479.227 522.077 476.806 Q520.323 474.385 517.087 474.385 Q514.864 474.385 512.986 475.744 Q511.109 477.103 510.244 479.524 Q510.392 479.474 510.911 479.474 Q512.171 479.474 512.863 480.265 Q513.579 481.055 513.579 482.118 Q513.579 483.476 512.69 484.143 Q511.825 484.786 510.96 484.786 Q510.615 484.786 510.145 484.711 Q509.701 484.637 508.984 483.946 Q508.268 483.229 508.268 481.969 Q508.268 478.437 510.936 475.621 Q513.628 472.804 517.729 472.804 Q522.373 472.804 525.412 475.571 Q528.475 478.313 528.475 482.612 Q528.475 484.119 528.006 485.502 Q527.561 486.861 526.944 487.923 Q526.351 488.985 524.72 490.69 Q523.09 492.394 521.781 493.605 Q520.471 494.815 517.532 497.384 L512.171 502.597 L521.286 502.597 Q525.733 502.597 526.079 502.201 Q526.573 501.485 527.191 497.705 L528.475 497.705 L527.042 506.5 L508.268 506.5 Z"
     fill="#000000"
     fill-rule="evenodd"
     fill-opacity="1"
     id="path251" />
  <path
     clip-path="url(#clip640)"
     d="M533.564 498.348 Q533.564 496.841 534.379 496.273 Q535.194 495.68 536.059 495.68 Q537.22 495.68 537.887 496.421 Q538.579 497.137 538.579 498.15 Q538.579 499.163 537.887 499.904 Q537.22 500.62 536.059 500.62 Q535.491 500.62 535.194 500.522 Q535.861 502.844 537.887 504.524 Q539.938 506.203 542.63 506.203 Q546.015 506.203 548.04 502.918 Q549.251 500.793 549.251 495.976 Q549.251 491.727 548.337 489.603 Q546.929 486.367 544.038 486.367 Q539.938 486.367 537.517 489.899 Q537.22 490.344 536.874 490.369 Q536.38 490.369 536.257 490.097 Q536.158 489.8 536.158 489.035 L536.158 474.064 Q536.158 472.854 536.652 472.854 Q536.85 472.854 537.27 473.002 Q540.456 474.41 543.989 474.435 Q547.62 474.435 550.881 472.953 Q551.128 472.804 551.276 472.804 Q551.77 472.804 551.795 473.373 Q551.795 473.57 551.375 474.163 Q550.98 474.731 550.115 475.497 Q549.251 476.238 548.139 476.955 Q547.027 477.671 545.397 478.165 Q543.791 478.634 542.013 478.634 Q539.888 478.634 537.714 477.967 L537.714 487.824 Q540.333 485.255 544.137 485.255 Q548.188 485.255 550.98 488.516 Q553.771 491.777 553.771 496.322 Q553.771 501.09 550.461 504.351 Q547.176 507.611 542.729 507.611 Q538.678 507.611 536.108 504.721 Q533.564 501.831 533.564 498.348 Z"
     fill="#000000"
     fill-rule="evenodd"
     fill-opacity="1"
     id="path253" />
  <path
     clip-path="url(#clip640)"
     d="M604.95 490.319 Q604.95 482.883 606.827 478.832 Q609.446 472.804 615.622 472.804 Q616.931 472.804 618.29 473.175 Q619.673 473.521 621.402 474.88 Q623.156 476.238 624.218 478.462 Q626.244 482.76 626.244 490.319 Q626.244 497.705 624.367 501.732 Q621.625 507.611 615.572 507.611 Q613.299 507.611 610.977 506.45 Q608.68 505.289 607.222 502.498 Q604.95 498.323 604.95 490.319 M609.149 489.702 Q609.149 497.335 609.693 500.373 Q610.31 503.659 611.99 505.092 Q613.695 506.5 615.572 506.5 Q617.598 506.5 619.278 504.993 Q620.982 503.461 621.501 500.176 Q622.069 496.94 622.044 489.702 Q622.044 482.661 621.55 479.845 Q620.883 476.559 619.105 475.25 Q617.351 473.916 615.572 473.916 Q614.905 473.916 614.189 474.114 Q613.497 474.311 612.484 474.88 Q611.471 475.448 610.681 476.856 Q609.915 478.264 609.545 480.388 Q609.149 483.13 609.149 489.702 Z"
     fill="#000000"
     fill-rule="evenodd"
     fill-opacity="1"
     id="path255" />
  <path
     clip-path="url(#clip640)"
     d="M633.334 505.685 Q632.568 504.869 632.568 503.807 Q632.568 502.745 633.334 501.979 Q634.1 501.189 635.261 501.189 Q636.372 501.189 637.114 501.93 Q637.879 502.646 637.879 503.832 Q637.879 504.993 637.064 505.759 Q636.274 506.5 635.261 506.5 Q634.1 506.5 633.334 505.685 Z"
     fill="#000000"
     fill-rule="evenodd"
     fill-opacity="1"
     id="path257" />
  <path
     clip-path="url(#clip640)"
     d="M646.822 477.622 L646.822 476.041 Q652.899 476.041 656.036 472.804 Q656.901 472.804 657.049 473.002 Q657.197 473.2 657.197 474.114 L657.197 502.498 Q657.197 504.005 657.938 504.474 Q658.68 504.944 661.916 504.944 L663.521 504.944 L663.521 506.5 Q661.743 506.352 655.32 506.352 Q648.897 506.352 647.143 506.5 L647.143 504.944 L648.749 504.944 Q651.936 504.944 652.701 504.499 Q653.467 504.03 653.467 502.498 L653.467 476.288 Q650.824 477.622 646.822 477.622 Z"
     fill="#000000"
     fill-rule="evenodd"
     fill-opacity="1"
     id="path259" />
  <path
     clip-path="url(#clip640)"
     d="M714.7 490.319 Q714.7 482.883 716.577 478.832 Q719.196 472.804 725.372 472.804 Q726.681 472.804 728.04 473.175 Q729.423 473.521 731.152 474.88 Q732.906 476.238 733.968 478.462 Q735.994 482.76 735.994 490.319 Q735.994 497.705 734.117 501.732 Q731.375 507.611 725.322 507.611 Q723.05 507.611 720.727 506.45 Q718.43 505.289 716.973 502.498 Q714.7 498.323 714.7 490.319 M718.899 489.702 Q718.899 497.335 719.443 500.373 Q720.06 503.659 721.74 505.092 Q723.445 506.5 725.322 506.5 Q727.348 506.5 729.028 504.993 Q730.732 503.461 731.251 500.176 Q731.819 496.94 731.795 489.702 Q731.795 482.661 731.3 479.845 Q730.633 476.559 728.855 475.25 Q727.101 473.916 725.322 473.916 Q724.655 473.916 723.939 474.114 Q723.247 474.311 722.234 474.88 Q721.221 475.448 720.431 476.856 Q719.665 478.264 719.295 480.388 Q718.899 483.13 718.899 489.702 Z"
     fill="#000000"
     fill-rule="evenodd"
     fill-opacity="1"
     id="path261" />
  <path
     clip-path="url(#clip640)"
     d="M743.084 505.685 Q742.318 504.869 742.318 503.807 Q742.318 502.745 743.084 501.979 Q743.85 501.189 745.011 501.189 Q746.122 501.189 746.864 501.93 Q747.629 502.646 747.629 503.832 Q747.629 504.993 746.814 505.759 Q746.024 506.5 745.011 506.5 Q743.85 506.5 743.084 505.685 Z"
     fill="#000000"
     fill-rule="evenodd"
     fill-opacity="1"
     id="path263" />
  <path
     clip-path="url(#clip640)"
     d="M754.052 490.319 Q754.052 482.883 755.93 478.832 Q758.548 472.804 764.724 472.804 Q766.033 472.804 767.392 473.175 Q768.775 473.521 770.505 474.88 Q772.259 476.238 773.321 478.462 Q775.347 482.76 775.347 490.319 Q775.347 497.705 773.469 501.732 Q770.727 507.611 764.675 507.611 Q762.402 507.611 760.08 506.45 Q757.782 505.289 756.325 502.498 Q754.052 498.323 754.052 490.319 M758.252 489.702 Q758.252 497.335 758.795 500.373 Q759.413 503.659 761.093 505.092 Q762.797 506.5 764.675 506.5 Q766.7 506.5 768.38 504.993 Q770.085 503.461 770.604 500.176 Q771.172 496.94 771.147 489.702 Q771.147 482.661 770.653 479.845 Q769.986 476.559 768.207 475.25 Q766.453 473.916 764.675 473.916 Q764.008 473.916 763.291 474.114 Q762.6 474.311 761.587 474.88 Q760.574 475.448 759.783 476.856 Q759.018 478.264 758.647 480.388 Q758.252 483.13 758.252 489.702 Z"
     fill="#000000"
     fill-rule="evenodd"
     fill-opacity="1"
     id="path265" />
  <path
     clip-path="url(#clip640)"
     d="M779.892 498.348 Q779.892 496.841 780.707 496.273 Q781.522 495.68 782.387 495.68 Q783.548 495.68 784.215 496.421 Q784.907 497.137 784.907 498.15 Q784.907 499.163 784.215 499.904 Q783.548 500.62 782.387 500.62 Q781.819 500.62 781.522 500.522 Q782.189 502.844 784.215 504.524 Q786.265 506.203 788.958 506.203 Q792.342 506.203 794.368 502.918 Q795.579 500.793 795.579 495.976 Q795.579 491.727 794.665 489.603 Q793.256 486.367 790.366 486.367 Q786.265 486.367 783.845 489.899 Q783.548 490.344 783.202 490.369 Q782.708 490.369 782.585 490.097 Q782.486 489.8 782.486 489.035 L782.486 474.064 Q782.486 472.854 782.98 472.854 Q783.178 472.854 783.597 473.002 Q786.784 474.41 790.317 474.435 Q793.948 474.435 797.209 472.953 Q797.456 472.804 797.604 472.804 Q798.098 472.804 798.123 473.373 Q798.123 473.57 797.703 474.163 Q797.308 474.731 796.443 475.497 Q795.579 476.238 794.467 476.955 Q793.355 477.671 791.725 478.165 Q790.119 478.634 788.341 478.634 Q786.216 478.634 784.042 477.967 L784.042 487.824 Q786.661 485.255 790.465 485.255 Q794.516 485.255 797.308 488.516 Q800.099 491.777 800.099 496.322 Q800.099 501.09 796.789 504.351 Q793.504 507.611 789.057 507.611 Q785.006 507.611 782.436 504.721 Q779.892 501.831 779.892 498.348 Z"
     fill="#000000"
     fill-rule="evenodd"
     fill-opacity="1"
     id="path267" />
  <path
     clip-path="url(#clip640)"
     d="M837.308 490.319 Q837.308 482.883 839.185 478.832 Q841.804 472.804 847.98 472.804 Q849.289 472.804 850.648 473.175 Q852.031 473.521 853.76 474.88 Q855.514 476.238 856.577 478.462 Q858.602 482.76 858.602 490.319 Q858.602 497.705 856.725 501.732 Q853.983 507.611 847.93 507.611 Q845.658 507.611 843.336 506.45 Q841.038 505.289 839.581 502.498 Q837.308 498.323 837.308 490.319 M841.508 489.702 Q841.508 497.335 842.051 500.373 Q842.669 503.659 844.348 505.092 Q846.053 506.5 847.93 506.5 Q849.956 506.5 851.636 504.993 Q853.34 503.461 853.859 500.176 Q854.427 496.94 854.403 489.702 Q854.403 482.661 853.909 479.845 Q853.242 476.559 851.463 475.25 Q849.709 473.916 847.93 473.916 Q847.263 473.916 846.547 474.114 Q845.855 474.311 844.842 474.88 Q843.83 475.448 843.039 476.856 Q842.273 478.264 841.903 480.388 Q841.508 483.13 841.508 489.702 Z"
     fill="#000000"
     fill-rule="evenodd"
     fill-opacity="1"
     id="path269" />
  <path
     clip-path="url(#clip640)"
     d="M865.692 505.685 Q864.926 504.869 864.926 503.807 Q864.926 502.745 865.692 501.979 Q866.458 501.189 867.619 501.189 Q868.731 501.189 869.472 501.93 Q870.238 502.646 870.238 503.832 Q870.238 504.993 869.422 505.759 Q868.632 506.5 867.619 506.5 Q866.458 506.5 865.692 505.685 Z"
     fill="#000000"
     fill-rule="evenodd"
     fill-opacity="1"
     id="path271" />
  <path
     clip-path="url(#clip640)"
     d="M876.66 490.319 Q876.66 482.883 878.538 478.832 Q881.156 472.804 887.332 472.804 Q888.642 472.804 890 473.175 Q891.384 473.521 893.113 474.88 Q894.867 476.238 895.929 478.462 Q897.955 482.76 897.955 490.319 Q897.955 497.705 896.077 501.732 Q893.335 507.611 887.283 507.611 Q885.01 507.611 882.688 506.45 Q880.391 505.289 878.933 502.498 Q876.66 498.323 876.66 490.319 M880.86 489.702 Q880.86 497.335 881.403 500.373 Q882.021 503.659 883.701 505.092 Q885.405 506.5 887.283 506.5 Q889.309 506.5 890.988 504.993 Q892.693 503.461 893.212 500.176 Q893.78 496.94 893.755 489.702 Q893.755 482.661 893.261 479.845 Q892.594 476.559 890.815 475.25 Q889.061 473.916 887.283 473.916 Q886.616 473.916 885.899 474.114 Q885.208 474.311 884.195 474.88 Q883.182 475.448 882.392 476.856 Q881.626 478.264 881.255 480.388 Q880.86 483.13 880.86 489.702 Z"
     fill="#000000"
     fill-rule="evenodd"
     fill-opacity="1"
     id="path273" />
  <path
     clip-path="url(#clip640)"
     d="M901.388 498.15 L901.388 496.594 L916.927 472.854 Q917.322 472.236 917.94 472.261 Q918.508 472.261 918.631 472.483 Q918.755 472.706 918.755 473.57 L918.755 496.594 L923.819 496.594 L923.819 498.15 L918.755 498.15 L918.755 502.547 Q918.755 504.005 919.348 504.474 Q919.965 504.944 922.584 504.944 L923.646 504.944 L923.646 506.5 Q921.571 506.352 916.779 506.352 Q912.011 506.352 909.936 506.5 L909.936 504.944 L910.998 504.944 Q913.617 504.944 914.234 504.499 Q914.852 504.03 914.852 502.547 L914.852 498.15 L901.388 498.15 M902.821 496.594 L915.148 496.594 L915.148 477.72 L902.821 496.594 Z"
     fill="#000000"
     fill-rule="evenodd"
     fill-opacity="1"
     id="path275" />
  <path
     clip-path="url(#clip640)"
     d="M961.028 490.319 Q961.028 482.883 962.905 478.832 Q965.524 472.804 971.7 472.804 Q973.009 472.804 974.368 473.175 Q975.751 473.521 977.48 474.88 Q979.234 476.238 980.296 478.462 Q982.322 482.76 982.322 490.319 Q982.322 497.705 980.445 501.732 Q977.703 507.611 971.65 507.611 Q969.377 507.611 967.055 506.45 Q964.758 505.289 963.3 502.498 Q961.028 498.323 961.028 490.319 M965.227 489.702 Q965.227 497.335 965.771 500.373 Q966.388 503.659 968.068 505.092 Q969.773 506.5 971.65 506.5 Q973.676 506.5 975.356 504.993 Q977.06 503.461 977.579 500.176 Q978.147 496.94 978.122 489.702 Q978.122 482.661 977.628 479.845 Q976.961 476.559 975.183 475.25 Q973.429 473.916 971.65 473.916 Q970.983 473.916 970.267 474.114 Q969.575 474.311 968.562 474.88 Q967.549 475.448 966.759 476.856 Q965.993 478.264 965.623 480.388 Q965.227 483.13 965.227 489.702 Z"
     fill="#000000"
     fill-rule="evenodd"
     fill-opacity="1"
     id="path277" />
  <path
     clip-path="url(#clip640)"
     d="M989.412 505.685 Q988.646 504.869 988.646 503.807 Q988.646 502.745 989.412 501.979 Q990.178 501.189 991.339 501.189 Q992.45 501.189 993.192 501.93 Q993.957 502.646 993.957 503.832 Q993.957 504.993 993.142 505.759 Q992.352 506.5 991.339 506.5 Q990.178 506.5 989.412 505.685 Z"
     fill="#000000"
     fill-rule="evenodd"
     fill-opacity="1"
     id="path279" />
  <path
     clip-path="url(#clip640)"
     d="M1000.38 490.319 Q1000.38 482.883 1002.26 478.832 Q1004.88 472.804 1011.05 472.804 Q1012.36 472.804 1013.72 473.175 Q1015.1 473.521 1016.83 474.88 Q1018.59 476.238 1019.65 478.462 Q1021.67 482.76 1021.67 490.319 Q1021.67 497.705 1019.8 501.732 Q1017.05 507.611 1011 507.611 Q1008.73 507.611 1006.41 506.45 Q1004.11 505.289 1002.65 502.498 Q1000.38 498.323 1000.38 490.319 M1004.58 489.702 Q1004.58 497.335 1005.12 500.373 Q1005.74 503.659 1007.42 505.092 Q1009.13 506.5 1011 506.5 Q1013.03 506.5 1014.71 504.993 Q1016.41 503.461 1016.93 500.176 Q1017.5 496.94 1017.47 489.702 Q1017.47 482.661 1016.98 479.845 Q1016.31 476.559 1014.54 475.25 Q1012.78 473.916 1011 473.916 Q1010.34 473.916 1009.62 474.114 Q1008.93 474.311 1007.91 474.88 Q1006.9 475.448 1006.11 476.856 Q1005.35 478.264 1004.98 480.388 Q1004.58 483.13 1004.58 489.702 Z"
     fill="#000000"
     fill-rule="evenodd"
     fill-opacity="1"
     id="path281" />
  <path
     clip-path="url(#clip640)"
     d="M1026.22 506.5 Q1026.22 505.586 1026.29 505.314 Q1026.39 505.042 1026.79 504.622 L1036.5 493.802 Q1041.81 487.824 1041.81 482.612 Q1041.81 479.227 1040.03 476.806 Q1038.28 474.385 1035.04 474.385 Q1032.82 474.385 1030.94 475.744 Q1029.06 477.103 1028.2 479.524 Q1028.34 479.474 1028.86 479.474 Q1030.12 479.474 1030.81 480.265 Q1031.53 481.055 1031.53 482.118 Q1031.53 483.476 1030.64 484.143 Q1029.78 484.786 1028.91 484.786 Q1028.57 484.786 1028.1 484.711 Q1027.65 484.637 1026.94 483.946 Q1026.22 483.229 1026.22 481.969 Q1026.22 478.437 1028.89 475.621 Q1031.58 472.804 1035.68 472.804 Q1040.33 472.804 1043.36 475.571 Q1046.43 478.313 1046.43 482.612 Q1046.43 484.119 1045.96 485.502 Q1045.51 486.861 1044.9 487.923 Q1044.3 488.985 1042.67 490.69 Q1041.04 492.394 1039.73 493.605 Q1038.42 494.815 1035.48 497.384 L1030.12 502.597 L1039.24 502.597 Q1043.69 502.597 1044.03 502.201 Q1044.53 501.485 1045.14 497.705 L1046.43 497.705 L1044.99 506.5 L1026.22 506.5 Z"
     fill="#000000"
     fill-rule="evenodd"
     fill-opacity="1"
     id="path283" />
  <path
     clip-path="url(#clip640)"
     d="M1084.96 490.319 Q1084.96 482.883 1086.83 478.832 Q1089.45 472.804 1095.63 472.804 Q1096.94 472.804 1098.3 473.175 Q1099.68 473.521 1101.41 474.88 Q1103.16 476.238 1104.23 478.462 Q1106.25 482.76 1106.25 490.319 Q1106.25 497.705 1104.37 501.732 Q1101.63 507.611 1095.58 507.611 Q1093.31 507.611 1090.99 506.45 Q1088.69 505.289 1087.23 502.498 Q1084.96 498.323 1084.96 490.319 M1089.16 489.702 Q1089.16 497.335 1089.7 500.373 Q1090.32 503.659 1092 505.092 Q1093.7 506.5 1095.58 506.5 Q1097.61 506.5 1099.29 504.993 Q1100.99 503.461 1101.51 500.176 Q1102.08 496.94 1102.05 489.702 Q1102.05 482.661 1101.56 479.845 Q1100.89 476.559 1099.11 475.25 Q1097.36 473.916 1095.58 473.916 Q1094.91 473.916 1094.2 474.114 Q1093.5 474.311 1092.49 474.88 Q1091.48 475.448 1090.69 476.856 Q1089.92 478.264 1089.55 480.388 Q1089.16 483.13 1089.16 489.702 Z"
     fill="#000000"
     fill-rule="evenodd"
     fill-opacity="1"
     id="path285" />
  <path
     clip-path="url(#clip640)"
     d="M1113.34 505.685 Q1112.58 504.869 1112.58 503.807 Q1112.58 502.745 1113.34 501.979 Q1114.11 501.189 1115.27 501.189 Q1116.38 501.189 1117.12 501.93 Q1117.89 502.646 1117.89 503.832 Q1117.89 504.993 1117.07 505.759 Q1116.28 506.5 1115.27 506.5 Q1114.11 506.5 1113.34 505.685 Z"
     fill="#000000"
     fill-rule="evenodd"
     fill-opacity="1"
     id="path287" />
  <path
     clip-path="url(#clip640)"
     d="M1124.31 490.319 Q1124.31 482.883 1126.19 478.832 Q1128.81 472.804 1134.98 472.804 Q1136.29 472.804 1137.65 473.175 Q1139.03 473.521 1140.76 474.88 Q1142.52 476.238 1143.58 478.462 Q1145.6 482.76 1145.6 490.319 Q1145.6 497.705 1143.73 501.732 Q1140.98 507.611 1134.93 507.611 Q1132.66 507.611 1130.34 506.45 Q1128.04 505.289 1126.58 502.498 Q1124.31 498.323 1124.31 490.319 M1128.51 489.702 Q1128.51 497.335 1129.05 500.373 Q1129.67 503.659 1131.35 505.092 Q1133.05 506.5 1134.93 506.5 Q1136.96 506.5 1138.64 504.993 Q1140.34 503.461 1140.86 500.176 Q1141.43 496.94 1141.4 489.702 Q1141.4 482.661 1140.91 479.845 Q1140.24 476.559 1138.46 475.25 Q1136.71 473.916 1134.93 473.916 Q1134.27 473.916 1133.55 474.114 Q1132.86 474.311 1131.84 474.88 Q1130.83 475.448 1130.04 476.856 Q1129.28 478.264 1128.9 480.388 Q1128.51 483.13 1128.51 489.702 Z"
     fill="#000000"
     fill-rule="evenodd"
     fill-opacity="1"
     id="path289" />
  <path
     clip-path="url(#clip640)"
     d="M1152.13 477.622 L1152.13 476.041 Q1158.2 476.041 1161.34 472.804 Q1162.2 472.804 1162.35 473.002 Q1162.5 473.2 1162.5 474.114 L1162.5 502.498 Q1162.5 504.005 1163.24 504.474 Q1163.98 504.944 1167.22 504.944 L1168.83 504.944 L1168.83 506.5 Q1167.05 506.352 1160.62 506.352 Q1154.2 506.352 1152.45 506.5 L1152.45 504.944 L1154.05 504.944 Q1157.24 504.944 1158.01 504.499 Q1158.77 504.03 1158.77 502.498 L1158.77 476.288 Q1156.13 477.622 1152.13 477.622 Z"
     fill="#000000"
     fill-rule="evenodd"
     fill-opacity="1"
     id="path291" />
  <path
     clip-path="url(#clip640)"
     d="M713.533 531.704 Q713.533 531.962 712.277 534.217 Q710.183 538.371 707.51 544.716 Q704.837 551.06 703.323 555.762 Q703.001 556.889 702.776 558.339 Q702.196 562.783 700.328 569.675 Q699.684 571.833 699.265 572.735 Q698.847 573.636 698.235 573.636 Q697.365 573.636 697.365 572.445 Q697.365 571.253 698.46 566.809 Q699.588 562.364 700.811 558.274 Q701.584 556.02 701.584 551.801 Q701.584 550.448 701.52 549.224 Q701.455 548.001 701.198 546.229 Q700.94 544.458 700.522 543.009 Q700.103 541.559 699.298 540.046 Q698.493 538.5 697.398 537.469 Q696.303 536.407 694.628 535.73 Q692.985 535.054 690.924 535.054 Q690.409 535.054 689.765 535.118 Q689.153 535.15 687.671 535.569 Q686.222 535.988 684.998 536.729 Q683.774 537.437 682.454 539.015 Q681.134 540.593 680.425 542.719 L680.167 543.041 Q679.749 543.041 679.523 543.041 Q679.33 543.009 679.105 542.848 Q678.911 542.687 678.911 542.397 Q678.911 541.72 679.427 540.368 Q679.974 539.015 681.069 537.276 Q682.196 535.537 683.646 533.991 Q685.127 532.445 687.285 531.382 Q689.443 530.32 691.762 530.32 Q697.72 530.32 700.554 537.566 Q703.034 543.717 703.259 551.028 Q708.412 538.049 711.955 531.511 Q712.148 531.028 712.728 531.028 Q713.533 531.06 713.533 531.704 Z"
     fill="#000000"
     fill-rule="evenodd"
     fill-opacity="1"
     id="path293" />
  <polyline
     clip-path="url(#clip642)"
     style="stroke:#000000; stroke-linecap:round; stroke-linejoin:round; stroke-width:2; stroke-opacity:0.1; fill:none"
     points="   238.879,432.94 1152.76,432.94    "
     id="polyline295" />
  <polyline
     clip-path="url(#clip642)"
     style="stroke:#000000; stroke-linecap:round; stroke-linejoin:round; stroke-width:2; stroke-opacity:0.1; fill:none"
     points="   238.879,339.392 1152.76,339.392    "
     id="polyline297" />
  <polyline
     clip-path="url(#clip642)"
     style="stroke:#000000; stroke-linecap:round; stroke-linejoin:round; stroke-width:2; stroke-opacity:0.1; fill:none"
     points="   238.879,245.844 1152.76,245.844    "
     id="polyline299" />
  <polyline
     clip-path="url(#clip642)"
     style="stroke:#000000; stroke-linecap:round; stroke-linejoin:round; stroke-width:2; stroke-opacity:0.1; fill:none"
     points="   238.879,152.296 1152.76,152.296    "
     id="polyline301" />
  <polyline
     clip-path="url(#clip642)"
     style="stroke:#000000; stroke-linecap:round; stroke-linejoin:round; stroke-width:2; stroke-opacity:0.1; fill:none"
     points="   238.879,58.7476 1152.76,58.7476    "
     id="polyline303" />
  <polyline
     clip-path="url(#clip640)"
     style="stroke:#000000; stroke-linecap:round; stroke-linejoin:round; stroke-width:4; stroke-opacity:1; fill:none"
     points="   238.879,453.7 238.879,47.2441    "
     id="polyline305" />
  <polyline
     clip-path="url(#clip640)"
     style="stroke:#000000; stroke-linecap:round; stroke-linejoin:round; stroke-width:4; stroke-opacity:1; fill:none"
     points="   238.879,432.94 257.777,432.94    "
     id="polyline307" />
  <polyline
     clip-path="url(#clip640)"
     style="stroke:#000000; stroke-linecap:round; stroke-linejoin:round; stroke-width:4; stroke-opacity:1; fill:none"
     points="   238.879,339.392 257.777,339.392    "
     id="polyline309" />
  <polyline
     clip-path="url(#clip640)"
     style="stroke:#000000; stroke-linecap:round; stroke-linejoin:round; stroke-width:4; stroke-opacity:1; fill:none"
     points="   238.879,245.844 257.777,245.844    "
     id="polyline311" />
  <polyline
     clip-path="url(#clip640)"
     style="stroke:#000000; stroke-linecap:round; stroke-linejoin:round; stroke-width:4; stroke-opacity:1; fill:none"
     points="   238.879,152.296 257.777,152.296    "
     id="polyline313" />
  <polyline
     clip-path="url(#clip640)"
     style="stroke:#000000; stroke-linecap:round; stroke-linejoin:round; stroke-width:4; stroke-opacity:1; fill:none"
     points="   238.879,58.7476 257.777,58.7476    "
     id="polyline315" />
  <path
     clip-path="url(#clip640)"
     d="M109.788 434.039 Q109.788 426.603 111.666 422.552 Q114.284 416.524 120.46 416.524 Q121.769 416.524 123.128 416.895 Q124.511 417.241 126.241 418.599 Q127.995 419.958 129.057 422.181 Q131.083 426.48 131.083 434.039 Q131.083 441.425 129.205 445.452 Q126.463 451.331 120.411 451.331 Q118.138 451.331 115.816 450.17 Q113.518 449.009 112.061 446.218 Q109.788 442.043 109.788 434.039 M113.988 433.422 Q113.988 441.055 114.531 444.093 Q115.149 447.379 116.829 448.812 Q118.533 450.22 120.411 450.22 Q122.436 450.22 124.116 448.713 Q125.821 447.181 126.339 443.896 Q126.908 440.66 126.883 433.422 Q126.883 426.381 126.389 423.565 Q125.722 420.279 123.943 418.97 Q122.189 417.636 120.411 417.636 Q119.744 417.636 119.027 417.834 Q118.336 418.031 117.323 418.599 Q116.31 419.168 115.519 420.576 Q114.754 421.984 114.383 424.108 Q113.988 426.85 113.988 433.422 Z"
     fill="#000000"
     fill-rule="evenodd"
     fill-opacity="1"
     id="path317" />
  <path
     clip-path="url(#clip640)"
     d="M138.172 449.405 Q137.407 448.589 137.407 447.527 Q137.407 446.465 138.172 445.699 Q138.938 444.909 140.099 444.909 Q141.211 444.909 141.952 445.65 Q142.718 446.366 142.718 447.552 Q142.718 448.713 141.903 449.479 Q141.112 450.22 140.099 450.22 Q138.938 450.22 138.172 449.405 Z"
     fill="#000000"
     fill-rule="evenodd"
     fill-opacity="1"
     id="path319" />
  <path
     clip-path="url(#clip640)"
     d="M149.289 427.913 Q149.289 425.22 150.079 423.392 Q150.87 421.539 152.525 419.711 Q155.564 416.524 159.961 416.524 Q161.838 416.524 163.493 417.315 Q165.173 418.105 166.754 419.909 Q168.36 421.687 169.323 425.22 Q170.287 428.728 170.287 433.57 Q170.287 441.401 166.482 446.366 Q162.703 451.331 157.589 451.331 Q154.353 451.331 152.451 449.874 Q150.549 448.392 150.549 445.872 Q150.549 444.563 151.29 444.019 Q152.031 443.451 152.871 443.451 Q153.785 443.451 154.501 444.069 Q155.218 444.662 155.218 445.773 Q155.218 446.687 154.625 447.404 Q154.057 448.095 152.574 448.095 Q154.032 449.923 157.54 449.923 Q158.8 449.923 160.06 449.355 Q161.319 448.762 162.678 447.354 Q164.062 445.921 164.901 442.932 Q165.741 439.943 165.741 435.744 L165.741 434.138 Q163.716 439.202 159.417 439.202 Q155.168 439.202 152.229 435.941 Q149.289 432.68 149.289 427.913 M153.834 427.962 Q153.834 432.977 154.748 434.83 Q156.305 438.016 159.467 438.016 Q162.555 438.016 164.086 435.274 Q165.643 432.507 165.643 428.926 Q165.643 423.96 164.827 421.786 Q163.32 417.784 159.961 417.784 Q156.626 417.784 154.897 420.971 Q153.834 422.848 153.834 427.962 Z"
     fill="#000000"
     fill-rule="evenodd"
     fill-opacity="1"
     id="path321" />
  <path
     clip-path="url(#clip640)"
     d="M174.585 427.913 Q174.585 425.22 175.376 423.392 Q176.166 421.539 177.821 419.711 Q180.86 416.524 185.257 416.524 Q187.134 416.524 188.79 417.315 Q190.469 418.105 192.05 419.909 Q193.656 421.687 194.62 425.22 Q195.583 428.728 195.583 433.57 Q195.583 441.401 191.779 446.366 Q187.999 451.331 182.885 451.331 Q179.649 451.331 177.747 449.874 Q175.845 448.392 175.845 445.872 Q175.845 444.563 176.586 444.019 Q177.327 443.451 178.167 443.451 Q179.081 443.451 179.798 444.069 Q180.514 444.662 180.514 445.773 Q180.514 446.687 179.921 447.404 Q179.353 448.095 177.871 448.095 Q179.328 449.923 182.836 449.923 Q184.096 449.923 185.356 449.355 Q186.616 448.762 187.974 447.354 Q189.358 445.921 190.198 442.932 Q191.038 439.943 191.038 435.744 L191.038 434.138 Q189.012 439.202 184.714 439.202 Q180.465 439.202 177.525 435.941 Q174.585 432.68 174.585 427.913 M179.131 427.962 Q179.131 432.977 180.045 434.83 Q181.601 438.016 184.763 438.016 Q187.851 438.016 189.382 435.274 Q190.939 432.507 190.939 428.926 Q190.939 423.96 190.124 421.786 Q188.617 417.784 185.257 417.784 Q181.922 417.784 180.193 420.971 Q179.131 422.848 179.131 427.962 Z"
     fill="#000000"
     fill-rule="evenodd"
     fill-opacity="1"
     id="path323" />
  <path
     clip-path="url(#clip640)"
     d="M199.881 434.237 Q199.881 426.282 203.933 421.416 Q207.984 416.524 213.197 416.524 Q216.235 416.524 217.915 418.081 Q219.619 419.612 219.619 421.984 Q219.619 423.293 218.854 423.861 Q218.088 424.429 217.297 424.429 Q216.383 424.429 215.667 423.812 Q214.95 423.194 214.95 422.083 Q214.95 419.81 217.742 419.81 Q216.433 417.784 213.295 417.784 Q212.332 417.784 211.344 418.081 Q210.356 418.352 209.071 419.291 Q207.786 420.23 206.798 421.712 Q205.81 423.194 205.119 425.986 Q204.427 428.777 204.427 432.409 L204.427 433.619 Q206.502 428.604 210.751 428.629 Q215 428.629 217.94 431.865 Q220.879 435.101 220.879 439.894 Q220.879 444.81 217.816 448.071 Q214.753 451.331 210.454 451.331 Q208.528 451.331 206.774 450.516 Q205.044 449.726 203.414 447.898 Q201.808 446.07 200.845 442.562 Q199.881 439.054 199.881 434.237 M204.526 438.782 Q204.526 443.748 205.44 446.119 Q205.588 446.514 205.909 447.058 Q206.255 447.601 206.823 448.318 Q207.416 449.009 208.379 449.479 Q209.343 449.923 210.454 449.923 Q213.839 449.923 215.469 446.638 Q216.334 444.81 216.334 439.844 Q216.334 434.78 215.42 432.927 Q213.864 429.79 210.701 429.79 Q208.577 429.79 207.095 431.248 Q205.637 432.705 205.069 434.657 Q204.526 436.608 204.526 438.782 Z"
     fill="#000000"
     fill-rule="evenodd"
     fill-opacity="1"
     id="path325" />
  <path
     clip-path="url(#clip640)"
     d="M108.38 340.491 Q108.38 333.055 110.258 329.004 Q112.876 322.976 119.052 322.976 Q120.361 322.976 121.72 323.347 Q123.103 323.693 124.833 325.051 Q126.587 326.41 127.649 328.633 Q129.674 332.932 129.674 340.491 Q129.674 347.877 127.797 351.904 Q125.055 357.783 119.003 357.783 Q116.73 357.783 114.408 356.622 Q112.11 355.461 110.653 352.67 Q108.38 348.495 108.38 340.491 M112.58 339.873 Q112.58 347.507 113.123 350.545 Q113.741 353.831 115.421 355.264 Q117.125 356.672 119.003 356.672 Q121.028 356.672 122.708 355.165 Q124.413 353.633 124.931 350.348 Q125.5 347.112 125.475 339.873 Q125.475 332.833 124.981 330.017 Q124.314 326.731 122.535 325.422 Q120.781 324.088 119.003 324.088 Q118.336 324.088 117.619 324.286 Q116.928 324.483 115.915 325.051 Q114.902 325.62 114.111 327.028 Q113.346 328.436 112.975 330.56 Q112.58 333.302 112.58 339.873 Z"
     fill="#000000"
     fill-rule="evenodd"
     fill-opacity="1"
     id="path327" />
  <path
     clip-path="url(#clip640)"
     d="M136.764 355.857 Q135.999 355.041 135.999 353.979 Q135.999 352.917 136.764 352.151 Q137.53 351.361 138.691 351.361 Q139.803 351.361 140.544 352.102 Q141.31 352.818 141.31 354.004 Q141.31 355.165 140.495 355.931 Q139.704 356.672 138.691 356.672 Q137.53 356.672 136.764 355.857 Z"
     fill="#000000"
     fill-rule="evenodd"
     fill-opacity="1"
     id="path329" />
  <path
     clip-path="url(#clip640)"
     d="M147.881 334.365 Q147.881 331.672 148.671 329.844 Q149.462 327.991 151.117 326.163 Q154.155 322.976 158.553 322.976 Q160.43 322.976 162.085 323.767 Q163.765 324.557 165.346 326.361 Q166.952 328.139 167.915 331.672 Q168.879 335.18 168.879 340.022 Q168.879 347.853 165.074 352.818 Q161.295 357.783 156.181 357.783 Q152.945 357.783 151.043 356.326 Q149.141 354.844 149.141 352.324 Q149.141 351.015 149.882 350.471 Q150.623 349.903 151.463 349.903 Q152.377 349.903 153.093 350.521 Q153.81 351.113 153.81 352.225 Q153.81 353.139 153.217 353.856 Q152.649 354.547 151.166 354.547 Q152.624 356.375 156.132 356.375 Q157.392 356.375 158.651 355.807 Q159.911 355.214 161.27 353.806 Q162.653 352.373 163.493 349.384 Q164.333 346.395 164.333 342.196 L164.333 340.59 Q162.308 345.654 158.009 345.654 Q153.76 345.654 150.821 342.393 Q147.881 339.132 147.881 334.365 M152.426 334.414 Q152.426 339.429 153.34 341.282 Q154.897 344.468 158.059 344.468 Q161.147 344.468 162.678 341.726 Q164.234 338.959 164.234 335.377 Q164.234 330.412 163.419 328.238 Q161.912 324.236 158.553 324.236 Q155.218 324.236 153.488 327.423 Q152.426 329.3 152.426 334.414 Z"
     fill="#000000"
     fill-rule="evenodd"
     fill-opacity="1"
     id="path331" />
  <path
     clip-path="url(#clip640)"
     d="M173.177 334.365 Q173.177 331.672 173.968 329.844 Q174.758 327.991 176.413 326.163 Q179.452 322.976 183.849 322.976 Q185.726 322.976 187.382 323.767 Q189.061 324.557 190.642 326.361 Q192.248 328.139 193.211 331.672 Q194.175 335.18 194.175 340.022 Q194.175 347.853 190.371 352.818 Q186.591 357.783 181.477 357.783 Q178.241 357.783 176.339 356.326 Q174.437 354.844 174.437 352.324 Q174.437 351.015 175.178 350.471 Q175.919 349.903 176.759 349.903 Q177.673 349.903 178.389 350.521 Q179.106 351.113 179.106 352.225 Q179.106 353.139 178.513 353.856 Q177.945 354.547 176.463 354.547 Q177.92 356.375 181.428 356.375 Q182.688 356.375 183.948 355.807 Q185.208 355.214 186.566 353.806 Q187.95 352.373 188.79 349.384 Q189.63 346.395 189.63 342.196 L189.63 340.59 Q187.604 345.654 183.305 345.654 Q179.056 345.654 176.117 342.393 Q173.177 339.132 173.177 334.365 M177.722 334.414 Q177.722 339.429 178.637 341.282 Q180.193 344.468 183.355 344.468 Q186.443 344.468 187.974 341.726 Q189.531 338.959 189.531 335.377 Q189.531 330.412 188.715 328.238 Q187.209 324.236 183.849 324.236 Q180.514 324.236 178.785 327.423 Q177.722 329.3 177.722 334.414 Z"
     fill="#000000"
     fill-rule="evenodd"
     fill-opacity="1"
     id="path333" />
  <path
     clip-path="url(#clip640)"
     d="M199.19 332.882 L200.845 322.482 L202.105 322.482 Q202.253 323.1 202.5 323.372 Q202.772 323.643 204.204 323.866 Q205.662 324.088 208.602 324.088 L220.879 324.088 Q220.879 325.249 220.435 325.867 L213.592 335.476 Q211.418 338.515 210.454 344.122 Q209.886 347.877 209.911 352.423 L209.911 354.992 Q209.911 357.783 207.564 357.783 Q205.242 357.783 205.242 354.992 Q205.242 345.333 211.467 335.97 Q212.134 335.007 214.58 331.573 Q217.05 328.139 217.149 327.991 L206.675 327.991 Q202.08 327.991 201.709 328.288 Q201.215 328.732 200.45 332.882 L199.19 332.882 Z"
     fill="#000000"
     fill-rule="evenodd"
     fill-opacity="1"
     id="path335" />
  <path
     clip-path="url(#clip640)"
     d="M109.788 246.943 Q109.788 239.507 111.666 235.456 Q114.284 229.428 120.46 229.428 Q121.769 229.428 123.128 229.799 Q124.511 230.145 126.241 231.503 Q127.995 232.862 129.057 235.085 Q131.083 239.384 131.083 246.943 Q131.083 254.329 129.205 258.356 Q126.463 264.235 120.411 264.235 Q118.138 264.235 115.816 263.074 Q113.518 261.913 112.061 259.122 Q109.788 254.947 109.788 246.943 M113.988 246.325 Q113.988 253.959 114.531 256.997 Q115.149 260.283 116.829 261.716 Q118.533 263.124 120.411 263.124 Q122.436 263.124 124.116 261.617 Q125.821 260.085 126.339 256.8 Q126.908 253.563 126.883 246.325 Q126.883 239.285 126.389 236.469 Q125.722 233.183 123.943 231.874 Q122.189 230.54 120.411 230.54 Q119.744 230.54 119.027 230.738 Q118.336 230.935 117.323 231.503 Q116.31 232.072 115.519 233.48 Q114.754 234.888 114.383 237.012 Q113.988 239.754 113.988 246.325 Z"
     fill="#000000"
     fill-rule="evenodd"
     fill-opacity="1"
     id="path337" />
  <path
     clip-path="url(#clip640)"
     d="M138.172 262.308 Q137.407 261.493 137.407 260.431 Q137.407 259.369 138.172 258.603 Q138.938 257.812 140.099 257.812 Q141.211 257.812 141.952 258.554 Q142.718 259.27 142.718 260.456 Q142.718 261.617 141.903 262.383 Q141.112 263.124 140.099 263.124 Q138.938 263.124 138.172 262.308 Z"
     fill="#000000"
     fill-rule="evenodd"
     fill-opacity="1"
     id="path339" />
  <path
     clip-path="url(#clip640)"
     d="M149.289 240.817 Q149.289 238.124 150.079 236.296 Q150.87 234.443 152.525 232.615 Q155.564 229.428 159.961 229.428 Q161.838 229.428 163.493 230.219 Q165.173 231.009 166.754 232.813 Q168.36 234.591 169.323 238.124 Q170.287 241.632 170.287 246.474 Q170.287 254.305 166.482 259.27 Q162.703 264.235 157.589 264.235 Q154.353 264.235 152.451 262.778 Q150.549 261.296 150.549 258.776 Q150.549 257.467 151.29 256.923 Q152.031 256.355 152.871 256.355 Q153.785 256.355 154.501 256.973 Q155.218 257.565 155.218 258.677 Q155.218 259.591 154.625 260.307 Q154.057 260.999 152.574 260.999 Q154.032 262.827 157.54 262.827 Q158.8 262.827 160.06 262.259 Q161.319 261.666 162.678 260.258 Q164.062 258.825 164.901 255.836 Q165.741 252.847 165.741 248.648 L165.741 247.042 Q163.716 252.106 159.417 252.106 Q155.168 252.106 152.229 248.845 Q149.289 245.584 149.289 240.817 M153.834 240.866 Q153.834 245.881 154.748 247.733 Q156.305 250.92 159.467 250.92 Q162.555 250.92 164.086 248.178 Q165.643 245.411 165.643 241.829 Q165.643 236.864 164.827 234.69 Q163.32 230.688 159.961 230.688 Q156.626 230.688 154.897 233.875 Q153.834 235.752 153.834 240.866 Z"
     fill="#000000"
     fill-rule="evenodd"
     fill-opacity="1"
     id="path341" />
  <path
     clip-path="url(#clip640)"
     d="M174.585 240.817 Q174.585 238.124 175.376 236.296 Q176.166 234.443 177.821 232.615 Q180.86 229.428 185.257 229.428 Q187.134 229.428 188.79 230.219 Q190.469 231.009 192.05 232.813 Q193.656 234.591 194.62 238.124 Q195.583 241.632 195.583 246.474 Q195.583 254.305 191.779 259.27 Q187.999 264.235 182.885 264.235 Q179.649 264.235 177.747 262.778 Q175.845 261.296 175.845 258.776 Q175.845 257.467 176.586 256.923 Q177.327 256.355 178.167 256.355 Q179.081 256.355 179.798 256.973 Q180.514 257.565 180.514 258.677 Q180.514 259.591 179.921 260.307 Q179.353 260.999 177.871 260.999 Q179.328 262.827 182.836 262.827 Q184.096 262.827 185.356 262.259 Q186.616 261.666 187.974 260.258 Q189.358 258.825 190.198 255.836 Q191.038 252.847 191.038 248.648 L191.038 247.042 Q189.012 252.106 184.714 252.106 Q180.465 252.106 177.525 248.845 Q174.585 245.584 174.585 240.817 M179.131 240.866 Q179.131 245.881 180.045 247.733 Q181.601 250.92 184.763 250.92 Q187.851 250.92 189.382 248.178 Q190.939 245.411 190.939 241.829 Q190.939 236.864 190.124 234.69 Q188.617 230.688 185.257 230.688 Q181.922 230.688 180.193 233.875 Q179.131 235.752 179.131 240.866 Z"
     fill="#000000"
     fill-rule="evenodd"
     fill-opacity="1"
     id="path343" />
  <path
     clip-path="url(#clip640)"
     d="M199.881 255.49 Q199.881 249.833 207.169 246.177 Q204.032 244.053 203.463 243.435 Q201.24 240.965 201.24 237.877 Q201.24 234.344 203.908 231.899 Q206.601 229.428 210.405 229.428 Q214.036 229.428 216.778 231.528 Q219.521 233.628 219.521 236.963 Q219.521 241.656 213.394 244.818 Q217.445 247.338 218.409 248.4 Q220.879 251.143 220.879 254.626 Q220.879 258.677 217.767 261.469 Q214.654 264.235 210.356 264.235 Q206.156 264.235 203.019 261.79 Q199.881 259.344 199.881 255.49 M202.401 255.49 Q202.401 258.628 204.748 260.727 Q207.119 262.827 210.405 262.827 Q213.592 262.827 215.963 260.999 Q218.36 259.171 218.36 256.454 Q218.36 255.392 217.989 254.478 Q217.643 253.563 216.927 252.847 Q216.235 252.106 215.79 251.785 Q215.37 251.439 214.555 250.871 L208.33 246.943 Q202.401 250.229 202.401 255.49 M203.463 235.901 Q203.463 238.322 206.008 240.001 L212.282 244.053 Q217.297 241.113 217.297 236.963 Q217.297 234.27 215.247 232.492 Q213.197 230.688 210.356 230.688 Q207.564 230.688 205.514 232.17 Q203.463 233.628 203.463 235.901 Z"
     fill="#000000"
     fill-rule="evenodd"
     fill-opacity="1"
     id="path345" />
  <path
     clip-path="url(#clip640)"
     d="M109.788 153.395 Q109.788 145.959 111.666 141.908 Q114.284 135.88 120.46 135.88 Q121.769 135.88 123.128 136.251 Q124.511 136.597 126.241 137.955 Q127.995 139.314 129.057 141.537 Q131.083 145.836 131.083 153.395 Q131.083 160.781 129.205 164.808 Q126.463 170.687 120.411 170.687 Q118.138 170.687 115.816 169.526 Q113.518 168.365 112.061 165.574 Q109.788 161.399 109.788 153.395 M113.988 152.777 Q113.988 160.411 114.531 163.449 Q115.149 166.735 116.829 168.168 Q118.533 169.576 120.411 169.576 Q122.436 169.576 124.116 168.069 Q125.821 166.537 126.339 163.252 Q126.908 160.015 126.883 152.777 Q126.883 145.737 126.389 142.921 Q125.722 139.635 123.943 138.326 Q122.189 136.992 120.411 136.992 Q119.744 136.992 119.027 137.19 Q118.336 137.387 117.323 137.955 Q116.31 138.523 115.519 139.932 Q114.754 141.34 114.383 143.464 Q113.988 146.206 113.988 152.777 Z"
     fill="#000000"
     fill-rule="evenodd"
     fill-opacity="1"
     id="path347" />
  <path
     clip-path="url(#clip640)"
     d="M138.172 168.76 Q137.407 167.945 137.407 166.883 Q137.407 165.821 138.172 165.055 Q138.938 164.264 140.099 164.264 Q141.211 164.264 141.952 165.005 Q142.718 165.722 142.718 166.908 Q142.718 168.069 141.903 168.835 Q141.112 169.576 140.099 169.576 Q138.938 169.576 138.172 168.76 Z"
     fill="#000000"
     fill-rule="evenodd"
     fill-opacity="1"
     id="path349" />
  <path
     clip-path="url(#clip640)"
     d="M149.289 147.268 Q149.289 144.576 150.079 142.748 Q150.87 140.895 152.525 139.067 Q155.564 135.88 159.961 135.88 Q161.838 135.88 163.493 136.671 Q165.173 137.461 166.754 139.265 Q168.36 141.043 169.323 144.576 Q170.287 148.084 170.287 152.926 Q170.287 160.757 166.482 165.722 Q162.703 170.687 157.589 170.687 Q154.353 170.687 152.451 169.23 Q150.549 167.748 150.549 165.228 Q150.549 163.919 151.29 163.375 Q152.031 162.807 152.871 162.807 Q153.785 162.807 154.501 163.424 Q155.218 164.017 155.218 165.129 Q155.218 166.043 154.625 166.759 Q154.057 167.451 152.574 167.451 Q154.032 169.279 157.54 169.279 Q158.8 169.279 160.06 168.711 Q161.319 168.118 162.678 166.71 Q164.062 165.277 164.901 162.288 Q165.741 159.299 165.741 155.099 L165.741 153.494 Q163.716 158.558 159.417 158.558 Q155.168 158.558 152.229 155.297 Q149.289 152.036 149.289 147.268 M153.834 147.318 Q153.834 152.333 154.748 154.185 Q156.305 157.372 159.467 157.372 Q162.555 157.372 164.086 154.63 Q165.643 151.863 165.643 148.281 Q165.643 143.316 164.827 141.142 Q163.32 137.14 159.961 137.14 Q156.626 137.14 154.897 140.327 Q153.834 142.204 153.834 147.318 Z"
     fill="#000000"
     fill-rule="evenodd"
     fill-opacity="1"
     id="path351" />
  <path
     clip-path="url(#clip640)"
     d="M174.585 147.268 Q174.585 144.576 175.376 142.748 Q176.166 140.895 177.821 139.067 Q180.86 135.88 185.257 135.88 Q187.134 135.88 188.79 136.671 Q190.469 137.461 192.05 139.265 Q193.656 141.043 194.62 144.576 Q195.583 148.084 195.583 152.926 Q195.583 160.757 191.779 165.722 Q187.999 170.687 182.885 170.687 Q179.649 170.687 177.747 169.23 Q175.845 167.748 175.845 165.228 Q175.845 163.919 176.586 163.375 Q177.327 162.807 178.167 162.807 Q179.081 162.807 179.798 163.424 Q180.514 164.017 180.514 165.129 Q180.514 166.043 179.921 166.759 Q179.353 167.451 177.871 167.451 Q179.328 169.279 182.836 169.279 Q184.096 169.279 185.356 168.711 Q186.616 168.118 187.974 166.71 Q189.358 165.277 190.198 162.288 Q191.038 159.299 191.038 155.099 L191.038 153.494 Q189.012 158.558 184.714 158.558 Q180.465 158.558 177.525 155.297 Q174.585 152.036 174.585 147.268 M179.131 147.318 Q179.131 152.333 180.045 154.185 Q181.601 157.372 184.763 157.372 Q187.851 157.372 189.382 154.63 Q190.939 151.863 190.939 148.281 Q190.939 143.316 190.124 141.142 Q188.617 137.14 185.257 137.14 Q181.922 137.14 180.193 140.327 Q179.131 142.204 179.131 147.318 Z"
     fill="#000000"
     fill-rule="evenodd"
     fill-opacity="1"
     id="path353" />
  <path
     clip-path="url(#clip640)"
     d="M199.881 147.268 Q199.881 144.576 200.672 142.748 Q201.462 140.895 203.118 139.067 Q206.156 135.88 210.553 135.88 Q212.431 135.88 214.086 136.671 Q215.766 137.461 217.347 139.265 Q218.952 141.043 219.916 144.576 Q220.879 148.084 220.879 152.926 Q220.879 160.757 217.075 165.722 Q213.295 170.687 208.182 170.687 Q204.946 170.687 203.043 169.23 Q201.141 167.748 201.141 165.228 Q201.141 163.919 201.882 163.375 Q202.623 162.807 203.463 162.807 Q204.377 162.807 205.094 163.424 Q205.81 164.017 205.81 165.129 Q205.81 166.043 205.217 166.759 Q204.649 167.451 203.167 167.451 Q204.624 169.279 208.132 169.279 Q209.392 169.279 210.652 168.711 Q211.912 168.118 213.271 166.71 Q214.654 165.277 215.494 162.288 Q216.334 159.299 216.334 155.099 L216.334 153.494 Q214.308 158.558 210.01 158.558 Q205.761 158.558 202.821 155.297 Q199.881 152.036 199.881 147.268 M204.427 147.318 Q204.427 152.333 205.341 154.185 Q206.897 157.372 210.059 157.372 Q213.147 157.372 214.679 154.63 Q216.235 151.863 216.235 148.281 Q216.235 143.316 215.42 141.142 Q213.913 137.14 210.553 137.14 Q207.218 137.14 205.489 140.327 Q204.427 142.204 204.427 147.318 Z"
     fill="#000000"
     fill-rule="evenodd"
     fill-opacity="1"
     id="path355" />
  <path
     clip-path="url(#clip640)"
     d="M112.16 47.1493 L112.16 45.5683 Q118.237 45.5683 121.374 42.3322 Q122.239 42.3322 122.387 42.5298 Q122.535 42.7274 122.535 43.6415 L122.535 72.0256 Q122.535 73.5325 123.276 74.0019 Q124.017 74.4712 127.254 74.4712 L128.859 74.4712 L128.859 76.0276 Q127.081 75.8793 120.658 75.8793 Q114.235 75.8793 112.481 76.0276 L112.481 74.4712 L114.087 74.4712 Q117.273 74.4712 118.039 74.0266 Q118.805 73.5572 118.805 72.0256 L118.805 45.8154 Q116.162 47.1493 112.16 47.1493 Z"
     fill="#000000"
     fill-rule="evenodd"
     fill-opacity="1"
     id="path357" />
  <path
     clip-path="url(#clip640)"
     d="M138.024 75.2123 Q137.258 74.3971 137.258 73.3349 Q137.258 72.2726 138.024 71.5068 Q138.79 70.7163 139.951 70.7163 Q141.063 70.7163 141.804 71.4574 Q142.57 72.1738 142.57 73.3596 Q142.57 74.5207 141.754 75.2865 Q140.964 76.0276 139.951 76.0276 Q138.79 76.0276 138.024 75.2123 Z"
     fill="#000000"
     fill-rule="evenodd"
     fill-opacity="1"
     id="path359" />
  <path
     clip-path="url(#clip640)"
     d="M148.992 59.8469 Q148.992 52.4111 150.87 48.3598 Q153.488 42.3322 159.664 42.3322 Q160.974 42.3322 162.332 42.7027 Q163.716 43.0486 165.445 44.4073 Q167.199 45.7659 168.261 47.9892 Q170.287 52.2876 170.287 59.8469 Q170.287 67.2332 168.409 71.2598 Q165.667 77.1392 159.615 77.1392 Q157.342 77.1392 155.02 75.9782 Q152.723 74.8171 151.265 72.0256 Q148.992 67.8507 148.992 59.8469 M153.192 59.2293 Q153.192 66.8626 153.736 69.9011 Q154.353 73.1867 156.033 74.6195 Q157.737 76.0276 159.615 76.0276 Q161.641 76.0276 163.32 74.5207 Q165.025 72.989 165.544 69.7035 Q166.112 66.4674 166.087 59.2293 Q166.087 52.1888 165.593 49.3726 Q164.926 46.0871 163.148 44.7778 Q161.394 43.4438 159.615 43.4438 Q158.948 43.4438 158.232 43.6415 Q157.54 43.8391 156.527 44.4073 Q155.514 44.9754 154.724 46.3835 Q153.958 47.7916 153.587 49.9161 Q153.192 52.6582 153.192 59.2293 Z"
     fill="#000000"
     fill-rule="evenodd"
     fill-opacity="1"
     id="path361" />
  <path
     clip-path="url(#clip640)"
     d="M174.289 59.8469 Q174.289 52.4111 176.166 48.3598 Q178.785 42.3322 184.961 42.3322 Q186.27 42.3322 187.629 42.7027 Q189.012 43.0486 190.741 44.4073 Q192.495 45.7659 193.557 47.9892 Q195.583 52.2876 195.583 59.8469 Q195.583 67.2332 193.706 71.2598 Q190.963 77.1392 184.911 77.1392 Q182.638 77.1392 180.316 75.9782 Q178.019 74.8171 176.561 72.0256 Q174.289 67.8507 174.289 59.8469 M178.488 59.2293 Q178.488 66.8626 179.032 69.9011 Q179.649 73.1867 181.329 74.6195 Q183.034 76.0276 184.911 76.0276 Q186.937 76.0276 188.617 74.5207 Q190.321 72.989 190.84 69.7035 Q191.408 66.4674 191.383 59.2293 Q191.383 52.1888 190.889 49.3726 Q190.222 46.0871 188.444 44.7778 Q186.69 43.4438 184.911 43.4438 Q184.244 43.4438 183.528 43.6415 Q182.836 43.8391 181.823 44.4073 Q180.81 44.9754 180.02 46.3835 Q179.254 47.7916 178.884 49.9161 Q178.488 52.6582 178.488 59.2293 Z"
     fill="#000000"
     fill-rule="evenodd"
     fill-opacity="1"
     id="path363" />
  <path
     clip-path="url(#clip640)"
     d="M199.585 59.8469 Q199.585 52.4111 201.462 48.3598 Q204.081 42.3322 210.257 42.3322 Q211.566 42.3322 212.925 42.7027 Q214.308 43.0486 216.037 44.4073 Q217.791 45.7659 218.854 47.9892 Q220.879 52.2876 220.879 59.8469 Q220.879 67.2332 219.002 71.2598 Q216.26 77.1392 210.207 77.1392 Q207.935 77.1392 205.613 75.9782 Q203.315 74.8171 201.858 72.0256 Q199.585 67.8507 199.585 59.8469 M203.785 59.2293 Q203.785 66.8626 204.328 69.9011 Q204.946 73.1867 206.625 74.6195 Q208.33 76.0276 210.207 76.0276 Q212.233 76.0276 213.913 74.5207 Q215.617 72.989 216.136 69.7035 Q216.704 66.4674 216.68 59.2293 Q216.68 52.1888 216.186 49.3726 Q215.519 46.0871 213.74 44.7778 Q211.986 43.4438 210.207 43.4438 Q209.54 43.4438 208.824 43.6415 Q208.132 43.8391 207.119 44.4073 Q206.107 44.9754 205.316 46.3835 Q204.55 47.7916 204.18 49.9161 Q203.785 52.6582 203.785 59.2293 Z"
     fill="#000000"
     fill-rule="evenodd"
     fill-opacity="1"
     id="path365" />
  <path
     clip-path="url(#clip640)"
     d="M76.1242 388.718 L73.9842 388.718 Q73.8484 382.536 69.2968 380.94 L27.721 366.538 Q26.8718 366.266 26.6001 365.96 Q26.3284 365.654 26.3284 364.873 Q26.3284 364.466 26.3963 364.228 Q26.4642 363.956 26.702 363.786 Q26.9398 363.616 27.0756 363.549 Q27.2115 363.481 27.721 363.277 L71.1989 348.263 Q72.9312 347.72 73.4747 346.599 Q73.9842 345.478 73.9842 342.319 L73.9842 341.096 L76.1242 341.096 Q75.9204 345.478 75.9204 350.199 Q75.9204 357.706 76.1242 360.22 L73.9842 360.22 Q73.9842 354.445 71.8783 354.445 Q71.7424 354.445 70.8932 354.649 L60.2615 358.318 L60.2615 375.505 L69.3647 378.732 Q69.6364 378.868 70.4177 378.868 Q71.8783 378.868 72.9312 377.509 Q73.9842 376.15 73.9842 373.637 L76.1242 373.637 Q75.9204 380.328 75.9204 381.653 Q75.9204 383.929 76.1242 388.718 M58.1216 374.758 L58.1216 359.099 L35.4995 366.945 L58.1216 374.758 Z"
     fill="#000000"
     fill-rule="evenodd"
     fill-opacity="1"
     id="path367" />
  <path
     clip-path="url(#clip640)"
     d="M72.3198 333.929 Q67.7003 338.345 61.1107 338.345 Q54.4871 338.345 49.7317 333.997 Q44.9423 329.649 44.9423 323.264 Q44.9423 319.018 46.9804 315.825 Q48.9844 312.632 52.4151 312.632 Q53.9436 312.632 54.8268 313.549 Q55.676 314.432 55.676 315.825 Q55.676 317.285 54.7928 318.168 Q53.8757 319.018 52.483 319.018 Q51.8716 319.018 51.2602 318.814 Q50.6488 318.61 50.0034 317.863 Q49.3581 317.081 49.2562 315.757 Q46.7086 318.236 46.7086 323.06 Q46.7086 323.128 46.7086 323.196 Q46.7086 326.728 50.0374 329.649 Q53.3662 332.57 60.9748 332.57 Q64.949 332.57 67.8701 331.619 Q70.7574 330.634 72.2519 329.038 Q73.7465 327.441 74.4598 325.879 Q75.1391 324.316 75.1391 322.788 Q75.1391 315.961 67.8362 313.651 Q67.1568 313.447 67.1568 312.768 Q67.1568 311.851 67.8362 311.851 Q68.1759 311.851 69.059 312.122 Q69.9421 312.394 71.3348 313.243 Q72.7274 314.092 73.9503 315.315 Q75.1391 316.504 76.0223 318.644 Q76.9054 320.75 76.9054 323.399 Q76.9054 329.513 72.3198 333.929 Z"
     fill="#000000"
     fill-rule="evenodd"
     fill-opacity="1"
     id="path369" />
  <path
     clip-path="url(#clip640)"
     d="M72.3198 303.053 Q67.7003 307.469 61.1107 307.469 Q54.4871 307.469 49.7317 303.121 Q44.9423 298.773 44.9423 292.387 Q44.9423 288.142 46.9804 284.949 Q48.9844 281.756 52.4151 281.756 Q53.9436 281.756 54.8268 282.673 Q55.676 283.556 55.676 284.949 Q55.676 286.409 54.7928 287.292 Q53.8757 288.142 52.483 288.142 Q51.8716 288.142 51.2602 287.938 Q50.6488 287.734 50.0034 286.987 Q49.3581 286.205 49.2562 284.881 Q46.7086 287.36 46.7086 292.184 Q46.7086 292.252 46.7086 292.319 Q46.7086 295.852 50.0374 298.773 Q53.3662 301.694 60.9748 301.694 Q64.949 301.694 67.8701 300.743 Q70.7574 299.758 72.2519 298.162 Q73.7465 296.565 74.4598 295.003 Q75.1391 293.44 75.1391 291.912 Q75.1391 285.084 67.8362 282.775 Q67.1568 282.571 67.1568 281.892 Q67.1568 280.974 67.8362 280.974 Q68.1759 280.974 69.059 281.246 Q69.9421 281.518 71.3348 282.367 Q72.7274 283.216 73.9503 284.439 Q75.1391 285.628 76.0223 287.768 Q76.9054 289.874 76.9054 292.523 Q76.9054 298.637 72.3198 303.053 Z"
     fill="#000000"
     fill-rule="evenodd"
     fill-opacity="1"
     id="path371" />
  <path
     clip-path="url(#clip640)"
     d="M48.3051 276.729 L46.1312 276.729 L45.3839 266.504 L68.4816 266.504 Q70.1459 266.504 71.131 266.369 Q72.0821 266.233 73.203 265.689 Q74.3239 265.112 74.8334 263.821 Q75.3429 262.496 75.3429 260.39 Q75.3429 256.62 72.2519 254.31 Q69.1609 251.967 64.5753 251.967 L52.1773 251.967 Q49.5958 251.967 48.9505 252.884 Q48.3051 253.801 48.3051 257.401 L46.1312 257.401 L45.3839 247.177 L70.078 247.177 Q72.6595 247.177 73.3389 246.294 Q73.9842 245.377 73.9842 241.742 L76.1242 241.742 L76.9054 251.763 L70.6215 251.763 Q76.8714 254.684 76.9054 260.73 Q76.9054 263.787 76.1242 265.893 Q75.3429 267.965 74.3918 269.018 Q73.4068 270.071 71.5386 270.648 Q69.6704 271.192 68.5155 271.26 Q67.3606 271.328 65.1188 271.328 L54.6909 271.328 Q49.9695 271.328 49.1543 272.007 Q48.3051 272.686 48.3051 276.729 Z"
     fill="#000000"
     fill-rule="evenodd"
     fill-opacity="1"
     id="path373" />
  <path
     clip-path="url(#clip640)"
     d="M76.1242 238.448 L73.9842 238.448 Q73.9842 234.745 73.5427 233.896 Q73.0671 233.013 70.8253 233.013 L52.1773 233.013 Q49.5958 233.013 48.9505 233.93 Q48.3051 234.813 48.3051 238.448 L46.1312 238.448 L45.3839 228.767 L53.0265 228.767 Q50.0374 227.782 47.7276 225.71 Q45.3839 223.604 45.3839 220.207 Q45.3839 217.965 46.6407 216.539 Q47.8975 215.078 49.6298 215.078 Q51.1583 215.078 51.9396 216.029 Q52.6868 216.946 52.6868 218.067 Q52.6868 219.324 51.9056 220.207 Q51.0904 221.056 49.6977 221.056 Q48.8486 221.056 48.2032 220.683 Q47.5238 220.275 47.2861 219.969 Q47.0483 219.664 46.9804 219.46 Q46.9124 219.596 46.9124 220.207 Q46.9124 224.046 50.7507 226.253 Q54.555 228.427 59.9898 228.427 L70.6894 228.427 Q72.6935 228.427 73.3389 227.612 Q73.9842 226.763 73.9842 223.128 L73.9842 221.668 L76.1242 221.668 Q75.9204 224.453 75.9204 230.499 Q75.9204 231.348 75.9543 232.673 Q75.9883 233.998 76.0562 235.73 Q76.1242 237.463 76.1242 238.448 Z"
     fill="#000000"
     fill-rule="evenodd"
     fill-opacity="1"
     id="path375" />
  <path
     clip-path="url(#clip640)"
     d="M69.5006 210.289 Q63.5903 210.289 60.4653 203.326 Q58.4613 199.148 57.9517 190.52 L55.4042 190.52 Q51.0904 190.52 48.8146 192.796 Q46.5048 195.038 46.5048 197.891 Q46.5048 202.986 49.6977 205.432 Q49.7657 203.36 50.8187 202.612 Q51.8377 201.865 52.8906 201.865 Q54.2833 201.865 55.2004 202.748 Q56.0836 203.597 56.0836 205.058 Q56.0836 206.451 55.2344 207.368 Q54.3512 208.285 52.8227 208.285 Q49.426 208.285 47.1842 205.228 Q44.9423 202.137 44.9423 197.755 Q44.9423 192.049 48.7806 188.244 Q49.9695 187.055 51.498 186.478 Q53.0265 185.867 54.0455 185.799 Q55.0306 185.731 57.0007 185.731 L70.8932 185.731 Q71.3008 185.731 71.9802 185.595 Q72.6595 185.459 73.5427 184.847 Q74.3918 184.202 74.3918 183.149 Q74.3918 180.636 69.9421 180.67 L66.0359 180.67 L66.0359 178.903 L69.9421 178.903 Q73.6446 178.903 75.1051 180.873 Q76.5318 182.809 76.5318 184.61 Q76.5318 186.919 74.8334 188.38 Q73.1351 189.841 70.8253 190.044 Q73.4747 191.097 75.207 193.509 Q76.9054 195.887 76.9054 199.148 Q76.9054 201.661 76.26 204.039 Q75.6486 206.383 73.9163 208.353 Q72.15 210.289 69.5006 210.289 M69.4326 204.922 Q72.0141 204.922 73.6785 203.088 Q75.3429 201.254 75.3429 198.672 Q75.3429 195.751 73.1011 193.135 Q70.8253 190.52 66.3756 190.52 L59.4123 190.52 Q59.6841 198.231 62.7751 201.593 Q65.8321 204.922 69.4326 204.922 Z"
     fill="#000000"
     fill-rule="evenodd"
     fill-opacity="1"
     id="path377" />
  <path
     clip-path="url(#clip640)"
     d="M72.3198 171.634 Q67.7003 176.05 61.1107 176.05 Q54.4871 176.05 49.7317 171.702 Q44.9423 167.354 44.9423 160.969 Q44.9423 156.723 46.9804 153.53 Q48.9844 150.337 52.4151 150.337 Q53.9436 150.337 54.8268 151.254 Q55.676 152.137 55.676 153.53 Q55.676 154.99 54.7928 155.874 Q53.8757 156.723 52.483 156.723 Q51.8716 156.723 51.2602 156.519 Q50.6488 156.315 50.0034 155.568 Q49.3581 154.787 49.2562 153.462 Q46.7086 155.941 46.7086 160.765 Q46.7086 160.833 46.7086 160.901 Q46.7086 164.433 50.0374 167.354 Q53.3662 170.276 60.9748 170.276 Q64.949 170.276 67.8701 169.325 Q70.7574 168.339 72.2519 166.743 Q73.7465 165.147 74.4598 163.584 Q75.1391 162.022 75.1391 160.493 Q75.1391 153.666 67.8362 151.356 Q67.1568 151.152 67.1568 150.473 Q67.1568 149.556 67.8362 149.556 Q68.1759 149.556 69.059 149.827 Q69.9421 150.099 71.3348 150.948 Q72.7274 151.797 73.9503 153.02 Q75.1391 154.209 76.0223 156.349 Q76.9054 158.455 76.9054 161.104 Q76.9054 167.219 72.3198 171.634 Z"
     fill="#000000"
     fill-rule="evenodd"
     fill-opacity="1"
     id="path379" />
  <path
     clip-path="url(#clip640)"
     d="M84.7518 146.227 Q83.2912 146.227 82.51 145.378 Q81.7627 144.495 81.7627 143.306 Q81.7627 142.049 82.5439 141.234 Q83.3592 140.385 84.6839 140.385 Q87.2654 140.385 87.605 143.102 Q88.8618 141.777 88.8618 139.841 Q88.8618 137.769 87.3333 136.105 Q85.8048 134.406 84.3442 133.693 Q82.8836 132.946 80.2342 131.893 Q78.1622 130.908 76.1242 130.16 L50.7168 140.588 Q49.0524 141.268 48.6787 142.321 Q48.3051 143.374 48.3051 146.227 L46.1312 146.227 Q46.335 143.102 46.335 139.467 Q46.335 137.327 46.1312 131.893 L48.3051 131.893 Q48.3051 135.799 50.1053 135.799 Q50.3091 135.799 51.3621 135.391 L70.078 127.647 L52.9586 120.616 Q51.9735 120.208 51.2942 120.208 Q48.441 120.208 48.3051 123.469 L46.1312 123.469 Q46.335 118.883 46.335 117.423 Q46.335 114.57 46.1312 112.226 L48.3051 112.226 Q48.3051 116.879 52.7548 118.68 L82.442 130.942 Q90.3564 134.27 90.3903 139.841 Q90.3903 142.49 88.7599 144.359 Q87.1295 146.227 84.7518 146.227 Z"
     fill="#000000"
     fill-rule="evenodd"
     fill-opacity="1"
     id="path381" />
  <polyline
     clip-path="url(#clip642)"
     style="stroke:#2ecc71; stroke-linecap:round; stroke-linejoin:round; stroke-width:16; stroke-opacity:1; fill:none"
     points="   264.744,442.196 387.908,313.335 511.072,248.864 634.236,215.718 757.4,214.268 880.564,220.539 1003.73,211.309 1126.89,207.007    "
     id="polyline383" />
  <circle
     clip-path="url(#clip642)"
     cx="264.744"
     cy="442.196"
     r="25.2"
     fill="#2ecc71"
     fill-rule="evenodd"
     fill-opacity="1"
     stroke="#ffffff"
     stroke-opacity="1"
     stroke-width="1.2"
     id="circle385" />
  <circle
     clip-path="url(#clip642)"
     cx="387.908"
     cy="313.335"
     r="25.2"
     fill="#2ecc71"
     fill-rule="evenodd"
     fill-opacity="1"
     stroke="#ffffff"
     stroke-opacity="1"
     stroke-width="1.2"
     id="circle387" />
  <circle
     clip-path="url(#clip642)"
     cx="511.072"
     cy="248.864"
     r="25.2"
     fill="#2ecc71"
     fill-rule="evenodd"
     fill-opacity="1"
     stroke="#ffffff"
     stroke-opacity="1"
     stroke-width="1.2"
     id="circle389" />
  <circle
     clip-path="url(#clip642)"
     cx="634.236"
     cy="215.718"
     r="25.2"
     fill="#2ecc71"
     fill-rule="evenodd"
     fill-opacity="1"
     stroke="#ffffff"
     stroke-opacity="1"
     stroke-width="1.2"
     id="circle391" />
  <circle
     clip-path="url(#clip642)"
     cx="757.4"
     cy="214.268"
     r="25.2"
     fill="#2ecc71"
     fill-rule="evenodd"
     fill-opacity="1"
     stroke="#ffffff"
     stroke-opacity="1"
     stroke-width="1.2"
     id="circle393" />
  <circle
     clip-path="url(#clip642)"
     cx="880.564"
     cy="220.539"
     r="25.2"
     fill="#2ecc71"
     fill-rule="evenodd"
     fill-opacity="1"
     stroke="#ffffff"
     stroke-opacity="1"
     stroke-width="1.2"
     id="circle395" />
  <circle
     clip-path="url(#clip642)"
     cx="1003.73"
     cy="211.309"
     r="25.2"
     fill="#2ecc71"
     fill-rule="evenodd"
     fill-opacity="1"
     stroke="#ffffff"
     stroke-opacity="1"
     stroke-width="1.2"
     id="circle397" />
  <circle
     clip-path="url(#clip642)"
     cx="1126.89"
     cy="207.007"
     r="25.2"
     fill="#2ecc71"
     fill-rule="evenodd"
     fill-opacity="1"
     stroke="#ffffff"
     stroke-opacity="1"
     stroke-width="1.2"
     id="circle399" />
  <polyline
     clip-path="url(#clip642)"
     style="stroke:#1abc9c; stroke-linecap:round; stroke-linejoin:round; stroke-width:16; stroke-opacity:1; fill:none"
     points="   264.744,118.293 387.908,80.8371 511.072,78.373 634.236,80.0513 757.4,78.7771 880.564,75.125 1003.73,71.9622 1126.89,72.0884    "
     id="polyline401" />
  <circle
     clip-path="url(#clip642)"
     cx="264.744"
     cy="118.293"
     r="25.2"
     fill="#1abc9c"
     fill-rule="evenodd"
     fill-opacity="1"
     stroke="#ffffff"
     stroke-opacity="1"
     stroke-width="1.2"
     id="circle403" />
  <circle
     clip-path="url(#clip642)"
     cx="387.908"
     cy="80.8371"
     r="25.2"
     fill="#1abc9c"
     fill-rule="evenodd"
     fill-opacity="1"
     stroke="#ffffff"
     stroke-opacity="1"
     stroke-width="1.2"
     id="circle405" />
  <circle
     clip-path="url(#clip642)"
     cx="511.072"
     cy="78.373"
     r="25.2"
     fill="#1abc9c"
     fill-rule="evenodd"
     fill-opacity="1"
     stroke="#ffffff"
     stroke-opacity="1"
     stroke-width="1.2"
     id="circle407" />
  <circle
     clip-path="url(#clip642)"
     cx="634.236"
     cy="80.0513"
     r="25.2"
     fill="#1abc9c"
     fill-rule="evenodd"
     fill-opacity="1"
     stroke="#ffffff"
     stroke-opacity="1"
     stroke-width="1.2"
     id="circle409" />
  <circle
     clip-path="url(#clip642)"
     cx="757.4"
     cy="78.7771"
     r="25.2"
     fill="#1abc9c"
     fill-rule="evenodd"
     fill-opacity="1"
     stroke="#ffffff"
     stroke-opacity="1"
     stroke-width="1.2"
     id="circle411" />
  <circle
     clip-path="url(#clip642)"
     cx="880.564"
     cy="75.125"
     r="25.2"
     fill="#1abc9c"
     fill-rule="evenodd"
     fill-opacity="1"
     stroke="#ffffff"
     stroke-opacity="1"
     stroke-width="1.2"
     id="circle413" />
  <circle
     clip-path="url(#clip642)"
     cx="1003.73"
     cy="71.9622"
     r="25.2"
     fill="#1abc9c"
     fill-rule="evenodd"
     fill-opacity="1"
     stroke="#ffffff"
     stroke-opacity="1"
     stroke-width="1.2"
     id="circle415" />
  <circle
     clip-path="url(#clip642)"
     cx="1126.89"
     cy="72.0884"
     r="25.2"
     fill="#1abc9c"
     fill-rule="evenodd"
     fill-opacity="1"
     stroke="#ffffff"
     stroke-opacity="1"
     stroke-width="1.2"
     id="circle417" />
  <polyline
     clip-path="url(#clip642)"
     style="stroke:#7f8c8d; stroke-linecap:round; stroke-linejoin:round; stroke-width:4; stroke-opacity:1; fill:none"
     points="   -674.997,58.7476 2066.63,58.7476    "
     id="polyline419" />
  <path
     clip-path="url(#clip640)"
     d=" M941.282 440.151 L1122.29 440.151 L1122.29 284.631 L941.282 284.631  Z   "
     fill="#ffffff"
     fill-rule="evenodd"
     fill-opacity="1"
     id="path421" />
  <polyline
     clip-path="url(#clip640)"
     style="stroke:#000000; stroke-linecap:round; stroke-linejoin:round; stroke-width:4; stroke-opacity:1; fill:none"
     points="   941.282,440.151 1122.29,440.151 1122.29,284.631 941.282,284.631 941.282,440.151    "
     id="polyline423" />
  <polyline
     clip-path="url(#clip640)"
     style="stroke:#2ecc71; stroke-linecap:round; stroke-linejoin:round; stroke-width:16; stroke-opacity:1; fill:none"
     points="   951.436,336.471 1012.36,336.471    "
     id="polyline425" />
  <circle
     clip-path="url(#clip640)"
     cx="981.89899"
     cy="336.47101"
     r="8.4618196"
     fill="#2ecc71"
     fill-rule="evenodd"
     fill-opacity="1"
     stroke="#ffffff"
     stroke-opacity="1"
     stroke-width="1.09714"
     id="circle427"
     transform="matrix(2,0,0,2,-981.89899,-336.47101)" />
  <path
     clip-path="url(#clip640)"
     d="M1022.52 353.751 L1022.52 352.195 Q1025.21 352.195 1025.83 351.874 Q1026.44 351.528 1026.44 349.898 L1026.44 336.335 Q1026.44 334.458 1025.78 333.989 Q1025.13 333.519 1022.52 333.519 L1022.52 331.938 L1029.63 331.395 L1029.63 336.706 Q1032 331.395 1037.12 331.395 Q1040.92 331.395 1042.43 333.272 Q1043.54 334.532 1043.76 335.94 Q1044.01 337.348 1044.01 341.004 L1044.01 350.663 Q1044.06 351.726 1044.87 351.973 Q1045.69 352.195 1047.96 352.195 L1047.96 353.751 Q1042.8 353.603 1042.28 353.603 Q1041.88 353.603 1036.57 353.751 L1036.57 352.195 Q1039.26 352.195 1039.88 351.874 Q1040.52 351.528 1040.52 349.898 L1040.52 338.114 Q1040.52 335.545 1039.73 334.038 Q1038.94 332.506 1036.77 332.506 Q1034.15 332.506 1032.05 334.705 Q1029.95 336.904 1029.95 340.609 L1029.95 349.898 Q1029.95 351.528 1030.57 351.874 Q1031.21 352.195 1033.88 352.195 L1033.88 353.751 Q1028.72 353.603 1028.22 353.603 Q1027.83 353.603 1022.52 353.751 Z"
     fill="#000000"
     fill-rule="evenodd"
     fill-opacity="1"
     id="path429" />
  <path
     clip-path="url(#clip640)"
     d="M1051.84 346.069 Q1051.89 345.451 1052.85 345.451 L1083.85 345.451 Q1085.31 345.451 1085.34 346.019 Q1085.34 346.637 1083.95 346.612 L1053.2 346.612 Q1051.84 346.637 1051.84 346.069 M1051.84 336.187 Q1051.84 335.57 1052.9 335.594 L1083.8 335.594 Q1085.31 335.594 1085.34 336.187 Q1085.34 336.755 1084.05 336.755 L1052.85 336.755 Q1051.84 336.755 1051.84 336.187 Z"
     fill="#000000"
     fill-rule="evenodd"
     fill-opacity="1"
     id="path431" />
  <path
     clip-path="url(#clip640)"
     d="M1089.71 345.402 L1089.71 343.845 L1105.25 320.105 Q1105.64 319.488 1106.26 319.512 Q1106.83 319.512 1106.95 319.735 Q1107.07 319.957 1107.07 320.822 L1107.07 343.845 L1112.14 343.845 L1112.14 345.402 L1107.07 345.402 L1107.07 349.799 Q1107.07 351.256 1107.67 351.726 Q1108.29 352.195 1110.9 352.195 L1111.97 352.195 L1111.97 353.751 Q1109.89 353.603 1105.1 353.603 Q1100.33 353.603 1098.26 353.751 L1098.26 352.195 L1099.32 352.195 Q1101.94 352.195 1102.55 351.75 Q1103.17 351.281 1103.17 349.799 L1103.17 345.402 L1089.71 345.402 M1091.14 343.845 L1103.47 343.845 L1103.47 324.972 L1091.14 343.845 Z"
     fill="#000000"
     fill-rule="evenodd"
     fill-opacity="1"
     id="path433" />
  <polyline
     clip-path="url(#clip640)"
     style="stroke:#1abc9c; stroke-linecap:round; stroke-linejoin:round; stroke-width:16; stroke-opacity:1; fill:none"
     points="   951.436,388.311 1012.36,388.311    "
     id="polyline435" />
  <circle
     clip-path="url(#clip640)"
     cx="981.89899"
     cy="388.311"
     r="8.4618196"
     fill="#1abc9c"
     fill-rule="evenodd"
     fill-opacity="1"
     stroke="#ffffff"
     stroke-opacity="1"
     stroke-width="1.09714"
     id="circle437"
     transform="matrix(2,0,0,2,-981.89899,-388.311)" />
  <path
     clip-path="url(#clip640)"
     d="M1022.52 405.591 L1022.52 404.035 Q1025.21 404.035 1025.83 403.714 Q1026.44 403.368 1026.44 401.738 L1026.44 388.175 Q1026.44 386.298 1025.78 385.829 Q1025.13 385.359 1022.52 385.359 L1022.52 383.778 L1029.63 383.235 L1029.63 388.546 Q1032 383.235 1037.12 383.235 Q1040.92 383.235 1042.43 385.112 Q1043.54 386.372 1043.76 387.78 Q1044.01 389.188 1044.01 392.844 L1044.01 402.503 Q1044.06 403.566 1044.87 403.813 Q1045.69 404.035 1047.96 404.035 L1047.96 405.591 Q1042.8 405.443 1042.28 405.443 Q1041.88 405.443 1036.57 405.591 L1036.57 404.035 Q1039.26 404.035 1039.88 403.714 Q1040.52 403.368 1040.52 401.738 L1040.52 389.954 Q1040.52 387.385 1039.73 385.878 Q1038.94 384.346 1036.77 384.346 Q1034.15 384.346 1032.05 386.545 Q1029.95 388.744 1029.95 392.449 L1029.95 401.738 Q1029.95 403.368 1030.57 403.714 Q1031.21 404.035 1033.88 404.035 L1033.88 405.591 Q1028.72 405.443 1028.22 405.443 Q1027.83 405.443 1022.52 405.591 Z"
     fill="#000000"
     fill-rule="evenodd"
     fill-opacity="1"
     id="path439" />
  <path
     clip-path="url(#clip640)"
     d="M1051.84 397.909 Q1051.89 397.291 1052.85 397.291 L1083.85 397.291 Q1085.31 397.291 1085.34 397.859 Q1085.34 398.477 1083.95 398.452 L1053.2 398.452 Q1051.84 398.477 1051.84 397.909 M1051.84 388.027 Q1051.84 387.41 1052.9 387.434 L1083.8 387.434 Q1085.31 387.434 1085.34 388.027 Q1085.34 388.595 1084.05 388.595 L1052.85 388.595 Q1051.84 388.595 1051.84 388.027 Z"
     fill="#000000"
     fill-rule="evenodd"
     fill-opacity="1"
     id="path441" />
  <path
     clip-path="url(#clip640)"
     d="M1090.42 397.958 Q1090.42 392.301 1097.71 388.645 Q1094.58 386.52 1094.01 385.903 Q1091.78 383.432 1091.78 380.344 Q1091.78 376.812 1094.45 374.366 Q1097.14 371.896 1100.95 371.896 Q1104.58 371.896 1107.32 373.996 Q1110.06 376.096 1110.06 379.43 Q1110.06 384.124 1103.94 387.286 Q1107.99 389.806 1108.95 390.868 Q1111.42 393.61 1111.42 397.093 Q1111.42 401.145 1108.31 403.936 Q1105.2 406.703 1100.9 406.703 Q1096.7 406.703 1093.56 404.257 Q1090.42 401.812 1090.42 397.958 M1092.94 397.958 Q1092.94 401.095 1095.29 403.195 Q1097.66 405.295 1100.95 405.295 Q1104.14 405.295 1106.51 403.467 Q1108.9 401.639 1108.9 398.921 Q1108.9 397.859 1108.53 396.945 Q1108.19 396.031 1107.47 395.315 Q1106.78 394.574 1106.33 394.252 Q1105.91 393.907 1105.1 393.338 L1098.87 389.411 Q1092.94 392.696 1092.94 397.958 M1094.01 378.368 Q1094.01 380.789 1096.55 382.469 L1102.83 386.52 Q1107.84 383.581 1107.84 379.43 Q1107.84 376.738 1105.79 374.959 Q1103.74 373.156 1100.9 373.156 Q1098.11 373.156 1096.06 374.638 Q1094.01 376.096 1094.01 378.368 Z"
     fill="#000000"
     fill-rule="evenodd"
     fill-opacity="1"
     id="path443" />
</svg>
