<?xml version="1.0" encoding="UTF-8" standalone="no"?>
<svg
   width="300"
   height="300"
   viewBox="0 0 1200 1200"
   version="1.1"
   id="svg229"
   sodipodi:docname="BBGranularityCost.svg"
   inkscape:version="1.1.2 (0a00cf5339, 2022-02-04)"
   xmlns:inkscape="http://www.inkscape.org/namespaces/inkscape"
   xmlns:sodipodi="http://sodipodi.sourceforge.net/DTD/sodipodi-0.dtd"
   xmlns="http://www.w3.org/2000/svg"
   xmlns:svg="http://www.w3.org/2000/svg">
  <sodipodi:namedview
     id="namedview231"
     pagecolor="#ffffff"
     bordercolor="#000000"
     borderopacity="0.25"
     inkscape:pageshadow="2"
     inkscape:pageopacity="0.0"
     inkscape:pagecheckerboard="0"
     showgrid="false"
     inkscape:zoom="3.3893985"
     inkscape:cx="135.42226"
     inkscape:cy="101.05038"
     inkscape:window-width="2560"
     inkscape:window-height="1376"
     inkscape:window-x="0"
     inkscape:window-y="0"
     inkscape:window-maximized="1"
     inkscape:current-layer="svg229" />
  <defs
     id="defs5">
    <clipPath
       id="clip480">
      <rect
         x="0"
         y="0"
         width="1200"
         height="1200"
         id="rect2" />
    </clipPath>
  </defs>
  <path
     clip-path="url(#clip480)"
     d=" M0 1200 L1200 1200 L1200 0 L0 0  Z   "
     fill="#ffffff"
     fill-rule="evenodd"
     fill-opacity="1"
     id="path7" />
  <defs
     id="defs12">
    <clipPath
       id="clip481">
      <rect
         x="240"
         y="120"
         width="841"
         height="841"
         id="rect9" />
    </clipPath>
  </defs>
  <path
     clip-path="url(#clip480)"
     d=" M231.495 970.392 L1137.01 970.392 L1137.01 62.9921 L231.495 62.9921  Z   "
     fill="#ffffff"
     fill-rule="evenodd"
     fill-opacity="1"
     id="path14" />
  <defs
     id="defs19">
    <clipPath
       id="clip482">
      <rect
         x="231"
         y="62"
         width="907"
         height="908"
         id="rect16" />
    </clipPath>
  </defs>
  <polyline
     clip-path="url(#clip482)"
     style="stroke:#000000; stroke-linecap:round; stroke-linejoin:round; stroke-width:2; stroke-opacity:0.1; fill:none"
     points="   1111.38,970.392 1111.38,62.9921    "
     id="polyline21" />
  <polyline
     clip-path="url(#clip482)"
     style="stroke:#000000; stroke-linecap:round; stroke-linejoin:round; stroke-width:2; stroke-opacity:0.1; fill:none"
     points="   940.529,970.392 940.529,62.9921    "
     id="polyline23" />
  <polyline
     clip-path="url(#clip482)"
     style="stroke:#000000; stroke-linecap:round; stroke-linejoin:round; stroke-width:2; stroke-opacity:0.1; fill:none"
     points="   769.677,970.392 769.677,62.9921    "
     id="polyline25" />
  <polyline
     clip-path="url(#clip482)"
     style="stroke:#000000; stroke-linecap:round; stroke-linejoin:round; stroke-width:2; stroke-opacity:0.1; fill:none"
     points="   598.826,970.392 598.826,62.9921    "
     id="polyline27" />
  <polyline
     clip-path="url(#clip482)"
     style="stroke:#000000; stroke-linecap:round; stroke-linejoin:round; stroke-width:2; stroke-opacity:0.1; fill:none"
     points="   427.974,970.392 427.974,62.9921    "
     id="polyline29" />
  <polyline
     clip-path="url(#clip482)"
     style="stroke:#000000; stroke-linecap:round; stroke-linejoin:round; stroke-width:2; stroke-opacity:0.1; fill:none"
     points="   257.122,970.392 257.122,62.9921    "
     id="polyline31" />
  <polyline
     clip-path="url(#clip480)"
     style="stroke:#000000; stroke-linecap:round; stroke-linejoin:round; stroke-width:4; stroke-opacity:1; fill:none"
     points="   1137.01,970.392 231.495,970.392    "
     id="polyline33" />
  <polyline
     clip-path="url(#clip480)"
     style="stroke:#000000; stroke-linecap:round; stroke-linejoin:round; stroke-width:4; stroke-opacity:1; fill:none"
     points="   1111.38,970.392 1111.38,951.494    "
     id="polyline35" />
  <polyline
     clip-path="url(#clip480)"
     style="stroke:#000000; stroke-linecap:round; stroke-linejoin:round; stroke-width:4; stroke-opacity:1; fill:none"
     points="   940.529,970.392 940.529,951.494    "
     id="polyline37" />
  <polyline
     clip-path="url(#clip480)"
     style="stroke:#000000; stroke-linecap:round; stroke-linejoin:round; stroke-width:4; stroke-opacity:1; fill:none"
     points="   769.677,970.392 769.677,951.494    "
     id="polyline39" />
  <polyline
     clip-path="url(#clip480)"
     style="stroke:#000000; stroke-linecap:round; stroke-linejoin:round; stroke-width:4; stroke-opacity:1; fill:none"
     points="   598.826,970.392 598.826,951.494    "
     id="polyline41" />
  <polyline
     clip-path="url(#clip480)"
     style="stroke:#000000; stroke-linecap:round; stroke-linejoin:round; stroke-width:4; stroke-opacity:1; fill:none"
     points="   427.974,970.392 427.974,951.494    "
     id="polyline43" />
  <polyline
     clip-path="url(#clip480)"
     style="stroke:#000000; stroke-linecap:round; stroke-linejoin:round; stroke-width:4; stroke-opacity:1; fill:none"
     points="   257.122,970.392 257.122,951.494    "
     id="polyline45" />
  <path
     clip-path="url(#clip480)"
     d="M1059.1 991.71 Q1055.49 991.71 1053.66 995.275 Q1051.86 998.817 1051.86 1005.95 Q1051.86 1013.05 1053.66 1016.62 Q1055.49 1020.16 1059.1 1020.16 Q1062.73 1020.16 1064.54 1016.62 Q1066.37 1013.05 1066.37 1005.95 Q1066.37 998.817 1064.54 995.275 Q1062.73 991.71 1059.1 991.71 M1059.1 988.007 Q1064.91 988.007 1067.97 992.613 Q1071.04 997.197 1071.04 1005.95 Q1071.04 1014.67 1067.97 1019.28 Q1064.91 1023.86 1059.1 1023.86 Q1053.29 1023.86 1050.21 1019.28 Q1047.16 1014.67 1047.16 1005.95 Q1047.16 997.197 1050.21 992.613 Q1053.29 988.007 1059.1 988.007 Z"
     fill="#000000"
     fill-rule="evenodd"
     fill-opacity="1"
     id="path47" />
  <path
     clip-path="url(#clip480)"
     d="M1079.26 1017.31 L1084.15 1017.31 L1084.15 1023.19 L1079.26 1023.19 L1079.26 1017.31 Z"
     fill="#000000"
     fill-rule="evenodd"
     fill-opacity="1"
     id="path49" />
  <path
     clip-path="url(#clip480)"
     d="M1104.33 991.71 Q1100.72 991.71 1098.89 995.275 Q1097.09 998.817 1097.09 1005.95 Q1097.09 1013.05 1098.89 1016.62 Q1100.72 1020.16 1104.33 1020.16 Q1107.97 1020.16 1109.77 1016.62 Q1111.6 1013.05 1111.6 1005.95 Q1111.6 998.817 1109.77 995.275 Q1107.97 991.71 1104.33 991.71 M1104.33 988.007 Q1110.14 988.007 1113.2 992.613 Q1116.28 997.197 1116.28 1005.95 Q1116.28 1014.67 1113.2 1019.28 Q1110.14 1023.86 1104.33 1023.86 Q1098.52 1023.86 1095.44 1019.28 Q1092.39 1014.67 1092.39 1005.95 Q1092.39 997.197 1095.44 992.613 Q1098.52 988.007 1104.33 988.007 Z"
     fill="#000000"
     fill-rule="evenodd"
     fill-opacity="1"
     id="path51" />
  <path
     clip-path="url(#clip480)"
     d="M1134.49 991.71 Q1130.88 991.71 1129.05 995.275 Q1127.25 998.817 1127.25 1005.95 Q1127.25 1013.05 1129.05 1016.62 Q1130.88 1020.16 1134.49 1020.16 Q1138.13 1020.16 1139.93 1016.62 Q1141.76 1013.05 1141.76 1005.95 Q1141.76 998.817 1139.93 995.275 Q1138.13 991.71 1134.49 991.71 M1134.49 988.007 Q1140.3 988.007 1143.36 992.613 Q1146.44 997.197 1146.44 1005.95 Q1146.44 1014.67 1143.36 1019.28 Q1140.3 1023.86 1134.49 1023.86 Q1128.68 1023.86 1125.6 1019.28 Q1122.55 1014.67 1122.55 1005.95 Q1122.55 997.197 1125.6 992.613 Q1128.68 988.007 1134.49 988.007 Z"
     fill="#000000"
     fill-rule="evenodd"
     fill-opacity="1"
     id="path53" />
  <path
     clip-path="url(#clip480)"
     d="M1154.7 988.632 L1173.06 988.632 L1173.06 992.567 L1158.98 992.567 L1158.98 1001.04 Q1160 1000.69 1161.02 1000.53 Q1162.04 1000.34 1163.06 1000.34 Q1168.85 1000.34 1172.22 1003.52 Q1175.6 1006.69 1175.6 1012.1 Q1175.6 1017.68 1172.13 1020.78 Q1168.66 1023.86 1162.34 1023.86 Q1160.16 1023.86 1157.9 1023.49 Q1155.65 1023.12 1153.24 1022.38 L1153.24 1017.68 Q1155.33 1018.82 1157.55 1019.37 Q1159.77 1019.93 1162.25 1019.93 Q1166.25 1019.93 1168.59 1017.82 Q1170.93 1015.71 1170.93 1012.1 Q1170.93 1008.49 1168.59 1006.39 Q1166.25 1004.28 1162.25 1004.28 Q1160.37 1004.28 1158.5 1004.7 Q1156.65 1005.11 1154.7 1005.99 L1154.7 988.632 Z"
     fill="#000000"
     fill-rule="evenodd"
     fill-opacity="1"
     id="path55" />
  <path
     clip-path="url(#clip480)"
     d="M887.751 991.71 Q884.14 991.71 882.311 995.275 Q880.506 998.817 880.506 1005.95 Q880.506 1013.05 882.311 1016.62 Q884.14 1020.16 887.751 1020.16 Q891.385 1020.16 893.191 1016.62 Q895.02 1013.05 895.02 1005.95 Q895.02 998.817 893.191 995.275 Q891.385 991.71 887.751 991.71 M887.751 988.007 Q893.561 988.007 896.617 992.613 Q899.695 997.197 899.695 1005.95 Q899.695 1014.67 896.617 1019.28 Q893.561 1023.86 887.751 1023.86 Q881.941 1023.86 878.862 1019.28 Q875.807 1014.67 875.807 1005.95 Q875.807 997.197 878.862 992.613 Q881.941 988.007 887.751 988.007 Z"
     fill="#000000"
     fill-rule="evenodd"
     fill-opacity="1"
     id="path57" />
  <path
     clip-path="url(#clip480)"
     d="M907.913 1017.31 L912.797 1017.31 L912.797 1023.19 L907.913 1023.19 L907.913 1017.31 Z"
     fill="#000000"
     fill-rule="evenodd"
     fill-opacity="1"
     id="path59" />
  <path
     clip-path="url(#clip480)"
     d="M932.982 991.71 Q929.371 991.71 927.543 995.275 Q925.737 998.817 925.737 1005.95 Q925.737 1013.05 927.543 1016.62 Q929.371 1020.16 932.982 1020.16 Q936.617 1020.16 938.422 1016.62 Q940.251 1013.05 940.251 1005.95 Q940.251 998.817 938.422 995.275 Q936.617 991.71 932.982 991.71 M932.982 988.007 Q938.793 988.007 941.848 992.613 Q944.927 997.197 944.927 1005.95 Q944.927 1014.67 941.848 1019.28 Q938.793 1023.86 932.982 1023.86 Q927.172 1023.86 924.094 1019.28 Q921.038 1014.67 921.038 1005.95 Q921.038 997.197 924.094 992.613 Q927.172 988.007 932.982 988.007 Z"
     fill="#000000"
     fill-rule="evenodd"
     fill-opacity="1"
     id="path61" />
  <path
     clip-path="url(#clip480)"
     d="M953.954 1019.26 L961.593 1019.26 L961.593 992.891 L953.283 994.558 L953.283 990.298 L961.547 988.632 L966.223 988.632 L966.223 1019.26 L973.862 1019.26 L973.862 1023.19 L953.954 1023.19 L953.954 1019.26 Z"
     fill="#000000"
     fill-rule="evenodd"
     fill-opacity="1"
     id="path63" />
  <path
     clip-path="url(#clip480)"
     d="M993.306 991.71 Q989.695 991.71 987.866 995.275 Q986.061 998.817 986.061 1005.95 Q986.061 1013.05 987.866 1016.62 Q989.695 1020.16 993.306 1020.16 Q996.94 1020.16 998.746 1016.62 Q1000.57 1013.05 1000.57 1005.95 Q1000.57 998.817 998.746 995.275 Q996.94 991.71 993.306 991.71 M993.306 988.007 Q999.116 988.007 1002.17 992.613 Q1005.25 997.197 1005.25 1005.95 Q1005.25 1014.67 1002.17 1019.28 Q999.116 1023.86 993.306 1023.86 Q987.496 1023.86 984.417 1019.28 Q981.362 1014.67 981.362 1005.95 Q981.362 997.197 984.417 992.613 Q987.496 988.007 993.306 988.007 Z"
     fill="#000000"
     fill-rule="evenodd"
     fill-opacity="1"
     id="path65" />
  <path
     clip-path="url(#clip480)"
     d="M717.397 991.71 Q713.786 991.71 711.957 995.275 Q710.152 998.817 710.152 1005.95 Q710.152 1013.05 711.957 1016.62 Q713.786 1020.16 717.397 1020.16 Q721.032 1020.16 722.837 1016.62 Q724.666 1013.05 724.666 1005.95 Q724.666 998.817 722.837 995.275 Q721.032 991.71 717.397 991.71 M717.397 988.007 Q723.207 988.007 726.263 992.613 Q729.342 997.197 729.342 1005.95 Q729.342 1014.67 726.263 1019.28 Q723.207 1023.86 717.397 1023.86 Q711.587 1023.86 708.508 1019.28 Q705.453 1014.67 705.453 1005.95 Q705.453 997.197 708.508 992.613 Q711.587 988.007 717.397 988.007 Z"
     fill="#000000"
     fill-rule="evenodd"
     fill-opacity="1"
     id="path67" />
  <path
     clip-path="url(#clip480)"
     d="M737.559 1017.31 L742.443 1017.31 L742.443 1023.19 L737.559 1023.19 L737.559 1017.31 Z"
     fill="#000000"
     fill-rule="evenodd"
     fill-opacity="1"
     id="path69" />
  <path
     clip-path="url(#clip480)"
     d="M762.629 991.71 Q759.017 991.71 757.189 995.275 Q755.383 998.817 755.383 1005.95 Q755.383 1013.05 757.189 1016.62 Q759.017 1020.16 762.629 1020.16 Q766.263 1020.16 768.068 1016.62 Q769.897 1013.05 769.897 1005.95 Q769.897 998.817 768.068 995.275 Q766.263 991.71 762.629 991.71 M762.629 988.007 Q768.439 988.007 771.494 992.613 Q774.573 997.197 774.573 1005.95 Q774.573 1014.67 771.494 1019.28 Q768.439 1023.86 762.629 1023.86 Q756.818 1023.86 753.74 1019.28 Q750.684 1014.67 750.684 1005.95 Q750.684 997.197 753.74 992.613 Q756.818 988.007 762.629 988.007 Z"
     fill="#000000"
     fill-rule="evenodd"
     fill-opacity="1"
     id="path71" />
  <path
     clip-path="url(#clip480)"
     d="M783.601 1019.26 L791.239 1019.26 L791.239 992.891 L782.929 994.558 L782.929 990.298 L791.193 988.632 L795.869 988.632 L795.869 1019.26 L803.508 1019.26 L803.508 1023.19 L783.601 1023.19 L783.601 1019.26 Z"
     fill="#000000"
     fill-rule="evenodd"
     fill-opacity="1"
     id="path73" />
  <path
     clip-path="url(#clip480)"
     d="M812.999 988.632 L831.355 988.632 L831.355 992.567 L817.281 992.567 L817.281 1001.04 Q818.3 1000.69 819.318 1000.53 Q820.337 1000.34 821.355 1000.34 Q827.142 1000.34 830.522 1003.52 Q833.901 1006.69 833.901 1012.1 Q833.901 1017.68 830.429 1020.78 Q826.957 1023.86 820.637 1023.86 Q818.462 1023.86 816.193 1023.49 Q813.948 1023.12 811.54 1022.38 L811.54 1017.68 Q813.624 1018.82 815.846 1019.37 Q818.068 1019.93 820.545 1019.93 Q824.549 1019.93 826.887 1017.82 Q829.225 1015.71 829.225 1012.1 Q829.225 1008.49 826.887 1006.39 Q824.549 1004.28 820.545 1004.28 Q818.67 1004.28 816.795 1004.7 Q814.943 1005.11 812.999 1005.99 L812.999 988.632 Z"
     fill="#000000"
     fill-rule="evenodd"
     fill-opacity="1"
     id="path75" />
  <path
     clip-path="url(#clip480)"
     d="M546.048 991.71 Q542.437 991.71 540.608 995.275 Q538.803 998.817 538.803 1005.95 Q538.803 1013.05 540.608 1016.62 Q542.437 1020.16 546.048 1020.16 Q549.682 1020.16 551.488 1016.62 Q553.317 1013.05 553.317 1005.95 Q553.317 998.817 551.488 995.275 Q549.682 991.71 546.048 991.71 M546.048 988.007 Q551.858 988.007 554.914 992.613 Q557.992 997.197 557.992 1005.95 Q557.992 1014.67 554.914 1019.28 Q551.858 1023.86 546.048 1023.86 Q540.238 1023.86 537.159 1019.28 Q534.104 1014.67 534.104 1005.95 Q534.104 997.197 537.159 992.613 Q540.238 988.007 546.048 988.007 Z"
     fill="#000000"
     fill-rule="evenodd"
     fill-opacity="1"
     id="path77" />
  <path
     clip-path="url(#clip480)"
     d="M566.21 1017.31 L571.094 1017.31 L571.094 1023.19 L566.21 1023.19 L566.21 1017.31 Z"
     fill="#000000"
     fill-rule="evenodd"
     fill-opacity="1"
     id="path79" />
  <path
     clip-path="url(#clip480)"
     d="M591.279 991.71 Q587.668 991.71 585.84 995.275 Q584.034 998.817 584.034 1005.95 Q584.034 1013.05 585.84 1016.62 Q587.668 1020.16 591.279 1020.16 Q594.914 1020.16 596.719 1016.62 Q598.548 1013.05 598.548 1005.95 Q598.548 998.817 596.719 995.275 Q594.914 991.71 591.279 991.71 M591.279 988.007 Q597.089 988.007 600.145 992.613 Q603.224 997.197 603.224 1005.95 Q603.224 1014.67 600.145 1019.28 Q597.089 1023.86 591.279 1023.86 Q585.469 1023.86 582.39 1019.28 Q579.335 1014.67 579.335 1005.95 Q579.335 997.197 582.39 992.613 Q585.469 988.007 591.279 988.007 Z"
     fill="#000000"
     fill-rule="evenodd"
     fill-opacity="1"
     id="path81" />
  <path
     clip-path="url(#clip480)"
     d="M615.469 1019.26 L631.788 1019.26 L631.788 1023.19 L609.844 1023.19 L609.844 1019.26 Q612.506 1016.5 617.089 1011.87 Q621.696 1007.22 622.876 1005.88 Q625.122 1003.35 626.001 1001.62 Q626.904 999.859 626.904 998.169 Q626.904 995.414 624.96 993.678 Q623.038 991.942 619.937 991.942 Q617.737 991.942 615.284 992.706 Q612.853 993.47 610.075 995.021 L610.075 990.298 Q612.9 989.164 615.353 988.586 Q617.807 988.007 619.844 988.007 Q625.214 988.007 628.409 990.692 Q631.603 993.377 631.603 997.868 Q631.603 999.997 630.793 1001.92 Q630.006 1003.82 627.899 1006.41 Q627.321 1007.08 624.219 1010.3 Q621.117 1013.49 615.469 1019.26 Z"
     fill="#000000"
     fill-rule="evenodd"
     fill-opacity="1"
     id="path83" />
  <path
     clip-path="url(#clip480)"
     d="M651.603 991.71 Q647.992 991.71 646.163 995.275 Q644.358 998.817 644.358 1005.95 Q644.358 1013.05 646.163 1016.62 Q647.992 1020.16 651.603 1020.16 Q655.237 1020.16 657.043 1016.62 Q658.872 1013.05 658.872 1005.95 Q658.872 998.817 657.043 995.275 Q655.237 991.71 651.603 991.71 M651.603 988.007 Q657.413 988.007 660.469 992.613 Q663.547 997.197 663.547 1005.95 Q663.547 1014.67 660.469 1019.28 Q657.413 1023.86 651.603 1023.86 Q645.793 1023.86 642.714 1019.28 Q639.659 1014.67 639.659 1005.95 Q639.659 997.197 642.714 992.613 Q645.793 988.007 651.603 988.007 Z"
     fill="#000000"
     fill-rule="evenodd"
     fill-opacity="1"
     id="path85" />
  <path
     clip-path="url(#clip480)"
     d="M375.694 991.71 Q372.083 991.71 370.254 995.275 Q368.449 998.817 368.449 1005.95 Q368.449 1013.05 370.254 1016.62 Q372.083 1020.16 375.694 1020.16 Q379.328 1020.16 381.134 1016.62 Q382.963 1013.05 382.963 1005.95 Q382.963 998.817 381.134 995.275 Q379.328 991.71 375.694 991.71 M375.694 988.007 Q381.504 988.007 384.56 992.613 Q387.639 997.197 387.639 1005.95 Q387.639 1014.67 384.56 1019.28 Q381.504 1023.86 375.694 1023.86 Q369.884 1023.86 366.805 1019.28 Q363.75 1014.67 363.75 1005.95 Q363.75 997.197 366.805 992.613 Q369.884 988.007 375.694 988.007 Z"
     fill="#000000"
     fill-rule="evenodd"
     fill-opacity="1"
     id="path87" />
  <path
     clip-path="url(#clip480)"
     d="M395.856 1017.31 L400.74 1017.31 L400.74 1023.19 L395.856 1023.19 L395.856 1017.31 Z"
     fill="#000000"
     fill-rule="evenodd"
     fill-opacity="1"
     id="path89" />
  <path
     clip-path="url(#clip480)"
     d="M420.925 991.71 Q417.314 991.71 415.486 995.275 Q413.68 998.817 413.68 1005.95 Q413.68 1013.05 415.486 1016.62 Q417.314 1020.16 420.925 1020.16 Q424.56 1020.16 426.365 1016.62 Q428.194 1013.05 428.194 1005.95 Q428.194 998.817 426.365 995.275 Q424.56 991.71 420.925 991.71 M420.925 988.007 Q426.736 988.007 429.791 992.613 Q432.87 997.197 432.87 1005.95 Q432.87 1014.67 429.791 1019.28 Q426.736 1023.86 420.925 1023.86 Q415.115 1023.86 412.037 1019.28 Q408.981 1014.67 408.981 1005.95 Q408.981 997.197 412.037 992.613 Q415.115 988.007 420.925 988.007 Z"
     fill="#000000"
     fill-rule="evenodd"
     fill-opacity="1"
     id="path91" />
  <path
     clip-path="url(#clip480)"
     d="M445.115 1019.26 L461.434 1019.26 L461.434 1023.19 L439.49 1023.19 L439.49 1019.26 Q442.152 1016.5 446.735 1011.87 Q451.342 1007.22 452.522 1005.88 Q454.768 1003.35 455.647 1001.62 Q456.55 999.859 456.55 998.169 Q456.55 995.414 454.606 993.678 Q452.685 991.942 449.583 991.942 Q447.384 991.942 444.93 992.706 Q442.499 993.47 439.722 995.021 L439.722 990.298 Q442.546 989.164 444.999 988.586 Q447.453 988.007 449.49 988.007 Q454.86 988.007 458.055 990.692 Q461.249 993.377 461.249 997.868 Q461.249 999.997 460.439 1001.92 Q459.652 1003.82 457.546 1006.41 Q456.967 1007.08 453.865 1010.3 Q450.763 1013.49 445.115 1019.26 Z"
     fill="#000000"
     fill-rule="evenodd"
     fill-opacity="1"
     id="path93" />
  <path
     clip-path="url(#clip480)"
     d="M471.296 988.632 L489.652 988.632 L489.652 992.567 L475.578 992.567 L475.578 1001.04 Q476.596 1000.69 477.615 1000.53 Q478.633 1000.34 479.652 1000.34 Q485.439 1000.34 488.819 1003.52 Q492.198 1006.69 492.198 1012.1 Q492.198 1017.68 488.726 1020.78 Q485.254 1023.86 478.934 1023.86 Q476.758 1023.86 474.49 1023.49 Q472.245 1023.12 469.837 1022.38 L469.837 1017.68 Q471.921 1018.82 474.143 1019.37 Q476.365 1019.93 478.842 1019.93 Q482.846 1019.93 485.184 1017.82 Q487.522 1015.71 487.522 1012.1 Q487.522 1008.49 485.184 1006.39 Q482.846 1004.28 478.842 1004.28 Q476.967 1004.28 475.092 1004.7 Q473.24 1005.11 471.296 1005.99 L471.296 988.632 Z"
     fill="#000000"
     fill-rule="evenodd"
     fill-opacity="1"
     id="path95" />
  <path
     clip-path="url(#clip480)"
     d="M204.345 991.71 Q200.734 991.71 198.905 995.275 Q197.1 998.817 197.1 1005.95 Q197.1 1013.05 198.905 1016.62 Q200.734 1020.16 204.345 1020.16 Q207.979 1020.16 209.785 1016.62 Q211.613 1013.05 211.613 1005.95 Q211.613 998.817 209.785 995.275 Q207.979 991.71 204.345 991.71 M204.345 988.007 Q210.155 988.007 213.211 992.613 Q216.289 997.197 216.289 1005.95 Q216.289 1014.67 213.211 1019.28 Q210.155 1023.86 204.345 1023.86 Q198.535 1023.86 195.456 1019.28 Q192.401 1014.67 192.401 1005.95 Q192.401 997.197 195.456 992.613 Q198.535 988.007 204.345 988.007 Z"
     fill="#000000"
     fill-rule="evenodd"
     fill-opacity="1"
     id="path97" />
  <path
     clip-path="url(#clip480)"
     d="M224.507 1017.31 L229.391 1017.31 L229.391 1023.19 L224.507 1023.19 L224.507 1017.31 Z"
     fill="#000000"
     fill-rule="evenodd"
     fill-opacity="1"
     id="path99" />
  <path
     clip-path="url(#clip480)"
     d="M249.576 991.71 Q245.965 991.71 244.136 995.275 Q242.331 998.817 242.331 1005.95 Q242.331 1013.05 244.136 1016.62 Q245.965 1020.16 249.576 1020.16 Q253.21 1020.16 255.016 1016.62 Q256.845 1013.05 256.845 1005.95 Q256.845 998.817 255.016 995.275 Q253.21 991.71 249.576 991.71 M249.576 988.007 Q255.386 988.007 258.442 992.613 Q261.521 997.197 261.521 1005.95 Q261.521 1014.67 258.442 1019.28 Q255.386 1023.86 249.576 1023.86 Q243.766 1023.86 240.687 1019.28 Q237.632 1014.67 237.632 1005.95 Q237.632 997.197 240.687 992.613 Q243.766 988.007 249.576 988.007 Z"
     fill="#000000"
     fill-rule="evenodd"
     fill-opacity="1"
     id="path101" />
  <path
     clip-path="url(#clip480)"
     d="M283.905 1004.56 Q287.261 1005.28 289.136 1007.54 Q291.034 1009.81 291.034 1013.15 Q291.034 1018.26 287.516 1021.06 Q283.997 1023.86 277.516 1023.86 Q275.34 1023.86 273.025 1023.42 Q270.734 1023.01 268.28 1022.15 L268.28 1017.64 Q270.224 1018.77 272.539 1019.35 Q274.854 1019.93 277.377 1019.93 Q281.775 1019.93 284.067 1018.19 Q286.382 1016.46 286.382 1013.15 Q286.382 1010.09 284.229 1008.38 Q282.099 1006.64 278.28 1006.64 L274.252 1006.64 L274.252 1002.8 L278.465 1002.8 Q281.914 1002.8 283.743 1001.43 Q285.571 1000.04 285.571 997.451 Q285.571 994.789 283.673 993.377 Q281.798 991.942 278.28 991.942 Q276.358 991.942 274.159 992.359 Q271.96 992.775 269.321 993.655 L269.321 989.488 Q271.984 988.748 274.298 988.377 Q276.636 988.007 278.696 988.007 Q284.02 988.007 287.122 990.437 Q290.224 992.845 290.224 996.965 Q290.224 999.835 288.581 1001.83 Q286.937 1003.79 283.905 1004.56 Z"
     fill="#000000"
     fill-rule="evenodd"
     fill-opacity="1"
     id="path103" />
  <path
     clip-path="url(#clip480)"
     d="M309.9 991.71 Q306.289 991.71 304.46 995.275 Q302.655 998.817 302.655 1005.95 Q302.655 1013.05 304.46 1016.62 Q306.289 1020.16 309.9 1020.16 Q313.534 1020.16 315.34 1016.62 Q317.168 1013.05 317.168 1005.95 Q317.168 998.817 315.34 995.275 Q313.534 991.71 309.9 991.71 M309.9 988.007 Q315.71 988.007 318.766 992.613 Q321.844 997.197 321.844 1005.95 Q321.844 1014.67 318.766 1019.28 Q315.71 1023.86 309.9 1023.86 Q304.09 1023.86 301.011 1019.28 Q297.956 1014.67 297.956 1005.95 Q297.956 997.197 301.011 992.613 Q304.09 988.007 309.9 988.007 Z"
     fill="#000000"
     fill-rule="evenodd"
     fill-opacity="1"
     id="path105" />
  <path
     clip-path="url(#clip480)"
     d="M696.251 1055.97 Q693.004 1053.75 685.397 1053.75 Q677.345 1053.75 677.345 1057.47 Q677.345 1060.4 685.747 1061.93 Q692.368 1063.1 696.092 1066.67 Q700.611 1070.97 700.611 1079.78 Q700.611 1088.22 696.251 1093.18 Q691.89 1098.18 684.251 1098.18 Q676.644 1098.18 672.252 1093.18 Q667.891 1088.22 667.891 1079.46 Q667.891 1072.97 672.252 1067.72 Q673.939 1065.68 676.326 1064.54 Q671.361 1062.02 671.361 1057.53 Q671.361 1048.88 685.397 1048.88 Q692.431 1048.88 696.251 1051.1 L696.251 1055.97 M680.718 1066.13 Q678.554 1067.05 676.803 1069.37 Q674.066 1072.97 674.066 1079.46 Q674.066 1085.92 676.772 1089.55 Q679.509 1093.21 684.251 1093.21 Q688.93 1093.21 691.667 1089.52 Q694.405 1085.83 694.405 1079.78 Q694.405 1073.45 691.508 1070.39 Q688.421 1067.11 684.41 1066.76 Q682.373 1066.57 680.718 1066.13 Z"
     fill="#000000"
     fill-rule="evenodd"
     fill-opacity="1"
     id="path107" />
  <polyline
     clip-path="url(#clip482)"
     style="stroke:#000000; stroke-linecap:round; stroke-linejoin:round; stroke-width:2; stroke-opacity:0.1; fill:none"
     points="   1137.01,885.373 231.495,885.373    "
     id="polyline109" />
  <polyline
     clip-path="url(#clip482)"
     style="stroke:#000000; stroke-linecap:round; stroke-linejoin:round; stroke-width:2; stroke-opacity:0.1; fill:none"
     points="   1137.01,659.258 231.495,659.258    "
     id="polyline111" />
  <polyline
     clip-path="url(#clip482)"
     style="stroke:#000000; stroke-linecap:round; stroke-linejoin:round; stroke-width:2; stroke-opacity:0.1; fill:none"
     points="   1137.01,433.142 231.495,433.142    "
     id="polyline113" />
  <polyline
     clip-path="url(#clip482)"
     style="stroke:#000000; stroke-linecap:round; stroke-linejoin:round; stroke-width:2; stroke-opacity:0.1; fill:none"
     points="   1137.01,207.027 231.495,207.027    "
     id="polyline115" />
  <polyline
     clip-path="url(#clip480)"
     style="stroke:#000000; stroke-linecap:round; stroke-linejoin:round; stroke-width:4; stroke-opacity:1; fill:none"
     points="   231.495,970.392 231.495,62.9921    "
     id="polyline117" />
  <polyline
     clip-path="url(#clip480)"
     style="stroke:#000000; stroke-linecap:round; stroke-linejoin:round; stroke-width:4; stroke-opacity:1; fill:none"
     points="   231.495,885.373 250.392,885.373    "
     id="polyline119" />
  <polyline
     clip-path="url(#clip480)"
     style="stroke:#000000; stroke-linecap:round; stroke-linejoin:round; stroke-width:4; stroke-opacity:1; fill:none"
     points="   231.495,659.258 250.392,659.258    "
     id="polyline121" />
  <polyline
     clip-path="url(#clip480)"
     style="stroke:#000000; stroke-linecap:round; stroke-linejoin:round; stroke-width:4; stroke-opacity:1; fill:none"
     points="   231.495,433.142 250.392,433.142    "
     id="polyline123" />
  <polyline
     clip-path="url(#clip480)"
     style="stroke:#000000; stroke-linecap:round; stroke-linejoin:round; stroke-width:4; stroke-opacity:1; fill:none"
     points="   231.495,207.027 250.392,207.027    "
     id="polyline125" />
  <path
     clip-path="url(#clip480)"
     d="M175.393 884.018 Q178.75 884.736 180.625 887.004 Q182.523 889.273 182.523 892.606 Q182.523 897.722 179.004 900.523 Q175.486 903.324 169.004 903.324 Q166.828 903.324 164.514 902.884 Q162.222 902.467 159.768 901.611 L159.768 897.097 Q161.713 898.231 164.027 898.81 Q166.342 899.389 168.865 899.389 Q173.263 899.389 175.555 897.653 Q177.87 895.916 177.87 892.606 Q177.87 889.551 175.717 887.838 Q173.588 886.102 169.768 886.102 L165.74 886.102 L165.74 882.259 L169.953 882.259 Q173.402 882.259 175.231 880.893 Q177.06 879.505 177.06 876.912 Q177.06 874.25 175.162 872.838 Q173.287 871.403 169.768 871.403 Q167.847 871.403 165.648 871.819 Q163.449 872.236 160.81 873.116 L160.81 868.949 Q163.472 868.208 165.787 867.838 Q168.125 867.468 170.185 867.468 Q175.509 867.468 178.611 869.898 Q181.713 872.305 181.713 876.426 Q181.713 879.296 180.069 881.287 Q178.425 883.255 175.393 884.018 Z"
     fill="#000000"
     fill-rule="evenodd"
     fill-opacity="1"
     id="path127" />
  <path
     clip-path="url(#clip480)"
     d="M201.967 883.509 Q198.819 883.509 196.967 885.662 Q195.138 887.815 195.138 891.565 Q195.138 895.291 196.967 897.467 Q198.819 899.62 201.967 899.62 Q205.115 899.62 206.944 897.467 Q208.796 895.291 208.796 891.565 Q208.796 887.815 206.944 885.662 Q205.115 883.509 201.967 883.509 M211.249 868.856 L211.249 873.116 Q209.49 872.282 207.685 871.843 Q205.902 871.403 204.143 871.403 Q199.513 871.403 197.06 874.528 Q194.629 877.653 194.282 883.972 Q195.648 881.958 197.708 880.893 Q199.768 879.805 202.245 879.805 Q207.453 879.805 210.462 882.977 Q213.495 886.125 213.495 891.565 Q213.495 896.889 210.347 900.106 Q207.198 903.324 201.967 903.324 Q195.972 903.324 192.8 898.741 Q189.629 894.134 189.629 885.407 Q189.629 877.213 193.518 872.352 Q197.407 867.468 203.958 867.468 Q205.717 867.468 207.499 867.815 Q209.305 868.162 211.249 868.856 Z"
     fill="#000000"
     fill-rule="evenodd"
     fill-opacity="1"
     id="path129" />
  <path
     clip-path="url(#clip480)"
     d="M176.458 657.903 Q179.814 658.621 181.689 660.889 Q183.588 663.158 183.588 666.491 Q183.588 671.607 180.069 674.408 Q176.551 677.209 170.069 677.209 Q167.893 677.209 165.578 676.769 Q163.287 676.352 160.833 675.496 L160.833 670.982 Q162.777 672.116 165.092 672.695 Q167.407 673.274 169.93 673.274 Q174.328 673.274 176.62 671.538 Q178.935 669.801 178.935 666.491 Q178.935 663.436 176.782 661.723 Q174.652 659.987 170.833 659.987 L166.805 659.987 L166.805 656.144 L171.018 656.144 Q174.467 656.144 176.296 654.778 Q178.125 653.389 178.125 650.797 Q178.125 648.135 176.226 646.723 Q174.351 645.288 170.833 645.288 Q168.912 645.288 166.713 645.704 Q164.514 646.121 161.875 647.001 L161.875 642.834 Q164.537 642.093 166.851 641.723 Q169.189 641.353 171.25 641.353 Q176.574 641.353 179.675 643.783 Q182.777 646.19 182.777 650.311 Q182.777 653.181 181.134 655.172 Q179.49 657.139 176.458 657.903 Z"
     fill="#000000"
     fill-rule="evenodd"
     fill-opacity="1"
     id="path131" />
  <path
     clip-path="url(#clip480)"
     d="M191.273 641.978 L213.495 641.978 L213.495 643.968 L200.949 676.538 L196.064 676.538 L207.87 645.913 L191.273 645.913 L191.273 641.978 Z"
     fill="#000000"
     fill-rule="evenodd"
     fill-opacity="1"
     id="path133" />
  <path
     clip-path="url(#clip480)"
     d="M175.648 431.788 Q179.004 432.506 180.879 434.774 Q182.777 437.043 182.777 440.376 Q182.777 445.492 179.259 448.293 Q175.74 451.094 169.259 451.094 Q167.083 451.094 164.768 450.654 Q162.477 450.237 160.023 449.381 L160.023 444.867 Q161.967 446.001 164.282 446.58 Q166.597 447.159 169.12 447.159 Q173.518 447.159 175.81 445.422 Q178.125 443.686 178.125 440.376 Q178.125 437.321 175.972 435.608 Q173.842 433.872 170.023 433.872 L165.995 433.872 L165.995 430.029 L170.208 430.029 Q173.657 430.029 175.486 428.663 Q177.314 427.274 177.314 424.682 Q177.314 422.02 175.416 420.608 Q173.541 419.173 170.023 419.173 Q168.101 419.173 165.902 419.589 Q163.703 420.006 161.064 420.886 L161.064 416.719 Q163.727 415.978 166.041 415.608 Q168.379 415.237 170.439 415.237 Q175.763 415.237 178.865 417.668 Q181.967 420.075 181.967 424.196 Q181.967 427.066 180.324 429.057 Q178.68 431.024 175.648 431.788 Z"
     fill="#000000"
     fill-rule="evenodd"
     fill-opacity="1"
     id="path135" />
  <path
     clip-path="url(#clip480)"
     d="M201.643 434.011 Q198.31 434.011 196.388 435.793 Q194.49 437.575 194.49 440.7 Q194.49 443.825 196.388 445.608 Q198.31 447.39 201.643 447.39 Q204.976 447.39 206.898 445.608 Q208.819 443.802 208.819 440.7 Q208.819 437.575 206.898 435.793 Q204.999 434.011 201.643 434.011 M196.967 432.02 Q193.958 431.279 192.268 429.219 Q190.601 427.159 190.601 424.196 Q190.601 420.052 193.541 417.645 Q196.504 415.237 201.643 415.237 Q206.805 415.237 209.745 417.645 Q212.685 420.052 212.685 424.196 Q212.685 427.159 210.995 429.219 Q209.328 431.279 206.342 432.02 Q209.722 432.807 211.597 435.098 Q213.495 437.39 213.495 440.7 Q213.495 445.723 210.416 448.409 Q207.361 451.094 201.643 451.094 Q195.925 451.094 192.847 448.409 Q189.791 445.723 189.791 440.7 Q189.791 437.39 191.689 435.098 Q193.587 432.807 196.967 432.02 M195.254 424.636 Q195.254 427.321 196.921 428.825 Q198.611 430.33 201.643 430.33 Q204.652 430.33 206.342 428.825 Q208.055 427.321 208.055 424.636 Q208.055 421.95 206.342 420.446 Q204.652 418.941 201.643 418.941 Q198.611 418.941 196.921 420.446 Q195.254 421.95 195.254 424.636 Z"
     fill="#000000"
     fill-rule="evenodd"
     fill-opacity="1"
     id="path137" />
  <path
     clip-path="url(#clip480)"
     d="M175.74 205.673 Q179.097 206.391 180.972 208.659 Q182.87 210.928 182.87 214.261 Q182.87 219.377 179.351 222.178 Q175.833 224.979 169.351 224.979 Q167.176 224.979 164.861 224.539 Q162.569 224.122 160.115 223.266 L160.115 218.752 Q162.06 219.886 164.375 220.465 Q166.689 221.044 169.213 221.044 Q173.611 221.044 175.902 219.307 Q178.217 217.571 178.217 214.261 Q178.217 211.206 176.064 209.493 Q173.935 207.757 170.115 207.757 L166.088 207.757 L166.088 203.914 L170.301 203.914 Q173.75 203.914 175.578 202.548 Q177.407 201.159 177.407 198.567 Q177.407 195.905 175.509 194.493 Q173.634 193.058 170.115 193.058 Q168.194 193.058 165.995 193.474 Q163.796 193.891 161.157 194.771 L161.157 190.604 Q163.819 189.863 166.134 189.493 Q168.472 189.122 170.532 189.122 Q175.856 189.122 178.958 191.553 Q182.06 193.96 182.06 198.081 Q182.06 200.951 180.416 202.942 Q178.773 204.909 175.74 205.673 Z"
     fill="#000000"
     fill-rule="evenodd"
     fill-opacity="1"
     id="path139" />
  <path
     clip-path="url(#clip480)"
     d="M191.874 223.59 L191.874 219.331 Q193.634 220.164 195.439 220.604 Q197.245 221.044 198.981 221.044 Q203.611 221.044 206.041 217.942 Q208.495 214.817 208.842 208.474 Q207.499 210.465 205.439 211.53 Q203.379 212.595 200.879 212.595 Q195.694 212.595 192.662 209.47 Q189.652 206.321 189.652 200.882 Q189.652 195.558 192.8 192.34 Q195.949 189.122 201.18 189.122 Q207.175 189.122 210.323 193.729 Q213.495 198.312 213.495 207.062 Q213.495 215.233 209.606 220.118 Q205.74 224.979 199.189 224.979 Q197.43 224.979 195.624 224.631 Q193.819 224.284 191.874 223.59 M201.18 208.937 Q204.328 208.937 206.157 206.784 Q208.009 204.632 208.009 200.882 Q208.009 197.155 206.157 195.002 Q204.328 192.826 201.18 192.826 Q198.032 192.826 196.18 195.002 Q194.351 197.155 194.351 200.882 Q194.351 204.632 196.18 206.784 Q198.032 208.937 201.18 208.937 Z"
     fill="#000000"
     fill-rule="evenodd"
     fill-opacity="1"
     id="path141" />
  <path
     clip-path="url(#clip480)"
     d="M86.3261 902.342 L109.975 911.063 L109.975 893.59 L86.3261 902.342 M79.9922 905.971 L79.9922 898.682 L127.512 880.572 L127.512 887.256 L115.322 891.584 L115.322 913.005 L127.512 917.334 L127.512 924.113 L79.9922 905.971 Z"
     fill="#000000"
     fill-rule="evenodd"
     fill-opacity="1"
     id="path143" />
  <path
     clip-path="url(#clip480)"
     d="M91.8642 881.908 L91.8642 875.702 L121.783 864.562 L91.8642 853.422 L91.8642 847.215 L127.512 860.583 L127.512 868.54 L91.8642 881.908 Z"
     fill="#000000"
     fill-rule="evenodd"
     fill-opacity="1"
     id="path145" />
  <path
     clip-path="url(#clip480)"
     d="M108.224 808.639 L111.089 808.639 L111.089 835.566 Q117.136 835.184 120.319 831.938 Q123.47 828.659 123.47 822.835 Q123.47 819.461 122.642 816.31 Q121.815 813.127 120.16 810.008 L125.698 810.008 Q127.035 813.159 127.735 816.469 Q128.435 819.779 128.435 823.185 Q128.435 831.715 123.47 836.712 Q118.505 841.677 110.038 841.677 Q101.285 841.677 96.1611 836.967 Q91.0049 832.224 91.0049 824.203 Q91.0049 817.01 95.6518 812.841 Q100.267 808.639 108.224 808.639 M106.505 814.496 Q101.699 814.559 98.8347 817.201 Q95.9701 819.811 95.9701 824.14 Q95.9701 829.041 98.7392 832.001 Q101.508 834.93 106.537 835.375 L106.505 814.496 Z"
     fill="#000000"
     fill-rule="evenodd"
     fill-opacity="1"
     id="path147" />
  <path
     clip-path="url(#clip480)"
     d="M97.3387 778.37 Q96.7658 779.357 96.5112 780.535 Q96.2247 781.68 96.2247 783.081 Q96.2247 788.046 99.4713 790.72 Q102.686 793.361 108.733 793.361 L127.512 793.361 L127.512 799.25 L91.8642 799.25 L91.8642 793.361 L97.4024 793.361 Q94.1559 791.515 92.5963 788.555 Q91.0049 785.595 91.0049 781.362 Q91.0049 780.757 91.1003 780.025 Q91.164 779.293 91.3231 778.402 L97.3387 778.37 Z"
     fill="#000000"
     fill-rule="evenodd"
     fill-opacity="1"
     id="path149" />
  <path
     clip-path="url(#clip480)"
     d="M109.593 756.027 Q109.593 763.124 111.216 765.862 Q112.839 768.599 116.754 768.599 Q119.873 768.599 121.719 766.562 Q123.534 764.493 123.534 760.96 Q123.534 756.09 120.096 753.162 Q116.627 750.202 110.898 750.202 L109.593 750.202 L109.593 756.027 M107.174 744.346 L127.512 744.346 L127.512 750.202 L122.101 750.202 Q125.348 752.207 126.907 755.199 Q128.435 758.191 128.435 762.52 Q128.435 767.994 125.38 771.241 Q122.292 774.455 117.136 774.455 Q111.12 774.455 108.065 770.445 Q105.009 766.403 105.009 758.414 L105.009 750.202 L104.437 750.202 Q100.394 750.202 98.1981 752.876 Q95.9701 755.517 95.9701 760.323 Q95.9701 763.379 96.7022 766.275 Q97.4342 769.172 98.8983 771.845 L93.4875 771.845 Q92.2462 768.631 91.6414 765.607 Q91.0049 762.583 91.0049 759.719 Q91.0049 751.984 95.0153 748.165 Q99.0257 744.346 107.174 744.346 Z"
     fill="#000000"
     fill-rule="evenodd"
     fill-opacity="1"
     id="path151" />
  <path
     clip-path="url(#clip480)"
     d="M109.274 708.825 Q102.909 708.825 99.4076 711.467 Q95.9065 714.077 95.9065 718.819 Q95.9065 723.53 99.4076 726.171 Q102.909 728.781 109.274 728.781 Q115.608 728.781 119.109 726.171 Q122.611 723.53 122.611 718.819 Q122.611 714.077 119.109 711.467 Q115.608 708.825 109.274 708.825 M123.088 702.968 Q132.191 702.968 136.615 707.011 Q141.071 711.053 141.071 719.392 Q141.071 722.479 140.594 725.217 Q140.148 727.954 139.193 730.532 L133.496 730.532 Q134.896 727.954 135.565 725.439 Q136.233 722.925 136.233 720.315 Q136.233 714.554 133.209 711.689 Q130.218 708.825 124.138 708.825 L121.242 708.825 Q124.393 710.639 125.953 713.472 Q127.512 716.305 127.512 720.251 Q127.512 726.808 122.515 730.818 Q117.518 734.829 109.274 734.829 Q100.999 734.829 96.0019 730.818 Q91.0049 726.808 91.0049 720.251 Q91.0049 716.305 92.5645 713.472 Q94.1241 710.639 97.2751 708.825 L91.8642 708.825 L91.8642 702.968 L123.088 702.968 Z"
     fill="#000000"
     fill-rule="evenodd"
     fill-opacity="1"
     id="path153" />
  <path
     clip-path="url(#clip480)"
     d="M108.224 660.414 L111.089 660.414 L111.089 687.341 Q117.136 686.959 120.319 683.712 Q123.47 680.434 123.47 674.609 Q123.47 671.235 122.642 668.084 Q121.815 664.902 120.16 661.782 L125.698 661.782 Q127.035 664.933 127.735 668.244 Q128.435 671.554 128.435 674.959 Q128.435 683.489 123.47 688.486 Q118.505 693.452 110.038 693.452 Q101.285 693.452 96.1611 688.741 Q91.0049 683.999 91.0049 675.978 Q91.0049 668.785 95.6518 664.615 Q100.267 660.414 108.224 660.414 M106.505 666.27 Q101.699 666.334 98.8347 668.976 Q95.9701 671.586 95.9701 675.914 Q95.9701 680.816 98.7392 683.776 Q101.508 686.704 106.537 687.15 L106.505 666.27 Z"
     fill="#000000"
     fill-rule="evenodd"
     fill-opacity="1"
     id="path155" />
  <path
     clip-path="url(#clip480)"
     d="M92.9146 607.356 L98.4527 607.356 Q97.1796 609.838 96.543 612.512 Q95.9065 615.185 95.9065 618.05 Q95.9065 622.41 97.2433 624.607 Q98.5801 626.771 101.254 626.771 Q103.291 626.771 104.468 625.211 Q105.614 623.652 106.664 618.941 L107.11 616.936 Q108.447 610.698 110.898 608.088 Q113.317 605.446 117.677 605.446 Q122.642 605.446 125.539 609.393 Q128.435 613.307 128.435 620.182 Q128.435 623.047 127.862 626.166 Q127.321 629.254 126.207 632.691 L120.16 632.691 Q121.847 629.445 122.706 626.294 Q123.534 623.142 123.534 620.055 Q123.534 615.917 122.133 613.689 Q120.701 611.461 118.123 611.461 Q115.736 611.461 114.462 613.085 Q113.189 614.676 112.012 620.119 L111.534 622.156 Q110.388 627.598 108.033 630.017 Q105.646 632.436 101.508 632.436 Q96.4794 632.436 93.7421 628.872 Q91.0049 625.307 91.0049 618.75 Q91.0049 615.504 91.4823 612.639 Q91.9597 609.775 92.9146 607.356 Z"
     fill="#000000"
     fill-rule="evenodd"
     fill-opacity="1"
     id="path157" />
  <path
     clip-path="url(#clip480)"
     d="M91.8642 599.526 L91.8642 593.669 L119.682 586.349 L91.8642 579.06 L91.8642 572.153 L119.682 564.833 L91.8642 557.544 L91.8642 551.687 L127.512 561.013 L127.512 567.92 L98.2936 575.591 L127.512 583.293 L127.512 590.2 L91.8642 599.526 Z"
     fill="#000000"
     fill-rule="evenodd"
     fill-opacity="1"
     id="path159" />
  <path
     clip-path="url(#clip480)"
     d="M91.8642 542.807 L91.8642 536.951 L127.512 536.951 L127.512 542.807 L91.8642 542.807 M77.987 542.807 L77.987 536.951 L85.403 536.951 L85.403 542.807 L77.987 542.807 Z"
     fill="#000000"
     fill-rule="evenodd"
     fill-opacity="1"
     id="path161" />
  <path
     clip-path="url(#clip480)"
     d="M105.996 495.064 L127.512 495.064 L127.512 500.921 L106.187 500.921 Q101.126 500.921 98.6119 502.894 Q96.0974 504.868 96.0974 508.814 Q96.0974 513.557 99.1211 516.294 Q102.145 519.031 107.365 519.031 L127.512 519.031 L127.512 524.92 L91.8642 524.92 L91.8642 519.031 L97.4024 519.031 Q94.1877 516.931 92.5963 514.098 Q91.0049 511.233 91.0049 507.509 Q91.0049 501.367 94.8243 498.216 Q98.6119 495.064 105.996 495.064 Z"
     fill="#000000"
     fill-rule="evenodd"
     fill-opacity="1"
     id="path163" />
  <path
     clip-path="url(#clip480)"
     d="M109.274 459.926 Q102.909 459.926 99.4076 462.568 Q95.9065 465.177 95.9065 469.92 Q95.9065 474.631 99.4076 477.272 Q102.909 479.882 109.274 479.882 Q115.608 479.882 119.109 477.272 Q122.611 474.631 122.611 469.92 Q122.611 465.177 119.109 462.568 Q115.608 459.926 109.274 459.926 M123.088 454.069 Q132.191 454.069 136.615 458.112 Q141.071 462.154 141.071 470.493 Q141.071 473.58 140.594 476.317 Q140.148 479.055 139.193 481.633 L133.496 481.633 Q134.896 479.055 135.565 476.54 Q136.233 474.026 136.233 471.416 Q136.233 465.655 133.209 462.79 Q130.218 459.926 124.138 459.926 L121.242 459.926 Q124.393 461.74 125.953 464.573 Q127.512 467.405 127.512 471.352 Q127.512 477.909 122.515 481.919 Q117.518 485.93 109.274 485.93 Q100.999 485.93 96.0019 481.919 Q91.0049 477.909 91.0049 471.352 Q91.0049 467.405 92.5645 464.573 Q94.1241 461.74 97.2751 459.926 L91.8642 459.926 L91.8642 454.069 L123.088 454.069 Z"
     fill="#000000"
     fill-rule="evenodd"
     fill-opacity="1"
     id="path165" />
  <path
     clip-path="url(#clip480)"
     d="M92.9146 419.281 L98.4527 419.281 Q97.1796 421.763 96.543 424.437 Q95.9065 427.111 95.9065 429.975 Q95.9065 434.336 97.2433 436.532 Q98.5801 438.696 101.254 438.696 Q103.291 438.696 104.468 437.137 Q105.614 435.577 106.664 430.866 L107.11 428.861 Q108.447 422.623 110.898 420.013 Q113.317 417.371 117.677 417.371 Q122.642 417.371 125.539 421.318 Q128.435 425.233 128.435 432.108 Q128.435 434.972 127.862 438.091 Q127.321 441.179 126.207 444.616 L120.16 444.616 Q121.847 441.37 122.706 438.219 Q123.534 435.068 123.534 431.98 Q123.534 427.843 122.133 425.615 Q120.701 423.387 118.123 423.387 Q115.736 423.387 114.462 425.01 Q113.189 426.601 112.012 432.044 L111.534 434.081 Q110.388 439.524 108.033 441.943 Q105.646 444.362 101.508 444.362 Q96.4794 444.362 93.7421 440.797 Q91.0049 437.232 91.0049 430.675 Q91.0049 427.429 91.4823 424.564 Q91.9597 421.7 92.9146 419.281 Z"
     fill="#000000"
     fill-rule="evenodd"
     fill-opacity="1"
     id="path167" />
  <path
     clip-path="url(#clip480)"
     d="M122.165 381.659 L141.071 381.659 L141.071 387.548 L91.8642 387.548 L91.8642 381.659 L97.2751 381.659 Q94.0922 379.813 92.5645 377.012 Q91.0049 374.18 91.0049 370.265 Q91.0049 363.772 96.1611 359.73 Q101.317 355.656 109.72 355.656 Q118.123 355.656 123.279 359.73 Q128.435 363.772 128.435 370.265 Q128.435 374.18 126.907 377.012 Q125.348 379.813 122.165 381.659 M109.72 361.735 Q103.259 361.735 99.5986 364.408 Q95.9065 367.05 95.9065 371.697 Q95.9065 376.344 99.5986 379.018 Q103.259 381.659 109.72 381.659 Q116.181 381.659 119.873 379.018 Q123.534 376.344 123.534 371.697 Q123.534 367.05 119.873 364.408 Q116.181 361.735 109.72 361.735 Z"
     fill="#000000"
     fill-rule="evenodd"
     fill-opacity="1"
     id="path169" />
  <path
     clip-path="url(#clip480)"
     d="M108.224 315.456 L111.089 315.456 L111.089 342.383 Q117.136 342.001 120.319 338.755 Q123.47 335.476 123.47 329.652 Q123.47 326.278 122.642 323.127 Q121.815 319.944 120.16 316.825 L125.698 316.825 Q127.035 319.976 127.735 323.286 Q128.435 326.596 128.435 330.002 Q128.435 338.532 123.47 343.529 Q118.505 348.494 110.038 348.494 Q101.285 348.494 96.1611 343.783 Q91.0049 339.041 91.0049 331.02 Q91.0049 323.827 95.6518 319.657 Q100.267 315.456 108.224 315.456 M106.505 321.313 Q101.699 321.376 98.8347 324.018 Q95.9701 326.628 95.9701 330.957 Q95.9701 335.858 98.7392 338.818 Q101.508 341.746 106.537 342.192 L106.505 321.313 Z"
     fill="#000000"
     fill-rule="evenodd"
     fill-opacity="1"
     id="path171" />
  <path
     clip-path="url(#clip480)"
     d="M97.3387 285.187 Q96.7658 286.174 96.5112 287.351 Q96.2247 288.497 96.2247 289.898 Q96.2247 294.863 99.4713 297.537 Q102.686 300.178 108.733 300.178 L127.512 300.178 L127.512 306.067 L91.8642 306.067 L91.8642 300.178 L97.4024 300.178 Q94.1559 298.332 92.5963 295.372 Q91.0049 292.412 91.0049 288.179 Q91.0049 287.574 91.1003 286.842 Q91.164 286.11 91.3231 285.219 L97.3387 285.187 Z"
     fill="#000000"
     fill-rule="evenodd"
     fill-opacity="1"
     id="path173" />
  <path
     clip-path="url(#clip480)"
     d="M122.101 256.382 L122.101 245.879 L85.8486 245.879 L88.1403 257.305 L82.2838 257.305 L79.9922 245.943 L79.9922 239.513 L122.101 239.513 L122.101 229.01 L127.512 229.01 L127.512 256.382 L122.101 256.382 Z"
     fill="#000000"
     fill-rule="evenodd"
     fill-opacity="1"
     id="path175" />
  <path
     clip-path="url(#clip480)"
     d="M122.101 210.486 L122.101 188.046 L127.512 188.046 L127.512 218.22 L122.101 218.22 Q118.314 214.56 111.948 208.258 Q105.551 201.924 103.704 200.3 Q100.235 197.213 97.848 196.004 Q95.429 194.762 93.1055 194.762 Q89.3179 194.762 86.9308 197.436 Q84.5437 200.078 84.5437 204.343 Q84.5437 207.366 85.594 210.74 Q86.6444 214.082 88.7769 217.902 L82.2838 217.902 Q80.7242 214.019 79.9285 210.645 Q79.1328 207.271 79.1328 204.47 Q79.1328 197.086 82.8249 192.693 Q86.517 188.301 92.6918 188.301 Q95.62 188.301 98.2618 189.415 Q100.872 190.497 104.437 193.394 Q105.36 194.189 109.784 198.454 Q114.176 202.719 122.101 210.486 Z"
     fill="#000000"
     fill-rule="evenodd"
     fill-opacity="1"
     id="path177" />
  <path
     clip-path="url(#clip480)"
     d="M84.2254 160.801 Q84.2254 165.766 89.127 168.281 Q93.9967 170.764 103.8 170.764 Q113.571 170.764 118.473 168.281 Q123.343 165.766 123.343 160.801 Q123.343 155.804 118.473 153.322 Q113.571 150.807 103.8 150.807 Q93.9967 150.807 89.127 153.322 Q84.2254 155.804 84.2254 160.801 M79.1328 160.801 Q79.1328 152.812 85.4667 148.611 Q91.7687 144.378 103.8 144.378 Q115.799 144.378 122.133 148.611 Q128.435 152.812 128.435 160.801 Q128.435 168.79 122.133 173.023 Q115.799 177.225 103.8 177.225 Q91.7687 177.225 85.4667 173.023 Q79.1328 168.79 79.1328 160.801 Z"
     fill="#000000"
     fill-rule="evenodd"
     fill-opacity="1"
     id="path179" />
  <path
     clip-path="url(#clip480)"
     d="M92.9146 111.181 L98.4527 111.181 Q97.1796 113.663 96.543 116.337 Q95.9065 119.01 95.9065 121.875 Q95.9065 126.235 97.2433 128.432 Q98.5801 130.596 101.254 130.596 Q103.291 130.596 104.468 129.036 Q105.614 127.477 106.664 122.766 L107.11 120.761 Q108.447 114.523 110.898 111.913 Q113.317 109.271 117.677 109.271 Q122.642 109.271 125.539 113.218 Q128.435 117.132 128.435 124.007 Q128.435 126.872 127.862 129.991 Q127.321 133.079 126.207 136.516 L120.16 136.516 Q121.847 133.27 122.706 130.119 Q123.534 126.967 123.534 123.88 Q123.534 119.742 122.133 117.514 Q120.701 115.286 118.123 115.286 Q115.736 115.286 114.462 116.91 Q113.189 118.501 112.012 123.944 L111.534 125.981 Q110.388 131.423 108.033 133.842 Q105.646 136.261 101.508 136.261 Q96.4794 136.261 93.7421 132.697 Q91.0049 129.132 91.0049 122.575 Q91.0049 119.329 91.4823 116.464 Q91.9597 113.6 92.9146 111.181 Z"
     fill="#000000"
     fill-rule="evenodd"
     fill-opacity="1"
     id="path181" />
  <polyline
     clip-path="url(#clip482)"
     style="stroke:#16a085; stroke-linecap:round; stroke-linejoin:round; stroke-width:16; stroke-opacity:1; fill:none"
     points="   1111.38,576.273 940.529,656.318 769.677,647.273 598.826,638.229 427.974,404.2 257.122,307.649    "
     id="polyline183" />
  <path
     clip-path="url(#clip482)"
     d="M1111.38 544.273 L1103.86 565.905 L1080.95 566.385 L1099.22 580.241 L1092.56 602.161 L1111.38 589.073 L1130.2 602.161 L1123.54 580.241 L1141.81 566.385 L1118.9 565.905 L1111.38 544.273 Z"
     fill="#16a085"
     fill-rule="evenodd"
     fill-opacity="1"
     stroke="#ffffff"
     stroke-opacity="1"
     stroke-width="2.4"
     id="path185" />
  <path
     clip-path="url(#clip482)"
     d="M940.529 624.318 L933.009 645.95 L910.097 646.43 L928.369 660.286 L921.713 682.206 L940.529 669.118 L959.345 682.206 L952.689 660.286 L970.961 646.43 L948.049 645.95 L940.529 624.318 Z"
     fill="#16a085"
     fill-rule="evenodd"
     fill-opacity="1"
     stroke="#ffffff"
     stroke-opacity="1"
     stroke-width="2.4"
     id="path187" />
  <path
     clip-path="url(#clip482)"
     d="M769.677 615.273 L762.157 636.905 L739.245 637.385 L757.517 651.241 L750.861 673.161 L769.677 660.073 L788.493 673.161 L781.837 651.241 L800.109 637.385 L777.197 636.905 L769.677 615.273 Z"
     fill="#16a085"
     fill-rule="evenodd"
     fill-opacity="1"
     stroke="#ffffff"
     stroke-opacity="1"
     stroke-width="2.4"
     id="path189" />
  <path
     clip-path="url(#clip482)"
     d="M598.826 606.229 L591.306 627.861 L568.394 628.341 L586.666 642.197 L580.01 664.117 L598.826 651.029 L617.642 664.117 L610.986 642.197 L629.258 628.341 L606.346 627.861 L598.826 606.229 Z"
     fill="#16a085"
     fill-rule="evenodd"
     fill-opacity="1"
     stroke="#ffffff"
     stroke-opacity="1"
     stroke-width="2.4"
     id="path191" />
  <path
     clip-path="url(#clip482)"
     d="M427.974 372.2 L420.454 393.832 L397.542 394.312 L415.814 408.168 L409.158 430.088 L427.974 417 L446.79 430.088 L440.134 408.168 L458.406 394.312 L435.494 393.832 L427.974 372.2 Z"
     fill="#16a085"
     fill-rule="evenodd"
     fill-opacity="1"
     stroke="#ffffff"
     stroke-opacity="1"
     stroke-width="2.4"
     id="path193" />
  <path
     clip-path="url(#clip482)"
     d="M257.122 275.649 L249.602 297.281 L226.69 297.761 L244.962 311.617 L238.306 333.537 L257.122 320.449 L275.938 333.537 L269.282 311.617 L287.554 297.761 L264.642 297.281 L257.122 275.649 Z"
     fill="#16a085"
     fill-rule="evenodd"
     fill-opacity="1"
     stroke="#ffffff"
     stroke-opacity="1"
     stroke-width="2.4"
     id="path195" />
  <path
     clip-path="url(#clip480)"
     d=" M733.149 196.919 L1106.82 196.919 L1106.82 93.2388 L733.149 93.2388  Z   "
     fill="#ffffff"
     fill-rule="evenodd"
     fill-opacity="1"
     id="path197" />
  <polyline
     clip-path="url(#clip480)"
     style="stroke:#000000; stroke-linecap:round; stroke-linejoin:round; stroke-width:4; stroke-opacity:1; fill:none"
     points="   733.149,196.919 1106.82,196.919 1106.82,93.2388 733.149,93.2388 733.149,196.919    "
     id="polyline199" />
  <polyline
     clip-path="url(#clip480)"
     style="stroke:#16a085; stroke-linecap:round; stroke-linejoin:round; stroke-width:16; stroke-opacity:1; fill:none"
     points="   743.211,145.079 803.578,145.079    "
     id="polyline201" />
  <path
     clip-path="url(#clip480)"
     d="m 773.394,135.763 -2.189,6.297 -6.67,0.14 5.319,4.034 -1.937,6.381 5.477,-3.81 5.478,3.81 -1.938,-6.381 5.32,-4.034 -6.67,-0.14 z"
     fill="#16a085"
     fill-rule="evenodd"
     fill-opacity="1"
     stroke="#ffffff"
     stroke-opacity="1"
     stroke-width="1.92"
     id="path203"
     transform="matrix(2,0,0,2,-773.3947,-143.91105)" />
  <path
     clip-path="url(#clip480)"
     d="M818.315 131.641 L818.315 144.627 L824.195 144.627 Q827.459 144.627 829.241 142.938 Q831.024 141.248 831.024 138.123 Q831.024 135.021 829.241 133.331 Q827.459 131.641 824.195 131.641 L818.315 131.641 M813.639 127.799 L824.195 127.799 Q830.005 127.799 832.968 130.438 Q835.954 133.053 835.954 138.123 Q835.954 143.239 832.968 145.854 Q830.005 148.47 824.195 148.47 L818.315 148.47 L818.315 162.359 L813.639 162.359 L813.639 127.799 Z"
     fill="#000000"
     fill-rule="evenodd"
     fill-opacity="1"
     id="path205" />
  <path
     clip-path="url(#clip480)"
     d="M856.232 140.414 Q855.514 139.998 854.658 139.813 Q853.824 139.604 852.806 139.604 Q849.195 139.604 847.25 141.965 Q845.329 144.303 845.329 148.701 L845.329 162.359 L841.047 162.359 L841.047 136.433 L845.329 136.433 L845.329 140.461 Q846.672 138.1 848.824 136.965 Q850.977 135.808 854.056 135.808 Q854.496 135.808 855.028 135.877 Q855.56 135.924 856.209 136.039 L856.232 140.414 Z"
     fill="#000000"
     fill-rule="evenodd"
     fill-opacity="1"
     id="path207" />
  <path
     clip-path="url(#clip480)"
     d="M881.833 148.331 L881.833 150.414 L862.25 150.414 Q862.528 154.813 864.889 157.127 Q867.273 159.419 871.509 159.419 Q873.963 159.419 876.255 158.817 Q878.57 158.215 880.838 157.012 L880.838 161.039 Q878.546 162.012 876.139 162.521 Q873.732 163.03 871.255 163.03 Q865.051 163.03 861.417 159.419 Q857.806 155.808 857.806 149.651 Q857.806 143.285 861.232 139.558 Q864.681 135.808 870.514 135.808 Q875.746 135.808 878.778 139.188 Q881.833 142.544 881.833 148.331 M877.574 147.081 Q877.528 143.586 875.607 141.502 Q873.708 139.419 870.56 139.419 Q866.996 139.419 864.843 141.433 Q862.713 143.447 862.389 147.104 L877.574 147.081 Z"
     fill="#000000"
     fill-rule="evenodd"
     fill-opacity="1"
     id="path209" />
  <path
     clip-path="url(#clip480)"
     d="M886.671 147.475 L899.148 147.475 L899.148 151.271 L886.671 151.271 L886.671 147.475 Z"
     fill="#000000"
     fill-rule="evenodd"
     fill-opacity="1"
     id="path211" />
  <path
     clip-path="url(#clip480)"
     d="M922.458 137.197 L922.458 141.225 Q920.653 140.299 918.708 139.836 Q916.764 139.373 914.68 139.373 Q911.509 139.373 909.912 140.345 Q908.338 141.317 908.338 143.262 Q908.338 144.743 909.472 145.6 Q910.606 146.433 914.032 147.197 L915.491 147.521 Q920.028 148.493 921.926 150.276 Q923.847 152.035 923.847 155.206 Q923.847 158.817 920.977 160.924 Q918.13 163.03 913.13 163.03 Q911.046 163.03 908.778 162.613 Q906.532 162.22 904.032 161.41 L904.032 157.012 Q906.393 158.238 908.685 158.863 Q910.977 159.465 913.222 159.465 Q916.231 159.465 917.852 158.447 Q919.472 157.405 919.472 155.53 Q919.472 153.794 918.292 152.868 Q917.134 151.942 913.176 151.086 L911.694 150.738 Q907.736 149.905 905.977 148.192 Q904.218 146.456 904.218 143.447 Q904.218 139.789 906.81 137.799 Q909.403 135.808 914.171 135.808 Q916.532 135.808 918.616 136.155 Q920.699 136.502 922.458 137.197 Z"
     fill="#000000"
     fill-rule="evenodd"
     fill-opacity="1"
     id="path213" />
  <path
     clip-path="url(#clip480)"
     d="M952.18 146.711 L952.18 162.359 L947.921 162.359 L947.921 146.85 Q947.921 143.169 946.486 141.34 Q945.051 139.512 942.18 139.512 Q938.731 139.512 936.741 141.711 Q934.75 143.91 934.75 147.706 L934.75 162.359 L930.467 162.359 L930.467 126.34 L934.75 126.34 L934.75 140.461 Q936.278 138.123 938.338 136.965 Q940.421 135.808 943.129 135.808 Q947.597 135.808 949.889 138.586 Q952.18 141.34 952.18 146.711 Z"
     fill="#000000"
     fill-rule="evenodd"
     fill-opacity="1"
     id="path215" />
  <path
     clip-path="url(#clip480)"
     d="M960.676 136.433 L964.935 136.433 L964.935 162.359 L960.676 162.359 L960.676 136.433 M960.676 126.34 L964.935 126.34 L964.935 131.734 L960.676 131.734 L960.676 126.34 Z"
     fill="#000000"
     fill-rule="evenodd"
     fill-opacity="1"
     id="path217" />
  <path
     clip-path="url(#clip480)"
     d="M996.023 148.331 L996.023 150.414 L976.439 150.414 Q976.717 154.813 979.078 157.127 Q981.463 159.419 985.699 159.419 Q988.152 159.419 990.444 158.817 Q992.759 158.215 995.027 157.012 L995.027 161.039 Q992.736 162.012 990.328 162.521 Q987.921 163.03 985.444 163.03 Q979.24 163.03 975.606 159.419 Q971.995 155.808 971.995 149.651 Q971.995 143.285 975.421 139.558 Q978.87 135.808 984.703 135.808 Q989.935 135.808 992.967 139.188 Q996.023 142.544 996.023 148.331 M991.763 147.081 Q991.717 143.586 989.796 141.502 Q987.898 139.419 984.75 139.419 Q981.185 139.419 979.032 141.433 Q976.902 143.447 976.578 147.104 L991.763 147.081 Z"
     fill="#000000"
     fill-rule="evenodd"
     fill-opacity="1"
     id="path219" />
  <path
     clip-path="url(#clip480)"
     d="M1003.01 126.34 L1007.27 126.34 L1007.27 162.359 L1003.01 162.359 L1003.01 126.34 Z"
     fill="#000000"
     fill-rule="evenodd"
     fill-opacity="1"
     id="path221" />
  <path
     clip-path="url(#clip480)"
     d="M1033.24 140.368 L1033.24 126.34 L1037.5 126.34 L1037.5 162.359 L1033.24 162.359 L1033.24 158.47 Q1031.9 160.785 1029.84 161.919 Q1027.8 163.03 1024.93 163.03 Q1020.24 163.03 1017.27 159.28 Q1014.33 155.53 1014.33 149.419 Q1014.33 143.308 1017.27 139.558 Q1020.24 135.808 1024.93 135.808 Q1027.8 135.808 1029.84 136.942 Q1031.9 138.053 1033.24 140.368 M1018.73 149.419 Q1018.73 154.118 1020.65 156.803 Q1022.6 159.465 1025.98 159.465 Q1029.36 159.465 1031.3 156.803 Q1033.24 154.118 1033.24 149.419 Q1033.24 144.72 1031.3 142.058 Q1029.36 139.373 1025.98 139.373 Q1022.6 139.373 1020.65 142.058 Q1018.73 144.72 1018.73 149.419 Z"
     fill="#000000"
     fill-rule="evenodd"
     fill-opacity="1"
     id="path223" />
  <path
     clip-path="url(#clip480)"
     d="M1068.45 148.331 L1068.45 150.414 L1048.87 150.414 Q1049.15 154.813 1051.51 157.127 Q1053.89 159.419 1058.13 159.419 Q1060.58 159.419 1062.87 158.817 Q1065.19 158.215 1067.46 157.012 L1067.46 161.039 Q1065.17 162.012 1062.76 162.521 Q1060.35 163.03 1057.87 163.03 Q1051.67 163.03 1048.04 159.419 Q1044.43 155.808 1044.43 149.651 Q1044.43 143.285 1047.85 139.558 Q1051.3 135.808 1057.13 135.808 Q1062.36 135.808 1065.4 139.188 Q1068.45 142.544 1068.45 148.331 M1064.19 147.081 Q1064.15 143.586 1062.23 141.502 Q1060.33 139.419 1057.18 139.419 Q1053.61 139.419 1051.46 141.433 Q1049.33 143.447 1049.01 147.104 L1064.19 147.081 Z"
     fill="#000000"
     fill-rule="evenodd"
     fill-opacity="1"
     id="path225" />
  <path
     clip-path="url(#clip480)"
     d="M1092.5 140.368 L1092.5 126.34 L1096.76 126.34 L1096.76 162.359 L1092.5 162.359 L1092.5 158.47 Q1091.16 160.785 1089.1 161.919 Q1087.06 163.03 1084.19 163.03 Q1079.49 163.03 1076.53 159.28 Q1073.59 155.53 1073.59 149.419 Q1073.59 143.308 1076.53 139.558 Q1079.49 135.808 1084.19 135.808 Q1087.06 135.808 1089.1 136.942 Q1091.16 138.053 1092.5 140.368 M1077.99 149.419 Q1077.99 154.118 1079.91 156.803 Q1081.86 159.465 1085.24 159.465 Q1088.61 159.465 1090.56 156.803 Q1092.5 154.118 1092.5 149.419 Q1092.5 144.72 1090.56 142.058 Q1088.61 139.373 1085.24 139.373 Q1081.86 139.373 1079.91 142.058 Q1077.99 144.72 1077.99 149.419 Z"
     fill="#000000"
     fill-rule="evenodd"
     fill-opacity="1"
     id="path227" />
</svg>
