<?xml version="1.0" encoding="utf-8"?>
<svg xmlns="http://www.w3.org/2000/svg" xmlns:xlink="http://www.w3.org/1999/xlink" width="300" height="200" viewBox="0 0 1200 800">
<defs>
  <clipPath id="clip600">
    <rect x="0" y="0" width="1200" height="800"/>
  </clipPath>
</defs>
<path clip-path="url(#clip600)" d="
M0 800 L1200 800 L1200 0 L0 0  Z
  " fill="#ffffff" fill-rule="evenodd" fill-opacity="1"/>
<defs>
  <clipPath id="clip601">
    <rect x="240" y="0" width="841" height="800"/>
  </clipPath>
</defs>
<path clip-path="url(#clip600)" d="
M220.389 599.228 L1152.76 599.228 L1152.76 65.6436 L220.389 65.6436  Z
  " fill="#ffffff" fill-rule="evenodd" fill-opacity="1"/>
<defs>
  <clipPath id="clip602">
    <rect x="220" y="65" width="933" height="535"/>
  </clipPath>
</defs>
<polyline clip-path="url(#clip602)" style="stroke:#000000; stroke-linecap:round; stroke-linejoin:round; stroke-width:2; stroke-opacity:0.1; fill:none" points="
  1126.37,599.228 1126.37,65.6436 
  "/>
<polyline clip-path="url(#clip602)" style="stroke:#000000; stroke-linecap:round; stroke-linejoin:round; stroke-width:2; stroke-opacity:0.1; fill:none" points="
  1046.41,599.228 1046.41,65.6436 
  "/>
<polyline clip-path="url(#clip602)" style="stroke:#000000; stroke-linecap:round; stroke-linejoin:round; stroke-width:2; stroke-opacity:0.1; fill:none" points="
  966.443,599.228 966.443,65.6436 
  "/>
<polyline clip-path="url(#clip602)" style="stroke:#000000; stroke-linecap:round; stroke-linejoin:round; stroke-width:2; stroke-opacity:0.1; fill:none" points="
  886.48,599.228 886.48,65.6436 
  "/>
<polyline clip-path="url(#clip602)" style="stroke:#000000; stroke-linecap:round; stroke-linejoin:round; stroke-width:2; stroke-opacity:0.1; fill:none" points="
  806.517,599.228 806.517,65.6436 
  "/>
<polyline clip-path="url(#clip602)" style="stroke:#000000; stroke-linecap:round; stroke-linejoin:round; stroke-width:2; stroke-opacity:0.1; fill:none" points="
  726.554,599.228 726.554,65.6436 
  "/>
<polyline clip-path="url(#clip602)" style="stroke:#000000; stroke-linecap:round; stroke-linejoin:round; stroke-width:2; stroke-opacity:0.1; fill:none" points="
  646.591,599.228 646.591,65.6436 
  "/>
<polyline clip-path="url(#clip602)" style="stroke:#000000; stroke-linecap:round; stroke-linejoin:round; stroke-width:2; stroke-opacity:0.1; fill:none" points="
  566.628,599.228 566.628,65.6436 
  "/>
<polyline clip-path="url(#clip602)" style="stroke:#000000; stroke-linecap:round; stroke-linejoin:round; stroke-width:2; stroke-opacity:0.1; fill:none" points="
  486.666,599.228 486.666,65.6436 
  "/>
<polyline clip-path="url(#clip602)" style="stroke:#000000; stroke-linecap:round; stroke-linejoin:round; stroke-width:2; stroke-opacity:0.1; fill:none" points="
  406.703,599.228 406.703,65.6436 
  "/>
<polyline clip-path="url(#clip602)" style="stroke:#000000; stroke-linecap:round; stroke-linejoin:round; stroke-width:2; stroke-opacity:0.1; fill:none" points="
  326.74,599.228 326.74,65.6436 
  "/>
<polyline clip-path="url(#clip602)" style="stroke:#000000; stroke-linecap:round; stroke-linejoin:round; stroke-width:2; stroke-opacity:0.1; fill:none" points="
  246.777,599.228 246.777,65.6436 
  "/>
<polyline clip-path="url(#clip600)" style="stroke:#000000; stroke-linecap:round; stroke-linejoin:round; stroke-width:4; stroke-opacity:1; fill:none" points="
  1152.76,599.228 220.389,599.228 
  "/>
<polyline clip-path="url(#clip600)" style="stroke:#000000; stroke-linecap:round; stroke-linejoin:round; stroke-width:4; stroke-opacity:1; fill:none" points="
  1126.37,599.228 1126.37,580.96 
  "/>
<polyline clip-path="url(#clip600)" style="stroke:#000000; stroke-linecap:round; stroke-linejoin:round; stroke-width:4; stroke-opacity:1; fill:none" points="
  1046.41,599.228 1046.41,580.96 
  "/>
<polyline clip-path="url(#clip600)" style="stroke:#000000; stroke-linecap:round; stroke-linejoin:round; stroke-width:4; stroke-opacity:1; fill:none" points="
  966.443,599.228 966.443,580.96 
  "/>
<polyline clip-path="url(#clip600)" style="stroke:#000000; stroke-linecap:round; stroke-linejoin:round; stroke-width:4; stroke-opacity:1; fill:none" points="
  886.48,599.228 886.48,580.96 
  "/>
<polyline clip-path="url(#clip600)" style="stroke:#000000; stroke-linecap:round; stroke-linejoin:round; stroke-width:4; stroke-opacity:1; fill:none" points="
  806.517,599.228 806.517,580.96 
  "/>
<polyline clip-path="url(#clip600)" style="stroke:#000000; stroke-linecap:round; stroke-linejoin:round; stroke-width:4; stroke-opacity:1; fill:none" points="
  726.554,599.228 726.554,580.96 
  "/>
<polyline clip-path="url(#clip600)" style="stroke:#000000; stroke-linecap:round; stroke-linejoin:round; stroke-width:4; stroke-opacity:1; fill:none" points="
  646.591,599.228 646.591,580.96 
  "/>
<polyline clip-path="url(#clip600)" style="stroke:#000000; stroke-linecap:round; stroke-linejoin:round; stroke-width:4; stroke-opacity:1; fill:none" points="
  566.628,599.228 566.628,580.96 
  "/>
<polyline clip-path="url(#clip600)" style="stroke:#000000; stroke-linecap:round; stroke-linejoin:round; stroke-width:4; stroke-opacity:1; fill:none" points="
  486.666,599.228 486.666,580.96 
  "/>
<polyline clip-path="url(#clip600)" style="stroke:#000000; stroke-linecap:round; stroke-linejoin:round; stroke-width:4; stroke-opacity:1; fill:none" points="
  406.703,599.228 406.703,580.96 
  "/>
<polyline clip-path="url(#clip600)" style="stroke:#000000; stroke-linecap:round; stroke-linejoin:round; stroke-width:4; stroke-opacity:1; fill:none" points="
  326.74,599.228 326.74,580.96 
  "/>
<polyline clip-path="url(#clip600)" style="stroke:#000000; stroke-linecap:round; stroke-linejoin:round; stroke-width:4; stroke-opacity:1; fill:none" points="
  246.777,599.228 246.777,580.96 
  "/>
<path clip-path="url(#clip600)" d="M1112.17 695.517 Q1112.17 699.128 1115.73 700.957 Q1119.27 702.763 1126.4 702.763 Q1133.51 702.763 1137.07 700.957 Q1140.62 699.128 1140.62 695.517 Q1140.62 691.883 1137.07 690.077 Q1133.51 688.249 1126.4 688.249 Q1119.27 688.249 1115.73 690.077 Q1112.17 691.883 1112.17 695.517 M1108.46 695.517 Q1108.46 689.707 1113.07 686.652 Q1117.65 683.573 1126.4 683.573 Q1135.13 683.573 1139.74 686.652 Q1144.32 689.707 1144.32 695.517 Q1144.32 701.327 1139.74 704.406 Q1135.13 707.462 1126.4 707.462 Q1117.65 707.462 1113.07 704.406 Q1108.46 701.327 1108.46 695.517 Z" fill="#000000" fill-rule="evenodd" fill-opacity="1" /><path clip-path="url(#clip600)" d="M1137.77 675.355 L1137.77 670.471 L1143.65 670.471 L1143.65 675.355 L1137.77 675.355 Z" fill="#000000" fill-rule="evenodd" fill-opacity="1" /><path clip-path="url(#clip600)" d="M1127.24 650.286 Q1127.24 653.619 1129.02 655.541 Q1130.8 657.439 1133.93 657.439 Q1137.05 657.439 1138.83 655.541 Q1140.62 653.619 1140.62 650.286 Q1140.62 646.953 1138.83 645.031 Q1137.03 643.11 1133.93 643.11 Q1130.8 643.11 1129.02 645.031 Q1127.24 646.93 1127.24 650.286 M1125.25 654.962 Q1124.5 657.971 1122.44 659.661 Q1120.38 661.328 1117.42 661.328 Q1113.28 661.328 1110.87 658.388 Q1108.46 655.425 1108.46 650.286 Q1108.46 645.124 1110.87 642.184 Q1113.28 639.244 1117.42 639.244 Q1120.38 639.244 1122.44 640.934 Q1124.5 642.601 1125.25 645.587 Q1126.03 642.207 1128.32 640.332 Q1130.62 638.434 1133.93 638.434 Q1138.95 638.434 1141.63 641.513 Q1144.32 644.568 1144.32 650.286 Q1144.32 656.004 1141.63 659.082 Q1138.95 662.138 1133.93 662.138 Q1130.62 662.138 1128.32 660.24 Q1126.03 658.341 1125.25 654.962 M1117.86 656.675 Q1120.55 656.675 1122.05 655.008 Q1123.56 653.318 1123.56 650.286 Q1123.56 647.277 1122.05 645.587 Q1120.55 643.874 1117.86 643.874 Q1115.18 643.874 1113.67 645.587 Q1112.17 647.277 1112.17 650.286 Q1112.17 653.318 1113.67 655.008 Q1115.18 656.675 1117.86 656.675 Z" fill="#000000" fill-rule="evenodd" fill-opacity="1" /><path clip-path="url(#clip600)" d="M1125.01 615.957 Q1125.73 612.601 1128 610.726 Q1130.27 608.828 1133.6 608.828 Q1138.72 608.828 1141.52 612.346 Q1144.32 615.865 1144.32 622.346 Q1144.32 624.522 1143.88 626.837 Q1143.46 629.129 1142.61 631.582 L1138.09 631.582 Q1139.23 629.638 1139.81 627.323 Q1140.38 625.008 1140.38 622.485 Q1140.38 618.087 1138.65 615.795 Q1136.91 613.481 1133.6 613.481 Q1130.55 613.481 1128.83 615.633 Q1127.1 617.763 1127.1 621.582 L1127.1 625.61 L1123.25 625.61 L1123.25 621.397 Q1123.25 617.948 1121.89 616.119 Q1120.5 614.291 1117.91 614.291 Q1115.25 614.291 1113.83 616.189 Q1112.4 618.064 1112.4 621.582 Q1112.4 623.504 1112.82 625.703 Q1113.23 627.902 1114.11 630.541 L1109.94 630.541 Q1109.2 627.879 1108.83 625.564 Q1108.46 623.226 1108.46 621.166 Q1108.46 615.842 1110.89 612.74 Q1113.3 609.638 1117.42 609.638 Q1120.29 609.638 1122.28 611.282 Q1124.25 612.925 1125.01 615.957 Z" fill="#000000" fill-rule="evenodd" fill-opacity="1" /><path clip-path="url(#clip600)" d="M1032.2 696.651 Q1032.2 700.263 1035.77 702.091 Q1039.31 703.897 1046.44 703.897 Q1053.55 703.897 1057.11 702.091 Q1060.65 700.263 1060.65 696.651 Q1060.65 693.017 1057.11 691.212 Q1053.55 689.383 1046.44 689.383 Q1039.31 689.383 1035.77 691.212 Q1032.2 693.017 1032.2 696.651 M1028.5 696.651 Q1028.5 690.841 1033.11 687.786 Q1037.69 684.707 1046.44 684.707 Q1055.17 684.707 1059.77 687.786 Q1064.36 690.841 1064.36 696.651 Q1064.36 702.462 1059.77 705.54 Q1055.17 708.596 1046.44 708.596 Q1037.69 708.596 1033.11 705.54 Q1028.5 702.462 1028.5 696.651 Z" fill="#000000" fill-rule="evenodd" fill-opacity="1" /><path clip-path="url(#clip600)" d="M1057.81 676.49 L1057.81 671.605 L1063.69 671.605 L1063.69 676.49 L1057.81 676.49 Z" fill="#000000" fill-rule="evenodd" fill-opacity="1" /><path clip-path="url(#clip600)" d="M1047.27 651.42 Q1047.27 654.754 1049.06 656.675 Q1050.84 658.573 1053.96 658.573 Q1057.09 658.573 1058.87 656.675 Q1060.65 654.754 1060.65 651.42 Q1060.65 648.087 1058.87 646.166 Q1057.07 644.244 1053.96 644.244 Q1050.84 644.244 1049.06 646.166 Q1047.27 648.064 1047.27 651.42 M1045.28 656.096 Q1044.54 659.105 1042.48 660.795 Q1040.42 662.462 1037.46 662.462 Q1033.32 662.462 1030.91 659.522 Q1028.5 656.559 1028.5 651.42 Q1028.5 646.258 1030.91 643.318 Q1033.32 640.379 1037.46 640.379 Q1040.42 640.379 1042.48 642.068 Q1044.54 643.735 1045.28 646.721 Q1046.07 643.342 1048.36 641.467 Q1050.65 639.568 1053.96 639.568 Q1058.99 639.568 1061.67 642.647 Q1064.36 645.703 1064.36 651.42 Q1064.36 657.138 1061.67 660.216 Q1058.99 663.272 1053.96 663.272 Q1050.65 663.272 1048.36 661.374 Q1046.07 659.476 1045.28 656.096 M1037.9 657.809 Q1040.58 657.809 1042.09 656.142 Q1043.59 654.453 1043.59 651.42 Q1043.59 648.411 1042.09 646.721 Q1040.58 645.008 1037.9 645.008 Q1035.21 645.008 1033.71 646.721 Q1032.2 648.411 1032.2 651.42 Q1032.2 654.453 1033.71 656.142 Q1035.21 657.809 1037.9 657.809 Z" fill="#000000" fill-rule="evenodd" fill-opacity="1" /><path clip-path="url(#clip600)" d="M1033.2 618.411 L1051.65 630.217 L1051.65 618.411 L1033.2 618.411 M1029.13 619.638 L1029.13 613.758 L1051.65 613.758 L1051.65 608.828 L1055.54 608.828 L1055.54 613.758 L1063.69 613.758 L1063.69 618.411 L1055.54 618.411 L1055.54 634.013 L1051.02 634.013 L1029.13 619.638 Z" fill="#000000" fill-rule="evenodd" fill-opacity="1" /><path clip-path="url(#clip600)" d="M952.241 695.17 Q952.241 698.781 955.806 700.61 Q959.348 702.415 966.477 702.415 Q973.584 702.415 977.148 700.61 Q980.69 698.781 980.69 695.17 Q980.69 691.536 977.148 689.73 Q973.584 687.902 966.477 687.902 Q959.348 687.902 955.806 689.73 Q952.241 691.536 952.241 695.17 M948.538 695.17 Q948.538 689.36 953.144 686.304 Q957.727 683.226 966.477 683.226 Q975.204 683.226 979.811 686.304 Q984.394 689.36 984.394 695.17 Q984.394 700.98 979.811 704.059 Q975.204 707.114 966.477 707.114 Q957.727 707.114 953.144 704.059 Q948.538 700.98 948.538 695.17 Z" fill="#000000" fill-rule="evenodd" fill-opacity="1" /><path clip-path="url(#clip600)" d="M977.843 675.008 L977.843 670.124 L983.723 670.124 L983.723 675.008 L977.843 675.008 Z" fill="#000000" fill-rule="evenodd" fill-opacity="1" /><path clip-path="url(#clip600)" d="M967.311 649.939 Q967.311 653.272 969.093 655.193 Q970.875 657.091 974 657.091 Q977.125 657.091 978.908 655.193 Q980.69 653.272 980.69 649.939 Q980.69 646.605 978.908 644.684 Q977.102 642.763 974 642.763 Q970.875 642.763 969.093 644.684 Q967.311 646.582 967.311 649.939 M965.32 654.615 Q964.579 657.624 962.519 659.314 Q960.459 660.98 957.496 660.98 Q953.352 660.98 950.945 658.041 Q948.538 655.078 948.538 649.939 Q948.538 644.777 950.945 641.837 Q953.352 638.897 957.496 638.897 Q960.459 638.897 962.519 640.587 Q964.579 642.254 965.32 645.24 Q966.107 641.86 968.399 639.985 Q970.69 638.087 974 638.087 Q979.023 638.087 981.709 641.166 Q984.394 644.221 984.394 649.939 Q984.394 655.656 981.709 658.735 Q979.023 661.791 974 661.791 Q970.69 661.791 968.399 659.892 Q966.107 657.994 965.32 654.615 M957.936 656.328 Q960.621 656.328 962.125 654.661 Q963.63 652.971 963.63 649.939 Q963.63 646.93 962.125 645.24 Q960.621 643.527 957.936 643.527 Q955.25 643.527 953.746 645.24 Q952.241 646.93 952.241 649.939 Q952.241 652.971 953.746 654.661 Q955.25 656.328 957.936 656.328 Z" fill="#000000" fill-rule="evenodd" fill-opacity="1" /><path clip-path="url(#clip600)" d="M949.163 629.731 L949.163 611.374 L953.098 611.374 L953.098 625.448 L961.57 625.448 Q961.223 624.43 961.061 623.411 Q960.875 622.393 960.875 621.374 Q960.875 615.587 964.047 612.207 Q967.218 608.828 972.635 608.828 Q978.213 608.828 981.315 612.3 Q984.394 615.772 984.394 622.092 Q984.394 624.268 984.023 626.536 Q983.653 628.781 982.912 631.189 L978.213 631.189 Q979.348 629.106 979.903 626.883 Q980.459 624.661 980.459 622.184 Q980.459 618.18 978.352 615.842 Q976.246 613.504 972.635 613.504 Q969.024 613.504 966.917 615.842 Q964.811 618.18 964.811 622.184 Q964.811 624.059 965.227 625.934 Q965.644 627.786 966.524 629.731 L949.163 629.731 Z" fill="#000000" fill-rule="evenodd" fill-opacity="1" /><path clip-path="url(#clip600)" d="M872.278 696.327 Q872.278 699.938 875.843 701.767 Q879.385 703.573 886.514 703.573 Q893.621 703.573 897.186 701.767 Q900.727 699.938 900.727 696.327 Q900.727 692.693 897.186 690.888 Q893.621 689.059 886.514 689.059 Q879.385 689.059 875.843 690.888 Q872.278 692.693 872.278 696.327 M868.575 696.327 Q868.575 690.517 873.181 687.462 Q877.764 684.383 886.514 684.383 Q895.241 684.383 899.848 687.462 Q904.431 690.517 904.431 696.327 Q904.431 702.138 899.848 705.216 Q895.241 708.272 886.514 708.272 Q877.764 708.272 873.181 705.216 Q868.575 702.138 868.575 696.327 Z" fill="#000000" fill-rule="evenodd" fill-opacity="1" /><path clip-path="url(#clip600)" d="M897.88 676.165 L897.88 671.281 L903.76 671.281 L903.76 676.165 L897.88 676.165 Z" fill="#000000" fill-rule="evenodd" fill-opacity="1" /><path clip-path="url(#clip600)" d="M887.348 651.096 Q887.348 654.429 889.13 656.351 Q890.913 658.249 894.038 658.249 Q897.163 658.249 898.945 656.351 Q900.727 654.429 900.727 651.096 Q900.727 647.763 898.945 645.842 Q897.139 643.92 894.038 643.92 Q890.913 643.92 889.13 645.842 Q887.348 647.74 887.348 651.096 M885.357 655.772 Q884.616 658.781 882.556 660.471 Q880.496 662.138 877.533 662.138 Q873.389 662.138 870.982 659.198 Q868.575 656.235 868.575 651.096 Q868.575 645.934 870.982 642.994 Q873.389 640.055 877.533 640.055 Q880.496 640.055 882.556 641.744 Q884.616 643.411 885.357 646.397 Q886.144 643.017 888.436 641.142 Q890.727 639.244 894.038 639.244 Q899.061 639.244 901.746 642.323 Q904.431 645.379 904.431 651.096 Q904.431 656.814 901.746 659.892 Q899.061 662.948 894.038 662.948 Q890.727 662.948 888.436 661.05 Q886.144 659.152 885.357 655.772 M877.973 657.485 Q880.658 657.485 882.163 655.818 Q883.667 654.129 883.667 651.096 Q883.667 648.087 882.163 646.397 Q880.658 644.684 877.973 644.684 Q875.288 644.684 873.783 646.397 Q872.278 648.087 872.278 651.096 Q872.278 654.129 873.783 655.818 Q875.288 657.485 877.973 657.485 Z" fill="#000000" fill-rule="evenodd" fill-opacity="1" /><path clip-path="url(#clip600)" d="M884.616 620.356 Q884.616 623.504 886.769 625.356 Q888.922 627.184 892.672 627.184 Q896.399 627.184 898.575 625.356 Q900.727 623.504 900.727 620.356 Q900.727 617.207 898.575 615.379 Q896.399 613.527 892.672 613.527 Q888.922 613.527 886.769 615.379 Q884.616 617.207 884.616 620.356 M869.964 611.073 L874.223 611.073 Q873.389 612.832 872.95 614.638 Q872.51 616.42 872.51 618.18 Q872.51 622.809 875.635 625.263 Q878.76 627.693 885.079 628.041 Q883.065 626.675 882.001 624.615 Q880.913 622.555 880.913 620.078 Q880.913 614.869 884.084 611.86 Q887.232 608.828 892.672 608.828 Q897.996 608.828 901.213 611.976 Q904.431 615.124 904.431 620.356 Q904.431 626.351 899.848 629.522 Q895.241 632.693 886.514 632.693 Q878.32 632.693 873.459 628.805 Q868.575 624.916 868.575 618.365 Q868.575 616.606 868.922 614.823 Q869.269 613.018 869.964 611.073 Z" fill="#000000" fill-rule="evenodd" fill-opacity="1" /><path clip-path="url(#clip600)" d="M792.316 695.263 Q792.316 698.874 795.88 700.702 Q799.422 702.508 806.552 702.508 Q813.658 702.508 817.223 700.702 Q820.764 698.874 820.764 695.263 Q820.764 691.628 817.223 689.823 Q813.658 687.994 806.552 687.994 Q799.422 687.994 795.88 689.823 Q792.316 691.628 792.316 695.263 M788.612 695.263 Q788.612 689.452 793.218 686.397 Q797.802 683.318 806.552 683.318 Q815.278 683.318 819.885 686.397 Q824.468 689.452 824.468 695.263 Q824.468 701.073 819.885 704.151 Q815.278 707.207 806.552 707.207 Q797.802 707.207 793.218 704.151 Q788.612 701.073 788.612 695.263 Z" fill="#000000" fill-rule="evenodd" fill-opacity="1" /><path clip-path="url(#clip600)" d="M817.917 675.101 L817.917 670.216 L823.797 670.216 L823.797 675.101 L817.917 675.101 Z" fill="#000000" fill-rule="evenodd" fill-opacity="1" /><path clip-path="url(#clip600)" d="M807.385 650.031 Q807.385 653.365 809.167 655.286 Q810.95 657.184 814.075 657.184 Q817.2 657.184 818.982 655.286 Q820.764 653.365 820.764 650.031 Q820.764 646.698 818.982 644.777 Q817.177 642.855 814.075 642.855 Q810.95 642.855 809.167 644.777 Q807.385 646.675 807.385 650.031 M805.394 654.707 Q804.653 657.716 802.593 659.406 Q800.533 661.073 797.57 661.073 Q793.427 661.073 791.019 658.133 Q788.612 655.17 788.612 650.031 Q788.612 644.869 791.019 641.93 Q793.427 638.99 797.57 638.99 Q800.533 638.99 802.593 640.68 Q804.653 642.346 805.394 645.332 Q806.181 641.953 808.473 640.078 Q810.765 638.18 814.075 638.18 Q819.098 638.18 821.783 641.258 Q824.468 644.314 824.468 650.031 Q824.468 655.749 821.783 658.828 Q819.098 661.883 814.075 661.883 Q810.765 661.883 808.473 659.985 Q806.181 658.087 805.394 654.707 M798.01 656.42 Q800.695 656.42 802.2 654.754 Q803.704 653.064 803.704 650.031 Q803.704 647.022 802.2 645.332 Q800.695 643.619 798.01 643.619 Q795.325 643.619 793.82 645.332 Q792.316 647.022 792.316 650.031 Q792.316 653.064 793.82 654.754 Q795.325 656.42 798.01 656.42 Z" fill="#000000" fill-rule="evenodd" fill-opacity="1" /><path clip-path="url(#clip600)" d="M789.237 631.05 L789.237 608.828 L791.228 608.828 L823.797 621.374 L823.797 626.258 L793.172 614.453 L793.172 631.05 L789.237 631.05 Z" fill="#000000" fill-rule="evenodd" fill-opacity="1" /><path clip-path="url(#clip600)" d="M712.353 696.073 Q712.353 699.684 715.918 701.513 Q719.459 703.318 726.589 703.318 Q733.695 703.318 737.26 701.513 Q740.802 699.684 740.802 696.073 Q740.802 692.439 737.26 690.633 Q733.695 688.804 726.589 688.804 Q719.459 688.804 715.918 690.633 Q712.353 692.439 712.353 696.073 M708.649 696.073 Q708.649 690.263 713.255 687.207 Q717.839 684.128 726.589 684.128 Q735.316 684.128 739.922 687.207 Q744.505 690.263 744.505 696.073 Q744.505 701.883 739.922 704.962 Q735.316 708.017 726.589 708.017 Q717.839 708.017 713.255 704.962 Q708.649 701.883 708.649 696.073 Z" fill="#000000" fill-rule="evenodd" fill-opacity="1" /><path clip-path="url(#clip600)" d="M737.954 675.911 L737.954 671.027 L743.834 671.027 L743.834 675.911 L737.954 675.911 Z" fill="#000000" fill-rule="evenodd" fill-opacity="1" /><path clip-path="url(#clip600)" d="M727.422 650.842 Q727.422 654.175 729.204 656.096 Q730.987 657.994 734.112 657.994 Q737.237 657.994 739.019 656.096 Q740.802 654.175 740.802 650.842 Q740.802 647.508 739.019 645.587 Q737.214 643.666 734.112 643.666 Q730.987 643.666 729.204 645.587 Q727.422 647.485 727.422 650.842 M725.431 655.517 Q724.691 658.527 722.63 660.216 Q720.57 661.883 717.607 661.883 Q713.464 661.883 711.056 658.943 Q708.649 655.98 708.649 650.842 Q708.649 645.68 711.056 642.74 Q713.464 639.8 717.607 639.8 Q720.57 639.8 722.63 641.49 Q724.691 643.156 725.431 646.142 Q726.218 642.763 728.51 640.888 Q730.802 638.99 734.112 638.99 Q739.135 638.99 741.82 642.068 Q744.505 645.124 744.505 650.842 Q744.505 656.559 741.82 659.638 Q739.135 662.693 734.112 662.693 Q730.802 662.693 728.51 660.795 Q726.218 658.897 725.431 655.517 M718.047 657.23 Q720.732 657.23 722.237 655.564 Q723.742 653.874 723.742 650.842 Q723.742 647.832 722.237 646.142 Q720.732 644.43 718.047 644.43 Q715.362 644.43 713.857 646.142 Q712.353 647.832 712.353 650.842 Q712.353 653.874 713.857 655.564 Q715.362 657.23 718.047 657.23 Z" fill="#000000" fill-rule="evenodd" fill-opacity="1" /><path clip-path="url(#clip600)" d="M727.422 620.68 Q727.422 624.013 729.204 625.934 Q730.987 627.832 734.112 627.832 Q737.237 627.832 739.019 625.934 Q740.802 624.013 740.802 620.68 Q740.802 617.346 739.019 615.425 Q737.214 613.504 734.112 613.504 Q730.987 613.504 729.204 615.425 Q727.422 617.323 727.422 620.68 M725.431 625.356 Q724.691 628.365 722.63 630.055 Q720.57 631.721 717.607 631.721 Q713.464 631.721 711.056 628.781 Q708.649 625.819 708.649 620.68 Q708.649 615.518 711.056 612.578 Q713.464 609.638 717.607 609.638 Q720.57 609.638 722.63 611.328 Q724.691 612.994 725.431 615.981 Q726.218 612.601 728.51 610.726 Q730.802 608.828 734.112 608.828 Q739.135 608.828 741.82 611.907 Q744.505 614.962 744.505 620.68 Q744.505 626.397 741.82 629.476 Q739.135 632.531 734.112 632.531 Q730.802 632.531 728.51 630.633 Q726.218 628.735 725.431 625.356 M718.047 627.068 Q720.732 627.068 722.237 625.402 Q723.742 623.712 723.742 620.68 Q723.742 617.67 722.237 615.981 Q720.732 614.268 718.047 614.268 Q715.362 614.268 713.857 615.981 Q712.353 617.67 712.353 620.68 Q712.353 623.712 713.857 625.402 Q715.362 627.068 718.047 627.068 Z" fill="#000000" fill-rule="evenodd" fill-opacity="1" /><path clip-path="url(#clip600)" d="M632.39 695.98 Q632.39 699.591 635.955 701.42 Q639.496 703.225 646.626 703.225 Q653.732 703.225 657.297 701.42 Q660.839 699.591 660.839 695.98 Q660.839 692.346 657.297 690.54 Q653.732 688.712 646.626 688.712 Q639.496 688.712 635.955 690.54 Q632.39 692.346 632.39 695.98 M628.686 695.98 Q628.686 690.17 633.293 687.114 Q637.876 684.036 646.626 684.036 Q655.353 684.036 659.959 687.114 Q664.543 690.17 664.543 695.98 Q664.543 701.79 659.959 704.869 Q655.353 707.925 646.626 707.925 Q637.876 707.925 633.293 704.869 Q628.686 701.79 628.686 695.98 Z" fill="#000000" fill-rule="evenodd" fill-opacity="1" /><path clip-path="url(#clip600)" d="M657.992 675.818 L657.992 670.934 L663.871 670.934 L663.871 675.818 L657.992 675.818 Z" fill="#000000" fill-rule="evenodd" fill-opacity="1" /><path clip-path="url(#clip600)" d="M647.459 650.749 Q647.459 654.082 649.242 656.004 Q651.024 657.902 654.149 657.902 Q657.274 657.902 659.056 656.004 Q660.839 654.082 660.839 650.749 Q660.839 647.416 659.056 645.494 Q657.251 643.573 654.149 643.573 Q651.024 643.573 649.242 645.494 Q647.459 647.392 647.459 650.749 M645.469 655.425 Q644.728 658.434 642.668 660.124 Q640.607 661.791 637.645 661.791 Q633.501 661.791 631.094 658.851 Q628.686 655.888 628.686 650.749 Q628.686 645.587 631.094 642.647 Q633.501 639.707 637.645 639.707 Q640.607 639.707 642.668 641.397 Q644.728 643.064 645.469 646.05 Q646.256 642.67 648.547 640.795 Q650.839 638.897 654.149 638.897 Q659.172 638.897 661.857 641.976 Q664.543 645.031 664.543 650.749 Q664.543 656.466 661.857 659.545 Q659.172 662.601 654.149 662.601 Q650.839 662.601 648.547 660.703 Q646.256 658.804 645.469 655.425 M638.084 657.138 Q640.769 657.138 642.274 655.471 Q643.779 653.781 643.779 650.749 Q643.779 647.74 642.274 646.05 Q640.769 644.337 638.084 644.337 Q635.399 644.337 633.895 646.05 Q632.39 647.74 632.39 650.749 Q632.39 653.781 633.895 655.471 Q635.399 657.138 638.084 657.138 Z" fill="#000000" fill-rule="evenodd" fill-opacity="1" /><path clip-path="url(#clip600)" d="M663.154 630.448 L658.894 630.448 Q659.728 628.689 660.168 626.883 Q660.607 625.078 660.607 623.342 Q660.607 618.712 657.506 616.282 Q654.381 613.828 648.038 613.481 Q650.029 614.823 651.094 616.883 Q652.158 618.944 652.158 621.444 Q652.158 626.629 649.033 629.661 Q645.885 632.67 640.445 632.67 Q635.121 632.67 631.904 629.522 Q628.686 626.374 628.686 621.143 Q628.686 615.147 633.293 611.999 Q637.876 608.828 646.626 608.828 Q654.797 608.828 659.681 612.717 Q664.543 616.582 664.543 623.133 Q664.543 624.893 664.195 626.698 Q663.848 628.504 663.154 630.448 M648.501 621.143 Q648.501 617.994 646.348 616.166 Q644.195 614.314 640.445 614.314 Q636.719 614.314 634.566 616.166 Q632.39 617.994 632.39 621.143 Q632.39 624.291 634.566 626.143 Q636.719 627.971 640.445 627.971 Q644.195 627.971 646.348 626.143 Q648.501 624.291 648.501 621.143 Z" fill="#000000" fill-rule="evenodd" fill-opacity="1" /><path clip-path="url(#clip600)" d="M552.427 696.165 Q552.427 699.776 555.992 701.605 Q559.534 703.411 566.663 703.411 Q573.77 703.411 577.334 701.605 Q580.876 699.776 580.876 696.165 Q580.876 692.531 577.334 690.726 Q573.77 688.897 566.663 688.897 Q559.534 688.897 555.992 690.726 Q552.427 692.531 552.427 696.165 M548.723 696.165 Q548.723 690.355 553.33 687.3 Q557.913 684.221 566.663 684.221 Q575.39 684.221 579.996 687.3 Q584.58 690.355 584.58 696.165 Q584.58 701.976 579.996 705.054 Q575.39 708.11 566.663 708.11 Q557.913 708.11 553.33 705.054 Q548.723 701.976 548.723 696.165 Z" fill="#000000" fill-rule="evenodd" fill-opacity="1" /><path clip-path="url(#clip600)" d="M578.029 676.003 L578.029 671.119 L583.908 671.119 L583.908 676.003 L578.029 676.003 Z" fill="#000000" fill-rule="evenodd" fill-opacity="1" /><path clip-path="url(#clip600)" d="M583.191 660.795 L578.932 660.795 Q579.765 659.036 580.205 657.23 Q580.645 655.425 580.645 653.689 Q580.645 649.059 577.543 646.629 Q574.418 644.175 568.075 643.828 Q570.066 645.17 571.131 647.23 Q572.195 649.291 572.195 651.791 Q572.195 656.976 569.071 660.008 Q565.922 663.017 560.483 663.017 Q555.159 663.017 551.941 659.869 Q548.723 656.721 548.723 651.49 Q548.723 645.494 553.33 642.346 Q557.913 639.175 566.663 639.175 Q574.834 639.175 579.719 643.064 Q584.58 646.93 584.58 653.48 Q584.58 655.24 584.232 657.045 Q583.885 658.851 583.191 660.795 M568.538 651.49 Q568.538 648.342 566.385 646.513 Q564.233 644.661 560.483 644.661 Q556.756 644.661 554.603 646.513 Q552.427 648.342 552.427 651.49 Q552.427 654.638 554.603 656.49 Q556.756 658.318 560.483 658.318 Q564.233 658.318 566.385 656.49 Q568.538 654.638 568.538 651.49 Z" fill="#000000" fill-rule="evenodd" fill-opacity="1" /><path clip-path="url(#clip600)" d="M552.427 620.772 Q552.427 624.383 555.992 626.212 Q559.534 628.018 566.663 628.018 Q573.77 628.018 577.334 626.212 Q580.876 624.383 580.876 620.772 Q580.876 617.138 577.334 615.332 Q573.77 613.504 566.663 613.504 Q559.534 613.504 555.992 615.332 Q552.427 617.138 552.427 620.772 M548.723 620.772 Q548.723 614.962 553.33 611.907 Q557.913 608.828 566.663 608.828 Q575.39 608.828 579.996 611.907 Q584.58 614.962 584.58 620.772 Q584.58 626.582 579.996 629.661 Q575.39 632.717 566.663 632.717 Q557.913 632.717 553.33 629.661 Q548.723 626.582 548.723 620.772 Z" fill="#000000" fill-rule="evenodd" fill-opacity="1" /><path clip-path="url(#clip600)" d="M472.464 694.939 Q472.464 698.55 476.029 700.378 Q479.571 702.184 486.7 702.184 Q493.807 702.184 497.372 700.378 Q500.913 698.55 500.913 694.939 Q500.913 691.304 497.372 689.499 Q493.807 687.67 486.7 687.67 Q479.571 687.67 476.029 689.499 Q472.464 691.304 472.464 694.939 M468.761 694.939 Q468.761 689.128 473.367 686.073 Q477.95 682.994 486.7 682.994 Q495.427 682.994 500.034 686.073 Q504.617 689.128 504.617 694.939 Q504.617 700.749 500.034 703.827 Q495.427 706.883 486.7 706.883 Q477.95 706.883 473.367 703.827 Q468.761 700.749 468.761 694.939 Z" fill="#000000" fill-rule="evenodd" fill-opacity="1" /><path clip-path="url(#clip600)" d="M498.066 674.777 L498.066 669.892 L503.946 669.892 L503.946 674.777 L498.066 674.777 Z" fill="#000000" fill-rule="evenodd" fill-opacity="1" /><path clip-path="url(#clip600)" d="M503.228 659.568 L498.969 659.568 Q499.802 657.809 500.242 656.004 Q500.682 654.198 500.682 652.462 Q500.682 647.832 497.58 645.402 Q494.455 642.948 488.112 642.601 Q490.103 643.943 491.168 646.004 Q492.233 648.064 492.233 650.564 Q492.233 655.749 489.108 658.781 Q485.96 661.791 480.52 661.791 Q475.196 661.791 471.978 658.642 Q468.761 655.494 468.761 650.263 Q468.761 644.267 473.367 641.119 Q477.95 637.948 486.7 637.948 Q494.872 637.948 499.756 641.837 Q504.617 645.703 504.617 652.254 Q504.617 654.013 504.27 655.818 Q503.922 657.624 503.228 659.568 M488.575 650.263 Q488.575 647.115 486.423 645.286 Q484.27 643.434 480.52 643.434 Q476.793 643.434 474.64 645.286 Q472.464 647.115 472.464 650.263 Q472.464 653.411 474.64 655.263 Q476.793 657.091 480.52 657.091 Q484.27 657.091 486.423 655.263 Q488.575 653.411 488.575 650.263 Z" fill="#000000" fill-rule="evenodd" fill-opacity="1" /><path clip-path="url(#clip600)" d="M500.01 628.735 L500.01 621.096 L473.645 621.096 L475.311 629.406 L471.052 629.406 L469.386 621.143 L469.386 616.467 L500.01 616.467 L500.01 608.828 L503.946 608.828 L503.946 628.735 L500.01 628.735 Z" fill="#000000" fill-rule="evenodd" fill-opacity="1" /><path clip-path="url(#clip600)" d="M392.501 694.568 Q392.501 698.179 396.066 700.008 Q399.608 701.813 406.737 701.813 Q413.844 701.813 417.409 700.008 Q420.95 698.179 420.95 694.568 Q420.95 690.934 417.409 689.128 Q413.844 687.3 406.737 687.3 Q399.608 687.3 396.066 689.128 Q392.501 690.934 392.501 694.568 M388.798 694.568 Q388.798 688.758 393.404 685.702 Q397.988 682.624 406.737 682.624 Q415.464 682.624 420.071 685.702 Q424.654 688.758 424.654 694.568 Q424.654 700.378 420.071 703.457 Q415.464 706.513 406.737 706.513 Q397.988 706.513 393.404 703.457 Q388.798 700.378 388.798 694.568 Z" fill="#000000" fill-rule="evenodd" fill-opacity="1" /><path clip-path="url(#clip600)" d="M418.103 674.406 L418.103 669.522 L423.983 669.522 L423.983 674.406 L418.103 674.406 Z" fill="#000000" fill-rule="evenodd" fill-opacity="1" /><path clip-path="url(#clip600)" d="M423.265 659.198 L419.006 659.198 Q419.839 657.439 420.279 655.633 Q420.719 653.828 420.719 652.092 Q420.719 647.462 417.617 645.031 Q414.492 642.578 408.149 642.23 Q410.14 643.573 411.205 645.633 Q412.27 647.693 412.27 650.193 Q412.27 655.379 409.145 658.411 Q405.997 661.42 400.557 661.42 Q395.233 661.42 392.015 658.272 Q388.798 655.124 388.798 649.892 Q388.798 643.897 393.404 640.749 Q397.988 637.578 406.737 637.578 Q414.909 637.578 419.793 641.467 Q424.654 645.332 424.654 651.883 Q424.654 653.642 424.307 655.448 Q423.96 657.254 423.265 659.198 M408.612 649.892 Q408.612 646.744 406.46 644.916 Q404.307 643.064 400.557 643.064 Q396.83 643.064 394.677 644.916 Q392.501 646.744 392.501 649.892 Q392.501 653.041 394.677 654.892 Q396.83 656.721 400.557 656.721 Q404.307 656.721 406.46 654.892 Q408.612 653.041 408.612 649.892 Z" fill="#000000" fill-rule="evenodd" fill-opacity="1" /><path clip-path="url(#clip600)" d="M420.048 625.147 L420.048 608.828 L423.983 608.828 L423.983 630.772 L420.048 630.772 Q417.293 628.11 412.663 623.527 Q408.011 618.92 406.668 617.74 Q404.145 615.494 402.409 614.615 Q400.65 613.712 398.96 613.712 Q396.205 613.712 394.469 615.657 Q392.733 617.578 392.733 620.68 Q392.733 622.879 393.497 625.332 Q394.261 627.763 395.812 630.541 L391.089 630.541 Q389.955 627.717 389.376 625.263 Q388.798 622.809 388.798 620.772 Q388.798 615.402 391.483 612.207 Q394.168 609.013 398.659 609.013 Q400.788 609.013 402.71 609.823 Q404.608 610.61 407.2 612.717 Q407.872 613.295 411.089 616.397 Q414.284 619.499 420.048 625.147 Z" fill="#000000" fill-rule="evenodd" fill-opacity="1" /><path clip-path="url(#clip600)" d="M312.539 695.517 Q312.539 699.128 316.103 700.957 Q319.645 702.763 326.775 702.763 Q333.881 702.763 337.446 700.957 Q340.988 699.128 340.988 695.517 Q340.988 691.883 337.446 690.077 Q333.881 688.249 326.775 688.249 Q319.645 688.249 316.103 690.077 Q312.539 691.883 312.539 695.517 M308.835 695.517 Q308.835 689.707 313.441 686.652 Q318.025 683.573 326.775 683.573 Q335.501 683.573 340.108 686.652 Q344.691 689.707 344.691 695.517 Q344.691 701.327 340.108 704.406 Q335.501 707.462 326.775 707.462 Q318.025 707.462 313.441 704.406 Q308.835 701.327 308.835 695.517 Z" fill="#000000" fill-rule="evenodd" fill-opacity="1" /><path clip-path="url(#clip600)" d="M338.14 675.355 L338.14 670.471 L344.02 670.471 L344.02 675.355 L338.14 675.355 Z" fill="#000000" fill-rule="evenodd" fill-opacity="1" /><path clip-path="url(#clip600)" d="M343.302 660.147 L339.043 660.147 Q339.876 658.388 340.316 656.582 Q340.756 654.777 340.756 653.041 Q340.756 648.411 337.654 645.98 Q334.529 643.527 328.187 643.18 Q330.177 644.522 331.242 646.582 Q332.307 648.642 332.307 651.142 Q332.307 656.328 329.182 659.36 Q326.034 662.369 320.594 662.369 Q315.27 662.369 312.052 659.221 Q308.835 656.073 308.835 650.842 Q308.835 644.846 313.441 641.698 Q318.025 638.527 326.775 638.527 Q334.946 638.527 339.83 642.416 Q344.691 646.281 344.691 652.832 Q344.691 654.591 344.344 656.397 Q343.997 658.203 343.302 660.147 M328.65 650.842 Q328.65 647.693 326.497 645.865 Q324.344 644.013 320.594 644.013 Q316.867 644.013 314.715 645.865 Q312.539 647.693 312.539 650.842 Q312.539 653.99 314.715 655.841 Q316.867 657.67 320.594 657.67 Q324.344 657.67 326.497 655.841 Q328.65 653.99 328.65 650.842 Z" fill="#000000" fill-rule="evenodd" fill-opacity="1" /><path clip-path="url(#clip600)" d="M325.386 615.957 Q326.103 612.601 328.372 610.726 Q330.64 608.828 333.974 608.828 Q339.089 608.828 341.89 612.346 Q344.691 615.865 344.691 622.346 Q344.691 624.522 344.251 626.837 Q343.835 629.129 342.978 631.582 L338.464 631.582 Q339.599 629.638 340.177 627.323 Q340.756 625.008 340.756 622.485 Q340.756 618.087 339.02 615.795 Q337.284 613.481 333.974 613.481 Q330.918 613.481 329.205 615.633 Q327.469 617.763 327.469 621.582 L327.469 625.61 L323.626 625.61 L323.626 621.397 Q323.626 617.948 322.261 616.119 Q320.872 614.291 318.279 614.291 Q315.617 614.291 314.205 616.189 Q312.77 618.064 312.77 621.582 Q312.77 623.504 313.187 625.703 Q313.603 627.902 314.483 630.541 L310.316 630.541 Q309.576 627.879 309.205 625.564 Q308.835 623.226 308.835 621.166 Q308.835 615.842 311.265 612.74 Q313.673 609.638 317.793 609.638 Q320.664 609.638 322.654 611.282 Q324.622 612.925 325.386 615.957 Z" fill="#000000" fill-rule="evenodd" fill-opacity="1" /><path clip-path="url(#clip600)" d="M232.576 696.651 Q232.576 700.263 236.141 702.091 Q239.682 703.897 246.812 703.897 Q253.918 703.897 257.483 702.091 Q261.025 700.263 261.025 696.651 Q261.025 693.017 257.483 691.212 Q253.918 689.383 246.812 689.383 Q239.682 689.383 236.141 691.212 Q232.576 693.017 232.576 696.651 M228.872 696.651 Q228.872 690.841 233.479 687.786 Q238.062 684.707 246.812 684.707 Q255.539 684.707 260.145 687.786 Q264.728 690.841 264.728 696.651 Q264.728 702.462 260.145 705.54 Q255.539 708.596 246.812 708.596 Q238.062 708.596 233.479 705.54 Q228.872 702.462 228.872 696.651 Z" fill="#000000" fill-rule="evenodd" fill-opacity="1" /><path clip-path="url(#clip600)" d="M258.177 676.49 L258.177 671.605 L264.057 671.605 L264.057 676.49 L258.177 676.49 Z" fill="#000000" fill-rule="evenodd" fill-opacity="1" /><path clip-path="url(#clip600)" d="M263.339 661.281 L259.08 661.281 Q259.914 659.522 260.353 657.716 Q260.793 655.911 260.793 654.175 Q260.793 649.545 257.691 647.115 Q254.566 644.661 248.224 644.314 Q250.215 645.656 251.279 647.717 Q252.344 649.777 252.344 652.277 Q252.344 657.462 249.219 660.494 Q246.071 663.503 240.631 663.503 Q235.307 663.503 232.09 660.355 Q228.872 657.207 228.872 651.976 Q228.872 645.98 233.479 642.832 Q238.062 639.661 246.812 639.661 Q254.983 639.661 259.867 643.55 Q264.728 647.416 264.728 653.967 Q264.728 655.726 264.381 657.531 Q264.034 659.337 263.339 661.281 M248.687 651.976 Q248.687 648.828 246.534 646.999 Q244.381 645.147 240.631 645.147 Q236.904 645.147 234.752 646.999 Q232.576 648.828 232.576 651.976 Q232.576 655.124 234.752 656.976 Q236.904 658.804 240.631 658.804 Q244.381 658.804 246.534 656.976 Q248.687 655.124 248.687 651.976 Z" fill="#000000" fill-rule="evenodd" fill-opacity="1" /><path clip-path="url(#clip600)" d="M233.571 618.411 L252.02 630.217 L252.02 618.411 L233.571 618.411 M229.497 619.638 L229.497 613.758 L252.02 613.758 L252.02 608.828 L255.909 608.828 L255.909 613.758 L264.057 613.758 L264.057 618.411 L255.909 618.411 L255.909 634.013 L251.395 634.013 L229.497 619.638 Z" fill="#000000" fill-rule="evenodd" fill-opacity="1" /><path clip-path="url(#clip600)" d="M677.056 771.824 L677.056 787.579 L671.168 787.579 L671.168 738.595 Q671.168 724.081 684.727 724.081 Q698.54 724.081 698.54 736.335 Q698.54 745.056 693.066 748.239 Q701.978 751.103 701.978 759.602 Q701.978 774.688 686.636 774.688 Q679.889 774.688 677.056 771.824 M677.056 764.185 Q680.589 769.691 686.859 769.691 Q696.026 769.691 696.026 759.697 Q696.026 750.721 681.257 751.422 L681.257 746.011 Q692.811 746.011 692.811 735.826 Q692.811 728.855 685.363 728.855 Q677.056 728.855 677.056 738.786 L677.056 764.185 Z" fill="#000000" fill-rule="evenodd" fill-opacity="1" /><polyline clip-path="url(#clip602)" style="stroke:#000000; stroke-linecap:round; stroke-linejoin:round; stroke-width:2; stroke-opacity:0.1; fill:none" points="
  1152.76,584.126 220.389,584.126 
  "/>
<polyline clip-path="url(#clip602)" style="stroke:#000000; stroke-linecap:round; stroke-linejoin:round; stroke-width:2; stroke-opacity:0.1; fill:none" points="
  1152.76,458.281 220.389,458.281 
  "/>
<polyline clip-path="url(#clip602)" style="stroke:#000000; stroke-linecap:round; stroke-linejoin:round; stroke-width:2; stroke-opacity:0.1; fill:none" points="
  1152.76,332.436 220.389,332.436 
  "/>
<polyline clip-path="url(#clip602)" style="stroke:#000000; stroke-linecap:round; stroke-linejoin:round; stroke-width:2; stroke-opacity:0.1; fill:none" points="
  1152.76,206.59 220.389,206.59 
  "/>
<polyline clip-path="url(#clip602)" style="stroke:#000000; stroke-linecap:round; stroke-linejoin:round; stroke-width:2; stroke-opacity:0.1; fill:none" points="
  1152.76,80.745 220.389,80.745 
  "/>
<polyline clip-path="url(#clip600)" style="stroke:#000000; stroke-linecap:round; stroke-linejoin:round; stroke-width:4; stroke-opacity:1; fill:none" points="
  220.389,599.228 220.389,65.6436 
  "/>
<polyline clip-path="url(#clip600)" style="stroke:#000000; stroke-linecap:round; stroke-linejoin:round; stroke-width:4; stroke-opacity:1; fill:none" points="
  220.389,584.126 239.287,584.126 
  "/>
<polyline clip-path="url(#clip600)" style="stroke:#000000; stroke-linecap:round; stroke-linejoin:round; stroke-width:4; stroke-opacity:1; fill:none" points="
  220.389,458.281 239.287,458.281 
  "/>
<polyline clip-path="url(#clip600)" style="stroke:#000000; stroke-linecap:round; stroke-linejoin:round; stroke-width:4; stroke-opacity:1; fill:none" points="
  220.389,332.436 239.287,332.436 
  "/>
<polyline clip-path="url(#clip600)" style="stroke:#000000; stroke-linecap:round; stroke-linejoin:round; stroke-width:4; stroke-opacity:1; fill:none" points="
  220.389,206.59 239.287,206.59 
  "/>
<polyline clip-path="url(#clip600)" style="stroke:#000000; stroke-linecap:round; stroke-linejoin:round; stroke-width:4; stroke-opacity:1; fill:none" points="
  220.389,80.745 239.287,80.745 
  "/>
<path clip-path="url(#clip600)" d="M190.445 569.925 Q186.834 569.925 185.005 573.49 Q183.2 577.032 183.2 584.161 Q183.2 591.268 185.005 594.832 Q186.834 598.374 190.445 598.374 Q194.079 598.374 195.885 594.832 Q197.713 591.268 197.713 584.161 Q197.713 577.032 195.885 573.49 Q194.079 569.925 190.445 569.925 M190.445 566.221 Q196.255 566.221 199.311 570.828 Q202.389 575.411 202.389 584.161 Q202.389 592.888 199.311 597.494 Q196.255 602.078 190.445 602.078 Q184.635 602.078 181.556 597.494 Q178.501 592.888 178.501 584.161 Q178.501 575.411 181.556 570.828 Q184.635 566.221 190.445 566.221 Z" fill="#000000" fill-rule="evenodd" fill-opacity="1" /><path clip-path="url(#clip600)" d="M155.306 471.626 L171.626 471.626 L171.626 475.561 L149.681 475.561 L149.681 471.626 Q152.343 468.871 156.927 464.242 Q161.533 459.589 162.714 458.246 Q164.959 455.723 165.839 453.987 Q166.741 452.228 166.741 450.538 Q166.741 447.783 164.797 446.047 Q162.876 444.311 159.774 444.311 Q157.575 444.311 155.121 445.075 Q152.691 445.839 149.913 447.39 L149.913 442.668 Q152.737 441.533 155.191 440.955 Q157.644 440.376 159.681 440.376 Q165.052 440.376 168.246 443.061 Q171.44 445.746 171.44 450.237 Q171.44 452.367 170.63 454.288 Q169.843 456.186 167.737 458.779 Q167.158 459.45 164.056 462.668 Q160.954 465.862 155.306 471.626 Z" fill="#000000" fill-rule="evenodd" fill-opacity="1" /><path clip-path="url(#clip600)" d="M181.487 441.001 L199.843 441.001 L199.843 444.936 L185.769 444.936 L185.769 453.408 Q186.788 453.061 187.806 452.899 Q188.825 452.714 189.843 452.714 Q195.63 452.714 199.01 455.885 Q202.389 459.057 202.389 464.473 Q202.389 470.052 198.917 473.154 Q195.445 476.232 189.126 476.232 Q186.95 476.232 184.681 475.862 Q182.436 475.492 180.028 474.751 L180.028 470.052 Q182.112 471.186 184.334 471.742 Q186.556 472.297 189.033 472.297 Q193.038 472.297 195.375 470.191 Q197.713 468.084 197.713 464.473 Q197.713 460.862 195.375 458.756 Q193.038 456.649 189.033 456.649 Q187.158 456.649 185.283 457.066 Q183.431 457.482 181.487 458.362 L181.487 441.001 Z" fill="#000000" fill-rule="evenodd" fill-opacity="1" /><path clip-path="url(#clip600)" d="M150.329 315.156 L168.686 315.156 L168.686 319.091 L154.612 319.091 L154.612 327.563 Q155.63 327.216 156.649 327.054 Q157.667 326.869 158.686 326.869 Q164.473 326.869 167.852 330.04 Q171.232 333.211 171.232 338.628 Q171.232 344.206 167.76 347.308 Q164.288 350.387 157.968 350.387 Q155.792 350.387 153.524 350.017 Q151.279 349.646 148.871 348.906 L148.871 344.206 Q150.954 345.341 153.177 345.896 Q155.399 346.452 157.876 346.452 Q161.88 346.452 164.218 344.345 Q166.556 342.239 166.556 338.628 Q166.556 335.017 164.218 332.91 Q161.88 330.804 157.876 330.804 Q156.001 330.804 154.126 331.22 Q152.274 331.637 150.329 332.517 L150.329 315.156 Z" fill="#000000" fill-rule="evenodd" fill-opacity="1" /><path clip-path="url(#clip600)" d="M190.445 318.234 Q186.834 318.234 185.005 321.799 Q183.2 325.341 183.2 332.47 Q183.2 339.577 185.005 343.142 Q186.834 346.683 190.445 346.683 Q194.079 346.683 195.885 343.142 Q197.713 339.577 197.713 332.47 Q197.713 325.341 195.885 321.799 Q194.079 318.234 190.445 318.234 M190.445 314.531 Q196.255 314.531 199.311 319.137 Q202.389 323.72 202.389 332.47 Q202.389 341.197 199.311 345.804 Q196.255 350.387 190.445 350.387 Q184.635 350.387 181.556 345.804 Q178.501 341.197 178.501 332.47 Q178.501 323.72 181.556 319.137 Q184.635 314.531 190.445 314.531 Z" fill="#000000" fill-rule="evenodd" fill-opacity="1" /><path clip-path="url(#clip600)" d="M150.098 189.31 L172.32 189.31 L172.32 191.301 L159.774 223.87 L154.89 223.87 L166.695 193.246 L150.098 193.246 L150.098 189.31 Z" fill="#000000" fill-rule="evenodd" fill-opacity="1" /><path clip-path="url(#clip600)" d="M181.487 189.31 L199.843 189.31 L199.843 193.246 L185.769 193.246 L185.769 201.718 Q186.788 201.37 187.806 201.208 Q188.825 201.023 189.843 201.023 Q195.63 201.023 199.01 204.195 Q202.389 207.366 202.389 212.782 Q202.389 218.361 198.917 221.463 Q195.445 224.542 189.126 224.542 Q186.95 224.542 184.681 224.171 Q182.436 223.801 180.028 223.06 L180.028 218.361 Q182.112 219.495 184.334 220.051 Q186.556 220.606 189.033 220.606 Q193.038 220.606 195.375 218.5 Q197.713 216.394 197.713 212.782 Q197.713 209.171 195.375 207.065 Q193.038 204.958 189.033 204.958 Q187.158 204.958 185.283 205.375 Q183.431 205.792 181.487 206.671 L181.487 189.31 Z" fill="#000000" fill-rule="evenodd" fill-opacity="1" /><path clip-path="url(#clip600)" d="M120.931 94.0898 L128.57 94.0898 L128.57 67.7242 L120.26 69.3909 L120.26 65.1317 L128.524 63.465 L133.2 63.465 L133.2 94.0898 L140.839 94.0898 L140.839 98.025 L120.931 98.025 L120.931 94.0898 Z" fill="#000000" fill-rule="evenodd" fill-opacity="1" /><path clip-path="url(#clip600)" d="M160.283 66.5437 Q156.672 66.5437 154.843 70.1085 Q153.038 73.6501 153.038 80.7797 Q153.038 87.8862 154.843 91.451 Q156.672 94.9926 160.283 94.9926 Q163.917 94.9926 165.723 91.451 Q167.552 87.8862 167.552 80.7797 Q167.552 73.6501 165.723 70.1085 Q163.917 66.5437 160.283 66.5437 M160.283 62.84 Q166.093 62.84 169.149 67.4465 Q172.227 72.0298 172.227 80.7797 Q172.227 89.5065 169.149 94.113 Q166.093 98.6963 160.283 98.6963 Q154.473 98.6963 151.394 94.113 Q148.339 89.5065 148.339 80.7797 Q148.339 72.0298 151.394 67.4465 Q154.473 62.84 160.283 62.84 Z" fill="#000000" fill-rule="evenodd" fill-opacity="1" /><path clip-path="url(#clip600)" d="M190.445 66.5437 Q186.834 66.5437 185.005 70.1085 Q183.2 73.6501 183.2 80.7797 Q183.2 87.8862 185.005 91.451 Q186.834 94.9926 190.445 94.9926 Q194.079 94.9926 195.885 91.451 Q197.713 87.8862 197.713 80.7797 Q197.713 73.6501 195.885 70.1085 Q194.079 66.5437 190.445 66.5437 M190.445 62.84 Q196.255 62.84 199.311 67.4465 Q202.389 72.0298 202.389 80.7797 Q202.389 89.5065 199.311 94.113 Q196.255 98.6963 190.445 98.6963 Q184.635 98.6963 181.556 94.113 Q178.501 89.5065 178.501 80.7797 Q178.501 72.0298 181.556 67.4465 Q184.635 62.84 190.445 62.84 Z" fill="#000000" fill-rule="evenodd" fill-opacity="1" /><path clip-path="url(#clip600)" d="M45.7677 646.058 L63.6235 646.058 L63.6235 637.974 Q63.6235 633.486 61.3 631.035 Q58.9765 628.584 54.6797 628.584 Q50.4147 628.584 48.0912 631.035 Q45.7677 633.486 45.7677 637.974 L45.7677 646.058 M40.4842 652.488 L40.4842 637.974 Q40.4842 629.985 44.1126 625.911 Q47.7092 621.805 54.6797 621.805 Q61.7138 621.805 65.3104 625.911 Q68.907 629.985 68.907 637.974 L68.907 646.058 L88.0042 646.058 L88.0042 652.488 L40.4842 652.488 Z" fill="#000000" fill-rule="evenodd" fill-opacity="1" /><path clip-path="url(#clip600)" d="M68.7161 585.266 L71.5806 585.266 L71.5806 612.193 Q77.6281 611.811 80.8109 608.564 Q83.9619 605.286 83.9619 599.461 Q83.9619 596.087 83.1344 592.936 Q82.3069 589.753 80.6518 586.634 L86.1899 586.634 Q87.5267 589.785 88.227 593.095 Q88.9272 596.406 88.9272 599.811 Q88.9272 608.341 83.9619 613.338 Q78.9967 618.304 70.5303 618.304 Q61.7774 618.304 56.6531 613.593 Q51.4968 608.851 51.4968 600.83 Q51.4968 593.637 56.1438 589.467 Q60.7589 585.266 68.7161 585.266 M66.9973 591.122 Q62.1912 591.186 59.3266 593.828 Q56.4621 596.437 56.4621 600.766 Q56.4621 605.668 59.2312 608.628 Q62.0002 611.556 67.0292 612.002 L66.9973 591.122 Z" fill="#000000" fill-rule="evenodd" fill-opacity="1" /><path clip-path="url(#clip600)" d="M57.8307 554.997 Q57.2578 555.983 57.0032 557.161 Q56.7167 558.307 56.7167 559.707 Q56.7167 564.673 59.9632 567.346 Q63.1779 569.988 69.2253 569.988 L88.0042 569.988 L88.0042 575.876 L52.3562 575.876 L52.3562 569.988 L57.8944 569.988 Q54.6479 568.142 53.0883 565.182 Q51.4968 562.222 51.4968 557.989 Q51.4968 557.384 51.5923 556.652 Q51.656 555.92 51.8151 555.029 L57.8307 554.997 Z" fill="#000000" fill-rule="evenodd" fill-opacity="1" /><path clip-path="url(#clip600)" d="M53.7248 524.632 L59.1993 524.632 Q57.8307 527.115 57.1623 529.629 Q56.4621 532.112 56.4621 534.658 Q56.4621 540.356 60.0905 543.507 Q63.6872 546.658 70.212 546.658 Q76.7369 546.658 80.3653 543.507 Q83.9619 540.356 83.9619 534.658 Q83.9619 532.112 83.2935 529.629 Q82.5933 527.115 81.2247 524.632 L86.6355 524.632 Q87.7814 527.083 88.3543 529.725 Q88.9272 532.335 88.9272 535.295 Q88.9272 543.347 83.8664 548.09 Q78.8057 552.832 70.212 552.832 Q61.491 552.832 56.4939 548.058 Q51.4968 543.252 51.4968 534.913 Q51.4968 532.207 52.0697 529.629 Q52.6108 527.051 53.7248 524.632 Z" fill="#000000" fill-rule="evenodd" fill-opacity="1" /><path clip-path="url(#clip600)" d="M68.7161 483.955 L71.5806 483.955 L71.5806 510.882 Q77.6281 510.5 80.8109 507.254 Q83.9619 503.976 83.9619 498.151 Q83.9619 494.777 83.1344 491.626 Q82.3069 488.443 80.6518 485.324 L86.1899 485.324 Q87.5267 488.475 88.227 491.785 Q88.9272 495.095 88.9272 498.501 Q88.9272 507.031 83.9619 512.028 Q78.9967 516.993 70.5303 516.993 Q61.7774 516.993 56.6531 512.283 Q51.4968 507.54 51.4968 499.52 Q51.4968 492.326 56.1438 488.157 Q60.7589 483.955 68.7161 483.955 M66.9973 489.812 Q62.1912 489.876 59.3266 492.517 Q56.4621 495.127 56.4621 499.456 Q56.4621 504.358 59.2312 507.318 Q62.0002 510.246 67.0292 510.691 L66.9973 489.812 Z" fill="#000000" fill-rule="evenodd" fill-opacity="1" /><path clip-path="url(#clip600)" d="M66.4881 444.711 L88.0042 444.711 L88.0042 450.567 L66.679 450.567 Q61.6183 450.567 59.1038 452.541 Q56.5894 454.514 56.5894 458.461 Q56.5894 463.203 59.6131 465.94 Q62.6368 468.678 67.8567 468.678 L88.0042 468.678 L88.0042 474.566 L52.3562 474.566 L52.3562 468.678 L57.8944 468.678 Q54.6797 466.577 53.0883 463.744 Q51.4968 460.88 51.4968 457.156 Q51.4968 451.013 55.3163 447.862 Q59.1038 444.711 66.4881 444.711 Z" fill="#000000" fill-rule="evenodd" fill-opacity="1" /><path clip-path="url(#clip600)" d="M42.2347 427.237 L52.3562 427.237 L52.3562 415.174 L56.9077 415.174 L56.9077 427.237 L76.2594 427.237 Q80.6199 427.237 81.8613 426.059 Q83.1026 424.85 83.1026 421.19 L83.1026 415.174 L88.0042 415.174 L88.0042 421.19 Q88.0042 427.969 85.4897 430.547 Q82.9434 433.125 76.2594 433.125 L56.9077 433.125 L56.9077 437.422 L52.3562 437.422 L52.3562 433.125 L42.2347 433.125 L42.2347 427.237 Z" fill="#000000" fill-rule="evenodd" fill-opacity="1" /><path clip-path="url(#clip600)" d="M73.9359 387.356 L52.3562 387.356 L52.3562 381.499 L73.7131 381.499 Q78.7739 381.499 81.3202 379.526 Q83.8346 377.553 83.8346 373.606 Q83.8346 368.863 80.8109 366.126 Q77.7872 363.357 72.5673 363.357 L52.3562 363.357 L52.3562 357.501 L88.0042 357.501 L88.0042 363.357 L82.5296 363.357 Q85.7762 365.49 87.3676 368.322 Q88.9272 371.123 88.9272 374.847 Q88.9272 380.99 85.1078 384.173 Q81.2883 387.356 73.9359 387.356 M51.4968 372.619 L51.4968 372.619 Z" fill="#000000" fill-rule="evenodd" fill-opacity="1" /><path clip-path="url(#clip600)" d="M66.4881 315.805 L88.0042 315.805 L88.0042 321.662 L66.679 321.662 Q61.6183 321.662 59.1038 323.635 Q56.5894 325.608 56.5894 329.555 Q56.5894 334.298 59.6131 337.035 Q62.6368 339.772 67.8567 339.772 L88.0042 339.772 L88.0042 345.66 L52.3562 345.66 L52.3562 339.772 L57.8944 339.772 Q54.6797 337.671 53.0883 334.839 Q51.4968 331.974 51.4968 328.25 Q51.4968 322.107 55.3163 318.956 Q59.1038 315.805 66.4881 315.805 Z" fill="#000000" fill-rule="evenodd" fill-opacity="1" /><path clip-path="url(#clip600)" d="M53.4065 281.399 L58.9447 281.399 Q57.6716 283.881 57.035 286.555 Q56.3984 289.228 56.3984 292.093 Q56.3984 296.454 57.7352 298.65 Q59.072 300.814 61.7456 300.814 Q63.7826 300.814 64.9603 299.254 Q66.1061 297.695 67.1565 292.984 L67.6021 290.979 Q68.9389 284.741 71.3897 282.131 Q73.8086 279.489 78.1691 279.489 Q83.1344 279.489 86.0308 283.436 Q88.9272 287.351 88.9272 294.226 Q88.9272 297.09 88.3543 300.209 Q87.8132 303.297 86.6992 306.734 L80.6518 306.734 Q82.3387 303.488 83.198 300.337 Q84.0256 297.186 84.0256 294.098 Q84.0256 289.961 82.6251 287.733 Q81.1929 285.505 78.6147 285.505 Q76.2276 285.505 74.9545 287.128 Q73.6813 288.719 72.5037 294.162 L72.0262 296.199 Q70.8804 301.642 68.5251 304.061 Q66.138 306.48 62.0002 306.48 Q56.9713 306.48 54.2341 302.915 Q51.4968 299.35 51.4968 292.793 Q51.4968 289.547 51.9743 286.682 Q52.4517 283.818 53.4065 281.399 Z" fill="#000000" fill-rule="evenodd" fill-opacity="1" /><path clip-path="url(#clip600)" d="M70.0847 253.962 Q70.0847 261.06 71.7079 263.797 Q73.3312 266.535 77.2461 266.535 Q80.3653 266.535 82.2114 264.498 Q84.0256 262.429 84.0256 258.896 Q84.0256 254.026 80.5881 251.098 Q77.1188 248.138 71.3897 248.138 L70.0847 248.138 L70.0847 253.962 M67.6657 242.281 L88.0042 242.281 L88.0042 248.138 L82.5933 248.138 Q85.8398 250.143 87.3994 253.135 Q88.9272 256.127 88.9272 260.455 Q88.9272 265.93 85.8716 269.176 Q82.7843 272.391 77.6281 272.391 Q71.6125 272.391 68.5569 268.381 Q65.5014 264.339 65.5014 256.35 L65.5014 248.138 L64.9285 248.138 Q60.8862 248.138 58.6901 250.811 Q56.4621 253.453 56.4621 258.259 Q56.4621 261.315 57.1941 264.211 Q57.9262 267.108 59.3903 269.781 L53.9795 269.781 Q52.7381 266.567 52.1334 263.543 Q51.4968 260.519 51.4968 257.655 Q51.4968 249.92 55.5072 246.101 Q59.5176 242.281 67.6657 242.281 Z" fill="#000000" fill-rule="evenodd" fill-opacity="1" /><path clip-path="url(#clip600)" d="M38.479 212.172 L43.3487 212.172 L43.3487 217.773 Q43.3487 220.924 44.6219 222.166 Q45.895 223.375 49.2052 223.375 L52.3562 223.375 L52.3562 213.731 L56.9077 213.731 L56.9077 223.375 L88.0042 223.375 L88.0042 229.264 L56.9077 229.264 L56.9077 234.865 L52.3562 234.865 L52.3562 229.264 L49.8736 229.264 Q43.9216 229.264 41.2162 226.494 Q38.479 223.725 38.479 217.71 L38.479 212.172 Z" fill="#000000" fill-rule="evenodd" fill-opacity="1" /><path clip-path="url(#clip600)" d="M68.7161 176.778 L71.5806 176.778 L71.5806 203.705 Q77.6281 203.323 80.8109 200.077 Q83.9619 196.798 83.9619 190.974 Q83.9619 187.6 83.1344 184.449 Q82.3069 181.266 80.6518 178.147 L86.1899 178.147 Q87.5267 181.298 88.227 184.608 Q88.9272 187.918 88.9272 191.324 Q88.9272 199.854 83.9619 204.851 Q78.9967 209.816 70.5303 209.816 Q61.7774 209.816 56.6531 205.106 Q51.4968 200.363 51.4968 192.342 Q51.4968 185.149 56.1438 180.98 Q60.7589 176.778 68.7161 176.778 M66.9973 182.635 Q62.1912 182.698 59.3266 185.34 Q56.4621 187.95 56.4621 192.279 Q56.4621 197.18 59.2312 200.14 Q62.0002 203.069 67.0292 203.514 L66.9973 182.635 Z" fill="#000000" fill-rule="evenodd" fill-opacity="1" /><path clip-path="url(#clip600)" d="M57.8307 125.789 Q57.2578 126.776 57.0032 127.953 Q56.7167 129.099 56.7167 130.5 Q56.7167 135.465 59.9632 138.138 Q63.1779 140.78 69.2253 140.78 L88.0042 140.78 L88.0042 146.668 L52.3562 146.668 L52.3562 140.78 L57.8944 140.78 Q54.6479 138.934 53.0883 135.974 Q51.4968 133.014 51.4968 128.781 Q51.4968 128.176 51.5923 127.444 Q51.656 126.712 51.8151 125.821 L57.8307 125.789 Z" fill="#000000" fill-rule="evenodd" fill-opacity="1" /><path clip-path="url(#clip600)" d="M73.9359 120.251 L52.3562 120.251 L52.3562 114.394 L73.7131 114.394 Q78.7739 114.394 81.3202 112.421 Q83.8346 110.448 83.8346 106.501 Q83.8346 101.758 80.8109 99.0212 Q77.7872 96.2521 72.5673 96.2521 L52.3562 96.2521 L52.3562 90.3956 L88.0042 90.3956 L88.0042 96.2521 L82.5296 96.2521 Q85.7762 98.3846 87.3676 101.217 Q88.9272 104.018 88.9272 107.742 Q88.9272 113.885 85.1078 117.068 Q81.2883 120.251 73.9359 120.251 M51.4968 105.514 L51.4968 105.514 Z" fill="#000000" fill-rule="evenodd" fill-opacity="1" /><path clip-path="url(#clip600)" d="M66.4881 48.7002 L88.0042 48.7002 L88.0042 54.5567 L66.679 54.5567 Q61.6183 54.5567 59.1038 56.5301 Q56.5894 58.5034 56.5894 62.4502 Q56.5894 67.1926 59.6131 69.9299 Q62.6368 72.6671 67.8567 72.6671 L88.0042 72.6671 L88.0042 78.5554 L52.3562 78.5554 L52.3562 72.6671 L57.8944 72.6671 Q54.6797 70.5664 53.0883 67.7337 Q51.4968 64.8691 51.4968 61.1452 Q51.4968 55.0023 55.3163 51.8513 Q59.1038 48.7002 66.4881 48.7002 Z" fill="#000000" fill-rule="evenodd" fill-opacity="1" /><path clip-path="url(#clip600)" d="M53.4065 14.2936 L58.9447 14.2936 Q57.6716 16.7762 57.035 19.4498 Q56.3984 22.1234 56.3984 24.988 Q56.3984 29.3485 57.7352 31.5447 Q59.072 33.709 61.7456 33.709 Q63.7826 33.709 64.9603 32.1494 Q66.1061 30.5898 67.1565 25.8792 L67.6021 23.874 Q68.9389 17.6356 71.3897 15.0257 Q73.8086 12.3839 78.1691 12.3839 Q83.1344 12.3839 86.0308 16.3306 Q88.9272 20.2455 88.9272 27.1205 Q88.9272 29.9851 88.3543 33.1043 Q87.8132 36.1916 86.6992 39.6291 L80.6518 39.6291 Q82.3387 36.3826 83.198 33.2316 Q84.0256 30.0806 84.0256 26.9932 Q84.0256 22.8555 82.6251 20.6275 Q81.1929 18.3995 78.6147 18.3995 Q76.2276 18.3995 74.9545 20.0227 Q73.6813 21.6142 72.5037 27.0568 L72.0262 29.0939 Q70.8804 34.5365 68.5251 36.9555 Q66.138 39.3745 62.0002 39.3745 Q56.9713 39.3745 54.2341 35.8097 Q51.4968 32.2449 51.4968 25.6882 Q51.4968 22.4417 51.9743 19.5771 Q52.4517 16.7126 53.4065 14.2936 Z" fill="#000000" fill-rule="evenodd" fill-opacity="1" /><polyline clip-path="url(#clip602)" style="stroke:#2ecc71; stroke-linecap:round; stroke-linejoin:round; stroke-width:8; stroke-opacity:1; fill:none" points="
  1126.37,80.745 1086.39,80.745 1046.41,80.7702 1006.42,80.7903 966.443,86.4131 926.461,93.1684 886.48,211.941 846.498,285.742 806.517,486.058 766.535,542.099 
  726.554,579.707 686.573,583.256 646.591,584.121 606.61,584.126 566.628,584.126 526.647,584.126 486.666,584.126 446.684,584.126 406.703,584.126 366.721,584.126 
  326.74,584.126 286.758,584.126 246.777,584.126 
  "/>
<circle clip-path="url(#clip602)" cx="1126.37" cy="80.745" r="18" fill="#2ecc71" fill-rule="evenodd" fill-opacity="1" stroke="#ffffff" stroke-opacity="1" stroke-width="1.6"/>
<circle clip-path="url(#clip602)" cx="1086.39" cy="80.745" r="18" fill="#2ecc71" fill-rule="evenodd" fill-opacity="1" stroke="#ffffff" stroke-opacity="1" stroke-width="1.6"/>
<circle clip-path="url(#clip602)" cx="1046.41" cy="80.7702" r="18" fill="#2ecc71" fill-rule="evenodd" fill-opacity="1" stroke="#ffffff" stroke-opacity="1" stroke-width="1.6"/>
<circle clip-path="url(#clip602)" cx="1006.42" cy="80.7903" r="18" fill="#2ecc71" fill-rule="evenodd" fill-opacity="1" stroke="#ffffff" stroke-opacity="1" stroke-width="1.6"/>
<circle clip-path="url(#clip602)" cx="966.443" cy="86.4131" r="18" fill="#2ecc71" fill-rule="evenodd" fill-opacity="1" stroke="#ffffff" stroke-opacity="1" stroke-width="1.6"/>
<circle clip-path="url(#clip602)" cx="926.461" cy="93.1684" r="18" fill="#2ecc71" fill-rule="evenodd" fill-opacity="1" stroke="#ffffff" stroke-opacity="1" stroke-width="1.6"/>
<circle clip-path="url(#clip602)" cx="886.48" cy="211.941" r="18" fill="#2ecc71" fill-rule="evenodd" fill-opacity="1" stroke="#ffffff" stroke-opacity="1" stroke-width="1.6"/>
<circle clip-path="url(#clip602)" cx="846.498" cy="285.742" r="18" fill="#2ecc71" fill-rule="evenodd" fill-opacity="1" stroke="#ffffff" stroke-opacity="1" stroke-width="1.6"/>
<circle clip-path="url(#clip602)" cx="806.517" cy="486.058" r="18" fill="#2ecc71" fill-rule="evenodd" fill-opacity="1" stroke="#ffffff" stroke-opacity="1" stroke-width="1.6"/>
<circle clip-path="url(#clip602)" cx="766.535" cy="542.099" r="18" fill="#2ecc71" fill-rule="evenodd" fill-opacity="1" stroke="#ffffff" stroke-opacity="1" stroke-width="1.6"/>
<circle clip-path="url(#clip602)" cx="726.554" cy="579.707" r="18" fill="#2ecc71" fill-rule="evenodd" fill-opacity="1" stroke="#ffffff" stroke-opacity="1" stroke-width="1.6"/>
<circle clip-path="url(#clip602)" cx="686.573" cy="583.256" r="18" fill="#2ecc71" fill-rule="evenodd" fill-opacity="1" stroke="#ffffff" stroke-opacity="1" stroke-width="1.6"/>
<circle clip-path="url(#clip602)" cx="646.591" cy="584.121" r="18" fill="#2ecc71" fill-rule="evenodd" fill-opacity="1" stroke="#ffffff" stroke-opacity="1" stroke-width="1.6"/>
<circle clip-path="url(#clip602)" cx="606.61" cy="584.126" r="18" fill="#2ecc71" fill-rule="evenodd" fill-opacity="1" stroke="#ffffff" stroke-opacity="1" stroke-width="1.6"/>
<circle clip-path="url(#clip602)" cx="566.628" cy="584.126" r="18" fill="#2ecc71" fill-rule="evenodd" fill-opacity="1" stroke="#ffffff" stroke-opacity="1" stroke-width="1.6"/>
<circle clip-path="url(#clip602)" cx="526.647" cy="584.126" r="18" fill="#2ecc71" fill-rule="evenodd" fill-opacity="1" stroke="#ffffff" stroke-opacity="1" stroke-width="1.6"/>
<circle clip-path="url(#clip602)" cx="486.666" cy="584.126" r="18" fill="#2ecc71" fill-rule="evenodd" fill-opacity="1" stroke="#ffffff" stroke-opacity="1" stroke-width="1.6"/>
<circle clip-path="url(#clip602)" cx="446.684" cy="584.126" r="18" fill="#2ecc71" fill-rule="evenodd" fill-opacity="1" stroke="#ffffff" stroke-opacity="1" stroke-width="1.6"/>
<circle clip-path="url(#clip602)" cx="406.703" cy="584.126" r="18" fill="#2ecc71" fill-rule="evenodd" fill-opacity="1" stroke="#ffffff" stroke-opacity="1" stroke-width="1.6"/>
<circle clip-path="url(#clip602)" cx="366.721" cy="584.126" r="18" fill="#2ecc71" fill-rule="evenodd" fill-opacity="1" stroke="#ffffff" stroke-opacity="1" stroke-width="1.6"/>
<circle clip-path="url(#clip602)" cx="326.74" cy="584.126" r="18" fill="#2ecc71" fill-rule="evenodd" fill-opacity="1" stroke="#ffffff" stroke-opacity="1" stroke-width="1.6"/>
<circle clip-path="url(#clip602)" cx="286.758" cy="584.126" r="18" fill="#2ecc71" fill-rule="evenodd" fill-opacity="1" stroke="#ffffff" stroke-opacity="1" stroke-width="1.6"/>
<circle clip-path="url(#clip602)" cx="246.777" cy="584.126" r="18" fill="#2ecc71" fill-rule="evenodd" fill-opacity="1" stroke="#ffffff" stroke-opacity="1" stroke-width="1.6"/>
<polyline clip-path="url(#clip602)" style="stroke:#7f8c8d; stroke-linecap:round; stroke-linejoin:round; stroke-width:8; stroke-opacity:1; fill:none" stroke-dasharray="32, 20" points="
  486.666,1132.81 486.666,-467.941 
  "/>
</svg>
