<?xml version="1.0" encoding="utf-8"?>
<svg xmlns="http://www.w3.org/2000/svg" xmlns:xlink="http://www.w3.org/1999/xlink" width="300" height="140" viewBox="0 0 1200 560">
<defs>
  <clipPath id="clip160">
    <rect x="0" y="0" width="1200" height="560"/>
  </clipPath>
</defs>
<path clip-path="url(#clip160)" d="
M0 560 L1200 560 L1200 0 L0 0  Z
  " fill="#ffffff" fill-rule="evenodd" fill-opacity="1"/>
<defs>
  <clipPath id="clip161">
    <rect x="240" y="0" width="841" height="560"/>
  </clipPath>
</defs>
<path clip-path="url(#clip160)" d="
M146.435 418.204 L842.553 418.204 L842.553 47.2441 L146.435 47.2441  Z
  " fill="#ffffff" fill-rule="evenodd" fill-opacity="1"/>
<defs>
  <clipPath id="clip162">
    <rect x="146" y="47" width="697" height="372"/>
  </clipPath>
</defs>
<polyline clip-path="url(#clip162)" style="stroke:#000000; stroke-linecap:butt; stroke-linejoin:round; stroke-width:2; stroke-opacity:0.1; fill:none" points="
  247.732,418.204 247.732,47.2441 
  "/>
<polyline clip-path="url(#clip162)" style="stroke:#000000; stroke-linecap:butt; stroke-linejoin:round; stroke-width:2; stroke-opacity:0.1; fill:none" points="
  412.24,418.204 412.24,47.2441 
  "/>
<polyline clip-path="url(#clip162)" style="stroke:#000000; stroke-linecap:butt; stroke-linejoin:round; stroke-width:2; stroke-opacity:0.1; fill:none" points="
  576.748,418.204 576.748,47.2441 
  "/>
<polyline clip-path="url(#clip162)" style="stroke:#000000; stroke-linecap:butt; stroke-linejoin:round; stroke-width:2; stroke-opacity:0.1; fill:none" points="
  741.256,418.204 741.256,47.2441 
  "/>
<polyline clip-path="url(#clip160)" style="stroke:#000000; stroke-linecap:butt; stroke-linejoin:round; stroke-width:4; stroke-opacity:1; fill:none" points="
  146.435,418.204 842.553,418.204 
  "/>
<polyline clip-path="url(#clip160)" style="stroke:#000000; stroke-linecap:butt; stroke-linejoin:round; stroke-width:4; stroke-opacity:1; fill:none" points="
  247.732,418.204 247.732,399.306 
  "/>
<polyline clip-path="url(#clip160)" style="stroke:#000000; stroke-linecap:butt; stroke-linejoin:round; stroke-width:4; stroke-opacity:1; fill:none" points="
  412.24,418.204 412.24,399.306 
  "/>
<polyline clip-path="url(#clip160)" style="stroke:#000000; stroke-linecap:butt; stroke-linejoin:round; stroke-width:4; stroke-opacity:1; fill:none" points="
  576.748,418.204 576.748,399.306 
  "/>
<polyline clip-path="url(#clip160)" style="stroke:#000000; stroke-linecap:butt; stroke-linejoin:round; stroke-width:4; stroke-opacity:1; fill:none" points="
  741.256,418.204 741.256,399.306 
  "/>
<path clip-path="url(#clip160)" d="M211.06 442.126 L211.06 440.545 Q217.137 440.545 220.274 437.308 Q221.139 437.308 221.287 437.506 Q221.435 437.704 221.435 438.618 L221.435 467.002 Q221.435 468.509 222.177 468.978 Q222.918 469.448 226.154 469.448 L227.759 469.448 L227.759 471.004 Q225.981 470.856 219.558 470.856 Q213.135 470.856 211.381 471.004 L211.381 469.448 L212.987 469.448 Q216.174 469.448 216.939 469.003 Q217.705 468.534 217.705 467.002 L217.705 440.792 Q215.062 442.126 211.06 442.126 Z" fill="#000000" fill-rule="evenodd" fill-opacity="1" /><path clip-path="url(#clip160)" d="M234.38 462.852 Q234.38 461.345 235.195 460.777 Q236.01 460.184 236.875 460.184 Q238.036 460.184 238.703 460.925 Q239.395 461.641 239.395 462.654 Q239.395 463.667 238.703 464.408 Q238.036 465.124 236.875 465.124 Q236.307 465.124 236.01 465.026 Q236.677 467.348 238.703 469.028 Q240.753 470.707 243.446 470.707 Q246.83 470.707 248.856 467.422 Q250.067 465.297 250.067 460.48 Q250.067 456.231 249.153 454.107 Q247.744 450.871 244.854 450.871 Q240.753 450.871 238.333 454.403 Q238.036 454.848 237.69 454.873 Q237.196 454.873 237.073 454.601 Q236.974 454.304 236.974 453.539 L236.974 438.568 Q236.974 437.358 237.468 437.358 Q237.666 437.358 238.085 437.506 Q241.272 438.914 244.805 438.939 Q248.436 438.939 251.697 437.457 Q251.944 437.308 252.092 437.308 Q252.586 437.308 252.611 437.877 Q252.611 438.074 252.191 438.667 Q251.796 439.235 250.931 440.001 Q250.067 440.742 248.955 441.459 Q247.843 442.175 246.213 442.669 Q244.607 443.138 242.829 443.138 Q240.704 443.138 238.53 442.471 L238.53 452.328 Q241.149 449.759 244.953 449.759 Q249.004 449.759 251.796 453.02 Q254.587 456.281 254.587 460.826 Q254.587 465.594 251.277 468.855 Q247.992 472.115 243.545 472.115 Q239.494 472.115 236.924 469.225 Q234.38 466.335 234.38 462.852 Z" fill="#000000" fill-rule="evenodd" fill-opacity="1" /><path clip-path="url(#clip160)" d="M259.133 454.823 Q259.133 447.387 261.01 443.336 Q263.629 437.308 269.805 437.308 Q271.114 437.308 272.473 437.679 Q273.856 438.025 275.585 439.384 Q277.339 440.742 278.401 442.966 Q280.427 447.264 280.427 454.823 Q280.427 462.209 278.55 466.236 Q275.808 472.115 269.755 472.115 Q267.482 472.115 265.16 470.954 Q262.863 469.793 261.405 467.002 Q259.133 462.827 259.133 454.823 M263.332 454.206 Q263.332 461.839 263.876 464.877 Q264.493 468.163 266.173 469.596 Q267.878 471.004 269.755 471.004 Q271.781 471.004 273.461 469.497 Q275.165 467.965 275.684 464.68 Q276.252 461.444 276.227 454.206 Q276.227 447.165 275.733 444.349 Q275.066 441.063 273.288 439.754 Q271.534 438.42 269.755 438.42 Q269.088 438.42 268.372 438.618 Q267.68 438.815 266.667 439.384 Q265.654 439.952 264.864 441.36 Q264.098 442.768 263.728 444.892 Q263.332 447.634 263.332 454.206 Z" fill="#000000" fill-rule="evenodd" fill-opacity="1" /><path clip-path="url(#clip160)" d="M284.429 454.823 Q284.429 447.387 286.306 443.336 Q288.925 437.308 295.101 437.308 Q296.41 437.308 297.769 437.679 Q299.152 438.025 300.881 439.384 Q302.635 440.742 303.698 442.966 Q305.723 447.264 305.723 454.823 Q305.723 462.209 303.846 466.236 Q301.104 472.115 295.051 472.115 Q292.779 472.115 290.457 470.954 Q288.159 469.793 286.702 467.002 Q284.429 462.827 284.429 454.823 M288.629 454.206 Q288.629 461.839 289.172 464.877 Q289.79 468.163 291.469 469.596 Q293.174 471.004 295.051 471.004 Q297.077 471.004 298.757 469.497 Q300.461 467.965 300.98 464.68 Q301.548 461.444 301.524 454.206 Q301.524 447.165 301.03 444.349 Q300.363 441.063 298.584 439.754 Q296.83 438.42 295.051 438.42 Q294.384 438.42 293.668 438.618 Q292.976 438.815 291.964 439.384 Q290.951 439.952 290.16 441.36 Q289.394 442.768 289.024 444.892 Q288.629 447.634 288.629 454.206 Z" fill="#000000" fill-rule="evenodd" fill-opacity="1" /><path clip-path="url(#clip160)" d="M373.196 464.186 Q373.196 462.679 374.061 461.962 Q374.926 461.246 376.037 461.246 Q377.198 461.246 378.013 462.012 Q378.853 462.753 378.853 464.062 Q378.853 465.47 377.865 466.261 Q376.902 467.051 375.518 466.854 Q376.729 468.879 378.952 469.793 Q381.2 470.707 383.275 470.707 Q385.449 470.707 387.203 468.83 Q388.982 466.952 388.982 462.358 Q388.982 458.455 387.45 456.207 Q385.943 453.959 382.954 453.959 L380.731 453.959 Q379.965 453.959 379.743 453.884 Q379.52 453.81 379.52 453.39 Q379.52 452.896 380.286 452.797 Q381.052 452.797 382.262 452.649 Q385.202 452.55 386.758 450.006 Q388.167 447.634 388.167 444.25 Q388.167 441.162 386.684 439.878 Q385.227 438.568 383.325 438.568 Q381.546 438.568 379.594 439.309 Q377.643 440.051 376.581 441.706 Q379.718 441.706 379.718 444.25 Q379.718 445.362 379.002 446.103 Q378.31 446.819 377.149 446.819 Q376.037 446.819 375.296 446.128 Q374.555 445.411 374.555 444.201 Q374.555 441.31 377.124 439.309 Q379.718 437.308 383.522 437.308 Q387.277 437.308 390.044 439.285 Q392.835 441.261 392.835 444.3 Q392.835 447.289 390.859 449.734 Q388.883 452.18 385.746 453.193 Q389.599 453.959 391.897 456.577 Q394.194 459.171 394.194 462.358 Q394.194 466.31 391.082 469.225 Q387.969 472.115 383.423 472.115 Q379.224 472.115 376.21 469.843 Q373.196 467.57 373.196 464.186 Z" fill="#000000" fill-rule="evenodd" fill-opacity="1" /><path clip-path="url(#clip160)" d="M398.344 454.823 Q398.344 447.387 400.222 443.336 Q402.84 437.308 409.016 437.308 Q410.325 437.308 411.684 437.679 Q413.068 438.025 414.797 439.384 Q416.551 440.742 417.613 442.966 Q419.639 447.264 419.639 454.823 Q419.639 462.209 417.761 466.236 Q415.019 472.115 408.967 472.115 Q406.694 472.115 404.372 470.954 Q402.075 469.793 400.617 467.002 Q398.344 462.827 398.344 454.823 M402.544 454.206 Q402.544 461.839 403.087 464.877 Q403.705 468.163 405.385 469.596 Q407.089 471.004 408.967 471.004 Q410.992 471.004 412.672 469.497 Q414.377 467.965 414.896 464.68 Q415.464 461.444 415.439 454.206 Q415.439 447.165 414.945 444.349 Q414.278 441.063 412.499 439.754 Q410.745 438.42 408.967 438.42 Q408.3 438.42 407.583 438.618 Q406.892 438.815 405.879 439.384 Q404.866 439.952 404.075 441.36 Q403.31 442.768 402.939 444.892 Q402.544 447.634 402.544 454.206 Z" fill="#000000" fill-rule="evenodd" fill-opacity="1" /><path clip-path="url(#clip160)" d="M423.641 454.823 Q423.641 447.387 425.518 443.336 Q428.137 437.308 434.312 437.308 Q435.622 437.308 436.98 437.679 Q438.364 438.025 440.093 439.384 Q441.847 440.742 442.909 442.966 Q444.935 447.264 444.935 454.823 Q444.935 462.209 443.057 466.236 Q440.315 472.115 434.263 472.115 Q431.99 472.115 429.668 470.954 Q427.371 469.793 425.913 467.002 Q423.641 462.827 423.641 454.823 M427.84 454.206 Q427.84 461.839 428.384 464.877 Q429.001 468.163 430.681 469.596 Q432.386 471.004 434.263 471.004 Q436.289 471.004 437.968 469.497 Q439.673 467.965 440.192 464.68 Q440.76 461.444 440.735 454.206 Q440.735 447.165 440.241 444.349 Q439.574 441.063 437.796 439.754 Q436.042 438.42 434.263 438.42 Q433.596 438.42 432.88 438.618 Q432.188 438.815 431.175 439.384 Q430.162 439.952 429.372 441.36 Q428.606 442.768 428.235 444.892 Q427.84 447.634 427.84 454.206 Z" fill="#000000" fill-rule="evenodd" fill-opacity="1" /><path clip-path="url(#clip160)" d="M448.937 454.823 Q448.937 447.387 450.814 443.336 Q453.433 437.308 459.609 437.308 Q460.918 437.308 462.277 437.679 Q463.66 438.025 465.389 439.384 Q467.143 440.742 468.205 442.966 Q470.231 447.264 470.231 454.823 Q470.231 462.209 468.354 466.236 Q465.612 472.115 459.559 472.115 Q457.287 472.115 454.964 470.954 Q452.667 469.793 451.209 467.002 Q448.937 462.827 448.937 454.823 M453.136 454.206 Q453.136 461.839 453.68 464.877 Q454.297 468.163 455.977 469.596 Q457.682 471.004 459.559 471.004 Q461.585 471.004 463.265 469.497 Q464.969 467.965 465.488 464.68 Q466.056 461.444 466.032 454.206 Q466.032 447.165 465.537 444.349 Q464.87 441.063 463.092 439.754 Q461.338 438.42 459.559 438.42 Q458.892 438.42 458.176 438.618 Q457.484 438.815 456.471 439.384 Q455.458 439.952 454.668 441.36 Q453.902 442.768 453.532 444.892 Q453.136 447.634 453.136 454.206 Z" fill="#000000" fill-rule="evenodd" fill-opacity="1" /><path clip-path="url(#clip160)" d="M537.704 455.021 Q537.704 447.066 541.755 442.2 Q545.807 437.308 551.019 437.308 Q554.058 437.308 555.738 438.865 Q557.442 440.396 557.442 442.768 Q557.442 444.077 556.676 444.645 Q555.91 445.214 555.12 445.214 Q554.206 445.214 553.49 444.596 Q552.773 443.978 552.773 442.867 Q552.773 440.594 555.565 440.594 Q554.255 438.568 551.118 438.568 Q550.155 438.568 549.166 438.865 Q548.178 439.137 546.894 440.075 Q545.609 441.014 544.621 442.496 Q543.633 443.978 542.941 446.77 Q542.25 449.561 542.25 453.193 L542.25 454.403 Q544.325 449.388 548.574 449.413 Q552.823 449.413 555.762 452.649 Q558.702 455.885 558.702 460.678 Q558.702 465.594 555.639 468.855 Q552.576 472.115 548.277 472.115 Q546.35 472.115 544.596 471.3 Q542.867 470.51 541.237 468.682 Q539.631 466.854 538.668 463.346 Q537.704 459.838 537.704 455.021 M542.348 459.566 Q542.348 464.532 543.262 466.903 Q543.411 467.298 543.732 467.842 Q544.078 468.385 544.646 469.102 Q545.239 469.793 546.202 470.263 Q547.165 470.707 548.277 470.707 Q551.661 470.707 553.292 467.422 Q554.157 465.594 554.157 460.628 Q554.157 455.564 553.243 453.711 Q551.686 450.574 548.524 450.574 Q546.4 450.574 544.917 452.032 Q543.46 453.489 542.892 455.441 Q542.348 457.392 542.348 459.566 Z" fill="#000000" fill-rule="evenodd" fill-opacity="1" /><path clip-path="url(#clip160)" d="M562.852 454.823 Q562.852 447.387 564.73 443.336 Q567.348 437.308 573.524 437.308 Q574.833 437.308 576.192 437.679 Q577.575 438.025 579.305 439.384 Q581.058 440.742 582.121 442.966 Q584.146 447.264 584.146 454.823 Q584.146 462.209 582.269 466.236 Q579.527 472.115 573.475 472.115 Q571.202 472.115 568.88 470.954 Q566.582 469.793 565.125 467.002 Q562.852 462.827 562.852 454.823 M567.052 454.206 Q567.052 461.839 567.595 464.877 Q568.213 468.163 569.893 469.596 Q571.597 471.004 573.475 471.004 Q575.5 471.004 577.18 469.497 Q578.885 467.965 579.403 464.68 Q579.972 461.444 579.947 454.206 Q579.947 447.165 579.453 444.349 Q578.786 441.063 577.007 439.754 Q575.253 438.42 573.475 438.42 Q572.808 438.42 572.091 438.618 Q571.399 438.815 570.387 439.384 Q569.374 439.952 568.583 441.36 Q567.817 442.768 567.447 444.892 Q567.052 447.634 567.052 454.206 Z" fill="#000000" fill-rule="evenodd" fill-opacity="1" /><path clip-path="url(#clip160)" d="M588.148 454.823 Q588.148 447.387 590.026 443.336 Q592.644 437.308 598.82 437.308 Q600.129 437.308 601.488 437.679 Q602.872 438.025 604.601 439.384 Q606.355 440.742 607.417 442.966 Q609.443 447.264 609.443 454.823 Q609.443 462.209 607.565 466.236 Q604.823 472.115 598.771 472.115 Q596.498 472.115 594.176 470.954 Q591.879 469.793 590.421 467.002 Q588.148 462.827 588.148 454.823 M592.348 454.206 Q592.348 461.839 592.891 464.877 Q593.509 468.163 595.189 469.596 Q596.893 471.004 598.771 471.004 Q600.796 471.004 602.476 469.497 Q604.181 467.965 604.7 464.68 Q605.268 461.444 605.243 454.206 Q605.243 447.165 604.749 444.349 Q604.082 441.063 602.303 439.754 Q600.549 438.42 598.771 438.42 Q598.104 438.42 597.387 438.618 Q596.696 438.815 595.683 439.384 Q594.67 439.952 593.88 441.36 Q593.114 442.768 592.743 444.892 Q592.348 447.634 592.348 454.206 Z" fill="#000000" fill-rule="evenodd" fill-opacity="1" /><path clip-path="url(#clip160)" d="M613.445 454.823 Q613.445 447.387 615.322 443.336 Q617.941 437.308 624.116 437.308 Q625.426 437.308 626.784 437.679 Q628.168 438.025 629.897 439.384 Q631.651 440.742 632.713 442.966 Q634.739 447.264 634.739 454.823 Q634.739 462.209 632.861 466.236 Q630.119 472.115 624.067 472.115 Q621.794 472.115 619.472 470.954 Q617.175 469.793 615.717 467.002 Q613.445 462.827 613.445 454.823 M617.644 454.206 Q617.644 461.839 618.188 464.877 Q618.805 468.163 620.485 469.596 Q622.19 471.004 624.067 471.004 Q626.093 471.004 627.773 469.497 Q629.477 467.965 629.996 464.68 Q630.564 461.444 630.539 454.206 Q630.539 447.165 630.045 444.349 Q629.378 441.063 627.6 439.754 Q625.846 438.42 624.067 438.42 Q623.4 438.42 622.684 438.618 Q621.992 438.815 620.979 439.384 Q619.966 439.952 619.176 441.36 Q618.41 442.768 618.039 444.892 Q617.644 447.634 617.644 454.206 Z" fill="#000000" fill-rule="evenodd" fill-opacity="1" /><path clip-path="url(#clip160)" d="M681.276 442.126 L681.276 440.545 Q687.353 440.545 690.49 437.308 Q691.355 437.308 691.503 437.506 Q691.651 437.704 691.651 438.618 L691.651 467.002 Q691.651 468.509 692.392 468.978 Q693.133 469.448 696.37 469.448 L697.975 469.448 L697.975 471.004 Q696.197 470.856 689.774 470.856 Q683.351 470.856 681.597 471.004 L681.597 469.448 L683.203 469.448 Q686.389 469.448 687.155 469.003 Q687.921 468.534 687.921 467.002 L687.921 440.792 Q685.278 442.126 681.276 442.126 Z" fill="#000000" fill-rule="evenodd" fill-opacity="1" /><path clip-path="url(#clip160)" d="M704.596 471.004 Q704.596 470.09 704.67 469.818 Q704.769 469.546 705.164 469.126 L714.872 458.306 Q720.184 452.328 720.184 447.116 Q720.184 443.731 718.405 441.31 Q716.651 438.889 713.415 438.889 Q711.192 438.889 709.314 440.248 Q707.437 441.607 706.572 444.028 Q706.72 443.978 707.239 443.978 Q708.499 443.978 709.191 444.769 Q709.907 445.559 709.907 446.622 Q709.907 447.98 709.018 448.647 Q708.153 449.29 707.288 449.29 Q706.943 449.29 706.473 449.215 Q706.029 449.141 705.312 448.45 Q704.596 447.733 704.596 446.473 Q704.596 442.941 707.264 440.125 Q709.956 437.308 714.057 437.308 Q718.701 437.308 721.74 440.075 Q724.803 442.817 724.803 447.116 Q724.803 448.623 724.334 450.006 Q723.889 451.365 723.272 452.427 Q722.679 453.489 721.048 455.194 Q719.418 456.898 718.109 458.109 Q716.799 459.319 713.86 461.888 L708.499 467.101 L717.614 467.101 Q722.061 467.101 722.407 466.705 Q722.901 465.989 723.519 462.209 L724.803 462.209 L723.37 471.004 L704.596 471.004 Z" fill="#000000" fill-rule="evenodd" fill-opacity="1" /><path clip-path="url(#clip160)" d="M729.349 454.823 Q729.349 447.387 731.226 443.336 Q733.845 437.308 740.02 437.308 Q741.33 437.308 742.688 437.679 Q744.072 438.025 745.801 439.384 Q747.555 440.742 748.617 442.966 Q750.643 447.264 750.643 454.823 Q750.643 462.209 748.765 466.236 Q746.023 472.115 739.971 472.115 Q737.698 472.115 735.376 470.954 Q733.079 469.793 731.621 467.002 Q729.349 462.827 729.349 454.823 M733.548 454.206 Q733.548 461.839 734.092 464.877 Q734.709 468.163 736.389 469.596 Q738.094 471.004 739.971 471.004 Q741.997 471.004 743.676 469.497 Q745.381 467.965 745.9 464.68 Q746.468 461.444 746.443 454.206 Q746.443 447.165 745.949 444.349 Q745.282 441.063 743.504 439.754 Q741.75 438.42 739.971 438.42 Q739.304 438.42 738.588 438.618 Q737.896 438.815 736.883 439.384 Q735.87 439.952 735.08 441.36 Q734.314 442.768 733.943 444.892 Q733.548 447.634 733.548 454.206 Z" fill="#000000" fill-rule="evenodd" fill-opacity="1" /><path clip-path="url(#clip160)" d="M754.645 454.823 Q754.645 447.387 756.522 443.336 Q759.141 437.308 765.317 437.308 Q766.626 437.308 767.985 437.679 Q769.368 438.025 771.097 439.384 Q772.851 440.742 773.913 442.966 Q775.939 447.264 775.939 454.823 Q775.939 462.209 774.062 466.236 Q771.32 472.115 765.267 472.115 Q762.995 472.115 760.672 470.954 Q758.375 469.793 756.917 467.002 Q754.645 462.827 754.645 454.823 M758.844 454.206 Q758.844 461.839 759.388 464.877 Q760.005 468.163 761.685 469.596 Q763.39 471.004 765.267 471.004 Q767.293 471.004 768.973 469.497 Q770.677 467.965 771.196 464.68 Q771.764 461.444 771.74 454.206 Q771.74 447.165 771.245 444.349 Q770.578 441.063 768.8 439.754 Q767.046 438.42 765.267 438.42 Q764.6 438.42 763.884 438.618 Q763.192 438.815 762.179 439.384 Q761.166 439.952 760.376 441.36 Q759.61 442.768 759.24 444.892 Q758.844 447.634 758.844 454.206 Z" fill="#000000" fill-rule="evenodd" fill-opacity="1" /><path clip-path="url(#clip160)" d="M779.941 454.823 Q779.941 447.387 781.818 443.336 Q784.437 437.308 790.613 437.308 Q791.922 437.308 793.281 437.679 Q794.664 438.025 796.393 439.384 Q798.147 440.742 799.21 442.966 Q801.235 447.264 801.235 454.823 Q801.235 462.209 799.358 466.236 Q796.616 472.115 790.563 472.115 Q788.291 472.115 785.969 470.954 Q783.671 469.793 782.214 467.002 Q779.941 462.827 779.941 454.823 M784.141 454.206 Q784.141 461.839 784.684 464.877 Q785.302 468.163 786.981 469.596 Q788.686 471.004 790.563 471.004 Q792.589 471.004 794.269 469.497 Q795.974 467.965 796.492 464.68 Q797.06 461.444 797.036 454.206 Q797.036 447.165 796.542 444.349 Q795.875 441.063 794.096 439.754 Q792.342 438.42 790.563 438.42 Q789.896 438.42 789.18 438.618 Q788.488 438.815 787.476 439.384 Q786.463 439.952 785.672 441.36 Q784.906 442.768 784.536 444.892 Q784.141 447.634 784.141 454.206 Z" fill="#000000" fill-rule="evenodd" fill-opacity="1" /><path clip-path="url(#clip160)" d="M363.788 545.068 L363.788 542.928 L365.453 542.928 Q369.223 542.928 370.072 542.317 Q370.955 541.671 370.955 539.633 L370.955 503.186 Q370.955 501.182 370.072 500.571 Q369.189 499.926 365.453 499.926 L363.788 499.926 L363.788 497.752 L402.952 497.752 L404.889 513.41 L403.156 513.41 Q402.681 509.436 402.035 507.161 Q401.424 504.851 399.895 503.084 Q398.401 501.318 395.921 500.639 Q393.476 499.926 389.501 499.926 L380.534 499.926 Q378.156 499.926 377.647 500.435 Q377.137 500.911 377.137 502.711 L377.137 519.389 L383.387 519.389 Q388.177 519.389 389.535 517.724 Q390.894 516.06 390.894 511.271 L392.66 511.271 L392.66 529.681 L390.894 529.681 Q390.894 524.959 389.535 523.261 Q388.177 521.563 383.387 521.563 L377.137 521.563 L377.137 540.143 Q377.137 541.943 377.647 542.452 Q378.19 542.928 380.534 542.928 L389.807 542.928 Q392.796 542.928 394.97 542.554 Q397.178 542.147 398.707 541.196 Q400.235 540.211 401.254 539.09 Q402.307 537.969 403.02 535.965 Q403.768 533.927 404.175 532.058 Q404.617 530.19 405.092 527.133 L406.825 527.133 L403.904 545.068 L363.788 545.068 Z" fill="#000000" fill-rule="evenodd" fill-opacity="1" /><path clip-path="url(#clip160)" d="M410.697 556.413 Q414.399 556.413 415.249 555.937 Q416.132 555.496 416.132 553.288 L416.132 520.713 Q416.132 518.404 415.249 517.826 Q414.399 517.249 410.697 517.249 L410.697 515.075 L420.717 514.328 L420.717 518.913 Q424.895 514.328 430.466 514.328 Q436.376 514.328 440.69 518.913 Q445.004 523.499 445.004 530.054 Q445.004 536.678 440.418 541.264 Q435.833 545.849 429.481 545.849 Q426.016 545.849 423.672 544.083 Q421.363 542.283 420.921 540.958 L420.921 541.603 L420.921 553.288 Q420.921 555.53 421.804 555.971 Q422.687 556.413 426.356 556.413 L426.356 558.553 Q419.053 558.349 418.509 558.349 Q417.83 558.349 410.697 558.553 L410.697 556.413 M420.921 537.154 Q420.921 538.206 421.057 538.58 Q421.227 538.954 421.906 540.075 Q424.657 544.287 429.141 544.287 Q429.175 544.287 429.209 544.287 Q433.183 544.287 436.206 540.245 Q439.229 536.168 439.229 530.054 Q439.229 524.212 436.478 520.136 Q433.727 516.06 429.922 516.06 Q427.205 516.06 424.827 517.521 Q422.45 518.981 420.921 521.631 L420.921 537.154 Z" fill="#000000" fill-rule="evenodd" fill-opacity="1" /><path clip-path="url(#clip160)" d="M449.657 545.068 L449.657 542.928 Q453.36 542.928 454.209 542.486 Q455.058 542.011 455.058 539.769 L455.058 521.053 Q455.058 518.472 454.175 517.86 Q453.326 517.249 449.929 517.249 L449.929 515.075 L459.644 514.328 L459.644 539.837 Q459.644 541.909 460.391 542.418 Q461.138 542.928 464.535 542.928 L464.535 545.068 Q457.436 544.864 457.3 544.864 Q456.349 544.864 449.657 545.068 M452.578 502.201 Q452.578 500.809 453.631 499.688 Q454.718 498.533 456.247 498.533 Q457.775 498.533 458.862 499.586 Q459.949 500.605 459.949 502.235 Q459.949 503.832 458.862 504.885 Q457.775 505.904 456.247 505.904 Q454.65 505.904 453.597 504.783 Q452.578 503.662 452.578 502.201 Z" fill="#000000" fill-rule="evenodd" fill-opacity="1" /><path clip-path="url(#clip160)" d="M468.917 544.151 L468.917 534.98 Q468.917 534.198 468.951 533.927 Q468.985 533.655 469.188 533.451 Q469.392 533.247 469.8 533.247 Q470.275 533.247 470.445 533.451 Q470.649 533.655 470.785 534.436 Q471.838 539.225 474.08 541.773 Q476.355 544.287 480.465 544.287 Q484.372 544.287 486.342 542.554 Q488.312 540.822 488.312 537.969 Q488.312 532.874 481.077 531.583 Q476.899 530.734 475.167 530.19 Q473.434 529.613 471.906 528.356 Q468.917 525.91 468.917 522.446 Q468.917 518.981 471.532 516.434 Q474.182 513.886 480.024 513.886 Q483.93 513.886 486.58 515.856 Q487.361 515.245 487.768 514.735 Q488.685 513.886 489.161 513.886 Q489.704 513.886 489.806 514.26 Q489.908 514.599 489.908 515.584 L489.908 522.582 Q489.908 523.363 489.874 523.635 Q489.84 523.906 489.637 524.11 Q489.433 524.28 488.991 524.28 Q488.21 524.28 488.176 523.635 Q487.632 515.211 480.024 515.211 Q475.914 515.211 474.08 516.807 Q472.245 518.37 472.245 520.51 Q472.245 521.698 472.789 522.616 Q473.366 523.499 474.08 524.042 Q474.827 524.552 476.186 525.061 Q477.544 525.537 478.359 525.707 Q479.209 525.876 480.805 526.216 Q486.376 527.269 488.719 529.545 Q491.641 532.466 491.641 536.168 Q491.641 540.278 488.855 543.064 Q486.07 545.849 480.465 545.849 Q475.948 545.849 472.789 542.826 Q472.381 543.234 472.076 543.607 Q471.77 543.947 471.634 544.083 Q471.532 544.219 471.498 544.321 Q471.464 544.389 471.396 544.456 Q470.004 545.849 469.664 545.849 Q469.12 545.849 469.019 545.475 Q468.917 545.136 468.917 544.151 Z" fill="#000000" fill-rule="evenodd" fill-opacity="1" /><path clip-path="url(#clip160)" d="M500.506 541.331 Q495.92 536.78 495.92 530.19 Q495.92 523.567 500.404 518.743 Q504.922 513.886 511.376 513.886 Q517.693 513.886 522.211 518.709 Q526.763 523.499 526.763 530.19 Q526.763 536.746 522.177 541.297 Q517.625 545.849 511.308 545.849 Q505.126 545.849 500.506 541.331 M501.695 529.613 Q501.695 536.372 503.461 539.429 Q506.179 544.083 511.376 544.083 Q513.957 544.083 516.097 542.69 Q518.271 541.297 519.46 538.954 Q520.988 535.897 520.988 529.613 Q520.988 522.921 519.154 519.966 Q516.437 515.449 511.308 515.449 Q509.066 515.449 506.858 516.637 Q504.684 517.792 503.359 520.102 Q501.695 523.159 501.695 529.613 Z" fill="#000000" fill-rule="evenodd" fill-opacity="1" /><path clip-path="url(#clip160)" d="M533.08 530.122 Q533.08 523.499 537.7 518.913 Q542.32 514.328 548.57 514.328 Q553.868 514.328 557.333 518.641 L557.333 503.594 Q557.333 501.012 556.416 500.367 Q555.533 499.722 551.932 499.722 L551.932 497.548 L561.953 496.801 L561.953 539.022 Q561.953 541.603 562.836 542.283 Q563.753 542.928 567.353 542.928 L567.353 545.068 L557.129 545.849 L557.129 541.23 Q553.529 545.815 547.822 545.849 Q541.844 545.849 537.462 541.264 Q533.08 536.678 533.08 530.122 M538.855 530.19 Q538.855 536.644 540.859 539.837 Q543.644 544.287 548.162 544.287 Q553.325 544.287 556.382 539.429 Q557.163 538.24 557.129 536.848 L557.129 522.582 Q557.129 521.189 556.382 520.034 Q553.529 515.856 548.875 515.856 Q544.018 515.856 540.995 520.306 Q538.855 523.635 538.855 530.19 Z" fill="#000000" fill-rule="evenodd" fill-opacity="1" /><path clip-path="url(#clip160)" d="M571.226 529.749 Q571.226 523.193 575.437 518.54 Q579.649 513.886 585.696 513.886 Q591.81 513.886 594.969 517.86 Q598.161 521.834 598.161 527.541 Q598.161 528.594 597.89 528.798 Q597.618 529.001 596.429 529.001 L577 529.001 Q577 536.101 579.106 539.429 Q582.027 544.083 586.952 544.083 Q587.632 544.083 588.447 543.947 Q589.262 543.811 590.927 543.234 Q592.591 542.622 594.051 541.026 Q595.512 539.429 596.361 536.916 Q596.565 535.931 597.244 535.965 Q598.161 535.965 598.161 536.78 Q598.161 537.391 597.482 538.784 Q596.837 540.143 595.58 541.773 Q594.323 543.403 591.878 544.626 Q589.466 545.849 586.545 545.849 Q580.431 545.849 575.811 541.23 Q571.226 536.576 571.226 529.749 M577.068 527.541 L593.576 527.541 Q593.576 526.08 593.304 524.45 Q593.066 522.819 592.319 520.578 Q591.606 518.302 589.907 516.875 Q588.209 515.449 585.696 515.449 Q584.575 515.449 583.352 515.924 Q582.163 516.4 580.702 517.554 Q579.242 518.709 578.223 521.325 Q577.204 523.94 577.068 527.541 Z" fill="#000000" fill-rule="evenodd" fill-opacity="1" /><path clip-path="url(#clip160)" d="M602.475 544.151 L602.475 534.98 Q602.475 534.198 602.509 533.927 Q602.543 533.655 602.747 533.451 Q602.951 533.247 603.358 533.247 Q603.834 533.247 604.004 533.451 Q604.208 533.655 604.344 534.436 Q605.396 539.225 607.638 541.773 Q609.914 544.287 614.024 544.287 Q617.93 544.287 619.9 542.554 Q621.871 540.822 621.871 537.969 Q621.871 532.874 614.636 531.583 Q610.458 530.734 608.725 530.19 Q606.993 529.613 605.464 528.356 Q602.475 525.91 602.475 522.446 Q602.475 518.981 605.091 516.434 Q607.74 513.886 613.583 513.886 Q617.489 513.886 620.138 515.856 Q620.919 515.245 621.327 514.735 Q622.244 513.886 622.72 513.886 Q623.263 513.886 623.365 514.26 Q623.467 514.599 623.467 515.584 L623.467 522.582 Q623.467 523.363 623.433 523.635 Q623.399 523.906 623.195 524.11 Q622.991 524.28 622.55 524.28 Q621.769 524.28 621.735 523.635 Q621.191 515.211 613.583 515.211 Q609.473 515.211 607.638 516.807 Q605.804 518.37 605.804 520.51 Q605.804 521.698 606.348 522.616 Q606.925 523.499 607.638 524.042 Q608.386 524.552 609.744 525.061 Q611.103 525.537 611.918 525.707 Q612.767 525.876 614.364 526.216 Q619.934 527.269 622.278 529.545 Q625.199 532.466 625.199 536.168 Q625.199 540.278 622.414 543.064 Q619.629 545.849 614.024 545.849 Q609.507 545.849 606.348 542.826 Q605.94 543.234 605.634 543.607 Q605.329 543.947 605.193 544.083 Q605.091 544.219 605.057 544.321 Q605.023 544.389 604.955 544.456 Q603.562 545.849 603.223 545.849 Q602.679 545.849 602.577 545.475 Q602.475 545.136 602.475 544.151 Z" fill="#000000" fill-rule="evenodd" fill-opacity="1" /><polyline clip-path="url(#clip162)" style="stroke:#000000; stroke-linecap:butt; stroke-linejoin:round; stroke-width:2; stroke-opacity:0.1; fill:none" points="
  146.435,407.705 842.553,407.705 
  "/>
<polyline clip-path="url(#clip162)" style="stroke:#000000; stroke-linecap:butt; stroke-linejoin:round; stroke-width:2; stroke-opacity:0.1; fill:none" points="
  146.435,347.987 842.553,347.987 
  "/>
<polyline clip-path="url(#clip162)" style="stroke:#000000; stroke-linecap:butt; stroke-linejoin:round; stroke-width:2; stroke-opacity:0.1; fill:none" points="
  146.435,288.268 842.553,288.268 
  "/>
<polyline clip-path="url(#clip162)" style="stroke:#000000; stroke-linecap:butt; stroke-linejoin:round; stroke-width:2; stroke-opacity:0.1; fill:none" points="
  146.435,228.55 842.553,228.55 
  "/>
<polyline clip-path="url(#clip162)" style="stroke:#000000; stroke-linecap:butt; stroke-linejoin:round; stroke-width:2; stroke-opacity:0.1; fill:none" points="
  146.435,168.831 842.553,168.831 
  "/>
<polyline clip-path="url(#clip162)" style="stroke:#000000; stroke-linecap:butt; stroke-linejoin:round; stroke-width:2; stroke-opacity:0.1; fill:none" points="
  146.435,109.113 842.553,109.113 
  "/>
<polyline clip-path="url(#clip162)" style="stroke:#000000; stroke-linecap:butt; stroke-linejoin:round; stroke-width:2; stroke-opacity:0.1; fill:none" points="
  146.435,49.3943 842.553,49.3943 
  "/>
<polyline clip-path="url(#clip160)" style="stroke:#000000; stroke-linecap:butt; stroke-linejoin:round; stroke-width:4; stroke-opacity:1; fill:none" points="
  146.435,418.204 146.435,47.2441 
  "/>
<polyline clip-path="url(#clip160)" style="stroke:#000000; stroke-linecap:butt; stroke-linejoin:round; stroke-width:4; stroke-opacity:1; fill:none" points="
  146.435,407.705 159.507,407.705 
  "/>
<polyline clip-path="url(#clip160)" style="stroke:#000000; stroke-linecap:butt; stroke-linejoin:round; stroke-width:4; stroke-opacity:1; fill:none" points="
  146.435,347.987 159.507,347.987 
  "/>
<polyline clip-path="url(#clip160)" style="stroke:#000000; stroke-linecap:butt; stroke-linejoin:round; stroke-width:4; stroke-opacity:1; fill:none" points="
  146.435,288.268 159.507,288.268 
  "/>
<polyline clip-path="url(#clip160)" style="stroke:#000000; stroke-linecap:butt; stroke-linejoin:round; stroke-width:4; stroke-opacity:1; fill:none" points="
  146.435,228.55 159.507,228.55 
  "/>
<polyline clip-path="url(#clip160)" style="stroke:#000000; stroke-linecap:butt; stroke-linejoin:round; stroke-width:4; stroke-opacity:1; fill:none" points="
  146.435,168.831 159.507,168.831 
  "/>
<polyline clip-path="url(#clip160)" style="stroke:#000000; stroke-linecap:butt; stroke-linejoin:round; stroke-width:4; stroke-opacity:1; fill:none" points="
  146.435,109.113 159.507,109.113 
  "/>
<polyline clip-path="url(#clip160)" style="stroke:#000000; stroke-linecap:butt; stroke-linejoin:round; stroke-width:4; stroke-opacity:1; fill:none" points="
  146.435,49.3943 159.507,49.3943 
  "/>
<path clip-path="url(#clip160)" d="M107.141 408.804 Q107.141 401.369 109.018 397.317 Q111.637 391.29 117.812 391.29 Q119.122 391.29 120.48 391.66 Q121.864 392.006 123.593 393.365 Q125.347 394.723 126.409 396.947 Q128.435 401.245 128.435 408.804 Q128.435 416.191 126.557 420.217 Q123.815 426.097 117.763 426.097 Q115.49 426.097 113.168 424.936 Q110.871 423.775 109.413 420.983 Q107.141 416.808 107.141 408.804 M111.34 408.187 Q111.34 415.82 111.884 418.859 Q112.501 422.144 114.181 423.577 Q115.886 424.985 117.763 424.985 Q119.789 424.985 121.468 423.478 Q123.173 421.946 123.692 418.661 Q124.26 415.425 124.235 408.187 Q124.235 401.146 123.741 398.33 Q123.074 395.045 121.296 393.735 Q119.542 392.401 117.763 392.401 Q117.096 392.401 116.38 392.599 Q115.688 392.797 114.675 393.365 Q113.662 393.933 112.872 395.341 Q112.106 396.749 111.735 398.874 Q111.34 401.616 111.34 408.187 Z" fill="#000000" fill-rule="evenodd" fill-opacity="1" /><path clip-path="url(#clip160)" d="M111.735 336.388 L111.735 334.807 Q117.812 334.807 120.95 331.571 Q121.814 331.571 121.963 331.769 Q122.111 331.966 122.111 332.88 L122.111 361.265 Q122.111 362.771 122.852 363.241 Q123.593 363.71 126.829 363.71 L128.435 363.71 L128.435 365.267 Q126.656 365.118 120.233 365.118 Q113.81 365.118 112.056 365.267 L112.056 363.71 L113.662 363.71 Q116.849 363.71 117.615 363.266 Q118.381 362.796 118.381 361.265 L118.381 335.054 Q115.737 336.388 111.735 336.388 Z" fill="#000000" fill-rule="evenodd" fill-opacity="1" /><path clip-path="url(#clip160)" d="M108.227 305.548 Q108.227 304.634 108.302 304.362 Q108.4 304.091 108.796 303.671 L118.504 292.851 Q123.815 286.872 123.815 281.66 Q123.815 278.276 122.037 275.855 Q120.283 273.434 117.047 273.434 Q114.823 273.434 112.946 274.792 Q111.068 276.151 110.204 278.572 Q110.352 278.523 110.871 278.523 Q112.131 278.523 112.822 279.313 Q113.539 280.104 113.539 281.166 Q113.539 282.525 112.649 283.192 Q111.785 283.834 110.92 283.834 Q110.574 283.834 110.105 283.76 Q109.66 283.686 108.944 282.994 Q108.227 282.278 108.227 281.018 Q108.227 277.485 110.895 274.669 Q113.588 271.853 117.689 271.853 Q122.333 271.853 125.372 274.619 Q128.435 277.362 128.435 281.66 Q128.435 283.167 127.965 284.55 Q127.521 285.909 126.903 286.971 Q126.31 288.033 124.68 289.738 Q123.049 291.442 121.74 292.653 Q120.431 293.863 117.491 296.433 L112.131 301.645 L121.246 301.645 Q125.693 301.645 126.039 301.25 Q126.533 300.533 127.15 296.754 L128.435 296.754 L127.002 305.548 L108.227 305.548 Z" fill="#000000" fill-rule="evenodd" fill-opacity="1" /><path clip-path="url(#clip160)" d="M107.437 239.012 Q107.437 237.505 108.302 236.788 Q109.166 236.072 110.278 236.072 Q111.439 236.072 112.254 236.838 Q113.094 237.579 113.094 238.888 Q113.094 240.296 112.106 241.087 Q111.142 241.877 109.759 241.679 Q110.97 243.705 113.193 244.619 Q115.441 245.533 117.516 245.533 Q119.69 245.533 121.444 243.656 Q123.222 241.778 123.222 237.183 Q123.222 233.28 121.691 231.032 Q120.184 228.784 117.195 228.784 L114.971 228.784 Q114.206 228.784 113.983 228.71 Q113.761 228.636 113.761 228.216 Q113.761 227.722 114.527 227.623 Q115.293 227.623 116.503 227.475 Q119.443 227.376 120.999 224.832 Q122.407 222.46 122.407 219.076 Q122.407 215.988 120.925 214.703 Q119.467 213.394 117.565 213.394 Q115.787 213.394 113.835 214.135 Q111.884 214.876 110.821 216.531 Q113.959 216.531 113.959 219.076 Q113.959 220.188 113.242 220.929 Q112.551 221.645 111.389 221.645 Q110.278 221.645 109.537 220.953 Q108.796 220.237 108.796 219.027 Q108.796 216.136 111.365 214.135 Q113.959 212.134 117.763 212.134 Q121.518 212.134 124.285 214.111 Q127.076 216.087 127.076 219.125 Q127.076 222.114 125.1 224.56 Q123.124 227.006 119.986 228.019 Q123.84 228.784 126.137 231.403 Q128.435 233.997 128.435 237.183 Q128.435 241.136 125.322 244.051 Q122.21 246.941 117.664 246.941 Q113.465 246.941 110.451 244.669 Q107.437 242.396 107.437 239.012 Z" fill="#000000" fill-rule="evenodd" fill-opacity="1" /><path clip-path="url(#clip160)" d="M106.004 177.761 L106.004 176.205 L121.543 152.465 Q121.938 151.848 122.555 151.872 Q123.124 151.872 123.247 152.095 Q123.371 152.317 123.371 153.182 L123.371 176.205 L128.435 176.205 L128.435 177.761 L123.371 177.761 L123.371 182.159 Q123.371 183.616 123.963 184.086 Q124.581 184.555 127.2 184.555 L128.262 184.555 L128.262 186.111 Q126.187 185.963 121.394 185.963 Q116.627 185.963 114.552 186.111 L114.552 184.555 L115.614 184.555 Q118.232 184.555 118.85 184.11 Q119.467 183.641 119.467 182.159 L119.467 177.761 L106.004 177.761 M107.437 176.205 L119.764 176.205 L119.764 157.332 L107.437 176.205 Z" fill="#000000" fill-rule="evenodd" fill-opacity="1" /><path clip-path="url(#clip160)" d="M108.227 118.241 Q108.227 116.734 109.043 116.166 Q109.858 115.573 110.722 115.573 Q111.884 115.573 112.551 116.314 Q113.242 117.03 113.242 118.043 Q113.242 119.056 112.551 119.797 Q111.884 120.513 110.722 120.513 Q110.154 120.513 109.858 120.415 Q110.525 122.737 112.551 124.416 Q114.601 126.096 117.294 126.096 Q120.678 126.096 122.704 122.811 Q123.914 120.686 123.914 115.869 Q123.914 111.62 123 109.496 Q121.592 106.26 118.702 106.26 Q114.601 106.26 112.18 109.792 Q111.884 110.237 111.538 110.261 Q111.044 110.261 110.92 109.99 Q110.821 109.693 110.821 108.927 L110.821 93.9572 Q110.821 92.7468 111.315 92.7468 Q111.513 92.7468 111.933 92.895 Q115.12 94.3031 118.652 94.3278 Q122.284 94.3278 125.545 92.8456 Q125.792 92.6974 125.94 92.6974 Q126.434 92.6974 126.459 93.2656 Q126.459 93.4632 126.039 94.0561 Q125.643 94.6242 124.779 95.39 Q123.914 96.1311 122.802 96.8475 Q121.691 97.5639 120.06 98.058 Q118.455 98.5274 116.676 98.5274 Q114.552 98.5274 112.378 97.8604 L112.378 107.717 Q114.996 105.148 118.8 105.148 Q122.852 105.148 125.643 108.409 Q128.435 111.67 128.435 116.215 Q128.435 120.983 125.125 124.244 Q121.839 127.504 117.392 127.504 Q113.341 127.504 110.772 124.614 Q108.227 121.724 108.227 118.241 Z" fill="#000000" fill-rule="evenodd" fill-opacity="1" /><path clip-path="url(#clip160)" d="M107.437 50.6912 Q107.437 42.7368 111.488 37.8702 Q115.54 32.9789 120.752 32.9789 Q123.791 32.9789 125.47 34.5352 Q127.175 36.0669 127.175 38.4384 Q127.175 39.7477 126.409 40.3158 Q125.643 40.884 124.853 40.884 Q123.939 40.884 123.222 40.2664 Q122.506 39.6488 122.506 38.5372 Q122.506 36.2645 125.297 36.2645 Q123.988 34.2388 120.851 34.2388 Q119.887 34.2388 118.899 34.5352 Q117.911 34.807 116.627 35.7457 Q115.342 36.6844 114.354 38.1666 Q113.366 39.6488 112.674 42.4403 Q111.982 45.2318 111.982 48.8632 L111.982 50.0737 Q114.057 45.0589 118.306 45.0836 Q122.555 45.0836 125.495 48.3197 Q128.435 51.5559 128.435 56.3483 Q128.435 61.2643 125.372 64.5251 Q122.308 67.786 118.01 67.786 Q116.083 67.786 114.329 66.9708 Q112.6 66.1802 110.97 64.3522 Q109.364 62.5242 108.4 59.0163 Q107.437 55.5084 107.437 50.6912 M112.081 55.2367 Q112.081 60.202 112.995 62.5736 Q113.143 62.9688 113.465 63.5123 Q113.81 64.0558 114.379 64.7722 Q114.971 65.4639 115.935 65.9332 Q116.898 66.3779 118.01 66.3779 Q121.394 66.3779 123.025 63.0923 Q123.889 61.2643 123.889 56.2989 Q123.889 51.2347 122.975 49.382 Q121.419 46.2446 118.257 46.2446 Q116.133 46.2446 114.65 47.7021 Q113.193 49.1596 112.625 51.1112 Q112.081 53.0628 112.081 55.2367 Z" fill="#000000" fill-rule="evenodd" fill-opacity="1" /><path clip-path="url(#clip160)" d="M35.5691 465.195 Q29.5909 465.195 25.5828 462.138 Q21.5747 459.081 21.5747 454.971 Q21.5747 452.457 23.8165 449.978 Q29.1833 444.339 29.1493 436.968 Q29.1493 428.612 22.5597 423.755 Q21.5747 422.906 21.5747 422.294 Q21.5747 421.751 22.0162 421.343 Q22.4238 420.902 22.9673 420.902 Q23.3749 420.902 24.2241 421.445 L76.6014 456.635 Q77.6544 457.416 77.6544 458.028 Q77.6544 458.571 77.2128 459.013 Q76.8052 459.421 76.2617 459.421 Q75.7862 459.421 74.8691 458.809 L28.3341 427.559 L28.2662 427.627 Q30.7118 431.228 30.6779 436.9 Q30.6779 442.267 27.7567 447.396 Q31.3572 445.936 35.637 445.936 Q41.4794 445.936 45.5554 448.551 Q49.5975 451.167 49.5975 454.971 Q49.5975 459.081 45.6573 462.138 Q41.6832 465.195 35.5691 465.195 M29.8966 460.406 Q32.3422 460.881 35.637 460.881 Q38.8979 460.881 41.3435 460.406 Q43.7552 459.93 45.012 459.251 Q46.2688 458.537 47.016 457.586 Q47.7293 456.635 47.8992 456.058 Q48.069 455.48 48.069 454.903 Q48.069 452.05 44.5364 449.876 Q40.9699 447.668 35.5691 447.668 Q30.2702 447.668 26.7037 449.876 Q23.1032 452.05 23.1032 454.903 Q23.1032 455.514 23.273 456.126 Q23.4429 456.703 24.1901 457.62 Q24.9034 458.537 26.1602 459.251 Q27.417 459.93 29.8966 460.406 M63.592 434.387 Q57.6138 434.387 53.6057 431.33 Q49.5975 428.273 49.5975 424.163 Q49.5975 420.392 53.6736 417.777 Q57.7496 415.127 63.6599 415.127 Q69.5023 415.127 73.5783 417.743 Q77.6544 420.324 77.6544 424.163 Q77.6544 428.273 73.6802 431.33 Q69.7061 434.387 63.592 434.387 M57.9195 429.597 Q60.3991 430.073 63.6599 430.073 Q66.9208 430.073 69.3664 429.597 Q71.812 429.088 73.0688 428.409 Q74.2916 427.695 75.0049 426.778 Q75.7522 425.827 75.9221 425.25 Q76.1259 424.638 76.1259 424.095 Q76.1259 421.241 72.5933 419.068 Q69.0267 416.86 63.592 416.86 Q58.2931 416.86 54.7266 419.068 Q51.1261 421.241 51.1261 424.095 Q51.1261 424.706 51.3299 425.318 Q51.4997 425.895 52.247 426.812 Q52.9603 427.695 54.2171 428.409 Q55.4399 429.088 57.9195 429.597 Z" fill="#000000" fill-rule="evenodd" fill-opacity="1" /><path clip-path="url(#clip160)" d="M73.7482 385.746 L71.6082 385.746 Q71.6082 382.043 71.1667 381.194 Q70.6911 380.345 68.4493 380.345 L49.7334 380.345 Q47.1519 380.345 46.5405 381.228 Q45.9291 382.077 45.9291 385.474 L43.7552 385.474 L43.0079 375.76 L68.5172 375.76 Q70.5892 375.76 71.0987 375.012 Q71.6082 374.265 71.6082 370.868 L73.7482 370.868 Q73.5444 377.967 73.5444 378.103 Q73.5444 379.054 73.7482 385.746 M30.8817 382.825 Q29.489 382.825 28.3681 381.772 Q27.2132 380.685 27.2132 379.156 Q27.2132 377.628 28.2662 376.541 Q29.2852 375.454 30.9156 375.454 Q32.5121 375.454 33.5651 376.541 Q34.5841 377.628 34.5841 379.156 Q34.5841 380.753 33.4632 381.806 Q32.3422 382.825 30.8817 382.825 Z" fill="#000000" fill-rule="evenodd" fill-opacity="1" /><path clip-path="url(#clip160)" d="M73.7482 366.554 L71.6082 366.554 Q71.6082 362.852 71.1667 362.003 Q70.6911 361.154 68.4493 361.154 L49.8013 361.154 Q47.2198 361.154 46.5745 362.071 Q45.9291 362.954 45.9291 366.554 L43.7552 366.554 L43.0079 356.772 L50.3108 356.772 Q43.0079 353.511 43.0079 346.48 Q43.0079 341.249 45.5894 339.177 Q47.3217 337.648 49.2579 337.343 Q51.194 337.003 56.2211 337.003 L69.5023 337.003 Q70.9629 336.935 71.3025 335.814 Q71.6082 334.693 71.6082 331.568 L73.7482 331.568 Q73.5444 338.667 73.5444 339.381 Q73.5444 339.924 73.7482 347.227 L71.6082 347.227 Q71.6082 343.525 71.1667 342.676 Q70.6911 341.792 68.4493 341.792 L52.247 341.792 Q48.7144 341.792 46.6424 342.879 Q44.5364 343.966 44.5364 346.955 Q44.5364 350.556 47.5595 353.443 Q50.5826 356.33 55.6776 356.33 L68.4493 356.33 Q70.6911 356.33 71.1667 355.481 Q71.6082 354.598 71.6082 350.93 L73.7482 350.93 Q73.5444 358.029 73.5444 358.708 Q73.5444 359.251 73.7482 366.554 Z" fill="#000000" fill-rule="evenodd" fill-opacity="1" /><path clip-path="url(#clip160)" d="M45.9291 330.821 L44.4006 330.821 Q44.2647 327.628 42.0229 325.522 Q39.7471 323.382 36.9618 322.669 Q34.1765 321.922 30.9496 321.854 L30.9496 320.121 L43.7552 320.121 L43.7552 310.169 L45.9291 310.169 L45.9291 320.121 L65.2564 320.121 Q72.7631 320.121 72.7631 315.434 Q72.7631 313.43 70.7251 312.105 Q68.6531 310.78 64.9846 310.78 L61.1464 310.78 L61.1464 309.048 L65.1205 309.048 Q68.8909 309.048 71.7101 310.78 Q74.5294 312.513 74.5294 315.943 Q74.5294 317.2 74.1897 318.457 Q73.884 319.68 73.0688 321.31 Q72.2196 322.907 70.1816 323.926 Q68.1096 324.911 65.1205 324.911 L45.9291 324.911 L45.9291 330.821 Z" fill="#000000" fill-rule="evenodd" fill-opacity="1" /><path clip-path="url(#clip160)" d="M58.429 303.24 Q51.8733 303.24 47.2198 299.028 Q42.5663 294.816 42.5663 288.77 Q42.5663 282.656 46.5405 279.497 Q50.5146 276.304 56.2211 276.304 Q57.2741 276.304 57.4779 276.576 Q57.6817 276.847 57.6817 278.036 L57.6817 297.465 Q64.7808 297.465 68.1096 295.359 Q72.7631 292.438 72.7631 287.513 Q72.7631 286.834 72.6272 286.018 Q72.4914 285.203 71.9139 283.539 Q71.3025 281.874 69.7061 280.414 Q68.1096 278.953 65.596 278.104 Q64.611 277.9 64.645 277.221 Q64.645 276.304 65.4602 276.304 Q66.0716 276.304 67.4642 276.983 Q68.8229 277.629 70.4533 278.885 Q72.0838 280.142 73.3066 282.588 Q74.5294 284.999 74.5294 287.921 Q74.5294 294.035 69.9099 298.654 Q65.2564 303.24 58.429 303.24 M56.2211 297.397 L56.2211 280.889 Q54.7605 280.889 53.1301 281.161 Q51.4997 281.399 49.2579 282.146 Q46.9821 282.859 45.5554 284.558 Q44.1288 286.256 44.1288 288.77 Q44.1288 289.891 44.6044 291.113 Q45.0799 292.302 46.2348 293.763 Q47.3897 295.223 50.0051 296.242 Q52.6206 297.261 56.2211 297.397 Z" fill="#000000" fill-rule="evenodd" fill-opacity="1" /><path clip-path="url(#clip160)" d="M73.7482 272.364 L71.6082 272.364 Q71.6082 268.661 71.1667 267.812 Q70.6911 266.929 68.4493 266.929 L49.8013 266.929 Q47.2198 266.929 46.5745 267.846 Q45.9291 268.729 45.9291 272.364 L43.7552 272.364 L43.0079 262.683 L50.6505 262.683 Q47.6614 261.698 45.3516 259.626 Q43.0079 257.52 43.0079 254.123 Q43.0079 251.881 44.2647 250.455 Q45.5215 248.994 47.2538 248.994 Q48.7823 248.994 49.5636 249.945 Q50.3108 250.862 50.3108 251.983 Q50.3108 253.24 49.5296 254.123 Q48.7144 254.972 47.3217 254.972 Q46.4726 254.972 45.8272 254.599 Q45.1478 254.191 44.9101 253.885 Q44.6723 253.58 44.6044 253.376 Q44.5364 253.512 44.5364 254.123 Q44.5364 257.962 48.3747 260.169 Q52.179 262.343 57.6138 262.343 L68.3134 262.343 Q70.3175 262.343 70.9629 261.528 Q71.6082 260.679 71.6082 257.044 L71.6082 255.584 L73.7482 255.584 Q73.5444 258.369 73.5444 264.415 Q73.5444 265.264 73.5783 266.589 Q73.6123 267.914 73.6802 269.646 Q73.7482 271.379 73.7482 272.364 Z" fill="#000000" fill-rule="evenodd" fill-opacity="1" /><path clip-path="url(#clip160)" d="M45.9291 245.801 L43.7552 245.801 Q43.959 242.676 43.959 239.042 Q43.959 237.717 43.7552 231.467 L45.9291 231.467 Q45.9291 235.441 47.7293 235.441 Q48.0011 235.441 48.9182 235.034 L68.3134 227.221 L50.5826 220.122 Q49.3937 219.715 48.9182 219.715 Q47.7293 219.715 46.8802 220.53 Q45.997 221.311 45.9291 223.043 L43.7552 223.043 Q43.959 219.511 43.959 216.997 Q43.959 214.144 43.7552 211.8 L45.9291 211.8 Q45.9291 213.872 46.8802 215.333 Q47.7973 216.793 48.6125 217.269 Q49.3937 217.711 50.5826 218.186 L73.2047 227.289 Q74.5294 227.833 74.5294 228.75 Q74.5294 229.361 74.2577 229.633 Q74.0199 229.871 73.2047 230.21 L48.5106 240.231 Q46.7783 240.91 46.3707 241.793 Q45.9291 242.676 45.9291 245.801 Z" fill="#000000" fill-rule="evenodd" fill-opacity="1" /><path clip-path="url(#clip160)" d="M58.429 210.476 Q51.8733 210.476 47.2198 206.264 Q42.5663 202.052 42.5663 196.006 Q42.5663 189.891 46.5405 186.732 Q50.5146 183.54 56.2211 183.54 Q57.2741 183.54 57.4779 183.811 Q57.6817 184.083 57.6817 185.272 L57.6817 204.701 Q64.7808 204.701 68.1096 202.595 Q72.7631 199.674 72.7631 194.749 Q72.7631 194.069 72.6272 193.254 Q72.4914 192.439 71.9139 190.775 Q71.3025 189.11 69.7061 187.65 Q68.1096 186.189 65.596 185.34 Q64.611 185.136 64.645 184.457 Q64.645 183.54 65.4602 183.54 Q66.0716 183.54 67.4642 184.219 Q68.8229 184.864 70.4533 186.121 Q72.0838 187.378 73.3066 189.823 Q74.5294 192.235 74.5294 195.156 Q74.5294 201.27 69.9099 205.89 Q65.2564 210.476 58.429 210.476 M56.2211 204.633 L56.2211 188.125 Q54.7605 188.125 53.1301 188.397 Q51.4997 188.635 49.2579 189.382 Q46.9821 190.095 45.5554 191.794 Q44.1288 193.492 44.1288 196.006 Q44.1288 197.126 44.6044 198.349 Q45.0799 199.538 46.2348 200.999 Q47.3897 202.459 50.0051 203.478 Q52.6206 204.497 56.2211 204.633 Z" fill="#000000" fill-rule="evenodd" fill-opacity="1" /><path clip-path="url(#clip160)" d="M73.7482 179.294 L71.6082 179.294 Q71.6082 175.591 71.1667 174.742 Q70.6911 173.893 68.4493 173.893 L49.8013 173.893 Q47.2198 173.893 46.5745 174.81 Q45.9291 175.693 45.9291 179.294 L43.7552 179.294 L43.0079 169.511 L50.3108 169.511 Q43.0079 166.25 43.0079 159.219 Q43.0079 153.988 45.5894 151.916 Q47.3217 150.388 49.2579 150.082 Q51.194 149.742 56.2211 149.742 L69.5023 149.742 Q70.9629 149.674 71.3025 148.553 Q71.6082 147.433 71.6082 144.308 L73.7482 144.308 Q73.5444 151.407 73.5444 152.12 Q73.5444 152.663 73.7482 159.966 L71.6082 159.966 Q71.6082 156.264 71.1667 155.415 Q70.6911 154.532 68.4493 154.532 L52.247 154.532 Q48.7144 154.532 46.6424 155.619 Q44.5364 156.706 44.5364 159.695 Q44.5364 163.295 47.5595 166.182 Q50.5826 169.07 55.6776 169.07 L68.4493 169.07 Q70.6911 169.07 71.1667 168.22 Q71.6082 167.337 71.6082 163.669 L73.7482 163.669 Q73.5444 170.768 73.5444 171.447 Q73.5444 171.991 73.7482 179.294 Z" fill="#000000" fill-rule="evenodd" fill-opacity="1" /><path clip-path="url(#clip160)" d="M45.9291 143.56 L44.4006 143.56 Q44.2647 140.367 42.0229 138.261 Q39.7471 136.121 36.9618 135.408 Q34.1765 134.661 30.9496 134.593 L30.9496 132.861 L43.7552 132.861 L43.7552 122.908 L45.9291 122.908 L45.9291 132.861 L65.2564 132.861 Q72.7631 132.861 72.7631 128.173 Q72.7631 126.169 70.7251 124.844 Q68.6531 123.52 64.9846 123.52 L61.1464 123.52 L61.1464 121.787 L65.1205 121.787 Q68.8909 121.787 71.7101 123.52 Q74.5294 125.252 74.5294 128.683 Q74.5294 129.939 74.1897 131.196 Q73.884 132.419 73.0688 134.049 Q72.2196 135.646 70.1816 136.665 Q68.1096 137.65 65.1205 137.65 L45.9291 137.65 L45.9291 143.56 Z" fill="#000000" fill-rule="evenodd" fill-opacity="1" /><path clip-path="url(#clip160)" d="M73.7482 115.605 L71.6082 115.605 Q71.6082 111.903 71.1667 111.054 Q70.6911 110.205 68.4493 110.205 L49.7334 110.205 Q47.1519 110.205 46.5405 111.088 Q45.9291 111.937 45.9291 115.334 L43.7552 115.334 L43.0079 105.619 L68.5172 105.619 Q70.5892 105.619 71.0987 104.872 Q71.6082 104.124 71.6082 100.728 L73.7482 100.728 Q73.5444 107.827 73.5444 107.963 Q73.5444 108.914 73.7482 115.605 M30.8817 112.684 Q29.489 112.684 28.3681 111.631 Q27.2132 110.544 27.2132 109.016 Q27.2132 107.487 28.2662 106.4 Q29.2852 105.313 30.9156 105.313 Q32.5121 105.313 33.5651 106.4 Q34.5841 107.487 34.5841 109.016 Q34.5841 110.612 33.4632 111.665 Q32.3422 112.684 30.8817 112.684 Z" fill="#000000" fill-rule="evenodd" fill-opacity="1" /><path clip-path="url(#clip160)" d="M70.0118 92.1341 Q65.4602 96.7196 58.8706 96.7196 Q52.247 96.7196 47.4236 92.236 Q42.5663 87.7183 42.5663 81.2646 Q42.5663 74.9467 47.3897 70.4291 Q52.179 65.8775 58.8706 65.8775 Q65.4262 65.8775 69.9778 70.463 Q74.5294 75.0146 74.5294 81.3325 Q74.5294 87.5145 70.0118 92.1341 M58.2931 90.9452 Q65.0526 90.9452 68.1096 89.1789 Q72.7631 86.4616 72.7631 81.2646 Q72.7631 78.6831 71.3705 76.5432 Q69.9778 74.3693 67.6341 73.1804 Q64.577 71.6519 58.2931 71.6519 Q51.6016 71.6519 48.6465 73.4861 Q44.1288 76.2035 44.1288 81.3325 Q44.1288 83.5743 45.3177 85.7822 Q46.4726 87.9561 48.7823 89.2808 Q51.8394 90.9452 58.2931 90.9452 Z" fill="#000000" fill-rule="evenodd" fill-opacity="1" /><path clip-path="url(#clip160)" d="M73.7482 61.6316 L71.6082 61.6316 Q71.6082 57.9292 71.1667 57.08 Q70.6911 56.2308 68.4493 56.2308 L49.8013 56.2308 Q47.2198 56.2308 46.5745 57.1479 Q45.9291 58.0311 45.9291 61.6316 L43.7552 61.6316 L43.0079 51.8491 L50.3108 51.8491 Q43.0079 48.5882 43.0079 41.557 Q43.0079 36.3261 45.5894 34.2541 Q47.3217 32.7256 49.2579 32.4199 Q51.194 32.0802 56.2211 32.0802 L69.5023 32.0802 Q70.9629 32.0123 71.3025 30.8913 Q71.6082 29.7704 71.6082 26.6455 L73.7482 26.6455 Q73.5444 33.7446 73.5444 34.4579 Q73.5444 35.0014 73.7482 42.3043 L71.6082 42.3043 Q71.6082 38.6019 71.1667 37.7527 Q70.6911 36.8696 68.4493 36.8696 L52.247 36.8696 Q48.7144 36.8696 46.6424 37.9565 Q44.5364 39.0435 44.5364 42.0326 Q44.5364 45.6331 47.5595 48.5203 Q50.5826 51.4075 55.6776 51.4075 L68.4493 51.4075 Q70.6911 51.4075 71.1667 50.5583 Q71.6082 49.6752 71.6082 46.0067 L73.7482 46.0067 Q73.5444 53.1058 73.5444 53.7852 Q73.5444 54.3287 73.7482 61.6316 Z" fill="#000000" fill-rule="evenodd" fill-opacity="1" /><path clip-path="url(#clip160)" d="M72.831 22.977 L63.6599 22.977 Q62.8787 22.977 62.6069 22.943 Q62.3352 22.9091 62.1314 22.7053 Q61.9276 22.5015 61.9276 22.0939 Q61.9276 21.6183 62.1314 21.4485 Q62.3352 21.2447 63.1164 21.1088 Q67.9058 20.0558 70.4533 17.814 Q72.9669 15.5382 72.9669 11.4282 Q72.9669 7.52197 71.2346 5.55187 Q69.5023 3.58178 66.649 3.58178 Q61.554 3.58178 60.2632 10.8168 Q59.414 14.9947 58.8706 16.7271 Q58.2931 18.4594 57.0363 19.9879 Q54.5907 22.977 51.1261 22.977 Q47.6614 22.977 45.1139 20.3615 Q42.5663 17.7121 42.5663 11.8698 Q42.5663 7.96354 44.5364 5.3141 Q43.925 4.53286 43.4155 4.12526 Q42.5663 3.20814 42.5663 2.7326 Q42.5663 2.18913 42.94 2.08723 Q43.2797 1.98533 44.2647 1.98533 L51.2619 1.98533 Q52.0432 1.98533 52.3149 2.01929 Q52.5866 2.05326 52.7904 2.25706 Q52.9603 2.46087 52.9603 2.90244 Q52.9603 3.68368 52.3149 3.71765 Q43.8911 4.26112 43.8911 11.8698 Q43.8911 15.9798 45.4875 17.814 Q47.05 19.6482 49.1899 19.6482 Q50.3788 19.6482 51.2959 19.1048 Q52.179 18.5273 52.7225 17.814 Q53.232 17.0667 53.7415 15.708 Q54.2171 14.3494 54.3869 13.5341 Q54.5567 12.685 54.8964 11.0885 Q55.9494 5.51791 58.2252 3.17418 Q61.1464 0.253004 64.8488 0.253004 Q68.9588 0.253004 71.7441 3.03831 Q74.5294 5.82361 74.5294 11.4282 Q74.5294 15.9458 71.5063 19.1048 Q71.9139 19.5124 72.2876 19.8181 Q72.6272 20.1238 72.7631 20.2596 Q72.899 20.3615 73.0009 20.3955 Q73.0688 20.4295 73.1367 20.4974 Q74.5294 21.8901 74.5294 22.2297 Q74.5294 22.7732 74.1558 22.8751 Q73.8161 22.977 72.831 22.977 Z" fill="#000000" fill-rule="evenodd" fill-opacity="1" /><path clip-path="url(#clip162)" d="
M181.929 58.166 L181.929 407.705 L214.831 407.705 L214.831 58.166 L181.929 58.166 L181.929 58.166  Z
  " fill="#1abc9c" fill-rule="evenodd" fill-opacity="1"/>
<polyline clip-path="url(#clip162)" style="stroke:#1abc9c; stroke-linecap:butt; stroke-linejoin:round; stroke-width:4; stroke-opacity:1; fill:none" points="
  181.929,58.166 181.929,407.705 214.831,407.705 214.831,58.166 181.929,58.166 
  "/>
<path clip-path="url(#clip162)" d="
M346.437 57.9778 L346.437 407.705 L379.338 407.705 L379.338 57.9778 L346.437 57.9778 L346.437 57.9778  Z
  " fill="#1abc9c" fill-rule="evenodd" fill-opacity="1"/>
<polyline clip-path="url(#clip162)" style="stroke:#1abc9c; stroke-linecap:butt; stroke-linejoin:round; stroke-width:4; stroke-opacity:1; fill:none" points="
  346.437,57.9778 346.437,407.705 379.338,407.705 379.338,57.9778 346.437,57.9778 
  "/>
<path clip-path="url(#clip162)" d="
M510.945 57.7967 L510.945 407.705 L543.846 407.705 L543.846 57.7967 L510.945 57.7967 L510.945 57.7967  Z
  " fill="#1abc9c" fill-rule="evenodd" fill-opacity="1"/>
<polyline clip-path="url(#clip162)" style="stroke:#1abc9c; stroke-linecap:butt; stroke-linejoin:round; stroke-width:4; stroke-opacity:1; fill:none" points="
  510.945,57.7967 510.945,407.705 543.846,407.705 543.846,57.7967 510.945,57.7967 
  "/>
<path clip-path="url(#clip162)" d="
M675.452 57.743 L675.452 407.705 L708.354 407.705 L708.354 57.743 L675.452 57.743 L675.452 57.743  Z
  " fill="#1abc9c" fill-rule="evenodd" fill-opacity="1"/>
<polyline clip-path="url(#clip162)" style="stroke:#1abc9c; stroke-linecap:butt; stroke-linejoin:round; stroke-width:4; stroke-opacity:1; fill:none" points="
  675.452,57.743 675.452,407.705 708.354,407.705 708.354,57.743 675.452,57.743 
  "/>
<circle clip-path="url(#clip162)" style="fill:#1abc9c; stroke:none; fill-opacity:0" cx="198.38" cy="58.166" r="2"/>
<circle clip-path="url(#clip162)" style="fill:#1abc9c; stroke:none; fill-opacity:0" cx="362.888" cy="57.9778" r="2"/>
<circle clip-path="url(#clip162)" style="fill:#1abc9c; stroke:none; fill-opacity:0" cx="527.395" cy="57.7967" r="2"/>
<circle clip-path="url(#clip162)" style="fill:#1abc9c; stroke:none; fill-opacity:0" cx="691.903" cy="57.743" r="2"/>
<path clip-path="url(#clip162)" d="
M214.831 57.939 L214.831 407.705 L247.732 407.705 L247.732 57.939 L214.831 57.939 L214.831 57.939  Z
  " fill="#3498db" fill-rule="evenodd" fill-opacity="1"/>
<polyline clip-path="url(#clip162)" style="stroke:#3498db; stroke-linecap:butt; stroke-linejoin:round; stroke-width:4; stroke-opacity:1; fill:none" points="
  214.831,57.939 214.831,407.705 247.732,407.705 247.732,57.939 214.831,57.939 
  "/>
<path clip-path="url(#clip162)" d="
M379.338 57.9938 L379.338 407.705 L412.24 407.705 L412.24 57.9938 L379.338 57.9938 L379.338 57.9938  Z
  " fill="#3498db" fill-rule="evenodd" fill-opacity="1"/>
<polyline clip-path="url(#clip162)" style="stroke:#3498db; stroke-linecap:butt; stroke-linejoin:round; stroke-width:4; stroke-opacity:1; fill:none" points="
  379.338,57.9938 379.338,407.705 412.24,407.705 412.24,57.9938 379.338,57.9938 
  "/>
<path clip-path="url(#clip162)" d="
M543.846 57.8873 L543.846 407.705 L576.748 407.705 L576.748 57.8873 L543.846 57.8873 L543.846 57.8873  Z
  " fill="#3498db" fill-rule="evenodd" fill-opacity="1"/>
<polyline clip-path="url(#clip162)" style="stroke:#3498db; stroke-linecap:butt; stroke-linejoin:round; stroke-width:4; stroke-opacity:1; fill:none" points="
  543.846,57.8873 543.846,407.705 576.748,407.705 576.748,57.8873 543.846,57.8873 
  "/>
<path clip-path="url(#clip162)" d="
M708.354 57.9022 L708.354 407.705 L741.256 407.705 L741.256 57.9022 L708.354 57.9022 L708.354 57.9022  Z
  " fill="#3498db" fill-rule="evenodd" fill-opacity="1"/>
<polyline clip-path="url(#clip162)" style="stroke:#3498db; stroke-linecap:butt; stroke-linejoin:round; stroke-width:4; stroke-opacity:1; fill:none" points="
  708.354,57.9022 708.354,407.705 741.256,407.705 741.256,57.9022 708.354,57.9022 
  "/>
<circle clip-path="url(#clip162)" style="fill:#3498db; stroke:none; fill-opacity:0" cx="231.281" cy="57.939" r="2"/>
<circle clip-path="url(#clip162)" style="fill:#3498db; stroke:none; fill-opacity:0" cx="395.789" cy="57.9938" r="2"/>
<circle clip-path="url(#clip162)" style="fill:#3498db; stroke:none; fill-opacity:0" cx="560.297" cy="57.8873" r="2"/>
<circle clip-path="url(#clip162)" style="fill:#3498db; stroke:none; fill-opacity:0" cx="724.805" cy="57.9022" r="2"/>
<path clip-path="url(#clip162)" d="
M247.732 206.124 L247.732 407.705 L280.634 407.705 L280.634 206.124 L247.732 206.124 L247.732 206.124  Z
  " fill="#2ecc71" fill-rule="evenodd" fill-opacity="1"/>
<polyline clip-path="url(#clip162)" style="stroke:#2ecc71; stroke-linecap:butt; stroke-linejoin:round; stroke-width:4; stroke-opacity:1; fill:none" points="
  247.732,206.124 247.732,407.705 280.634,407.705 280.634,206.124 247.732,206.124 
  "/>
<path clip-path="url(#clip162)" d="
M412.24 248.333 L412.24 407.705 L445.142 407.705 L445.142 248.333 L412.24 248.333 L412.24 248.333  Z
  " fill="#2ecc71" fill-rule="evenodd" fill-opacity="1"/>
<polyline clip-path="url(#clip162)" style="stroke:#2ecc71; stroke-linecap:butt; stroke-linejoin:round; stroke-width:4; stroke-opacity:1; fill:none" points="
  412.24,248.333 412.24,407.705 445.142,407.705 445.142,248.333 412.24,248.333 
  "/>
<path clip-path="url(#clip162)" d="
M576.748 220.551 L576.748 407.705 L609.649 407.705 L609.649 220.551 L576.748 220.551 L576.748 220.551  Z
  " fill="#2ecc71" fill-rule="evenodd" fill-opacity="1"/>
<polyline clip-path="url(#clip162)" style="stroke:#2ecc71; stroke-linecap:butt; stroke-linejoin:round; stroke-width:4; stroke-opacity:1; fill:none" points="
  576.748,220.551 576.748,407.705 609.649,407.705 609.649,220.551 576.748,220.551 
  "/>
<path clip-path="url(#clip162)" d="
M741.256 205.696 L741.256 407.705 L774.157 407.705 L774.157 205.696 L741.256 205.696 L741.256 205.696  Z
  " fill="#2ecc71" fill-rule="evenodd" fill-opacity="1"/>
<polyline clip-path="url(#clip162)" style="stroke:#2ecc71; stroke-linecap:butt; stroke-linejoin:round; stroke-width:4; stroke-opacity:1; fill:none" points="
  741.256,205.696 741.256,407.705 774.157,407.705 774.157,205.696 741.256,205.696 
  "/>
<circle clip-path="url(#clip162)" style="fill:#2ecc71; stroke:none; fill-opacity:0" cx="264.183" cy="206.124" r="2"/>
<circle clip-path="url(#clip162)" style="fill:#2ecc71; stroke:none; fill-opacity:0" cx="428.691" cy="248.333" r="2"/>
<circle clip-path="url(#clip162)" style="fill:#2ecc71; stroke:none; fill-opacity:0" cx="593.199" cy="220.551" r="2"/>
<circle clip-path="url(#clip162)" style="fill:#2ecc71; stroke:none; fill-opacity:0" cx="757.706" cy="205.696" r="2"/>
<path clip-path="url(#clip162)" d="
M280.634 266.192 L280.634 407.705 L313.535 407.705 L313.535 266.192 L280.634 266.192 L280.634 266.192  Z
  " fill="#9b59b6" fill-rule="evenodd" fill-opacity="1"/>
<polyline clip-path="url(#clip162)" style="stroke:#9b59b6; stroke-linecap:butt; stroke-linejoin:round; stroke-width:4; stroke-opacity:1; fill:none" points="
  280.634,266.192 280.634,407.705 313.535,407.705 313.535,266.192 280.634,266.192 
  "/>
<path clip-path="url(#clip162)" d="
M445.142 225.191 L445.142 407.705 L478.043 407.705 L478.043 225.191 L445.142 225.191 L445.142 225.191  Z
  " fill="#9b59b6" fill-rule="evenodd" fill-opacity="1"/>
<polyline clip-path="url(#clip162)" style="stroke:#9b59b6; stroke-linecap:butt; stroke-linejoin:round; stroke-width:4; stroke-opacity:1; fill:none" points="
  445.142,225.191 445.142,407.705 478.043,407.705 478.043,225.191 445.142,225.191 
  "/>
<path clip-path="url(#clip162)" d="
M609.649 241.605 L609.649 407.705 L642.551 407.705 L642.551 241.605 L609.649 241.605 L609.649 241.605  Z
  " fill="#9b59b6" fill-rule="evenodd" fill-opacity="1"/>
<polyline clip-path="url(#clip162)" style="stroke:#9b59b6; stroke-linecap:butt; stroke-linejoin:round; stroke-width:4; stroke-opacity:1; fill:none" points="
  609.649,241.605 609.649,407.705 642.551,407.705 642.551,241.605 609.649,241.605 
  "/>
<path clip-path="url(#clip162)" d="
M774.157 233.495 L774.157 407.705 L807.059 407.705 L807.059 233.495 L774.157 233.495 L774.157 233.495  Z
  " fill="#9b59b6" fill-rule="evenodd" fill-opacity="1"/>
<polyline clip-path="url(#clip162)" style="stroke:#9b59b6; stroke-linecap:butt; stroke-linejoin:round; stroke-width:4; stroke-opacity:1; fill:none" points="
  774.157,233.495 774.157,407.705 807.059,407.705 807.059,233.495 774.157,233.495 
  "/>
<circle clip-path="url(#clip162)" style="fill:#9b59b6; stroke:none; fill-opacity:0" cx="297.084" cy="266.192" r="2"/>
<circle clip-path="url(#clip162)" style="fill:#9b59b6; stroke:none; fill-opacity:0" cx="461.592" cy="225.191" r="2"/>
<circle clip-path="url(#clip162)" style="fill:#9b59b6; stroke:none; fill-opacity:0" cx="626.1" cy="241.605" r="2"/>
<circle clip-path="url(#clip162)" style="fill:#9b59b6; stroke:none; fill-opacity:0" cx="790.608" cy="233.495" r="2"/>
<path clip-path="url(#clip160)" d="
M876.097 336.404 L1152.76 336.404 L1152.76 77.204 L876.097 77.204  Z
  " fill="#ffffff" fill-rule="evenodd" fill-opacity="1"/>
<polyline clip-path="url(#clip160)" style="stroke:#000000; stroke-linecap:butt; stroke-linejoin:round; stroke-width:4; stroke-opacity:1; fill:none" points="
  876.097,336.404 1152.76,336.404 1152.76,77.204 876.097,77.204 876.097,336.404 
  "/>
<path clip-path="url(#clip160)" d="
M887.278 149.78 L954.366 149.78 L954.366 108.308 L887.278 108.308 L887.278 149.78  Z
  " fill="#1abc9c" fill-rule="evenodd" fill-opacity="1"/>
<polyline clip-path="url(#clip160)" style="stroke:#1abc9c; stroke-linecap:butt; stroke-linejoin:round; stroke-width:4; stroke-opacity:1; fill:none" points="
  887.278,149.78 954.366,149.78 954.366,108.308 887.278,108.308 887.278,149.78 
  "/>
<path clip-path="url(#clip160)" d="M965.548 135.454 Q965.548 130.637 968.907 127.302 Q972.267 123.967 976.812 123.967 Q980.666 123.967 983.186 127.105 L983.186 116.161 Q983.186 114.284 982.519 113.814 Q981.877 113.345 979.258 113.345 L979.258 111.764 L986.546 111.22 L986.546 141.927 Q986.546 143.804 987.188 144.298 Q987.855 144.768 990.473 144.768 L990.473 146.324 L983.038 146.892 L983.038 143.532 Q980.419 146.867 976.269 146.892 Q971.921 146.892 968.734 143.557 Q965.548 140.222 965.548 135.454 M969.747 135.504 Q969.747 140.198 971.205 142.52 Q973.23 145.756 976.516 145.756 Q980.271 145.756 982.494 142.223 Q983.062 141.359 983.038 140.346 L983.038 129.97 Q983.038 128.958 982.494 128.118 Q980.419 125.079 977.035 125.079 Q973.502 125.079 971.304 128.315 Q969.747 130.736 969.747 135.504 Z" fill="#000000" fill-rule="evenodd" fill-opacity="1" /><path clip-path="url(#clip160)" d="M994.772 138.641 Q994.821 138.024 995.785 138.024 L1026.79 138.024 Q1028.24 138.024 1028.27 138.592 Q1028.27 139.209 1026.89 139.185 L996.13 139.185 Q994.772 139.209 994.772 138.641 M994.772 128.76 Q994.772 128.142 995.834 128.167 L1026.74 128.167 Q1028.24 128.167 1028.27 128.76 Q1028.27 129.328 1026.98 129.328 L995.785 129.328 Q994.772 129.328 994.772 128.76 Z" fill="#000000" fill-rule="evenodd" fill-opacity="1" /><path clip-path="url(#clip160)" d="M1033.21 130.143 Q1033.21 122.708 1035.09 118.656 Q1037.71 112.629 1043.88 112.629 Q1045.19 112.629 1046.55 112.999 Q1047.93 113.345 1049.66 114.704 Q1051.42 116.062 1052.48 118.286 Q1054.5 122.584 1054.5 130.143 Q1054.5 137.53 1052.63 141.556 Q1049.88 147.436 1043.83 147.436 Q1041.56 147.436 1039.24 146.275 Q1036.94 145.114 1035.48 142.322 Q1033.21 138.147 1033.21 130.143 M1037.41 129.526 Q1037.41 137.159 1037.95 140.198 Q1038.57 143.483 1040.25 144.916 Q1041.96 146.324 1043.83 146.324 Q1045.86 146.324 1047.54 144.817 Q1049.24 143.285 1049.76 140 Q1050.33 136.764 1050.3 129.526 Q1050.3 122.485 1049.81 119.669 Q1049.14 116.383 1047.37 115.074 Q1045.61 113.74 1043.83 113.74 Q1043.17 113.74 1042.45 113.938 Q1041.76 114.135 1040.74 114.704 Q1039.73 115.272 1038.94 116.68 Q1038.18 118.088 1037.81 120.213 Q1037.41 122.955 1037.41 129.526 Z" fill="#000000" fill-rule="evenodd" fill-opacity="1" /><path clip-path="url(#clip160)" d="
M887.278 201.62 L954.366 201.62 L954.366 160.148 L887.278 160.148 L887.278 201.62  Z
  " fill="#3498db" fill-rule="evenodd" fill-opacity="1"/>
<polyline clip-path="url(#clip160)" style="stroke:#3498db; stroke-linecap:butt; stroke-linejoin:round; stroke-width:4; stroke-opacity:1; fill:none" points="
  887.278,201.62 954.366,201.62 954.366,160.148 887.278,160.148 887.278,201.62 
  "/>
<path clip-path="url(#clip160)" d="M965.548 187.294 Q965.548 182.477 968.907 179.142 Q972.267 175.807 976.812 175.807 Q980.666 175.807 983.186 178.945 L983.186 168.001 Q983.186 166.124 982.519 165.654 Q981.877 165.185 979.258 165.185 L979.258 163.604 L986.546 163.06 L986.546 193.767 Q986.546 195.644 987.188 196.138 Q987.855 196.608 990.473 196.608 L990.473 198.164 L983.038 198.732 L983.038 195.372 Q980.419 198.707 976.269 198.732 Q971.921 198.732 968.734 195.397 Q965.548 192.062 965.548 187.294 M969.747 187.344 Q969.747 192.038 971.205 194.36 Q973.23 197.596 976.516 197.596 Q980.271 197.596 982.494 194.063 Q983.062 193.199 983.038 192.186 L983.038 181.81 Q983.038 180.798 982.494 179.958 Q980.419 176.919 977.035 176.919 Q973.502 176.919 971.304 180.155 Q969.747 182.576 969.747 187.344 Z" fill="#000000" fill-rule="evenodd" fill-opacity="1" /><path clip-path="url(#clip160)" d="M994.772 190.481 Q994.821 189.864 995.785 189.864 L1026.79 189.864 Q1028.24 189.864 1028.27 190.432 Q1028.27 191.049 1026.89 191.025 L996.13 191.025 Q994.772 191.049 994.772 190.481 M994.772 180.6 Q994.772 179.982 995.834 180.007 L1026.74 180.007 Q1028.24 180.007 1028.27 180.6 Q1028.27 181.168 1026.98 181.168 L995.785 181.168 Q994.772 181.168 994.772 180.6 Z" fill="#000000" fill-rule="evenodd" fill-opacity="1" /><path clip-path="url(#clip160)" d="M1035.73 169.286 L1035.73 167.705 Q1041.81 167.705 1044.94 164.469 Q1045.81 164.469 1045.96 164.666 Q1046.11 164.864 1046.11 165.778 L1046.11 194.162 Q1046.11 195.669 1046.85 196.138 Q1047.59 196.608 1050.82 196.608 L1052.43 196.608 L1052.43 198.164 Q1050.65 198.016 1044.23 198.016 Q1037.81 198.016 1036.05 198.164 L1036.05 196.608 L1037.66 196.608 Q1040.84 196.608 1041.61 196.163 Q1042.38 195.694 1042.38 194.162 L1042.38 167.952 Q1039.73 169.286 1035.73 169.286 Z" fill="#000000" fill-rule="evenodd" fill-opacity="1" /><path clip-path="url(#clip160)" d="M1058.51 181.983 Q1058.51 174.548 1060.38 170.496 Q1063 164.469 1069.18 164.469 Q1070.49 164.469 1071.85 164.839 Q1073.23 165.185 1074.96 166.544 Q1076.71 167.902 1077.78 170.126 Q1079.8 174.424 1079.8 181.983 Q1079.8 189.37 1077.92 193.396 Q1075.18 199.276 1069.13 199.276 Q1066.86 199.276 1064.53 198.115 Q1062.24 196.954 1060.78 194.162 Q1058.51 189.987 1058.51 181.983 M1062.71 181.366 Q1062.71 188.999 1063.25 192.038 Q1063.87 195.323 1065.55 196.756 Q1067.25 198.164 1069.13 198.164 Q1071.15 198.164 1072.83 196.657 Q1074.54 195.125 1075.06 191.84 Q1075.63 188.604 1075.6 181.366 Q1075.6 174.325 1075.11 171.509 Q1074.44 168.223 1072.66 166.914 Q1070.91 165.58 1069.13 165.58 Q1068.46 165.58 1067.75 165.778 Q1067.05 165.975 1066.04 166.544 Q1065.03 167.112 1064.24 168.52 Q1063.47 169.928 1063.1 172.053 Q1062.71 174.795 1062.71 181.366 Z" fill="#000000" fill-rule="evenodd" fill-opacity="1" /><path clip-path="url(#clip160)" d="
M887.278 253.46 L954.366 253.46 L954.366 211.988 L887.278 211.988 L887.278 253.46  Z
  " fill="#2ecc71" fill-rule="evenodd" fill-opacity="1"/>
<polyline clip-path="url(#clip160)" style="stroke:#2ecc71; stroke-linecap:butt; stroke-linejoin:round; stroke-width:4; stroke-opacity:1; fill:none" points="
  887.278,253.46 954.366,253.46 954.366,211.988 887.278,211.988 887.278,253.46 
  "/>
<path clip-path="url(#clip160)" d="M965.548 239.134 Q965.548 234.317 968.907 230.982 Q972.267 227.647 976.812 227.647 Q980.666 227.647 983.186 230.785 L983.186 219.841 Q983.186 217.964 982.519 217.494 Q981.877 217.025 979.258 217.025 L979.258 215.444 L986.546 214.9 L986.546 245.607 Q986.546 247.484 987.188 247.978 Q987.855 248.448 990.473 248.448 L990.473 250.004 L983.038 250.572 L983.038 247.212 Q980.419 250.547 976.269 250.572 Q971.921 250.572 968.734 247.237 Q965.548 243.902 965.548 239.134 M969.747 239.184 Q969.747 243.878 971.205 246.2 Q973.23 249.436 976.516 249.436 Q980.271 249.436 982.494 245.903 Q983.062 245.039 983.038 244.026 L983.038 233.65 Q983.038 232.638 982.494 231.798 Q980.419 228.759 977.035 228.759 Q973.502 228.759 971.304 231.995 Q969.747 234.416 969.747 239.184 Z" fill="#000000" fill-rule="evenodd" fill-opacity="1" /><path clip-path="url(#clip160)" d="M994.772 242.321 Q994.821 241.704 995.785 241.704 L1026.79 241.704 Q1028.24 241.704 1028.27 242.272 Q1028.27 242.889 1026.89 242.865 L996.13 242.865 Q994.772 242.889 994.772 242.321 M994.772 232.44 Q994.772 231.822 995.834 231.847 L1026.74 231.847 Q1028.24 231.847 1028.27 232.44 Q1028.27 233.008 1026.98 233.008 L995.785 233.008 Q994.772 233.008 994.772 232.44 Z" fill="#000000" fill-rule="evenodd" fill-opacity="1" /><path clip-path="url(#clip160)" d="M1035.73 221.126 L1035.73 219.545 Q1041.81 219.545 1044.94 216.309 Q1045.81 216.309 1045.96 216.506 Q1046.11 216.704 1046.11 217.618 L1046.11 246.002 Q1046.11 247.509 1046.85 247.978 Q1047.59 248.448 1050.82 248.448 L1052.43 248.448 L1052.43 250.004 Q1050.65 249.856 1044.23 249.856 Q1037.81 249.856 1036.05 250.004 L1036.05 248.448 L1037.66 248.448 Q1040.84 248.448 1041.61 248.003 Q1042.38 247.534 1042.38 246.002 L1042.38 219.792 Q1039.73 221.126 1035.73 221.126 Z" fill="#000000" fill-rule="evenodd" fill-opacity="1" /><path clip-path="url(#clip160)" d="M1058.51 233.823 Q1058.51 226.388 1060.38 222.336 Q1063 216.309 1069.18 216.309 Q1070.49 216.309 1071.85 216.679 Q1073.23 217.025 1074.96 218.384 Q1076.71 219.742 1077.78 221.966 Q1079.8 226.264 1079.8 233.823 Q1079.8 241.21 1077.92 245.236 Q1075.18 251.116 1069.13 251.116 Q1066.86 251.116 1064.53 249.955 Q1062.24 248.794 1060.78 246.002 Q1058.51 241.827 1058.51 233.823 M1062.71 233.206 Q1062.71 240.839 1063.25 243.878 Q1063.87 247.163 1065.55 248.596 Q1067.25 250.004 1069.13 250.004 Q1071.15 250.004 1072.83 248.497 Q1074.54 246.965 1075.06 243.68 Q1075.63 240.444 1075.6 233.206 Q1075.6 226.165 1075.11 223.349 Q1074.44 220.063 1072.66 218.754 Q1070.91 217.42 1069.13 217.42 Q1068.46 217.42 1067.75 217.618 Q1067.05 217.815 1066.04 218.384 Q1065.03 218.952 1064.24 220.36 Q1063.47 221.768 1063.1 223.893 Q1062.71 226.635 1062.71 233.206 Z" fill="#000000" fill-rule="evenodd" fill-opacity="1" /><path clip-path="url(#clip160)" d="M1083.8 233.823 Q1083.8 226.388 1085.68 222.336 Q1088.3 216.309 1094.47 216.309 Q1095.78 216.309 1097.14 216.679 Q1098.53 217.025 1100.26 218.384 Q1102.01 219.742 1103.07 221.966 Q1105.1 226.264 1105.1 233.823 Q1105.1 241.21 1103.22 245.236 Q1100.48 251.116 1094.43 251.116 Q1092.15 251.116 1089.83 249.955 Q1087.53 248.794 1086.08 246.002 Q1083.8 241.827 1083.8 233.823 M1088 233.206 Q1088 240.839 1088.55 243.878 Q1089.16 247.163 1090.84 248.596 Q1092.55 250.004 1094.43 250.004 Q1096.45 250.004 1098.13 248.497 Q1099.84 246.965 1100.35 243.68 Q1100.92 240.444 1100.9 233.206 Q1100.9 226.165 1100.4 223.349 Q1099.74 220.063 1097.96 218.754 Q1096.2 217.42 1094.43 217.42 Q1093.76 217.42 1093.04 217.618 Q1092.35 217.815 1091.34 218.384 Q1090.32 218.952 1089.53 220.36 Q1088.77 221.768 1088.4 223.893 Q1088 226.635 1088 233.206 Z" fill="#000000" fill-rule="evenodd" fill-opacity="1" /><path clip-path="url(#clip160)" d="
M887.278 305.3 L954.366 305.3 L954.366 263.828 L887.278 263.828 L887.278 305.3  Z
  " fill="#9b59b6" fill-rule="evenodd" fill-opacity="1"/>
<polyline clip-path="url(#clip160)" style="stroke:#9b59b6; stroke-linecap:butt; stroke-linejoin:round; stroke-width:4; stroke-opacity:1; fill:none" points="
  887.278,305.3 954.366,305.3 954.366,263.828 887.278,263.828 887.278,305.3 
  "/>
<path clip-path="url(#clip160)" d="M965.548 290.974 Q965.548 286.157 968.907 282.822 Q972.267 279.487 976.812 279.487 Q980.666 279.487 983.186 282.625 L983.186 271.681 Q983.186 269.804 982.519 269.334 Q981.877 268.865 979.258 268.865 L979.258 267.284 L986.546 266.74 L986.546 297.447 Q986.546 299.324 987.188 299.818 Q987.855 300.288 990.473 300.288 L990.473 301.844 L983.038 302.412 L983.038 299.052 Q980.419 302.387 976.269 302.412 Q971.921 302.412 968.734 299.077 Q965.548 295.742 965.548 290.974 M969.747 291.024 Q969.747 295.718 971.205 298.04 Q973.23 301.276 976.516 301.276 Q980.271 301.276 982.494 297.743 Q983.062 296.879 983.038 295.866 L983.038 285.49 Q983.038 284.478 982.494 283.638 Q980.419 280.599 977.035 280.599 Q973.502 280.599 971.304 283.835 Q969.747 286.256 969.747 291.024 Z" fill="#000000" fill-rule="evenodd" fill-opacity="1" /><path clip-path="url(#clip160)" d="M994.772 294.161 Q994.821 293.544 995.785 293.544 L1026.79 293.544 Q1028.24 293.544 1028.27 294.112 Q1028.27 294.729 1026.89 294.705 L996.13 294.705 Q994.772 294.729 994.772 294.161 M994.772 284.28 Q994.772 283.662 995.834 283.687 L1026.74 283.687 Q1028.24 283.687 1028.27 284.28 Q1028.27 284.848 1026.98 284.848 L995.785 284.848 Q994.772 284.848 994.772 284.28 Z" fill="#000000" fill-rule="evenodd" fill-opacity="1" /><path clip-path="url(#clip160)" d="M1035.73 272.966 L1035.73 271.385 Q1041.81 271.385 1044.94 268.149 Q1045.81 268.149 1045.96 268.346 Q1046.11 268.544 1046.11 269.458 L1046.11 297.842 Q1046.11 299.349 1046.85 299.818 Q1047.59 300.288 1050.82 300.288 L1052.43 300.288 L1052.43 301.844 Q1050.65 301.696 1044.23 301.696 Q1037.81 301.696 1036.05 301.844 L1036.05 300.288 L1037.66 300.288 Q1040.84 300.288 1041.61 299.843 Q1042.38 299.374 1042.38 297.842 L1042.38 271.632 Q1039.73 272.966 1035.73 272.966 Z" fill="#000000" fill-rule="evenodd" fill-opacity="1" /><path clip-path="url(#clip160)" d="M1058.51 285.663 Q1058.51 278.228 1060.38 274.176 Q1063 268.149 1069.18 268.149 Q1070.49 268.149 1071.85 268.519 Q1073.23 268.865 1074.96 270.224 Q1076.71 271.582 1077.78 273.806 Q1079.8 278.104 1079.8 285.663 Q1079.8 293.05 1077.92 297.076 Q1075.18 302.956 1069.13 302.956 Q1066.86 302.956 1064.53 301.795 Q1062.24 300.634 1060.78 297.842 Q1058.51 293.667 1058.51 285.663 M1062.71 285.046 Q1062.71 292.679 1063.25 295.718 Q1063.87 299.003 1065.55 300.436 Q1067.25 301.844 1069.13 301.844 Q1071.15 301.844 1072.83 300.337 Q1074.54 298.805 1075.06 295.52 Q1075.63 292.284 1075.6 285.046 Q1075.6 278.005 1075.11 275.189 Q1074.44 271.903 1072.66 270.594 Q1070.91 269.26 1069.13 269.26 Q1068.46 269.26 1067.75 269.458 Q1067.05 269.655 1066.04 270.224 Q1065.03 270.792 1064.24 272.2 Q1063.47 273.608 1063.1 275.733 Q1062.71 278.475 1062.71 285.046 Z" fill="#000000" fill-rule="evenodd" fill-opacity="1" /><path clip-path="url(#clip160)" d="M1083.8 285.663 Q1083.8 278.228 1085.68 274.176 Q1088.3 268.149 1094.47 268.149 Q1095.78 268.149 1097.14 268.519 Q1098.53 268.865 1100.26 270.224 Q1102.01 271.582 1103.07 273.806 Q1105.1 278.104 1105.1 285.663 Q1105.1 293.05 1103.22 297.076 Q1100.48 302.956 1094.43 302.956 Q1092.15 302.956 1089.83 301.795 Q1087.53 300.634 1086.08 297.842 Q1083.8 293.667 1083.8 285.663 M1088 285.046 Q1088 292.679 1088.55 295.718 Q1089.16 299.003 1090.84 300.436 Q1092.55 301.844 1094.43 301.844 Q1096.45 301.844 1098.13 300.337 Q1099.84 298.805 1100.35 295.52 Q1100.92 292.284 1100.9 285.046 Q1100.9 278.005 1100.4 275.189 Q1099.74 271.903 1097.96 270.594 Q1096.2 269.26 1094.43 269.26 Q1093.76 269.26 1093.04 269.458 Q1092.35 269.655 1091.34 270.224 Q1090.32 270.792 1089.53 272.2 Q1088.77 273.608 1088.4 275.733 Q1088 278.475 1088 285.046 Z" fill="#000000" fill-rule="evenodd" fill-opacity="1" /><path clip-path="url(#clip160)" d="M1109.1 285.663 Q1109.1 278.228 1110.98 274.176 Q1113.59 268.149 1119.77 268.149 Q1121.08 268.149 1122.44 268.519 Q1123.82 268.865 1125.55 270.224 Q1127.31 271.582 1128.37 273.806 Q1130.39 278.104 1130.39 285.663 Q1130.39 293.05 1128.52 297.076 Q1125.77 302.956 1119.72 302.956 Q1117.45 302.956 1115.13 301.795 Q1112.83 300.634 1111.37 297.842 Q1109.1 293.667 1109.1 285.663 M1113.3 285.046 Q1113.3 292.679 1113.84 295.718 Q1114.46 299.003 1116.14 300.436 Q1117.84 301.844 1119.72 301.844 Q1121.75 301.844 1123.43 300.337 Q1125.13 298.805 1125.65 295.52 Q1126.22 292.284 1126.19 285.046 Q1126.19 278.005 1125.7 275.189 Q1125.03 271.903 1123.25 270.594 Q1121.5 269.26 1119.72 269.26 Q1119.05 269.26 1118.34 269.458 Q1117.65 269.655 1116.63 270.224 Q1115.62 270.792 1114.83 272.2 Q1114.06 273.608 1113.69 275.733 Q1113.3 278.475 1113.3 285.046 Z" fill="#000000" fill-rule="evenodd" fill-opacity="1" /></svg>
