<?xml version="1.0" encoding="utf-8"?>
<svg xmlns="http://www.w3.org/2000/svg" xmlns:xlink="http://www.w3.org/1999/xlink" width="300" height="140" viewBox="0 0 1200 560">
<defs>
  <clipPath id="clip750">
    <rect x="0" y="0" width="1200" height="560"/>
  </clipPath>
</defs>
<path clip-path="url(#clip750)" d="
M0 560 L1200 560 L1200 0 L0 0  Z
  " fill="#ffffff" fill-rule="evenodd" fill-opacity="1"/>
<defs>
  <clipPath id="clip751">
    <rect x="240" y="0" width="841" height="560"/>
  </clipPath>
</defs>
<path clip-path="url(#clip750)" d="
M170.051 418.204 L856.883 418.204 L856.883 47.2441 L170.051 47.2441  Z
  " fill="#ffffff" fill-rule="evenodd" fill-opacity="1"/>
<defs>
  <clipPath id="clip752">
    <rect x="170" y="47" width="688" height="372"/>
  </clipPath>
</defs>
<polyline clip-path="url(#clip752)" style="stroke:#000000; stroke-linecap:round; stroke-linejoin:round; stroke-width:2; stroke-opacity:0.1; fill:none" points="
  269.997,418.204 269.997,47.2441 
  "/>
<polyline clip-path="url(#clip752)" style="stroke:#000000; stroke-linecap:round; stroke-linejoin:round; stroke-width:2; stroke-opacity:0.1; fill:none" points="
  432.311,418.204 432.311,47.2441 
  "/>
<polyline clip-path="url(#clip752)" style="stroke:#000000; stroke-linecap:round; stroke-linejoin:round; stroke-width:2; stroke-opacity:0.1; fill:none" points="
  594.624,418.204 594.624,47.2441 
  "/>
<polyline clip-path="url(#clip752)" style="stroke:#000000; stroke-linecap:round; stroke-linejoin:round; stroke-width:2; stroke-opacity:0.1; fill:none" points="
  756.937,418.204 756.937,47.2441 
  "/>
<polyline clip-path="url(#clip750)" style="stroke:#000000; stroke-linecap:round; stroke-linejoin:round; stroke-width:4; stroke-opacity:1; fill:none" points="
  170.051,418.204 856.883,418.204 
  "/>
<polyline clip-path="url(#clip750)" style="stroke:#000000; stroke-linecap:round; stroke-linejoin:round; stroke-width:4; stroke-opacity:1; fill:none" points="
  269.997,418.204 269.997,399.306 
  "/>
<polyline clip-path="url(#clip750)" style="stroke:#000000; stroke-linecap:round; stroke-linejoin:round; stroke-width:4; stroke-opacity:1; fill:none" points="
  432.311,418.204 432.311,399.306 
  "/>
<polyline clip-path="url(#clip750)" style="stroke:#000000; stroke-linecap:round; stroke-linejoin:round; stroke-width:4; stroke-opacity:1; fill:none" points="
  594.624,418.204 594.624,399.306 
  "/>
<polyline clip-path="url(#clip750)" style="stroke:#000000; stroke-linecap:round; stroke-linejoin:round; stroke-width:4; stroke-opacity:1; fill:none" points="
  756.937,418.204 756.937,399.306 
  "/>
<path clip-path="url(#clip750)" d="M233.325 442.126 L233.325 440.545 Q239.402 440.545 242.539 437.308 Q243.404 437.308 243.552 437.506 Q243.701 437.704 243.701 438.618 L243.701 467.002 Q243.701 468.509 244.442 468.978 Q245.183 469.448 248.419 469.448 L250.025 469.448 L250.025 471.004 Q248.246 470.856 241.823 470.856 Q235.4 470.856 233.646 471.004 L233.646 469.448 L235.252 469.448 Q238.439 469.448 239.205 469.003 Q239.97 468.534 239.97 467.002 L239.97 440.792 Q237.327 442.126 233.325 442.126 Z" fill="#000000" fill-rule="evenodd" fill-opacity="1" /><path clip-path="url(#clip750)" d="M256.645 462.852 Q256.645 461.345 257.46 460.777 Q258.275 460.184 259.14 460.184 Q260.301 460.184 260.968 460.925 Q261.66 461.641 261.66 462.654 Q261.66 463.667 260.968 464.408 Q260.301 465.124 259.14 465.124 Q258.572 465.124 258.275 465.026 Q258.942 467.348 260.968 469.028 Q263.019 470.707 265.711 470.707 Q269.096 470.707 271.121 467.422 Q272.332 465.297 272.332 460.48 Q272.332 456.231 271.418 454.107 Q270.01 450.871 267.119 450.871 Q263.019 450.871 260.598 454.403 Q260.301 454.848 259.955 454.873 Q259.461 454.873 259.338 454.601 Q259.239 454.304 259.239 453.539 L259.239 438.568 Q259.239 437.358 259.733 437.358 Q259.931 437.358 260.351 437.506 Q263.537 438.914 267.07 438.939 Q270.701 438.939 273.962 437.457 Q274.209 437.308 274.357 437.308 Q274.851 437.308 274.876 437.877 Q274.876 438.074 274.456 438.667 Q274.061 439.235 273.196 440.001 Q272.332 440.742 271.22 441.459 Q270.108 442.175 268.478 442.669 Q266.872 443.138 265.094 443.138 Q262.969 443.138 260.795 442.471 L260.795 452.328 Q263.414 449.759 267.218 449.759 Q271.269 449.759 274.061 453.02 Q276.852 456.281 276.852 460.826 Q276.852 465.594 273.542 468.855 Q270.257 472.115 265.81 472.115 Q261.759 472.115 259.19 469.225 Q256.645 466.335 256.645 462.852 Z" fill="#000000" fill-rule="evenodd" fill-opacity="1" /><path clip-path="url(#clip750)" d="M281.398 454.823 Q281.398 447.387 283.275 443.336 Q285.894 437.308 292.07 437.308 Q293.379 437.308 294.738 437.679 Q296.121 438.025 297.85 439.384 Q299.604 440.742 300.666 442.966 Q302.692 447.264 302.692 454.823 Q302.692 462.209 300.815 466.236 Q298.073 472.115 292.02 472.115 Q289.748 472.115 287.425 470.954 Q285.128 469.793 283.671 467.002 Q281.398 462.827 281.398 454.823 M285.597 454.206 Q285.597 461.839 286.141 464.877 Q286.758 468.163 288.438 469.596 Q290.143 471.004 292.02 471.004 Q294.046 471.004 295.726 469.497 Q297.43 467.965 297.949 464.68 Q298.517 461.444 298.493 454.206 Q298.493 447.165 297.999 444.349 Q297.332 441.063 295.553 439.754 Q293.799 438.42 292.02 438.42 Q291.353 438.42 290.637 438.618 Q289.945 438.815 288.932 439.384 Q287.92 439.952 287.129 441.36 Q286.363 442.768 285.993 444.892 Q285.597 447.634 285.597 454.206 Z" fill="#000000" fill-rule="evenodd" fill-opacity="1" /><path clip-path="url(#clip750)" d="M306.694 454.823 Q306.694 447.387 308.572 443.336 Q311.19 437.308 317.366 437.308 Q318.675 437.308 320.034 437.679 Q321.417 438.025 323.147 439.384 Q324.9 440.742 325.963 442.966 Q327.988 447.264 327.988 454.823 Q327.988 462.209 326.111 466.236 Q323.369 472.115 317.317 472.115 Q315.044 472.115 312.722 470.954 Q310.424 469.793 308.967 467.002 Q306.694 462.827 306.694 454.823 M310.894 454.206 Q310.894 461.839 311.437 464.877 Q312.055 468.163 313.735 469.596 Q315.439 471.004 317.317 471.004 Q319.342 471.004 321.022 469.497 Q322.727 467.965 323.245 464.68 Q323.814 461.444 323.789 454.206 Q323.789 447.165 323.295 444.349 Q322.628 441.063 320.849 439.754 Q319.095 438.42 317.317 438.42 Q316.65 438.42 315.933 438.618 Q315.241 438.815 314.229 439.384 Q313.216 439.952 312.425 441.36 Q311.659 442.768 311.289 444.892 Q310.894 447.634 310.894 454.206 Z" fill="#000000" fill-rule="evenodd" fill-opacity="1" /><path clip-path="url(#clip750)" d="M393.267 464.186 Q393.267 462.679 394.131 461.962 Q394.996 461.246 396.108 461.246 Q397.269 461.246 398.084 462.012 Q398.924 462.753 398.924 464.062 Q398.924 465.47 397.936 466.261 Q396.972 467.051 395.589 466.854 Q396.799 468.879 399.023 469.793 Q401.271 470.707 403.346 470.707 Q405.52 470.707 407.274 468.83 Q409.052 466.952 409.052 462.358 Q409.052 458.455 407.521 456.207 Q406.014 453.959 403.025 453.959 L400.801 453.959 Q400.036 453.959 399.813 453.884 Q399.591 453.81 399.591 453.39 Q399.591 452.896 400.357 452.797 Q401.123 452.797 402.333 452.649 Q405.273 452.55 406.829 450.006 Q408.237 447.634 408.237 444.25 Q408.237 441.162 406.755 439.878 Q405.297 438.568 403.395 438.568 Q401.617 438.568 399.665 439.309 Q397.713 440.051 396.651 441.706 Q399.789 441.706 399.789 444.25 Q399.789 445.362 399.072 446.103 Q398.38 446.819 397.219 446.819 Q396.108 446.819 395.367 446.128 Q394.626 445.411 394.626 444.201 Q394.626 441.31 397.195 439.309 Q399.789 437.308 403.593 437.308 Q407.348 437.308 410.115 439.285 Q412.906 441.261 412.906 444.3 Q412.906 447.289 410.93 449.734 Q408.953 452.18 405.816 453.193 Q409.67 453.959 411.967 456.577 Q414.265 459.171 414.265 462.358 Q414.265 466.31 411.152 469.225 Q408.039 472.115 403.494 472.115 Q399.294 472.115 396.281 469.843 Q393.267 467.57 393.267 464.186 Z" fill="#000000" fill-rule="evenodd" fill-opacity="1" /><path clip-path="url(#clip750)" d="M418.415 454.823 Q418.415 447.387 420.292 443.336 Q422.911 437.308 429.087 437.308 Q430.396 437.308 431.755 437.679 Q433.138 438.025 434.867 439.384 Q436.621 440.742 437.684 442.966 Q439.709 447.264 439.709 454.823 Q439.709 462.209 437.832 466.236 Q435.09 472.115 429.037 472.115 Q426.765 472.115 424.442 470.954 Q422.145 469.793 420.688 467.002 Q418.415 462.827 418.415 454.823 M422.614 454.206 Q422.614 461.839 423.158 464.877 Q423.776 468.163 425.455 469.596 Q427.16 471.004 429.037 471.004 Q431.063 471.004 432.743 469.497 Q434.447 467.965 434.966 464.68 Q435.534 461.444 435.51 454.206 Q435.51 447.165 435.016 444.349 Q434.349 441.063 432.57 439.754 Q430.816 438.42 429.037 438.42 Q428.37 438.42 427.654 438.618 Q426.962 438.815 425.949 439.384 Q424.937 439.952 424.146 441.36 Q423.38 442.768 423.01 444.892 Q422.614 447.634 422.614 454.206 Z" fill="#000000" fill-rule="evenodd" fill-opacity="1" /><path clip-path="url(#clip750)" d="M443.711 454.823 Q443.711 447.387 445.589 443.336 Q448.207 437.308 454.383 437.308 Q455.692 437.308 457.051 437.679 Q458.434 438.025 460.164 439.384 Q461.917 440.742 462.98 442.966 Q465.005 447.264 465.005 454.823 Q465.005 462.209 463.128 466.236 Q460.386 472.115 454.334 472.115 Q452.061 472.115 449.739 470.954 Q447.441 469.793 445.984 467.002 Q443.711 462.827 443.711 454.823 M447.911 454.206 Q447.911 461.839 448.454 464.877 Q449.072 468.163 450.752 469.596 Q452.456 471.004 454.334 471.004 Q456.359 471.004 458.039 469.497 Q459.744 467.965 460.262 464.68 Q460.831 461.444 460.806 454.206 Q460.806 447.165 460.312 444.349 Q459.645 441.063 457.866 439.754 Q456.112 438.42 454.334 438.42 Q453.667 438.42 452.95 438.618 Q452.258 438.815 451.246 439.384 Q450.233 439.952 449.442 441.36 Q448.676 442.768 448.306 444.892 Q447.911 447.634 447.911 454.206 Z" fill="#000000" fill-rule="evenodd" fill-opacity="1" /><path clip-path="url(#clip750)" d="M469.007 454.823 Q469.007 447.387 470.885 443.336 Q473.503 437.308 479.679 437.308 Q480.988 437.308 482.347 437.679 Q483.731 438.025 485.46 439.384 Q487.214 440.742 488.276 442.966 Q490.302 447.264 490.302 454.823 Q490.302 462.209 488.424 466.236 Q485.682 472.115 479.63 472.115 Q477.357 472.115 475.035 470.954 Q472.738 469.793 471.28 467.002 Q469.007 462.827 469.007 454.823 M473.207 454.206 Q473.207 461.839 473.75 464.877 Q474.368 468.163 476.048 469.596 Q477.752 471.004 479.63 471.004 Q481.655 471.004 483.335 469.497 Q485.04 467.965 485.559 464.68 Q486.127 461.444 486.102 454.206 Q486.102 447.165 485.608 444.349 Q484.941 441.063 483.162 439.754 Q481.408 438.42 479.63 438.42 Q478.963 438.42 478.246 438.618 Q477.555 438.815 476.542 439.384 Q475.529 439.952 474.739 441.36 Q473.973 442.768 473.602 444.892 Q473.207 447.634 473.207 454.206 Z" fill="#000000" fill-rule="evenodd" fill-opacity="1" /><path clip-path="url(#clip750)" d="M555.58 455.021 Q555.58 447.066 559.631 442.2 Q563.683 437.308 568.895 437.308 Q571.934 437.308 573.614 438.865 Q575.318 440.396 575.318 442.768 Q575.318 444.077 574.552 444.645 Q573.787 445.214 572.996 445.214 Q572.082 445.214 571.366 444.596 Q570.649 443.978 570.649 442.867 Q570.649 440.594 573.441 440.594 Q572.131 438.568 568.994 438.568 Q568.031 438.568 567.042 438.865 Q566.054 439.137 564.77 440.075 Q563.485 441.014 562.497 442.496 Q561.509 443.978 560.817 446.77 Q560.126 449.561 560.126 453.193 L560.126 454.403 Q562.201 449.388 566.45 449.413 Q570.699 449.413 573.638 452.649 Q576.578 455.885 576.578 460.678 Q576.578 465.594 573.515 468.855 Q570.452 472.115 566.153 472.115 Q564.226 472.115 562.472 471.3 Q560.743 470.51 559.113 468.682 Q557.507 466.854 556.544 463.346 Q555.58 459.838 555.58 455.021 M560.224 459.566 Q560.224 464.532 561.138 466.903 Q561.287 467.298 561.608 467.842 Q561.954 468.385 562.522 469.102 Q563.115 469.793 564.078 470.263 Q565.042 470.707 566.153 470.707 Q569.538 470.707 571.168 467.422 Q572.033 465.594 572.033 460.628 Q572.033 455.564 571.119 453.711 Q569.562 450.574 566.4 450.574 Q564.276 450.574 562.794 452.032 Q561.336 453.489 560.768 455.441 Q560.224 457.392 560.224 459.566 Z" fill="#000000" fill-rule="evenodd" fill-opacity="1" /><path clip-path="url(#clip750)" d="M580.728 454.823 Q580.728 447.387 582.606 443.336 Q585.224 437.308 591.4 437.308 Q592.709 437.308 594.068 437.679 Q595.451 438.025 597.181 439.384 Q598.935 440.742 599.997 442.966 Q602.022 447.264 602.022 454.823 Q602.022 462.209 600.145 466.236 Q597.403 472.115 591.351 472.115 Q589.078 472.115 586.756 470.954 Q584.458 469.793 583.001 467.002 Q580.728 462.827 580.728 454.823 M584.928 454.206 Q584.928 461.839 585.471 464.877 Q586.089 468.163 587.769 469.596 Q589.473 471.004 591.351 471.004 Q593.376 471.004 595.056 469.497 Q596.761 467.965 597.279 464.68 Q597.848 461.444 597.823 454.206 Q597.823 447.165 597.329 444.349 Q596.662 441.063 594.883 439.754 Q593.129 438.42 591.351 438.42 Q590.684 438.42 589.967 438.618 Q589.276 438.815 588.263 439.384 Q587.25 439.952 586.459 441.36 Q585.694 442.768 585.323 444.892 Q584.928 447.634 584.928 454.206 Z" fill="#000000" fill-rule="evenodd" fill-opacity="1" /><path clip-path="url(#clip750)" d="M606.024 454.823 Q606.024 447.387 607.902 443.336 Q610.52 437.308 616.696 437.308 Q618.006 437.308 619.364 437.679 Q620.748 438.025 622.477 439.384 Q624.231 440.742 625.293 442.966 Q627.319 447.264 627.319 454.823 Q627.319 462.209 625.441 466.236 Q622.699 472.115 616.647 472.115 Q614.374 472.115 612.052 470.954 Q609.755 469.793 608.297 467.002 Q606.024 462.827 606.024 454.823 M610.224 454.206 Q610.224 461.839 610.767 464.877 Q611.385 468.163 613.065 469.596 Q614.769 471.004 616.647 471.004 Q618.673 471.004 620.352 469.497 Q622.057 467.965 622.576 464.68 Q623.144 461.444 623.119 454.206 Q623.119 447.165 622.625 444.349 Q621.958 441.063 620.179 439.754 Q618.425 438.42 616.647 438.42 Q615.98 438.42 615.263 438.618 Q614.572 438.815 613.559 439.384 Q612.546 439.952 611.756 441.36 Q610.99 442.768 610.619 444.892 Q610.224 447.634 610.224 454.206 Z" fill="#000000" fill-rule="evenodd" fill-opacity="1" /><path clip-path="url(#clip750)" d="M631.321 454.823 Q631.321 447.387 633.198 443.336 Q635.817 437.308 641.992 437.308 Q643.302 437.308 644.66 437.679 Q646.044 438.025 647.773 439.384 Q649.527 440.742 650.589 442.966 Q652.615 447.264 652.615 454.823 Q652.615 462.209 650.737 466.236 Q647.995 472.115 641.943 472.115 Q639.67 472.115 637.348 470.954 Q635.051 469.793 633.593 467.002 Q631.321 462.827 631.321 454.823 M635.52 454.206 Q635.52 461.839 636.064 464.877 Q636.681 468.163 638.361 469.596 Q640.066 471.004 641.943 471.004 Q643.969 471.004 645.649 469.497 Q647.353 467.965 647.872 464.68 Q648.44 461.444 648.415 454.206 Q648.415 447.165 647.921 444.349 Q647.254 441.063 645.476 439.754 Q643.722 438.42 641.943 438.42 Q641.276 438.42 640.56 438.618 Q639.868 438.815 638.855 439.384 Q637.842 439.952 637.052 441.36 Q636.286 442.768 635.915 444.892 Q635.52 447.634 635.52 454.206 Z" fill="#000000" fill-rule="evenodd" fill-opacity="1" /><path clip-path="url(#clip750)" d="M696.957 442.126 L696.957 440.545 Q703.034 440.545 706.172 437.308 Q707.036 437.308 707.185 437.506 Q707.333 437.704 707.333 438.618 L707.333 467.002 Q707.333 468.509 708.074 468.978 Q708.815 469.448 712.051 469.448 L713.657 469.448 L713.657 471.004 Q711.878 470.856 705.455 470.856 Q699.032 470.856 697.278 471.004 L697.278 469.448 L698.884 469.448 Q702.071 469.448 702.837 469.003 Q703.603 468.534 703.603 467.002 L703.603 440.792 Q700.959 442.126 696.957 442.126 Z" fill="#000000" fill-rule="evenodd" fill-opacity="1" /><path clip-path="url(#clip750)" d="M720.277 471.004 Q720.277 470.09 720.351 469.818 Q720.45 469.546 720.845 469.126 L730.554 458.306 Q735.865 452.328 735.865 447.116 Q735.865 443.731 734.086 441.31 Q732.333 438.889 729.096 438.889 Q726.873 438.889 724.996 440.248 Q723.118 441.607 722.254 444.028 Q722.402 443.978 722.921 443.978 Q724.18 443.978 724.872 444.769 Q725.589 445.559 725.589 446.622 Q725.589 447.98 724.699 448.647 Q723.835 449.29 722.97 449.29 Q722.624 449.29 722.155 449.215 Q721.71 449.141 720.994 448.45 Q720.277 447.733 720.277 446.473 Q720.277 442.941 722.945 440.125 Q725.638 437.308 729.739 437.308 Q734.383 437.308 737.421 440.075 Q740.485 442.817 740.485 447.116 Q740.485 448.623 740.015 450.006 Q739.571 451.365 738.953 452.427 Q738.36 453.489 736.73 455.194 Q735.099 456.898 733.79 458.109 Q732.481 459.319 729.541 461.888 L724.18 467.101 L733.296 467.101 Q737.743 467.101 738.088 466.705 Q738.582 465.989 739.2 462.209 L740.485 462.209 L739.052 471.004 L720.277 471.004 Z" fill="#000000" fill-rule="evenodd" fill-opacity="1" /><path clip-path="url(#clip750)" d="M745.03 454.823 Q745.03 447.387 746.908 443.336 Q749.526 437.308 755.702 437.308 Q757.011 437.308 758.37 437.679 Q759.753 438.025 761.482 439.384 Q763.236 440.742 764.299 442.966 Q766.324 447.264 766.324 454.823 Q766.324 462.209 764.447 466.236 Q761.705 472.115 755.652 472.115 Q753.38 472.115 751.058 470.954 Q748.76 469.793 747.303 467.002 Q745.03 462.827 745.03 454.823 M749.23 454.206 Q749.23 461.839 749.773 464.877 Q750.391 468.163 752.071 469.596 Q753.775 471.004 755.652 471.004 Q757.678 471.004 759.358 469.497 Q761.063 467.965 761.581 464.68 Q762.149 461.444 762.125 454.206 Q762.125 447.165 761.631 444.349 Q760.964 441.063 759.185 439.754 Q757.431 438.42 755.652 438.42 Q754.986 438.42 754.269 438.618 Q753.577 438.815 752.565 439.384 Q751.552 439.952 750.761 441.36 Q749.995 442.768 749.625 444.892 Q749.23 447.634 749.23 454.206 Z" fill="#000000" fill-rule="evenodd" fill-opacity="1" /><path clip-path="url(#clip750)" d="M770.326 454.823 Q770.326 447.387 772.204 443.336 Q774.822 437.308 780.998 437.308 Q782.307 437.308 783.666 437.679 Q785.049 438.025 786.779 439.384 Q788.533 440.742 789.595 442.966 Q791.621 447.264 791.621 454.823 Q791.621 462.209 789.743 466.236 Q787.001 472.115 780.949 472.115 Q778.676 472.115 776.354 470.954 Q774.057 469.793 772.599 467.002 Q770.326 462.827 770.326 454.823 M774.526 454.206 Q774.526 461.839 775.069 464.877 Q775.687 468.163 777.367 469.596 Q779.071 471.004 780.949 471.004 Q782.974 471.004 784.654 469.497 Q786.359 467.965 786.878 464.68 Q787.446 461.444 787.421 454.206 Q787.421 447.165 786.927 444.349 Q786.26 441.063 784.481 439.754 Q782.727 438.42 780.949 438.42 Q780.282 438.42 779.565 438.618 Q778.874 438.815 777.861 439.384 Q776.848 439.952 776.057 441.36 Q775.292 442.768 774.921 444.892 Q774.526 447.634 774.526 454.206 Z" fill="#000000" fill-rule="evenodd" fill-opacity="1" /><path clip-path="url(#clip750)" d="M795.623 454.823 Q795.623 447.387 797.5 443.336 Q800.119 437.308 806.294 437.308 Q807.604 437.308 808.962 437.679 Q810.346 438.025 812.075 439.384 Q813.829 440.742 814.891 442.966 Q816.917 447.264 816.917 454.823 Q816.917 462.209 815.039 466.236 Q812.297 472.115 806.245 472.115 Q803.972 472.115 801.65 470.954 Q799.353 469.793 797.895 467.002 Q795.623 462.827 795.623 454.823 M799.822 454.206 Q799.822 461.839 800.366 464.877 Q800.983 468.163 802.663 469.596 Q804.368 471.004 806.245 471.004 Q808.271 471.004 809.95 469.497 Q811.655 467.965 812.174 464.68 Q812.742 461.444 812.717 454.206 Q812.717 447.165 812.223 444.349 Q811.556 441.063 809.778 439.754 Q808.024 438.42 806.245 438.42 Q805.578 438.42 804.862 438.618 Q804.17 438.815 803.157 439.384 Q802.144 439.952 801.354 441.36 Q800.588 442.768 800.217 444.892 Q799.822 447.634 799.822 454.206 Z" fill="#000000" fill-rule="evenodd" fill-opacity="1" /><path clip-path="url(#clip750)" d="M382.762 545.068 L382.762 542.928 L384.426 542.928 Q388.196 542.928 389.046 542.317 Q389.929 541.671 389.929 539.633 L389.929 503.186 Q389.929 501.182 389.046 500.571 Q388.162 499.926 384.426 499.926 L382.762 499.926 L382.762 497.752 L421.926 497.752 L423.862 513.41 L422.13 513.41 Q421.654 509.436 421.009 507.161 Q420.397 504.851 418.869 503.084 Q417.374 501.318 414.895 500.639 Q412.449 499.926 408.475 499.926 L399.507 499.926 Q397.13 499.926 396.62 500.435 Q396.111 500.911 396.111 502.711 L396.111 519.389 L402.361 519.389 Q407.15 519.389 408.509 517.724 Q409.867 516.06 409.867 511.271 L411.634 511.271 L411.634 529.681 L409.867 529.681 Q409.867 524.959 408.509 523.261 Q407.15 521.563 402.361 521.563 L396.111 521.563 L396.111 540.143 Q396.111 541.943 396.62 542.452 Q397.164 542.928 399.507 542.928 L408.78 542.928 Q411.77 542.928 413.943 542.554 Q416.151 542.147 417.68 541.196 Q419.208 540.211 420.227 539.09 Q421.28 537.969 421.994 535.965 Q422.741 533.927 423.149 532.058 Q423.59 530.19 424.066 527.133 L425.798 527.133 L422.877 545.068 L382.762 545.068 Z" fill="#000000" fill-rule="evenodd" fill-opacity="1" /><path clip-path="url(#clip750)" d="M429.67 556.413 Q433.373 556.413 434.222 555.937 Q435.105 555.496 435.105 553.288 L435.105 520.713 Q435.105 518.404 434.222 517.826 Q433.373 517.249 429.67 517.249 L429.67 515.075 L439.691 514.328 L439.691 518.913 Q443.869 514.328 449.439 514.328 Q455.349 514.328 459.663 518.913 Q463.977 523.499 463.977 530.054 Q463.977 536.678 459.392 541.264 Q454.806 545.849 448.454 545.849 Q444.989 545.849 442.646 544.083 Q440.336 542.283 439.894 540.958 L439.894 541.603 L439.894 553.288 Q439.894 555.53 440.778 555.971 Q441.661 556.413 445.329 556.413 L445.329 558.553 Q438.026 558.349 437.483 558.349 Q436.803 558.349 429.67 558.553 L429.67 556.413 M439.894 537.154 Q439.894 538.206 440.03 538.58 Q440.2 538.954 440.879 540.075 Q443.631 544.287 448.114 544.287 Q448.148 544.287 448.182 544.287 Q452.157 544.287 455.18 540.245 Q458.203 536.168 458.203 530.054 Q458.203 524.212 455.451 520.136 Q452.7 516.06 448.896 516.06 Q446.178 516.06 443.801 517.521 Q441.423 518.981 439.894 521.631 L439.894 537.154 Z" fill="#000000" fill-rule="evenodd" fill-opacity="1" /><path clip-path="url(#clip750)" d="M468.631 545.068 L468.631 542.928 Q472.333 542.928 473.182 542.486 Q474.031 542.011 474.031 539.769 L474.031 521.053 Q474.031 518.472 473.148 517.86 Q472.299 517.249 468.902 517.249 L468.902 515.075 L478.617 514.328 L478.617 539.837 Q478.617 541.909 479.364 542.418 Q480.111 542.928 483.508 542.928 L483.508 545.068 Q476.409 544.864 476.273 544.864 Q475.322 544.864 468.631 545.068 M471.552 502.201 Q471.552 500.809 472.605 499.688 Q473.692 498.533 475.22 498.533 Q476.749 498.533 477.836 499.586 Q478.923 500.605 478.923 502.235 Q478.923 503.832 477.836 504.885 Q476.749 505.904 475.22 505.904 Q473.624 505.904 472.571 504.783 Q471.552 503.662 471.552 502.201 Z" fill="#000000" fill-rule="evenodd" fill-opacity="1" /><path clip-path="url(#clip750)" d="M487.89 544.151 L487.89 534.98 Q487.89 534.198 487.924 533.927 Q487.958 533.655 488.162 533.451 Q488.365 533.247 488.773 533.247 Q489.249 533.247 489.418 533.451 Q489.622 533.655 489.758 534.436 Q490.811 539.225 493.053 541.773 Q495.329 544.287 499.439 544.287 Q503.345 544.287 505.315 542.554 Q507.285 540.822 507.285 537.969 Q507.285 532.874 500.05 531.583 Q495.872 530.734 494.14 530.19 Q492.408 529.613 490.879 528.356 Q487.89 525.91 487.89 522.446 Q487.89 518.981 490.505 516.434 Q493.155 513.886 498.997 513.886 Q502.903 513.886 505.553 515.856 Q506.334 515.245 506.742 514.735 Q507.659 513.886 508.134 513.886 Q508.678 513.886 508.78 514.26 Q508.882 514.599 508.882 515.584 L508.882 522.582 Q508.882 523.363 508.848 523.635 Q508.814 523.906 508.61 524.11 Q508.406 524.28 507.964 524.28 Q507.183 524.28 507.149 523.635 Q506.606 515.211 498.997 515.211 Q494.887 515.211 493.053 516.807 Q491.219 518.37 491.219 520.51 Q491.219 521.698 491.762 522.616 Q492.34 523.499 493.053 524.042 Q493.8 524.552 495.159 525.061 Q496.518 525.537 497.333 525.707 Q498.182 525.876 499.778 526.216 Q505.349 527.269 507.693 529.545 Q510.614 532.466 510.614 536.168 Q510.614 540.278 507.829 543.064 Q505.043 545.849 499.439 545.849 Q494.921 545.849 491.762 542.826 Q491.355 543.234 491.049 543.607 Q490.743 543.947 490.607 544.083 Q490.505 544.219 490.471 544.321 Q490.437 544.389 490.37 544.456 Q488.977 545.849 488.637 545.849 Q488.094 545.849 487.992 545.475 Q487.89 545.136 487.89 544.151 Z" fill="#000000" fill-rule="evenodd" fill-opacity="1" /><path clip-path="url(#clip750)" d="M519.479 541.331 Q514.894 536.78 514.894 530.19 Q514.894 523.567 519.377 518.743 Q523.895 513.886 530.349 513.886 Q536.667 513.886 541.184 518.709 Q545.736 523.499 545.736 530.19 Q545.736 536.746 541.15 541.297 Q536.599 545.849 530.281 545.849 Q524.099 545.849 519.479 541.331 M520.668 529.613 Q520.668 536.372 522.434 539.429 Q525.152 544.083 530.349 544.083 Q532.93 544.083 535.07 542.69 Q537.244 541.297 538.433 538.954 Q539.962 535.897 539.962 529.613 Q539.962 522.921 538.127 519.966 Q535.41 515.449 530.281 515.449 Q528.039 515.449 525.831 516.637 Q523.657 517.792 522.333 520.102 Q520.668 523.159 520.668 529.613 Z" fill="#000000" fill-rule="evenodd" fill-opacity="1" /><path clip-path="url(#clip750)" d="M552.054 530.122 Q552.054 523.499 556.673 518.913 Q561.293 514.328 567.543 514.328 Q572.842 514.328 576.306 518.641 L576.306 503.594 Q576.306 501.012 575.389 500.367 Q574.506 499.722 570.906 499.722 L570.906 497.548 L580.926 496.801 L580.926 539.022 Q580.926 541.603 581.809 542.283 Q582.726 542.928 586.327 542.928 L586.327 545.068 L576.103 545.849 L576.103 541.23 Q572.502 545.815 566.796 545.849 Q560.817 545.849 556.436 541.264 Q552.054 536.678 552.054 530.122 M557.828 530.19 Q557.828 536.644 559.832 539.837 Q562.618 544.287 567.135 544.287 Q572.298 544.287 575.355 539.429 Q576.136 538.24 576.103 536.848 L576.103 522.582 Q576.103 521.189 575.355 520.034 Q572.502 515.856 567.849 515.856 Q562.991 515.856 559.968 520.306 Q557.828 523.635 557.828 530.19 Z" fill="#000000" fill-rule="evenodd" fill-opacity="1" /><path clip-path="url(#clip750)" d="M590.199 529.749 Q590.199 523.193 594.411 518.54 Q598.623 513.886 604.669 513.886 Q610.783 513.886 613.942 517.86 Q617.135 521.834 617.135 527.541 Q617.135 528.594 616.863 528.798 Q616.591 529.001 615.402 529.001 L595.973 529.001 Q595.973 536.101 598.079 539.429 Q601 544.083 605.926 544.083 Q606.605 544.083 607.42 543.947 Q608.235 543.811 609.9 543.234 Q611.564 542.622 613.025 541.026 Q614.485 539.429 615.335 536.916 Q615.538 535.931 616.218 535.965 Q617.135 535.965 617.135 536.78 Q617.135 537.391 616.455 538.784 Q615.81 540.143 614.553 541.773 Q613.297 543.403 610.851 544.626 Q608.439 545.849 605.518 545.849 Q599.404 545.849 594.784 541.23 Q590.199 536.576 590.199 529.749 M596.041 527.541 L612.549 527.541 Q612.549 526.08 612.278 524.45 Q612.04 522.819 611.292 520.578 Q610.579 518.302 608.881 516.875 Q607.182 515.449 604.669 515.449 Q603.548 515.449 602.325 515.924 Q601.136 516.4 599.676 517.554 Q598.215 518.709 597.196 521.325 Q596.177 523.94 596.041 527.541 Z" fill="#000000" fill-rule="evenodd" fill-opacity="1" /><path clip-path="url(#clip750)" d="M621.449 544.151 L621.449 534.98 Q621.449 534.198 621.483 533.927 Q621.517 533.655 621.72 533.451 Q621.924 533.247 622.332 533.247 Q622.807 533.247 622.977 533.451 Q623.181 533.655 623.317 534.436 Q624.37 539.225 626.612 541.773 Q628.887 544.287 632.997 544.287 Q636.904 544.287 638.874 542.554 Q640.844 540.822 640.844 537.969 Q640.844 532.874 633.609 531.583 Q629.431 530.734 627.699 530.19 Q625.966 529.613 624.438 528.356 Q621.449 525.91 621.449 522.446 Q621.449 518.981 624.064 516.434 Q626.714 513.886 632.556 513.886 Q636.462 513.886 639.112 515.856 Q639.893 515.245 640.3 514.735 Q641.217 513.886 641.693 513.886 Q642.237 513.886 642.338 514.26 Q642.44 514.599 642.44 515.584 L642.44 522.582 Q642.44 523.363 642.406 523.635 Q642.372 523.906 642.169 524.11 Q641.965 524.28 641.523 524.28 Q640.742 524.28 640.708 523.635 Q640.165 515.211 632.556 515.211 Q628.446 515.211 626.612 516.807 Q624.777 518.37 624.777 520.51 Q624.777 521.698 625.321 522.616 Q625.898 523.499 626.612 524.042 Q627.359 524.552 628.718 525.061 Q630.076 525.537 630.891 525.707 Q631.741 525.876 633.337 526.216 Q638.908 527.269 641.251 529.545 Q644.173 532.466 644.173 536.168 Q644.173 540.278 641.387 543.064 Q638.602 545.849 632.997 545.849 Q628.48 545.849 625.321 542.826 Q624.913 543.234 624.608 543.607 Q624.302 543.947 624.166 544.083 Q624.064 544.219 624.03 544.321 Q623.996 544.389 623.928 544.456 Q622.536 545.849 622.196 545.849 Q621.652 545.849 621.551 545.475 Q621.449 545.136 621.449 544.151 Z" fill="#000000" fill-rule="evenodd" fill-opacity="1" /><polyline clip-path="url(#clip752)" style="stroke:#000000; stroke-linecap:round; stroke-linejoin:round; stroke-width:2; stroke-opacity:0.1; fill:none" points="
  170.051,407.705 856.883,407.705 
  "/>
<polyline clip-path="url(#clip752)" style="stroke:#000000; stroke-linecap:round; stroke-linejoin:round; stroke-width:2; stroke-opacity:0.1; fill:none" points="
  170.051,320.375 856.883,320.375 
  "/>
<polyline clip-path="url(#clip752)" style="stroke:#000000; stroke-linecap:round; stroke-linejoin:round; stroke-width:2; stroke-opacity:0.1; fill:none" points="
  170.051,233.044 856.883,233.044 
  "/>
<polyline clip-path="url(#clip752)" style="stroke:#000000; stroke-linecap:round; stroke-linejoin:round; stroke-width:2; stroke-opacity:0.1; fill:none" points="
  170.051,145.714 856.883,145.714 
  "/>
<polyline clip-path="url(#clip752)" style="stroke:#000000; stroke-linecap:round; stroke-linejoin:round; stroke-width:2; stroke-opacity:0.1; fill:none" points="
  170.051,58.3834 856.883,58.3834 
  "/>
<polyline clip-path="url(#clip750)" style="stroke:#000000; stroke-linecap:round; stroke-linejoin:round; stroke-width:4; stroke-opacity:1; fill:none" points="
  170.051,418.204 170.051,47.2441 
  "/>
<polyline clip-path="url(#clip750)" style="stroke:#000000; stroke-linecap:round; stroke-linejoin:round; stroke-width:4; stroke-opacity:1; fill:none" points="
  170.051,407.705 183.259,407.705 
  "/>
<polyline clip-path="url(#clip750)" style="stroke:#000000; stroke-linecap:round; stroke-linejoin:round; stroke-width:4; stroke-opacity:1; fill:none" points="
  170.051,320.375 183.259,320.375 
  "/>
<polyline clip-path="url(#clip750)" style="stroke:#000000; stroke-linecap:round; stroke-linejoin:round; stroke-width:4; stroke-opacity:1; fill:none" points="
  170.051,233.044 183.259,233.044 
  "/>
<polyline clip-path="url(#clip750)" style="stroke:#000000; stroke-linecap:round; stroke-linejoin:round; stroke-width:4; stroke-opacity:1; fill:none" points="
  170.051,145.714 183.259,145.714 
  "/>
<polyline clip-path="url(#clip750)" style="stroke:#000000; stroke-linecap:round; stroke-linejoin:round; stroke-width:4; stroke-opacity:1; fill:none" points="
  170.051,58.3834 183.259,58.3834 
  "/>
<path clip-path="url(#clip750)" d="M130.757 408.804 Q130.757 401.369 132.634 397.317 Q135.253 391.29 141.429 391.29 Q142.738 391.29 144.097 391.66 Q145.48 392.006 147.209 393.365 Q148.963 394.723 150.026 396.947 Q152.051 401.245 152.051 408.804 Q152.051 416.191 150.174 420.217 Q147.432 426.097 141.379 426.097 Q139.107 426.097 136.785 424.936 Q134.487 423.775 133.03 420.983 Q130.757 416.808 130.757 408.804 M134.956 408.187 Q134.956 415.82 135.5 418.859 Q136.118 422.144 137.797 423.577 Q139.502 424.985 141.379 424.985 Q143.405 424.985 145.085 423.478 Q146.789 421.946 147.308 418.661 Q147.876 415.425 147.852 408.187 Q147.852 401.146 147.358 398.33 Q146.691 395.045 144.912 393.735 Q143.158 392.401 141.379 392.401 Q140.712 392.401 139.996 392.599 Q139.304 392.797 138.291 393.365 Q137.279 393.933 136.488 395.341 Q135.722 396.749 135.352 398.874 Q134.956 401.616 134.956 408.187 Z" fill="#000000" fill-rule="evenodd" fill-opacity="1" /><path clip-path="url(#clip750)" d="M131.844 329.502 Q131.844 327.996 132.659 327.427 Q133.474 326.835 134.339 326.835 Q135.5 326.835 136.167 327.576 Q136.859 328.292 136.859 329.305 Q136.859 330.318 136.167 331.059 Q135.5 331.775 134.339 331.775 Q133.771 331.775 133.474 331.676 Q134.141 333.998 136.167 335.678 Q138.217 337.358 140.91 337.358 Q144.294 337.358 146.32 334.073 Q147.531 331.948 147.531 327.131 Q147.531 322.882 146.616 320.757 Q145.208 317.521 142.318 317.521 Q138.217 317.521 135.796 321.054 Q135.5 321.499 135.154 321.523 Q134.66 321.523 134.537 321.252 Q134.438 320.955 134.438 320.189 L134.438 305.219 Q134.438 304.009 134.932 304.009 Q135.129 304.009 135.549 304.157 Q138.736 305.565 142.269 305.59 Q145.9 305.59 149.161 304.107 Q149.408 303.959 149.556 303.959 Q150.05 303.959 150.075 304.527 Q150.075 304.725 149.655 305.318 Q149.26 305.886 148.395 306.652 Q147.531 307.393 146.419 308.109 Q145.307 308.826 143.677 309.32 Q142.071 309.789 140.292 309.789 Q138.168 309.789 135.994 309.122 L135.994 318.979 Q138.613 316.41 142.417 316.41 Q146.468 316.41 149.26 319.671 Q152.051 322.931 152.051 327.477 Q152.051 332.245 148.741 335.505 Q145.455 338.766 141.009 338.766 Q136.957 338.766 134.388 335.876 Q131.844 332.986 131.844 329.502 Z" fill="#000000" fill-rule="evenodd" fill-opacity="1" /><path clip-path="url(#clip750)" d="M107.98 221.446 L107.98 219.865 Q114.057 219.865 117.195 216.629 Q118.059 216.629 118.208 216.826 Q118.356 217.024 118.356 217.938 L118.356 246.322 Q118.356 247.829 119.097 248.299 Q119.838 248.768 123.074 248.768 L124.68 248.768 L124.68 250.324 Q122.901 250.176 116.478 250.176 Q110.056 250.176 108.302 250.324 L108.302 248.768 L109.907 248.768 Q113.094 248.768 113.86 248.323 Q114.626 247.854 114.626 246.322 L114.626 220.112 Q111.982 221.446 107.98 221.446 Z" fill="#000000" fill-rule="evenodd" fill-opacity="1" /><path clip-path="url(#clip750)" d="M130.757 234.143 Q130.757 226.708 132.634 222.656 Q135.253 216.629 141.429 216.629 Q142.738 216.629 144.097 216.999 Q145.48 217.345 147.209 218.704 Q148.963 220.063 150.026 222.286 Q152.051 226.584 152.051 234.143 Q152.051 241.53 150.174 245.556 Q147.432 251.436 141.379 251.436 Q139.107 251.436 136.785 250.275 Q134.487 249.114 133.03 246.322 Q130.757 242.147 130.757 234.143 M134.956 233.526 Q134.956 241.159 135.5 244.198 Q136.118 247.483 137.797 248.916 Q139.502 250.324 141.379 250.324 Q143.405 250.324 145.085 248.817 Q146.789 247.286 147.308 244 Q147.876 240.764 147.852 233.526 Q147.852 226.485 147.358 223.669 Q146.691 220.384 144.912 219.074 Q143.158 217.74 141.379 217.74 Q140.712 217.74 139.996 217.938 Q139.304 218.136 138.291 218.704 Q137.279 219.272 136.488 220.68 Q135.722 222.088 135.352 224.213 Q134.956 226.955 134.956 233.526 Z" fill="#000000" fill-rule="evenodd" fill-opacity="1" /><path clip-path="url(#clip750)" d="M108.524 134.116 L108.524 132.535 Q114.601 132.535 117.738 129.298 Q118.603 129.298 118.751 129.496 Q118.899 129.694 118.899 130.608 L118.899 158.992 Q118.899 160.499 119.64 160.968 Q120.382 161.437 123.618 161.437 L125.223 161.437 L125.223 162.994 Q123.445 162.846 117.022 162.846 Q110.599 162.846 108.845 162.994 L108.845 161.437 L110.451 161.437 Q113.637 161.437 114.403 160.993 Q115.169 160.523 115.169 158.992 L115.169 132.782 Q112.526 134.116 108.524 134.116 Z" fill="#000000" fill-rule="evenodd" fill-opacity="1" /><path clip-path="url(#clip750)" d="M131.844 154.842 Q131.844 153.335 132.659 152.767 Q133.474 152.174 134.339 152.174 Q135.5 152.174 136.167 152.915 Q136.859 153.631 136.859 154.644 Q136.859 155.657 136.167 156.398 Q135.5 157.114 134.339 157.114 Q133.771 157.114 133.474 157.016 Q134.141 159.338 136.167 161.018 Q138.217 162.697 140.91 162.697 Q144.294 162.697 146.32 159.412 Q147.531 157.287 147.531 152.47 Q147.531 148.221 146.616 146.097 Q145.208 142.861 142.318 142.861 Q138.217 142.861 135.796 146.393 Q135.5 146.838 135.154 146.862 Q134.66 146.862 134.537 146.591 Q134.438 146.294 134.438 145.529 L134.438 130.558 Q134.438 129.348 134.932 129.348 Q135.129 129.348 135.549 129.496 Q138.736 130.904 142.269 130.929 Q145.9 130.929 149.161 129.447 Q149.408 129.298 149.556 129.298 Q150.05 129.298 150.075 129.867 Q150.075 130.064 149.655 130.657 Q149.26 131.225 148.395 131.991 Q147.531 132.732 146.419 133.449 Q145.307 134.165 143.677 134.659 Q142.071 135.128 140.292 135.128 Q138.168 135.128 135.994 134.461 L135.994 144.318 Q138.613 141.749 142.417 141.749 Q146.468 141.749 149.26 145.01 Q152.051 148.271 152.051 152.816 Q152.051 157.584 148.741 160.845 Q145.455 164.105 141.009 164.105 Q136.957 164.105 134.388 161.215 Q131.844 158.325 131.844 154.842 Z" fill="#000000" fill-rule="evenodd" fill-opacity="1" /><path clip-path="url(#clip750)" d="M106.004 75.6634 Q106.004 74.7494 106.078 74.4776 Q106.177 74.2059 106.572 73.7859 L116.281 62.9659 Q121.592 56.9876 121.592 51.7752 Q121.592 48.3909 119.813 45.9699 Q118.059 43.549 114.823 43.549 Q112.6 43.549 110.722 44.9077 Q108.845 46.2664 107.98 48.6873 Q108.129 48.6379 108.647 48.6379 Q109.907 48.6379 110.599 49.4284 Q111.315 50.2189 111.315 51.2812 Q111.315 52.6398 110.426 53.3068 Q109.561 53.9491 108.697 53.9491 Q108.351 53.9491 107.882 53.875 Q107.437 53.8009 106.721 53.1092 Q106.004 52.3928 106.004 51.1329 Q106.004 47.6004 108.672 44.7842 Q111.365 41.968 115.466 41.968 Q120.11 41.968 123.148 44.7348 Q126.212 47.4768 126.212 51.7752 Q126.212 53.2821 125.742 54.6655 Q125.297 56.0242 124.68 57.0865 Q124.087 58.1487 122.457 59.8532 Q120.826 61.5578 119.517 62.7682 Q118.208 63.9787 115.268 66.5478 L109.907 71.7602 L119.023 71.7602 Q123.469 71.7602 123.815 71.365 Q124.309 70.6486 124.927 66.869 L126.212 66.869 L124.779 75.6634 L106.004 75.6634 Z" fill="#000000" fill-rule="evenodd" fill-opacity="1" /><path clip-path="url(#clip750)" d="M130.757 59.4827 Q130.757 52.047 132.634 47.9956 Q135.253 41.968 141.429 41.968 Q142.738 41.968 144.097 42.3385 Q145.48 42.6844 147.209 44.0431 Q148.963 45.4018 150.026 47.6251 Q152.051 51.9234 152.051 59.4827 Q152.051 66.869 150.174 70.8956 Q147.432 76.775 141.379 76.775 Q139.107 76.775 136.785 75.614 Q134.487 74.4529 133.03 71.6614 Q130.757 67.4866 130.757 59.4827 M134.956 58.8651 Q134.956 66.4984 135.5 69.5369 Q136.118 72.8225 137.797 74.2553 Q139.502 75.6634 141.379 75.6634 Q143.405 75.6634 145.085 74.1565 Q146.789 72.6249 147.308 69.3393 Q147.876 66.1032 147.852 58.8651 Q147.852 51.8246 147.358 49.0085 Q146.691 45.7229 144.912 44.4136 Q143.158 43.0796 141.379 43.0796 Q140.712 43.0796 139.996 43.2773 Q139.304 43.4749 138.291 44.0431 Q137.279 44.6113 136.488 46.0193 Q135.722 47.4274 135.352 49.5519 Q134.956 52.294 134.956 58.8651 Z" fill="#000000" fill-rule="evenodd" fill-opacity="1" /><path clip-path="url(#clip750)" d="M35.5691 465.195 Q29.5909 465.195 25.5828 462.138 Q21.5747 459.081 21.5747 454.971 Q21.5747 452.457 23.8165 449.978 Q29.1833 444.339 29.1493 436.968 Q29.1493 428.612 22.5597 423.755 Q21.5747 422.906 21.5747 422.294 Q21.5747 421.751 22.0162 421.343 Q22.4238 420.902 22.9673 420.902 Q23.3749 420.902 24.2241 421.445 L76.6014 456.635 Q77.6544 457.416 77.6544 458.028 Q77.6544 458.571 77.2128 459.013 Q76.8052 459.421 76.2617 459.421 Q75.7862 459.421 74.8691 458.809 L28.3341 427.559 L28.2662 427.627 Q30.7118 431.228 30.6779 436.9 Q30.6779 442.267 27.7567 447.396 Q31.3572 445.936 35.637 445.936 Q41.4794 445.936 45.5554 448.551 Q49.5975 451.167 49.5975 454.971 Q49.5975 459.081 45.6573 462.138 Q41.6832 465.195 35.5691 465.195 M29.8966 460.406 Q32.3422 460.881 35.637 460.881 Q38.8979 460.881 41.3435 460.406 Q43.7552 459.93 45.012 459.251 Q46.2688 458.537 47.016 457.586 Q47.7293 456.635 47.8992 456.058 Q48.069 455.48 48.069 454.903 Q48.069 452.05 44.5364 449.876 Q40.9699 447.668 35.5691 447.668 Q30.2702 447.668 26.7037 449.876 Q23.1032 452.05 23.1032 454.903 Q23.1032 455.514 23.273 456.126 Q23.4429 456.703 24.1901 457.62 Q24.9034 458.537 26.1602 459.251 Q27.417 459.93 29.8966 460.406 M63.592 434.387 Q57.6138 434.387 53.6057 431.33 Q49.5975 428.273 49.5975 424.163 Q49.5975 420.392 53.6736 417.777 Q57.7496 415.127 63.6599 415.127 Q69.5023 415.127 73.5783 417.743 Q77.6544 420.324 77.6544 424.163 Q77.6544 428.273 73.6802 431.33 Q69.7061 434.387 63.592 434.387 M57.9195 429.597 Q60.3991 430.073 63.6599 430.073 Q66.9208 430.073 69.3664 429.597 Q71.812 429.088 73.0688 428.409 Q74.2916 427.695 75.0049 426.778 Q75.7522 425.827 75.9221 425.25 Q76.1259 424.638 76.1259 424.095 Q76.1259 421.241 72.5933 419.068 Q69.0267 416.86 63.592 416.86 Q58.2931 416.86 54.7266 419.068 Q51.1261 421.241 51.1261 424.095 Q51.1261 424.706 51.3299 425.318 Q51.4997 425.895 52.247 426.812 Q52.9603 427.695 54.2171 428.409 Q55.4399 429.088 57.9195 429.597 Z" fill="#000000" fill-rule="evenodd" fill-opacity="1" /><path clip-path="url(#clip750)" d="M73.7482 385.746 L71.6082 385.746 Q71.6082 382.043 71.1667 381.194 Q70.6911 380.345 68.4493 380.345 L49.7334 380.345 Q47.1519 380.345 46.5405 381.228 Q45.9291 382.077 45.9291 385.474 L43.7552 385.474 L43.0079 375.76 L68.5172 375.76 Q70.5892 375.76 71.0987 375.012 Q71.6082 374.265 71.6082 370.868 L73.7482 370.868 Q73.5444 377.967 73.5444 378.103 Q73.5444 379.054 73.7482 385.746 M30.8817 382.825 Q29.489 382.825 28.3681 381.772 Q27.2132 380.685 27.2132 379.156 Q27.2132 377.628 28.2662 376.541 Q29.2852 375.454 30.9156 375.454 Q32.5121 375.454 33.5651 376.541 Q34.5841 377.628 34.5841 379.156 Q34.5841 380.753 33.4632 381.806 Q32.3422 382.825 30.8817 382.825 Z" fill="#000000" fill-rule="evenodd" fill-opacity="1" /><path clip-path="url(#clip750)" d="M73.7482 366.554 L71.6082 366.554 Q71.6082 362.852 71.1667 362.003 Q70.6911 361.154 68.4493 361.154 L49.8013 361.154 Q47.2198 361.154 46.5745 362.071 Q45.9291 362.954 45.9291 366.554 L43.7552 366.554 L43.0079 356.772 L50.3108 356.772 Q43.0079 353.511 43.0079 346.48 Q43.0079 341.249 45.5894 339.177 Q47.3217 337.648 49.2579 337.343 Q51.194 337.003 56.2211 337.003 L69.5023 337.003 Q70.9629 336.935 71.3025 335.814 Q71.6082 334.693 71.6082 331.568 L73.7482 331.568 Q73.5444 338.667 73.5444 339.381 Q73.5444 339.924 73.7482 347.227 L71.6082 347.227 Q71.6082 343.525 71.1667 342.676 Q70.6911 341.792 68.4493 341.792 L52.247 341.792 Q48.7144 341.792 46.6424 342.879 Q44.5364 343.966 44.5364 346.955 Q44.5364 350.556 47.5595 353.443 Q50.5826 356.33 55.6776 356.33 L68.4493 356.33 Q70.6911 356.33 71.1667 355.481 Q71.6082 354.598 71.6082 350.93 L73.7482 350.93 Q73.5444 358.029 73.5444 358.708 Q73.5444 359.251 73.7482 366.554 Z" fill="#000000" fill-rule="evenodd" fill-opacity="1" /><path clip-path="url(#clip750)" d="M45.9291 330.821 L44.4006 330.821 Q44.2647 327.628 42.0229 325.522 Q39.7471 323.382 36.9618 322.669 Q34.1765 321.922 30.9496 321.854 L30.9496 320.121 L43.7552 320.121 L43.7552 310.169 L45.9291 310.169 L45.9291 320.121 L65.2564 320.121 Q72.7631 320.121 72.7631 315.434 Q72.7631 313.43 70.7251 312.105 Q68.6531 310.78 64.9846 310.78 L61.1464 310.78 L61.1464 309.048 L65.1205 309.048 Q68.8909 309.048 71.7101 310.78 Q74.5294 312.513 74.5294 315.943 Q74.5294 317.2 74.1897 318.457 Q73.884 319.68 73.0688 321.31 Q72.2196 322.907 70.1816 323.926 Q68.1096 324.911 65.1205 324.911 L45.9291 324.911 L45.9291 330.821 Z" fill="#000000" fill-rule="evenodd" fill-opacity="1" /><path clip-path="url(#clip750)" d="M58.429 303.24 Q51.8733 303.24 47.2198 299.028 Q42.5663 294.816 42.5663 288.77 Q42.5663 282.656 46.5405 279.497 Q50.5146 276.304 56.2211 276.304 Q57.2741 276.304 57.4779 276.576 Q57.6817 276.847 57.6817 278.036 L57.6817 297.465 Q64.7808 297.465 68.1096 295.359 Q72.7631 292.438 72.7631 287.513 Q72.7631 286.834 72.6272 286.018 Q72.4914 285.203 71.9139 283.539 Q71.3025 281.874 69.7061 280.414 Q68.1096 278.953 65.596 278.104 Q64.611 277.9 64.645 277.221 Q64.645 276.304 65.4602 276.304 Q66.0716 276.304 67.4642 276.983 Q68.8229 277.629 70.4533 278.885 Q72.0838 280.142 73.3066 282.588 Q74.5294 284.999 74.5294 287.921 Q74.5294 294.035 69.9099 298.654 Q65.2564 303.24 58.429 303.24 M56.2211 297.397 L56.2211 280.889 Q54.7605 280.889 53.1301 281.161 Q51.4997 281.399 49.2579 282.146 Q46.9821 282.859 45.5554 284.558 Q44.1288 286.256 44.1288 288.77 Q44.1288 289.891 44.6044 291.113 Q45.0799 292.302 46.2348 293.763 Q47.3897 295.223 50.0051 296.242 Q52.6206 297.261 56.2211 297.397 Z" fill="#000000" fill-rule="evenodd" fill-opacity="1" /><path clip-path="url(#clip750)" d="M73.7482 272.364 L71.6082 272.364 Q71.6082 268.661 71.1667 267.812 Q70.6911 266.929 68.4493 266.929 L49.8013 266.929 Q47.2198 266.929 46.5745 267.846 Q45.9291 268.729 45.9291 272.364 L43.7552 272.364 L43.0079 262.683 L50.6505 262.683 Q47.6614 261.698 45.3516 259.626 Q43.0079 257.52 43.0079 254.123 Q43.0079 251.881 44.2647 250.455 Q45.5215 248.994 47.2538 248.994 Q48.7823 248.994 49.5636 249.945 Q50.3108 250.862 50.3108 251.983 Q50.3108 253.24 49.5296 254.123 Q48.7144 254.972 47.3217 254.972 Q46.4726 254.972 45.8272 254.599 Q45.1478 254.191 44.9101 253.885 Q44.6723 253.58 44.6044 253.376 Q44.5364 253.512 44.5364 254.123 Q44.5364 257.962 48.3747 260.169 Q52.179 262.343 57.6138 262.343 L68.3134 262.343 Q70.3175 262.343 70.9629 261.528 Q71.6082 260.679 71.6082 257.044 L71.6082 255.584 L73.7482 255.584 Q73.5444 258.369 73.5444 264.415 Q73.5444 265.264 73.5783 266.589 Q73.6123 267.914 73.6802 269.646 Q73.7482 271.379 73.7482 272.364 Z" fill="#000000" fill-rule="evenodd" fill-opacity="1" /><path clip-path="url(#clip750)" d="M45.9291 245.801 L43.7552 245.801 Q43.959 242.676 43.959 239.042 Q43.959 237.717 43.7552 231.467 L45.9291 231.467 Q45.9291 235.441 47.7293 235.441 Q48.0011 235.441 48.9182 235.034 L68.3134 227.221 L50.5826 220.122 Q49.3937 219.715 48.9182 219.715 Q47.7293 219.715 46.8802 220.53 Q45.997 221.311 45.9291 223.043 L43.7552 223.043 Q43.959 219.511 43.959 216.997 Q43.959 214.144 43.7552 211.8 L45.9291 211.8 Q45.9291 213.872 46.8802 215.333 Q47.7973 216.793 48.6125 217.269 Q49.3937 217.711 50.5826 218.186 L73.2047 227.289 Q74.5294 227.833 74.5294 228.75 Q74.5294 229.361 74.2577 229.633 Q74.0199 229.871 73.2047 230.21 L48.5106 240.231 Q46.7783 240.91 46.3707 241.793 Q45.9291 242.676 45.9291 245.801 Z" fill="#000000" fill-rule="evenodd" fill-opacity="1" /><path clip-path="url(#clip750)" d="M58.429 210.476 Q51.8733 210.476 47.2198 206.264 Q42.5663 202.052 42.5663 196.006 Q42.5663 189.891 46.5405 186.732 Q50.5146 183.54 56.2211 183.54 Q57.2741 183.54 57.4779 183.811 Q57.6817 184.083 57.6817 185.272 L57.6817 204.701 Q64.7808 204.701 68.1096 202.595 Q72.7631 199.674 72.7631 194.749 Q72.7631 194.069 72.6272 193.254 Q72.4914 192.439 71.9139 190.775 Q71.3025 189.11 69.7061 187.65 Q68.1096 186.189 65.596 185.34 Q64.611 185.136 64.645 184.457 Q64.645 183.54 65.4602 183.54 Q66.0716 183.54 67.4642 184.219 Q68.8229 184.864 70.4533 186.121 Q72.0838 187.378 73.3066 189.823 Q74.5294 192.235 74.5294 195.156 Q74.5294 201.27 69.9099 205.89 Q65.2564 210.476 58.429 210.476 M56.2211 204.633 L56.2211 188.125 Q54.7605 188.125 53.1301 188.397 Q51.4997 188.635 49.2579 189.382 Q46.9821 190.095 45.5554 191.794 Q44.1288 193.492 44.1288 196.006 Q44.1288 197.126 44.6044 198.349 Q45.0799 199.538 46.2348 200.999 Q47.3897 202.459 50.0051 203.478 Q52.6206 204.497 56.2211 204.633 Z" fill="#000000" fill-rule="evenodd" fill-opacity="1" /><path clip-path="url(#clip750)" d="M73.7482 179.294 L71.6082 179.294 Q71.6082 175.591 71.1667 174.742 Q70.6911 173.893 68.4493 173.893 L49.8013 173.893 Q47.2198 173.893 46.5745 174.81 Q45.9291 175.693 45.9291 179.294 L43.7552 179.294 L43.0079 169.511 L50.3108 169.511 Q43.0079 166.25 43.0079 159.219 Q43.0079 153.988 45.5894 151.916 Q47.3217 150.388 49.2579 150.082 Q51.194 149.742 56.2211 149.742 L69.5023 149.742 Q70.9629 149.674 71.3025 148.553 Q71.6082 147.433 71.6082 144.308 L73.7482 144.308 Q73.5444 151.407 73.5444 152.12 Q73.5444 152.663 73.7482 159.966 L71.6082 159.966 Q71.6082 156.264 71.1667 155.415 Q70.6911 154.532 68.4493 154.532 L52.247 154.532 Q48.7144 154.532 46.6424 155.619 Q44.5364 156.706 44.5364 159.695 Q44.5364 163.295 47.5595 166.182 Q50.5826 169.07 55.6776 169.07 L68.4493 169.07 Q70.6911 169.07 71.1667 168.22 Q71.6082 167.337 71.6082 163.669 L73.7482 163.669 Q73.5444 170.768 73.5444 171.447 Q73.5444 171.991 73.7482 179.294 Z" fill="#000000" fill-rule="evenodd" fill-opacity="1" /><path clip-path="url(#clip750)" d="M45.9291 143.56 L44.4006 143.56 Q44.2647 140.367 42.0229 138.261 Q39.7471 136.121 36.9618 135.408 Q34.1765 134.661 30.9496 134.593 L30.9496 132.861 L43.7552 132.861 L43.7552 122.908 L45.9291 122.908 L45.9291 132.861 L65.2564 132.861 Q72.7631 132.861 72.7631 128.173 Q72.7631 126.169 70.7251 124.844 Q68.6531 123.52 64.9846 123.52 L61.1464 123.52 L61.1464 121.787 L65.1205 121.787 Q68.8909 121.787 71.7101 123.52 Q74.5294 125.252 74.5294 128.683 Q74.5294 129.939 74.1897 131.196 Q73.884 132.419 73.0688 134.049 Q72.2196 135.646 70.1816 136.665 Q68.1096 137.65 65.1205 137.65 L45.9291 137.65 L45.9291 143.56 Z" fill="#000000" fill-rule="evenodd" fill-opacity="1" /><path clip-path="url(#clip750)" d="M73.7482 115.605 L71.6082 115.605 Q71.6082 111.903 71.1667 111.054 Q70.6911 110.205 68.4493 110.205 L49.7334 110.205 Q47.1519 110.205 46.5405 111.088 Q45.9291 111.937 45.9291 115.334 L43.7552 115.334 L43.0079 105.619 L68.5172 105.619 Q70.5892 105.619 71.0987 104.872 Q71.6082 104.124 71.6082 100.728 L73.7482 100.728 Q73.5444 107.827 73.5444 107.963 Q73.5444 108.914 73.7482 115.605 M30.8817 112.684 Q29.489 112.684 28.3681 111.631 Q27.2132 110.544 27.2132 109.016 Q27.2132 107.487 28.2662 106.4 Q29.2852 105.313 30.9156 105.313 Q32.5121 105.313 33.5651 106.4 Q34.5841 107.487 34.5841 109.016 Q34.5841 110.612 33.4632 111.665 Q32.3422 112.684 30.8817 112.684 Z" fill="#000000" fill-rule="evenodd" fill-opacity="1" /><path clip-path="url(#clip750)" d="M70.0118 92.1341 Q65.4602 96.7196 58.8706 96.7196 Q52.247 96.7196 47.4236 92.236 Q42.5663 87.7183 42.5663 81.2646 Q42.5663 74.9467 47.3897 70.4291 Q52.179 65.8775 58.8706 65.8775 Q65.4262 65.8775 69.9778 70.463 Q74.5294 75.0146 74.5294 81.3325 Q74.5294 87.5145 70.0118 92.1341 M58.2931 90.9452 Q65.0526 90.9452 68.1096 89.1789 Q72.7631 86.4616 72.7631 81.2646 Q72.7631 78.6831 71.3705 76.5432 Q69.9778 74.3693 67.6341 73.1804 Q64.577 71.6519 58.2931 71.6519 Q51.6016 71.6519 48.6465 73.4861 Q44.1288 76.2035 44.1288 81.3325 Q44.1288 83.5743 45.3177 85.7822 Q46.4726 87.9561 48.7823 89.2808 Q51.8394 90.9452 58.2931 90.9452 Z" fill="#000000" fill-rule="evenodd" fill-opacity="1" /><path clip-path="url(#clip750)" d="M73.7482 61.6316 L71.6082 61.6316 Q71.6082 57.9292 71.1667 57.08 Q70.6911 56.2308 68.4493 56.2308 L49.8013 56.2308 Q47.2198 56.2308 46.5745 57.1479 Q45.9291 58.0311 45.9291 61.6316 L43.7552 61.6316 L43.0079 51.8491 L50.3108 51.8491 Q43.0079 48.5882 43.0079 41.557 Q43.0079 36.3261 45.5894 34.2541 Q47.3217 32.7256 49.2579 32.4199 Q51.194 32.0802 56.2211 32.0802 L69.5023 32.0802 Q70.9629 32.0123 71.3025 30.8913 Q71.6082 29.7704 71.6082 26.6455 L73.7482 26.6455 Q73.5444 33.7446 73.5444 34.4579 Q73.5444 35.0014 73.7482 42.3043 L71.6082 42.3043 Q71.6082 38.6019 71.1667 37.7527 Q70.6911 36.8696 68.4493 36.8696 L52.247 36.8696 Q48.7144 36.8696 46.6424 37.9565 Q44.5364 39.0435 44.5364 42.0326 Q44.5364 45.6331 47.5595 48.5203 Q50.5826 51.4075 55.6776 51.4075 L68.4493 51.4075 Q70.6911 51.4075 71.1667 50.5583 Q71.6082 49.6752 71.6082 46.0067 L73.7482 46.0067 Q73.5444 53.1058 73.5444 53.7852 Q73.5444 54.3287 73.7482 61.6316 Z" fill="#000000" fill-rule="evenodd" fill-opacity="1" /><path clip-path="url(#clip750)" d="M72.831 22.977 L63.6599 22.977 Q62.8787 22.977 62.6069 22.943 Q62.3352 22.9091 62.1314 22.7053 Q61.9276 22.5015 61.9276 22.0939 Q61.9276 21.6183 62.1314 21.4485 Q62.3352 21.2447 63.1164 21.1088 Q67.9058 20.0558 70.4533 17.814 Q72.9669 15.5382 72.9669 11.4282 Q72.9669 7.52197 71.2346 5.55187 Q69.5023 3.58178 66.649 3.58178 Q61.554 3.58178 60.2632 10.8168 Q59.414 14.9947 58.8706 16.7271 Q58.2931 18.4594 57.0363 19.9879 Q54.5907 22.977 51.1261 22.977 Q47.6614 22.977 45.1139 20.3615 Q42.5663 17.7121 42.5663 11.8698 Q42.5663 7.96354 44.5364 5.3141 Q43.925 4.53286 43.4155 4.12526 Q42.5663 3.20814 42.5663 2.7326 Q42.5663 2.18913 42.94 2.08723 Q43.2797 1.98533 44.2647 1.98533 L51.2619 1.98533 Q52.0432 1.98533 52.3149 2.01929 Q52.5866 2.05326 52.7904 2.25706 Q52.9603 2.46087 52.9603 2.90244 Q52.9603 3.68368 52.3149 3.71765 Q43.8911 4.26112 43.8911 11.8698 Q43.8911 15.9798 45.4875 17.814 Q47.05 19.6482 49.1899 19.6482 Q50.3788 19.6482 51.2959 19.1048 Q52.179 18.5273 52.7225 17.814 Q53.232 17.0667 53.7415 15.708 Q54.2171 14.3494 54.3869 13.5341 Q54.5567 12.685 54.8964 11.0885 Q55.9494 5.51791 58.2252 3.17418 Q61.1464 0.253004 64.8488 0.253004 Q68.9588 0.253004 71.7441 3.03831 Q74.5294 5.82361 74.5294 11.4282 Q74.5294 15.9458 71.5063 19.1048 Q71.9139 19.5124 72.2876 19.8181 Q72.6272 20.1238 72.7631 20.2596 Q72.899 20.3615 73.0009 20.3955 Q73.0688 20.4295 73.1367 20.4974 Q74.5294 21.8901 74.5294 22.2297 Q74.5294 22.7732 74.1558 22.8751 Q73.8161 22.977 72.831 22.977 Z" fill="#000000" fill-rule="evenodd" fill-opacity="1" /><path clip-path="url(#clip752)" d="
M205.072 178.185 L205.072 407.705 L237.535 407.705 L237.535 178.185 L205.072 178.185 L205.072 178.185  Z
  " fill="#1abc9c" fill-rule="evenodd" fill-opacity="1"/>
<polyline clip-path="url(#clip752)" style="stroke:#1abc9c; stroke-linecap:round; stroke-linejoin:round; stroke-width:4; stroke-opacity:1; fill:none" points="
  205.072,178.185 205.072,407.705 237.535,407.705 237.535,178.185 205.072,178.185 
  "/>
<path clip-path="url(#clip752)" d="
M367.385 208.854 L367.385 407.705 L399.848 407.705 L399.848 208.854 L367.385 208.854 L367.385 208.854  Z
  " fill="#1abc9c" fill-rule="evenodd" fill-opacity="1"/>
<polyline clip-path="url(#clip752)" style="stroke:#1abc9c; stroke-linecap:round; stroke-linejoin:round; stroke-width:4; stroke-opacity:1; fill:none" points="
  367.385,208.854 367.385,407.705 399.848,407.705 399.848,208.854 367.385,208.854 
  "/>
<path clip-path="url(#clip752)" d="
M529.698 131.112 L529.698 407.705 L562.161 407.705 L562.161 131.112 L529.698 131.112 L529.698 131.112  Z
  " fill="#1abc9c" fill-rule="evenodd" fill-opacity="1"/>
<polyline clip-path="url(#clip752)" style="stroke:#1abc9c; stroke-linecap:round; stroke-linejoin:round; stroke-width:4; stroke-opacity:1; fill:none" points="
  529.698,131.112 529.698,407.705 562.161,407.705 562.161,131.112 529.698,131.112 
  "/>
<path clip-path="url(#clip752)" d="
M692.012 57.743 L692.012 407.705 L724.474 407.705 L724.474 57.743 L692.012 57.743 L692.012 57.743  Z
  " fill="#1abc9c" fill-rule="evenodd" fill-opacity="1"/>
<polyline clip-path="url(#clip752)" style="stroke:#1abc9c; stroke-linecap:round; stroke-linejoin:round; stroke-width:4; stroke-opacity:1; fill:none" points="
  692.012,57.743 692.012,407.705 724.474,407.705 724.474,57.743 692.012,57.743 
  "/>
<circle clip-path="url(#clip752)" style="fill:#1abc9c; stroke:none; fill-opacity:0" cx="221.303" cy="178.185" r="2"/>
<circle clip-path="url(#clip752)" style="fill:#1abc9c; stroke:none; fill-opacity:0" cx="383.617" cy="208.854" r="2"/>
<circle clip-path="url(#clip752)" style="fill:#1abc9c; stroke:none; fill-opacity:0" cx="545.93" cy="131.112" r="2"/>
<circle clip-path="url(#clip752)" style="fill:#1abc9c; stroke:none; fill-opacity:0" cx="708.243" cy="57.743" r="2"/>
<path clip-path="url(#clip752)" d="
M237.535 250.014 L237.535 407.705 L269.997 407.705 L269.997 250.014 L237.535 250.014 L237.535 250.014  Z
  " fill="#3498db" fill-rule="evenodd" fill-opacity="1"/>
<polyline clip-path="url(#clip752)" style="stroke:#3498db; stroke-linecap:round; stroke-linejoin:round; stroke-width:4; stroke-opacity:1; fill:none" points="
  237.535,250.014 237.535,407.705 269.997,407.705 269.997,250.014 237.535,250.014 
  "/>
<path clip-path="url(#clip752)" d="
M399.848 185.544 L399.848 407.705 L432.311 407.705 L432.311 185.544 L399.848 185.544 L399.848 185.544  Z
  " fill="#3498db" fill-rule="evenodd" fill-opacity="1"/>
<polyline clip-path="url(#clip752)" style="stroke:#3498db; stroke-linecap:round; stroke-linejoin:round; stroke-width:4; stroke-opacity:1; fill:none" points="
  399.848,185.544 399.848,407.705 432.311,407.705 432.311,185.544 399.848,185.544 
  "/>
<path clip-path="url(#clip752)" d="
M562.161 92.9065 L562.161 407.705 L594.624 407.705 L594.624 92.9065 L562.161 92.9065 L562.161 92.9065  Z
  " fill="#3498db" fill-rule="evenodd" fill-opacity="1"/>
<polyline clip-path="url(#clip752)" style="stroke:#3498db; stroke-linecap:round; stroke-linejoin:round; stroke-width:4; stroke-opacity:1; fill:none" points="
  562.161,92.9065 562.161,407.705 594.624,407.705 594.624,92.9065 562.161,92.9065 
  "/>
<path clip-path="url(#clip752)" d="
M724.474 171.91 L724.474 407.705 L756.937 407.705 L756.937 171.91 L724.474 171.91 L724.474 171.91  Z
  " fill="#3498db" fill-rule="evenodd" fill-opacity="1"/>
<polyline clip-path="url(#clip752)" style="stroke:#3498db; stroke-linecap:round; stroke-linejoin:round; stroke-width:4; stroke-opacity:1; fill:none" points="
  724.474,171.91 724.474,407.705 756.937,407.705 756.937,171.91 724.474,171.91 
  "/>
<circle clip-path="url(#clip752)" style="fill:#3498db; stroke:none; fill-opacity:0" cx="253.766" cy="250.014" r="2"/>
<circle clip-path="url(#clip752)" style="fill:#3498db; stroke:none; fill-opacity:0" cx="416.079" cy="185.544" r="2"/>
<circle clip-path="url(#clip752)" style="fill:#3498db; stroke:none; fill-opacity:0" cx="578.392" cy="92.9065" r="2"/>
<circle clip-path="url(#clip752)" style="fill:#3498db; stroke:none; fill-opacity:0" cx="740.706" cy="171.91" r="2"/>
<path clip-path="url(#clip752)" d="
M269.997 333.73 L269.997 407.705 L302.46 407.705 L302.46 333.73 L269.997 333.73 L269.997 333.73  Z
  " fill="#2ecc71" fill-rule="evenodd" fill-opacity="1"/>
<polyline clip-path="url(#clip752)" style="stroke:#2ecc71; stroke-linecap:round; stroke-linejoin:round; stroke-width:4; stroke-opacity:1; fill:none" points="
  269.997,333.73 269.997,407.705 302.46,407.705 302.46,333.73 269.997,333.73 
  "/>
<path clip-path="url(#clip752)" d="
M432.311 296.608 L432.311 407.705 L464.773 407.705 L464.773 296.608 L432.311 296.608 L432.311 296.608  Z
  " fill="#2ecc71" fill-rule="evenodd" fill-opacity="1"/>
<polyline clip-path="url(#clip752)" style="stroke:#2ecc71; stroke-linecap:round; stroke-linejoin:round; stroke-width:4; stroke-opacity:1; fill:none" points="
  432.311,296.608 432.311,407.705 464.773,407.705 464.773,296.608 432.311,296.608 
  "/>
<path clip-path="url(#clip752)" d="
M594.624 315.65 L594.624 407.705 L627.086 407.705 L627.086 315.65 L594.624 315.65 L594.624 315.65  Z
  " fill="#2ecc71" fill-rule="evenodd" fill-opacity="1"/>
<polyline clip-path="url(#clip752)" style="stroke:#2ecc71; stroke-linecap:round; stroke-linejoin:round; stroke-width:4; stroke-opacity:1; fill:none" points="
  594.624,315.65 594.624,407.705 627.086,407.705 627.086,315.65 594.624,315.65 
  "/>
<path clip-path="url(#clip752)" d="
M756.937 306.715 L756.937 407.705 L789.4 407.705 L789.4 306.715 L756.937 306.715 L756.937 306.715  Z
  " fill="#2ecc71" fill-rule="evenodd" fill-opacity="1"/>
<polyline clip-path="url(#clip752)" style="stroke:#2ecc71; stroke-linecap:round; stroke-linejoin:round; stroke-width:4; stroke-opacity:1; fill:none" points="
  756.937,306.715 756.937,407.705 789.4,407.705 789.4,306.715 756.937,306.715 
  "/>
<circle clip-path="url(#clip752)" style="fill:#2ecc71; stroke:none; fill-opacity:0" cx="286.229" cy="333.73" r="2"/>
<circle clip-path="url(#clip752)" style="fill:#2ecc71; stroke:none; fill-opacity:0" cx="448.542" cy="296.608" r="2"/>
<circle clip-path="url(#clip752)" style="fill:#2ecc71; stroke:none; fill-opacity:0" cx="610.855" cy="315.65" r="2"/>
<circle clip-path="url(#clip752)" style="fill:#2ecc71; stroke:none; fill-opacity:0" cx="773.168" cy="306.715" r="2"/>
<path clip-path="url(#clip752)" d="
M302.46 351.626 L302.46 407.705 L334.923 407.705 L334.923 351.626 L302.46 351.626 L302.46 351.626  Z
  " fill="#9b59b6" fill-rule="evenodd" fill-opacity="1"/>
<polyline clip-path="url(#clip752)" style="stroke:#9b59b6; stroke-linecap:round; stroke-linejoin:round; stroke-width:4; stroke-opacity:1; fill:none" points="
  302.46,351.626 302.46,407.705 334.923,407.705 334.923,351.626 302.46,351.626 
  "/>
<path clip-path="url(#clip752)" d="
M464.773 296.954 L464.773 407.705 L497.236 407.705 L497.236 296.954 L464.773 296.954 L464.773 296.954  Z
  " fill="#9b59b6" fill-rule="evenodd" fill-opacity="1"/>
<polyline clip-path="url(#clip752)" style="stroke:#9b59b6; stroke-linecap:round; stroke-linejoin:round; stroke-width:4; stroke-opacity:1; fill:none" points="
  464.773,296.954 464.773,407.705 497.236,407.705 497.236,296.954 464.773,296.954 
  "/>
<path clip-path="url(#clip752)" d="
M627.086 317.497 L627.086 407.705 L659.549 407.705 L659.549 317.497 L627.086 317.497 L627.086 317.497  Z
  " fill="#9b59b6" fill-rule="evenodd" fill-opacity="1"/>
<polyline clip-path="url(#clip752)" style="stroke:#9b59b6; stroke-linecap:round; stroke-linejoin:round; stroke-width:4; stroke-opacity:1; fill:none" points="
  627.086,317.497 627.086,407.705 659.549,407.705 659.549,317.497 627.086,317.497 
  "/>
<path clip-path="url(#clip752)" d="
M789.4 307.16 L789.4 407.705 L821.862 407.705 L821.862 307.16 L789.4 307.16 L789.4 307.16  Z
  " fill="#9b59b6" fill-rule="evenodd" fill-opacity="1"/>
<polyline clip-path="url(#clip752)" style="stroke:#9b59b6; stroke-linecap:round; stroke-linejoin:round; stroke-width:4; stroke-opacity:1; fill:none" points="
  789.4,307.16 789.4,407.705 821.862,407.705 821.862,307.16 789.4,307.16 
  "/>
<circle clip-path="url(#clip752)" style="fill:#9b59b6; stroke:none; fill-opacity:0" cx="318.691" cy="351.626" r="2"/>
<circle clip-path="url(#clip752)" style="fill:#9b59b6; stroke:none; fill-opacity:0" cx="481.005" cy="296.954" r="2"/>
<circle clip-path="url(#clip752)" style="fill:#9b59b6; stroke:none; fill-opacity:0" cx="643.318" cy="317.497" r="2"/>
<circle clip-path="url(#clip752)" style="fill:#9b59b6; stroke:none; fill-opacity:0" cx="805.631" cy="307.16" r="2"/>
<path clip-path="url(#clip750)" d="
M889.64 348.769 L1152.76 348.769 L1152.76 89.5693 L889.64 89.5693  Z
  " fill="#ffffff" fill-rule="evenodd" fill-opacity="1"/>
<polyline clip-path="url(#clip750)" style="stroke:#000000; stroke-linecap:round; stroke-linejoin:round; stroke-width:4; stroke-opacity:1; fill:none" points="
  889.64,348.769 1152.76,348.769 1152.76,89.5693 889.64,89.5693 889.64,348.769 
  "/>
<path clip-path="url(#clip750)" d="
M900.559 162.145 L966.073 162.145 L966.073 120.673 L900.559 120.673 L900.559 162.145  Z
  " fill="#1abc9c" fill-rule="evenodd" fill-opacity="1"/>
<polyline clip-path="url(#clip750)" style="stroke:#1abc9c; stroke-linecap:round; stroke-linejoin:round; stroke-width:4; stroke-opacity:1; fill:none" points="
  900.559,162.145 966.073,162.145 966.073,120.673 900.559,120.673 900.559,162.145 
  "/>
<path clip-path="url(#clip750)" d="M976.991 147.82 Q976.991 143.003 980.351 139.668 Q983.711 136.333 988.256 136.333 Q992.11 136.333 994.63 139.47 L994.63 128.526 Q994.63 126.649 993.963 126.18 Q993.32 125.71 990.702 125.71 L990.702 124.129 L997.989 123.586 L997.989 154.292 Q997.989 156.17 998.632 156.664 Q999.299 157.133 1001.92 157.133 L1001.92 158.689 L994.481 159.257 L994.481 155.898 Q991.863 159.233 987.713 159.257 Q983.365 159.257 980.178 155.923 Q976.991 152.588 976.991 147.82 M981.191 147.869 Q981.191 152.563 982.649 154.885 Q984.674 158.121 987.96 158.121 Q991.715 158.121 993.938 154.589 Q994.506 153.724 994.481 152.711 L994.481 142.336 Q994.481 141.323 993.938 140.483 Q991.863 137.444 988.479 137.444 Q984.946 137.444 982.747 140.681 Q981.191 143.101 981.191 147.869 Z" fill="#000000" fill-rule="evenodd" fill-opacity="1" /><path clip-path="url(#clip750)" d="M1006.22 151.007 Q1006.26 150.389 1007.23 150.389 L1038.23 150.389 Q1039.69 150.389 1039.71 150.957 Q1039.71 151.575 1038.33 151.55 L1007.57 151.55 Q1006.22 151.575 1006.22 151.007 M1006.22 141.125 Q1006.22 140.508 1007.28 140.532 L1038.18 140.532 Q1039.69 140.532 1039.71 141.125 Q1039.71 141.693 1038.43 141.693 L1007.23 141.693 Q1006.22 141.693 1006.22 141.125 Z" fill="#000000" fill-rule="evenodd" fill-opacity="1" /><path clip-path="url(#clip750)" d="M1044.65 142.509 Q1044.65 135.073 1046.53 131.022 Q1049.15 124.994 1055.33 124.994 Q1056.64 124.994 1057.99 125.364 Q1059.38 125.71 1061.11 127.069 Q1062.86 128.428 1063.92 130.651 Q1065.95 134.949 1065.95 142.509 Q1065.95 149.895 1064.07 153.922 Q1061.33 159.801 1055.28 159.801 Q1053 159.801 1050.68 158.64 Q1048.38 157.479 1046.93 154.687 Q1044.65 150.512 1044.65 142.509 M1048.85 141.891 Q1048.85 149.524 1049.4 152.563 Q1050.01 155.848 1051.69 157.281 Q1053.4 158.689 1055.28 158.689 Q1057.3 158.689 1058.98 157.182 Q1060.69 155.651 1061.21 152.365 Q1061.77 149.129 1061.75 141.891 Q1061.75 134.851 1061.25 132.034 Q1060.59 128.749 1058.81 127.44 Q1057.06 126.106 1055.28 126.106 Q1054.61 126.106 1053.89 126.303 Q1053.2 126.501 1052.19 127.069 Q1051.18 127.637 1050.39 129.045 Q1049.62 130.453 1049.25 132.578 Q1048.85 135.32 1048.85 141.891 Z" fill="#000000" fill-rule="evenodd" fill-opacity="1" /><path clip-path="url(#clip750)" d="
M900.559 213.985 L966.073 213.985 L966.073 172.513 L900.559 172.513 L900.559 213.985  Z
  " fill="#3498db" fill-rule="evenodd" fill-opacity="1"/>
<polyline clip-path="url(#clip750)" style="stroke:#3498db; stroke-linecap:round; stroke-linejoin:round; stroke-width:4; stroke-opacity:1; fill:none" points="
  900.559,213.985 966.073,213.985 966.073,172.513 900.559,172.513 900.559,213.985 
  "/>
<path clip-path="url(#clip750)" d="M976.991 199.66 Q976.991 194.843 980.351 191.508 Q983.711 188.173 988.256 188.173 Q992.11 188.173 994.63 191.31 L994.63 180.366 Q994.63 178.489 993.963 178.02 Q993.32 177.55 990.702 177.55 L990.702 175.969 L997.989 175.426 L997.989 206.132 Q997.989 208.01 998.632 208.504 Q999.299 208.973 1001.92 208.973 L1001.92 210.529 L994.481 211.097 L994.481 207.738 Q991.863 211.073 987.713 211.097 Q983.365 211.097 980.178 207.763 Q976.991 204.428 976.991 199.66 M981.191 199.709 Q981.191 204.403 982.649 206.725 Q984.674 209.961 987.96 209.961 Q991.715 209.961 993.938 206.429 Q994.506 205.564 994.481 204.551 L994.481 194.176 Q994.481 193.163 993.938 192.323 Q991.863 189.284 988.479 189.284 Q984.946 189.284 982.747 192.521 Q981.191 194.941 981.191 199.709 Z" fill="#000000" fill-rule="evenodd" fill-opacity="1" /><path clip-path="url(#clip750)" d="M1006.22 202.847 Q1006.26 202.229 1007.23 202.229 L1038.23 202.229 Q1039.69 202.229 1039.71 202.797 Q1039.71 203.415 1038.33 203.39 L1007.57 203.39 Q1006.22 203.415 1006.22 202.847 M1006.22 192.965 Q1006.22 192.348 1007.28 192.372 L1038.18 192.372 Q1039.69 192.372 1039.71 192.965 Q1039.71 193.533 1038.43 193.533 L1007.23 193.533 Q1006.22 193.533 1006.22 192.965 Z" fill="#000000" fill-rule="evenodd" fill-opacity="1" /><path clip-path="url(#clip750)" d="M1047.17 181.651 L1047.17 180.07 Q1053.25 180.07 1056.39 176.834 Q1057.25 176.834 1057.4 177.032 Q1057.55 177.229 1057.55 178.143 L1057.55 206.527 Q1057.55 208.034 1058.29 208.504 Q1059.03 208.973 1062.27 208.973 L1063.87 208.973 L1063.87 210.529 Q1062.09 210.381 1055.67 210.381 Q1049.25 210.381 1047.49 210.529 L1047.49 208.973 L1049.1 208.973 Q1052.29 208.973 1053.05 208.528 Q1053.82 208.059 1053.82 206.527 L1053.82 180.317 Q1051.18 181.651 1047.17 181.651 Z" fill="#000000" fill-rule="evenodd" fill-opacity="1" /><path clip-path="url(#clip750)" d="M1069.95 194.349 Q1069.95 186.913 1071.83 182.862 Q1074.45 176.834 1080.62 176.834 Q1081.93 176.834 1083.29 177.204 Q1084.67 177.55 1086.4 178.909 Q1088.16 180.268 1089.22 182.491 Q1091.24 186.789 1091.24 194.349 Q1091.24 201.735 1089.37 205.762 Q1086.62 211.641 1080.57 211.641 Q1078.3 211.641 1075.98 210.48 Q1073.68 209.319 1072.22 206.527 Q1069.95 202.352 1069.95 194.349 M1074.15 193.731 Q1074.15 201.364 1074.69 204.403 Q1075.31 207.688 1076.99 209.121 Q1078.7 210.529 1080.57 210.529 Q1082.6 210.529 1084.28 209.022 Q1085.98 207.491 1086.5 204.205 Q1087.07 200.969 1087.04 193.731 Q1087.04 186.691 1086.55 183.874 Q1085.88 180.589 1084.11 179.28 Q1082.35 177.946 1080.57 177.946 Q1079.91 177.946 1079.19 178.143 Q1078.5 178.341 1077.48 178.909 Q1076.47 179.477 1075.68 180.885 Q1074.92 182.293 1074.55 184.418 Q1074.15 187.16 1074.15 193.731 Z" fill="#000000" fill-rule="evenodd" fill-opacity="1" /><path clip-path="url(#clip750)" d="
M900.559 265.825 L966.073 265.825 L966.073 224.353 L900.559 224.353 L900.559 265.825  Z
  " fill="#2ecc71" fill-rule="evenodd" fill-opacity="1"/>
<polyline clip-path="url(#clip750)" style="stroke:#2ecc71; stroke-linecap:round; stroke-linejoin:round; stroke-width:4; stroke-opacity:1; fill:none" points="
  900.559,265.825 966.073,265.825 966.073,224.353 900.559,224.353 900.559,265.825 
  "/>
<path clip-path="url(#clip750)" d="M976.991 251.5 Q976.991 246.683 980.351 243.348 Q983.711 240.013 988.256 240.013 Q992.11 240.013 994.63 243.15 L994.63 232.206 Q994.63 230.329 993.963 229.86 Q993.32 229.39 990.702 229.39 L990.702 227.809 L997.989 227.266 L997.989 257.972 Q997.989 259.85 998.632 260.344 Q999.299 260.813 1001.92 260.813 L1001.92 262.369 L994.481 262.937 L994.481 259.578 Q991.863 262.913 987.713 262.937 Q983.365 262.937 980.178 259.603 Q976.991 256.268 976.991 251.5 M981.191 251.549 Q981.191 256.243 982.649 258.565 Q984.674 261.801 987.96 261.801 Q991.715 261.801 993.938 258.269 Q994.506 257.404 994.481 256.391 L994.481 246.016 Q994.481 245.003 993.938 244.163 Q991.863 241.124 988.479 241.124 Q984.946 241.124 982.747 244.361 Q981.191 246.781 981.191 251.549 Z" fill="#000000" fill-rule="evenodd" fill-opacity="1" /><path clip-path="url(#clip750)" d="M1006.22 254.687 Q1006.26 254.069 1007.23 254.069 L1038.23 254.069 Q1039.69 254.069 1039.71 254.637 Q1039.71 255.255 1038.33 255.23 L1007.57 255.23 Q1006.22 255.255 1006.22 254.687 M1006.22 244.805 Q1006.22 244.188 1007.28 244.212 L1038.18 244.212 Q1039.69 244.212 1039.71 244.805 Q1039.71 245.373 1038.43 245.373 L1007.23 245.373 Q1006.22 245.373 1006.22 244.805 Z" fill="#000000" fill-rule="evenodd" fill-opacity="1" /><path clip-path="url(#clip750)" d="M1047.17 233.491 L1047.17 231.91 Q1053.25 231.91 1056.39 228.674 Q1057.25 228.674 1057.4 228.872 Q1057.55 229.069 1057.55 229.983 L1057.55 258.367 Q1057.55 259.874 1058.29 260.344 Q1059.03 260.813 1062.27 260.813 L1063.87 260.813 L1063.87 262.369 Q1062.09 262.221 1055.67 262.221 Q1049.25 262.221 1047.49 262.369 L1047.49 260.813 L1049.1 260.813 Q1052.29 260.813 1053.05 260.368 Q1053.82 259.899 1053.82 258.367 L1053.82 232.157 Q1051.18 233.491 1047.17 233.491 Z" fill="#000000" fill-rule="evenodd" fill-opacity="1" /><path clip-path="url(#clip750)" d="M1069.95 246.189 Q1069.95 238.753 1071.83 234.702 Q1074.45 228.674 1080.62 228.674 Q1081.93 228.674 1083.29 229.044 Q1084.67 229.39 1086.4 230.749 Q1088.16 232.108 1089.22 234.331 Q1091.24 238.629 1091.24 246.189 Q1091.24 253.575 1089.37 257.602 Q1086.62 263.481 1080.57 263.481 Q1078.3 263.481 1075.98 262.32 Q1073.68 261.159 1072.22 258.367 Q1069.95 254.192 1069.95 246.189 M1074.15 245.571 Q1074.15 253.204 1074.69 256.243 Q1075.31 259.528 1076.99 260.961 Q1078.7 262.369 1080.57 262.369 Q1082.6 262.369 1084.28 260.862 Q1085.98 259.331 1086.5 256.045 Q1087.07 252.809 1087.04 245.571 Q1087.04 238.531 1086.55 235.714 Q1085.88 232.429 1084.11 231.12 Q1082.35 229.786 1080.57 229.786 Q1079.91 229.786 1079.19 229.983 Q1078.5 230.181 1077.48 230.749 Q1076.47 231.317 1075.68 232.725 Q1074.92 234.133 1074.55 236.258 Q1074.15 239 1074.15 245.571 Z" fill="#000000" fill-rule="evenodd" fill-opacity="1" /><path clip-path="url(#clip750)" d="M1095.25 246.189 Q1095.25 238.753 1097.12 234.702 Q1099.74 228.674 1105.92 228.674 Q1107.23 228.674 1108.59 229.044 Q1109.97 229.39 1111.7 230.749 Q1113.45 232.108 1114.52 234.331 Q1116.54 238.629 1116.54 246.189 Q1116.54 253.575 1114.66 257.602 Q1111.92 263.481 1105.87 263.481 Q1103.6 263.481 1101.27 262.32 Q1098.98 261.159 1097.52 258.367 Q1095.25 254.192 1095.25 246.189 M1099.45 245.571 Q1099.45 253.204 1099.99 256.243 Q1100.61 259.528 1102.29 260.961 Q1103.99 262.369 1105.87 262.369 Q1107.89 262.369 1109.57 260.862 Q1111.28 259.331 1111.8 256.045 Q1112.37 252.809 1112.34 245.571 Q1112.34 238.531 1111.85 235.714 Q1111.18 232.429 1109.4 231.12 Q1107.65 229.786 1105.87 229.786 Q1105.2 229.786 1104.49 229.983 Q1103.79 230.181 1102.78 230.749 Q1101.77 231.317 1100.98 232.725 Q1100.21 234.133 1099.84 236.258 Q1099.45 239 1099.45 245.571 Z" fill="#000000" fill-rule="evenodd" fill-opacity="1" /><path clip-path="url(#clip750)" d="
M900.559 317.665 L966.073 317.665 L966.073 276.193 L900.559 276.193 L900.559 317.665  Z
  " fill="#9b59b6" fill-rule="evenodd" fill-opacity="1"/>
<polyline clip-path="url(#clip750)" style="stroke:#9b59b6; stroke-linecap:round; stroke-linejoin:round; stroke-width:4; stroke-opacity:1; fill:none" points="
  900.559,317.665 966.073,317.665 966.073,276.193 900.559,276.193 900.559,317.665 
  "/>
<path clip-path="url(#clip750)" d="M976.991 303.34 Q976.991 298.523 980.351 295.188 Q983.711 291.853 988.256 291.853 Q992.11 291.853 994.63 294.99 L994.63 284.046 Q994.63 282.169 993.963 281.7 Q993.32 281.23 990.702 281.23 L990.702 279.649 L997.989 279.106 L997.989 309.812 Q997.989 311.69 998.632 312.184 Q999.299 312.653 1001.92 312.653 L1001.92 314.209 L994.481 314.777 L994.481 311.418 Q991.863 314.753 987.713 314.777 Q983.365 314.777 980.178 311.443 Q976.991 308.108 976.991 303.34 M981.191 303.389 Q981.191 308.083 982.649 310.405 Q984.674 313.641 987.96 313.641 Q991.715 313.641 993.938 310.109 Q994.506 309.244 994.481 308.231 L994.481 297.856 Q994.481 296.843 993.938 296.003 Q991.863 292.964 988.479 292.964 Q984.946 292.964 982.747 296.201 Q981.191 298.621 981.191 303.389 Z" fill="#000000" fill-rule="evenodd" fill-opacity="1" /><path clip-path="url(#clip750)" d="M1006.22 306.527 Q1006.26 305.909 1007.23 305.909 L1038.23 305.909 Q1039.69 305.909 1039.71 306.477 Q1039.71 307.095 1038.33 307.07 L1007.57 307.07 Q1006.22 307.095 1006.22 306.527 M1006.22 296.645 Q1006.22 296.028 1007.28 296.052 L1038.18 296.052 Q1039.69 296.052 1039.71 296.645 Q1039.71 297.213 1038.43 297.213 L1007.23 297.213 Q1006.22 297.213 1006.22 296.645 Z" fill="#000000" fill-rule="evenodd" fill-opacity="1" /><path clip-path="url(#clip750)" d="M1047.17 285.331 L1047.17 283.75 Q1053.25 283.75 1056.39 280.514 Q1057.25 280.514 1057.4 280.712 Q1057.55 280.909 1057.55 281.823 L1057.55 310.207 Q1057.55 311.714 1058.29 312.184 Q1059.03 312.653 1062.27 312.653 L1063.87 312.653 L1063.87 314.209 Q1062.09 314.061 1055.67 314.061 Q1049.25 314.061 1047.49 314.209 L1047.49 312.653 L1049.1 312.653 Q1052.29 312.653 1053.05 312.208 Q1053.82 311.739 1053.82 310.207 L1053.82 283.997 Q1051.18 285.331 1047.17 285.331 Z" fill="#000000" fill-rule="evenodd" fill-opacity="1" /><path clip-path="url(#clip750)" d="M1069.95 298.029 Q1069.95 290.593 1071.83 286.542 Q1074.45 280.514 1080.62 280.514 Q1081.93 280.514 1083.29 280.884 Q1084.67 281.23 1086.4 282.589 Q1088.16 283.948 1089.22 286.171 Q1091.24 290.469 1091.24 298.029 Q1091.24 305.415 1089.37 309.442 Q1086.62 315.321 1080.57 315.321 Q1078.3 315.321 1075.98 314.16 Q1073.68 312.999 1072.22 310.207 Q1069.95 306.032 1069.95 298.029 M1074.15 297.411 Q1074.15 305.044 1074.69 308.083 Q1075.31 311.368 1076.99 312.801 Q1078.7 314.209 1080.57 314.209 Q1082.6 314.209 1084.28 312.702 Q1085.98 311.171 1086.5 307.885 Q1087.07 304.649 1087.04 297.411 Q1087.04 290.371 1086.55 287.554 Q1085.88 284.269 1084.11 282.96 Q1082.35 281.626 1080.57 281.626 Q1079.91 281.626 1079.19 281.823 Q1078.5 282.021 1077.48 282.589 Q1076.47 283.157 1075.68 284.565 Q1074.92 285.973 1074.55 288.098 Q1074.15 290.84 1074.15 297.411 Z" fill="#000000" fill-rule="evenodd" fill-opacity="1" /><path clip-path="url(#clip750)" d="M1095.25 298.029 Q1095.25 290.593 1097.12 286.542 Q1099.74 280.514 1105.92 280.514 Q1107.23 280.514 1108.59 280.884 Q1109.97 281.23 1111.7 282.589 Q1113.45 283.948 1114.52 286.171 Q1116.54 290.469 1116.54 298.029 Q1116.54 305.415 1114.66 309.442 Q1111.92 315.321 1105.87 315.321 Q1103.6 315.321 1101.27 314.16 Q1098.98 312.999 1097.52 310.207 Q1095.25 306.032 1095.25 298.029 M1099.45 297.411 Q1099.45 305.044 1099.99 308.083 Q1100.61 311.368 1102.29 312.801 Q1103.99 314.209 1105.87 314.209 Q1107.89 314.209 1109.57 312.702 Q1111.28 311.171 1111.8 307.885 Q1112.37 304.649 1112.34 297.411 Q1112.34 290.371 1111.85 287.554 Q1111.18 284.269 1109.4 282.96 Q1107.65 281.626 1105.87 281.626 Q1105.2 281.626 1104.49 281.823 Q1103.79 282.021 1102.78 282.589 Q1101.77 283.157 1100.98 284.565 Q1100.21 285.973 1099.84 288.098 Q1099.45 290.84 1099.45 297.411 Z" fill="#000000" fill-rule="evenodd" fill-opacity="1" /><path clip-path="url(#clip750)" d="M1120.54 298.029 Q1120.54 290.593 1122.42 286.542 Q1125.04 280.514 1131.21 280.514 Q1132.52 280.514 1133.88 280.884 Q1135.27 281.23 1137 282.589 Q1138.75 283.948 1139.81 286.171 Q1141.84 290.469 1141.84 298.029 Q1141.84 305.415 1139.96 309.442 Q1137.22 315.321 1131.17 315.321 Q1128.89 315.321 1126.57 314.16 Q1124.27 312.999 1122.82 310.207 Q1120.54 306.032 1120.54 298.029 M1124.74 297.411 Q1124.74 305.044 1125.29 308.083 Q1125.9 311.368 1127.58 312.801 Q1129.29 314.209 1131.17 314.209 Q1133.19 314.209 1134.87 312.702 Q1136.58 311.171 1137.09 307.885 Q1137.66 304.649 1137.64 297.411 Q1137.64 290.371 1137.14 287.554 Q1136.48 284.269 1134.7 282.96 Q1132.94 281.626 1131.17 281.626 Q1130.5 281.626 1129.78 281.823 Q1129.09 282.021 1128.08 282.589 Q1127.06 283.157 1126.27 284.565 Q1125.51 285.973 1125.14 288.098 Q1124.74 290.84 1124.74 297.411 Z" fill="#000000" fill-rule="evenodd" fill-opacity="1" /></svg>
