<?xml version="1.0" encoding="utf-8"?>
<svg xmlns="http://www.w3.org/2000/svg" xmlns:xlink="http://www.w3.org/1999/xlink" width="300" height="140" viewBox="0 0 1200 560">
<defs>
  <clipPath id="clip600">
    <rect x="0" y="0" width="1200" height="560"/>
  </clipPath>
</defs>
<path clip-path="url(#clip600)" d="
M0 560 L1200 560 L1200 0 L0 0  Z
  " fill="#ffffff" fill-rule="evenodd" fill-opacity="1"/>
<defs>
  <clipPath id="clip601">
    <rect x="240" y="0" width="841" height="560"/>
  </clipPath>
</defs>
<path clip-path="url(#clip600)" d="
M193.371 418.204 L859.992 418.204 L859.992 47.2441 L193.371 47.2441  Z
  " fill="#ffffff" fill-rule="evenodd" fill-opacity="1"/>
<defs>
  <clipPath id="clip602">
    <rect x="193" y="47" width="668" height="372"/>
  </clipPath>
</defs>
<polyline clip-path="url(#clip602)" style="stroke:#000000; stroke-linecap:round; stroke-linejoin:round; stroke-width:2; stroke-opacity:0.1; fill:none" points="
  290.613,418.204 290.613,47.2441 
  "/>
<polyline clip-path="url(#clip602)" style="stroke:#000000; stroke-linecap:round; stroke-linejoin:round; stroke-width:2; stroke-opacity:0.1; fill:none" points="
  447.992,418.204 447.992,47.2441 
  "/>
<polyline clip-path="url(#clip602)" style="stroke:#000000; stroke-linecap:round; stroke-linejoin:round; stroke-width:2; stroke-opacity:0.1; fill:none" points="
  605.371,418.204 605.371,47.2441 
  "/>
<polyline clip-path="url(#clip602)" style="stroke:#000000; stroke-linecap:round; stroke-linejoin:round; stroke-width:2; stroke-opacity:0.1; fill:none" points="
  762.751,418.204 762.751,47.2441 
  "/>
<polyline clip-path="url(#clip600)" style="stroke:#000000; stroke-linecap:round; stroke-linejoin:round; stroke-width:4; stroke-opacity:1; fill:none" points="
  193.371,418.204 859.992,418.204 
  "/>
<polyline clip-path="url(#clip600)" style="stroke:#000000; stroke-linecap:round; stroke-linejoin:round; stroke-width:4; stroke-opacity:1; fill:none" points="
  290.613,418.204 290.613,399.306 
  "/>
<polyline clip-path="url(#clip600)" style="stroke:#000000; stroke-linecap:round; stroke-linejoin:round; stroke-width:4; stroke-opacity:1; fill:none" points="
  447.992,418.204 447.992,399.306 
  "/>
<polyline clip-path="url(#clip600)" style="stroke:#000000; stroke-linecap:round; stroke-linejoin:round; stroke-width:4; stroke-opacity:1; fill:none" points="
  605.371,418.204 605.371,399.306 
  "/>
<polyline clip-path="url(#clip600)" style="stroke:#000000; stroke-linecap:round; stroke-linejoin:round; stroke-width:4; stroke-opacity:1; fill:none" points="
  762.751,418.204 762.751,399.306 
  "/>
<path clip-path="url(#clip600)" d="M253.941 442.126 L253.941 440.545 Q260.018 440.545 263.155 437.308 Q264.02 437.308 264.168 437.506 Q264.316 437.704 264.316 438.618 L264.316 467.002 Q264.316 468.509 265.057 468.978 Q265.798 469.448 269.034 469.448 L270.64 469.448 L270.64 471.004 Q268.861 470.856 262.439 470.856 Q256.016 470.856 254.262 471.004 L254.262 469.448 L255.867 469.448 Q259.054 469.448 259.82 469.003 Q260.586 468.534 260.586 467.002 L260.586 440.792 Q257.943 442.126 253.941 442.126 Z" fill="#000000" fill-rule="evenodd" fill-opacity="1" /><path clip-path="url(#clip600)" d="M277.261 462.852 Q277.261 461.345 278.076 460.777 Q278.891 460.184 279.756 460.184 Q280.917 460.184 281.584 460.925 Q282.275 461.641 282.275 462.654 Q282.275 463.667 281.584 464.408 Q280.917 465.124 279.756 465.124 Q279.187 465.124 278.891 465.026 Q279.558 467.348 281.584 469.028 Q283.634 470.707 286.327 470.707 Q289.711 470.707 291.737 467.422 Q292.947 465.297 292.947 460.48 Q292.947 456.231 292.033 454.107 Q290.625 450.871 287.735 450.871 Q283.634 450.871 281.213 454.403 Q280.917 454.848 280.571 454.873 Q280.077 454.873 279.953 454.601 Q279.854 454.304 279.854 453.539 L279.854 438.568 Q279.854 437.358 280.349 437.358 Q280.546 437.358 280.966 437.506 Q284.153 438.914 287.685 438.939 Q291.317 438.939 294.578 437.457 Q294.825 437.308 294.973 437.308 Q295.467 437.308 295.492 437.877 Q295.492 438.074 295.072 438.667 Q294.676 439.235 293.812 440.001 Q292.947 440.742 291.836 441.459 Q290.724 442.175 289.093 442.669 Q287.488 443.138 285.709 443.138 Q283.585 443.138 281.411 442.471 L281.411 452.328 Q284.029 449.759 287.834 449.759 Q291.885 449.759 294.676 453.02 Q297.468 456.281 297.468 460.826 Q297.468 465.594 294.158 468.855 Q290.872 472.115 286.426 472.115 Q282.374 472.115 279.805 469.225 Q277.261 466.335 277.261 462.852 Z" fill="#000000" fill-rule="evenodd" fill-opacity="1" /><path clip-path="url(#clip600)" d="M302.013 454.823 Q302.013 447.387 303.891 443.336 Q306.509 437.308 312.685 437.308 Q313.994 437.308 315.353 437.679 Q316.737 438.025 318.466 439.384 Q320.22 440.742 321.282 442.966 Q323.308 447.264 323.308 454.823 Q323.308 462.209 321.43 466.236 Q318.688 472.115 312.636 472.115 Q310.363 472.115 308.041 470.954 Q305.744 469.793 304.286 467.002 Q302.013 462.827 302.013 454.823 M306.213 454.206 Q306.213 461.839 306.756 464.877 Q307.374 468.163 309.054 469.596 Q310.758 471.004 312.636 471.004 Q314.661 471.004 316.341 469.497 Q318.046 467.965 318.565 464.68 Q319.133 461.444 319.108 454.206 Q319.108 447.165 318.614 444.349 Q317.947 441.063 316.168 439.754 Q314.414 438.42 312.636 438.42 Q311.969 438.42 311.252 438.618 Q310.561 438.815 309.548 439.384 Q308.535 439.952 307.745 441.36 Q306.979 442.768 306.608 444.892 Q306.213 447.634 306.213 454.206 Z" fill="#000000" fill-rule="evenodd" fill-opacity="1" /><path clip-path="url(#clip600)" d="M327.31 454.823 Q327.31 447.387 329.187 443.336 Q331.806 437.308 337.981 437.308 Q339.291 437.308 340.649 437.679 Q342.033 438.025 343.762 439.384 Q345.516 440.742 346.578 442.966 Q348.604 447.264 348.604 454.823 Q348.604 462.209 346.726 466.236 Q343.984 472.115 337.932 472.115 Q335.659 472.115 333.337 470.954 Q331.04 469.793 329.582 467.002 Q327.31 462.827 327.31 454.823 M331.509 454.206 Q331.509 461.839 332.053 464.877 Q332.67 468.163 334.35 469.596 Q336.055 471.004 337.932 471.004 Q339.958 471.004 341.638 469.497 Q343.342 467.965 343.861 464.68 Q344.429 461.444 344.404 454.206 Q344.404 447.165 343.91 444.349 Q343.243 441.063 341.465 439.754 Q339.711 438.42 337.932 438.42 Q337.265 438.42 336.549 438.618 Q335.857 438.815 334.844 439.384 Q333.831 439.952 333.041 441.36 Q332.275 442.768 331.904 444.892 Q331.509 447.634 331.509 454.206 Z" fill="#000000" fill-rule="evenodd" fill-opacity="1" /><path clip-path="url(#clip600)" d="M408.948 464.186 Q408.948 462.679 409.813 461.962 Q410.678 461.246 411.789 461.246 Q412.95 461.246 413.766 462.012 Q414.606 462.753 414.606 464.062 Q414.606 465.47 413.617 466.261 Q412.654 467.051 411.271 466.854 Q412.481 468.879 414.704 469.793 Q416.952 470.707 419.027 470.707 Q421.201 470.707 422.955 468.83 Q424.734 466.952 424.734 462.358 Q424.734 458.455 423.202 456.207 Q421.695 453.959 418.706 453.959 L416.483 453.959 Q415.717 453.959 415.495 453.884 Q415.273 453.81 415.273 453.39 Q415.273 452.896 416.038 452.797 Q416.804 452.797 418.015 452.649 Q420.954 452.55 422.511 450.006 Q423.919 447.634 423.919 444.25 Q423.919 441.162 422.436 439.878 Q420.979 438.568 419.077 438.568 Q417.298 438.568 415.347 439.309 Q413.395 440.051 412.333 441.706 Q415.47 441.706 415.47 444.25 Q415.47 445.362 414.754 446.103 Q414.062 446.819 412.901 446.819 Q411.789 446.819 411.048 446.128 Q410.307 445.411 410.307 444.201 Q410.307 441.31 412.876 439.309 Q415.47 437.308 419.274 437.308 Q423.029 437.308 425.796 439.285 Q428.588 441.261 428.588 444.3 Q428.588 447.289 426.611 449.734 Q424.635 452.18 421.498 453.193 Q425.351 453.959 427.649 456.577 Q429.946 459.171 429.946 462.358 Q429.946 466.31 426.834 469.225 Q423.721 472.115 419.176 472.115 Q414.976 472.115 411.962 469.843 Q408.948 467.57 408.948 464.186 Z" fill="#000000" fill-rule="evenodd" fill-opacity="1" /><path clip-path="url(#clip600)" d="M434.096 454.823 Q434.096 447.387 435.974 443.336 Q438.592 437.308 444.768 437.308 Q446.078 437.308 447.436 437.679 Q448.82 438.025 450.549 439.384 Q452.303 440.742 453.365 442.966 Q455.391 447.264 455.391 454.823 Q455.391 462.209 453.513 466.236 Q450.771 472.115 444.719 472.115 Q442.446 472.115 440.124 470.954 Q437.827 469.793 436.369 467.002 Q434.096 462.827 434.096 454.823 M438.296 454.206 Q438.296 461.839 438.84 464.877 Q439.457 468.163 441.137 469.596 Q442.841 471.004 444.719 471.004 Q446.745 471.004 448.424 469.497 Q450.129 467.965 450.648 464.68 Q451.216 461.444 451.191 454.206 Q451.191 447.165 450.697 444.349 Q450.03 441.063 448.252 439.754 Q446.498 438.42 444.719 438.42 Q444.052 438.42 443.336 438.618 Q442.644 438.815 441.631 439.384 Q440.618 439.952 439.828 441.36 Q439.062 442.768 438.691 444.892 Q438.296 447.634 438.296 454.206 Z" fill="#000000" fill-rule="evenodd" fill-opacity="1" /><path clip-path="url(#clip600)" d="M459.393 454.823 Q459.393 447.387 461.27 443.336 Q463.889 437.308 470.065 437.308 Q471.374 437.308 472.733 437.679 Q474.116 438.025 475.845 439.384 Q477.599 440.742 478.661 442.966 Q480.687 447.264 480.687 454.823 Q480.687 462.209 478.81 466.236 Q476.067 472.115 470.015 472.115 Q467.742 472.115 465.42 470.954 Q463.123 469.793 461.665 467.002 Q459.393 462.827 459.393 454.823 M463.592 454.206 Q463.592 461.839 464.136 464.877 Q464.753 468.163 466.433 469.596 Q468.138 471.004 470.015 471.004 Q472.041 471.004 473.721 469.497 Q475.425 467.965 475.944 464.68 Q476.512 461.444 476.487 454.206 Q476.487 447.165 475.993 444.349 Q475.326 441.063 473.548 439.754 Q471.794 438.42 470.015 438.42 Q469.348 438.42 468.632 438.618 Q467.94 438.815 466.927 439.384 Q465.914 439.952 465.124 441.36 Q464.358 442.768 463.988 444.892 Q463.592 447.634 463.592 454.206 Z" fill="#000000" fill-rule="evenodd" fill-opacity="1" /><path clip-path="url(#clip600)" d="M484.689 454.823 Q484.689 447.387 486.566 443.336 Q489.185 437.308 495.361 437.308 Q496.67 437.308 498.029 437.679 Q499.412 438.025 501.141 439.384 Q502.895 440.742 503.958 442.966 Q505.983 447.264 505.983 454.823 Q505.983 462.209 504.106 466.236 Q501.364 472.115 495.311 472.115 Q493.039 472.115 490.717 470.954 Q488.419 469.793 486.962 467.002 Q484.689 462.827 484.689 454.823 M488.889 454.206 Q488.889 461.839 489.432 464.877 Q490.05 468.163 491.729 469.596 Q493.434 471.004 495.311 471.004 Q497.337 471.004 499.017 469.497 Q500.721 467.965 501.24 464.68 Q501.808 461.444 501.784 454.206 Q501.784 447.165 501.29 444.349 Q500.623 441.063 498.844 439.754 Q497.09 438.42 495.311 438.42 Q494.644 438.42 493.928 438.618 Q493.236 438.815 492.223 439.384 Q491.211 439.952 490.42 441.36 Q489.654 442.768 489.284 444.892 Q488.889 447.634 488.889 454.206 Z" fill="#000000" fill-rule="evenodd" fill-opacity="1" /><path clip-path="url(#clip600)" d="M566.328 455.021 Q566.328 447.066 570.379 442.2 Q574.431 437.308 579.643 437.308 Q582.681 437.308 584.361 438.865 Q586.066 440.396 586.066 442.768 Q586.066 444.077 585.3 444.645 Q584.534 445.214 583.744 445.214 Q582.83 445.214 582.113 444.596 Q581.397 443.978 581.397 442.867 Q581.397 440.594 584.188 440.594 Q582.879 438.568 579.742 438.568 Q578.778 438.568 577.79 438.865 Q576.802 439.137 575.517 440.075 Q574.233 441.014 573.245 442.496 Q572.257 443.978 571.565 446.77 Q570.873 449.561 570.873 453.193 L570.873 454.403 Q572.948 449.388 577.197 449.413 Q581.446 449.413 584.386 452.649 Q587.326 455.885 587.326 460.678 Q587.326 465.594 584.262 468.855 Q581.199 472.115 576.901 472.115 Q574.974 472.115 573.22 471.3 Q571.491 470.51 569.86 468.682 Q568.255 466.854 567.291 463.346 Q566.328 459.838 566.328 455.021 M570.972 459.566 Q570.972 464.532 571.886 466.903 Q572.034 467.298 572.355 467.842 Q572.701 468.385 573.269 469.102 Q573.862 469.793 574.826 470.263 Q575.789 470.707 576.901 470.707 Q580.285 470.707 581.916 467.422 Q582.78 465.594 582.78 460.628 Q582.78 455.564 581.866 453.711 Q580.31 450.574 577.148 450.574 Q575.023 450.574 573.541 452.032 Q572.084 453.489 571.516 455.441 Q570.972 457.392 570.972 459.566 Z" fill="#000000" fill-rule="evenodd" fill-opacity="1" /><path clip-path="url(#clip600)" d="M591.476 454.823 Q591.476 447.387 593.353 443.336 Q595.972 437.308 602.148 437.308 Q603.457 437.308 604.816 437.679 Q606.199 438.025 607.928 439.384 Q609.682 440.742 610.744 442.966 Q612.77 447.264 612.77 454.823 Q612.77 462.209 610.893 466.236 Q608.151 472.115 602.098 472.115 Q599.826 472.115 597.503 470.954 Q595.206 469.793 593.749 467.002 Q591.476 462.827 591.476 454.823 M595.675 454.206 Q595.675 461.839 596.219 464.877 Q596.836 468.163 598.516 469.596 Q600.221 471.004 602.098 471.004 Q604.124 471.004 605.804 469.497 Q607.508 467.965 608.027 464.68 Q608.595 461.444 608.571 454.206 Q608.571 447.165 608.077 444.349 Q607.41 441.063 605.631 439.754 Q603.877 438.42 602.098 438.42 Q601.431 438.42 600.715 438.618 Q600.023 438.815 599.01 439.384 Q597.998 439.952 597.207 441.36 Q596.441 442.768 596.071 444.892 Q595.675 447.634 595.675 454.206 Z" fill="#000000" fill-rule="evenodd" fill-opacity="1" /><path clip-path="url(#clip600)" d="M616.772 454.823 Q616.772 447.387 618.65 443.336 Q621.268 437.308 627.444 437.308 Q628.753 437.308 630.112 437.679 Q631.495 438.025 633.225 439.384 Q634.978 440.742 636.041 442.966 Q638.066 447.264 638.066 454.823 Q638.066 462.209 636.189 466.236 Q633.447 472.115 627.395 472.115 Q625.122 472.115 622.8 470.954 Q620.502 469.793 619.045 467.002 Q616.772 462.827 616.772 454.823 M620.972 454.206 Q620.972 461.839 621.515 464.877 Q622.133 468.163 623.813 469.596 Q625.517 471.004 627.395 471.004 Q629.42 471.004 631.1 469.497 Q632.805 467.965 633.323 464.68 Q633.892 461.444 633.867 454.206 Q633.867 447.165 633.373 444.349 Q632.706 441.063 630.927 439.754 Q629.173 438.42 627.395 438.42 Q626.728 438.42 626.011 438.618 Q625.319 438.815 624.307 439.384 Q623.294 439.952 622.503 441.36 Q621.737 442.768 621.367 444.892 Q620.972 447.634 620.972 454.206 Z" fill="#000000" fill-rule="evenodd" fill-opacity="1" /><path clip-path="url(#clip600)" d="M642.068 454.823 Q642.068 447.387 643.946 443.336 Q646.564 437.308 652.74 437.308 Q654.049 437.308 655.408 437.679 Q656.792 438.025 658.521 439.384 Q660.275 440.742 661.337 442.966 Q663.363 447.264 663.363 454.823 Q663.363 462.209 661.485 466.236 Q658.743 472.115 652.691 472.115 Q650.418 472.115 648.096 470.954 Q645.799 469.793 644.341 467.002 Q642.068 462.827 642.068 454.823 M646.268 454.206 Q646.268 461.839 646.811 464.877 Q647.429 468.163 649.109 469.596 Q650.813 471.004 652.691 471.004 Q654.716 471.004 656.396 469.497 Q658.101 467.965 658.62 464.68 Q659.188 461.444 659.163 454.206 Q659.163 447.165 658.669 444.349 Q658.002 441.063 656.223 439.754 Q654.469 438.42 652.691 438.42 Q652.024 438.42 651.307 438.618 Q650.616 438.815 649.603 439.384 Q648.59 439.952 647.8 441.36 Q647.034 442.768 646.663 444.892 Q646.268 447.634 646.268 454.206 Z" fill="#000000" fill-rule="evenodd" fill-opacity="1" /><path clip-path="url(#clip600)" d="M702.771 442.126 L702.771 440.545 Q708.848 440.545 711.985 437.308 Q712.85 437.308 712.998 437.506 Q713.147 437.704 713.147 438.618 L713.147 467.002 Q713.147 468.509 713.888 468.978 Q714.629 469.448 717.865 469.448 L719.471 469.448 L719.471 471.004 Q717.692 470.856 711.269 470.856 Q704.846 470.856 703.092 471.004 L703.092 469.448 L704.698 469.448 Q707.885 469.448 708.651 469.003 Q709.416 468.534 709.416 467.002 L709.416 440.792 Q706.773 442.126 702.771 442.126 Z" fill="#000000" fill-rule="evenodd" fill-opacity="1" /><path clip-path="url(#clip600)" d="M726.091 471.004 Q726.091 470.09 726.165 469.818 Q726.264 469.546 726.659 469.126 L736.368 458.306 Q741.679 452.328 741.679 447.116 Q741.679 443.731 739.9 441.31 Q738.146 438.889 734.91 438.889 Q732.687 438.889 730.809 440.248 Q728.932 441.607 728.067 444.028 Q728.216 443.978 728.734 443.978 Q729.994 443.978 730.686 444.769 Q731.402 445.559 731.402 446.622 Q731.402 447.98 730.513 448.647 Q729.648 449.29 728.784 449.29 Q728.438 449.29 727.969 449.215 Q727.524 449.141 726.807 448.45 Q726.091 447.733 726.091 446.473 Q726.091 442.941 728.759 440.125 Q731.452 437.308 735.552 437.308 Q740.197 437.308 743.235 440.075 Q746.298 442.817 746.298 447.116 Q746.298 448.623 745.829 450.006 Q745.384 451.365 744.767 452.427 Q744.174 453.489 742.544 455.194 Q740.913 456.898 739.604 458.109 Q738.295 459.319 735.355 461.888 L729.994 467.101 L739.11 467.101 Q743.556 467.101 743.902 466.705 Q744.396 465.989 745.014 462.209 L746.298 462.209 L744.866 471.004 L726.091 471.004 Z" fill="#000000" fill-rule="evenodd" fill-opacity="1" /><path clip-path="url(#clip600)" d="M750.844 454.823 Q750.844 447.387 752.721 443.336 Q755.34 437.308 761.516 437.308 Q762.825 437.308 764.184 437.679 Q765.567 438.025 767.296 439.384 Q769.05 440.742 770.112 442.966 Q772.138 447.264 772.138 454.823 Q772.138 462.209 770.261 466.236 Q767.519 472.115 761.466 472.115 Q759.194 472.115 756.871 470.954 Q754.574 469.793 753.117 467.002 Q750.844 462.827 750.844 454.823 M755.043 454.206 Q755.043 461.839 755.587 464.877 Q756.204 468.163 757.884 469.596 Q759.589 471.004 761.466 471.004 Q763.492 471.004 765.172 469.497 Q766.876 467.965 767.395 464.68 Q767.963 461.444 767.939 454.206 Q767.939 447.165 767.444 444.349 Q766.778 441.063 764.999 439.754 Q763.245 438.42 761.466 438.42 Q760.799 438.42 760.083 438.618 Q759.391 438.815 758.378 439.384 Q757.366 439.952 756.575 441.36 Q755.809 442.768 755.439 444.892 Q755.043 447.634 755.043 454.206 Z" fill="#000000" fill-rule="evenodd" fill-opacity="1" /><path clip-path="url(#clip600)" d="M776.14 454.823 Q776.14 447.387 778.018 443.336 Q780.636 437.308 786.812 437.308 Q788.121 437.308 789.48 437.679 Q790.863 438.025 792.593 439.384 Q794.346 440.742 795.409 442.966 Q797.434 447.264 797.434 454.823 Q797.434 462.209 795.557 466.236 Q792.815 472.115 786.763 472.115 Q784.49 472.115 782.168 470.954 Q779.87 469.793 778.413 467.002 Q776.14 462.827 776.14 454.823 M780.34 454.206 Q780.34 461.839 780.883 464.877 Q781.501 468.163 783.181 469.596 Q784.885 471.004 786.763 471.004 Q788.788 471.004 790.468 469.497 Q792.173 467.965 792.691 464.68 Q793.26 461.444 793.235 454.206 Q793.235 447.165 792.741 444.349 Q792.074 441.063 790.295 439.754 Q788.541 438.42 786.763 438.42 Q786.096 438.42 785.379 438.618 Q784.687 438.815 783.675 439.384 Q782.662 439.952 781.871 441.36 Q781.105 442.768 780.735 444.892 Q780.34 447.634 780.34 454.206 Z" fill="#000000" fill-rule="evenodd" fill-opacity="1" /><path clip-path="url(#clip600)" d="M801.436 454.823 Q801.436 447.387 803.314 443.336 Q805.932 437.308 812.108 437.308 Q813.417 437.308 814.776 437.679 Q816.16 438.025 817.889 439.384 Q819.643 440.742 820.705 442.966 Q822.731 447.264 822.731 454.823 Q822.731 462.209 820.853 466.236 Q818.111 472.115 812.059 472.115 Q809.786 472.115 807.464 470.954 Q805.167 469.793 803.709 467.002 Q801.436 462.827 801.436 454.823 M805.636 454.206 Q805.636 461.839 806.179 464.877 Q806.797 468.163 808.477 469.596 Q810.181 471.004 812.059 471.004 Q814.084 471.004 815.764 469.497 Q817.469 467.965 817.988 464.68 Q818.556 461.444 818.531 454.206 Q818.531 447.165 818.037 444.349 Q817.37 441.063 815.591 439.754 Q813.837 438.42 812.059 438.42 Q811.392 438.42 810.675 438.618 Q809.984 438.815 808.971 439.384 Q807.958 439.952 807.168 441.36 Q806.402 442.768 806.031 444.892 Q805.636 447.634 805.636 454.206 Z" fill="#000000" fill-rule="evenodd" fill-opacity="1" /><path clip-path="url(#clip600)" d="M395.976 545.068 L395.976 542.928 L397.641 542.928 Q401.411 542.928 402.26 542.317 Q403.143 541.671 403.143 539.633 L403.143 503.186 Q403.143 501.182 402.26 500.571 Q401.377 499.926 397.641 499.926 L395.976 499.926 L395.976 497.752 L435.14 497.752 L437.077 513.41 L435.344 513.41 Q434.869 509.436 434.223 507.161 Q433.612 504.851 432.083 503.084 Q430.589 501.318 428.109 500.639 Q425.664 499.926 421.689 499.926 L412.722 499.926 Q410.344 499.926 409.835 500.435 Q409.325 500.911 409.325 502.711 L409.325 519.389 L415.575 519.389 Q420.365 519.389 421.723 517.724 Q423.082 516.06 423.082 511.271 L424.848 511.271 L424.848 529.681 L423.082 529.681 Q423.082 524.959 421.723 523.261 Q420.365 521.563 415.575 521.563 L409.325 521.563 L409.325 540.143 Q409.325 541.943 409.835 542.452 Q410.378 542.928 412.722 542.928 L421.995 542.928 Q424.984 542.928 427.158 542.554 Q429.366 542.147 430.895 541.196 Q432.423 540.211 433.442 539.09 Q434.495 537.969 435.208 535.965 Q435.956 533.927 436.363 532.058 Q436.805 530.19 437.28 527.133 L439.013 527.133 L436.092 545.068 L395.976 545.068 Z" fill="#000000" fill-rule="evenodd" fill-opacity="1" /><path clip-path="url(#clip600)" d="M442.885 556.413 Q446.587 556.413 447.437 555.937 Q448.32 555.496 448.32 553.288 L448.32 520.713 Q448.32 518.404 447.437 517.826 Q446.587 517.249 442.885 517.249 L442.885 515.075 L452.905 514.328 L452.905 518.913 Q457.083 514.328 462.654 514.328 Q468.564 514.328 472.878 518.913 Q477.192 523.499 477.192 530.054 Q477.192 536.678 472.606 541.264 Q468.021 545.849 461.669 545.849 Q458.204 545.849 455.86 544.083 Q453.551 542.283 453.109 540.958 L453.109 541.603 L453.109 553.288 Q453.109 555.53 453.992 555.971 Q454.875 556.413 458.544 556.413 L458.544 558.553 Q451.241 558.349 450.697 558.349 Q450.018 558.349 442.885 558.553 L442.885 556.413 M453.109 537.154 Q453.109 538.206 453.245 538.58 Q453.415 538.954 454.094 540.075 Q456.845 544.287 461.329 544.287 Q461.363 544.287 461.397 544.287 Q465.371 544.287 468.394 540.245 Q471.417 536.168 471.417 530.054 Q471.417 524.212 468.666 520.136 Q465.915 516.06 462.11 516.06 Q459.393 516.06 457.015 517.521 Q454.638 518.981 453.109 521.631 L453.109 537.154 Z" fill="#000000" fill-rule="evenodd" fill-opacity="1" /><path clip-path="url(#clip600)" d="M481.845 545.068 L481.845 542.928 Q485.548 542.928 486.397 542.486 Q487.246 542.011 487.246 539.769 L487.246 521.053 Q487.246 518.472 486.363 517.86 Q485.514 517.249 482.117 517.249 L482.117 515.075 L491.832 514.328 L491.832 539.837 Q491.832 541.909 492.579 542.418 Q493.326 542.928 496.723 542.928 L496.723 545.068 Q489.624 544.864 489.488 544.864 Q488.537 544.864 481.845 545.068 M484.766 502.201 Q484.766 500.809 485.819 499.688 Q486.906 498.533 488.435 498.533 Q489.963 498.533 491.05 499.586 Q492.137 500.605 492.137 502.235 Q492.137 503.832 491.05 504.885 Q489.963 505.904 488.435 505.904 Q486.838 505.904 485.785 504.783 Q484.766 503.662 484.766 502.201 Z" fill="#000000" fill-rule="evenodd" fill-opacity="1" /><path clip-path="url(#clip600)" d="M501.105 544.151 L501.105 534.98 Q501.105 534.198 501.139 533.927 Q501.173 533.655 501.376 533.451 Q501.58 533.247 501.988 533.247 Q502.463 533.247 502.633 533.451 Q502.837 533.655 502.973 534.436 Q504.026 539.225 506.268 541.773 Q508.543 544.287 512.653 544.287 Q516.56 544.287 518.53 542.554 Q520.5 540.822 520.5 537.969 Q520.5 532.874 513.265 531.583 Q509.087 530.734 507.355 530.19 Q505.622 529.613 504.094 528.356 Q501.105 525.91 501.105 522.446 Q501.105 518.981 503.72 516.434 Q506.369 513.886 512.212 513.886 Q516.118 513.886 518.767 515.856 Q519.549 515.245 519.956 514.735 Q520.873 513.886 521.349 513.886 Q521.892 513.886 521.994 514.26 Q522.096 514.599 522.096 515.584 L522.096 522.582 Q522.096 523.363 522.062 523.635 Q522.028 523.906 521.825 524.11 Q521.621 524.28 521.179 524.28 Q520.398 524.28 520.364 523.635 Q519.82 515.211 512.212 515.211 Q508.102 515.211 506.268 516.807 Q504.433 518.37 504.433 520.51 Q504.433 521.698 504.977 522.616 Q505.554 523.499 506.268 524.042 Q507.015 524.552 508.374 525.061 Q509.732 525.537 510.547 525.707 Q511.397 525.876 512.993 526.216 Q518.564 527.269 520.907 529.545 Q523.829 532.466 523.829 536.168 Q523.829 540.278 521.043 543.064 Q518.258 545.849 512.653 545.849 Q508.136 545.849 504.977 542.826 Q504.569 543.234 504.264 543.607 Q503.958 543.947 503.822 544.083 Q503.72 544.219 503.686 544.321 Q503.652 544.389 503.584 544.456 Q502.192 545.849 501.852 545.849 Q501.308 545.849 501.206 545.475 Q501.105 545.136 501.105 544.151 Z" fill="#000000" fill-rule="evenodd" fill-opacity="1" /><path clip-path="url(#clip600)" d="M532.694 541.331 Q528.108 536.78 528.108 530.19 Q528.108 523.567 532.592 518.743 Q537.11 513.886 543.563 513.886 Q549.881 513.886 554.399 518.709 Q558.951 523.499 558.951 530.19 Q558.951 536.746 554.365 541.297 Q549.813 545.849 543.496 545.849 Q537.314 545.849 532.694 541.331 M533.883 529.613 Q533.883 536.372 535.649 539.429 Q538.366 544.083 543.563 544.083 Q546.145 544.083 548.285 542.69 Q550.459 541.297 551.648 538.954 Q553.176 535.897 553.176 529.613 Q553.176 522.921 551.342 519.966 Q548.625 515.449 543.496 515.449 Q541.254 515.449 539.046 516.637 Q536.872 517.792 535.547 520.102 Q533.883 523.159 533.883 529.613 Z" fill="#000000" fill-rule="evenodd" fill-opacity="1" /><path clip-path="url(#clip600)" d="M565.268 530.122 Q565.268 523.499 569.888 518.913 Q574.508 514.328 580.757 514.328 Q586.056 514.328 589.521 518.641 L589.521 503.594 Q589.521 501.012 588.604 500.367 Q587.721 499.722 584.12 499.722 L584.12 497.548 L594.141 496.801 L594.141 539.022 Q594.141 541.603 595.024 542.283 Q595.941 542.928 599.541 542.928 L599.541 545.068 L589.317 545.849 L589.317 541.23 Q585.717 545.815 580.01 545.849 Q574.032 545.849 569.65 541.264 Q565.268 536.678 565.268 530.122 M571.043 530.19 Q571.043 536.644 573.047 539.837 Q575.832 544.287 580.35 544.287 Q585.513 544.287 588.57 539.429 Q589.351 538.24 589.317 536.848 L589.317 522.582 Q589.317 521.189 588.57 520.034 Q585.717 515.856 581.063 515.856 Q576.206 515.856 573.183 520.306 Q571.043 523.635 571.043 530.19 Z" fill="#000000" fill-rule="evenodd" fill-opacity="1" /><path clip-path="url(#clip600)" d="M603.414 529.749 Q603.414 523.193 607.625 518.54 Q611.837 513.886 617.884 513.886 Q623.998 513.886 627.157 517.86 Q630.349 521.834 630.349 527.541 Q630.349 528.594 630.078 528.798 Q629.806 529.001 628.617 529.001 L609.188 529.001 Q609.188 536.101 611.294 539.429 Q614.215 544.083 619.14 544.083 Q619.82 544.083 620.635 543.947 Q621.45 543.811 623.114 543.234 Q624.779 542.622 626.239 541.026 Q627.7 539.429 628.549 536.916 Q628.753 535.931 629.432 535.965 Q630.349 535.965 630.349 536.78 Q630.349 537.391 629.67 538.784 Q629.025 540.143 627.768 541.773 Q626.511 543.403 624.066 544.626 Q621.654 545.849 618.733 545.849 Q612.619 545.849 607.999 541.23 Q603.414 536.576 603.414 529.749 M609.256 527.541 L625.764 527.541 Q625.764 526.08 625.492 524.45 Q625.254 522.819 624.507 520.578 Q623.794 518.302 622.095 516.875 Q620.397 515.449 617.884 515.449 Q616.763 515.449 615.54 515.924 Q614.351 516.4 612.89 517.554 Q611.43 518.709 610.411 521.325 Q609.392 523.94 609.256 527.541 Z" fill="#000000" fill-rule="evenodd" fill-opacity="1" /><path clip-path="url(#clip600)" d="M634.663 544.151 L634.663 534.98 Q634.663 534.198 634.697 533.927 Q634.731 533.655 634.935 533.451 Q635.139 533.247 635.546 533.247 Q636.022 533.247 636.192 533.451 Q636.396 533.655 636.531 534.436 Q637.584 539.225 639.826 541.773 Q642.102 544.287 646.212 544.287 Q650.118 544.287 652.088 542.554 Q654.059 540.822 654.059 537.969 Q654.059 532.874 646.824 531.583 Q642.646 530.734 640.913 530.19 Q639.181 529.613 637.652 528.356 Q634.663 525.91 634.663 522.446 Q634.663 518.981 637.279 516.434 Q639.928 513.886 645.771 513.886 Q649.677 513.886 652.326 515.856 Q653.107 515.245 653.515 514.735 Q654.432 513.886 654.908 513.886 Q655.451 513.886 655.553 514.26 Q655.655 514.599 655.655 515.584 L655.655 522.582 Q655.655 523.363 655.621 523.635 Q655.587 523.906 655.383 524.11 Q655.179 524.28 654.738 524.28 Q653.957 524.28 653.923 523.635 Q653.379 515.211 645.771 515.211 Q641.661 515.211 639.826 516.807 Q637.992 518.37 637.992 520.51 Q637.992 521.698 638.536 522.616 Q639.113 523.499 639.826 524.042 Q640.574 524.552 641.932 525.061 Q643.291 525.537 644.106 525.707 Q644.955 525.876 646.552 526.216 Q652.122 527.269 654.466 529.545 Q657.387 532.466 657.387 536.168 Q657.387 540.278 654.602 543.064 Q651.817 545.849 646.212 545.849 Q641.694 545.849 638.536 542.826 Q638.128 543.234 637.822 543.607 Q637.517 543.947 637.381 544.083 Q637.279 544.219 637.245 544.321 Q637.211 544.389 637.143 544.456 Q635.75 545.849 635.411 545.849 Q634.867 545.849 634.765 545.475 Q634.663 545.136 634.663 544.151 Z" fill="#000000" fill-rule="evenodd" fill-opacity="1" /><polyline clip-path="url(#clip602)" style="stroke:#000000; stroke-linecap:round; stroke-linejoin:round; stroke-width:2; stroke-opacity:0.1; fill:none" points="
  193.371,407.705 859.992,407.705 
  "/>
<polyline clip-path="url(#clip602)" style="stroke:#000000; stroke-linecap:round; stroke-linejoin:round; stroke-width:2; stroke-opacity:0.1; fill:none" points="
  193.371,320.214 859.992,320.214 
  "/>
<polyline clip-path="url(#clip602)" style="stroke:#000000; stroke-linecap:round; stroke-linejoin:round; stroke-width:2; stroke-opacity:0.1; fill:none" points="
  193.371,232.724 859.992,232.724 
  "/>
<polyline clip-path="url(#clip602)" style="stroke:#000000; stroke-linecap:round; stroke-linejoin:round; stroke-width:2; stroke-opacity:0.1; fill:none" points="
  193.371,145.233 859.992,145.233 
  "/>
<polyline clip-path="url(#clip602)" style="stroke:#000000; stroke-linecap:round; stroke-linejoin:round; stroke-width:2; stroke-opacity:0.1; fill:none" points="
  193.371,57.743 859.992,57.743 
  "/>
<polyline clip-path="url(#clip600)" style="stroke:#000000; stroke-linecap:round; stroke-linejoin:round; stroke-width:4; stroke-opacity:1; fill:none" points="
  193.371,418.204 193.371,47.2441 
  "/>
<polyline clip-path="url(#clip600)" style="stroke:#000000; stroke-linecap:round; stroke-linejoin:round; stroke-width:4; stroke-opacity:1; fill:none" points="
  193.371,407.705 206.502,407.705 
  "/>
<polyline clip-path="url(#clip600)" style="stroke:#000000; stroke-linecap:round; stroke-linejoin:round; stroke-width:4; stroke-opacity:1; fill:none" points="
  193.371,320.214 206.502,320.214 
  "/>
<polyline clip-path="url(#clip600)" style="stroke:#000000; stroke-linecap:round; stroke-linejoin:round; stroke-width:4; stroke-opacity:1; fill:none" points="
  193.371,232.724 206.502,232.724 
  "/>
<polyline clip-path="url(#clip600)" style="stroke:#000000; stroke-linecap:round; stroke-linejoin:round; stroke-width:4; stroke-opacity:1; fill:none" points="
  193.371,145.233 206.502,145.233 
  "/>
<polyline clip-path="url(#clip600)" style="stroke:#000000; stroke-linecap:round; stroke-linejoin:round; stroke-width:4; stroke-opacity:1; fill:none" points="
  193.371,57.743 206.502,57.743 
  "/>
<path clip-path="url(#clip600)" d="M154.077 408.804 Q154.077 401.369 155.954 397.317 Q158.573 391.29 164.749 391.29 Q166.058 391.29 167.417 391.66 Q168.8 392.006 170.529 393.365 Q172.283 394.723 173.346 396.947 Q175.371 401.245 175.371 408.804 Q175.371 416.191 173.494 420.217 Q170.752 426.097 164.699 426.097 Q162.427 426.097 160.105 424.936 Q157.807 423.775 156.35 420.983 Q154.077 416.808 154.077 408.804 M158.276 408.187 Q158.276 415.82 158.82 418.859 Q159.438 422.144 161.117 423.577 Q162.822 424.985 164.699 424.985 Q166.725 424.985 168.405 423.478 Q170.109 421.946 170.628 418.661 Q171.196 415.425 171.172 408.187 Q171.172 401.146 170.678 398.33 Q170.011 395.045 168.232 393.735 Q166.478 392.401 164.699 392.401 Q164.032 392.401 163.316 392.599 Q162.624 392.797 161.611 393.365 Q160.599 393.933 159.808 395.341 Q159.042 396.749 158.672 398.874 Q158.276 401.616 158.276 408.187 Z" fill="#000000" fill-rule="evenodd" fill-opacity="1" /><path clip-path="url(#clip600)" d="M129.868 337.494 Q129.868 336.58 129.942 336.309 Q130.041 336.037 130.436 335.617 L140.144 324.797 Q145.455 318.819 145.455 313.606 Q145.455 310.222 143.677 307.801 Q141.923 305.38 138.687 305.38 Q136.463 305.38 134.586 306.739 Q132.708 308.097 131.844 310.518 Q131.992 310.469 132.511 310.469 Q133.771 310.469 134.462 311.26 Q135.179 312.05 135.179 313.112 Q135.179 314.471 134.29 315.138 Q133.425 315.78 132.56 315.78 Q132.214 315.78 131.745 315.706 Q131.3 315.632 130.584 314.94 Q129.868 314.224 129.868 312.964 Q129.868 309.431 132.536 306.615 Q135.228 303.799 139.329 303.799 Q143.973 303.799 147.012 306.566 Q150.075 309.308 150.075 313.606 Q150.075 315.113 149.606 316.497 Q149.161 317.855 148.543 318.918 Q147.95 319.98 146.32 321.684 Q144.69 323.389 143.38 324.599 Q142.071 325.81 139.131 328.379 L133.771 333.591 L142.886 333.591 Q147.333 333.591 147.679 333.196 Q148.173 332.48 148.79 328.7 L150.075 328.7 L148.642 337.494 L129.868 337.494 Z" fill="#000000" fill-rule="evenodd" fill-opacity="1" /><path clip-path="url(#clip600)" d="M155.164 329.342 Q155.164 327.835 155.979 327.267 Q156.794 326.674 157.659 326.674 Q158.82 326.674 159.487 327.416 Q160.179 328.132 160.179 329.145 Q160.179 330.158 159.487 330.899 Q158.82 331.615 157.659 331.615 Q157.091 331.615 156.794 331.516 Q157.461 333.838 159.487 335.518 Q161.537 337.198 164.23 337.198 Q167.614 337.198 169.64 333.912 Q170.85 331.788 170.85 326.971 Q170.85 322.722 169.936 320.597 Q168.528 317.361 165.638 317.361 Q161.537 317.361 159.116 320.894 Q158.82 321.338 158.474 321.363 Q157.98 321.363 157.857 321.091 Q157.758 320.795 157.758 320.029 L157.758 305.059 Q157.758 303.848 158.252 303.848 Q158.449 303.848 158.869 303.997 Q162.056 305.405 165.589 305.43 Q169.22 305.43 172.481 303.947 Q172.728 303.799 172.876 303.799 Q173.37 303.799 173.395 304.367 Q173.395 304.565 172.975 305.158 Q172.58 305.726 171.715 306.492 Q170.85 307.233 169.739 307.949 Q168.627 308.666 166.997 309.16 Q165.391 309.629 163.612 309.629 Q161.488 309.629 159.314 308.962 L159.314 318.819 Q161.933 316.25 165.737 316.25 Q169.788 316.25 172.58 319.51 Q175.371 322.771 175.371 327.317 Q175.371 332.084 172.061 335.345 Q168.775 338.606 164.329 338.606 Q160.277 338.606 157.708 335.716 Q155.164 332.826 155.164 329.342 Z" fill="#000000" fill-rule="evenodd" fill-opacity="1" /><path clip-path="url(#clip600)" d="M129.324 241.852 Q129.324 240.345 130.139 239.777 Q130.955 239.184 131.819 239.184 Q132.98 239.184 133.647 239.925 Q134.339 240.641 134.339 241.654 Q134.339 242.667 133.647 243.408 Q132.98 244.125 131.819 244.125 Q131.251 244.125 130.955 244.026 Q131.622 246.348 133.647 248.028 Q135.698 249.708 138.39 249.708 Q141.775 249.708 143.8 246.422 Q145.011 244.297 145.011 239.48 Q145.011 235.231 144.097 233.107 Q142.689 229.871 139.798 229.871 Q135.698 229.871 133.277 233.403 Q132.98 233.848 132.634 233.873 Q132.14 233.873 132.017 233.601 Q131.918 233.304 131.918 232.539 L131.918 217.568 Q131.918 216.358 132.412 216.358 Q132.61 216.358 133.03 216.506 Q136.216 217.914 139.749 217.939 Q143.38 217.939 146.641 216.457 Q146.888 216.309 147.036 216.309 Q147.531 216.309 147.555 216.877 Q147.555 217.074 147.135 217.667 Q146.74 218.235 145.875 219.001 Q145.011 219.742 143.899 220.459 Q142.787 221.175 141.157 221.669 Q139.551 222.139 137.773 222.139 Q135.648 222.139 133.474 221.472 L133.474 231.328 Q136.093 228.759 139.897 228.759 Q143.949 228.759 146.74 232.02 Q149.531 235.281 149.531 239.826 Q149.531 244.594 146.221 247.855 Q142.936 251.116 138.489 251.116 Q134.438 251.116 131.869 248.225 Q129.324 245.335 129.324 241.852 Z" fill="#000000" fill-rule="evenodd" fill-opacity="1" /><path clip-path="url(#clip600)" d="M154.077 233.823 Q154.077 226.388 155.954 222.336 Q158.573 216.309 164.749 216.309 Q166.058 216.309 167.417 216.679 Q168.8 217.025 170.529 218.384 Q172.283 219.742 173.346 221.966 Q175.371 226.264 175.371 233.823 Q175.371 241.21 173.494 245.236 Q170.752 251.116 164.699 251.116 Q162.427 251.116 160.105 249.955 Q157.807 248.794 156.35 246.002 Q154.077 241.827 154.077 233.823 M158.276 233.206 Q158.276 240.839 158.82 243.878 Q159.438 247.163 161.117 248.596 Q162.822 250.004 164.699 250.004 Q166.725 250.004 168.405 248.497 Q170.109 246.965 170.628 243.68 Q171.196 240.444 171.172 233.206 Q171.172 226.165 170.678 223.349 Q170.011 220.063 168.232 218.754 Q166.478 217.42 164.699 217.42 Q164.032 217.42 163.316 217.618 Q162.624 217.815 161.611 218.384 Q160.599 218.952 159.808 220.36 Q159.042 221.768 158.672 223.893 Q158.276 226.635 158.276 233.206 Z" fill="#000000" fill-rule="evenodd" fill-opacity="1" /><path clip-path="url(#clip600)" d="M130.189 138.724 L131.844 128.324 L133.104 128.324 Q133.252 128.942 133.499 129.213 Q133.771 129.485 135.204 129.707 Q136.661 129.93 139.601 129.93 L151.878 129.93 Q151.878 131.091 151.434 131.708 L144.591 141.318 Q142.417 144.356 141.453 149.964 Q140.885 153.719 140.91 158.264 L140.91 160.834 Q140.91 163.625 138.563 163.625 Q136.241 163.625 136.241 160.834 Q136.241 151.175 142.466 141.812 Q143.133 140.849 145.579 137.415 Q148.049 133.981 148.148 133.833 L137.674 133.833 Q133.079 133.833 132.708 134.129 Q132.214 134.574 131.449 138.724 L130.189 138.724 Z" fill="#000000" fill-rule="evenodd" fill-opacity="1" /><path clip-path="url(#clip600)" d="M155.164 154.361 Q155.164 152.854 155.979 152.286 Q156.794 151.693 157.659 151.693 Q158.82 151.693 159.487 152.434 Q160.179 153.151 160.179 154.164 Q160.179 155.177 159.487 155.918 Q158.82 156.634 157.659 156.634 Q157.091 156.634 156.794 156.535 Q157.461 158.857 159.487 160.537 Q161.537 162.217 164.23 162.217 Q167.614 162.217 169.64 158.931 Q170.85 156.807 170.85 151.99 Q170.85 147.741 169.936 145.616 Q168.528 142.38 165.638 142.38 Q161.537 142.38 159.116 145.913 Q158.82 146.357 158.474 146.382 Q157.98 146.382 157.857 146.11 Q157.758 145.814 157.758 145.048 L157.758 130.078 Q157.758 128.867 158.252 128.867 Q158.449 128.867 158.869 129.016 Q162.056 130.424 165.589 130.449 Q169.22 130.449 172.481 128.966 Q172.728 128.818 172.876 128.818 Q173.37 128.818 173.395 129.386 Q173.395 129.584 172.975 130.177 Q172.58 130.745 171.715 131.511 Q170.85 132.252 169.739 132.968 Q168.627 133.685 166.997 134.179 Q165.391 134.648 163.612 134.648 Q161.488 134.648 159.314 133.981 L159.314 143.838 Q161.933 141.269 165.737 141.269 Q169.788 141.269 172.58 144.529 Q175.371 147.79 175.371 152.336 Q175.371 157.103 172.061 160.364 Q168.775 163.625 164.329 163.625 Q160.277 163.625 157.708 160.735 Q155.164 157.845 155.164 154.361 Z" fill="#000000" fill-rule="evenodd" fill-opacity="1" /><path clip-path="url(#clip600)" d="M106.004 46.1447 L106.004 44.5637 Q112.081 44.5637 115.219 41.3276 Q116.083 41.3276 116.231 41.5252 Q116.38 41.7228 116.38 42.6369 L116.38 71.021 Q116.38 72.5279 117.121 72.9973 Q117.862 73.4666 121.098 73.4666 L122.704 73.4666 L122.704 75.023 Q120.925 74.8747 114.502 74.8747 Q108.079 74.8747 106.325 75.023 L106.325 73.4666 L107.931 73.4666 Q111.118 73.4666 111.884 73.022 Q112.649 72.5526 112.649 71.021 L112.649 44.8107 Q110.006 46.1447 106.004 46.1447 Z" fill="#000000" fill-rule="evenodd" fill-opacity="1" /><path clip-path="url(#clip600)" d="M128.781 58.8423 Q128.781 51.4065 130.658 47.3552 Q133.277 41.3276 139.453 41.3276 Q140.762 41.3276 142.12 41.6981 Q143.504 42.044 145.233 43.4027 Q146.987 44.7613 148.049 46.9846 Q150.075 51.283 150.075 58.8423 Q150.075 66.2286 148.197 70.2552 Q145.455 76.1346 139.403 76.1346 Q137.13 76.1346 134.808 74.9735 Q132.511 73.8125 131.053 71.021 Q128.781 66.8461 128.781 58.8423 M132.98 58.2247 Q132.98 65.858 133.524 68.8965 Q134.141 72.1821 135.821 73.6149 Q137.526 75.023 139.403 75.023 Q141.429 75.023 143.109 73.5161 Q144.813 71.9844 145.332 68.6989 Q145.9 65.4628 145.875 58.2247 Q145.875 51.1842 145.381 48.368 Q144.714 45.0825 142.936 43.7732 Q141.182 42.4392 139.403 42.4392 Q138.736 42.4392 138.02 42.6369 Q137.328 42.8345 136.315 43.4027 Q135.302 43.9708 134.512 45.3789 Q133.746 46.787 133.375 48.9115 Q132.98 51.6536 132.98 58.2247 Z" fill="#000000" fill-rule="evenodd" fill-opacity="1" /><path clip-path="url(#clip600)" d="M154.077 58.8423 Q154.077 51.4065 155.954 47.3552 Q158.573 41.3276 164.749 41.3276 Q166.058 41.3276 167.417 41.6981 Q168.8 42.044 170.529 43.4027 Q172.283 44.7613 173.346 46.9846 Q175.371 51.283 175.371 58.8423 Q175.371 66.2286 173.494 70.2552 Q170.752 76.1346 164.699 76.1346 Q162.427 76.1346 160.105 74.9735 Q157.807 73.8125 156.35 71.021 Q154.077 66.8461 154.077 58.8423 M158.276 58.2247 Q158.276 65.858 158.82 68.8965 Q159.438 72.1821 161.117 73.6149 Q162.822 75.023 164.699 75.023 Q166.725 75.023 168.405 73.5161 Q170.109 71.9844 170.628 68.6989 Q171.196 65.4628 171.172 58.2247 Q171.172 51.1842 170.678 48.368 Q170.011 45.0825 168.232 43.7732 Q166.478 42.4392 164.699 42.4392 Q164.032 42.4392 163.316 42.6369 Q162.624 42.8345 161.611 43.4027 Q160.599 43.9708 159.808 45.3789 Q159.042 46.787 158.672 48.9115 Q158.276 51.6536 158.276 58.2247 Z" fill="#000000" fill-rule="evenodd" fill-opacity="1" /><path clip-path="url(#clip600)" d="M35.5691 443.252 Q29.5909 443.252 25.5828 440.195 Q21.5747 437.138 21.5747 433.028 Q21.5747 430.515 23.8165 428.035 Q29.1833 422.396 29.1493 415.025 Q29.1493 406.67 22.5597 401.812 Q21.5747 400.963 21.5747 400.352 Q21.5747 399.808 22.0162 399.401 Q22.4238 398.959 22.9673 398.959 Q23.3749 398.959 24.2241 399.503 L76.6014 434.692 Q77.6544 435.474 77.6544 436.085 Q77.6544 436.629 77.2128 437.07 Q76.8052 437.478 76.2617 437.478 Q75.7862 437.478 74.8691 436.866 L28.3341 405.617 L28.2662 405.685 Q30.7118 409.285 30.6779 414.958 Q30.6779 420.324 27.7567 425.453 Q31.3572 423.993 35.637 423.993 Q41.4794 423.993 45.5554 426.608 Q49.5975 429.224 49.5975 433.028 Q49.5975 437.138 45.6573 440.195 Q41.6832 443.252 35.5691 443.252 M29.8966 438.463 Q32.3422 438.938 35.637 438.938 Q38.8979 438.938 41.3435 438.463 Q43.7552 437.987 45.012 437.308 Q46.2688 436.595 47.016 435.644 Q47.7293 434.692 47.8992 434.115 Q48.069 433.538 48.069 432.96 Q48.069 430.107 44.5364 427.933 Q40.9699 425.725 35.5691 425.725 Q30.2702 425.725 26.7037 427.933 Q23.1032 430.107 23.1032 432.96 Q23.1032 433.572 23.273 434.183 Q23.4429 434.76 24.1901 435.678 Q24.9034 436.595 26.1602 437.308 Q27.417 437.987 29.8966 438.463 M63.592 412.444 Q57.6138 412.444 53.6057 409.387 Q49.5975 406.33 49.5975 402.22 Q49.5975 398.45 53.6736 395.834 Q57.7496 393.185 63.6599 393.185 Q69.5023 393.185 73.5783 395.8 Q77.6544 398.382 77.6544 402.22 Q77.6544 406.33 73.6802 409.387 Q69.7061 412.444 63.592 412.444 M57.9195 407.655 Q60.3991 408.13 63.6599 408.13 Q66.9208 408.13 69.3664 407.655 Q71.812 407.145 73.0688 406.466 Q74.2916 405.752 75.0049 404.835 Q75.7522 403.884 75.9221 403.307 Q76.1259 402.695 76.1259 402.152 Q76.1259 399.299 72.5933 397.125 Q69.0267 394.917 63.592 394.917 Q58.2931 394.917 54.7266 397.125 Q51.1261 399.299 51.1261 402.152 Q51.1261 402.763 51.3299 403.375 Q51.4997 403.952 52.247 404.869 Q52.9603 405.752 54.2171 406.466 Q55.4399 407.145 57.9195 407.655 Z" fill="#000000" fill-rule="evenodd" fill-opacity="1" /><path clip-path="url(#clip600)" d="M45.9291 363.871 L43.7552 363.871 L43.0079 353.647 L66.1056 353.647 Q67.7699 353.647 68.755 353.511 Q69.7061 353.375 70.827 352.832 Q71.9479 352.254 72.4574 350.964 Q72.9669 349.639 72.9669 347.533 Q72.9669 343.762 69.8759 341.453 Q66.7849 339.109 62.1993 339.109 L49.8013 339.109 Q47.2198 339.109 46.5745 340.026 Q45.9291 340.943 45.9291 344.544 L43.7552 344.544 L43.0079 334.32 L67.702 334.32 Q70.2835 334.32 70.9629 333.436 Q71.6082 332.519 71.6082 328.885 L73.7482 328.885 L74.5294 338.905 L68.2455 338.905 Q74.4954 341.826 74.5294 347.873 Q74.5294 350.93 73.7482 353.036 Q72.9669 355.107 72.0158 356.16 Q71.0308 357.213 69.1626 357.791 Q67.2944 358.334 66.1395 358.402 Q64.9846 358.47 62.7428 358.47 L52.3149 358.47 Q47.5935 358.47 46.7783 359.15 Q45.9291 359.829 45.9291 363.871 Z" fill="#000000" fill-rule="evenodd" fill-opacity="1" /><path clip-path="url(#clip600)" d="M73.7482 325.284 L71.6082 325.284 Q71.6082 321.582 71.1667 320.733 Q70.6911 319.884 68.4493 319.884 L49.8013 319.884 Q47.2198 319.884 46.5745 320.801 Q45.9291 321.684 45.9291 325.284 L43.7552 325.284 L43.0079 315.502 L50.3108 315.502 Q43.0079 312.241 43.0079 305.21 Q43.0079 299.979 45.5894 297.907 Q47.3217 296.378 49.2579 296.073 Q51.194 295.733 56.2211 295.733 L69.5023 295.733 Q70.9629 295.665 71.3025 294.544 Q71.6082 293.423 71.6082 290.298 L73.7482 290.298 Q73.5444 297.397 73.5444 298.111 Q73.5444 298.654 73.7482 305.957 L71.6082 305.957 Q71.6082 302.255 71.1667 301.405 Q70.6911 300.522 68.4493 300.522 L52.247 300.522 Q48.7144 300.522 46.6424 301.609 Q44.5364 302.696 44.5364 305.685 Q44.5364 309.286 47.5595 312.173 Q50.5826 315.06 55.6776 315.06 L68.4493 315.06 Q70.6911 315.06 71.1667 314.211 Q71.6082 313.328 71.6082 309.659 L73.7482 309.659 Q73.5444 316.759 73.5444 317.438 Q73.5444 317.981 73.7482 325.284 Z" fill="#000000" fill-rule="evenodd" fill-opacity="1" /><path clip-path="url(#clip600)" d="M72.831 286.63 L63.6599 286.63 Q62.8787 286.63 62.6069 286.596 Q62.3352 286.562 62.1314 286.358 Q61.9276 286.154 61.9276 285.747 Q61.9276 285.271 62.1314 285.101 Q62.3352 284.897 63.1164 284.762 Q67.9058 283.709 70.4533 281.467 Q72.9669 279.191 72.9669 275.081 Q72.9669 271.175 71.2346 269.205 Q69.5023 267.235 66.649 267.235 Q61.554 267.235 60.2632 274.47 Q59.414 278.648 58.8706 280.38 Q58.2931 282.112 57.0363 283.641 Q54.5907 286.63 51.1261 286.63 Q47.6614 286.63 45.1139 284.014 Q42.5663 281.365 42.5663 275.523 Q42.5663 271.616 44.5364 268.967 Q43.925 268.186 43.4155 267.778 Q42.5663 266.861 42.5663 266.385 Q42.5663 265.842 42.94 265.74 Q43.2797 265.638 44.2647 265.638 L51.2619 265.638 Q52.0432 265.638 52.3149 265.672 Q52.5866 265.706 52.7904 265.91 Q52.9603 266.114 52.9603 266.555 Q52.9603 267.336 52.3149 267.37 Q43.8911 267.914 43.8911 275.523 Q43.8911 279.633 45.4875 281.467 Q47.05 283.301 49.1899 283.301 Q50.3788 283.301 51.2959 282.758 Q52.179 282.18 52.7225 281.467 Q53.232 280.72 53.7415 279.361 Q54.2171 278.002 54.3869 277.187 Q54.5567 276.338 54.8964 274.741 Q55.9494 269.171 58.2252 266.827 Q61.1464 263.906 64.8488 263.906 Q68.9588 263.906 71.7441 266.691 Q74.5294 269.476 74.5294 275.081 Q74.5294 279.599 71.5063 282.758 Q71.9139 283.165 72.2876 283.471 Q72.6272 283.777 72.7631 283.912 Q72.899 284.014 73.0009 284.048 Q73.0688 284.082 73.1367 284.15 Q74.5294 285.543 74.5294 285.883 Q74.5294 286.426 74.1558 286.528 Q73.8161 286.63 72.831 286.63 Z" fill="#000000" fill-rule="evenodd" fill-opacity="1" /><path clip-path="url(#clip600)" d="M67.1246 258.641 Q61.2143 258.641 58.0893 251.678 Q56.0853 247.5 55.5757 238.872 L53.0282 238.872 Q48.7144 238.872 46.4386 241.148 Q44.1288 243.39 44.1288 246.243 Q44.1288 251.338 47.3217 253.784 Q47.3897 251.712 48.4427 250.964 Q49.4617 250.217 50.5146 250.217 Q51.9073 250.217 52.8244 251.1 Q53.7076 251.949 53.7076 253.41 Q53.7076 254.803 52.8584 255.72 Q51.9752 256.637 50.4467 256.637 Q47.05 256.637 44.8082 253.58 Q42.5663 250.489 42.5663 246.107 Q42.5663 240.401 46.4046 236.596 Q47.5935 235.407 49.122 234.83 Q50.6505 234.219 51.6695 234.151 Q52.6546 234.083 54.6247 234.083 L68.5172 234.083 Q68.9248 234.083 69.6042 233.947 Q70.2835 233.811 71.1667 233.2 Q72.0158 232.554 72.0158 231.501 Q72.0158 228.988 67.5661 229.022 L63.6599 229.022 L63.6599 227.255 L67.5661 227.255 Q71.2686 227.255 72.7291 229.225 Q74.1558 231.161 74.1558 232.962 Q74.1558 235.272 72.4574 236.732 Q70.7591 238.193 68.4493 238.396 Q71.0987 239.449 72.831 241.861 Q74.5294 244.239 74.5294 247.5 Q74.5294 250.013 73.884 252.391 Q73.2726 254.735 71.5403 256.705 Q69.774 258.641 67.1246 258.641 M67.0566 253.274 Q69.6381 253.274 71.3025 251.44 Q72.9669 249.606 72.9669 247.024 Q72.9669 244.103 70.7251 241.487 Q68.4493 238.872 63.9996 238.872 L57.0363 238.872 Q57.3081 246.583 60.3991 249.945 Q63.4561 253.274 67.0566 253.274 Z" fill="#000000" fill-rule="evenodd" fill-opacity="1" /><path clip-path="url(#clip600)" d="M45.9291 224.47 L43.7552 224.47 L43.7552 219.001 L35.7729 219.001 Q30.6099 219.001 27.6548 215.672 Q24.6996 212.31 24.6996 208.2 Q24.6996 205.482 26.1602 203.716 Q27.6208 201.95 29.5909 201.95 Q30.9156 201.95 31.7988 202.765 Q32.6479 203.546 32.6479 205.007 Q32.6479 206.399 31.7648 207.215 Q30.8817 207.996 29.6588 207.996 Q27.417 207.996 26.7377 205.924 Q26.2621 206.977 26.2282 208.2 Q26.2282 210.713 28.8097 212.683 Q31.3912 214.619 35.705 214.619 L43.7552 214.619 L43.7552 206.467 L45.9291 206.467 L45.9291 214.382 L68.3134 214.382 Q70.3175 214.382 70.9629 213.567 Q71.6082 212.717 71.6082 209.117 L71.6082 207.656 L73.7482 207.656 Q73.5444 210.442 73.5444 216.488 Q73.5444 217.337 73.5783 218.662 Q73.6123 219.952 73.6802 221.719 Q73.7482 223.451 73.7482 224.402 L71.6082 224.402 Q71.6082 220.7 71.1667 219.85 Q70.6911 219.001 68.4493 219.001 L45.9291 219.001 L45.9291 224.47 Z" fill="#000000" fill-rule="evenodd" fill-opacity="1" /><path clip-path="url(#clip600)" d="M58.429 203.648 Q51.8733 203.648 47.2198 199.436 Q42.5663 195.224 42.5663 189.178 Q42.5663 183.064 46.5405 179.905 Q50.5146 176.712 56.2211 176.712 Q57.2741 176.712 57.4779 176.984 Q57.6817 177.256 57.6817 178.445 L57.6817 197.874 Q64.7808 197.874 68.1096 195.768 Q72.7631 192.847 72.7631 187.921 Q72.7631 187.242 72.6272 186.427 Q72.4914 185.612 71.9139 183.947 Q71.3025 182.283 69.7061 180.822 Q68.1096 179.362 65.596 178.512 Q64.611 178.309 64.645 177.629 Q64.645 176.712 65.4602 176.712 Q66.0716 176.712 67.4642 177.392 Q68.8229 178.037 70.4533 179.294 Q72.0838 180.55 73.3066 182.996 Q74.5294 185.408 74.5294 188.329 Q74.5294 194.443 69.9099 199.063 Q65.2564 203.648 58.429 203.648 M56.2211 197.806 L56.2211 181.298 Q54.7605 181.298 53.1301 181.569 Q51.4997 181.807 49.2579 182.555 Q46.9821 183.268 45.5554 184.966 Q44.1288 186.665 44.1288 189.178 Q44.1288 190.299 44.6044 191.522 Q45.0799 192.711 46.2348 194.171 Q47.3897 195.632 50.0051 196.651 Q52.6206 197.67 56.2211 197.806 Z" fill="#000000" fill-rule="evenodd" fill-opacity="1" /><path clip-path="url(#clip600)" d="M73.7482 149.64 L71.6082 149.64 Q71.6082 145.938 71.1667 145.089 Q70.6911 144.206 68.4493 144.206 L49.8013 144.206 Q47.2198 144.206 46.5745 145.123 Q45.9291 146.006 45.9291 149.64 L43.7552 149.64 L43.0079 139.96 L50.6505 139.96 Q47.6614 138.975 45.3516 136.903 Q43.0079 134.797 43.0079 131.4 Q43.0079 129.158 44.2647 127.732 Q45.5215 126.271 47.2538 126.271 Q48.7823 126.271 49.5636 127.222 Q50.3108 128.139 50.3108 129.26 Q50.3108 130.517 49.5296 131.4 Q48.7144 132.249 47.3217 132.249 Q46.4726 132.249 45.8272 131.876 Q45.1478 131.468 44.9101 131.162 Q44.6723 130.857 44.6044 130.653 Q44.5364 130.789 44.5364 131.4 Q44.5364 135.238 48.3747 137.446 Q52.179 139.62 57.6138 139.62 L68.3134 139.62 Q70.3175 139.62 70.9629 138.805 Q71.6082 137.956 71.6082 134.321 L71.6082 132.861 L73.7482 132.861 Q73.5444 135.646 73.5444 141.692 Q73.5444 142.541 73.5783 143.866 Q73.6123 145.191 73.6802 146.923 Q73.7482 148.655 73.7482 149.64 Z" fill="#000000" fill-rule="evenodd" fill-opacity="1" /><path clip-path="url(#clip600)" d="M45.9291 122.161 L43.7552 122.161 L43.0079 111.937 L66.1056 111.937 Q67.7699 111.937 68.755 111.801 Q69.7061 111.665 70.827 111.122 Q71.9479 110.544 72.4574 109.253 Q72.9669 107.929 72.9669 105.823 Q72.9669 102.052 69.8759 99.7427 Q66.7849 97.399 62.1993 97.399 L49.8013 97.399 Q47.2198 97.399 46.5745 98.3161 Q45.9291 99.2332 45.9291 102.834 L43.7552 102.834 L43.0079 92.6096 L67.702 92.6096 Q70.2835 92.6096 70.9629 91.7265 Q71.6082 90.8093 71.6082 87.1749 L73.7482 87.1749 L74.5294 97.1952 L68.2455 97.1952 Q74.4954 100.116 74.5294 106.162 Q74.5294 109.22 73.7482 111.325 Q72.9669 113.397 72.0158 114.45 Q71.0308 115.503 69.1626 116.081 Q67.2944 116.624 66.1395 116.692 Q64.9846 116.76 62.7428 116.76 L52.3149 116.76 Q47.5935 116.76 46.7783 117.44 Q45.9291 118.119 45.9291 122.161 Z" fill="#000000" fill-rule="evenodd" fill-opacity="1" /><path clip-path="url(#clip600)" d="M73.7482 83.5743 L71.6082 83.5743 Q71.6082 79.8719 71.1667 79.0228 Q70.6911 78.1736 68.4493 78.1736 L49.8013 78.1736 Q47.2198 78.1736 46.5745 79.0907 Q45.9291 79.9738 45.9291 83.5743 L43.7552 83.5743 L43.0079 73.7918 L50.3108 73.7918 Q43.0079 70.531 43.0079 63.4998 Q43.0079 58.2688 45.5894 56.1968 Q47.3217 54.6683 49.2579 54.3626 Q51.194 54.023 56.2211 54.023 L69.5023 54.023 Q70.9629 53.955 71.3025 52.8341 Q71.6082 51.7132 71.6082 48.5882 L73.7482 48.5882 Q73.5444 55.6873 73.5444 56.4007 Q73.5444 56.9441 73.7482 64.2471 L71.6082 64.2471 Q71.6082 60.5446 71.1667 59.6955 Q70.6911 58.8123 68.4493 58.8123 L52.247 58.8123 Q48.7144 58.8123 46.6424 59.8993 Q44.5364 60.9862 44.5364 63.9753 Q44.5364 67.5758 47.5595 70.463 Q50.5826 73.3502 55.6776 73.3502 L68.4493 73.3502 Q70.6911 73.3502 71.1667 72.5011 Q71.6082 71.6179 71.6082 67.9495 L73.7482 67.9495 Q73.5444 75.0486 73.5444 75.7279 Q73.5444 76.2714 73.7482 83.5743 Z" fill="#000000" fill-rule="evenodd" fill-opacity="1" /><path clip-path="url(#clip600)" d="M72.831 44.9198 L63.6599 44.9198 Q62.8787 44.9198 62.6069 44.8858 Q62.3352 44.8518 62.1314 44.648 Q61.9276 44.4442 61.9276 44.0366 Q61.9276 43.5611 62.1314 43.3912 Q62.3352 43.1874 63.1164 43.0516 Q67.9058 41.9986 70.4533 39.7568 Q72.9669 37.481 72.9669 33.3709 Q72.9669 29.4647 71.2346 27.4946 Q69.5023 25.5245 66.649 25.5245 Q61.554 25.5245 60.2632 32.7595 Q59.414 36.9375 58.8706 38.6698 Q58.2931 40.4021 57.0363 41.9307 Q54.5907 44.9198 51.1261 44.9198 Q47.6614 44.9198 45.1139 42.3043 Q42.5663 39.6549 42.5663 33.8125 Q42.5663 29.9063 44.5364 27.2569 Q43.925 26.4756 43.4155 26.068 Q42.5663 25.1509 42.5663 24.6754 Q42.5663 24.1319 42.94 24.03 Q43.2797 23.9281 44.2647 23.9281 L51.2619 23.9281 Q52.0432 23.9281 52.3149 23.9621 Q52.5866 23.996 52.7904 24.1998 Q52.9603 24.4036 52.9603 24.8452 Q52.9603 25.6264 52.3149 25.6604 Q43.8911 26.2039 43.8911 33.8125 Q43.8911 37.9225 45.4875 39.7568 Q47.05 41.591 49.1899 41.591 Q50.3788 41.591 51.2959 41.0475 Q52.179 40.4701 52.7225 39.7568 Q53.232 39.0095 53.7415 37.6508 Q54.2171 36.2921 54.3869 35.4769 Q54.5567 34.6277 54.8964 33.0313 Q55.9494 27.4607 58.2252 25.1169 Q61.1464 22.1958 64.8488 22.1958 Q68.9588 22.1958 71.7441 24.9811 Q74.5294 27.7664 74.5294 33.3709 Q74.5294 37.8886 71.5063 41.0475 Q71.9139 41.4551 72.2876 41.7608 Q72.6272 42.0665 72.7631 42.2024 Q72.899 42.3043 73.0009 42.3383 Q73.0688 42.3722 73.1367 42.4402 Q74.5294 43.8328 74.5294 44.1725 Q74.5294 44.716 74.1558 44.8179 Q73.8161 44.9198 72.831 44.9198 Z" fill="#000000" fill-rule="evenodd" fill-opacity="1" /><path clip-path="url(#clip602)" d="
M227.661 57.743 L227.661 407.705 L269.629 407.705 L269.629 57.743 L227.661 57.743 L227.661 57.743  Z
  " fill="#3498db" fill-rule="evenodd" fill-opacity="1"/>
<polyline clip-path="url(#clip602)" style="stroke:#3498db; stroke-linecap:round; stroke-linejoin:round; stroke-width:4; stroke-opacity:1; fill:none" points="
  227.661,57.743 227.661,407.705 269.629,407.705 269.629,57.743 227.661,57.743 
  "/>
<path clip-path="url(#clip602)" d="
M385.04 57.743 L385.04 407.705 L427.008 407.705 L427.008 57.743 L385.04 57.743 L385.04 57.743  Z
  " fill="#3498db" fill-rule="evenodd" fill-opacity="1"/>
<polyline clip-path="url(#clip602)" style="stroke:#3498db; stroke-linecap:round; stroke-linejoin:round; stroke-width:4; stroke-opacity:1; fill:none" points="
  385.04,57.743 385.04,407.705 427.008,407.705 427.008,57.743 385.04,57.743 
  "/>
<path clip-path="url(#clip602)" d="
M542.42 57.743 L542.42 407.705 L584.388 407.705 L584.388 57.743 L542.42 57.743 L542.42 57.743  Z
  " fill="#3498db" fill-rule="evenodd" fill-opacity="1"/>
<polyline clip-path="url(#clip602)" style="stroke:#3498db; stroke-linecap:round; stroke-linejoin:round; stroke-width:4; stroke-opacity:1; fill:none" points="
  542.42,57.743 542.42,407.705 584.388,407.705 584.388,57.743 542.42,57.743 
  "/>
<path clip-path="url(#clip602)" d="
M699.799 57.743 L699.799 407.705 L741.767 407.705 L741.767 57.743 L699.799 57.743 L699.799 57.743  Z
  " fill="#3498db" fill-rule="evenodd" fill-opacity="1"/>
<polyline clip-path="url(#clip602)" style="stroke:#3498db; stroke-linecap:round; stroke-linejoin:round; stroke-width:4; stroke-opacity:1; fill:none" points="
  699.799,57.743 699.799,407.705 741.767,407.705 741.767,57.743 699.799,57.743 
  "/>
<circle clip-path="url(#clip602)" style="fill:#3498db; stroke:none; fill-opacity:0" cx="248.645" cy="57.743" r="2"/>
<circle clip-path="url(#clip602)" style="fill:#3498db; stroke:none; fill-opacity:0" cx="406.024" cy="57.743" r="2"/>
<circle clip-path="url(#clip602)" style="fill:#3498db; stroke:none; fill-opacity:0" cx="563.404" cy="57.743" r="2"/>
<circle clip-path="url(#clip602)" style="fill:#3498db; stroke:none; fill-opacity:0" cx="720.783" cy="57.743" r="2"/>
<path clip-path="url(#clip602)" d="
M269.629 407.705 L269.629 407.705 L311.597 407.705 L311.597 407.705 L269.629 407.705 L269.629 407.705  Z
  " fill="#2ecc71" fill-rule="evenodd" fill-opacity="1"/>
<polyline clip-path="url(#clip602)" style="stroke:#2ecc71; stroke-linecap:round; stroke-linejoin:round; stroke-width:4; stroke-opacity:1; fill:none" points="
  269.629,407.705 269.629,407.705 311.597,407.705 269.629,407.705 
  "/>
<path clip-path="url(#clip602)" d="
M427.008 401.756 L427.008 407.705 L468.976 407.705 L468.976 401.756 L427.008 401.756 L427.008 401.756  Z
  " fill="#2ecc71" fill-rule="evenodd" fill-opacity="1"/>
<polyline clip-path="url(#clip602)" style="stroke:#2ecc71; stroke-linecap:round; stroke-linejoin:round; stroke-width:4; stroke-opacity:1; fill:none" points="
  427.008,401.756 427.008,407.705 468.976,407.705 468.976,401.756 427.008,401.756 
  "/>
<path clip-path="url(#clip602)" d="
M584.388 407.705 L584.388 407.705 L626.355 407.705 L626.355 407.705 L584.388 407.705 L584.388 407.705  Z
  " fill="#2ecc71" fill-rule="evenodd" fill-opacity="1"/>
<polyline clip-path="url(#clip602)" style="stroke:#2ecc71; stroke-linecap:round; stroke-linejoin:round; stroke-width:4; stroke-opacity:1; fill:none" points="
  584.388,407.705 584.388,407.705 626.355,407.705 584.388,407.705 
  "/>
<path clip-path="url(#clip602)" d="
M741.767 407.705 L741.767 407.705 L783.735 407.705 L783.735 407.705 L741.767 407.705 L741.767 407.705  Z
  " fill="#2ecc71" fill-rule="evenodd" fill-opacity="1"/>
<polyline clip-path="url(#clip602)" style="stroke:#2ecc71; stroke-linecap:round; stroke-linejoin:round; stroke-width:4; stroke-opacity:1; fill:none" points="
  741.767,407.705 741.767,407.705 783.735,407.705 741.767,407.705 
  "/>
<circle clip-path="url(#clip602)" style="fill:#2ecc71; stroke:none; fill-opacity:0" cx="290.613" cy="407.705" r="2"/>
<circle clip-path="url(#clip602)" style="fill:#2ecc71; stroke:none; fill-opacity:0" cx="447.992" cy="401.756" r="2"/>
<circle clip-path="url(#clip602)" style="fill:#2ecc71; stroke:none; fill-opacity:0" cx="605.371" cy="407.705" r="2"/>
<circle clip-path="url(#clip602)" style="fill:#2ecc71; stroke:none; fill-opacity:0" cx="762.751" cy="407.705" r="2"/>
<path clip-path="url(#clip602)" d="
M311.597 407.705 L311.597 407.705 L353.565 407.705 L353.565 407.705 L311.597 407.705 L311.597 407.705  Z
  " fill="#9b59b6" fill-rule="evenodd" fill-opacity="1"/>
<polyline clip-path="url(#clip602)" style="stroke:#9b59b6; stroke-linecap:round; stroke-linejoin:round; stroke-width:4; stroke-opacity:1; fill:none" points="
  311.597,407.705 311.597,407.705 353.565,407.705 311.597,407.705 
  "/>
<path clip-path="url(#clip602)" d="
M468.976 407.705 L468.976 407.705 L510.944 407.705 L510.944 407.705 L468.976 407.705 L468.976 407.705  Z
  " fill="#9b59b6" fill-rule="evenodd" fill-opacity="1"/>
<polyline clip-path="url(#clip602)" style="stroke:#9b59b6; stroke-linecap:round; stroke-linejoin:round; stroke-width:4; stroke-opacity:1; fill:none" points="
  468.976,407.705 468.976,407.705 510.944,407.705 468.976,407.705 
  "/>
<path clip-path="url(#clip602)" d="
M626.355 407.705 L626.355 407.705 L668.323 407.705 L668.323 407.705 L626.355 407.705 L626.355 407.705  Z
  " fill="#9b59b6" fill-rule="evenodd" fill-opacity="1"/>
<polyline clip-path="url(#clip602)" style="stroke:#9b59b6; stroke-linecap:round; stroke-linejoin:round; stroke-width:4; stroke-opacity:1; fill:none" points="
  626.355,407.705 626.355,407.705 668.323,407.705 626.355,407.705 
  "/>
<path clip-path="url(#clip602)" d="
M783.735 407.705 L783.735 407.705 L825.703 407.705 L825.703 407.705 L783.735 407.705 L783.735 407.705  Z
  " fill="#9b59b6" fill-rule="evenodd" fill-opacity="1"/>
<polyline clip-path="url(#clip602)" style="stroke:#9b59b6; stroke-linecap:round; stroke-linejoin:round; stroke-width:4; stroke-opacity:1; fill:none" points="
  783.735,407.705 783.735,407.705 825.703,407.705 783.735,407.705 
  "/>
<circle clip-path="url(#clip602)" style="fill:#9b59b6; stroke:none; fill-opacity:0" cx="332.581" cy="407.705" r="2"/>
<circle clip-path="url(#clip602)" style="fill:#9b59b6; stroke:none; fill-opacity:0" cx="489.96" cy="407.705" r="2"/>
<circle clip-path="url(#clip602)" style="fill:#9b59b6; stroke:none; fill-opacity:0" cx="647.339" cy="407.705" r="2"/>
<circle clip-path="url(#clip602)" style="fill:#9b59b6; stroke:none; fill-opacity:0" cx="804.719" cy="407.705" r="2"/>
<path clip-path="url(#clip600)" d="
M891.972 322.849 L1152.76 322.849 L1152.76 115.489 L891.972 115.489  Z
  " fill="#ffffff" fill-rule="evenodd" fill-opacity="1"/>
<polyline clip-path="url(#clip600)" style="stroke:#000000; stroke-linecap:round; stroke-linejoin:round; stroke-width:4; stroke-opacity:1; fill:none" points="
  891.972,322.849 1152.76,322.849 1152.76,115.489 891.972,115.489 891.972,322.849 
  "/>
<path clip-path="url(#clip600)" d="
M902.632 188.065 L966.591 188.065 L966.591 146.593 L902.632 146.593 L902.632 188.065  Z
  " fill="#3498db" fill-rule="evenodd" fill-opacity="1"/>
<polyline clip-path="url(#clip600)" style="stroke:#3498db; stroke-linecap:round; stroke-linejoin:round; stroke-width:4; stroke-opacity:1; fill:none" points="
  902.632,188.065 966.591,188.065 966.591,146.593 902.632,146.593 902.632,188.065 
  "/>
<path clip-path="url(#clip600)" d="M977.251 173.74 Q977.251 168.923 980.61 165.588 Q983.97 162.253 988.515 162.253 Q992.369 162.253 994.889 165.39 L994.889 154.446 Q994.889 152.569 994.222 152.1 Q993.579 151.63 990.961 151.63 L990.961 150.049 L998.248 149.506 L998.248 180.212 Q998.248 182.09 998.891 182.584 Q999.558 183.053 1002.18 183.053 L1002.18 184.609 L994.741 185.177 L994.741 181.818 Q992.122 185.153 987.972 185.177 Q983.624 185.177 980.437 181.843 Q977.251 178.508 977.251 173.74 M981.45 173.789 Q981.45 178.483 982.908 180.805 Q984.933 184.041 988.219 184.041 Q991.974 184.041 994.197 180.509 Q994.765 179.644 994.741 178.631 L994.741 168.256 Q994.741 167.243 994.197 166.403 Q992.122 163.364 988.738 163.364 Q985.205 163.364 983.006 166.601 Q981.45 169.021 981.45 173.789 Z" fill="#000000" fill-rule="evenodd" fill-opacity="1" /><path clip-path="url(#clip600)" d="M1006.47 176.927 Q1006.52 176.309 1007.49 176.309 L1038.49 176.309 Q1039.95 176.309 1039.97 176.877 Q1039.97 177.495 1038.59 177.47 L1007.83 177.47 Q1006.47 177.495 1006.47 176.927 M1006.47 167.045 Q1006.47 166.428 1007.54 166.452 L1038.44 166.452 Q1039.95 166.452 1039.97 167.045 Q1039.97 167.613 1038.69 167.613 L1007.49 167.613 Q1006.47 167.613 1006.47 167.045 Z" fill="#000000" fill-rule="evenodd" fill-opacity="1" /><path clip-path="url(#clip600)" d="M1047.43 155.731 L1047.43 154.15 Q1053.51 154.15 1056.65 150.914 Q1057.51 150.914 1057.66 151.112 Q1057.81 151.309 1057.81 152.223 L1057.81 180.607 Q1057.81 182.114 1058.55 182.584 Q1059.29 183.053 1062.53 183.053 L1064.13 183.053 L1064.13 184.609 Q1062.35 184.461 1055.93 184.461 Q1049.51 184.461 1047.75 184.609 L1047.75 183.053 L1049.36 183.053 Q1052.55 183.053 1053.31 182.608 Q1054.08 182.139 1054.08 180.607 L1054.08 154.397 Q1051.43 155.731 1047.43 155.731 Z" fill="#000000" fill-rule="evenodd" fill-opacity="1" /><path clip-path="url(#clip600)" d="M1070.21 168.429 Q1070.21 160.993 1072.09 156.942 Q1074.71 150.914 1080.88 150.914 Q1082.19 150.914 1083.55 151.284 Q1084.93 151.63 1086.66 152.989 Q1088.42 154.348 1089.48 156.571 Q1091.5 160.869 1091.5 168.429 Q1091.5 175.815 1089.63 179.842 Q1086.88 185.721 1080.83 185.721 Q1078.56 185.721 1076.24 184.56 Q1073.94 183.399 1072.48 180.607 Q1070.21 176.432 1070.21 168.429 M1074.41 167.811 Q1074.41 175.444 1074.95 178.483 Q1075.57 181.768 1077.25 183.201 Q1078.95 184.609 1080.83 184.609 Q1082.86 184.609 1084.54 183.102 Q1086.24 181.571 1086.76 178.285 Q1087.33 175.049 1087.3 167.811 Q1087.3 160.771 1086.81 157.954 Q1086.14 154.669 1084.36 153.36 Q1082.61 152.026 1080.83 152.026 Q1080.16 152.026 1079.45 152.223 Q1078.76 152.421 1077.74 152.989 Q1076.73 153.557 1075.94 154.965 Q1075.17 156.373 1074.8 158.498 Q1074.41 161.24 1074.41 167.811 Z" fill="#000000" fill-rule="evenodd" fill-opacity="1" /><path clip-path="url(#clip600)" d="
M902.632 239.905 L966.591 239.905 L966.591 198.433 L902.632 198.433 L902.632 239.905  Z
  " fill="#2ecc71" fill-rule="evenodd" fill-opacity="1"/>
<polyline clip-path="url(#clip600)" style="stroke:#2ecc71; stroke-linecap:round; stroke-linejoin:round; stroke-width:4; stroke-opacity:1; fill:none" points="
  902.632,239.905 966.591,239.905 966.591,198.433 902.632,198.433 902.632,239.905 
  "/>
<path clip-path="url(#clip600)" d="M977.251 225.58 Q977.251 220.763 980.61 217.428 Q983.97 214.093 988.515 214.093 Q992.369 214.093 994.889 217.23 L994.889 206.286 Q994.889 204.409 994.222 203.94 Q993.579 203.47 990.961 203.47 L990.961 201.889 L998.248 201.346 L998.248 232.052 Q998.248 233.93 998.891 234.424 Q999.558 234.893 1002.18 234.893 L1002.18 236.449 L994.741 237.017 L994.741 233.658 Q992.122 236.993 987.972 237.017 Q983.624 237.017 980.437 233.683 Q977.251 230.348 977.251 225.58 M981.45 225.629 Q981.45 230.323 982.908 232.645 Q984.933 235.881 988.219 235.881 Q991.974 235.881 994.197 232.349 Q994.765 231.484 994.741 230.471 L994.741 220.096 Q994.741 219.083 994.197 218.243 Q992.122 215.204 988.738 215.204 Q985.205 215.204 983.006 218.441 Q981.45 220.861 981.45 225.629 Z" fill="#000000" fill-rule="evenodd" fill-opacity="1" /><path clip-path="url(#clip600)" d="M1006.47 228.767 Q1006.52 228.149 1007.49 228.149 L1038.49 228.149 Q1039.95 228.149 1039.97 228.717 Q1039.97 229.335 1038.59 229.31 L1007.83 229.31 Q1006.47 229.335 1006.47 228.767 M1006.47 218.885 Q1006.47 218.268 1007.54 218.292 L1038.44 218.292 Q1039.95 218.292 1039.97 218.885 Q1039.97 219.453 1038.69 219.453 L1007.49 219.453 Q1006.47 219.453 1006.47 218.885 Z" fill="#000000" fill-rule="evenodd" fill-opacity="1" /><path clip-path="url(#clip600)" d="M1047.43 207.571 L1047.43 205.99 Q1053.51 205.99 1056.65 202.754 Q1057.51 202.754 1057.66 202.952 Q1057.81 203.149 1057.81 204.063 L1057.81 232.447 Q1057.81 233.954 1058.55 234.424 Q1059.29 234.893 1062.53 234.893 L1064.13 234.893 L1064.13 236.449 Q1062.35 236.301 1055.93 236.301 Q1049.51 236.301 1047.75 236.449 L1047.75 234.893 L1049.36 234.893 Q1052.55 234.893 1053.31 234.448 Q1054.08 233.979 1054.08 232.447 L1054.08 206.237 Q1051.43 207.571 1047.43 207.571 Z" fill="#000000" fill-rule="evenodd" fill-opacity="1" /><path clip-path="url(#clip600)" d="M1070.21 220.269 Q1070.21 212.833 1072.09 208.782 Q1074.71 202.754 1080.88 202.754 Q1082.19 202.754 1083.55 203.124 Q1084.93 203.47 1086.66 204.829 Q1088.42 206.188 1089.48 208.411 Q1091.5 212.709 1091.5 220.269 Q1091.5 227.655 1089.63 231.682 Q1086.88 237.561 1080.83 237.561 Q1078.56 237.561 1076.24 236.4 Q1073.94 235.239 1072.48 232.447 Q1070.21 228.272 1070.21 220.269 M1074.41 219.651 Q1074.41 227.284 1074.95 230.323 Q1075.57 233.608 1077.25 235.041 Q1078.95 236.449 1080.83 236.449 Q1082.86 236.449 1084.54 234.942 Q1086.24 233.411 1086.76 230.125 Q1087.33 226.889 1087.3 219.651 Q1087.3 212.611 1086.81 209.794 Q1086.14 206.509 1084.36 205.2 Q1082.61 203.866 1080.83 203.866 Q1080.16 203.866 1079.45 204.063 Q1078.76 204.261 1077.74 204.829 Q1076.73 205.397 1075.94 206.805 Q1075.17 208.213 1074.8 210.338 Q1074.41 213.08 1074.41 219.651 Z" fill="#000000" fill-rule="evenodd" fill-opacity="1" /><path clip-path="url(#clip600)" d="M1095.51 220.269 Q1095.51 212.833 1097.38 208.782 Q1100 202.754 1106.18 202.754 Q1107.49 202.754 1108.85 203.124 Q1110.23 203.47 1111.96 204.829 Q1113.71 206.188 1114.77 208.411 Q1116.8 212.709 1116.8 220.269 Q1116.8 227.655 1114.92 231.682 Q1112.18 237.561 1106.13 237.561 Q1103.86 237.561 1101.53 236.4 Q1099.24 235.239 1097.78 232.447 Q1095.51 228.272 1095.51 220.269 M1099.71 219.651 Q1099.71 227.284 1100.25 230.323 Q1100.87 233.608 1102.55 235.041 Q1104.25 236.449 1106.13 236.449 Q1108.15 236.449 1109.83 234.942 Q1111.54 233.411 1112.06 230.125 Q1112.62 226.889 1112.6 219.651 Q1112.6 212.611 1112.11 209.794 Q1111.44 206.509 1109.66 205.2 Q1107.91 203.866 1106.13 203.866 Q1105.46 203.866 1104.74 204.063 Q1104.05 204.261 1103.04 204.829 Q1102.03 205.397 1101.24 206.805 Q1100.47 208.213 1100.1 210.338 Q1099.71 213.08 1099.71 219.651 Z" fill="#000000" fill-rule="evenodd" fill-opacity="1" /><path clip-path="url(#clip600)" d="
M902.632 291.745 L966.591 291.745 L966.591 250.273 L902.632 250.273 L902.632 291.745  Z
  " fill="#9b59b6" fill-rule="evenodd" fill-opacity="1"/>
<polyline clip-path="url(#clip600)" style="stroke:#9b59b6; stroke-linecap:round; stroke-linejoin:round; stroke-width:4; stroke-opacity:1; fill:none" points="
  902.632,291.745 966.591,291.745 966.591,250.273 902.632,250.273 902.632,291.745 
  "/>
<path clip-path="url(#clip600)" d="M977.251 277.42 Q977.251 272.603 980.61 269.268 Q983.97 265.933 988.515 265.933 Q992.369 265.933 994.889 269.07 L994.889 258.126 Q994.889 256.249 994.222 255.78 Q993.579 255.31 990.961 255.31 L990.961 253.729 L998.248 253.186 L998.248 283.892 Q998.248 285.77 998.891 286.264 Q999.558 286.733 1002.18 286.733 L1002.18 288.289 L994.741 288.857 L994.741 285.498 Q992.122 288.833 987.972 288.857 Q983.624 288.857 980.437 285.523 Q977.251 282.188 977.251 277.42 M981.45 277.469 Q981.45 282.163 982.908 284.485 Q984.933 287.721 988.219 287.721 Q991.974 287.721 994.197 284.189 Q994.765 283.324 994.741 282.311 L994.741 271.936 Q994.741 270.923 994.197 270.083 Q992.122 267.044 988.738 267.044 Q985.205 267.044 983.006 270.281 Q981.45 272.701 981.45 277.469 Z" fill="#000000" fill-rule="evenodd" fill-opacity="1" /><path clip-path="url(#clip600)" d="M1006.47 280.607 Q1006.52 279.989 1007.49 279.989 L1038.49 279.989 Q1039.95 279.989 1039.97 280.557 Q1039.97 281.175 1038.59 281.15 L1007.83 281.15 Q1006.47 281.175 1006.47 280.607 M1006.47 270.725 Q1006.47 270.108 1007.54 270.132 L1038.44 270.132 Q1039.95 270.132 1039.97 270.725 Q1039.97 271.293 1038.69 271.293 L1007.49 271.293 Q1006.47 271.293 1006.47 270.725 Z" fill="#000000" fill-rule="evenodd" fill-opacity="1" /><path clip-path="url(#clip600)" d="M1047.43 259.411 L1047.43 257.83 Q1053.51 257.83 1056.65 254.594 Q1057.51 254.594 1057.66 254.792 Q1057.81 254.989 1057.81 255.903 L1057.81 284.287 Q1057.81 285.794 1058.55 286.264 Q1059.29 286.733 1062.53 286.733 L1064.13 286.733 L1064.13 288.289 Q1062.35 288.141 1055.93 288.141 Q1049.51 288.141 1047.75 288.289 L1047.75 286.733 L1049.36 286.733 Q1052.55 286.733 1053.31 286.288 Q1054.08 285.819 1054.08 284.287 L1054.08 258.077 Q1051.43 259.411 1047.43 259.411 Z" fill="#000000" fill-rule="evenodd" fill-opacity="1" /><path clip-path="url(#clip600)" d="M1070.21 272.109 Q1070.21 264.673 1072.09 260.622 Q1074.71 254.594 1080.88 254.594 Q1082.19 254.594 1083.55 254.964 Q1084.93 255.31 1086.66 256.669 Q1088.42 258.028 1089.48 260.251 Q1091.5 264.549 1091.5 272.109 Q1091.5 279.495 1089.63 283.522 Q1086.88 289.401 1080.83 289.401 Q1078.56 289.401 1076.24 288.24 Q1073.94 287.079 1072.48 284.287 Q1070.21 280.112 1070.21 272.109 M1074.41 271.491 Q1074.41 279.124 1074.95 282.163 Q1075.57 285.448 1077.25 286.881 Q1078.95 288.289 1080.83 288.289 Q1082.86 288.289 1084.54 286.782 Q1086.24 285.251 1086.76 281.965 Q1087.33 278.729 1087.3 271.491 Q1087.3 264.451 1086.81 261.634 Q1086.14 258.349 1084.36 257.04 Q1082.61 255.706 1080.83 255.706 Q1080.16 255.706 1079.45 255.903 Q1078.76 256.101 1077.74 256.669 Q1076.73 257.237 1075.94 258.645 Q1075.17 260.053 1074.8 262.178 Q1074.41 264.92 1074.41 271.491 Z" fill="#000000" fill-rule="evenodd" fill-opacity="1" /><path clip-path="url(#clip600)" d="M1095.51 272.109 Q1095.51 264.673 1097.38 260.622 Q1100 254.594 1106.18 254.594 Q1107.49 254.594 1108.85 254.964 Q1110.23 255.31 1111.96 256.669 Q1113.71 258.028 1114.77 260.251 Q1116.8 264.549 1116.8 272.109 Q1116.8 279.495 1114.92 283.522 Q1112.18 289.401 1106.13 289.401 Q1103.86 289.401 1101.53 288.24 Q1099.24 287.079 1097.78 284.287 Q1095.51 280.112 1095.51 272.109 M1099.71 271.491 Q1099.71 279.124 1100.25 282.163 Q1100.87 285.448 1102.55 286.881 Q1104.25 288.289 1106.13 288.289 Q1108.15 288.289 1109.83 286.782 Q1111.54 285.251 1112.06 281.965 Q1112.62 278.729 1112.6 271.491 Q1112.6 264.451 1112.11 261.634 Q1111.44 258.349 1109.66 257.04 Q1107.91 255.706 1106.13 255.706 Q1105.46 255.706 1104.74 255.903 Q1104.05 256.101 1103.04 256.669 Q1102.03 257.237 1101.24 258.645 Q1100.47 260.053 1100.1 262.178 Q1099.71 264.92 1099.71 271.491 Z" fill="#000000" fill-rule="evenodd" fill-opacity="1" /><path clip-path="url(#clip600)" d="M1120.8 272.109 Q1120.8 264.673 1122.68 260.622 Q1125.3 254.594 1131.47 254.594 Q1132.78 254.594 1134.14 254.964 Q1135.52 255.31 1137.25 256.669 Q1139.01 258.028 1140.07 260.251 Q1142.1 264.549 1142.1 272.109 Q1142.1 279.495 1140.22 283.522 Q1137.48 289.401 1131.42 289.401 Q1129.15 289.401 1126.83 288.24 Q1124.53 287.079 1123.07 284.287 Q1120.8 280.112 1120.8 272.109 M1125 271.491 Q1125 279.124 1125.54 282.163 Q1126.16 285.448 1127.84 286.881 Q1129.55 288.289 1131.42 288.289 Q1133.45 288.289 1135.13 286.782 Q1136.83 285.251 1137.35 281.965 Q1137.92 278.729 1137.9 271.491 Q1137.9 264.451 1137.4 261.634 Q1136.74 258.349 1134.96 257.04 Q1133.2 255.706 1131.42 255.706 Q1130.76 255.706 1130.04 255.903 Q1129.35 256.101 1128.34 256.669 Q1127.32 257.237 1126.53 258.645 Q1125.77 260.053 1125.4 262.178 Q1125 264.92 1125 271.491 Z" fill="#000000" fill-rule="evenodd" fill-opacity="1" /></svg>
