<?xml version="1.0" encoding="utf-8"?>
<svg xmlns="http://www.w3.org/2000/svg" xmlns:xlink="http://www.w3.org/1999/xlink" width="300" height="140" viewBox="0 0 1200 560">
<defs>
  <clipPath id="clip570">
    <rect x="0" y="0" width="1200" height="560"/>
  </clipPath>
</defs>
<path clip-path="url(#clip570)" d="
M0 560 L1200 560 L1200 0 L0 0  Z
  " fill="#ffffff" fill-rule="evenodd" fill-opacity="1"/>
<defs>
  <clipPath id="clip571">
    <rect x="240" y="0" width="841" height="560"/>
  </clipPath>
</defs>
<path clip-path="url(#clip570)" d="
M171.163 418.204 L857.031 418.204 L857.031 47.2441 L171.163 47.2441  Z
  " fill="#ffffff" fill-rule="evenodd" fill-opacity="1"/>
<defs>
  <clipPath id="clip572">
    <rect x="171" y="47" width="687" height="372"/>
  </clipPath>
</defs>
<polyline clip-path="url(#clip572)" style="stroke:#000000; stroke-linecap:round; stroke-linejoin:round; stroke-width:2; stroke-opacity:0.1; fill:none" points="
  270.969,418.204 270.969,47.2441 
  "/>
<polyline clip-path="url(#clip572)" style="stroke:#000000; stroke-linecap:round; stroke-linejoin:round; stroke-width:2; stroke-opacity:0.1; fill:none" points="
  433.054,418.204 433.054,47.2441 
  "/>
<polyline clip-path="url(#clip572)" style="stroke:#000000; stroke-linecap:round; stroke-linejoin:round; stroke-width:2; stroke-opacity:0.1; fill:none" points="
  595.14,418.204 595.14,47.2441 
  "/>
<polyline clip-path="url(#clip572)" style="stroke:#000000; stroke-linecap:round; stroke-linejoin:round; stroke-width:2; stroke-opacity:0.1; fill:none" points="
  757.225,418.204 757.225,47.2441 
  "/>
<polyline clip-path="url(#clip570)" style="stroke:#000000; stroke-linecap:round; stroke-linejoin:round; stroke-width:4; stroke-opacity:1; fill:none" points="
  171.163,418.204 857.031,418.204 
  "/>
<polyline clip-path="url(#clip570)" style="stroke:#000000; stroke-linecap:round; stroke-linejoin:round; stroke-width:4; stroke-opacity:1; fill:none" points="
  270.969,418.204 270.969,399.306 
  "/>
<polyline clip-path="url(#clip570)" style="stroke:#000000; stroke-linecap:round; stroke-linejoin:round; stroke-width:4; stroke-opacity:1; fill:none" points="
  433.054,418.204 433.054,399.306 
  "/>
<polyline clip-path="url(#clip570)" style="stroke:#000000; stroke-linecap:round; stroke-linejoin:round; stroke-width:4; stroke-opacity:1; fill:none" points="
  595.14,418.204 595.14,399.306 
  "/>
<polyline clip-path="url(#clip570)" style="stroke:#000000; stroke-linecap:round; stroke-linejoin:round; stroke-width:4; stroke-opacity:1; fill:none" points="
  757.225,418.204 757.225,399.306 
  "/>
<path clip-path="url(#clip570)" d="M234.297 442.126 L234.297 440.545 Q240.374 440.545 243.511 437.308 Q244.376 437.308 244.524 437.506 Q244.672 437.704 244.672 438.618 L244.672 467.002 Q244.672 468.509 245.413 468.978 Q246.154 469.448 249.39 469.448 L250.996 469.448 L250.996 471.004 Q249.217 470.856 242.795 470.856 Q236.372 470.856 234.618 471.004 L234.618 469.448 L236.223 469.448 Q239.41 469.448 240.176 469.003 Q240.942 468.534 240.942 467.002 L240.942 440.792 Q238.299 442.126 234.297 442.126 Z" fill="#000000" fill-rule="evenodd" fill-opacity="1" /><path clip-path="url(#clip570)" d="M257.617 462.852 Q257.617 461.345 258.432 460.777 Q259.247 460.184 260.112 460.184 Q261.273 460.184 261.94 460.925 Q262.631 461.641 262.631 462.654 Q262.631 463.667 261.94 464.408 Q261.273 465.124 260.112 465.124 Q259.543 465.124 259.247 465.026 Q259.914 467.348 261.94 469.028 Q263.99 470.707 266.683 470.707 Q270.067 470.707 272.093 467.422 Q273.303 465.297 273.303 460.48 Q273.303 456.231 272.389 454.107 Q270.981 450.871 268.091 450.871 Q263.99 450.871 261.569 454.403 Q261.273 454.848 260.927 454.873 Q260.433 454.873 260.309 454.601 Q260.21 454.304 260.21 453.539 L260.21 438.568 Q260.21 437.358 260.704 437.358 Q260.902 437.358 261.322 437.506 Q264.509 438.914 268.041 438.939 Q271.673 438.939 274.934 437.457 Q275.181 437.308 275.329 437.308 Q275.823 437.308 275.848 437.877 Q275.848 438.074 275.428 438.667 Q275.032 439.235 274.168 440.001 Q273.303 440.742 272.192 441.459 Q271.08 442.175 269.449 442.669 Q267.844 443.138 266.065 443.138 Q263.941 443.138 261.767 442.471 L261.767 452.328 Q264.385 449.759 268.19 449.759 Q272.241 449.759 275.032 453.02 Q277.824 456.281 277.824 460.826 Q277.824 465.594 274.514 468.855 Q271.228 472.115 266.781 472.115 Q262.73 472.115 260.161 469.225 Q257.617 466.335 257.617 462.852 Z" fill="#000000" fill-rule="evenodd" fill-opacity="1" /><path clip-path="url(#clip570)" d="M282.369 454.823 Q282.369 447.387 284.247 443.336 Q286.865 437.308 293.041 437.308 Q294.35 437.308 295.709 437.679 Q297.093 438.025 298.822 439.384 Q300.576 440.742 301.638 442.966 Q303.664 447.264 303.664 454.823 Q303.664 462.209 301.786 466.236 Q299.044 472.115 292.992 472.115 Q290.719 472.115 288.397 470.954 Q286.1 469.793 284.642 467.002 Q282.369 462.827 282.369 454.823 M286.569 454.206 Q286.569 461.839 287.112 464.877 Q287.73 468.163 289.41 469.596 Q291.114 471.004 292.992 471.004 Q295.017 471.004 296.697 469.497 Q298.402 467.965 298.921 464.68 Q299.489 461.444 299.464 454.206 Q299.464 447.165 298.97 444.349 Q298.303 441.063 296.524 439.754 Q294.77 438.42 292.992 438.42 Q292.325 438.42 291.608 438.618 Q290.917 438.815 289.904 439.384 Q288.891 439.952 288.1 441.36 Q287.335 442.768 286.964 444.892 Q286.569 447.634 286.569 454.206 Z" fill="#000000" fill-rule="evenodd" fill-opacity="1" /><path clip-path="url(#clip570)" d="M307.666 454.823 Q307.666 447.387 309.543 443.336 Q312.162 437.308 318.337 437.308 Q319.647 437.308 321.005 437.679 Q322.389 438.025 324.118 439.384 Q325.872 440.742 326.934 442.966 Q328.96 447.264 328.96 454.823 Q328.96 462.209 327.082 466.236 Q324.34 472.115 318.288 472.115 Q316.015 472.115 313.693 470.954 Q311.396 469.793 309.938 467.002 Q307.666 462.827 307.666 454.823 M311.865 454.206 Q311.865 461.839 312.409 464.877 Q313.026 468.163 314.706 469.596 Q316.411 471.004 318.288 471.004 Q320.314 471.004 321.993 469.497 Q323.698 467.965 324.217 464.68 Q324.785 461.444 324.76 454.206 Q324.76 447.165 324.266 444.349 Q323.599 441.063 321.821 439.754 Q320.067 438.42 318.288 438.42 Q317.621 438.42 316.905 438.618 Q316.213 438.815 315.2 439.384 Q314.187 439.952 313.397 441.36 Q312.631 442.768 312.26 444.892 Q311.865 447.634 311.865 454.206 Z" fill="#000000" fill-rule="evenodd" fill-opacity="1" /><path clip-path="url(#clip570)" d="M394.011 464.186 Q394.011 462.679 394.875 461.962 Q395.74 461.246 396.852 461.246 Q398.013 461.246 398.828 462.012 Q399.668 462.753 399.668 464.062 Q399.668 465.47 398.68 466.261 Q397.716 467.051 396.333 466.854 Q397.543 468.879 399.767 469.793 Q402.015 470.707 404.09 470.707 Q406.264 470.707 408.017 468.83 Q409.796 466.952 409.796 462.358 Q409.796 458.455 408.264 456.207 Q406.758 453.959 403.768 453.959 L401.545 453.959 Q400.779 453.959 400.557 453.884 Q400.335 453.81 400.335 453.39 Q400.335 452.896 401.1 452.797 Q401.866 452.797 403.077 452.649 Q406.016 452.55 407.573 450.006 Q408.981 447.634 408.981 444.25 Q408.981 441.162 407.499 439.878 Q406.041 438.568 404.139 438.568 Q402.36 438.568 400.409 439.309 Q398.457 440.051 397.395 441.706 Q400.532 441.706 400.532 444.25 Q400.532 445.362 399.816 446.103 Q399.124 446.819 397.963 446.819 Q396.852 446.819 396.11 446.128 Q395.369 445.411 395.369 444.201 Q395.369 441.31 397.938 439.309 Q400.532 437.308 404.337 437.308 Q408.092 437.308 410.858 439.285 Q413.65 441.261 413.65 444.3 Q413.65 447.289 411.674 449.734 Q409.697 452.18 406.56 453.193 Q410.414 453.959 412.711 456.577 Q415.008 459.171 415.008 462.358 Q415.008 466.31 411.896 469.225 Q408.783 472.115 404.238 472.115 Q400.038 472.115 397.024 469.843 Q394.011 467.57 394.011 464.186 Z" fill="#000000" fill-rule="evenodd" fill-opacity="1" /><path clip-path="url(#clip570)" d="M419.159 454.823 Q419.159 447.387 421.036 443.336 Q423.655 437.308 429.831 437.308 Q431.14 437.308 432.498 437.679 Q433.882 438.025 435.611 439.384 Q437.365 440.742 438.427 442.966 Q440.453 447.264 440.453 454.823 Q440.453 462.209 438.575 466.236 Q435.833 472.115 429.781 472.115 Q427.508 472.115 425.186 470.954 Q422.889 469.793 421.431 467.002 Q419.159 462.827 419.159 454.823 M423.358 454.206 Q423.358 461.839 423.902 464.877 Q424.519 468.163 426.199 469.596 Q427.904 471.004 429.781 471.004 Q431.807 471.004 433.487 469.497 Q435.191 467.965 435.71 464.68 Q436.278 461.444 436.253 454.206 Q436.253 447.165 435.759 444.349 Q435.092 441.063 433.314 439.754 Q431.56 438.42 429.781 438.42 Q429.114 438.42 428.398 438.618 Q427.706 438.815 426.693 439.384 Q425.68 439.952 424.89 441.36 Q424.124 442.768 423.753 444.892 Q423.358 447.634 423.358 454.206 Z" fill="#000000" fill-rule="evenodd" fill-opacity="1" /><path clip-path="url(#clip570)" d="M444.455 454.823 Q444.455 447.387 446.332 443.336 Q448.951 437.308 455.127 437.308 Q456.436 437.308 457.795 437.679 Q459.178 438.025 460.907 439.384 Q462.661 440.742 463.724 442.966 Q465.749 447.264 465.749 454.823 Q465.749 462.209 463.872 466.236 Q461.13 472.115 455.077 472.115 Q452.805 472.115 450.483 470.954 Q448.185 469.793 446.728 467.002 Q444.455 462.827 444.455 454.823 M448.654 454.206 Q448.654 461.839 449.198 464.877 Q449.816 468.163 451.495 469.596 Q453.2 471.004 455.077 471.004 Q457.103 471.004 458.783 469.497 Q460.487 467.965 461.006 464.68 Q461.574 461.444 461.55 454.206 Q461.55 447.165 461.056 444.349 Q460.389 441.063 458.61 439.754 Q456.856 438.42 455.077 438.42 Q454.41 438.42 453.694 438.618 Q453.002 438.815 451.989 439.384 Q450.977 439.952 450.186 441.36 Q449.42 442.768 449.05 444.892 Q448.654 447.634 448.654 454.206 Z" fill="#000000" fill-rule="evenodd" fill-opacity="1" /><path clip-path="url(#clip570)" d="M469.751 454.823 Q469.751 447.387 471.629 443.336 Q474.247 437.308 480.423 437.308 Q481.732 437.308 483.091 437.679 Q484.474 438.025 486.204 439.384 Q487.958 440.742 489.02 442.966 Q491.045 447.264 491.045 454.823 Q491.045 462.209 489.168 466.236 Q486.426 472.115 480.374 472.115 Q478.101 472.115 475.779 470.954 Q473.481 469.793 472.024 467.002 Q469.751 462.827 469.751 454.823 M473.951 454.206 Q473.951 461.839 474.494 464.877 Q475.112 468.163 476.792 469.596 Q478.496 471.004 480.374 471.004 Q482.399 471.004 484.079 469.497 Q485.784 467.965 486.302 464.68 Q486.871 461.444 486.846 454.206 Q486.846 447.165 486.352 444.349 Q485.685 441.063 483.906 439.754 Q482.152 438.42 480.374 438.42 Q479.707 438.42 478.99 438.618 Q478.298 438.815 477.286 439.384 Q476.273 439.952 475.482 441.36 Q474.717 442.768 474.346 444.892 Q473.951 447.634 473.951 454.206 Z" fill="#000000" fill-rule="evenodd" fill-opacity="1" /><path clip-path="url(#clip570)" d="M556.096 455.021 Q556.096 447.066 560.148 442.2 Q564.199 437.308 569.411 437.308 Q572.45 437.308 574.13 438.865 Q575.834 440.396 575.834 442.768 Q575.834 444.077 575.068 444.645 Q574.303 445.214 573.512 445.214 Q572.598 445.214 571.882 444.596 Q571.165 443.978 571.165 442.867 Q571.165 440.594 573.957 440.594 Q572.647 438.568 569.51 438.568 Q568.547 438.568 567.559 438.865 Q566.57 439.137 565.286 440.075 Q564.001 441.014 563.013 442.496 Q562.025 443.978 561.333 446.77 Q560.642 449.561 560.642 453.193 L560.642 454.403 Q562.717 449.388 566.966 449.413 Q571.215 449.413 574.154 452.649 Q577.094 455.885 577.094 460.678 Q577.094 465.594 574.031 468.855 Q570.968 472.115 566.669 472.115 Q564.742 472.115 562.988 471.3 Q561.259 470.51 559.629 468.682 Q558.023 466.854 557.06 463.346 Q556.096 459.838 556.096 455.021 M560.74 459.566 Q560.74 464.532 561.654 466.903 Q561.803 467.298 562.124 467.842 Q562.47 468.385 563.038 469.102 Q563.631 469.793 564.594 470.263 Q565.558 470.707 566.669 470.707 Q570.054 470.707 571.684 467.422 Q572.549 465.594 572.549 460.628 Q572.549 455.564 571.635 453.711 Q570.078 450.574 566.916 450.574 Q564.792 450.574 563.31 452.032 Q561.852 453.489 561.284 455.441 Q560.74 457.392 560.74 459.566 Z" fill="#000000" fill-rule="evenodd" fill-opacity="1" /><path clip-path="url(#clip570)" d="M581.244 454.823 Q581.244 447.387 583.122 443.336 Q585.74 437.308 591.916 437.308 Q593.225 437.308 594.584 437.679 Q595.967 438.025 597.697 439.384 Q599.451 440.742 600.513 442.966 Q602.539 447.264 602.539 454.823 Q602.539 462.209 600.661 466.236 Q597.919 472.115 591.867 472.115 Q589.594 472.115 587.272 470.954 Q584.974 469.793 583.517 467.002 Q581.244 462.827 581.244 454.823 M585.444 454.206 Q585.444 461.839 585.987 464.877 Q586.605 468.163 588.285 469.596 Q589.989 471.004 591.867 471.004 Q593.892 471.004 595.572 469.497 Q597.277 467.965 597.796 464.68 Q598.364 461.444 598.339 454.206 Q598.339 447.165 597.845 444.349 Q597.178 441.063 595.399 439.754 Q593.645 438.42 591.867 438.42 Q591.2 438.42 590.483 438.618 Q589.792 438.815 588.779 439.384 Q587.766 439.952 586.975 441.36 Q586.21 442.768 585.839 444.892 Q585.444 447.634 585.444 454.206 Z" fill="#000000" fill-rule="evenodd" fill-opacity="1" /><path clip-path="url(#clip570)" d="M606.54 454.823 Q606.54 447.387 608.418 443.336 Q611.037 437.308 617.212 437.308 Q618.522 437.308 619.88 437.679 Q621.264 438.025 622.993 439.384 Q624.747 440.742 625.809 442.966 Q627.835 447.264 627.835 454.823 Q627.835 462.209 625.957 466.236 Q623.215 472.115 617.163 472.115 Q614.89 472.115 612.568 470.954 Q610.271 469.793 608.813 467.002 Q606.54 462.827 606.54 454.823 M610.74 454.206 Q610.74 461.839 611.284 464.877 Q611.901 468.163 613.581 469.596 Q615.285 471.004 617.163 471.004 Q619.189 471.004 620.868 469.497 Q622.573 467.965 623.092 464.68 Q623.66 461.444 623.635 454.206 Q623.635 447.165 623.141 444.349 Q622.474 441.063 620.696 439.754 Q618.942 438.42 617.163 438.42 Q616.496 438.42 615.78 438.618 Q615.088 438.815 614.075 439.384 Q613.062 439.952 612.272 441.36 Q611.506 442.768 611.135 444.892 Q610.74 447.634 610.74 454.206 Z" fill="#000000" fill-rule="evenodd" fill-opacity="1" /><path clip-path="url(#clip570)" d="M631.837 454.823 Q631.837 447.387 633.714 443.336 Q636.333 437.308 642.509 437.308 Q643.818 437.308 645.177 437.679 Q646.56 438.025 648.289 439.384 Q650.043 440.742 651.105 442.966 Q653.131 447.264 653.131 454.823 Q653.131 462.209 651.254 466.236 Q648.512 472.115 642.459 472.115 Q640.186 472.115 637.864 470.954 Q635.567 469.793 634.109 467.002 Q631.837 462.827 631.837 454.823 M636.036 454.206 Q636.036 461.839 636.58 464.877 Q637.197 468.163 638.877 469.596 Q640.582 471.004 642.459 471.004 Q644.485 471.004 646.165 469.497 Q647.869 467.965 648.388 464.68 Q648.956 461.444 648.931 454.206 Q648.931 447.165 648.437 444.349 Q647.77 441.063 645.992 439.754 Q644.238 438.42 642.459 438.42 Q641.792 438.42 641.076 438.618 Q640.384 438.815 639.371 439.384 Q638.358 439.952 637.568 441.36 Q636.802 442.768 636.432 444.892 Q636.036 447.634 636.036 454.206 Z" fill="#000000" fill-rule="evenodd" fill-opacity="1" /><path clip-path="url(#clip570)" d="M697.246 442.126 L697.246 440.545 Q703.323 440.545 706.46 437.308 Q707.325 437.308 707.473 437.506 Q707.621 437.704 707.621 438.618 L707.621 467.002 Q707.621 468.509 708.362 468.978 Q709.103 469.448 712.339 469.448 L713.945 469.448 L713.945 471.004 Q712.167 470.856 705.744 470.856 Q699.321 470.856 697.567 471.004 L697.567 469.448 L699.173 469.448 Q702.359 469.448 703.125 469.003 Q703.891 468.534 703.891 467.002 L703.891 440.792 Q701.248 442.126 697.246 442.126 Z" fill="#000000" fill-rule="evenodd" fill-opacity="1" /><path clip-path="url(#clip570)" d="M720.566 471.004 Q720.566 470.09 720.64 469.818 Q720.739 469.546 721.134 469.126 L730.842 458.306 Q736.154 452.328 736.154 447.116 Q736.154 443.731 734.375 441.31 Q732.621 438.889 729.385 438.889 Q727.162 438.889 725.284 440.248 Q723.407 441.607 722.542 444.028 Q722.69 443.978 723.209 443.978 Q724.469 443.978 725.161 444.769 Q725.877 445.559 725.877 446.622 Q725.877 447.98 724.988 448.647 Q724.123 449.29 723.258 449.29 Q722.913 449.29 722.443 449.215 Q721.998 449.141 721.282 448.45 Q720.566 447.733 720.566 446.473 Q720.566 442.941 723.234 440.125 Q725.926 437.308 730.027 437.308 Q734.671 437.308 737.71 440.075 Q740.773 442.817 740.773 447.116 Q740.773 448.623 740.304 450.006 Q739.859 451.365 739.241 452.427 Q738.649 453.489 737.018 455.194 Q735.388 456.898 734.078 458.109 Q732.769 459.319 729.829 461.888 L724.469 467.101 L733.584 467.101 Q738.031 467.101 738.377 466.705 Q738.871 465.989 739.488 462.209 L740.773 462.209 L739.34 471.004 L720.566 471.004 Z" fill="#000000" fill-rule="evenodd" fill-opacity="1" /><path clip-path="url(#clip570)" d="M745.318 454.823 Q745.318 447.387 747.196 443.336 Q749.814 437.308 755.99 437.308 Q757.3 437.308 758.658 437.679 Q760.042 438.025 761.771 439.384 Q763.525 440.742 764.587 442.966 Q766.613 447.264 766.613 454.823 Q766.613 462.209 764.735 466.236 Q761.993 472.115 755.941 472.115 Q753.668 472.115 751.346 470.954 Q749.049 469.793 747.591 467.002 Q745.318 462.827 745.318 454.823 M749.518 454.206 Q749.518 461.839 750.062 464.877 Q750.679 468.163 752.359 469.596 Q754.063 471.004 755.941 471.004 Q757.967 471.004 759.646 469.497 Q761.351 467.965 761.87 464.68 Q762.438 461.444 762.413 454.206 Q762.413 447.165 761.919 444.349 Q761.252 441.063 759.473 439.754 Q757.72 438.42 755.941 438.42 Q755.274 438.42 754.558 438.618 Q753.866 438.815 752.853 439.384 Q751.84 439.952 751.05 441.36 Q750.284 442.768 749.913 444.892 Q749.518 447.634 749.518 454.206 Z" fill="#000000" fill-rule="evenodd" fill-opacity="1" /><path clip-path="url(#clip570)" d="M770.615 454.823 Q770.615 447.387 772.492 443.336 Q775.111 437.308 781.287 437.308 Q782.596 437.308 783.955 437.679 Q785.338 438.025 787.067 439.384 Q788.821 440.742 789.883 442.966 Q791.909 447.264 791.909 454.823 Q791.909 462.209 790.032 466.236 Q787.289 472.115 781.237 472.115 Q778.964 472.115 776.642 470.954 Q774.345 469.793 772.887 467.002 Q770.615 462.827 770.615 454.823 M774.814 454.206 Q774.814 461.839 775.358 464.877 Q775.975 468.163 777.655 469.596 Q779.36 471.004 781.237 471.004 Q783.263 471.004 784.943 469.497 Q786.647 467.965 787.166 464.68 Q787.734 461.444 787.709 454.206 Q787.709 447.165 787.215 444.349 Q786.548 441.063 784.77 439.754 Q783.016 438.42 781.237 438.42 Q780.57 438.42 779.854 438.618 Q779.162 438.815 778.149 439.384 Q777.136 439.952 776.346 441.36 Q775.58 442.768 775.21 444.892 Q774.814 447.634 774.814 454.206 Z" fill="#000000" fill-rule="evenodd" fill-opacity="1" /><path clip-path="url(#clip570)" d="M795.911 454.823 Q795.911 447.387 797.788 443.336 Q800.407 437.308 806.583 437.308 Q807.892 437.308 809.251 437.679 Q810.634 438.025 812.363 439.384 Q814.117 440.742 815.18 442.966 Q817.205 447.264 817.205 454.823 Q817.205 462.209 815.328 466.236 Q812.586 472.115 806.533 472.115 Q804.261 472.115 801.939 470.954 Q799.641 469.793 798.184 467.002 Q795.911 462.827 795.911 454.823 M800.111 454.206 Q800.111 461.839 800.654 464.877 Q801.272 468.163 802.951 469.596 Q804.656 471.004 806.533 471.004 Q808.559 471.004 810.239 469.497 Q811.943 467.965 812.462 464.68 Q813.03 461.444 813.006 454.206 Q813.006 447.165 812.512 444.349 Q811.845 441.063 810.066 439.754 Q808.312 438.42 806.533 438.42 Q805.866 438.42 805.15 438.618 Q804.458 438.815 803.445 439.384 Q802.433 439.952 801.642 441.36 Q800.876 442.768 800.506 444.892 Q800.111 447.634 800.111 454.206 Z" fill="#000000" fill-rule="evenodd" fill-opacity="1" /><path clip-path="url(#clip570)" d="M383.392 545.068 L383.392 542.928 L385.056 542.928 Q388.826 542.928 389.676 542.317 Q390.559 541.671 390.559 539.633 L390.559 503.186 Q390.559 501.182 389.676 500.571 Q388.792 499.926 385.056 499.926 L383.392 499.926 L383.392 497.752 L422.556 497.752 L424.492 513.41 L422.76 513.41 Q422.284 509.436 421.639 507.161 Q421.027 504.851 419.499 503.084 Q418.004 501.318 415.525 500.639 Q413.079 499.926 409.105 499.926 L400.137 499.926 Q397.76 499.926 397.25 500.435 Q396.741 500.911 396.741 502.711 L396.741 519.389 L402.991 519.389 Q407.78 519.389 409.139 517.724 Q410.497 516.06 410.497 511.271 L412.264 511.271 L412.264 529.681 L410.497 529.681 Q410.497 524.959 409.139 523.261 Q407.78 521.563 402.991 521.563 L396.741 521.563 L396.741 540.143 Q396.741 541.943 397.25 542.452 Q397.794 542.928 400.137 542.928 L409.41 542.928 Q412.4 542.928 414.573 542.554 Q416.781 542.147 418.31 541.196 Q419.838 540.211 420.857 539.09 Q421.91 537.969 422.624 535.965 Q423.371 533.927 423.779 532.058 Q424.22 530.19 424.696 527.133 L426.428 527.133 L423.507 545.068 L383.392 545.068 Z" fill="#000000" fill-rule="evenodd" fill-opacity="1" /><path clip-path="url(#clip570)" d="M430.3 556.413 Q434.003 556.413 434.852 555.937 Q435.735 555.496 435.735 553.288 L435.735 520.713 Q435.735 518.404 434.852 517.826 Q434.003 517.249 430.3 517.249 L430.3 515.075 L440.321 514.328 L440.321 518.913 Q444.498 514.328 450.069 514.328 Q455.979 514.328 460.293 518.913 Q464.607 523.499 464.607 530.054 Q464.607 536.678 460.021 541.264 Q455.436 545.849 449.084 545.849 Q445.619 545.849 443.276 544.083 Q440.966 542.283 440.524 540.958 L440.524 541.603 L440.524 553.288 Q440.524 555.53 441.407 555.971 Q442.291 556.413 445.959 556.413 L445.959 558.553 Q438.656 558.349 438.113 558.349 Q437.433 558.349 430.3 558.553 L430.3 556.413 M440.524 537.154 Q440.524 538.206 440.66 538.58 Q440.83 538.954 441.509 540.075 Q444.261 544.287 448.744 544.287 Q448.778 544.287 448.812 544.287 Q452.786 544.287 455.81 540.245 Q458.833 536.168 458.833 530.054 Q458.833 524.212 456.081 520.136 Q453.33 516.06 449.526 516.06 Q446.808 516.06 444.431 517.521 Q442.053 518.981 440.524 521.631 L440.524 537.154 Z" fill="#000000" fill-rule="evenodd" fill-opacity="1" /><path clip-path="url(#clip570)" d="M469.26 545.068 L469.26 542.928 Q472.963 542.928 473.812 542.486 Q474.661 542.011 474.661 539.769 L474.661 521.053 Q474.661 518.472 473.778 517.86 Q472.929 517.249 469.532 517.249 L469.532 515.075 L479.247 514.328 L479.247 539.837 Q479.247 541.909 479.994 542.418 Q480.741 542.928 484.138 542.928 L484.138 545.068 Q477.039 544.864 476.903 544.864 Q475.952 544.864 469.26 545.068 M472.182 502.201 Q472.182 500.809 473.235 499.688 Q474.322 498.533 475.85 498.533 Q477.379 498.533 478.466 499.586 Q479.553 500.605 479.553 502.235 Q479.553 503.832 478.466 504.885 Q477.379 505.904 475.85 505.904 Q474.254 505.904 473.201 504.783 Q472.182 503.662 472.182 502.201 Z" fill="#000000" fill-rule="evenodd" fill-opacity="1" /><path clip-path="url(#clip570)" d="M488.52 544.151 L488.52 534.98 Q488.52 534.198 488.554 533.927 Q488.588 533.655 488.792 533.451 Q488.995 533.247 489.403 533.247 Q489.879 533.247 490.048 533.451 Q490.252 533.655 490.388 534.436 Q491.441 539.225 493.683 541.773 Q495.959 544.287 500.069 544.287 Q503.975 544.287 505.945 542.554 Q507.915 540.822 507.915 537.969 Q507.915 532.874 500.68 531.583 Q496.502 530.734 494.77 530.19 Q493.037 529.613 491.509 528.356 Q488.52 525.91 488.52 522.446 Q488.52 518.981 491.135 516.434 Q493.785 513.886 499.627 513.886 Q503.533 513.886 506.183 515.856 Q506.964 515.245 507.372 514.735 Q508.289 513.886 508.764 513.886 Q509.308 513.886 509.41 514.26 Q509.512 514.599 509.512 515.584 L509.512 522.582 Q509.512 523.363 509.478 523.635 Q509.444 523.906 509.24 524.11 Q509.036 524.28 508.594 524.28 Q507.813 524.28 507.779 523.635 Q507.236 515.211 499.627 515.211 Q495.517 515.211 493.683 516.807 Q491.849 518.37 491.849 520.51 Q491.849 521.698 492.392 522.616 Q492.97 523.499 493.683 524.042 Q494.43 524.552 495.789 525.061 Q497.148 525.537 497.963 525.707 Q498.812 525.876 500.408 526.216 Q505.979 527.269 508.323 529.545 Q511.244 532.466 511.244 536.168 Q511.244 540.278 508.459 543.064 Q505.673 545.849 500.069 545.849 Q495.551 545.849 492.392 542.826 Q491.984 543.234 491.679 543.607 Q491.373 543.947 491.237 544.083 Q491.135 544.219 491.101 544.321 Q491.067 544.389 490.999 544.456 Q489.607 545.849 489.267 545.849 Q488.724 545.849 488.622 545.475 Q488.52 545.136 488.52 544.151 Z" fill="#000000" fill-rule="evenodd" fill-opacity="1" /><path clip-path="url(#clip570)" d="M520.109 541.331 Q515.524 536.78 515.524 530.19 Q515.524 523.567 520.007 518.743 Q524.525 513.886 530.979 513.886 Q537.297 513.886 541.814 518.709 Q546.366 523.499 546.366 530.19 Q546.366 536.746 541.78 541.297 Q537.229 545.849 530.911 545.849 Q524.729 545.849 520.109 541.331 M521.298 529.613 Q521.298 536.372 523.064 539.429 Q525.782 544.083 530.979 544.083 Q533.56 544.083 535.7 542.69 Q537.874 541.297 539.063 538.954 Q540.591 535.897 540.591 529.613 Q540.591 522.921 538.757 519.966 Q536.04 515.449 530.911 515.449 Q528.669 515.449 526.461 516.637 Q524.287 517.792 522.963 520.102 Q521.298 523.159 521.298 529.613 Z" fill="#000000" fill-rule="evenodd" fill-opacity="1" /><path clip-path="url(#clip570)" d="M552.684 530.122 Q552.684 523.499 557.303 518.913 Q561.923 514.328 568.173 514.328 Q573.472 514.328 576.936 518.641 L576.936 503.594 Q576.936 501.012 576.019 500.367 Q575.136 499.722 571.535 499.722 L571.535 497.548 L581.556 496.801 L581.556 539.022 Q581.556 541.603 582.439 542.283 Q583.356 542.928 586.957 542.928 L586.957 545.068 L576.732 545.849 L576.732 541.23 Q573.132 545.815 567.425 545.849 Q561.447 545.849 557.065 541.264 Q552.684 536.678 552.684 530.122 M558.458 530.19 Q558.458 536.644 560.462 539.837 Q563.248 544.287 567.765 544.287 Q572.928 544.287 575.985 539.429 Q576.766 538.24 576.732 536.848 L576.732 522.582 Q576.732 521.189 575.985 520.034 Q573.132 515.856 568.478 515.856 Q563.621 515.856 560.598 520.306 Q558.458 523.635 558.458 530.19 Z" fill="#000000" fill-rule="evenodd" fill-opacity="1" /><path clip-path="url(#clip570)" d="M590.829 529.749 Q590.829 523.193 595.041 518.54 Q599.253 513.886 605.299 513.886 Q611.413 513.886 614.572 517.86 Q617.765 521.834 617.765 527.541 Q617.765 528.594 617.493 528.798 Q617.221 529.001 616.032 529.001 L596.603 529.001 Q596.603 536.101 598.709 539.429 Q601.63 544.083 606.556 544.083 Q607.235 544.083 608.05 543.947 Q608.865 543.811 610.53 543.234 Q612.194 542.622 613.655 541.026 Q615.115 539.429 615.964 536.916 Q616.168 535.931 616.848 535.965 Q617.765 535.965 617.765 536.78 Q617.765 537.391 617.085 538.784 Q616.44 540.143 615.183 541.773 Q613.926 543.403 611.481 544.626 Q609.069 545.849 606.148 545.849 Q600.034 545.849 595.414 541.23 Q590.829 536.576 590.829 529.749 M596.671 527.541 L613.179 527.541 Q613.179 526.08 612.907 524.45 Q612.67 522.819 611.922 520.578 Q611.209 518.302 609.511 516.875 Q607.812 515.449 605.299 515.449 Q604.178 515.449 602.955 515.924 Q601.766 516.4 600.306 517.554 Q598.845 518.709 597.826 521.325 Q596.807 523.94 596.671 527.541 Z" fill="#000000" fill-rule="evenodd" fill-opacity="1" /><path clip-path="url(#clip570)" d="M622.079 544.151 L622.079 534.98 Q622.079 534.198 622.113 533.927 Q622.147 533.655 622.35 533.451 Q622.554 533.247 622.962 533.247 Q623.437 533.247 623.607 533.451 Q623.811 533.655 623.947 534.436 Q625 539.225 627.242 541.773 Q629.517 544.287 633.627 544.287 Q637.534 544.287 639.504 542.554 Q641.474 540.822 641.474 537.969 Q641.474 532.874 634.239 531.583 Q630.061 530.734 628.329 530.19 Q626.596 529.613 625.068 528.356 Q622.079 525.91 622.079 522.446 Q622.079 518.981 624.694 516.434 Q627.343 513.886 633.186 513.886 Q637.092 513.886 639.741 515.856 Q640.523 515.245 640.93 514.735 Q641.847 513.886 642.323 513.886 Q642.866 513.886 642.968 514.26 Q643.07 514.599 643.07 515.584 L643.07 522.582 Q643.07 523.363 643.036 523.635 Q643.002 523.906 642.799 524.11 Q642.595 524.28 642.153 524.28 Q641.372 524.28 641.338 523.635 Q640.794 515.211 633.186 515.211 Q629.076 515.211 627.242 516.807 Q625.407 518.37 625.407 520.51 Q625.407 521.698 625.951 522.616 Q626.528 523.499 627.242 524.042 Q627.989 524.552 629.348 525.061 Q630.706 525.537 631.521 525.707 Q632.371 525.876 633.967 526.216 Q639.538 527.269 641.881 529.545 Q644.803 532.466 644.803 536.168 Q644.803 540.278 642.017 543.064 Q639.232 545.849 633.627 545.849 Q629.11 545.849 625.951 542.826 Q625.543 543.234 625.238 543.607 Q624.932 543.947 624.796 544.083 Q624.694 544.219 624.66 544.321 Q624.626 544.389 624.558 544.456 Q623.166 545.849 622.826 545.849 Q622.282 545.849 622.18 545.475 Q622.079 545.136 622.079 544.151 Z" fill="#000000" fill-rule="evenodd" fill-opacity="1" /><polyline clip-path="url(#clip572)" style="stroke:#000000; stroke-linecap:round; stroke-linejoin:round; stroke-width:2; stroke-opacity:0.1; fill:none" points="
  171.163,407.705 857.031,407.705 
  "/>
<polyline clip-path="url(#clip572)" style="stroke:#000000; stroke-linecap:round; stroke-linejoin:round; stroke-width:2; stroke-opacity:0.1; fill:none" points="
  171.163,347.326 857.031,347.326 
  "/>
<polyline clip-path="url(#clip572)" style="stroke:#000000; stroke-linecap:round; stroke-linejoin:round; stroke-width:2; stroke-opacity:0.1; fill:none" points="
  171.163,286.947 857.031,286.947 
  "/>
<polyline clip-path="url(#clip572)" style="stroke:#000000; stroke-linecap:round; stroke-linejoin:round; stroke-width:2; stroke-opacity:0.1; fill:none" points="
  171.163,226.568 857.031,226.568 
  "/>
<polyline clip-path="url(#clip572)" style="stroke:#000000; stroke-linecap:round; stroke-linejoin:round; stroke-width:2; stroke-opacity:0.1; fill:none" points="
  171.163,166.189 857.031,166.189 
  "/>
<polyline clip-path="url(#clip572)" style="stroke:#000000; stroke-linecap:round; stroke-linejoin:round; stroke-width:2; stroke-opacity:0.1; fill:none" points="
  171.163,105.81 857.031,105.81 
  "/>
<polyline clip-path="url(#clip570)" style="stroke:#000000; stroke-linecap:round; stroke-linejoin:round; stroke-width:4; stroke-opacity:1; fill:none" points="
  171.163,418.204 171.163,47.2441 
  "/>
<polyline clip-path="url(#clip570)" style="stroke:#000000; stroke-linecap:round; stroke-linejoin:round; stroke-width:4; stroke-opacity:1; fill:none" points="
  171.163,407.705 184.367,407.705 
  "/>
<polyline clip-path="url(#clip570)" style="stroke:#000000; stroke-linecap:round; stroke-linejoin:round; stroke-width:4; stroke-opacity:1; fill:none" points="
  171.163,347.326 184.367,347.326 
  "/>
<polyline clip-path="url(#clip570)" style="stroke:#000000; stroke-linecap:round; stroke-linejoin:round; stroke-width:4; stroke-opacity:1; fill:none" points="
  171.163,286.947 184.367,286.947 
  "/>
<polyline clip-path="url(#clip570)" style="stroke:#000000; stroke-linecap:round; stroke-linejoin:round; stroke-width:4; stroke-opacity:1; fill:none" points="
  171.163,226.568 184.367,226.568 
  "/>
<polyline clip-path="url(#clip570)" style="stroke:#000000; stroke-linecap:round; stroke-linejoin:round; stroke-width:4; stroke-opacity:1; fill:none" points="
  171.163,166.189 184.367,166.189 
  "/>
<polyline clip-path="url(#clip570)" style="stroke:#000000; stroke-linecap:round; stroke-linejoin:round; stroke-width:4; stroke-opacity:1; fill:none" points="
  171.163,105.81 184.367,105.81 
  "/>
<path clip-path="url(#clip570)" d="M131.869 408.804 Q131.869 401.369 133.746 397.317 Q136.365 391.29 142.54 391.29 Q143.85 391.29 145.208 391.66 Q146.592 392.006 148.321 393.365 Q150.075 394.723 151.137 396.947 Q153.163 401.245 153.163 408.804 Q153.163 416.191 151.285 420.217 Q148.543 426.097 142.491 426.097 Q140.218 426.097 137.896 424.936 Q135.599 423.775 134.141 420.983 Q131.869 416.808 131.869 408.804 M136.068 408.187 Q136.068 415.82 136.612 418.859 Q137.229 422.144 138.909 423.577 Q140.614 424.985 142.491 424.985 Q144.517 424.985 146.197 423.478 Q147.901 421.946 148.42 418.661 Q148.988 415.425 148.963 408.187 Q148.963 401.146 148.469 398.33 Q147.802 395.045 146.024 393.735 Q144.27 392.401 142.491 392.401 Q141.824 392.401 141.108 392.599 Q140.416 392.797 139.403 393.365 Q138.39 393.933 137.6 395.341 Q136.834 396.749 136.463 398.874 Q136.068 401.616 136.068 408.187 Z" fill="#000000" fill-rule="evenodd" fill-opacity="1" /><path clip-path="url(#clip570)" d="M109.092 335.728 L109.092 334.147 Q115.169 334.147 118.306 330.911 Q119.171 330.911 119.319 331.108 Q119.467 331.306 119.467 332.22 L119.467 360.604 Q119.467 362.111 120.209 362.58 Q120.95 363.05 124.186 363.05 L125.792 363.05 L125.792 364.606 Q124.013 364.458 117.59 364.458 Q111.167 364.458 109.413 364.606 L109.413 363.05 L111.019 363.05 Q114.206 363.05 114.971 362.605 Q115.737 362.136 115.737 360.604 L115.737 334.394 Q113.094 335.728 109.092 335.728 Z" fill="#000000" fill-rule="evenodd" fill-opacity="1" /><path clip-path="url(#clip570)" d="M131.869 348.425 Q131.869 340.99 133.746 336.938 Q136.365 330.911 142.54 330.911 Q143.85 330.911 145.208 331.281 Q146.592 331.627 148.321 332.986 Q150.075 334.344 151.137 336.568 Q153.163 340.866 153.163 348.425 Q153.163 355.812 151.285 359.838 Q148.543 365.718 142.491 365.718 Q140.218 365.718 137.896 364.557 Q135.599 363.396 134.141 360.604 Q131.869 356.429 131.869 348.425 M136.068 347.808 Q136.068 355.441 136.612 358.48 Q137.229 361.765 138.909 363.198 Q140.614 364.606 142.491 364.606 Q144.517 364.606 146.197 363.099 Q147.901 361.568 148.42 358.282 Q148.988 355.046 148.963 347.808 Q148.963 340.767 148.469 337.951 Q147.802 334.666 146.024 333.356 Q144.27 332.022 142.491 332.022 Q141.824 332.022 141.108 332.22 Q140.416 332.418 139.403 332.986 Q138.39 333.554 137.6 334.962 Q136.834 336.37 136.463 338.495 Q136.068 341.237 136.068 347.808 Z" fill="#000000" fill-rule="evenodd" fill-opacity="1" /><path clip-path="url(#clip570)" d="M107.116 304.227 Q107.116 303.313 107.19 303.041 Q107.289 302.77 107.684 302.35 L117.392 291.53 Q122.704 285.551 122.704 280.339 Q122.704 276.955 120.925 274.534 Q119.171 272.113 115.935 272.113 Q113.712 272.113 111.834 273.471 Q109.957 274.83 109.092 277.251 Q109.24 277.202 109.759 277.202 Q111.019 277.202 111.711 277.992 Q112.427 278.783 112.427 279.845 Q112.427 281.204 111.538 281.871 Q110.673 282.513 109.808 282.513 Q109.463 282.513 108.993 282.439 Q108.549 282.365 107.832 281.673 Q107.116 280.956 107.116 279.697 Q107.116 276.164 109.784 273.348 Q112.476 270.532 116.577 270.532 Q121.221 270.532 124.26 273.298 Q127.323 276.041 127.323 280.339 Q127.323 281.846 126.854 283.229 Q126.409 284.588 125.792 285.65 Q125.199 286.712 123.568 288.417 Q121.938 290.121 120.629 291.332 Q119.319 292.542 116.38 295.112 L111.019 300.324 L120.134 300.324 Q124.581 300.324 124.927 299.929 Q125.421 299.212 126.039 295.433 L127.323 295.433 L125.89 304.227 L107.116 304.227 Z" fill="#000000" fill-rule="evenodd" fill-opacity="1" /><path clip-path="url(#clip570)" d="M131.869 288.046 Q131.869 280.611 133.746 276.559 Q136.365 270.532 142.54 270.532 Q143.85 270.532 145.208 270.902 Q146.592 271.248 148.321 272.607 Q150.075 273.965 151.137 276.189 Q153.163 280.487 153.163 288.046 Q153.163 295.433 151.285 299.459 Q148.543 305.339 142.491 305.339 Q140.218 305.339 137.896 304.178 Q135.599 303.017 134.141 300.225 Q131.869 296.05 131.869 288.046 M136.068 287.429 Q136.068 295.062 136.612 298.101 Q137.229 301.386 138.909 302.819 Q140.614 304.227 142.491 304.227 Q144.517 304.227 146.197 302.72 Q147.901 301.189 148.42 297.903 Q148.988 294.667 148.963 287.429 Q148.963 280.388 148.469 277.572 Q147.802 274.287 146.024 272.977 Q144.27 271.643 142.491 271.643 Q141.824 271.643 141.108 271.841 Q140.416 272.039 139.403 272.607 Q138.39 273.175 137.6 274.583 Q136.834 275.991 136.463 278.116 Q136.068 280.858 136.068 287.429 Z" fill="#000000" fill-rule="evenodd" fill-opacity="1" /><path clip-path="url(#clip570)" d="M106.721 237.03 Q106.721 235.523 107.585 234.807 Q108.45 234.09 109.561 234.09 Q110.722 234.09 111.538 234.856 Q112.378 235.597 112.378 236.906 Q112.378 238.315 111.389 239.105 Q110.426 239.896 109.043 239.698 Q110.253 241.724 112.476 242.638 Q114.724 243.552 116.8 243.552 Q118.973 243.552 120.727 241.674 Q122.506 239.797 122.506 235.202 Q122.506 231.299 120.974 229.051 Q119.467 226.803 116.478 226.803 L114.255 226.803 Q113.489 226.803 113.267 226.729 Q113.045 226.655 113.045 226.235 Q113.045 225.741 113.81 225.642 Q114.576 225.642 115.787 225.493 Q118.726 225.395 120.283 222.85 Q121.691 220.479 121.691 217.094 Q121.691 214.006 120.209 212.722 Q118.751 211.413 116.849 211.413 Q115.07 211.413 113.119 212.154 Q111.167 212.895 110.105 214.55 Q113.242 214.55 113.242 217.094 Q113.242 218.206 112.526 218.947 Q111.834 219.663 110.673 219.663 Q109.561 219.663 108.82 218.972 Q108.079 218.255 108.079 217.045 Q108.079 214.155 110.648 212.154 Q113.242 210.153 117.047 210.153 Q120.801 210.153 123.568 212.129 Q126.36 214.105 126.36 217.144 Q126.36 220.133 124.383 222.578 Q122.407 225.024 119.27 226.037 Q123.124 226.803 125.421 229.421 Q127.718 232.015 127.718 235.202 Q127.718 239.154 124.606 242.069 Q121.493 244.96 116.948 244.96 Q112.748 244.96 109.734 242.687 Q106.721 240.414 106.721 237.03 Z" fill="#000000" fill-rule="evenodd" fill-opacity="1" /><path clip-path="url(#clip570)" d="M131.869 227.667 Q131.869 220.232 133.746 216.18 Q136.365 210.153 142.54 210.153 Q143.85 210.153 145.208 210.523 Q146.592 210.869 148.321 212.228 Q150.075 213.586 151.137 215.81 Q153.163 220.108 153.163 227.667 Q153.163 235.054 151.285 239.08 Q148.543 244.96 142.491 244.96 Q140.218 244.96 137.896 243.799 Q135.599 242.638 134.141 239.846 Q131.869 235.671 131.869 227.667 M136.068 227.05 Q136.068 234.683 136.612 237.722 Q137.229 241.007 138.909 242.44 Q140.614 243.848 142.491 243.848 Q144.517 243.848 146.197 242.341 Q147.901 240.81 148.42 237.524 Q148.988 234.288 148.963 227.05 Q148.963 220.009 148.469 217.193 Q147.802 213.908 146.024 212.598 Q144.27 211.264 142.491 211.264 Q141.824 211.264 141.108 211.462 Q140.416 211.66 139.403 212.228 Q138.39 212.796 137.6 214.204 Q136.834 215.612 136.463 217.737 Q136.068 220.479 136.068 227.05 Z" fill="#000000" fill-rule="evenodd" fill-opacity="1" /><path clip-path="url(#clip570)" d="M106.004 175.119 L106.004 173.563 L121.543 149.823 Q121.938 149.206 122.555 149.23 Q123.124 149.23 123.247 149.453 Q123.371 149.675 123.371 150.54 L123.371 173.563 L128.435 173.563 L128.435 175.119 L123.371 175.119 L123.371 179.517 Q123.371 180.974 123.963 181.443 Q124.581 181.913 127.2 181.913 L128.262 181.913 L128.262 183.469 Q126.187 183.321 121.394 183.321 Q116.627 183.321 114.552 183.469 L114.552 181.913 L115.614 181.913 Q118.232 181.913 118.85 181.468 Q119.467 180.999 119.467 179.517 L119.467 175.119 L106.004 175.119 M107.437 173.563 L119.764 173.563 L119.764 154.69 L107.437 173.563 Z" fill="#000000" fill-rule="evenodd" fill-opacity="1" /><path clip-path="url(#clip570)" d="M131.869 167.288 Q131.869 159.853 133.746 155.801 Q136.365 149.774 142.54 149.774 Q143.85 149.774 145.208 150.144 Q146.592 150.49 148.321 151.849 Q150.075 153.207 151.137 155.431 Q153.163 159.729 153.163 167.288 Q153.163 174.675 151.285 178.701 Q148.543 184.581 142.491 184.581 Q140.218 184.581 137.896 183.42 Q135.599 182.259 134.141 179.467 Q131.869 175.292 131.869 167.288 M136.068 166.671 Q136.068 174.304 136.612 177.343 Q137.229 180.628 138.909 182.061 Q140.614 183.469 142.491 183.469 Q144.517 183.469 146.197 181.962 Q147.901 180.431 148.42 177.145 Q148.988 173.909 148.963 166.671 Q148.963 159.63 148.469 156.814 Q147.802 153.529 146.024 152.219 Q144.27 150.885 142.491 150.885 Q141.824 150.885 141.108 151.083 Q140.416 151.281 139.403 151.849 Q138.39 152.417 137.6 153.825 Q136.834 155.233 136.463 157.358 Q136.068 160.1 136.068 166.671 Z" fill="#000000" fill-rule="evenodd" fill-opacity="1" /><path clip-path="url(#clip570)" d="M107.116 114.938 Q107.116 113.431 107.931 112.863 Q108.746 112.27 109.611 112.27 Q110.772 112.27 111.439 113.011 Q112.131 113.728 112.131 114.74 Q112.131 115.753 111.439 116.494 Q110.772 117.211 109.611 117.211 Q109.043 117.211 108.746 117.112 Q109.413 119.434 111.439 121.114 Q113.489 122.794 116.182 122.794 Q119.566 122.794 121.592 119.508 Q122.802 117.384 122.802 112.567 Q122.802 108.318 121.888 106.193 Q120.48 102.957 117.59 102.957 Q113.489 102.957 111.068 106.489 Q110.772 106.934 110.426 106.959 Q109.932 106.959 109.808 106.687 Q109.71 106.391 109.71 105.625 L109.71 90.6546 Q109.71 89.4442 110.204 89.4442 Q110.401 89.4442 110.821 89.5924 Q114.008 91.0005 117.541 91.0252 Q121.172 91.0252 124.433 89.543 Q124.68 89.3948 124.828 89.3948 Q125.322 89.3948 125.347 89.9629 Q125.347 90.1606 124.927 90.7534 Q124.532 91.3216 123.667 92.0874 Q122.802 92.8285 121.691 93.5449 Q120.579 94.2613 118.949 94.7554 Q117.343 95.2248 115.564 95.2248 Q113.44 95.2248 111.266 94.5578 L111.266 104.414 Q113.885 101.845 117.689 101.845 Q121.74 101.845 124.532 105.106 Q127.323 108.367 127.323 112.912 Q127.323 117.68 124.013 120.941 Q120.727 124.202 116.281 124.202 Q112.229 124.202 109.66 121.312 Q107.116 118.421 107.116 114.938 Z" fill="#000000" fill-rule="evenodd" fill-opacity="1" /><path clip-path="url(#clip570)" d="M131.869 106.909 Q131.869 99.4737 133.746 95.4224 Q136.365 89.3948 142.54 89.3948 Q143.85 89.3948 145.208 89.7653 Q146.592 90.1112 148.321 91.4698 Q150.075 92.8285 151.137 95.0518 Q153.163 99.3502 153.163 106.909 Q153.163 114.296 151.285 118.322 Q148.543 124.202 142.491 124.202 Q140.218 124.202 137.896 123.041 Q135.599 121.88 134.141 119.088 Q131.869 114.913 131.869 106.909 M136.068 106.292 Q136.068 113.925 136.612 116.964 Q137.229 120.249 138.909 121.682 Q140.614 123.09 142.491 123.09 Q144.517 123.09 146.197 121.583 Q147.901 120.052 148.42 116.766 Q148.988 113.53 148.963 106.292 Q148.963 99.2514 148.469 96.4352 Q147.802 93.1497 146.024 91.8404 Q144.27 90.5064 142.491 90.5064 Q141.824 90.5064 141.108 90.704 Q140.416 90.9017 139.403 91.4698 Q138.39 92.038 137.6 93.4461 Q136.834 94.8542 136.463 96.9787 Q136.068 99.7208 136.068 106.292 Z" fill="#000000" fill-rule="evenodd" fill-opacity="1" /><path clip-path="url(#clip570)" d="M35.5691 465.195 Q29.5909 465.195 25.5828 462.138 Q21.5747 459.081 21.5747 454.971 Q21.5747 452.457 23.8165 449.978 Q29.1833 444.339 29.1493 436.968 Q29.1493 428.612 22.5597 423.755 Q21.5747 422.906 21.5747 422.294 Q21.5747 421.751 22.0162 421.343 Q22.4238 420.902 22.9673 420.902 Q23.3749 420.902 24.2241 421.445 L76.6014 456.635 Q77.6544 457.416 77.6544 458.028 Q77.6544 458.571 77.2128 459.013 Q76.8052 459.421 76.2617 459.421 Q75.7862 459.421 74.8691 458.809 L28.3341 427.559 L28.2662 427.627 Q30.7118 431.228 30.6779 436.9 Q30.6779 442.267 27.7567 447.396 Q31.3572 445.936 35.637 445.936 Q41.4794 445.936 45.5554 448.551 Q49.5975 451.167 49.5975 454.971 Q49.5975 459.081 45.6573 462.138 Q41.6832 465.195 35.5691 465.195 M29.8966 460.406 Q32.3422 460.881 35.637 460.881 Q38.8979 460.881 41.3435 460.406 Q43.7552 459.93 45.012 459.251 Q46.2688 458.537 47.016 457.586 Q47.7293 456.635 47.8992 456.058 Q48.069 455.48 48.069 454.903 Q48.069 452.05 44.5364 449.876 Q40.9699 447.668 35.5691 447.668 Q30.2702 447.668 26.7037 449.876 Q23.1032 452.05 23.1032 454.903 Q23.1032 455.514 23.273 456.126 Q23.4429 456.703 24.1901 457.62 Q24.9034 458.537 26.1602 459.251 Q27.417 459.93 29.8966 460.406 M63.592 434.387 Q57.6138 434.387 53.6057 431.33 Q49.5975 428.273 49.5975 424.163 Q49.5975 420.392 53.6736 417.777 Q57.7496 415.127 63.6599 415.127 Q69.5023 415.127 73.5783 417.743 Q77.6544 420.324 77.6544 424.163 Q77.6544 428.273 73.6802 431.33 Q69.7061 434.387 63.592 434.387 M57.9195 429.597 Q60.3991 430.073 63.6599 430.073 Q66.9208 430.073 69.3664 429.597 Q71.812 429.088 73.0688 428.409 Q74.2916 427.695 75.0049 426.778 Q75.7522 425.827 75.9221 425.25 Q76.1259 424.638 76.1259 424.095 Q76.1259 421.241 72.5933 419.068 Q69.0267 416.86 63.592 416.86 Q58.2931 416.86 54.7266 419.068 Q51.1261 421.241 51.1261 424.095 Q51.1261 424.706 51.3299 425.318 Q51.4997 425.895 52.247 426.812 Q52.9603 427.695 54.2171 428.409 Q55.4399 429.088 57.9195 429.597 Z" fill="#000000" fill-rule="evenodd" fill-opacity="1" /><path clip-path="url(#clip570)" d="M73.7482 385.746 L71.6082 385.746 Q71.6082 382.043 71.1667 381.194 Q70.6911 380.345 68.4493 380.345 L49.7334 380.345 Q47.1519 380.345 46.5405 381.228 Q45.9291 382.077 45.9291 385.474 L43.7552 385.474 L43.0079 375.76 L68.5172 375.76 Q70.5892 375.76 71.0987 375.012 Q71.6082 374.265 71.6082 370.868 L73.7482 370.868 Q73.5444 377.967 73.5444 378.103 Q73.5444 379.054 73.7482 385.746 M30.8817 382.825 Q29.489 382.825 28.3681 381.772 Q27.2132 380.685 27.2132 379.156 Q27.2132 377.628 28.2662 376.541 Q29.2852 375.454 30.9156 375.454 Q32.5121 375.454 33.5651 376.541 Q34.5841 377.628 34.5841 379.156 Q34.5841 380.753 33.4632 381.806 Q32.3422 382.825 30.8817 382.825 Z" fill="#000000" fill-rule="evenodd" fill-opacity="1" /><path clip-path="url(#clip570)" d="M73.7482 366.554 L71.6082 366.554 Q71.6082 362.852 71.1667 362.003 Q70.6911 361.154 68.4493 361.154 L49.8013 361.154 Q47.2198 361.154 46.5745 362.071 Q45.9291 362.954 45.9291 366.554 L43.7552 366.554 L43.0079 356.772 L50.3108 356.772 Q43.0079 353.511 43.0079 346.48 Q43.0079 341.249 45.5894 339.177 Q47.3217 337.648 49.2579 337.343 Q51.194 337.003 56.2211 337.003 L69.5023 337.003 Q70.9629 336.935 71.3025 335.814 Q71.6082 334.693 71.6082 331.568 L73.7482 331.568 Q73.5444 338.667 73.5444 339.381 Q73.5444 339.924 73.7482 347.227 L71.6082 347.227 Q71.6082 343.525 71.1667 342.676 Q70.6911 341.792 68.4493 341.792 L52.247 341.792 Q48.7144 341.792 46.6424 342.879 Q44.5364 343.966 44.5364 346.955 Q44.5364 350.556 47.5595 353.443 Q50.5826 356.33 55.6776 356.33 L68.4493 356.33 Q70.6911 356.33 71.1667 355.481 Q71.6082 354.598 71.6082 350.93 L73.7482 350.93 Q73.5444 358.029 73.5444 358.708 Q73.5444 359.251 73.7482 366.554 Z" fill="#000000" fill-rule="evenodd" fill-opacity="1" /><path clip-path="url(#clip570)" d="M45.9291 330.821 L44.4006 330.821 Q44.2647 327.628 42.0229 325.522 Q39.7471 323.382 36.9618 322.669 Q34.1765 321.922 30.9496 321.854 L30.9496 320.121 L43.7552 320.121 L43.7552 310.169 L45.9291 310.169 L45.9291 320.121 L65.2564 320.121 Q72.7631 320.121 72.7631 315.434 Q72.7631 313.43 70.7251 312.105 Q68.6531 310.78 64.9846 310.78 L61.1464 310.78 L61.1464 309.048 L65.1205 309.048 Q68.8909 309.048 71.7101 310.78 Q74.5294 312.513 74.5294 315.943 Q74.5294 317.2 74.1897 318.457 Q73.884 319.68 73.0688 321.31 Q72.2196 322.907 70.1816 323.926 Q68.1096 324.911 65.1205 324.911 L45.9291 324.911 L45.9291 330.821 Z" fill="#000000" fill-rule="evenodd" fill-opacity="1" /><path clip-path="url(#clip570)" d="M58.429 303.24 Q51.8733 303.24 47.2198 299.028 Q42.5663 294.816 42.5663 288.77 Q42.5663 282.656 46.5405 279.497 Q50.5146 276.304 56.2211 276.304 Q57.2741 276.304 57.4779 276.576 Q57.6817 276.847 57.6817 278.036 L57.6817 297.465 Q64.7808 297.465 68.1096 295.359 Q72.7631 292.438 72.7631 287.513 Q72.7631 286.834 72.6272 286.018 Q72.4914 285.203 71.9139 283.539 Q71.3025 281.874 69.7061 280.414 Q68.1096 278.953 65.596 278.104 Q64.611 277.9 64.645 277.221 Q64.645 276.304 65.4602 276.304 Q66.0716 276.304 67.4642 276.983 Q68.8229 277.629 70.4533 278.885 Q72.0838 280.142 73.3066 282.588 Q74.5294 284.999 74.5294 287.921 Q74.5294 294.035 69.9099 298.654 Q65.2564 303.24 58.429 303.24 M56.2211 297.397 L56.2211 280.889 Q54.7605 280.889 53.1301 281.161 Q51.4997 281.399 49.2579 282.146 Q46.9821 282.859 45.5554 284.558 Q44.1288 286.256 44.1288 288.77 Q44.1288 289.891 44.6044 291.113 Q45.0799 292.302 46.2348 293.763 Q47.3897 295.223 50.0051 296.242 Q52.6206 297.261 56.2211 297.397 Z" fill="#000000" fill-rule="evenodd" fill-opacity="1" /><path clip-path="url(#clip570)" d="M73.7482 272.364 L71.6082 272.364 Q71.6082 268.661 71.1667 267.812 Q70.6911 266.929 68.4493 266.929 L49.8013 266.929 Q47.2198 266.929 46.5745 267.846 Q45.9291 268.729 45.9291 272.364 L43.7552 272.364 L43.0079 262.683 L50.6505 262.683 Q47.6614 261.698 45.3516 259.626 Q43.0079 257.52 43.0079 254.123 Q43.0079 251.881 44.2647 250.455 Q45.5215 248.994 47.2538 248.994 Q48.7823 248.994 49.5636 249.945 Q50.3108 250.862 50.3108 251.983 Q50.3108 253.24 49.5296 254.123 Q48.7144 254.972 47.3217 254.972 Q46.4726 254.972 45.8272 254.599 Q45.1478 254.191 44.9101 253.885 Q44.6723 253.58 44.6044 253.376 Q44.5364 253.512 44.5364 254.123 Q44.5364 257.962 48.3747 260.169 Q52.179 262.343 57.6138 262.343 L68.3134 262.343 Q70.3175 262.343 70.9629 261.528 Q71.6082 260.679 71.6082 257.044 L71.6082 255.584 L73.7482 255.584 Q73.5444 258.369 73.5444 264.415 Q73.5444 265.264 73.5783 266.589 Q73.6123 267.914 73.6802 269.646 Q73.7482 271.379 73.7482 272.364 Z" fill="#000000" fill-rule="evenodd" fill-opacity="1" /><path clip-path="url(#clip570)" d="M45.9291 245.801 L43.7552 245.801 Q43.959 242.676 43.959 239.042 Q43.959 237.717 43.7552 231.467 L45.9291 231.467 Q45.9291 235.441 47.7293 235.441 Q48.0011 235.441 48.9182 235.034 L68.3134 227.221 L50.5826 220.122 Q49.3937 219.715 48.9182 219.715 Q47.7293 219.715 46.8802 220.53 Q45.997 221.311 45.9291 223.043 L43.7552 223.043 Q43.959 219.511 43.959 216.997 Q43.959 214.144 43.7552 211.8 L45.9291 211.8 Q45.9291 213.872 46.8802 215.333 Q47.7973 216.793 48.6125 217.269 Q49.3937 217.711 50.5826 218.186 L73.2047 227.289 Q74.5294 227.833 74.5294 228.75 Q74.5294 229.361 74.2577 229.633 Q74.0199 229.871 73.2047 230.21 L48.5106 240.231 Q46.7783 240.91 46.3707 241.793 Q45.9291 242.676 45.9291 245.801 Z" fill="#000000" fill-rule="evenodd" fill-opacity="1" /><path clip-path="url(#clip570)" d="M58.429 210.476 Q51.8733 210.476 47.2198 206.264 Q42.5663 202.052 42.5663 196.006 Q42.5663 189.891 46.5405 186.732 Q50.5146 183.54 56.2211 183.54 Q57.2741 183.54 57.4779 183.811 Q57.6817 184.083 57.6817 185.272 L57.6817 204.701 Q64.7808 204.701 68.1096 202.595 Q72.7631 199.674 72.7631 194.749 Q72.7631 194.069 72.6272 193.254 Q72.4914 192.439 71.9139 190.775 Q71.3025 189.11 69.7061 187.65 Q68.1096 186.189 65.596 185.34 Q64.611 185.136 64.645 184.457 Q64.645 183.54 65.4602 183.54 Q66.0716 183.54 67.4642 184.219 Q68.8229 184.864 70.4533 186.121 Q72.0838 187.378 73.3066 189.823 Q74.5294 192.235 74.5294 195.156 Q74.5294 201.27 69.9099 205.89 Q65.2564 210.476 58.429 210.476 M56.2211 204.633 L56.2211 188.125 Q54.7605 188.125 53.1301 188.397 Q51.4997 188.635 49.2579 189.382 Q46.9821 190.095 45.5554 191.794 Q44.1288 193.492 44.1288 196.006 Q44.1288 197.126 44.6044 198.349 Q45.0799 199.538 46.2348 200.999 Q47.3897 202.459 50.0051 203.478 Q52.6206 204.497 56.2211 204.633 Z" fill="#000000" fill-rule="evenodd" fill-opacity="1" /><path clip-path="url(#clip570)" d="M73.7482 179.294 L71.6082 179.294 Q71.6082 175.591 71.1667 174.742 Q70.6911 173.893 68.4493 173.893 L49.8013 173.893 Q47.2198 173.893 46.5745 174.81 Q45.9291 175.693 45.9291 179.294 L43.7552 179.294 L43.0079 169.511 L50.3108 169.511 Q43.0079 166.25 43.0079 159.219 Q43.0079 153.988 45.5894 151.916 Q47.3217 150.388 49.2579 150.082 Q51.194 149.742 56.2211 149.742 L69.5023 149.742 Q70.9629 149.674 71.3025 148.553 Q71.6082 147.433 71.6082 144.308 L73.7482 144.308 Q73.5444 151.407 73.5444 152.12 Q73.5444 152.663 73.7482 159.966 L71.6082 159.966 Q71.6082 156.264 71.1667 155.415 Q70.6911 154.532 68.4493 154.532 L52.247 154.532 Q48.7144 154.532 46.6424 155.619 Q44.5364 156.706 44.5364 159.695 Q44.5364 163.295 47.5595 166.182 Q50.5826 169.07 55.6776 169.07 L68.4493 169.07 Q70.6911 169.07 71.1667 168.22 Q71.6082 167.337 71.6082 163.669 L73.7482 163.669 Q73.5444 170.768 73.5444 171.447 Q73.5444 171.991 73.7482 179.294 Z" fill="#000000" fill-rule="evenodd" fill-opacity="1" /><path clip-path="url(#clip570)" d="M45.9291 143.56 L44.4006 143.56 Q44.2647 140.367 42.0229 138.261 Q39.7471 136.121 36.9618 135.408 Q34.1765 134.661 30.9496 134.593 L30.9496 132.861 L43.7552 132.861 L43.7552 122.908 L45.9291 122.908 L45.9291 132.861 L65.2564 132.861 Q72.7631 132.861 72.7631 128.173 Q72.7631 126.169 70.7251 124.844 Q68.6531 123.52 64.9846 123.52 L61.1464 123.52 L61.1464 121.787 L65.1205 121.787 Q68.8909 121.787 71.7101 123.52 Q74.5294 125.252 74.5294 128.683 Q74.5294 129.939 74.1897 131.196 Q73.884 132.419 73.0688 134.049 Q72.2196 135.646 70.1816 136.665 Q68.1096 137.65 65.1205 137.65 L45.9291 137.65 L45.9291 143.56 Z" fill="#000000" fill-rule="evenodd" fill-opacity="1" /><path clip-path="url(#clip570)" d="M73.7482 115.605 L71.6082 115.605 Q71.6082 111.903 71.1667 111.054 Q70.6911 110.205 68.4493 110.205 L49.7334 110.205 Q47.1519 110.205 46.5405 111.088 Q45.9291 111.937 45.9291 115.334 L43.7552 115.334 L43.0079 105.619 L68.5172 105.619 Q70.5892 105.619 71.0987 104.872 Q71.6082 104.124 71.6082 100.728 L73.7482 100.728 Q73.5444 107.827 73.5444 107.963 Q73.5444 108.914 73.7482 115.605 M30.8817 112.684 Q29.489 112.684 28.3681 111.631 Q27.2132 110.544 27.2132 109.016 Q27.2132 107.487 28.2662 106.4 Q29.2852 105.313 30.9156 105.313 Q32.5121 105.313 33.5651 106.4 Q34.5841 107.487 34.5841 109.016 Q34.5841 110.612 33.4632 111.665 Q32.3422 112.684 30.8817 112.684 Z" fill="#000000" fill-rule="evenodd" fill-opacity="1" /><path clip-path="url(#clip570)" d="M70.0118 92.1341 Q65.4602 96.7196 58.8706 96.7196 Q52.247 96.7196 47.4236 92.236 Q42.5663 87.7183 42.5663 81.2646 Q42.5663 74.9467 47.3897 70.4291 Q52.179 65.8775 58.8706 65.8775 Q65.4262 65.8775 69.9778 70.463 Q74.5294 75.0146 74.5294 81.3325 Q74.5294 87.5145 70.0118 92.1341 M58.2931 90.9452 Q65.0526 90.9452 68.1096 89.1789 Q72.7631 86.4616 72.7631 81.2646 Q72.7631 78.6831 71.3705 76.5432 Q69.9778 74.3693 67.6341 73.1804 Q64.577 71.6519 58.2931 71.6519 Q51.6016 71.6519 48.6465 73.4861 Q44.1288 76.2035 44.1288 81.3325 Q44.1288 83.5743 45.3177 85.7822 Q46.4726 87.9561 48.7823 89.2808 Q51.8394 90.9452 58.2931 90.9452 Z" fill="#000000" fill-rule="evenodd" fill-opacity="1" /><path clip-path="url(#clip570)" d="M73.7482 61.6316 L71.6082 61.6316 Q71.6082 57.9292 71.1667 57.08 Q70.6911 56.2308 68.4493 56.2308 L49.8013 56.2308 Q47.2198 56.2308 46.5745 57.1479 Q45.9291 58.0311 45.9291 61.6316 L43.7552 61.6316 L43.0079 51.8491 L50.3108 51.8491 Q43.0079 48.5882 43.0079 41.557 Q43.0079 36.3261 45.5894 34.2541 Q47.3217 32.7256 49.2579 32.4199 Q51.194 32.0802 56.2211 32.0802 L69.5023 32.0802 Q70.9629 32.0123 71.3025 30.8913 Q71.6082 29.7704 71.6082 26.6455 L73.7482 26.6455 Q73.5444 33.7446 73.5444 34.4579 Q73.5444 35.0014 73.7482 42.3043 L71.6082 42.3043 Q71.6082 38.6019 71.1667 37.7527 Q70.6911 36.8696 68.4493 36.8696 L52.247 36.8696 Q48.7144 36.8696 46.6424 37.9565 Q44.5364 39.0435 44.5364 42.0326 Q44.5364 45.6331 47.5595 48.5203 Q50.5826 51.4075 55.6776 51.4075 L68.4493 51.4075 Q70.6911 51.4075 71.1667 50.5583 Q71.6082 49.6752 71.6082 46.0067 L73.7482 46.0067 Q73.5444 53.1058 73.5444 53.7852 Q73.5444 54.3287 73.7482 61.6316 Z" fill="#000000" fill-rule="evenodd" fill-opacity="1" /><path clip-path="url(#clip570)" d="M72.831 22.977 L63.6599 22.977 Q62.8787 22.977 62.6069 22.943 Q62.3352 22.9091 62.1314 22.7053 Q61.9276 22.5015 61.9276 22.0939 Q61.9276 21.6183 62.1314 21.4485 Q62.3352 21.2447 63.1164 21.1088 Q67.9058 20.0558 70.4533 17.814 Q72.9669 15.5382 72.9669 11.4282 Q72.9669 7.52197 71.2346 5.55187 Q69.5023 3.58178 66.649 3.58178 Q61.554 3.58178 60.2632 10.8168 Q59.414 14.9947 58.8706 16.7271 Q58.2931 18.4594 57.0363 19.9879 Q54.5907 22.977 51.1261 22.977 Q47.6614 22.977 45.1139 20.3615 Q42.5663 17.7121 42.5663 11.8698 Q42.5663 7.96354 44.5364 5.3141 Q43.925 4.53286 43.4155 4.12526 Q42.5663 3.20814 42.5663 2.7326 Q42.5663 2.18913 42.94 2.08723 Q43.2797 1.98533 44.2647 1.98533 L51.2619 1.98533 Q52.0432 1.98533 52.3149 2.01929 Q52.5866 2.05326 52.7904 2.25706 Q52.9603 2.46087 52.9603 2.90244 Q52.9603 3.68368 52.3149 3.71765 Q43.8911 4.26112 43.8911 11.8698 Q43.8911 15.9798 45.4875 17.814 Q47.05 19.6482 49.1899 19.6482 Q50.3788 19.6482 51.2959 19.1048 Q52.179 18.5273 52.7225 17.814 Q53.232 17.0667 53.7415 15.708 Q54.2171 14.3494 54.3869 13.5341 Q54.5567 12.685 54.8964 11.0885 Q55.9494 5.51791 58.2252 3.17418 Q61.1464 0.253004 64.8488 0.253004 Q68.9588 0.253004 71.7441 3.03831 Q74.5294 5.82361 74.5294 11.4282 Q74.5294 15.9458 71.5063 19.1048 Q71.9139 19.5124 72.2876 19.8181 Q72.6272 20.1238 72.7631 20.2596 Q72.899 20.3615 73.0009 20.3955 Q73.0688 20.4295 73.1367 20.4974 Q74.5294 21.8901 74.5294 22.2297 Q74.5294 22.7732 74.1558 22.8751 Q73.8161 22.977 72.831 22.977 Z" fill="#000000" fill-rule="evenodd" fill-opacity="1" /><path clip-path="url(#clip572)" d="
M206.134 124.254 L206.134 407.705 L238.552 407.705 L238.552 124.254 L206.134 124.254 L206.134 124.254  Z
  " fill="#1abc9c" fill-rule="evenodd" fill-opacity="1"/>
<polyline clip-path="url(#clip572)" style="stroke:#1abc9c; stroke-linecap:round; stroke-linejoin:round; stroke-width:4; stroke-opacity:1; fill:none" points="
  206.134,124.254 206.134,407.705 238.552,407.705 238.552,124.254 206.134,124.254 
  "/>
<path clip-path="url(#clip572)" d="
M368.22 57.743 L368.22 407.705 L400.637 407.705 L400.637 57.743 L368.22 57.743 L368.22 57.743  Z
  " fill="#1abc9c" fill-rule="evenodd" fill-opacity="1"/>
<polyline clip-path="url(#clip572)" style="stroke:#1abc9c; stroke-linecap:round; stroke-linejoin:round; stroke-width:4; stroke-opacity:1; fill:none" points="
  368.22,57.743 368.22,407.705 400.637,407.705 400.637,57.743 368.22,57.743 
  "/>
<path clip-path="url(#clip572)" d="
M530.306 108.156 L530.306 407.705 L562.723 407.705 L562.723 108.156 L530.306 108.156 L530.306 108.156  Z
  " fill="#1abc9c" fill-rule="evenodd" fill-opacity="1"/>
<polyline clip-path="url(#clip572)" style="stroke:#1abc9c; stroke-linecap:round; stroke-linejoin:round; stroke-width:4; stroke-opacity:1; fill:none" points="
  530.306,108.156 530.306,407.705 562.723,407.705 562.723,108.156 530.306,108.156 
  "/>
<path clip-path="url(#clip572)" d="
M692.391 120.976 L692.391 407.705 L724.808 407.705 L724.808 120.976 L692.391 120.976 L692.391 120.976  Z
  " fill="#1abc9c" fill-rule="evenodd" fill-opacity="1"/>
<polyline clip-path="url(#clip572)" style="stroke:#1abc9c; stroke-linecap:round; stroke-linejoin:round; stroke-width:4; stroke-opacity:1; fill:none" points="
  692.391,120.976 692.391,407.705 724.808,407.705 724.808,120.976 692.391,120.976 
  "/>
<circle clip-path="url(#clip572)" style="fill:#1abc9c; stroke:none; fill-opacity:0" cx="222.343" cy="124.254" r="2"/>
<circle clip-path="url(#clip572)" style="fill:#1abc9c; stroke:none; fill-opacity:0" cx="384.429" cy="57.743" r="2"/>
<circle clip-path="url(#clip572)" style="fill:#1abc9c; stroke:none; fill-opacity:0" cx="546.514" cy="108.156" r="2"/>
<circle clip-path="url(#clip572)" style="fill:#1abc9c; stroke:none; fill-opacity:0" cx="708.6" cy="120.976" r="2"/>
<path clip-path="url(#clip572)" d="
M238.552 212.284 L238.552 407.705 L270.969 407.705 L270.969 212.284 L238.552 212.284 L238.552 212.284  Z
  " fill="#3498db" fill-rule="evenodd" fill-opacity="1"/>
<polyline clip-path="url(#clip572)" style="stroke:#3498db; stroke-linecap:round; stroke-linejoin:round; stroke-width:4; stroke-opacity:1; fill:none" points="
  238.552,212.284 238.552,407.705 270.969,407.705 270.969,212.284 238.552,212.284 
  "/>
<path clip-path="url(#clip572)" d="
M400.637 132.165 L400.637 407.705 L433.054 407.705 L433.054 132.165 L400.637 132.165 L400.637 132.165  Z
  " fill="#3498db" fill-rule="evenodd" fill-opacity="1"/>
<polyline clip-path="url(#clip572)" style="stroke:#3498db; stroke-linecap:round; stroke-linejoin:round; stroke-width:4; stroke-opacity:1; fill:none" points="
  400.637,132.165 400.637,407.705 433.054,407.705 433.054,132.165 400.637,132.165 
  "/>
<path clip-path="url(#clip572)" d="
M562.723 198.995 L562.723 407.705 L595.14 407.705 L595.14 198.995 L562.723 198.995 L562.723 198.995  Z
  " fill="#3498db" fill-rule="evenodd" fill-opacity="1"/>
<polyline clip-path="url(#clip572)" style="stroke:#3498db; stroke-linecap:round; stroke-linejoin:round; stroke-width:4; stroke-opacity:1; fill:none" points="
  562.723,198.995 562.723,407.705 595.14,407.705 595.14,198.995 562.723,198.995 
  "/>
<path clip-path="url(#clip572)" d="
M724.808 245.743 L724.808 407.705 L757.225 407.705 L757.225 245.743 L724.808 245.743 L724.808 245.743  Z
  " fill="#3498db" fill-rule="evenodd" fill-opacity="1"/>
<polyline clip-path="url(#clip572)" style="stroke:#3498db; stroke-linecap:round; stroke-linejoin:round; stroke-width:4; stroke-opacity:1; fill:none" points="
  724.808,245.743 724.808,407.705 757.225,407.705 757.225,245.743 724.808,245.743 
  "/>
<circle clip-path="url(#clip572)" style="fill:#3498db; stroke:none; fill-opacity:0" cx="254.76" cy="212.284" r="2"/>
<circle clip-path="url(#clip572)" style="fill:#3498db; stroke:none; fill-opacity:0" cx="416.846" cy="132.165" r="2"/>
<circle clip-path="url(#clip572)" style="fill:#3498db; stroke:none; fill-opacity:0" cx="578.931" cy="198.995" r="2"/>
<circle clip-path="url(#clip572)" style="fill:#3498db; stroke:none; fill-opacity:0" cx="741.017" cy="245.743" r="2"/>
<path clip-path="url(#clip572)" d="
M270.969 400.178 L270.969 407.705 L303.386 407.705 L303.386 400.178 L270.969 400.178 L270.969 400.178  Z
  " fill="#2ecc71" fill-rule="evenodd" fill-opacity="1"/>
<polyline clip-path="url(#clip572)" style="stroke:#2ecc71; stroke-linecap:round; stroke-linejoin:round; stroke-width:4; stroke-opacity:1; fill:none" points="
  270.969,400.178 270.969,407.705 303.386,407.705 303.386,400.178 270.969,400.178 
  "/>
<path clip-path="url(#clip572)" d="
M433.054 388.21 L433.054 407.705 L465.471 407.705 L465.471 388.21 L433.054 388.21 L433.054 388.21  Z
  " fill="#2ecc71" fill-rule="evenodd" fill-opacity="1"/>
<polyline clip-path="url(#clip572)" style="stroke:#2ecc71; stroke-linecap:round; stroke-linejoin:round; stroke-width:4; stroke-opacity:1; fill:none" points="
  433.054,388.21 433.054,407.705 465.471,407.705 465.471,388.21 433.054,388.21 
  "/>
<path clip-path="url(#clip572)" d="
M595.14 405.321 L595.14 407.705 L627.557 407.705 L627.557 405.321 L595.14 405.321 L595.14 405.321  Z
  " fill="#2ecc71" fill-rule="evenodd" fill-opacity="1"/>
<polyline clip-path="url(#clip572)" style="stroke:#2ecc71; stroke-linecap:round; stroke-linejoin:round; stroke-width:4; stroke-opacity:1; fill:none" points="
  595.14,405.321 595.14,407.705 627.557,407.705 627.557,405.321 595.14,405.321 
  "/>
<path clip-path="url(#clip572)" d="
M757.225 376.736 L757.225 407.705 L789.643 407.705 L789.643 376.736 L757.225 376.736 L757.225 376.736  Z
  " fill="#2ecc71" fill-rule="evenodd" fill-opacity="1"/>
<polyline clip-path="url(#clip572)" style="stroke:#2ecc71; stroke-linecap:round; stroke-linejoin:round; stroke-width:4; stroke-opacity:1; fill:none" points="
  757.225,376.736 757.225,407.705 789.643,407.705 789.643,376.736 757.225,376.736 
  "/>
<circle clip-path="url(#clip572)" style="fill:#2ecc71; stroke:none; fill-opacity:0" cx="287.177" cy="400.178" r="2"/>
<circle clip-path="url(#clip572)" style="fill:#2ecc71; stroke:none; fill-opacity:0" cx="449.263" cy="388.21" r="2"/>
<circle clip-path="url(#clip572)" style="fill:#2ecc71; stroke:none; fill-opacity:0" cx="611.348" cy="405.321" r="2"/>
<circle clip-path="url(#clip572)" style="fill:#2ecc71; stroke:none; fill-opacity:0" cx="773.434" cy="376.736" r="2"/>
<path clip-path="url(#clip572)" d="
M303.386 406.541 L303.386 407.705 L335.803 407.705 L335.803 406.541 L303.386 406.541 L303.386 406.541  Z
  " fill="#9b59b6" fill-rule="evenodd" fill-opacity="1"/>
<polyline clip-path="url(#clip572)" style="stroke:#9b59b6; stroke-linecap:round; stroke-linejoin:round; stroke-width:4; stroke-opacity:1; fill:none" points="
  303.386,406.541 303.386,407.705 335.803,407.705 335.803,406.541 303.386,406.541 
  "/>
<path clip-path="url(#clip572)" d="
M465.471 404.528 L465.471 407.705 L497.889 407.705 L497.889 404.528 L465.471 404.528 L465.471 404.528  Z
  " fill="#9b59b6" fill-rule="evenodd" fill-opacity="1"/>
<polyline clip-path="url(#clip572)" style="stroke:#9b59b6; stroke-linecap:round; stroke-linejoin:round; stroke-width:4; stroke-opacity:1; fill:none" points="
  465.471,404.528 465.471,407.705 497.889,407.705 497.889,404.528 465.471,404.528 
  "/>
<path clip-path="url(#clip572)" d="
M627.557 404.489 L627.557 407.705 L659.974 407.705 L659.974 404.489 L627.557 404.489 L627.557 404.489  Z
  " fill="#9b59b6" fill-rule="evenodd" fill-opacity="1"/>
<polyline clip-path="url(#clip572)" style="stroke:#9b59b6; stroke-linecap:round; stroke-linejoin:round; stroke-width:4; stroke-opacity:1; fill:none" points="
  627.557,404.489 627.557,407.705 659.974,407.705 659.974,404.489 627.557,404.489 
  "/>
<path clip-path="url(#clip572)" d="
M789.643 403.683 L789.643 407.705 L822.06 407.705 L822.06 403.683 L789.643 403.683 L789.643 403.683  Z
  " fill="#9b59b6" fill-rule="evenodd" fill-opacity="1"/>
<polyline clip-path="url(#clip572)" style="stroke:#9b59b6; stroke-linecap:round; stroke-linejoin:round; stroke-width:4; stroke-opacity:1; fill:none" points="
  789.643,403.683 789.643,407.705 822.06,407.705 822.06,403.683 789.643,403.683 
  "/>
<circle clip-path="url(#clip572)" style="fill:#9b59b6; stroke:none; fill-opacity:0" cx="319.594" cy="406.541" r="2"/>
<circle clip-path="url(#clip572)" style="fill:#9b59b6; stroke:none; fill-opacity:0" cx="481.68" cy="404.528" r="2"/>
<circle clip-path="url(#clip572)" style="fill:#9b59b6; stroke:none; fill-opacity:0" cx="643.766" cy="404.489" r="2"/>
<circle clip-path="url(#clip572)" style="fill:#9b59b6; stroke:none; fill-opacity:0" cx="805.851" cy="403.683" r="2"/>
<path clip-path="url(#clip570)" d="
M889.751 348.769 L1152.76 348.769 L1152.76 89.5693 L889.751 89.5693  Z
  " fill="#ffffff" fill-rule="evenodd" fill-opacity="1"/>
<polyline clip-path="url(#clip570)" style="stroke:#000000; stroke-linecap:round; stroke-linejoin:round; stroke-width:4; stroke-opacity:1; fill:none" points="
  889.751,348.769 1152.76,348.769 1152.76,89.5693 889.751,89.5693 889.751,348.769 
  "/>
<path clip-path="url(#clip570)" d="
M900.658 162.145 L966.097 162.145 L966.097 120.673 L900.658 120.673 L900.658 162.145  Z
  " fill="#1abc9c" fill-rule="evenodd" fill-opacity="1"/>
<polyline clip-path="url(#clip570)" style="stroke:#1abc9c; stroke-linecap:round; stroke-linejoin:round; stroke-width:4; stroke-opacity:1; fill:none" points="
  900.658,162.145 966.097,162.145 966.097,120.673 900.658,120.673 900.658,162.145 
  "/>
<path clip-path="url(#clip570)" d="M977.004 147.82 Q977.004 143.003 980.363 139.668 Q983.723 136.333 988.269 136.333 Q992.122 136.333 994.642 139.47 L994.642 128.526 Q994.642 126.649 993.975 126.18 Q993.333 125.71 990.714 125.71 L990.714 124.129 L998.002 123.586 L998.002 154.292 Q998.002 156.17 998.644 156.664 Q999.311 157.133 1001.93 157.133 L1001.93 158.689 L994.494 159.257 L994.494 155.898 Q991.875 159.233 987.725 159.257 Q983.377 159.257 980.191 155.923 Q977.004 152.588 977.004 147.82 M981.203 147.869 Q981.203 152.563 982.661 154.885 Q984.687 158.121 987.972 158.121 Q991.727 158.121 993.95 154.589 Q994.518 153.724 994.494 152.711 L994.494 142.336 Q994.494 141.323 993.95 140.483 Q991.875 137.444 988.491 137.444 Q984.958 137.444 982.76 140.681 Q981.203 143.101 981.203 147.869 Z" fill="#000000" fill-rule="evenodd" fill-opacity="1" /><path clip-path="url(#clip570)" d="M1006.23 151.007 Q1006.28 150.389 1007.24 150.389 L1038.24 150.389 Q1039.7 150.389 1039.73 150.957 Q1039.73 151.575 1038.34 151.55 L1007.59 151.55 Q1006.23 151.575 1006.23 151.007 M1006.23 141.125 Q1006.23 140.508 1007.29 140.532 L1038.19 140.532 Q1039.7 140.532 1039.73 141.125 Q1039.73 141.693 1038.44 141.693 L1007.24 141.693 Q1006.23 141.693 1006.23 141.125 Z" fill="#000000" fill-rule="evenodd" fill-opacity="1" /><path clip-path="url(#clip570)" d="M1044.67 142.509 Q1044.67 135.073 1046.54 131.022 Q1049.16 124.994 1055.34 124.994 Q1056.65 124.994 1058.01 125.364 Q1059.39 125.71 1061.12 127.069 Q1062.87 128.428 1063.93 130.651 Q1065.96 134.949 1065.96 142.509 Q1065.96 149.895 1064.08 153.922 Q1061.34 159.801 1055.29 159.801 Q1053.02 159.801 1050.69 158.64 Q1048.4 157.479 1046.94 154.687 Q1044.67 150.512 1044.67 142.509 M1048.87 141.891 Q1048.87 149.524 1049.41 152.563 Q1050.03 155.848 1051.71 157.281 Q1053.41 158.689 1055.29 158.689 Q1057.31 158.689 1058.99 157.182 Q1060.7 155.651 1061.22 152.365 Q1061.79 149.129 1061.76 141.891 Q1061.76 134.851 1061.27 132.034 Q1060.6 128.749 1058.82 127.44 Q1057.07 126.106 1055.29 126.106 Q1054.62 126.106 1053.91 126.303 Q1053.21 126.501 1052.2 127.069 Q1051.19 127.637 1050.4 129.045 Q1049.63 130.453 1049.26 132.578 Q1048.87 135.32 1048.87 141.891 Z" fill="#000000" fill-rule="evenodd" fill-opacity="1" /><path clip-path="url(#clip570)" d="
M900.658 213.985 L966.097 213.985 L966.097 172.513 L900.658 172.513 L900.658 213.985  Z
  " fill="#3498db" fill-rule="evenodd" fill-opacity="1"/>
<polyline clip-path="url(#clip570)" style="stroke:#3498db; stroke-linecap:round; stroke-linejoin:round; stroke-width:4; stroke-opacity:1; fill:none" points="
  900.658,213.985 966.097,213.985 966.097,172.513 900.658,172.513 900.658,213.985 
  "/>
<path clip-path="url(#clip570)" d="M977.004 199.66 Q977.004 194.843 980.363 191.508 Q983.723 188.173 988.269 188.173 Q992.122 188.173 994.642 191.31 L994.642 180.366 Q994.642 178.489 993.975 178.02 Q993.333 177.55 990.714 177.55 L990.714 175.969 L998.002 175.426 L998.002 206.132 Q998.002 208.01 998.644 208.504 Q999.311 208.973 1001.93 208.973 L1001.93 210.529 L994.494 211.097 L994.494 207.738 Q991.875 211.073 987.725 211.097 Q983.377 211.097 980.191 207.763 Q977.004 204.428 977.004 199.66 M981.203 199.709 Q981.203 204.403 982.661 206.725 Q984.687 209.961 987.972 209.961 Q991.727 209.961 993.95 206.429 Q994.518 205.564 994.494 204.551 L994.494 194.176 Q994.494 193.163 993.95 192.323 Q991.875 189.284 988.491 189.284 Q984.958 189.284 982.76 192.521 Q981.203 194.941 981.203 199.709 Z" fill="#000000" fill-rule="evenodd" fill-opacity="1" /><path clip-path="url(#clip570)" d="M1006.23 202.847 Q1006.28 202.229 1007.24 202.229 L1038.24 202.229 Q1039.7 202.229 1039.73 202.797 Q1039.73 203.415 1038.34 203.39 L1007.59 203.39 Q1006.23 203.415 1006.23 202.847 M1006.23 192.965 Q1006.23 192.348 1007.29 192.372 L1038.19 192.372 Q1039.7 192.372 1039.73 192.965 Q1039.73 193.533 1038.44 193.533 L1007.24 193.533 Q1006.23 193.533 1006.23 192.965 Z" fill="#000000" fill-rule="evenodd" fill-opacity="1" /><path clip-path="url(#clip570)" d="M1047.19 181.651 L1047.19 180.07 Q1053.26 180.07 1056.4 176.834 Q1057.27 176.834 1057.41 177.032 Q1057.56 177.229 1057.56 178.143 L1057.56 206.527 Q1057.56 208.034 1058.3 208.504 Q1059.04 208.973 1062.28 208.973 L1063.89 208.973 L1063.89 210.529 Q1062.11 210.381 1055.68 210.381 Q1049.26 210.381 1047.51 210.529 L1047.51 208.973 L1049.11 208.973 Q1052.3 208.973 1053.07 208.528 Q1053.83 208.059 1053.83 206.527 L1053.83 180.317 Q1051.19 181.651 1047.19 181.651 Z" fill="#000000" fill-rule="evenodd" fill-opacity="1" /><path clip-path="url(#clip570)" d="M1069.96 194.349 Q1069.96 186.913 1071.84 182.862 Q1074.46 176.834 1080.63 176.834 Q1081.94 176.834 1083.3 177.204 Q1084.69 177.55 1086.41 178.909 Q1088.17 180.268 1089.23 182.491 Q1091.26 186.789 1091.26 194.349 Q1091.26 201.735 1089.38 205.762 Q1086.64 211.641 1080.58 211.641 Q1078.31 211.641 1075.99 210.48 Q1073.69 209.319 1072.24 206.527 Q1069.96 202.352 1069.96 194.349 M1074.16 193.731 Q1074.16 201.364 1074.71 204.403 Q1075.32 207.688 1077 209.121 Q1078.71 210.529 1080.58 210.529 Q1082.61 210.529 1084.29 209.022 Q1086 207.491 1086.51 204.205 Q1087.08 200.969 1087.06 193.731 Q1087.06 186.691 1086.56 183.874 Q1085.9 180.589 1084.12 179.28 Q1082.36 177.946 1080.58 177.946 Q1079.92 177.946 1079.2 178.143 Q1078.51 178.341 1077.5 178.909 Q1076.48 179.477 1075.69 180.885 Q1074.93 182.293 1074.56 184.418 Q1074.16 187.16 1074.16 193.731 Z" fill="#000000" fill-rule="evenodd" fill-opacity="1" /><path clip-path="url(#clip570)" d="
M900.658 265.825 L966.097 265.825 L966.097 224.353 L900.658 224.353 L900.658 265.825  Z
  " fill="#2ecc71" fill-rule="evenodd" fill-opacity="1"/>
<polyline clip-path="url(#clip570)" style="stroke:#2ecc71; stroke-linecap:round; stroke-linejoin:round; stroke-width:4; stroke-opacity:1; fill:none" points="
  900.658,265.825 966.097,265.825 966.097,224.353 900.658,224.353 900.658,265.825 
  "/>
<path clip-path="url(#clip570)" d="M977.004 251.5 Q977.004 246.683 980.363 243.348 Q983.723 240.013 988.269 240.013 Q992.122 240.013 994.642 243.15 L994.642 232.206 Q994.642 230.329 993.975 229.86 Q993.333 229.39 990.714 229.39 L990.714 227.809 L998.002 227.266 L998.002 257.972 Q998.002 259.85 998.644 260.344 Q999.311 260.813 1001.93 260.813 L1001.93 262.369 L994.494 262.937 L994.494 259.578 Q991.875 262.913 987.725 262.937 Q983.377 262.937 980.191 259.603 Q977.004 256.268 977.004 251.5 M981.203 251.549 Q981.203 256.243 982.661 258.565 Q984.687 261.801 987.972 261.801 Q991.727 261.801 993.95 258.269 Q994.518 257.404 994.494 256.391 L994.494 246.016 Q994.494 245.003 993.95 244.163 Q991.875 241.124 988.491 241.124 Q984.958 241.124 982.76 244.361 Q981.203 246.781 981.203 251.549 Z" fill="#000000" fill-rule="evenodd" fill-opacity="1" /><path clip-path="url(#clip570)" d="M1006.23 254.687 Q1006.28 254.069 1007.24 254.069 L1038.24 254.069 Q1039.7 254.069 1039.73 254.637 Q1039.73 255.255 1038.34 255.23 L1007.59 255.23 Q1006.23 255.255 1006.23 254.687 M1006.23 244.805 Q1006.23 244.188 1007.29 244.212 L1038.19 244.212 Q1039.7 244.212 1039.73 244.805 Q1039.73 245.373 1038.44 245.373 L1007.24 245.373 Q1006.23 245.373 1006.23 244.805 Z" fill="#000000" fill-rule="evenodd" fill-opacity="1" /><path clip-path="url(#clip570)" d="M1047.19 233.491 L1047.19 231.91 Q1053.26 231.91 1056.4 228.674 Q1057.27 228.674 1057.41 228.872 Q1057.56 229.069 1057.56 229.983 L1057.56 258.367 Q1057.56 259.874 1058.3 260.344 Q1059.04 260.813 1062.28 260.813 L1063.89 260.813 L1063.89 262.369 Q1062.11 262.221 1055.68 262.221 Q1049.26 262.221 1047.51 262.369 L1047.51 260.813 L1049.11 260.813 Q1052.3 260.813 1053.07 260.368 Q1053.83 259.899 1053.83 258.367 L1053.83 232.157 Q1051.19 233.491 1047.19 233.491 Z" fill="#000000" fill-rule="evenodd" fill-opacity="1" /><path clip-path="url(#clip570)" d="M1069.96 246.189 Q1069.96 238.753 1071.84 234.702 Q1074.46 228.674 1080.63 228.674 Q1081.94 228.674 1083.3 229.044 Q1084.69 229.39 1086.41 230.749 Q1088.17 232.108 1089.23 234.331 Q1091.26 238.629 1091.26 246.189 Q1091.26 253.575 1089.38 257.602 Q1086.64 263.481 1080.58 263.481 Q1078.31 263.481 1075.99 262.32 Q1073.69 261.159 1072.24 258.367 Q1069.96 254.192 1069.96 246.189 M1074.16 245.571 Q1074.16 253.204 1074.71 256.243 Q1075.32 259.528 1077 260.961 Q1078.71 262.369 1080.58 262.369 Q1082.61 262.369 1084.29 260.862 Q1086 259.331 1086.51 256.045 Q1087.08 252.809 1087.06 245.571 Q1087.06 238.531 1086.56 235.714 Q1085.9 232.429 1084.12 231.12 Q1082.36 229.786 1080.58 229.786 Q1079.92 229.786 1079.2 229.983 Q1078.51 230.181 1077.5 230.749 Q1076.48 231.317 1075.69 232.725 Q1074.93 234.133 1074.56 236.258 Q1074.16 239 1074.16 245.571 Z" fill="#000000" fill-rule="evenodd" fill-opacity="1" /><path clip-path="url(#clip570)" d="M1095.26 246.189 Q1095.26 238.753 1097.14 234.702 Q1099.75 228.674 1105.93 228.674 Q1107.24 228.674 1108.6 229.044 Q1109.98 229.39 1111.71 230.749 Q1113.47 232.108 1114.53 234.331 Q1116.55 238.629 1116.55 246.189 Q1116.55 253.575 1114.68 257.602 Q1111.93 263.481 1105.88 263.481 Q1103.61 263.481 1101.29 262.32 Q1098.99 261.159 1097.53 258.367 Q1095.26 254.192 1095.26 246.189 M1099.46 245.571 Q1099.46 253.204 1100 256.243 Q1100.62 259.528 1102.3 260.961 Q1104 262.369 1105.88 262.369 Q1107.91 262.369 1109.59 260.862 Q1111.29 259.331 1111.81 256.045 Q1112.38 252.809 1112.35 245.571 Q1112.35 238.531 1111.86 235.714 Q1111.19 232.429 1109.41 231.12 Q1107.66 229.786 1105.88 229.786 Q1105.21 229.786 1104.5 229.983 Q1103.81 230.181 1102.79 230.749 Q1101.78 231.317 1100.99 232.725 Q1100.22 234.133 1099.85 236.258 Q1099.46 239 1099.46 245.571 Z" fill="#000000" fill-rule="evenodd" fill-opacity="1" /><path clip-path="url(#clip570)" d="
M900.658 317.665 L966.097 317.665 L966.097 276.193 L900.658 276.193 L900.658 317.665  Z
  " fill="#9b59b6" fill-rule="evenodd" fill-opacity="1"/>
<polyline clip-path="url(#clip570)" style="stroke:#9b59b6; stroke-linecap:round; stroke-linejoin:round; stroke-width:4; stroke-opacity:1; fill:none" points="
  900.658,317.665 966.097,317.665 966.097,276.193 900.658,276.193 900.658,317.665 
  "/>
<path clip-path="url(#clip570)" d="M977.004 303.34 Q977.004 298.523 980.363 295.188 Q983.723 291.853 988.269 291.853 Q992.122 291.853 994.642 294.99 L994.642 284.046 Q994.642 282.169 993.975 281.7 Q993.333 281.23 990.714 281.23 L990.714 279.649 L998.002 279.106 L998.002 309.812 Q998.002 311.69 998.644 312.184 Q999.311 312.653 1001.93 312.653 L1001.93 314.209 L994.494 314.777 L994.494 311.418 Q991.875 314.753 987.725 314.777 Q983.377 314.777 980.191 311.443 Q977.004 308.108 977.004 303.34 M981.203 303.389 Q981.203 308.083 982.661 310.405 Q984.687 313.641 987.972 313.641 Q991.727 313.641 993.95 310.109 Q994.518 309.244 994.494 308.231 L994.494 297.856 Q994.494 296.843 993.95 296.003 Q991.875 292.964 988.491 292.964 Q984.958 292.964 982.76 296.201 Q981.203 298.621 981.203 303.389 Z" fill="#000000" fill-rule="evenodd" fill-opacity="1" /><path clip-path="url(#clip570)" d="M1006.23 306.527 Q1006.28 305.909 1007.24 305.909 L1038.24 305.909 Q1039.7 305.909 1039.73 306.477 Q1039.73 307.095 1038.34 307.07 L1007.59 307.07 Q1006.23 307.095 1006.23 306.527 M1006.23 296.645 Q1006.23 296.028 1007.29 296.052 L1038.19 296.052 Q1039.7 296.052 1039.73 296.645 Q1039.73 297.213 1038.44 297.213 L1007.24 297.213 Q1006.23 297.213 1006.23 296.645 Z" fill="#000000" fill-rule="evenodd" fill-opacity="1" /><path clip-path="url(#clip570)" d="M1047.19 285.331 L1047.19 283.75 Q1053.26 283.75 1056.4 280.514 Q1057.27 280.514 1057.41 280.712 Q1057.56 280.909 1057.56 281.823 L1057.56 310.207 Q1057.56 311.714 1058.3 312.184 Q1059.04 312.653 1062.28 312.653 L1063.89 312.653 L1063.89 314.209 Q1062.11 314.061 1055.68 314.061 Q1049.26 314.061 1047.51 314.209 L1047.51 312.653 L1049.11 312.653 Q1052.3 312.653 1053.07 312.208 Q1053.83 311.739 1053.83 310.207 L1053.83 283.997 Q1051.19 285.331 1047.19 285.331 Z" fill="#000000" fill-rule="evenodd" fill-opacity="1" /><path clip-path="url(#clip570)" d="M1069.96 298.029 Q1069.96 290.593 1071.84 286.542 Q1074.46 280.514 1080.63 280.514 Q1081.94 280.514 1083.3 280.884 Q1084.69 281.23 1086.41 282.589 Q1088.17 283.948 1089.23 286.171 Q1091.26 290.469 1091.26 298.029 Q1091.26 305.415 1089.38 309.442 Q1086.64 315.321 1080.58 315.321 Q1078.31 315.321 1075.99 314.16 Q1073.69 312.999 1072.24 310.207 Q1069.96 306.032 1069.96 298.029 M1074.16 297.411 Q1074.16 305.044 1074.71 308.083 Q1075.32 311.368 1077 312.801 Q1078.71 314.209 1080.58 314.209 Q1082.61 314.209 1084.29 312.702 Q1086 311.171 1086.51 307.885 Q1087.08 304.649 1087.06 297.411 Q1087.06 290.371 1086.56 287.554 Q1085.9 284.269 1084.12 282.96 Q1082.36 281.626 1080.58 281.626 Q1079.92 281.626 1079.2 281.823 Q1078.51 282.021 1077.5 282.589 Q1076.48 283.157 1075.69 284.565 Q1074.93 285.973 1074.56 288.098 Q1074.16 290.84 1074.16 297.411 Z" fill="#000000" fill-rule="evenodd" fill-opacity="1" /><path clip-path="url(#clip570)" d="M1095.26 298.029 Q1095.26 290.593 1097.14 286.542 Q1099.75 280.514 1105.93 280.514 Q1107.24 280.514 1108.6 280.884 Q1109.98 281.23 1111.71 282.589 Q1113.47 283.948 1114.53 286.171 Q1116.55 290.469 1116.55 298.029 Q1116.55 305.415 1114.68 309.442 Q1111.93 315.321 1105.88 315.321 Q1103.61 315.321 1101.29 314.16 Q1098.99 312.999 1097.53 310.207 Q1095.26 306.032 1095.26 298.029 M1099.46 297.411 Q1099.46 305.044 1100 308.083 Q1100.62 311.368 1102.3 312.801 Q1104 314.209 1105.88 314.209 Q1107.91 314.209 1109.59 312.702 Q1111.29 311.171 1111.81 307.885 Q1112.38 304.649 1112.35 297.411 Q1112.35 290.371 1111.86 287.554 Q1111.19 284.269 1109.41 282.96 Q1107.66 281.626 1105.88 281.626 Q1105.21 281.626 1104.5 281.823 Q1103.81 282.021 1102.79 282.589 Q1101.78 283.157 1100.99 284.565 Q1100.22 285.973 1099.85 288.098 Q1099.46 290.84 1099.46 297.411 Z" fill="#000000" fill-rule="evenodd" fill-opacity="1" /><path clip-path="url(#clip570)" d="M1120.56 298.029 Q1120.56 290.593 1122.43 286.542 Q1125.05 280.514 1131.23 280.514 Q1132.54 280.514 1133.89 280.884 Q1135.28 281.23 1137.01 282.589 Q1138.76 283.948 1139.82 286.171 Q1141.85 290.469 1141.85 298.029 Q1141.85 305.415 1139.97 309.442 Q1137.23 315.321 1131.18 315.321 Q1128.9 315.321 1126.58 314.16 Q1124.29 312.999 1122.83 310.207 Q1120.56 306.032 1120.56 298.029 M1124.75 297.411 Q1124.75 305.044 1125.3 308.083 Q1125.92 311.368 1127.6 312.801 Q1129.3 314.209 1131.18 314.209 Q1133.2 314.209 1134.88 312.702 Q1136.59 311.171 1137.11 307.885 Q1137.67 304.649 1137.65 297.411 Q1137.65 290.371 1137.16 287.554 Q1136.49 284.269 1134.71 282.96 Q1132.96 281.626 1131.18 281.626 Q1130.51 281.626 1129.79 281.823 Q1129.1 282.021 1128.09 282.589 Q1127.08 283.157 1126.29 284.565 Q1125.52 285.973 1125.15 288.098 Q1124.75 290.84 1124.75 297.411 Z" fill="#000000" fill-rule="evenodd" fill-opacity="1" /></svg>
