<?xml version="1.0" encoding="UTF-8" standalone="no"?>
<!-- Created with Inkscape (http://www.inkscape.org/) -->

<svg
   version="1.1"
   id="svg2"
   xml:space="preserve"
   width="209.27998"
   height="139.84"
   viewBox="0 0 209.27998 139.84"
   sodipodi:docname="ReachabilityAnalysisAutomaton.svg"
   inkscape:version="1.1.2 (0a00cf5339, 2022-02-04)"
   xmlns:inkscape="http://www.inkscape.org/namespaces/inkscape"
   xmlns:sodipodi="http://sodipodi.sourceforge.net/DTD/sodipodi-0.dtd"
   xmlns="http://www.w3.org/2000/svg"
   xmlns:svg="http://www.w3.org/2000/svg"><defs
     id="defs6"><clipPath
       clipPathUnits="userSpaceOnUse"
       id="clipPath16"><path
         d="M 0,0 H 629.16663 V 437.42059 H 0 Z"
         clip-rule="evenodd"
         id="path14" /></clipPath><clipPath
       clipPathUnits="userSpaceOnUse"
       id="clipPath28"><path
         d="M 0,0 H 629.16663 V 431.42853 H 0 Z"
         clip-rule="evenodd"
         id="path26" /></clipPath></defs><sodipodi:namedview
     id="namedview4"
     pagecolor="#ffffff"
     bordercolor="#000000"
     borderopacity="0.25"
     inkscape:pageshadow="2"
     inkscape:pageopacity="0.0"
     inkscape:pagecheckerboard="true"
     showgrid="false"
     inkscape:zoom="5.1415905"
     inkscape:cx="119.4183"
     inkscape:cy="34.133407"
     inkscape:window-width="2560"
     inkscape:window-height="1376"
     inkscape:window-x="0"
     inkscape:window-y="0"
     inkscape:window-maximized="1"
     inkscape:current-layer="g22"
     lock-margins="false"
     fit-margin-left="0.4"
     fit-margin-right="0.6"
     width="209.27998px"
     showborder="true" /><g
     id="g8"
     inkscape:groupmode="layer"
     inkscape:label="ReachabilityAnalysisAutomaton.drawio"
     transform="matrix(0.31999998,0,0,0.31999998,0,7.4959999e-6)"><g
       id="g22"><g
         id="g30"
         transform="matrix(2.9960315,0,0,2.9960315,1.4980158,1.4980158)"><path
           d="m 135,71.5 c 0,0.7369 -0.0361,1.472031 -0.10834,2.205383 -0.0722,0.733353 -0.18022,1.461403 -0.324,2.184143 -0.14376,0.722748 -0.32259,1.436707 -0.5365,2.141869 -0.21391,0.705177 -0.46189,1.398163 -0.74388,2.078972 -0.282,0.680816 -0.59668,1.346168 -0.94405,1.996055 -0.34738,0.649895 -0.72577,1.281189 -1.13518,1.893898 -0.40937,0.612717 -0.84782,1.203896 -1.3153,1.773529 -0.46749,0.569634 -0.96178,1.114983 -1.48285,1.636048 -0.52107,0.521072 -1.06642,1.01535 -1.63605,1.482841 -0.56964,0.467484 -1.16082,0.905922 -1.77354,1.315323 -0.61271,0.409401 -1.244,0.787789 -1.8939,1.135155 -0.64987,0.347374 -1.31523,0.662064 -1.99604,0.944061 -0.68081,0.282006 -1.3738,0.529961 -2.07897,0.743874 -0.70517,0.213905 -1.41913,0.392738 -2.14187,0.536499 -0.72274,0.143768 -1.45079,0.25177 -2.18414,0.324005 C 113.97204,93.963882 113.23691,94 112.5,94 c -0.7369,0 -1.47202,-0.03611 -2.20538,-0.108337 -0.73336,-0.07224 -1.46141,-0.180245 -2.18415,-0.324013 -0.72274,-0.143761 -1.43669,-0.322594 -2.14186,-0.536499 -0.70518,-0.213913 -1.39818,-0.461868 -2.07899,-0.743874 -0.68081,-0.281997 -1.34616,-0.596679 -1.99604,-0.944053 -0.6499,-0.347374 -1.28121,-0.725762 -1.893916,-1.135163 C 99.386955,89.79866 98.795784,89.360222 98.226151,88.892738 97.656517,88.425247 97.111168,87.930969 96.590096,87.409897 96.069031,86.888832 95.574753,86.343475 95.107262,85.773842 94.639778,85.204208 94.201332,84.613037 93.791931,84.00032 93.38253,83.387611 93.00415,82.756317 92.656776,82.106422 92.309402,81.456535 91.994713,80.791183 91.712708,80.110367 91.43071,79.429558 91.182755,78.736572 90.968842,78.031395 90.754936,77.326233 90.576096,76.612274 90.432327,75.889526 90.288574,75.166786 90.18058,74.438736 90.108353,73.705383 90.036118,72.972031 90,72.2369 90,71.5 c 0,-0.7369 0.03612,-1.472031 0.108345,-2.205383 0.07224,-0.733361 0.180229,-1.461411 0.323982,-2.184159 0.143769,-0.72274 0.322609,-1.436699 0.536515,-2.141868 0.213913,-0.705178 0.461868,-1.398167 0.743866,-2.078976 0.282005,-0.680805 0.596694,-1.346153 0.944068,-1.996044 0.347374,-0.649891 0.725754,-1.281197 1.135155,-1.893913 0.409401,-0.612713 0.847847,-1.203884 1.315331,-1.773514 0.467491,-0.56963 0.961769,-1.114983 1.482834,-1.636051 0.521072,-0.521069 1.066421,-1.015343 1.636055,-1.482827 0.569633,-0.467487 1.160804,-0.905933 1.773513,-1.315338 0.612706,-0.409397 1.244016,-0.787784 1.893916,-1.135158 0.64988,-0.347374 1.31523,-0.66206 1.99604,-0.944061 0.68081,-0.282002 1.37381,-0.529957 2.07898,-0.743866 0.70517,-0.21391 1.41913,-0.392746 2.14186,-0.536511 0.72275,-0.143761 1.4508,-0.251755 2.18416,-0.323986 C 111.02798,49.036118 111.7631,49.000004 112.5,49 c 0.73691,4e-6 1.47204,0.03612 2.20539,0.108345 0.73335,0.07223 1.4614,0.180225 2.18414,0.323986 0.72274,0.143761 1.4367,0.322598 2.14187,0.536511 0.70517,0.213909 1.39816,0.461864 2.07897,0.743862 0.68081,0.282001 1.34617,0.596691 1.99605,0.944065 0.6499,0.347374 1.2812,0.725761 1.89391,1.135158 0.61272,0.409405 1.20389,0.847847 1.77352,1.315335 0.56963,0.467487 1.11498,0.961761 1.63605,1.48283 0.52107,0.521068 1.01536,1.066421 1.48285,1.636055 0.46748,0.569629 0.90593,1.160801 1.3153,1.773513 0.40941,0.612717 0.7878,1.244019 1.13518,1.89391 0.34737,0.649891 0.66205,1.315239 0.94405,1.996044 0.28199,0.680809 0.52995,1.373798 0.74386,2.078976 0.21392,0.705177 0.39276,1.419136 0.53652,2.141876 0.14378,0.722748 0.25178,1.450798 0.324,2.184151 C 134.96388,70.027969 135,70.7631 135,71.5 Z"
           style="fill:none;stroke:#4d4d4d;stroke-width:1;stroke-linecap:butt;stroke-linejoin:miter;stroke-miterlimit:10;stroke-dasharray:none;stroke-opacity:1"
           id="path32" /></g><g
         id="g34"
         transform="scale(2.9960315)"><path
           d="m 90,75.5 c 0,1.457428 -0.07143,2.911346 -0.214272,4.361763 -0.142852,1.450417 -0.356445,2.890335 -0.640785,4.319756 -0.284324,1.429428 -0.638023,2.841476 -1.061088,4.236152 -0.423073,1.394669 -0.913483,2.765244 -1.471215,4.111733 -0.557731,1.346496 -1.180114,2.662414 -1.867141,3.947746 -0.687027,1.285339 -1.435395,2.533913 -2.245102,3.74572 -0.8097,1.21182 -1.676842,2.38102 -2.601425,3.50762 -0.924584,1.12662 -1.902161,2.2052 -2.932717,3.23576 -1.030556,1.03055 -2.109146,2.00812 -3.235756,2.93271 -1.12661,0.92458 -2.295814,1.79172 -3.507629,2.60142 -1.211807,0.80971 -2.460381,1.55808 -3.74572,2.2451 -1.285332,0.68704 -2.60125,1.30941 -3.947742,1.86715 -1.346486,0.55774 -2.717064,1.04814 -4.111741,1.47121 -1.394672,0.42307 -2.80672,0.77677 -4.236148,1.0611 -1.429425,0.28433 -2.869339,0.49792 -4.319752,0.64077 C 48.411354,119.92857 46.957432,120 45.5,120 c -1.457428,0 -2.91135,-0.0714 -4.361763,-0.21429 -1.450413,-0.14285 -2.890331,-0.35644 -4.319759,-0.64078 -1.429428,-0.28433 -2.841477,-0.63802 -4.236149,-1.06109 -1.394675,-0.42307 -2.765257,-0.91347 -4.111746,-1.47121 -1.346487,-0.55774 -2.662401,-1.18011 -3.947739,-1.86715 -1.285337,-0.68702 -2.533912,-1.43539 -3.745722,-2.2451 -1.211809,-0.8097 -2.381015,-1.67684 -3.507623,-2.60142 -1.12661,-0.92459 -2.205193,-1.90216 -3.235751,-2.93271 -1.030558,-1.03056 -2.008129,-2.10914 -2.932714,-3.23575 -0.924583,-1.12661 -1.7917279,-2.29581 -2.6014326,-3.50763 C 7.6898971,99.011063 6.9415312,97.762489 6.2545037,96.477158 5.5674758,95.191818 4.9450946,93.8759 4.3873606,92.529404 3.8296266,91.182915 3.3392248,89.81234 2.9161551,88.417671 2.4930856,87.022995 2.1393855,85.610947 1.8550549,84.181519 1.5707245,82.752098 1.3571328,81.31218 1.2142796,79.861763 1.0714265,78.411346 1,76.957428 1,75.5 1,74.04258 1.0714265,72.588654 1.2142796,71.138237 1.3571327,69.68782 1.5707244,68.247902 1.8550547,66.818474 2.1393852,65.389053 2.4930854,63.977001 2.9161549,62.582329 3.3392246,61.187656 3.8296261,59.817078 4.3873601,58.470585 4.9450941,57.1241 5.5674753,55.808186 6.2545033,54.522846 6.9415307,53.237507 7.6898971,51.98893 8.4996014,50.777119 c 0.8097047,-1.211808 1.6768496,-2.381016 2.6014326,-3.507622 0.924585,-1.12661 1.902156,-2.205193 2.932714,-3.235752 1.030558,-1.03056 2.109141,-2.008129 3.235751,-2.932717 1.126608,-0.924583 2.295816,-1.791729 3.507625,-2.601432 1.21181,-0.809704 2.460383,-1.558068 3.745722,-2.245095 1.285338,-0.687027 2.60125,-1.30941 3.947739,-1.867145 1.346491,-0.557732 2.717073,-1.048134 4.111748,-1.471203 1.394672,-0.423069 2.80672,-0.776768 4.236145,-1.0611 1.429428,-0.284329 2.869346,-0.497919 4.319759,-0.640772 C 42.58865,31.071428 44.042572,31.000002 45.5,31 c 1.457432,2e-6 2.911354,0.07143 4.361767,0.214281 1.450413,0.142853 2.890327,0.356443 4.319752,0.640772 1.429428,0.284332 2.841476,0.638031 4.236148,1.0611 1.394677,0.423069 2.765255,0.913471 4.111741,1.471203 1.346492,0.557735 2.66241,1.180118 3.947742,1.867145 1.285332,0.687024 2.533905,1.435387 3.745712,2.245091 1.211815,0.809704 2.381027,1.676849 3.507637,2.601433 1.12661,0.924587 2.2052,1.90216 3.235756,2.93272 1.030556,1.030559 2.008133,2.109142 2.932717,3.235752 0.924583,1.126606 1.791725,2.295814 2.601425,3.507622 0.809707,1.211811 1.558075,2.460384 2.245102,3.745723 0.687027,1.28534 1.30941,2.601254 1.867141,3.947739 0.557732,1.346493 1.048134,2.717075 1.471207,4.111748 0.423073,1.394672 0.776772,2.806724 1.061096,4.236145 0.28434,1.429428 0.497933,2.869346 0.640785,4.319763 C 89.928574,72.588654 90,74.04258 90,75.5 Z"
           style="fill:#ffffff;fill-opacity:1;fill-rule:nonzero;stroke:none"
           id="path36" /><path
           d="m 90,75.5 c 0,1.457428 -0.07143,2.911346 -0.214272,4.361763 -0.142852,1.450417 -0.356445,2.890335 -0.640785,4.319756 -0.284324,1.429428 -0.638023,2.841476 -1.061088,4.236152 -0.423073,1.394669 -0.913483,2.765244 -1.471215,4.111733 -0.557731,1.346496 -1.180114,2.662414 -1.867141,3.947746 -0.687027,1.285339 -1.435395,2.533913 -2.245102,3.74572 -0.8097,1.21182 -1.676842,2.38102 -2.601425,3.50762 -0.924584,1.12662 -1.902161,2.2052 -2.932717,3.23576 -1.030556,1.03055 -2.109146,2.00812 -3.235756,2.93271 -1.12661,0.92458 -2.295814,1.79172 -3.507629,2.60142 -1.211807,0.80971 -2.460381,1.55808 -3.74572,2.2451 -1.285332,0.68704 -2.60125,1.30941 -3.947742,1.86715 -1.346486,0.55774 -2.717064,1.04814 -4.111741,1.47121 -1.394672,0.42307 -2.80672,0.77677 -4.236148,1.0611 -1.429425,0.28433 -2.869339,0.49792 -4.319752,0.64077 C 48.411354,119.92857 46.957432,120 45.5,120 c -1.457428,0 -2.91135,-0.0714 -4.361763,-0.21429 -1.450413,-0.14285 -2.890331,-0.35644 -4.319759,-0.64078 -1.429428,-0.28433 -2.841477,-0.63802 -4.236149,-1.06109 -1.394675,-0.42307 -2.765257,-0.91347 -4.111746,-1.47121 -1.346487,-0.55774 -2.662401,-1.18011 -3.947739,-1.86715 -1.285337,-0.68702 -2.533912,-1.43539 -3.745722,-2.2451 -1.211809,-0.8097 -2.381015,-1.67684 -3.507623,-2.60142 -1.12661,-0.92459 -2.205193,-1.90216 -3.235751,-2.93271 -1.030558,-1.03056 -2.008129,-2.10914 -2.932714,-3.23575 -0.924583,-1.12661 -1.7917279,-2.29581 -2.6014326,-3.50763 C 7.6898971,99.011063 6.9415312,97.762489 6.2545037,96.477158 5.5674758,95.191818 4.9450946,93.8759 4.3873606,92.529404 3.8296266,91.182915 3.3392248,89.81234 2.9161551,88.417671 2.4930856,87.022995 2.1393855,85.610947 1.8550549,84.181519 1.5707245,82.752098 1.3571328,81.31218 1.2142796,79.861763 1.0714265,78.411346 1,76.957428 1,75.5 1,74.04258 1.0714265,72.588654 1.2142796,71.138237 1.3571327,69.68782 1.5707244,68.247902 1.8550547,66.818474 2.1393852,65.389053 2.4930854,63.977001 2.9161549,62.582329 3.3392246,61.187656 3.8296261,59.817078 4.3873601,58.470585 4.9450941,57.1241 5.5674753,55.808186 6.2545033,54.522846 6.9415307,53.237507 7.6898971,51.98893 8.4996014,50.777119 c 0.8097047,-1.211808 1.6768496,-2.381016 2.6014326,-3.507622 0.924585,-1.12661 1.902156,-2.205193 2.932714,-3.235752 1.030558,-1.03056 2.109141,-2.008129 3.235751,-2.932717 1.126608,-0.924583 2.295816,-1.791729 3.507625,-2.601432 1.21181,-0.809704 2.460383,-1.558068 3.745722,-2.245095 1.285338,-0.687027 2.60125,-1.30941 3.947739,-1.867145 1.346491,-0.557732 2.717073,-1.048134 4.111748,-1.471203 1.394672,-0.423069 2.80672,-0.776768 4.236145,-1.0611 1.429428,-0.284329 2.869346,-0.497919 4.319759,-0.640772 C 42.58865,31.071428 44.042572,31.000002 45.5,31 c 1.457432,2e-6 2.911354,0.07143 4.361767,0.214281 1.450413,0.142853 2.890327,0.356443 4.319752,0.640772 1.429428,0.284332 2.841476,0.638031 4.236148,1.0611 1.394677,0.423069 2.765255,0.913471 4.111741,1.471203 1.346492,0.557735 2.66241,1.180118 3.947742,1.867145 1.285332,0.687024 2.533905,1.435387 3.745712,2.245091 1.211815,0.809704 2.381027,1.676849 3.507637,2.601433 1.12661,0.924587 2.2052,1.90216 3.235756,2.93272 1.030556,1.030559 2.008133,2.109142 2.932717,3.235752 0.924583,1.126606 1.791725,2.295814 2.601425,3.507622 0.809707,1.211811 1.558075,2.460384 2.245102,3.745723 0.687027,1.28534 1.30941,2.601254 1.867141,3.947739 0.557732,1.346493 1.048134,2.717075 1.471207,4.111748 0.423073,1.394672 0.776772,2.806724 1.061096,4.236145 0.28434,1.429428 0.497933,2.869346 0.640785,4.319763 C 89.928574,72.588654 90,74.04258 90,75.5 Z"
           style="fill:none;stroke:#000000;stroke-width:1;stroke-linecap:butt;stroke-linejoin:miter;stroke-miterlimit:10;stroke-dasharray:none;stroke-opacity:1"
           id="path38" /></g><g
         id="g40"
         transform="matrix(0.04170065,0,0,-0.04191231,38.94841,183.72156)"><path
           d="m 23,287 c 0.666666,2 1.333334,4.66666 2,8 0.666666,3.33334 2.333334,10.66666 5,22 2.666668,11.33334 6,21.66666 10,31 4,9.33334 9,20.33334 15,33 6,12.66666 12.666664,22.66666 20,30 7.333336,7.33334 16,14.66666 26,22 10,7.33334 21,10.33334 33,9 50,0 82,-21.33334 96,-64 l 10,9 c 41.33334,36.66666 80.66666,55 118,55 43.33334,0 77.33334,-15.66666 102,-47 24.66666,-31.33334 37,-69.33334 37,-114 C 497,209 471.66666,142.66667 421,82 370.33334,21.333332 313,-9.333333 249,-10 c -14.66667,0 -27.66667,2 -39,6 -7.33333,3.33333349 -15,8.333333 -23,15 -8,6.666668 -14.33333,12.333332 -19,17 l -7,8 c -0.66667,-0.666668 -8,-29.6666641 -22,-87 -14,-57.33334 -21,-86.33333 -21,-87 0,-4 2.66666,-6.33333 8,-7 5.33333,-0.66667 17.66667,-1.66667 37,-3 h 25 c 4,-4.66667 6,-7.66667 6,-9 0,-1.33333 -1,-7.33333 -3,-18 -2,-8 -4,-13 -6,-15 -2,-2 -6.33333,-3.33333 -13,-4 -1.33333,0 -5,0 -11,0 -6,0 -17.33333,0.33333 -34,1 -16.66667,0.66667 -37.333328,1 -62,1 -46.666668,0 -76.333333,-0.66667 -89,-2 h -8 c -4.666668,4.66667 -7,8.33333 -7,11 1.333332,18 5.666668,29.66667 13,35 h 20 c 22.666668,0.66667 35.666666,4.66667 39,12 2,4 22.333332,83.666656 61,239 38.66667,155.33334 59,237.66666 61,247 0.66667,3.33334 1,8 1,14 0,27.33334 -8.33333,41 -25,41 -14.66666,0 -27,-9.33334 -37,-28 C 84,358.33334 76.333336,338 71,316 65.666664,294 61.666668,282 59,280 57.666668,278.66666 52.333336,278 43,278 H 29 c -4,4 -6,7 -6,9 z M 178,102 c 14.66667,-50.666668 39.33333,-76 74,-76 20,0 39.33334,7.666664 58,23 18.66666,15.333336 34,34.666664 46,58 12,22.66667 24,58.66666 36,108 12,49.33334 18.33334,86 19,110 v 6 c 0,49.33334 -20.33334,74 -61,74 -7.33334,0 -14.66666,-1 -22,-3 -7.33334,-2 -14.66666,-5 -22,-9 -7.33334,-4 -14,-8.33334 -20,-13 -6,-4.66666 -11.66666,-9.66666 -17,-15 -5.33334,-5.33334 -10.33334,-10.33334 -15,-15 -4.66667,-4.66666 -8.33333,-9.33334 -11,-14 -2.66667,-4.66666 -5.33333,-8 -8,-10 l -3,-4 c 0,-0.66666 -1,-5.33334 -3,-14 -2,-8.66666 -5.66667,-23.33334 -11,-44 -5.33333,-20.66667 -10,-38 -14,-52 -17.33333,-70.66667 -26,-107.33334 -26,-110 z"
           style="fill:#000000;fill-opacity:1;fill-rule:nonzero;stroke:none"
           id="path42" /><path
           d="m 23,287 c 0.666666,2 1.333334,4.66666 2,8 0.666666,3.33334 2.333334,10.66666 5,22 2.666668,11.33334 6,21.66666 10,31 4,9.33334 9,20.33334 15,33 6,12.66666 12.666664,22.66666 20,30 7.333336,7.33334 16,14.66666 26,22 10,7.33334 21,10.33334 33,9 50,0 82,-21.33334 96,-64 l 10,9 c 41.33334,36.66666 80.66666,55 118,55 43.33334,0 77.33334,-15.66666 102,-47 24.66666,-31.33334 37,-69.33334 37,-114 C 497,209 471.66666,142.66667 421,82 370.33334,21.333332 313,-9.333333 249,-10 c -14.66667,0 -27.66667,2 -39,6 -7.33333,3.33333349 -15,8.333333 -23,15 -8,6.666668 -14.33333,12.333332 -19,17 l -7,8 c -0.66667,-0.666668 -8,-29.6666641 -22,-87 -14,-57.33334 -21,-86.33333 -21,-87 0,-4 2.66666,-6.33333 8,-7 5.33333,-0.66667 17.66667,-1.66667 37,-3 h 25 c 4,-4.66667 6,-7.66667 6,-9 0,-1.33333 -1,-7.33333 -3,-18 -2,-8 -4,-13 -6,-15 -2,-2 -6.33333,-3.33333 -13,-4 -1.33333,0 -5,0 -11,0 -6,0 -17.33333,0.33333 -34,1 -16.66667,0.66667 -37.333328,1 -62,1 -46.666668,0 -76.333333,-0.66667 -89,-2 h -8 c -4.666668,4.66667 -7,8.33333 -7,11 1.333332,18 5.666668,29.66667 13,35 h 20 c 22.666668,0.66667 35.666666,4.66667 39,12 2,4 22.333332,83.666656 61,239 38.66667,155.33334 59,237.66666 61,247 0.66667,3.33334 1,8 1,14 0,27.33334 -8.33333,41 -25,41 -14.66666,0 -27,-9.33334 -37,-28 C 84,358.33334 76.333336,338 71,316 65.666664,294 61.666668,282 59,280 57.666668,278.66666 52.333336,278 43,278 H 29 c -4,4 -6,7 -6,9 z M 178,102 c 14.66667,-50.666668 39.33333,-76 74,-76 20,0 39.33334,7.666664 58,23 18.66666,15.333336 34,34.666664 46,58 12,22.66667 24,58.66666 36,108 12,49.33334 18.33334,86 19,110 v 6 c 0,49.33334 -20.33334,74 -61,74 -7.33334,0 -14.66666,-1 -22,-3 -7.33334,-2 -14.66666,-5 -22,-9 -7.33334,-4 -14,-8.33334 -20,-13 -6,-4.66666 -11.66666,-9.66666 -17,-15 -5.33334,-5.33334 -10.33334,-10.33334 -15,-15 -4.66667,-4.66666 -8.33333,-9.33334 -11,-14 -2.66667,-4.66666 -5.33333,-8 -8,-10 l -3,-4 c 0,-0.66666 -1,-5.33334 -3,-14 -2,-8.66666 -5.66667,-23.33334 -11,-44 -5.33333,-20.66667 -10,-38 -14,-52 -17.33333,-70.66667 -26,-107.33334 -26,-110 z"
           style="fill:none;stroke:#000000;stroke-width:1;stroke-linecap:butt;stroke-linejoin:miter;stroke-miterlimit:10;stroke-dasharray:none;stroke-opacity:0.1255"
           id="path44" /></g><g
         id="g46"
         transform="matrix(0.02948236,0,0,-0.029632,61.299957,166.41177)"><path
           d="m 79,43 c -4,0 -13,2 -27,6 -14,4 -21.333334,8 -22,12 0,4.666664 18.333332,82 55,232 36.66667,150 57,228.33331 61,235 10,21.33331 27.33333,32 52,32 13.33333,0 27.33333,-5 42,-15 14.66667,-10 22,-24.66669 22,-44 0,-3.33334 -0.66666,-8.33334 -2,-15 -0.66666,-4.66666 -29.66666,-79 -87,-223 C 115.66666,119 86,46.333332 84,45 82,43.666668 80.333336,43 79,43 Z"
           style="fill:#000000;fill-opacity:1;fill-rule:nonzero;stroke:none"
           id="path48" /><path
           d="m 79,43 c -4,0 -13,2 -27,6 -14,4 -21.333334,8 -22,12 0,4.666664 18.333332,82 55,232 36.66667,150 57,228.33331 61,235 10,21.33331 27.33333,32 52,32 13.33333,0 27.33333,-5 42,-15 14.66667,-10 22,-24.66669 22,-44 0,-3.33334 -0.66666,-8.33334 -2,-15 -0.66666,-4.66666 -29.66666,-79 -87,-223 C 115.66666,119 86,46.333332 84,45 82,43.666668 80.333336,43 79,43 Z"
           style="fill:none;stroke:#000000;stroke-width:1;stroke-linecap:butt;stroke-linejoin:miter;stroke-miterlimit:10;stroke-dasharray:none;stroke-opacity:0.0902"
           id="path50" /></g><g
         id="g52"
         transform="matrix(0.04170065,0,0,-0.04191231,83.080208,183.72156)"><path
           d="m 56,347 c 0,8.66666 4.666664,15.33334 14,20 h 637 c 10,-5.33334 15,-12 15,-20 0,-7.33334 -4.66669,-13.66666 -14,-19 L 390,327 H 72 c -10.666668,3.33334 -16,10 -16,20 z m 0,-194 c 0,10 5.333332,16.66667 16,20 h 636 c 9.33331,-6.66667 14,-13.33333 14,-20 0,-8.66667 -5,-15.33333 -15,-20 H 70 c -9.333336,4.66667 -14,11.33333 -14,20 z"
           style="fill:#000000;fill-opacity:1;fill-rule:nonzero;stroke:none"
           id="path54" /><path
           d="m 56,347 c 0,8.66666 4.666664,15.33334 14,20 h 637 c 10,-5.33334 15,-12 15,-20 0,-7.33334 -4.66669,-13.66666 -14,-19 L 390,327 H 72 c -10.666668,3.33334 -16,10 -16,20 z m 0,-194 c 0,10 5.333332,16.66667 16,20 h 636 c 9.33331,-6.66667 14,-13.33333 14,-20 0,-8.66667 -5,-15.33333 -15,-20 H 70 c -9.333336,4.66667 -14,11.33333 -14,20 z"
           style="fill:none;stroke:#000000;stroke-width:1;stroke-linecap:butt;stroke-linejoin:miter;stroke-miterlimit:10;stroke-dasharray:none;stroke-opacity:0.1255"
           id="path56" /></g><g
         id="g58"
         transform="matrix(0.04170065,0,0,-0.04191231,127.10776,183.72156)"><path
           d="m 173,380 c 0,16.66666 -6.33333,25 -19,25 -16,0 -32.66666,-9.66666 -50,-29 -17.333336,-19.33334 -31.666664,-49 -43,-89 -0.666668,-0.66666 -1.333332,-1.66666 -2,-3 -0.666668,-1.33334 -1,-2.33334 -1,-3 0,-0.66666 -0.666668,-1.33334 -2,-2 -1.333332,-0.66666 -2.333332,-1 -3,-1 -0.666668,0 -2,0 -4,0 -2,0 -4.666668,0 -8,0 H 27 c -4,4 -6,7 -6,9 0,4.66666 2.666666,14.33334 8,29 5.333332,14.66666 13.333332,32 24,52 10.666668,20 25.333328,37 44,51 18.66667,14 39.66667,21.33334 63,22 28,0 49.66667,-8 65,-24 15.33333,-16 23.33333,-34.66666 24,-56 0,-11.33334 -1,-20 -3,-26 0,-4 -5,-18.66666 -15,-44 -10,-25.33334 -20.33333,-55 -31,-89 -10.66667,-34 -16.66667,-63.66667 -18,-89 0,-18 1.66667,-32.666664 5,-44 8.66667,-28.666668 29.66666,-43 63,-43 24.66666,0 47.66666,11.333332 69,34 21.33334,22.666672 38,49 50,79 12,30 21.66666,57.66667 29,83 7.33334,25.33333 11,43.66666 11,55 0,15.33334 -2.66666,28.66666 -8,40 -5.33334,11.33334 -11.33334,20 -18,26 -6.66666,6 -12.66666,12 -18,18 -5.33334,6 -8,13.33334 -8,22 0,14.66666 6.33334,28.33334 19,41 12.66666,12.66666 26.33334,19 41,19 12.66666,0 24,-6 34,-18 10,-12 15.33334,-31.33334 16,-58 0,-18 -4,-45.66666 -12,-83 C 447,246.66666 434.66666,205 418,159 401.33334,113 377.66666,73.333336 347,40 316.33334,6.6666641 281,-10.333333 241,-11 c -42.66667,0 -76.66667,11 -102,33 -24.66667,21.333336 -37,53 -37,95 0,20.66667 2.66666,42 8,64 5.33334,22 19,61 41,117 14.66667,42.66666 22,70 22,82 z"
           style="fill:#000000;fill-opacity:1;fill-rule:nonzero;stroke:none"
           id="path60" /><path
           d="m 173,380 c 0,16.66666 -6.33333,25 -19,25 -16,0 -32.66666,-9.66666 -50,-29 -17.333336,-19.33334 -31.666664,-49 -43,-89 -0.666668,-0.66666 -1.333332,-1.66666 -2,-3 -0.666668,-1.33334 -1,-2.33334 -1,-3 0,-0.66666 -0.666668,-1.33334 -2,-2 -1.333332,-0.66666 -2.333332,-1 -3,-1 -0.666668,0 -2,0 -4,0 -2,0 -4.666668,0 -8,0 H 27 c -4,4 -6,7 -6,9 0,4.66666 2.666666,14.33334 8,29 5.333332,14.66666 13.333332,32 24,52 10.666668,20 25.333328,37 44,51 18.66667,14 39.66667,21.33334 63,22 28,0 49.66667,-8 65,-24 15.33333,-16 23.33333,-34.66666 24,-56 0,-11.33334 -1,-20 -3,-26 0,-4 -5,-18.66666 -15,-44 -10,-25.33334 -20.33333,-55 -31,-89 -10.66667,-34 -16.66667,-63.66667 -18,-89 0,-18 1.66667,-32.666664 5,-44 8.66667,-28.666668 29.66666,-43 63,-43 24.66666,0 47.66666,11.333332 69,34 21.33334,22.666672 38,49 50,79 12,30 21.66666,57.66667 29,83 7.33334,25.33333 11,43.66666 11,55 0,15.33334 -2.66666,28.66666 -8,40 -5.33334,11.33334 -11.33334,20 -18,26 -6.66666,6 -12.66666,12 -18,18 -5.33334,6 -8,13.33334 -8,22 0,14.66666 6.33334,28.33334 19,41 12.66666,12.66666 26.33334,19 41,19 12.66666,0 24,-6 34,-18 10,-12 15.33334,-31.33334 16,-58 0,-18 -4,-45.66666 -12,-83 C 447,246.66666 434.66666,205 418,159 401.33334,113 377.66666,73.333336 347,40 316.33334,6.6666641 281,-10.333333 241,-11 c -42.66667,0 -76.66667,11 -102,33 -24.66667,21.333336 -37,53 -37,95 0,20.66667 2.66666,42 8,64 5.33334,22 19,61 41,117 14.66667,42.66666 22,70 22,82 z"
           style="fill:none;stroke:#000000;stroke-width:1;stroke-linecap:butt;stroke-linejoin:miter;stroke-miterlimit:10;stroke-dasharray:none;stroke-opacity:0.1255"
           id="path62" /></g><g
         id="g64"
         transform="matrix(0.04170065,0,0,-0.04191231,39.69902,240.68039)"><path
           d="m 173,380 c 0,16.66666 -6.33333,25 -19,25 -16,0 -32.66666,-9.66666 -50,-29 -17.333336,-19.33334 -31.666664,-49 -43,-89 -0.666668,-0.66666 -1.333332,-1.66666 -2,-3 -0.666668,-1.33334 -1,-2.33334 -1,-3 0,-0.66666 -0.666668,-1.33334 -2,-2 -1.333332,-0.66666 -2.333332,-1 -3,-1 -0.666668,0 -2,0 -4,0 -2,0 -4.666668,0 -8,0 H 27 c -4,4 -6,7 -6,9 0,4.66666 2.666666,14.33334 8,29 5.333332,14.66666 13.333332,32 24,52 10.666668,20 25.333328,37 44,51 18.66667,14 39.66667,21.33334 63,22 28,0 49.66667,-8 65,-24 15.33333,-16 23.33333,-34.66666 24,-56 0,-11.33334 -1,-20 -3,-26 0,-4 -5,-18.66666 -15,-44 -10,-25.33334 -20.33333,-55 -31,-89 -10.66667,-34 -16.66667,-63.66667 -18,-89 0,-18 1.66667,-32.666664 5,-44 8.66667,-28.666668 29.66666,-43 63,-43 24.66666,0 47.66666,11.333332 69,34 21.33334,22.666672 38,49 50,79 12,30 21.66666,57.66667 29,83 7.33334,25.33333 11,43.66666 11,55 0,15.33334 -2.66666,28.66666 -8,40 -5.33334,11.33334 -11.33334,20 -18,26 -6.66666,6 -12.66666,12 -18,18 -5.33334,6 -8,13.33334 -8,22 0,14.66666 6.33334,28.33334 19,41 12.66666,12.66666 26.33334,19 41,19 12.66666,0 24,-6 34,-18 10,-12 15.33334,-31.33334 16,-58 0,-18 -4,-45.66666 -12,-83 C 447,246.66666 434.66666,205 418,159 401.33334,113 377.66666,73.333336 347,40 316.33334,6.6666641 281,-10.333333 241,-11 c -42.66667,0 -76.66667,11 -102,33 -24.66667,21.333336 -37,53 -37,95 0,20.66667 2.66666,42 8,64 5.33334,22 19,61 41,117 14.66667,42.66666 22,70 22,82 z"
           style="fill:#000000;fill-opacity:1;fill-rule:nonzero;stroke:none"
           id="path66" /><path
           d="m 173,380 c 0,16.66666 -6.33333,25 -19,25 -16,0 -32.66666,-9.66666 -50,-29 -17.333336,-19.33334 -31.666664,-49 -43,-89 -0.666668,-0.66666 -1.333332,-1.66666 -2,-3 -0.666668,-1.33334 -1,-2.33334 -1,-3 0,-0.66666 -0.666668,-1.33334 -2,-2 -1.333332,-0.66666 -2.333332,-1 -3,-1 -0.666668,0 -2,0 -4,0 -2,0 -4.666668,0 -8,0 H 27 c -4,4 -6,7 -6,9 0,4.66666 2.666666,14.33334 8,29 5.333332,14.66666 13.333332,32 24,52 10.666668,20 25.333328,37 44,51 18.66667,14 39.66667,21.33334 63,22 28,0 49.66667,-8 65,-24 15.33333,-16 23.33333,-34.66666 24,-56 0,-11.33334 -1,-20 -3,-26 0,-4 -5,-18.66666 -15,-44 -10,-25.33334 -20.33333,-55 -31,-89 -10.66667,-34 -16.66667,-63.66667 -18,-89 0,-18 1.66667,-32.666664 5,-44 8.66667,-28.666668 29.66666,-43 63,-43 24.66666,0 47.66666,11.333332 69,34 21.33334,22.666672 38,49 50,79 12,30 21.66666,57.66667 29,83 7.33334,25.33333 11,43.66666 11,55 0,15.33334 -2.66666,28.66666 -8,40 -5.33334,11.33334 -11.33334,20 -18,26 -6.66666,6 -12.66666,12 -18,18 -5.33334,6 -8,13.33334 -8,22 0,14.66666 6.33334,28.33334 19,41 12.66666,12.66666 26.33334,19 41,19 12.66666,0 24,-6 34,-18 10,-12 15.33334,-31.33334 16,-58 0,-18 -4,-45.66666 -12,-83 C 447,246.66666 434.66666,205 418,159 401.33334,113 377.66666,73.333336 347,40 316.33334,6.6666641 281,-10.333333 241,-11 c -42.66667,0 -76.66667,11 -102,33 -24.66667,21.333336 -37,53 -37,95 0,20.66667 2.66666,42 8,64 5.33334,22 19,61 41,117 14.66667,42.66666 22,70 22,82 z"
           style="fill:none;stroke:#000000;stroke-width:1;stroke-linecap:butt;stroke-linejoin:miter;stroke-miterlimit:10;stroke-dasharray:none;stroke-opacity:0.1255"
           id="path68" /></g><g
         id="g70"
         transform="matrix(0.02948236,0,0,-0.029632,61.299957,223.37059)"><path
           d="m 79,43 c -4,0 -13,2 -27,6 -14,4 -21.333334,8 -22,12 0,4.666664 18.333332,82 55,232 36.66667,150 57,228.33331 61,235 10,21.33331 27.33333,32 52,32 13.33333,0 27.33333,-5 42,-15 14.66667,-10 22,-24.66669 22,-44 0,-3.33334 -0.66666,-8.33334 -2,-15 -0.66666,-4.66666 -29.66666,-79 -87,-223 C 115.66666,119 86,46.333332 84,45 82,43.666668 80.333336,43 79,43 Z"
           style="fill:#000000;fill-opacity:1;fill-rule:nonzero;stroke:none"
           id="path72" /><path
           d="m 79,43 c -4,0 -13,2 -27,6 -14,4 -21.333334,8 -22,12 0,4.666664 18.333332,82 55,232 36.66667,150 57,228.33331 61,235 10,21.33331 27.33333,32 52,32 13.33333,0 27.33333,-5 42,-15 14.66667,-10 22,-24.66669 22,-44 0,-3.33334 -0.66666,-8.33334 -2,-15 -0.66666,-4.66666 -29.66666,-79 -87,-223 C 115.66666,119 86,46.333332 84,45 82,43.666668 80.333336,43 79,43 Z"
           style="fill:none;stroke:#000000;stroke-width:1;stroke-linecap:butt;stroke-linejoin:miter;stroke-miterlimit:10;stroke-dasharray:none;stroke-opacity:0.0902"
           id="path74" /></g><g
         id="g76"
         transform="matrix(0.04170065,0,0,-0.04191231,83.080208,240.68039)"><path
           d="m 56,347 c 0,8.66666 4.666664,15.33334 14,20 h 637 c 10,-5.33334 15,-12 15,-20 0,-7.33334 -4.66669,-13.66666 -14,-19 L 390,327 H 72 c -10.666668,3.33334 -16,10 -16,20 z m 0,-194 c 0,10 5.333332,16.66667 16,20 h 636 c 9.33331,-6.66667 14,-13.33333 14,-20 0,-8.66667 -5,-15.33333 -15,-20 H 70 c -9.333336,4.66667 -14,11.33333 -14,20 z"
           style="fill:#000000;fill-opacity:1;fill-rule:nonzero;stroke:none"
           id="path78" /><path
           d="m 56,347 c 0,8.66666 4.666664,15.33334 14,20 h 637 c 10,-5.33334 15,-12 15,-20 0,-7.33334 -4.66669,-13.66666 -14,-19 L 390,327 H 72 c -10.666668,3.33334 -16,10 -16,20 z m 0,-194 c 0,10 5.333332,16.66667 16,20 h 636 c 9.33331,-6.66667 14,-13.33333 14,-20 0,-8.66667 -5,-15.33333 -15,-20 H 70 c -9.333336,4.66667 -14,11.33333 -14,20 z"
           style="fill:none;stroke:#000000;stroke-width:1;stroke-linecap:butt;stroke-linejoin:miter;stroke-miterlimit:10;stroke-dasharray:none;stroke-opacity:0.1255"
           id="path80" /></g><g
         id="g82"
         transform="matrix(0.04170065,0,0,-0.04191231,127.10776,240.68039)"><path
           d="m 84,237 c 0,0 0,4.33333 0,13 0,8.66666 4.666664,15.33334 14,20 h 581 c 10,-5.33334 15,-12 15,-20 0,-8 -5,-14.66667 -15,-20 H 98 c -9.333336,4.66667 -14,11.33333 -14,20 z"
           style="fill:#000000;fill-opacity:1;fill-rule:nonzero;stroke:none"
           id="path84" /><path
           d="m 84,237 c 0,0 0,4.33333 0,13 0,8.66666 4.666664,15.33334 14,20 h 581 c 10,-5.33334 15,-12 15,-20 0,-8 -5,-14.66667 -15,-20 H 98 c -9.333336,4.66667 -14,11.33333 -14,20 z"
           style="fill:none;stroke:#000000;stroke-width:1;stroke-linecap:butt;stroke-linejoin:miter;stroke-miterlimit:10;stroke-dasharray:none;stroke-opacity:0.1255"
           id="path86" /></g><g
         id="g88"
         transform="matrix(0.04170065,0,0,-0.04191231,159.55087,240.68039)"><path
           d="m 352,287 c -32,-50.66667 -72,-76 -120,-76 -52,0 -94.66666,19.66666 -128,59 -33.333336,39.33334 -53.333332,81.33334 -60,126 -1.333332,10.66666 -2,24 -2,40 v 8 c 0,62 23,116 69,162 40,40 84,60 132,60 1.33333,0 3.33333,0 6,0 2.66667,0 5.33333,-0.33331 8,-1 h 4 c 8,0 16.33334,-0.66669 25,-2 8.66666,-1.33331 21,-5.33331 37,-12 16,-6.66669 31.66666,-17.33331 47,-32 15.33334,-14.66669 29.66666,-34.33331 43,-59 28.66666,-58.66666 43,-134 43,-226 C 456,240.66666 436,161.66667 396,97 372.66666,59.666664 344.66666,30.666668 312,10 279.33334,-10.666668 244.66667,-21.333334 208,-22 167.33333,-22 134,-12.333334 108,7 82,26.333334 68.666664,55 68,93 c -0.666664,38 17,56.66667 53,56 14.66667,0 27,-4.66667 37,-14 10,-9.33334 15,-22.33333 15,-39 0,-12 -3,-22.333336 -9,-31 -6,-8.666668 -11.33333,-14 -16,-16 -4.66667,-2 -9,-3.666668 -13,-5 l -4,-1 c 0,-1.333332 2.33333,-3.333332 7,-6 4.66667,-2.666668 13.33333,-6 26,-10 12.66667,-4 26.66667,-5.666666 42,-5 h 6 c 40,0 73.66666,21.333332 101,64 26,37.33334 39,102 39,194 z M 244,248 c 32,0 57.66666,16.33334 77,49 19.33334,32.66666 29.33334,77 30,133 0,52 -2.66666,89.33331 -8,112 -1.33334,6.66669 -3.33334,13.33331 -6,20 -2.66666,6.66669 -7.33334,15.33331 -14,26 -6.66666,10.66669 -16.66666,19.66669 -30,27 -13.33334,7.33331 -29,10.66669 -47,10 -25.33333,0 -47,-9 -65,-27 -14,-14.66669 -23,-32 -27,-52 -4,-20 -6.33333,-55 -7,-105 0,-55.33334 1.66667,-92.66666 5,-112 3.33333,-19.33334 10,-35 20,-47 16.66667,-22.66666 40.66667,-34 72,-34 z"
           style="fill:#000000;fill-opacity:1;fill-rule:nonzero;stroke:none"
           id="path90" /><path
           d="m 352,287 c -32,-50.66667 -72,-76 -120,-76 -52,0 -94.66666,19.66666 -128,59 -33.333336,39.33334 -53.333332,81.33334 -60,126 -1.333332,10.66666 -2,24 -2,40 v 8 c 0,62 23,116 69,162 40,40 84,60 132,60 1.33333,0 3.33333,0 6,0 2.66667,0 5.33333,-0.33331 8,-1 h 4 c 8,0 16.33334,-0.66669 25,-2 8.66666,-1.33331 21,-5.33331 37,-12 16,-6.66669 31.66666,-17.33331 47,-32 15.33334,-14.66669 29.66666,-34.33331 43,-59 28.66666,-58.66666 43,-134 43,-226 C 456,240.66666 436,161.66667 396,97 372.66666,59.666664 344.66666,30.666668 312,10 279.33334,-10.666668 244.66667,-21.333334 208,-22 167.33333,-22 134,-12.333334 108,7 82,26.333334 68.666664,55 68,93 c -0.666664,38 17,56.66667 53,56 14.66667,0 27,-4.66667 37,-14 10,-9.33334 15,-22.33333 15,-39 0,-12 -3,-22.333336 -9,-31 -6,-8.666668 -11.33333,-14 -16,-16 -4.66667,-2 -9,-3.666668 -13,-5 l -4,-1 c 0,-1.333332 2.33333,-3.333332 7,-6 4.66667,-2.666668 13.33333,-6 26,-10 12.66667,-4 26.66667,-5.666666 42,-5 h 6 c 40,0 73.66666,21.333332 101,64 26,37.33334 39,102 39,194 z M 244,248 c 32,0 57.66666,16.33334 77,49 19.33334,32.66666 29.33334,77 30,133 0,52 -2.66666,89.33331 -8,112 -1.33334,6.66669 -3.33334,13.33331 -6,20 -2.66666,6.66669 -7.33334,15.33331 -14,26 -6.66666,10.66669 -16.66666,19.66669 -30,27 -13.33334,7.33331 -29,10.66669 -47,10 -25.33333,0 -47,-9 -65,-27 -14,-14.66669 -23,-32 -27,-52 -4,-20 -6.33333,-55 -7,-105 0,-55.33334 1.66667,-92.66666 5,-112 3.33333,-19.33334 10,-35 20,-47 16.66667,-22.66666 40.66667,-34 72,-34 z"
           style="fill:none;stroke:#000000;stroke-width:1;stroke-linecap:butt;stroke-linejoin:miter;stroke-miterlimit:10;stroke-dasharray:none;stroke-opacity:0.1255"
           id="path92" /></g><g
         id="g94"
         transform="matrix(0.04170065,0,0,-0.04191231,180.4012,240.68039)"><path
           d="m 78,60 c 0,16 5.666664,30 17,42 11.33334,12 25.66666,18 43,18 16,0 30,-5.33334 42,-16 C 192,93.333336 198.33333,79 199,61 199,44.333332 193.33333,30 182,18 170.66667,6 156.33333,0 139,0 121.66666,0 107.33334,5.666666 96,17 84.666664,28.333334 78.666664,42.666664 78,60 Z"
           style="fill:#000000;fill-opacity:1;fill-rule:nonzero;stroke:none"
           id="path96" /><path
           d="m 78,60 c 0,16 5.666664,30 17,42 11.33334,12 25.66666,18 43,18 16,0 30,-5.33334 42,-16 C 192,93.333336 198.33333,79 199,61 199,44.333332 193.33333,30 182,18 170.66667,6 156.33333,0 139,0 121.66666,0 107.33334,5.666666 96,17 84.666664,28.333334 78.666664,42.666664 78,60 Z"
           style="fill:none;stroke:#000000;stroke-width:1;stroke-linecap:butt;stroke-linejoin:miter;stroke-miterlimit:10;stroke-dasharray:none;stroke-opacity:0.1255"
           id="path98" /></g><g
         id="g100"
         transform="matrix(0.04170065,0,0,-0.04191231,191.99397,240.68039)"><path
           d="m 70,417 c 0,0 0,25.66666 0,77 0,51.33331 18,92.66669 54,124 36,31.33331 77.33333,47.33331 124,48 47.33334,0 89.33334,-14 126,-42 36.66666,-28 55,-64.33331 55,-109 0,-20 -3.66666,-38.66666 -11,-56 -7.33334,-17.33334 -16,-31.33334 -26,-42 -10,-10.66666 -20.33334,-20 -31,-28 -10.66666,-8 -19.33334,-14 -26,-18 -6.66666,-4 -10.33334,-6.66666 -11,-8 l 14,-9 c 9.33334,-6.66666 18.66666,-13.33334 28,-20 9.33334,-6.66666 14.66666,-10.33334 16,-11 50,-39.33334 75,-89 75,-149 C 457,121.33333 437.66666,75.666672 399,37 360.33334,-1.6666679 310.33334,-21.333334 249,-22 189,-22 139.66667,-5 101,29 62.333332,63 43,105 43,155 c 0,72 43,132 129,180 l -18,13 c -14,8.66666 -23,15.33334 -27,20 -38,32.66666 -57,74.66666 -57,126 z m 216,-31 6,4 c 4,2.66666 7,4.66666 9,6 2,1.33334 5.33334,3.66666 10,7 4.66666,3.33334 8.66666,6.66666 12,10 3.33334,3.33334 7,7.33334 11,12 4,4.66666 7.66666,9 11,13 3.33334,4 6.66666,9.33334 10,16 3.33334,6.66666 6.33334,12.33334 9,17 2.66666,4.66666 4.33334,11.33334 5,20 0.66666,8.66666 1.33334,16 2,22 0,28.66669 -9.66666,53 -29,73 -19.33334,20 -41.66666,32.66669 -67,38 -4.66666,0.66669 -15.66666,1 -33,1 -27.33333,0 -53,-8.66669 -77,-26 -24,-17.33331 -36.33333,-39 -37,-65 0,-15.33331 4.33333,-29.33334 13,-42 8.66667,-12.66666 17.33333,-22.33334 26,-29 8.66667,-6.66666 25.33333,-17.33334 50,-32 4.66667,-3.33334 8.33333,-5.66666 11,-7 z M 250,21 c 38.66666,0 72,11.333332 100,34 28,22.666672 42,50 42,82 0,11.33333 -1.66666,22 -5,32 -3.33334,10 -7.33334,18.33333 -12,25 -4.66666,6.66667 -12,14 -22,22 -10,8 -17.66666,14 -23,18 -5.33334,4 -15,10.33333 -29,19 -14,8.66666 -23,14.33334 -27,17 -9.33334,6 -19.33333,12.33334 -30,19 -10.66667,6.66666 -19.33333,12.33334 -26,17 l -8,5 c -4,0 -13.66667,-5.66666 -29,-17 -15.33333,-11.33334 -31.33333,-29.66666 -48,-55 -16.66667,-25.33333 -25.33334,-52.66667 -26,-82 0,-39.33334 14.33333,-71.666664 43,-97 28.66667,-25.333336 62,-38.333334 100,-39 z"
           style="fill:#000000;fill-opacity:1;fill-rule:nonzero;stroke:none"
           id="path102" /><path
           d="m 70,417 c 0,0 0,25.66666 0,77 0,51.33331 18,92.66669 54,124 36,31.33331 77.33333,47.33331 124,48 47.33334,0 89.33334,-14 126,-42 36.66666,-28 55,-64.33331 55,-109 0,-20 -3.66666,-38.66666 -11,-56 -7.33334,-17.33334 -16,-31.33334 -26,-42 -10,-10.66666 -20.33334,-20 -31,-28 -10.66666,-8 -19.33334,-14 -26,-18 -6.66666,-4 -10.33334,-6.66666 -11,-8 l 14,-9 c 9.33334,-6.66666 18.66666,-13.33334 28,-20 9.33334,-6.66666 14.66666,-10.33334 16,-11 50,-39.33334 75,-89 75,-149 C 457,121.33333 437.66666,75.666672 399,37 360.33334,-1.6666679 310.33334,-21.333334 249,-22 189,-22 139.66667,-5 101,29 62.333332,63 43,105 43,155 c 0,72 43,132 129,180 l -18,13 c -14,8.66666 -23,15.33334 -27,20 -38,32.66666 -57,74.66666 -57,126 z m 216,-31 6,4 c 4,2.66666 7,4.66666 9,6 2,1.33334 5.33334,3.66666 10,7 4.66666,3.33334 8.66666,6.66666 12,10 3.33334,3.33334 7,7.33334 11,12 4,4.66666 7.66666,9 11,13 3.33334,4 6.66666,9.33334 10,16 3.33334,6.66666 6.33334,12.33334 9,17 2.66666,4.66666 4.33334,11.33334 5,20 0.66666,8.66666 1.33334,16 2,22 0,28.66669 -9.66666,53 -29,73 -19.33334,20 -41.66666,32.66669 -67,38 -4.66666,0.66669 -15.66666,1 -33,1 -27.33333,0 -53,-8.66669 -77,-26 -24,-17.33331 -36.33333,-39 -37,-65 0,-15.33331 4.33333,-29.33334 13,-42 8.66667,-12.66666 17.33333,-22.33334 26,-29 8.66667,-6.66666 25.33333,-17.33334 50,-32 4.66667,-3.33334 8.33333,-5.66666 11,-7 z M 250,21 c 38.66666,0 72,11.333332 100,34 28,22.666672 42,50 42,82 0,11.33333 -1.66666,22 -5,32 -3.33334,10 -7.33334,18.33333 -12,25 -4.66666,6.66667 -12,14 -22,22 -10,8 -17.66666,14 -23,18 -5.33334,4 -15,10.33333 -29,19 -14,8.66666 -23,14.33334 -27,17 -9.33334,6 -19.33333,12.33334 -30,19 -10.66667,6.66666 -19.33333,12.33334 -26,17 l -8,5 c -4,0 -13.66667,-5.66666 -29,-17 -15.33333,-11.33334 -31.33333,-29.66666 -48,-55 -16.66667,-25.33333 -25.33334,-52.66667 -26,-82 0,-39.33334 14.33333,-71.666664 43,-97 28.66667,-25.333336 62,-38.333334 100,-39 z"
           style="fill:none;stroke:#000000;stroke-width:1;stroke-linecap:butt;stroke-linejoin:miter;stroke-miterlimit:10;stroke-dasharray:none;stroke-opacity:0.1255"
           id="path104" /></g><g
         id="g106"
         transform="matrix(0.04170065,0,0,-0.04191231,212.8443,240.68039)"><path
           d="m 213,578 -13,-5 c -9.33333,-3.33331 -22.66667,-6.66669 -40,-10 -17.33333,-3.33331 -36.66666,-5.66669 -58,-7 H 83 v 46 h 19 c 31.33333,1.33331 60.33333,6.33331 87,15 26.66667,8.66669 45.33333,16.66669 56,24 10.66667,7.33331 20,14.66669 28,22 1.33334,2 5.33334,3 12,3 6,0 11.66666,-2 17,-6 V 361 l 1,-300 c 4.66666,-4.666668 8.66666,-7.666668 12,-9 3.33334,-1.333332 11.33334,-2.666668 24,-4 12.66666,-1.333332 33.33334,-2 62,-2 h 26 V 0 H 416 C 402,2 349,3 257,3 166.33333,3 114,2 100,0 H 88 v 46 h 26 c 14.66667,0 27.33333,0 38,0 10.66667,0 19,0.333332 25,1 6,0.666668 11.33333,1.666668 16,3 4.66667,1.333332 7.33333,2 8,2 0.66667,0 2.66667,1.666668 6,5 3.33333,3.333332 5.33333,4.666668 6,4 z"
           style="fill:#000000;fill-opacity:1;fill-rule:nonzero;stroke:none"
           id="path108" /><path
           d="m 213,578 -13,-5 c -9.33333,-3.33331 -22.66667,-6.66669 -40,-10 -17.33333,-3.33331 -36.66666,-5.66669 -58,-7 H 83 v 46 h 19 c 31.33333,1.33331 60.33333,6.33331 87,15 26.66667,8.66669 45.33333,16.66669 56,24 10.66667,7.33331 20,14.66669 28,22 1.33334,2 5.33334,3 12,3 6,0 11.66666,-2 17,-6 V 361 l 1,-300 c 4.66666,-4.666668 8.66666,-7.666668 12,-9 3.33334,-1.333332 11.33334,-2.666668 24,-4 12.66666,-1.333332 33.33334,-2 62,-2 h 26 V 0 H 416 C 402,2 349,3 257,3 166.33333,3 114,2 100,0 H 88 v 46 h 26 c 14.66667,0 27.33333,0 38,0 10.66667,0 19,0.333332 25,1 6,0.666668 11.33333,1.666668 16,3 4.66667,1.333332 7.33333,2 8,2 0.66667,0 2.66667,1.666668 6,5 3.33333,3.333332 5.33333,4.666668 6,4 z"
           style="fill:none;stroke:#000000;stroke-width:1;stroke-linecap:butt;stroke-linejoin:miter;stroke-miterlimit:10;stroke-dasharray:none;stroke-opacity:0.1255"
           id="path110" /></g><g
         id="g112"
         transform="matrix(0.04170065,0,0,-0.04191231,50.52034,298.10025)"><path
           d="m 23,287 c 0.666666,2 1.333334,4.66666 2,8 0.666666,3.33334 2.333334,10.66666 5,22 2.666668,11.33334 6,21.66666 10,31 4,9.33334 9,20.33334 15,33 6,12.66666 12.666664,22.66666 20,30 7.333336,7.33334 16,14.66666 26,22 10,7.33334 21,10.33334 33,9 50,0 82,-21.33334 96,-64 l 10,9 c 41.33334,36.66666 80.66666,55 118,55 43.33334,0 77.33334,-15.66666 102,-47 24.66666,-31.33334 37,-69.33334 37,-114 C 497,209 471.66666,142.66667 421,82 370.33334,21.333332 313,-9.333333 249,-10 c -14.66667,0 -27.66667,2 -39,6 -7.33333,3.33333349 -15,8.333333 -23,15 -8,6.666668 -14.33333,12.333332 -19,17 l -7,8 c -0.66667,-0.666668 -8,-29.6666641 -22,-87 -14,-57.33334 -21,-86.33333 -21,-87 0,-4 2.66666,-6.33333 8,-7 5.33333,-0.66667 17.66667,-1.66667 37,-3 h 25 c 4,-4.66667 6,-7.66667 6,-9 0,-1.33333 -1,-7.33333 -3,-18 -2,-8 -4,-13 -6,-15 -2,-2 -6.33333,-3.33333 -13,-4 -1.33333,0 -5,0 -11,0 -6,0 -17.33333,0.33333 -34,1 -16.66667,0.66667 -37.333328,1 -62,1 -46.666668,0 -76.333333,-0.66667 -89,-2 h -8 c -4.666668,4.66667 -7,8.33333 -7,11 1.333332,18 5.666668,29.66667 13,35 h 20 c 22.666668,0.66667 35.666666,4.66667 39,12 2,4 22.333332,83.666656 61,239 38.66667,155.33334 59,237.66666 61,247 0.66667,3.33334 1,8 1,14 0,27.33334 -8.33333,41 -25,41 -14.66666,0 -27,-9.33334 -37,-28 C 84,358.33334 76.333336,338 71,316 65.666664,294 61.666668,282 59,280 57.666668,278.66666 52.333336,278 43,278 H 29 c -4,4 -6,7 -6,9 z M 178,102 c 14.66667,-50.666668 39.33333,-76 74,-76 20,0 39.33334,7.666664 58,23 18.66666,15.333336 34,34.666664 46,58 12,22.66667 24,58.66666 36,108 12,49.33334 18.33334,86 19,110 v 6 c 0,49.33334 -20.33334,74 -61,74 -7.33334,0 -14.66666,-1 -22,-3 -7.33334,-2 -14.66666,-5 -22,-9 -7.33334,-4 -14,-8.33334 -20,-13 -6,-4.66666 -11.66666,-9.66666 -17,-15 -5.33334,-5.33334 -10.33334,-10.33334 -15,-15 -4.66667,-4.66666 -8.33333,-9.33334 -11,-14 -2.66667,-4.66666 -5.33333,-8 -8,-10 l -3,-4 c 0,-0.66666 -1,-5.33334 -3,-14 -2,-8.66666 -5.66667,-23.33334 -11,-44 -5.33333,-20.66667 -10,-38 -14,-52 -17.33333,-70.66667 -26,-107.33334 -26,-110 z"
           style="fill:#000000;fill-opacity:1;fill-rule:nonzero;stroke:none"
           id="path114" /><path
           d="m 23,287 c 0.666666,2 1.333334,4.66666 2,8 0.666666,3.33334 2.333334,10.66666 5,22 2.666668,11.33334 6,21.66666 10,31 4,9.33334 9,20.33334 15,33 6,12.66666 12.666664,22.66666 20,30 7.333336,7.33334 16,14.66666 26,22 10,7.33334 21,10.33334 33,9 50,0 82,-21.33334 96,-64 l 10,9 c 41.33334,36.66666 80.66666,55 118,55 43.33334,0 77.33334,-15.66666 102,-47 24.66666,-31.33334 37,-69.33334 37,-114 C 497,209 471.66666,142.66667 421,82 370.33334,21.333332 313,-9.333333 249,-10 c -14.66667,0 -27.66667,2 -39,6 -7.33333,3.33333349 -15,8.333333 -23,15 -8,6.666668 -14.33333,12.333332 -19,17 l -7,8 c -0.66667,-0.666668 -8,-29.6666641 -22,-87 -14,-57.33334 -21,-86.33333 -21,-87 0,-4 2.66666,-6.33333 8,-7 5.33333,-0.66667 17.66667,-1.66667 37,-3 h 25 c 4,-4.66667 6,-7.66667 6,-9 0,-1.33333 -1,-7.33333 -3,-18 -2,-8 -4,-13 -6,-15 -2,-2 -6.33333,-3.33333 -13,-4 -1.33333,0 -5,0 -11,0 -6,0 -17.33333,0.33333 -34,1 -16.66667,0.66667 -37.333328,1 -62,1 -46.666668,0 -76.333333,-0.66667 -89,-2 h -8 c -4.666668,4.66667 -7,8.33333 -7,11 1.333332,18 5.666668,29.66667 13,35 h 20 c 22.666668,0.66667 35.666666,4.66667 39,12 2,4 22.333332,83.666656 61,239 38.66667,155.33334 59,237.66666 61,247 0.66667,3.33334 1,8 1,14 0,27.33334 -8.33333,41 -25,41 -14.66666,0 -27,-9.33334 -37,-28 C 84,358.33334 76.333336,338 71,316 65.666664,294 61.666668,282 59,280 57.666668,278.66666 52.333336,278 43,278 H 29 c -4,4 -6,7 -6,9 z M 178,102 c 14.66667,-50.666668 39.33333,-76 74,-76 20,0 39.33334,7.666664 58,23 18.66666,15.333336 34,34.666664 46,58 12,22.66667 24,58.66666 36,108 12,49.33334 18.33334,86 19,110 v 6 c 0,49.33334 -20.33334,74 -61,74 -7.33334,0 -14.66666,-1 -22,-3 -7.33334,-2 -14.66666,-5 -22,-9 -7.33334,-4 -14,-8.33334 -20,-13 -6,-4.66666 -11.66666,-9.66666 -17,-15 -5.33334,-5.33334 -10.33334,-10.33334 -15,-15 -4.66667,-4.66666 -8.33333,-9.33334 -11,-14 -2.66667,-4.66666 -5.33333,-8 -8,-10 l -3,-4 c 0,-0.66666 -1,-5.33334 -3,-14 -2,-8.66666 -5.66667,-23.33334 -11,-44 -5.33333,-20.66667 -10,-38 -14,-52 -17.33333,-70.66667 -26,-107.33334 -26,-110 z"
           style="fill:none;stroke:#000000;stroke-width:1;stroke-linecap:butt;stroke-linejoin:miter;stroke-miterlimit:10;stroke-dasharray:none;stroke-opacity:0.1255"
           id="path116" /></g><g
         id="g118"
         transform="matrix(0.04170065,0,0,-0.04191231,83.080208,298.10025)"><path
           d="m 83,616 c 0,5.33331 2,10 6,14 4,4 7.333336,6 10,6 5.33334,0 56.66666,-22.66669 154,-68 97.33334,-45.33331 194,-91 290,-137 96,-46 144,-69.33334 144,-70 4.66669,-3.33334 7,-8.33334 7,-15 0,-6.66666 -2.33331,-11.66666 -7,-15 -1.33331,-1.33334 -98.66663,-47.66666 -292,-139 L 107,56 h -6 c -12,1.333332 -18,8 -18,20 0,0.666664 0,1.666664 0,3 -0.666664,4.666664 4.333336,10 15,16 12.66666,6.66666 62.66666,30.66666 150,72 52,24.66667 95.33334,45 130,61 L 626,346 360,472 c -46,22 -99.33334,47.33331 -160,76 -58.66667,27.33331 -92.66666,43.66669 -102,49 -9.333336,5.33331 -14.333336,11.66669 -15,19 z m 1,-734 c 0,6.66666 5,13.33334 15,20 h 579 c 10.66669,-4 16,-10.66666 16,-20 0,-8 -5,-14.66667 -15,-20 H 98 c -9.333336,4.66667 -14,11.33334 -14,20 z"
           style="fill:#000000;fill-opacity:1;fill-rule:nonzero;stroke:none"
           id="path120" /><path
           d="m 83,616 c 0,5.33331 2,10 6,14 4,4 7.333336,6 10,6 5.33334,0 56.66666,-22.66669 154,-68 97.33334,-45.33331 194,-91 290,-137 96,-46 144,-69.33334 144,-70 4.66669,-3.33334 7,-8.33334 7,-15 0,-6.66666 -2.33331,-11.66666 -7,-15 -1.33331,-1.33334 -98.66663,-47.66666 -292,-139 L 107,56 h -6 c -12,1.333332 -18,8 -18,20 0,0.666664 0,1.666664 0,3 -0.666664,4.666664 4.333336,10 15,16 12.66666,6.66666 62.66666,30.66666 150,72 52,24.66667 95.33334,45 130,61 L 626,346 360,472 c -46,22 -99.33334,47.33331 -160,76 -58.66667,27.33331 -92.66666,43.66669 -102,49 -9.333336,5.33331 -14.333336,11.66669 -15,19 z m 1,-734 c 0,6.66666 5,13.33334 15,20 h 579 c 10.66669,-4 16,-10.66666 16,-20 0,-8 -5,-14.66667 -15,-20 H 98 c -9.333336,4.66667 -14,11.33334 -14,20 z"
           style="fill:none;stroke:#000000;stroke-width:1;stroke-linecap:butt;stroke-linejoin:miter;stroke-miterlimit:10;stroke-dasharray:none;stroke-opacity:0.1255"
           id="path122" /></g><g
         id="g124"
         transform="matrix(0.04170065,0,0,-0.04191231,127.10776,298.10025)"><path
           d="m 96,585 c 37.33334,54 88.33333,81 153,81 32,0 64,-8.66669 96,-26 32,-17.33331 58,-48 78,-92 24.66666,-55.33334 37,-131.33331 37,-228 C 460,216.66666 445.66666,137.66667 417,83 403.66666,55 385.33334,32.666668 362,16 338.66666,-0.66666794 318.33334,-11 301,-15 c -17.33334,-4 -34.33334,-6.333334 -51,-7 -17.33333,0 -34.66667,2 -52,6 -17.33333,4 -37.66667,14.666666 -61,32 C 113.66666,33.333336 95.333336,55.666664 82,83 53.333332,137.66667 39,216.66666 39,320 39,436 58,524.33331 96,585 Z m 225,12 c -20,21.33331 -43.66666,32 -71,32 -28,0 -52,-10.66669 -72,-32 -16.66667,-17.33331 -27.66667,-41.33331 -33,-72 -5.33333,-30.66666 -8,-94.66666 -8,-192 0,-105.33334 2.66667,-174.66666 8,-208 5.33333,-33.333336 17.33333,-59.666664 36,-79 18.66667,-20 41.66667,-30 69,-30 26.66666,0 49.33334,10 68,30 19.33334,20 31.33334,48 36,84 4.66666,36 7.33334,103.66666 8,203 0,96.66669 -2.66666,160.33334 -8,191 -5.33334,30.66669 -16.33334,55 -33,73 z"
           style="fill:#000000;fill-opacity:1;fill-rule:nonzero;stroke:none"
           id="path126" /><path
           d="m 96,585 c 37.33334,54 88.33333,81 153,81 32,0 64,-8.66669 96,-26 32,-17.33331 58,-48 78,-92 24.66666,-55.33334 37,-131.33331 37,-228 C 460,216.66666 445.66666,137.66667 417,83 403.66666,55 385.33334,32.666668 362,16 338.66666,-0.66666794 318.33334,-11 301,-15 c -17.33334,-4 -34.33334,-6.333334 -51,-7 -17.33333,0 -34.66667,2 -52,6 -17.33333,4 -37.66667,14.666666 -61,32 C 113.66666,33.333336 95.333336,55.666664 82,83 53.333332,137.66667 39,216.66666 39,320 39,436 58,524.33331 96,585 Z m 225,12 c -20,21.33331 -43.66666,32 -71,32 -28,0 -52,-10.66669 -72,-32 -16.66667,-17.33331 -27.66667,-41.33331 -33,-72 -5.33333,-30.66666 -8,-94.66666 -8,-192 0,-105.33334 2.66667,-174.66666 8,-208 5.33333,-33.333336 17.33333,-59.666664 36,-79 18.66667,-20 41.66667,-30 69,-30 26.66666,0 49.33334,10 68,30 19.33334,20 31.33334,48 36,84 4.66666,36 7.33334,103.66666 8,203 0,96.66669 -2.66666,160.33334 -8,191 -5.33334,30.66669 -16.33334,55 -33,73 z"
           style="fill:none;stroke:#000000;stroke-width:1;stroke-linecap:butt;stroke-linejoin:miter;stroke-miterlimit:10;stroke-dasharray:none;stroke-opacity:0.1255"
           id="path128" /></g><g
         id="g130"
         transform="matrix(0.04170065,0,0,-0.04191231,38.94841,239.6745)"><path
           d="M 0,-459 H 4670"
           style="fill:none;stroke:#000000;stroke-width:1;stroke-linecap:butt;stroke-linejoin:miter;stroke-miterlimit:10;stroke-dasharray:none;stroke-opacity:1"
           id="path132" /></g><g
         id="g134"
         transform="matrix(2.9960315,0,0,2.9960315,1.4980158,1.4980158)"><path
           d="m 90,71.5 8.480003,10.389999 -6.510002,-1.61 -5.200004,4.239998 z"
           style="fill:#4d4d4d;fill-opacity:1;fill-rule:nonzero;stroke:none"
           id="path138" /><path
           d="m 90,71.5 8.480003,10.389999 -6.510002,-1.61 -5.200004,4.239998 z"
           style="fill:none;stroke:#4d4d4d;stroke-width:1;stroke-linecap:butt;stroke-linejoin:miter;stroke-miterlimit:10;stroke-dasharray:none;stroke-opacity:1"
           id="path140" /></g><g
         id="g142"
         transform="matrix(0.04204956,0,0,-0.04257222,427.45486,169.76555)"><path
           d="m 52,289 c 4.666668,28 22.666664,60.33334 54,97 31.33333,36.66666 70,55.33334 116,56 23.33333,0 44.66666,-6 64,-18 19.33334,-12 33.66666,-27 43,-45 28,42 61.66666,63 101,63 24.66666,0 46,-7.33334 64,-22 18,-14.66666 27.33331,-34.33334 28,-59 0,-19.33334 -4.66669,-35 -14,-47 -9.33334,-12 -18.33334,-19.33334 -27,-22 -8.66666,-2.66666 -16.33334,-4 -23,-4 -12.66666,0 -23,3.66666 -31,11 -8,7.33334 -12,17 -12,29 0,30.66666 16.66666,51.66666 50,63 -7.33334,8.66666 -20.66666,13 -40,13 -8.66666,0 -15,-0.66666 -19,-2 -25.33334,-10.66666 -44,-32.66666 -56,-66 -40,-147.33334 -60,-233.33333 -60,-258 0,-18.666668 5.33334,-32 16,-40 10.66666,-8 22.33334,-12 35,-12 24.66666,0 49,11 73,33 24,22 40.33334,49 49,81 2,6.66667 4,10.33333 6,11 2,0.66667 7.33334,1.33333 16,2 h 4 c 10,0 15,-2.66667 15,-8 0,-0.66667 -0.66666,-4.33333 -2,-11 C 491.33334,96 470.66666,62.333336 440,33 409.33334,3.666666 373.66666,-11 333,-11 286.33334,-11 251,10 227,52 199.66667,10.666664 168.33334,-10 133,-10 h -6 C 94.333328,-10 71,-1.333334 57,16 43,33.333336 35.666668,51.666664 35,71 c 0,21.333336 6.333332,38.66666 19,52 12.666664,13.33333 27.666664,20 45,20 28.66667,0 43,-14 43,-42 C 142,87.666664 138,76 130,66 122,56 114.33334,49.333332 107,46 99.666664,42.666668 95.333336,41 94,41 l -3,-1 c 0,-0.666668 2,-2 6,-4 4,-2 9.33334,-4.333334 16,-7 6.66666,-2.666666 13,-3.666666 19,-3 24,0 44.66667,15 62,45 6,10.666664 13.66667,33.33333 23,68 9.33333,34.66667 18.66667,70.66666 28,108 9.33333,37.33334 14.66666,59.33334 16,66 3.33334,18 5,31 5,39 0,18.66666 -5,32 -15,40 -10,8 -21.33333,12 -34,12 -26.66667,0 -51.66667,-10.66666 -75,-32 -23.33334,-21.33334 -39.66666,-48.66666 -49,-82 -1.333336,-6 -3,-9.33334 -5,-10 -2,-0.66666 -7.333336,-1.33334 -16,-2 H 58 c -4,4 -6,7.66666 -6,11 z"
           style="fill:#4d4d4d;fill-opacity:1;fill-rule:nonzero;stroke:none"
           id="path144" /><path
           d="m 52,289 c 4.666668,28 22.666664,60.33334 54,97 31.33333,36.66666 70,55.33334 116,56 23.33333,0 44.66666,-6 64,-18 19.33334,-12 33.66666,-27 43,-45 28,42 61.66666,63 101,63 24.66666,0 46,-7.33334 64,-22 18,-14.66666 27.33331,-34.33334 28,-59 0,-19.33334 -4.66669,-35 -14,-47 -9.33334,-12 -18.33334,-19.33334 -27,-22 -8.66666,-2.66666 -16.33334,-4 -23,-4 -12.66666,0 -23,3.66666 -31,11 -8,7.33334 -12,17 -12,29 0,30.66666 16.66666,51.66666 50,63 -7.33334,8.66666 -20.66666,13 -40,13 -8.66666,0 -15,-0.66666 -19,-2 -25.33334,-10.66666 -44,-32.66666 -56,-66 -40,-147.33334 -60,-233.33333 -60,-258 0,-18.666668 5.33334,-32 16,-40 10.66666,-8 22.33334,-12 35,-12 24.66666,0 49,11 73,33 24,22 40.33334,49 49,81 2,6.66667 4,10.33333 6,11 2,0.66667 7.33334,1.33333 16,2 h 4 c 10,0 15,-2.66667 15,-8 0,-0.66667 -0.66666,-4.33333 -2,-11 C 491.33334,96 470.66666,62.333336 440,33 409.33334,3.666666 373.66666,-11 333,-11 286.33334,-11 251,10 227,52 199.66667,10.666664 168.33334,-10 133,-10 h -6 C 94.333328,-10 71,-1.333334 57,16 43,33.333336 35.666668,51.666664 35,71 c 0,21.333336 6.333332,38.66666 19,52 12.666664,13.33333 27.666664,20 45,20 28.66667,0 43,-14 43,-42 C 142,87.666664 138,76 130,66 122,56 114.33334,49.333332 107,46 99.666664,42.666668 95.333336,41 94,41 l -3,-1 c 0,-0.666668 2,-2 6,-4 4,-2 9.33334,-4.333334 16,-7 6.66666,-2.666666 13,-3.666666 19,-3 24,0 44.66667,15 62,45 6,10.666664 13.66667,33.33333 23,68 9.33333,34.66667 18.66667,70.66666 28,108 9.33333,37.33334 14.66666,59.33334 16,66 3.33334,18 5,31 5,39 0,18.66666 -5,32 -15,40 -10,8 -21.33333,12 -34,12 -26.66667,0 -51.66667,-10.66666 -75,-32 -23.33334,-21.33334 -39.66666,-48.66666 -49,-82 -1.333336,-6 -3,-9.33334 -5,-10 -2,-0.66666 -7.333336,-1.33334 -16,-2 H 58 c -4,4 -6,7.66666 -6,11 z"
           style="fill:none;stroke:#4d4d4d;stroke-width:1;stroke-linecap:butt;stroke-linejoin:miter;stroke-miterlimit:10;stroke-dasharray:none;stroke-opacity:0.1255"
           id="path146" /></g><g
         id="g148"
         transform="matrix(0.04204956,0,0,-0.04257222,463.1886,169.76555)"><path
           d="m 56,347 c 0,8.66666 4.666664,15.33334 14,20 h 637 c 10,-5.33334 15,-12 15,-20 0,-7.33334 -4.66669,-13.66666 -14,-19 L 390,327 H 72 c -10.666668,3.33334 -16,10 -16,20 z m 0,-194 c 0,10 5.333332,16.66667 16,20 h 636 c 9.33331,-6.66667 14,-13.33333 14,-20 0,-8.66667 -5,-15.33333 -15,-20 H 70 c -9.333336,4.66667 -14,11.33333 -14,20 z"
           style="fill:#4d4d4d;fill-opacity:1;fill-rule:nonzero;stroke:none"
           id="path150" /><path
           d="m 56,347 c 0,8.66666 4.666664,15.33334 14,20 h 637 c 10,-5.33334 15,-12 15,-20 0,-7.33334 -4.66669,-13.66666 -14,-19 L 390,327 H 72 c -10.666668,3.33334 -16,10 -16,20 z m 0,-194 c 0,10 5.333332,16.66667 16,20 h 636 c 9.33331,-6.66667 14,-13.33333 14,-20 0,-8.66667 -5,-15.33333 -15,-20 H 70 c -9.333336,4.66667 -14,11.33333 -14,20 z"
           style="fill:none;stroke:#4d4d4d;stroke-width:1;stroke-linecap:butt;stroke-linejoin:miter;stroke-miterlimit:10;stroke-dasharray:none;stroke-opacity:0.1255"
           id="path152" /></g><g
         id="g154"
         transform="matrix(0.04204956,0,0,-0.04257222,507.5845,169.76555)"><path
           d="m 96,585 c 37.33334,54 88.33333,81 153,81 32,0 64,-8.66669 96,-26 32,-17.33331 58,-48 78,-92 24.66666,-55.33334 37,-131.33331 37,-228 C 460,216.66666 445.66666,137.66667 417,83 403.66666,55 385.33334,32.666668 362,16 338.66666,-0.66666794 318.33334,-11 301,-15 c -17.33334,-4 -34.33334,-6.333334 -51,-7 -17.33333,0 -34.66667,2 -52,6 -17.33333,4 -37.66667,14.666666 -61,32 C 113.66666,33.333336 95.333336,55.666664 82,83 53.333332,137.66667 39,216.66666 39,320 39,436 58,524.33331 96,585 Z m 225,12 c -20,21.33331 -43.66666,32 -71,32 -28,0 -52,-10.66669 -72,-32 -16.66667,-17.33331 -27.66667,-41.33331 -33,-72 -5.33333,-30.66666 -8,-94.66666 -8,-192 0,-105.33334 2.66667,-174.66666 8,-208 5.33333,-33.333336 17.33333,-59.666664 36,-79 18.66667,-20 41.66667,-30 69,-30 26.66666,0 49.33334,10 68,30 19.33334,20 31.33334,48 36,84 4.66666,36 7.33334,103.66666 8,203 0,96.66669 -2.66666,160.33334 -8,191 -5.33334,30.66669 -16.33334,55 -33,73 z"
           style="fill:#4d4d4d;fill-opacity:1;fill-rule:nonzero;stroke:none"
           id="path156" /><path
           d="m 96,585 c 37.33334,54 88.33333,81 153,81 32,0 64,-8.66669 96,-26 32,-17.33331 58,-48 78,-92 24.66666,-55.33334 37,-131.33331 37,-228 C 460,216.66666 445.66666,137.66667 417,83 403.66666,55 385.33334,32.666668 362,16 338.66666,-0.66666794 318.33334,-11 301,-15 c -17.33334,-4 -34.33334,-6.333334 -51,-7 -17.33333,0 -34.66667,2 -52,6 -17.33333,4 -37.66667,14.666666 -61,32 C 113.66666,33.333336 95.333336,55.666664 82,83 53.333332,137.66667 39,216.66666 39,320 39,436 58,524.33331 96,585 Z m 225,12 c -20,21.33331 -43.66666,32 -71,32 -28,0 -52,-10.66669 -72,-32 -16.66667,-17.33331 -27.66667,-41.33331 -33,-72 -5.33333,-30.66666 -8,-94.66666 -8,-192 0,-105.33334 2.66667,-174.66666 8,-208 5.33333,-33.333336 17.33333,-59.666664 36,-79 18.66667,-20 41.66667,-30 69,-30 26.66666,0 49.33334,10 68,30 19.33334,20 31.33334,48 36,84 4.66666,36 7.33334,103.66666 8,203 0,96.66669 -2.66666,160.33334 -8,191 -5.33334,30.66669 -16.33334,55 -33,73 z"
           style="fill:none;stroke:#4d4d4d;stroke-width:1;stroke-linecap:butt;stroke-linejoin:miter;stroke-miterlimit:10;stroke-dasharray:none;stroke-opacity:0.1255"
           id="path158" /></g><g
         id="g160"
         transform="matrix(0.04204956,0,0,-0.04257222,431.11316,225.10944)"><path
           d="m 173,380 c 0,16.66666 -6.33333,25 -19,25 -16,0 -32.66666,-9.66666 -50,-29 -17.333336,-19.33334 -31.666664,-49 -43,-89 -0.666668,-0.66666 -1.333332,-1.66666 -2,-3 -0.666668,-1.33334 -1,-2.33334 -1,-3 0,-0.66666 -0.666668,-1.33334 -2,-2 -1.333332,-0.66666 -2.333332,-1 -3,-1 -0.666668,0 -2,0 -4,0 -2,0 -4.666668,0 -8,0 H 27 c -4,4 -6,7 -6,9 0,4.66666 2.666666,14.33334 8,29 5.333332,14.66666 13.333332,32 24,52 10.666668,20 25.333328,37 44,51 18.66667,14 39.66667,21.33334 63,22 28,0 49.66667,-8 65,-24 15.33333,-16 23.33333,-34.66666 24,-56 0,-11.33334 -1,-20 -3,-26 0,-4 -5,-18.66666 -15,-44 -10,-25.33334 -20.33333,-55 -31,-89 -10.66667,-34 -16.66667,-63.66667 -18,-89 0,-18 1.66667,-32.666664 5,-44 8.66667,-28.666668 29.66666,-43 63,-43 24.66666,0 47.66666,11.333332 69,34 21.33334,22.666672 38,49 50,79 12,30 21.66666,57.66667 29,83 7.33334,25.33333 11,43.66666 11,55 0,15.33334 -2.66666,28.66666 -8,40 -5.33334,11.33334 -11.33334,20 -18,26 -6.66666,6 -12.66666,12 -18,18 -5.33334,6 -8,13.33334 -8,22 0,14.66666 6.33334,28.33334 19,41 12.66666,12.66666 26.33334,19 41,19 12.66666,0 24,-6 34,-18 10,-12 15.33334,-31.33334 16,-58 0,-18 -4,-45.66666 -12,-83 C 447,246.66666 434.66666,205 418,159 401.33334,113 377.66666,73.333336 347,40 316.33334,6.6666641 281,-10.333333 241,-11 c -42.66667,0 -76.66667,11 -102,33 -24.66667,21.333336 -37,53 -37,95 0,20.66667 2.66666,42 8,64 5.33334,22 19,61 41,117 14.66667,42.66666 22,70 22,82 z"
           style="fill:#4d4d4d;fill-opacity:1;fill-rule:nonzero;stroke:none"
           id="path162" /><path
           d="m 173,380 c 0,16.66666 -6.33333,25 -19,25 -16,0 -32.66666,-9.66666 -50,-29 -17.333336,-19.33334 -31.666664,-49 -43,-89 -0.666668,-0.66666 -1.333332,-1.66666 -2,-3 -0.666668,-1.33334 -1,-2.33334 -1,-3 0,-0.66666 -0.666668,-1.33334 -2,-2 -1.333332,-0.66666 -2.333332,-1 -3,-1 -0.666668,0 -2,0 -4,0 -2,0 -4.666668,0 -8,0 H 27 c -4,4 -6,7 -6,9 0,4.66666 2.666666,14.33334 8,29 5.333332,14.66666 13.333332,32 24,52 10.666668,20 25.333328,37 44,51 18.66667,14 39.66667,21.33334 63,22 28,0 49.66667,-8 65,-24 15.33333,-16 23.33333,-34.66666 24,-56 0,-11.33334 -1,-20 -3,-26 0,-4 -5,-18.66666 -15,-44 -10,-25.33334 -20.33333,-55 -31,-89 -10.66667,-34 -16.66667,-63.66667 -18,-89 0,-18 1.66667,-32.666664 5,-44 8.66667,-28.666668 29.66666,-43 63,-43 24.66666,0 47.66666,11.333332 69,34 21.33334,22.666672 38,49 50,79 12,30 21.66666,57.66667 29,83 7.33334,25.33333 11,43.66666 11,55 0,15.33334 -2.66666,28.66666 -8,40 -5.33334,11.33334 -11.33334,20 -18,26 -6.66666,6 -12.66666,12 -18,18 -5.33334,6 -8,13.33334 -8,22 0,14.66666 6.33334,28.33334 19,41 12.66666,12.66666 26.33334,19 41,19 12.66666,0 24,-6 34,-18 10,-12 15.33334,-31.33334 16,-58 0,-18 -4,-45.66666 -12,-83 C 447,246.66666 434.66666,205 418,159 401.33334,113 377.66666,73.333336 347,40 316.33334,6.6666641 281,-10.333333 241,-11 c -42.66667,0 -76.66667,11 -102,33 -24.66667,21.333336 -37,53 -37,95 0,20.66667 2.66666,42 8,64 5.33334,22 19,61 41,117 14.66667,42.66666 22,70 22,82 z"
           style="fill:none;stroke:#4d4d4d;stroke-width:1;stroke-linecap:butt;stroke-linejoin:miter;stroke-miterlimit:10;stroke-dasharray:none;stroke-opacity:0.1255"
           id="path164" /></g><g
         id="g166"
         transform="matrix(0.04204956,0,0,-0.04257222,463.1886,225.10944)"><path
           d="m 694,-11 c 0,0 0,-2.666666 0,-8 0,-5.333334 -2,-10 -6,-14 -4,-4 -7.33331,-6.333332 -10,-7 -4.66669,0 -56,23 -154,69 -98,46 -194.66666,91.66666 -290,137 L 90,235 c -4.666664,3.33333 -7,8.33333 -7,15 0,7.33334 2.666664,12.66666 8,16 382,182.66669 577.66669,274 587,274 2,0 5,-2 9,-6 4,-4 6.33331,-9 7,-15 0.66669,-6 -1.66669,-10.66666 -7,-14 -0.66669,-0.66666 -90.66663,-43.66666 -270,-129 L 151,250 417,124 C 596.33337,38.666664 686.33331,-4.3333335 687,-5 c 4.66669,-4 7,-8.666666 7,-14 z"
           style="fill:#4d4d4d;fill-opacity:1;fill-rule:nonzero;stroke:none"
           id="path168" /><path
           d="m 694,-11 c 0,0 0,-2.666666 0,-8 0,-5.333334 -2,-10 -6,-14 -4,-4 -7.33331,-6.333332 -10,-7 -4.66669,0 -56,23 -154,69 -98,46 -194.66666,91.66666 -290,137 L 90,235 c -4.666664,3.33333 -7,8.33333 -7,15 0,7.33334 2.666664,12.66666 8,16 382,182.66669 577.66669,274 587,274 2,0 5,-2 9,-6 4,-4 6.33331,-9 7,-15 0.66669,-6 -1.66669,-10.66666 -7,-14 -0.66669,-0.66666 -90.66663,-43.66666 -270,-129 L 151,250 417,124 C 596.33337,38.666664 686.33331,-4.3333335 687,-5 c 4.66669,-4 7,-8.666666 7,-14 z"
           style="fill:none;stroke:#4d4d4d;stroke-width:1;stroke-linecap:butt;stroke-linejoin:miter;stroke-miterlimit:10;stroke-dasharray:none;stroke-opacity:0.1255"
           id="path170" /></g><g
         id="g172"
         transform="matrix(0.04204956,0,0,-0.04257222,507.5845,225.10944)"><path
           d="m 96,585 c 37.33334,54 88.33333,81 153,81 32,0 64,-8.66669 96,-26 32,-17.33331 58,-48 78,-92 24.66666,-55.33334 37,-131.33331 37,-228 C 460,216.66666 445.66666,137.66667 417,83 403.66666,55 385.33334,32.666668 362,16 338.66666,-0.66666794 318.33334,-11 301,-15 c -17.33334,-4 -34.33334,-6.333334 -51,-7 -17.33333,0 -34.66667,2 -52,6 -17.33333,4 -37.66667,14.666666 -61,32 C 113.66666,33.333336 95.333336,55.666664 82,83 53.333332,137.66667 39,216.66666 39,320 39,436 58,524.33331 96,585 Z m 225,12 c -20,21.33331 -43.66666,32 -71,32 -28,0 -52,-10.66669 -72,-32 -16.66667,-17.33331 -27.66667,-41.33331 -33,-72 -5.33333,-30.66666 -8,-94.66666 -8,-192 0,-105.33334 2.66667,-174.66666 8,-208 5.33333,-33.333336 17.33333,-59.666664 36,-79 18.66667,-20 41.66667,-30 69,-30 26.66666,0 49.33334,10 68,30 19.33334,20 31.33334,48 36,84 4.66666,36 7.33334,103.66666 8,203 0,96.66669 -2.66666,160.33334 -8,191 -5.33334,30.66669 -16.33334,55 -33,73 z"
           style="fill:#4d4d4d;fill-opacity:1;fill-rule:nonzero;stroke:none"
           id="path174" /><path
           d="m 96,585 c 37.33334,54 88.33333,81 153,81 32,0 64,-8.66669 96,-26 32,-17.33331 58,-48 78,-92 24.66666,-55.33334 37,-131.33331 37,-228 C 460,216.66666 445.66666,137.66667 417,83 403.66666,55 385.33334,32.666668 362,16 338.66666,-0.66666794 318.33334,-11 301,-15 c -17.33334,-4 -34.33334,-6.333334 -51,-7 -17.33333,0 -34.66667,2 -52,6 -17.33333,4 -37.66667,14.666666 -61,32 C 113.66666,33.333336 95.333336,55.666664 82,83 53.333332,137.66667 39,216.66666 39,320 39,436 58,524.33331 96,585 Z m 225,12 c -20,21.33331 -43.66666,32 -71,32 -28,0 -52,-10.66669 -72,-32 -16.66667,-17.33331 -27.66667,-41.33331 -33,-72 -5.33333,-30.66666 -8,-94.66666 -8,-192 0,-105.33334 2.66667,-174.66666 8,-208 5.33333,-33.333336 17.33333,-59.666664 36,-79 18.66667,-20 41.66667,-30 69,-30 26.66666,0 49.33334,10 68,30 19.33334,20 31.33334,48 36,84 4.66666,36 7.33334,103.66666 8,203 0,96.66669 -2.66666,160.33334 -8,191 -5.33334,30.66669 -16.33334,55 -33,73 z"
           style="fill:none;stroke:#4d4d4d;stroke-width:1;stroke-linecap:butt;stroke-linejoin:miter;stroke-miterlimit:10;stroke-dasharray:none;stroke-opacity:0.1255"
           id="path176" /></g><g
         id="g178"
         transform="matrix(0.04204956,0,0,-0.04257222,419.44443,285.94513)"><path
           d="m 173,380 c 0,16.66666 -6.33333,25 -19,25 -16,0 -32.66666,-9.66666 -50,-29 -17.333336,-19.33334 -31.666664,-49 -43,-89 -0.666668,-0.66666 -1.333332,-1.66666 -2,-3 -0.666668,-1.33334 -1,-2.33334 -1,-3 0,-0.66666 -0.666668,-1.33334 -2,-2 -1.333332,-0.66666 -2.333332,-1 -3,-1 -0.666668,0 -2,0 -4,0 -2,0 -4.666668,0 -8,0 H 27 c -4,4 -6,7 -6,9 0,4.66666 2.666666,14.33334 8,29 5.333332,14.66666 13.333332,32 24,52 10.666668,20 25.333328,37 44,51 18.66667,14 39.66667,21.33334 63,22 28,0 49.66667,-8 65,-24 15.33333,-16 23.33333,-34.66666 24,-56 0,-11.33334 -1,-20 -3,-26 0,-4 -5,-18.66666 -15,-44 -10,-25.33334 -20.33333,-55 -31,-89 -10.66667,-34 -16.66667,-63.66667 -18,-89 0,-18 1.66667,-32.666664 5,-44 8.66667,-28.666668 29.66666,-43 63,-43 24.66666,0 47.66666,11.333332 69,34 21.33334,22.666672 38,49 50,79 12,30 21.66666,57.66667 29,83 7.33334,25.33333 11,43.66666 11,55 0,15.33334 -2.66666,28.66666 -8,40 -5.33334,11.33334 -11.33334,20 -18,26 -6.66666,6 -12.66666,12 -18,18 -5.33334,6 -8,13.33334 -8,22 0,14.66666 6.33334,28.33334 19,41 12.66666,12.66666 26.33334,19 41,19 12.66666,0 24,-6 34,-18 10,-12 15.33334,-31.33334 16,-58 0,-18 -4,-45.66666 -12,-83 C 447,246.66666 434.66666,205 418,159 401.33334,113 377.66666,73.333336 347,40 316.33334,6.6666641 281,-10.333333 241,-11 c -42.66667,0 -76.66667,11 -102,33 -24.66667,21.333336 -37,53 -37,95 0,20.66667 2.66666,42 8,64 5.33334,22 19,61 41,117 14.66667,42.66666 22,70 22,82 z"
           style="fill:#4d4d4d;fill-opacity:1;fill-rule:nonzero;stroke:none"
           id="path180" /><path
           d="m 173,380 c 0,16.66666 -6.33333,25 -19,25 -16,0 -32.66666,-9.66666 -50,-29 -17.333336,-19.33334 -31.666664,-49 -43,-89 -0.666668,-0.66666 -1.333332,-1.66666 -2,-3 -0.666668,-1.33334 -1,-2.33334 -1,-3 0,-0.66666 -0.666668,-1.33334 -2,-2 -1.333332,-0.66666 -2.333332,-1 -3,-1 -0.666668,0 -2,0 -4,0 -2,0 -4.666668,0 -8,0 H 27 c -4,4 -6,7 -6,9 0,4.66666 2.666666,14.33334 8,29 5.333332,14.66666 13.333332,32 24,52 10.666668,20 25.333328,37 44,51 18.66667,14 39.66667,21.33334 63,22 28,0 49.66667,-8 65,-24 15.33333,-16 23.33333,-34.66666 24,-56 0,-11.33334 -1,-20 -3,-26 0,-4 -5,-18.66666 -15,-44 -10,-25.33334 -20.33333,-55 -31,-89 -10.66667,-34 -16.66667,-63.66667 -18,-89 0,-18 1.66667,-32.666664 5,-44 8.66667,-28.666668 29.66666,-43 63,-43 24.66666,0 47.66666,11.333332 69,34 21.33334,22.666672 38,49 50,79 12,30 21.66666,57.66667 29,83 7.33334,25.33333 11,43.66666 11,55 0,15.33334 -2.66666,28.66666 -8,40 -5.33334,11.33334 -11.33334,20 -18,26 -6.66666,6 -12.66666,12 -18,18 -5.33334,6 -8,13.33334 -8,22 0,14.66666 6.33334,28.33334 19,41 12.66666,12.66666 26.33334,19 41,19 12.66666,0 24,-6 34,-18 10,-12 15.33334,-31.33334 16,-58 0,-18 -4,-45.66666 -12,-83 C 447,246.66666 434.66666,205 418,159 401.33334,113 377.66666,73.333336 347,40 316.33334,6.6666641 281,-10.333333 241,-11 c -42.66667,0 -76.66667,11 -102,33 -24.66667,21.333336 -37,53 -37,95 0,20.66667 2.66666,42 8,64 5.33334,22 19,61 41,117 14.66667,42.66666 22,70 22,82 z"
           style="fill:none;stroke:#4d4d4d;stroke-width:1;stroke-linecap:butt;stroke-linejoin:miter;stroke-miterlimit:10;stroke-dasharray:none;stroke-opacity:0.1255"
           id="path182" /></g><g
         id="g184"
         transform="matrix(0.02972904,0,0,-0.03009856,441.22607,268.36282)"><path
           d="m 79,43 c -4,0 -13,2 -27,6 -14,4 -21.333334,8 -22,12 0,4.666664 18.333332,82 55,232 36.66667,150 57,228.33331 61,235 10,21.33331 27.33333,32 52,32 13.33333,0 27.33333,-5 42,-15 14.66667,-10 22,-24.66669 22,-44 0,-3.33334 -0.66666,-8.33334 -2,-15 -0.66666,-4.66666 -29.66666,-79 -87,-223 C 115.66666,119 86,46.333332 84,45 82,43.666668 80.333336,43 79,43 Z"
           style="fill:#4d4d4d;fill-opacity:1;fill-rule:nonzero;stroke:none"
           id="path186" /><path
           d="m 79,43 c -4,0 -13,2 -27,6 -14,4 -21.333334,8 -22,12 0,4.666664 18.333332,82 55,232 36.66667,150 57,228.33331 61,235 10,21.33331 27.33333,32 52,32 13.33333,0 27.33333,-5 42,-15 14.66667,-10 22,-24.66669 22,-44 0,-3.33334 -0.66666,-8.33334 -2,-15 -0.66666,-4.66666 -29.66666,-79 -87,-223 C 115.66666,119 86,46.333332 84,45 82,43.666668 80.333336,43 79,43 Z"
           style="fill:none;stroke:#4d4d4d;stroke-width:1;stroke-linecap:butt;stroke-linejoin:miter;stroke-miterlimit:10;stroke-dasharray:none;stroke-opacity:0.0902"
           id="path188" /></g><g
         id="g190"
         transform="matrix(0.04204956,0,0,-0.04257222,463.1886,285.94513)"><path
           d="m 78,370 c 0,16 5.666664,30 17,42 11.33334,12 25.66666,18 43,18 16,0 30,-5.33334 42,-16 12,-10.66666 18.33333,-25 19,-43 0,-16.66666 -5.66667,-31 -17,-43 -11.33333,-12 -25.66667,-18 -43,-18 -17.33334,0 -31.66666,5.66666 -43,17 -11.333336,11.33334 -17.333336,25.66666 -18,43 z M 78,60 c 0,16 5.666664,30 17,42 11.33334,12 25.66666,18 43,18 16,0 30,-5.33334 42,-16 C 192,93.333336 198.33333,79 199,61 199,44.333332 193.33333,30 182,18 170.66667,6 156.33333,0 139,0 121.66666,0 107.33334,5.666666 96,17 84.666664,28.333334 78.666664,42.666664 78,60 Z"
           style="fill:#4d4d4d;fill-opacity:1;fill-rule:nonzero;stroke:none"
           id="path192" /><path
           d="m 78,370 c 0,16 5.666664,30 17,42 11.33334,12 25.66666,18 43,18 16,0 30,-5.33334 42,-16 12,-10.66666 18.33333,-25 19,-43 0,-16.66666 -5.66667,-31 -17,-43 -11.33333,-12 -25.66667,-18 -43,-18 -17.33334,0 -31.66666,5.66666 -43,17 -11.333336,11.33334 -17.333336,25.66666 -18,43 z M 78,60 c 0,16 5.666664,30 17,42 11.33334,12 25.66666,18 43,18 16,0 30,-5.33334 42,-16 C 192,93.333336 198.33333,79 199,61 199,44.333332 193.33333,30 182,18 170.66667,6 156.33333,0 139,0 121.66666,0 107.33334,5.666666 96,17 84.666664,28.333334 78.666664,42.666664 78,60 Z"
           style="fill:none;stroke:#4d4d4d;stroke-width:1;stroke-linecap:butt;stroke-linejoin:miter;stroke-miterlimit:10;stroke-dasharray:none;stroke-opacity:0.1255"
           id="path194" /></g><g
         id="g196"
         transform="matrix(0.04204956,0,0,-0.04257222,474.87836,285.94513)"><path
           d="m 56,347 c 0,8.66666 4.666664,15.33334 14,20 h 637 c 10,-5.33334 15,-12 15,-20 0,-7.33334 -4.66669,-13.66666 -14,-19 L 390,327 H 72 c -10.666668,3.33334 -16,10 -16,20 z m 0,-194 c 0,10 5.333332,16.66667 16,20 h 636 c 9.33331,-6.66667 14,-13.33333 14,-20 0,-8.66667 -5,-15.33333 -15,-20 H 70 c -9.333336,4.66667 -14,11.33333 -14,20 z"
           style="fill:#4d4d4d;fill-opacity:1;fill-rule:nonzero;stroke:none"
           id="path198" /><path
           d="m 56,347 c 0,8.66666 4.666664,15.33334 14,20 h 637 c 10,-5.33334 15,-12 15,-20 0,-7.33334 -4.66669,-13.66666 -14,-19 L 390,327 H 72 c -10.666668,3.33334 -16,10 -16,20 z m 0,-194 c 0,10 5.333332,16.66667 16,20 h 636 c 9.33331,-6.66667 14,-13.33333 14,-20 0,-8.66667 -5,-15.33333 -15,-20 H 70 c -9.333336,4.66667 -14,11.33333 -14,20 z"
           style="fill:none;stroke:#4d4d4d;stroke-width:1;stroke-linecap:butt;stroke-linejoin:miter;stroke-miterlimit:10;stroke-dasharray:none;stroke-opacity:0.1255"
           id="path200" /></g><g
         id="g202"
         transform="matrix(0.04204956,0,0,-0.04257222,519.27429,285.94513)"><path
           d="m 84,237 c 0,0 0,4.33333 0,13 0,8.66666 4.666664,15.33334 14,20 h 581 c 10,-5.33334 15,-12 15,-20 0,-8 -5,-14.66667 -15,-20 H 98 c -9.333336,4.66667 -14,11.33333 -14,20 z"
           style="fill:#4d4d4d;fill-opacity:1;fill-rule:nonzero;stroke:none"
           id="path204" /><path
           d="m 84,237 c 0,0 0,4.33333 0,13 0,8.66666 4.666664,15.33334 14,20 h 581 c 10,-5.33334 15,-12 15,-20 0,-8 -5,-14.66667 -15,-20 H 98 c -9.333336,4.66667 -14,11.33333 -14,20 z"
           style="fill:none;stroke:#4d4d4d;stroke-width:1;stroke-linecap:butt;stroke-linejoin:miter;stroke-miterlimit:10;stroke-dasharray:none;stroke-opacity:0.1255"
           id="path206" /></g><g
         id="g208"
         transform="matrix(0.04204956,0,0,-0.04257222,551.98889,285.94513)"><path
           d="m 96,585 c 37.33334,54 88.33333,81 153,81 32,0 64,-8.66669 96,-26 32,-17.33331 58,-48 78,-92 24.66666,-55.33334 37,-131.33331 37,-228 C 460,216.66666 445.66666,137.66667 417,83 403.66666,55 385.33334,32.666668 362,16 338.66666,-0.66666794 318.33334,-11 301,-15 c -17.33334,-4 -34.33334,-6.333334 -51,-7 -17.33333,0 -34.66667,2 -52,6 -17.33333,4 -37.66667,14.666666 -61,32 C 113.66666,33.333336 95.333336,55.666664 82,83 53.333332,137.66667 39,216.66666 39,320 39,436 58,524.33331 96,585 Z m 225,12 c -20,21.33331 -43.66666,32 -71,32 -28,0 -52,-10.66669 -72,-32 -16.66667,-17.33331 -27.66667,-41.33331 -33,-72 -5.33333,-30.66666 -8,-94.66666 -8,-192 0,-105.33334 2.66667,-174.66666 8,-208 5.33333,-33.333336 17.33333,-59.666664 36,-79 18.66667,-20 41.66667,-30 69,-30 26.66666,0 49.33334,10 68,30 19.33334,20 31.33334,48 36,84 4.66666,36 7.33334,103.66666 8,203 0,96.66669 -2.66666,160.33334 -8,191 -5.33334,30.66669 -16.33334,55 -33,73 z"
           style="fill:#4d4d4d;fill-opacity:1;fill-rule:nonzero;stroke:none"
           id="path210" /><path
           d="m 96,585 c 37.33334,54 88.33333,81 153,81 32,0 64,-8.66669 96,-26 32,-17.33331 58,-48 78,-92 24.66666,-55.33334 37,-131.33331 37,-228 C 460,216.66666 445.66666,137.66667 417,83 403.66666,55 385.33334,32.666668 362,16 338.66666,-0.66666794 318.33334,-11 301,-15 c -17.33334,-4 -34.33334,-6.333334 -51,-7 -17.33333,0 -34.66667,2 -52,6 -17.33333,4 -37.66667,14.666666 -61,32 C 113.66666,33.333336 95.333336,55.666664 82,83 53.333332,137.66667 39,216.66666 39,320 39,436 58,524.33331 96,585 Z m 225,12 c -20,21.33331 -43.66666,32 -71,32 -28,0 -52,-10.66669 -72,-32 -16.66667,-17.33331 -27.66667,-41.33331 -33,-72 -5.33333,-30.66666 -8,-94.66666 -8,-192 0,-105.33334 2.66667,-174.66666 8,-208 5.33333,-33.333336 17.33333,-59.666664 36,-79 18.66667,-20 41.66667,-30 69,-30 26.66666,0 49.33334,10 68,30 19.33334,20 31.33334,48 36,84 4.66666,36 7.33334,103.66666 8,203 0,96.66669 -2.66666,160.33334 -8,191 -5.33334,30.66669 -16.33334,55 -33,73 z"
           style="fill:none;stroke:#4d4d4d;stroke-width:1;stroke-linecap:butt;stroke-linejoin:miter;stroke-miterlimit:10;stroke-dasharray:none;stroke-opacity:0.1255"
           id="path212" /></g><g
         id="g214"
         transform="matrix(0.04204956,0,0,-0.04257222,573.01367,285.94513)"><path
           d="m 78,60 c 0,16 5.666664,30 17,42 11.33334,12 25.66666,18 43,18 16,0 30,-5.33334 42,-16 C 192,93.333336 198.33333,79 199,61 199,44.333332 193.33333,30 182,18 170.66667,6 156.33333,0 139,0 121.66666,0 107.33334,5.666666 96,17 84.666664,28.333334 78.666664,42.666664 78,60 Z"
           style="fill:#4d4d4d;fill-opacity:1;fill-rule:nonzero;stroke:none"
           id="path216" /><path
           d="m 78,60 c 0,16 5.666664,30 17,42 11.33334,12 25.66666,18 43,18 16,0 30,-5.33334 42,-16 C 192,93.333336 198.33333,79 199,61 199,44.333332 193.33333,30 182,18 170.66667,6 156.33333,0 139,0 121.66666,0 107.33334,5.666666 96,17 84.666664,28.333334 78.666664,42.666664 78,60 Z"
           style="fill:none;stroke:#4d4d4d;stroke-width:1;stroke-linecap:butt;stroke-linejoin:miter;stroke-miterlimit:10;stroke-dasharray:none;stroke-opacity:0.1255"
           id="path218" /></g><g
         id="g220"
         transform="matrix(0.04204956,0,0,-0.04257222,584.70343,285.94513)"><path
           d="m 70,417 c 0,0 0,25.66666 0,77 0,51.33331 18,92.66669 54,124 36,31.33331 77.33333,47.33331 124,48 47.33334,0 89.33334,-14 126,-42 36.66666,-28 55,-64.33331 55,-109 0,-20 -3.66666,-38.66666 -11,-56 -7.33334,-17.33334 -16,-31.33334 -26,-42 -10,-10.66666 -20.33334,-20 -31,-28 -10.66666,-8 -19.33334,-14 -26,-18 -6.66666,-4 -10.33334,-6.66666 -11,-8 l 14,-9 c 9.33334,-6.66666 18.66666,-13.33334 28,-20 9.33334,-6.66666 14.66666,-10.33334 16,-11 50,-39.33334 75,-89 75,-149 C 457,121.33333 437.66666,75.666672 399,37 360.33334,-1.6666679 310.33334,-21.333334 249,-22 189,-22 139.66667,-5 101,29 62.333332,63 43,105 43,155 c 0,72 43,132 129,180 l -18,13 c -14,8.66666 -23,15.33334 -27,20 -38,32.66666 -57,74.66666 -57,126 z m 216,-31 6,4 c 4,2.66666 7,4.66666 9,6 2,1.33334 5.33334,3.66666 10,7 4.66666,3.33334 8.66666,6.66666 12,10 3.33334,3.33334 7,7.33334 11,12 4,4.66666 7.66666,9 11,13 3.33334,4 6.66666,9.33334 10,16 3.33334,6.66666 6.33334,12.33334 9,17 2.66666,4.66666 4.33334,11.33334 5,20 0.66666,8.66666 1.33334,16 2,22 0,28.66669 -9.66666,53 -29,73 -19.33334,20 -41.66666,32.66669 -67,38 -4.66666,0.66669 -15.66666,1 -33,1 -27.33333,0 -53,-8.66669 -77,-26 -24,-17.33331 -36.33333,-39 -37,-65 0,-15.33331 4.33333,-29.33334 13,-42 8.66667,-12.66666 17.33333,-22.33334 26,-29 8.66667,-6.66666 25.33333,-17.33334 50,-32 4.66667,-3.33334 8.33333,-5.66666 11,-7 z M 250,21 c 38.66666,0 72,11.333332 100,34 28,22.666672 42,50 42,82 0,11.33333 -1.66666,22 -5,32 -3.33334,10 -7.33334,18.33333 -12,25 -4.66666,6.66667 -12,14 -22,22 -10,8 -17.66666,14 -23,18 -5.33334,4 -15,10.33333 -29,19 -14,8.66666 -23,14.33334 -27,17 -9.33334,6 -19.33333,12.33334 -30,19 -10.66667,6.66666 -19.33333,12.33334 -26,17 l -8,5 c -4,0 -13.66667,-5.66666 -29,-17 -15.33333,-11.33334 -31.33333,-29.66666 -48,-55 -16.66667,-25.33333 -25.33334,-52.66667 -26,-82 0,-39.33334 14.33333,-71.666664 43,-97 28.66667,-25.333336 62,-38.333334 100,-39 z"
           style="fill:#4d4d4d;fill-opacity:1;fill-rule:nonzero;stroke:none"
           id="path222" /><path
           d="m 70,417 c 0,0 0,25.66666 0,77 0,51.33331 18,92.66669 54,124 36,31.33331 77.33333,47.33331 124,48 47.33334,0 89.33334,-14 126,-42 36.66666,-28 55,-64.33331 55,-109 0,-20 -3.66666,-38.66666 -11,-56 -7.33334,-17.33334 -16,-31.33334 -26,-42 -10,-10.66666 -20.33334,-20 -31,-28 -10.66666,-8 -19.33334,-14 -26,-18 -6.66666,-4 -10.33334,-6.66666 -11,-8 l 14,-9 c 9.33334,-6.66666 18.66666,-13.33334 28,-20 9.33334,-6.66666 14.66666,-10.33334 16,-11 50,-39.33334 75,-89 75,-149 C 457,121.33333 437.66666,75.666672 399,37 360.33334,-1.6666679 310.33334,-21.333334 249,-22 189,-22 139.66667,-5 101,29 62.333332,63 43,105 43,155 c 0,72 43,132 129,180 l -18,13 c -14,8.66666 -23,15.33334 -27,20 -38,32.66666 -57,74.66666 -57,126 z m 216,-31 6,4 c 4,2.66666 7,4.66666 9,6 2,1.33334 5.33334,3.66666 10,7 4.66666,3.33334 8.66666,6.66666 12,10 3.33334,3.33334 7,7.33334 11,12 4,4.66666 7.66666,9 11,13 3.33334,4 6.66666,9.33334 10,16 3.33334,6.66666 6.33334,12.33334 9,17 2.66666,4.66666 4.33334,11.33334 5,20 0.66666,8.66666 1.33334,16 2,22 0,28.66669 -9.66666,53 -29,73 -19.33334,20 -41.66666,32.66669 -67,38 -4.66666,0.66669 -15.66666,1 -33,1 -27.33333,0 -53,-8.66669 -77,-26 -24,-17.33331 -36.33333,-39 -37,-65 0,-15.33331 4.33333,-29.33334 13,-42 8.66667,-12.66666 17.33333,-22.33334 26,-29 8.66667,-6.66666 25.33333,-17.33334 50,-32 4.66667,-3.33334 8.33333,-5.66666 11,-7 z M 250,21 c 38.66666,0 72,11.333332 100,34 28,22.666672 42,50 42,82 0,11.33333 -1.66666,22 -5,32 -3.33334,10 -7.33334,18.33333 -12,25 -4.66666,6.66667 -12,14 -22,22 -10,8 -17.66666,14 -23,18 -5.33334,4 -15,10.33333 -29,19 -14,8.66666 -23,14.33334 -27,17 -9.33334,6 -19.33333,12.33334 -30,19 -10.66667,6.66666 -19.33333,12.33334 -26,17 l -8,5 c -4,0 -13.66667,-5.66666 -29,-17 -15.33333,-11.33334 -31.33333,-29.66666 -48,-55 -16.66667,-25.33333 -25.33334,-52.66667 -26,-82 0,-39.33334 14.33333,-71.666664 43,-97 28.66667,-25.333336 62,-38.333334 100,-39 z"
           style="fill:none;stroke:#4d4d4d;stroke-width:1;stroke-linecap:butt;stroke-linejoin:miter;stroke-miterlimit:10;stroke-dasharray:none;stroke-opacity:0.1255"
           id="path224" /></g><g
         id="g226"
         transform="matrix(0.04204956,0,0,-0.04257222,605.72821,285.94513)"><path
           d="m 164,157 c 0,-16 -5.33333,-29.33334 -16,-40 -10.66667,-10.66666 -23.66666,-16 -39,-16 h -7 c 30.66667,-52.666668 71.33333,-79 122,-79 46.66666,0 80.66666,20 102,60 12.66666,22 19,64.66666 19,128 0,68.66669 -9,115 -27,139 -17.33334,22 -36.66666,33 -58,33 h -6 c -52,0 -91.33333,-22.66666 -118,-68 -2.66667,-4.66666 -5,-7.33334 -7,-8 -2,-0.66666 -7,-1.33334 -15,-2 -11.33334,0 -17.666664,2 -19,6 -1.333336,2.66666 -2,61 -2,175 v 129 c 0,33.33331 1.666664,50 5,50 1.333336,1.33331 2.66666,2 4,2 0.66666,0 7.66666,-2.66669 21,-8 13.33333,-5.33331 31.66667,-10.66669 55,-16 23.33333,-5.33331 48.33333,-8 75,-8 47.33334,0 92.66666,9.33331 136,28 5.33334,2.66669 9.66666,4 13,4 5.33334,0 8,-6 8,-18 v -13 c -54.66666,-64.66669 -123,-97 -205,-97 -20.66667,0 -39.33333,2 -56,6 l -10,2 V 374 c 12.66667,9.33334 22.66667,16.66666 30,22 7.33333,5.33334 19.33333,10.66666 36,16 16.66667,5.33334 33.66667,8 51,8 54,0 99.66666,-21.66666 137,-65 37.33334,-43.33334 56,-94.66666 56,-154 C 449,139.66666 427.66666,87.333336 385,44 342.33334,0.66666412 290.33334,-21.333334 229,-22 175,-22 131.66667,-4 99,32 66.333328,68 50,108.66666 50,154 c 0,16 3.666668,28.66667 11,38 7.333336,9.33333 15,15.33333 23,18 8,2.66667 15.666664,4 23,4 16.66667,0 30.33333,-5.66667 41,-17 10.66667,-11.33333 16,-24.66667 16,-40 z"
           style="fill:#4d4d4d;fill-opacity:1;fill-rule:nonzero;stroke:none"
           id="path228" /><path
           d="m 164,157 c 0,-16 -5.33333,-29.33334 -16,-40 -10.66667,-10.66666 -23.66666,-16 -39,-16 h -7 c 30.66667,-52.666668 71.33333,-79 122,-79 46.66666,0 80.66666,20 102,60 12.66666,22 19,64.66666 19,128 0,68.66669 -9,115 -27,139 -17.33334,22 -36.66666,33 -58,33 h -6 c -52,0 -91.33333,-22.66666 -118,-68 -2.66667,-4.66666 -5,-7.33334 -7,-8 -2,-0.66666 -7,-1.33334 -15,-2 -11.33334,0 -17.666664,2 -19,6 -1.333336,2.66666 -2,61 -2,175 v 129 c 0,33.33331 1.666664,50 5,50 1.333336,1.33331 2.66666,2 4,2 0.66666,0 7.66666,-2.66669 21,-8 13.33333,-5.33331 31.66667,-10.66669 55,-16 23.33333,-5.33331 48.33333,-8 75,-8 47.33334,0 92.66666,9.33331 136,28 5.33334,2.66669 9.66666,4 13,4 5.33334,0 8,-6 8,-18 v -13 c -54.66666,-64.66669 -123,-97 -205,-97 -20.66667,0 -39.33333,2 -56,6 l -10,2 V 374 c 12.66667,9.33334 22.66667,16.66666 30,22 7.33333,5.33334 19.33333,10.66666 36,16 16.66667,5.33334 33.66667,8 51,8 54,0 99.66666,-21.66666 137,-65 37.33334,-43.33334 56,-94.66666 56,-154 C 449,139.66666 427.66666,87.333336 385,44 342.33334,0.66666412 290.33334,-21.333334 229,-22 175,-22 131.66667,-4 99,32 66.333328,68 50,108.66666 50,154 c 0,16 3.666668,28.66667 11,38 7.333336,9.33333 15,15.33333 23,18 8,2.66667 15.666664,4 23,4 16.66667,0 30.33333,-5.66667 41,-17 10.66667,-11.33333 16,-24.66667 16,-40 z"
           style="fill:none;stroke:#4d4d4d;stroke-width:1;stroke-linecap:butt;stroke-linejoin:miter;stroke-miterlimit:10;stroke-dasharray:none;stroke-opacity:0.1255"
           id="path230" /></g><g
         id="g232"
         transform="matrix(0.04204956,0,0,-0.04257222,626.75299,285.94513)"><path
           d="m 173,380 c 0,16.66666 -6.33333,25 -19,25 -16,0 -32.66666,-9.66666 -50,-29 -17.333336,-19.33334 -31.666664,-49 -43,-89 -0.666668,-0.66666 -1.333332,-1.66666 -2,-3 -0.666668,-1.33334 -1,-2.33334 -1,-3 0,-0.66666 -0.666668,-1.33334 -2,-2 -1.333332,-0.66666 -2.333332,-1 -3,-1 -0.666668,0 -2,0 -4,0 -2,0 -4.666668,0 -8,0 H 27 c -4,4 -6,7 -6,9 0,4.66666 2.666666,14.33334 8,29 5.333332,14.66666 13.333332,32 24,52 10.666668,20 25.333328,37 44,51 18.66667,14 39.66667,21.33334 63,22 28,0 49.66667,-8 65,-24 15.33333,-16 23.33333,-34.66666 24,-56 0,-11.33334 -1,-20 -3,-26 0,-4 -5,-18.66666 -15,-44 -10,-25.33334 -20.33333,-55 -31,-89 -10.66667,-34 -16.66667,-63.66667 -18,-89 0,-18 1.66667,-32.666664 5,-44 8.66667,-28.666668 29.66666,-43 63,-43 24.66666,0 47.66666,11.333332 69,34 21.33334,22.666672 38,49 50,79 12,30 21.66666,57.66667 29,83 7.33334,25.33333 11,43.66666 11,55 0,15.33334 -2.66666,28.66666 -8,40 -5.33334,11.33334 -11.33334,20 -18,26 -6.66666,6 -12.66666,12 -18,18 -5.33334,6 -8,13.33334 -8,22 0,14.66666 6.33334,28.33334 19,41 12.66666,12.66666 26.33334,19 41,19 12.66666,0 24,-6 34,-18 10,-12 15.33334,-31.33334 16,-58 0,-18 -4,-45.66666 -12,-83 C 447,246.66666 434.66666,205 418,159 401.33334,113 377.66666,73.333336 347,40 316.33334,6.6666641 281,-10.333333 241,-11 c -42.66667,0 -76.66667,11 -102,33 -24.66667,21.333336 -37,53 -37,95 0,20.66667 2.66666,42 8,64 5.33334,22 19,61 41,117 14.66667,42.66666 22,70 22,82 z"
           style="fill:#4d4d4d;fill-opacity:1;fill-rule:nonzero;stroke:none"
           id="path234" /><path
           d="m 173,380 c 0,16.66666 -6.33333,25 -19,25 -16,0 -32.66666,-9.66666 -50,-29 -17.333336,-19.33334 -31.666664,-49 -43,-89 -0.666668,-0.66666 -1.333332,-1.66666 -2,-3 -0.666668,-1.33334 -1,-2.33334 -1,-3 0,-0.66666 -0.666668,-1.33334 -2,-2 -1.333332,-0.66666 -2.333332,-1 -3,-1 -0.666668,0 -2,0 -4,0 -2,0 -4.666668,0 -8,0 H 27 c -4,4 -6,7 -6,9 0,4.66666 2.666666,14.33334 8,29 5.333332,14.66666 13.333332,32 24,52 10.666668,20 25.333328,37 44,51 18.66667,14 39.66667,21.33334 63,22 28,0 49.66667,-8 65,-24 15.33333,-16 23.33333,-34.66666 24,-56 0,-11.33334 -1,-20 -3,-26 0,-4 -5,-18.66666 -15,-44 -10,-25.33334 -20.33333,-55 -31,-89 -10.66667,-34 -16.66667,-63.66667 -18,-89 0,-18 1.66667,-32.666664 5,-44 8.66667,-28.666668 29.66666,-43 63,-43 24.66666,0 47.66666,11.333332 69,34 21.33334,22.666672 38,49 50,79 12,30 21.66666,57.66667 29,83 7.33334,25.33333 11,43.66666 11,55 0,15.33334 -2.66666,28.66666 -8,40 -5.33334,11.33334 -11.33334,20 -18,26 -6.66666,6 -12.66666,12 -18,18 -5.33334,6 -8,13.33334 -8,22 0,14.66666 6.33334,28.33334 19,41 12.66666,12.66666 26.33334,19 41,19 12.66666,0 24,-6 34,-18 10,-12 15.33334,-31.33334 16,-58 0,-18 -4,-45.66666 -12,-83 C 447,246.66666 434.66666,205 418,159 401.33334,113 377.66666,73.333336 347,40 316.33334,6.6666641 281,-10.333333 241,-11 c -42.66667,0 -76.66667,11 -102,33 -24.66667,21.333336 -37,53 -37,95 0,20.66667 2.66666,42 8,64 5.33334,22 19,61 41,117 14.66667,42.66666 22,70 22,82 z"
           style="fill:none;stroke:#4d4d4d;stroke-width:1;stroke-linecap:butt;stroke-linejoin:miter;stroke-miterlimit:10;stroke-dasharray:none;stroke-opacity:0.1255"
           id="path236" /></g><g
         id="g238"
         transform="matrix(0.04204956,0,0,-0.04257222,419.44443,227.85533)"><path
           d="M 0,-370.5 H 5415"
           style="fill:none;stroke:#4d4d4d;stroke-width:1;stroke-linecap:butt;stroke-linejoin:miter;stroke-miterlimit:10;stroke-dasharray:none;stroke-opacity:1"
           id="path240" /></g></g></g></svg>
