<?xml version="1.0" encoding="utf-8"?>
<svg xmlns="http://www.w3.org/2000/svg" xmlns:xlink="http://www.w3.org/1999/xlink" width="300" height="140" viewBox="0 0 1200 560">
<defs>
  <clipPath id="clip280">
    <rect x="0" y="0" width="1200" height="560"/>
  </clipPath>
</defs>
<path clip-path="url(#clip280)" d="
M0 560 L1200 560 L1200 0 L0 0  Z
  " fill="#ffffff" fill-rule="evenodd" fill-opacity="1"/>
<defs>
  <clipPath id="clip281">
    <rect x="240" y="0" width="841" height="560"/>
  </clipPath>
</defs>
<path clip-path="url(#clip280)" d="
M145.298 418.204 L853.583 418.204 L853.583 47.2441 L145.298 47.2441  Z
  " fill="#ffffff" fill-rule="evenodd" fill-opacity="1"/>
<defs>
  <clipPath id="clip282">
    <rect x="145" y="47" width="709" height="372"/>
  </clipPath>
</defs>
<polyline clip-path="url(#clip282)" style="stroke:#000000; stroke-linecap:round; stroke-linejoin:round; stroke-width:2; stroke-opacity:0.1; fill:none" points="
  248.618,418.204 248.618,47.2441 
  "/>
<polyline clip-path="url(#clip282)" style="stroke:#000000; stroke-linecap:round; stroke-linejoin:round; stroke-width:2; stroke-opacity:0.1; fill:none" points="
  415.833,418.204 415.833,47.2441 
  "/>
<polyline clip-path="url(#clip282)" style="stroke:#000000; stroke-linecap:round; stroke-linejoin:round; stroke-width:2; stroke-opacity:0.1; fill:none" points="
  583.048,418.204 583.048,47.2441 
  "/>
<polyline clip-path="url(#clip282)" style="stroke:#000000; stroke-linecap:round; stroke-linejoin:round; stroke-width:2; stroke-opacity:0.1; fill:none" points="
  750.264,418.204 750.264,47.2441 
  "/>
<polyline clip-path="url(#clip280)" style="stroke:#000000; stroke-linecap:round; stroke-linejoin:round; stroke-width:4; stroke-opacity:1; fill:none" points="
  145.298,418.204 853.583,418.204 
  "/>
<polyline clip-path="url(#clip280)" style="stroke:#000000; stroke-linecap:round; stroke-linejoin:round; stroke-width:4; stroke-opacity:1; fill:none" points="
  248.618,418.204 248.618,399.306 
  "/>
<polyline clip-path="url(#clip280)" style="stroke:#000000; stroke-linecap:round; stroke-linejoin:round; stroke-width:4; stroke-opacity:1; fill:none" points="
  415.833,418.204 415.833,399.306 
  "/>
<polyline clip-path="url(#clip280)" style="stroke:#000000; stroke-linecap:round; stroke-linejoin:round; stroke-width:4; stroke-opacity:1; fill:none" points="
  583.048,418.204 583.048,399.306 
  "/>
<polyline clip-path="url(#clip280)" style="stroke:#000000; stroke-linecap:round; stroke-linejoin:round; stroke-width:4; stroke-opacity:1; fill:none" points="
  750.264,418.204 750.264,399.306 
  "/>
<path clip-path="url(#clip280)" d="M211.945 442.126 L211.945 440.545 Q218.022 440.545 221.16 437.308 Q222.024 437.308 222.173 437.506 Q222.321 437.704 222.321 438.618 L222.321 467.002 Q222.321 468.509 223.062 468.978 Q223.803 469.448 227.039 469.448 L228.645 469.448 L228.645 471.004 Q226.866 470.856 220.443 470.856 Q214.02 470.856 212.267 471.004 L212.267 469.448 L213.872 469.448 Q217.059 469.448 217.825 469.003 Q218.591 468.534 218.591 467.002 L218.591 440.792 Q215.947 442.126 211.945 442.126 Z" fill="#000000" fill-rule="evenodd" fill-opacity="1" /><path clip-path="url(#clip280)" d="M235.265 462.852 Q235.265 461.345 236.081 460.777 Q236.896 460.184 237.76 460.184 Q238.921 460.184 239.588 460.925 Q240.28 461.641 240.28 462.654 Q240.28 463.667 239.588 464.408 Q238.921 465.124 237.76 465.124 Q237.192 465.124 236.896 465.026 Q237.563 467.348 239.588 469.028 Q241.639 470.707 244.331 470.707 Q247.716 470.707 249.742 467.422 Q250.952 465.297 250.952 460.48 Q250.952 456.231 250.038 454.107 Q248.63 450.871 245.74 450.871 Q241.639 450.871 239.218 454.403 Q238.921 454.848 238.576 454.873 Q238.082 454.873 237.958 454.601 Q237.859 454.304 237.859 453.539 L237.859 438.568 Q237.859 437.358 238.353 437.358 Q238.551 437.358 238.971 437.506 Q242.158 438.914 245.69 438.939 Q249.322 438.939 252.582 437.457 Q252.829 437.308 252.978 437.308 Q253.472 437.308 253.496 437.877 Q253.496 438.074 253.076 438.667 Q252.681 439.235 251.817 440.001 Q250.952 440.742 249.84 441.459 Q248.729 442.175 247.098 442.669 Q245.493 443.138 243.714 443.138 Q241.589 443.138 239.415 442.471 L239.415 452.328 Q242.034 449.759 245.838 449.759 Q249.89 449.759 252.681 453.02 Q255.473 456.281 255.473 460.826 Q255.473 465.594 252.162 468.855 Q248.877 472.115 244.43 472.115 Q240.379 472.115 237.81 469.225 Q235.265 466.335 235.265 462.852 Z" fill="#000000" fill-rule="evenodd" fill-opacity="1" /><path clip-path="url(#clip280)" d="M260.018 454.823 Q260.018 447.387 261.896 443.336 Q264.514 437.308 270.69 437.308 Q271.999 437.308 273.358 437.679 Q274.741 438.025 276.471 439.384 Q278.224 440.742 279.287 442.966 Q281.312 447.264 281.312 454.823 Q281.312 462.209 279.435 466.236 Q276.693 472.115 270.641 472.115 Q268.368 472.115 266.046 470.954 Q263.748 469.793 262.291 467.002 Q260.018 462.827 260.018 454.823 M264.218 454.206 Q264.218 461.839 264.761 464.877 Q265.379 468.163 267.059 469.596 Q268.763 471.004 270.641 471.004 Q272.666 471.004 274.346 469.497 Q276.051 467.965 276.569 464.68 Q277.138 461.444 277.113 454.206 Q277.113 447.165 276.619 444.349 Q275.952 441.063 274.173 439.754 Q272.419 438.42 270.641 438.42 Q269.974 438.42 269.257 438.618 Q268.565 438.815 267.553 439.384 Q266.54 439.952 265.749 441.36 Q264.983 442.768 264.613 444.892 Q264.218 447.634 264.218 454.206 Z" fill="#000000" fill-rule="evenodd" fill-opacity="1" /><path clip-path="url(#clip280)" d="M285.314 454.823 Q285.314 447.387 287.192 443.336 Q289.81 437.308 295.986 437.308 Q297.295 437.308 298.654 437.679 Q300.038 438.025 301.767 439.384 Q303.521 440.742 304.583 442.966 Q306.609 447.264 306.609 454.823 Q306.609 462.209 304.731 466.236 Q301.989 472.115 295.937 472.115 Q293.664 472.115 291.342 470.954 Q289.045 469.793 287.587 467.002 Q285.314 462.827 285.314 454.823 M289.514 454.206 Q289.514 461.839 290.057 464.877 Q290.675 468.163 292.355 469.596 Q294.059 471.004 295.937 471.004 Q297.962 471.004 299.642 469.497 Q301.347 467.965 301.866 464.68 Q302.434 461.444 302.409 454.206 Q302.409 447.165 301.915 444.349 Q301.248 441.063 299.469 439.754 Q297.715 438.42 295.937 438.42 Q295.27 438.42 294.553 438.618 Q293.862 438.815 292.849 439.384 Q291.836 439.952 291.046 441.36 Q290.28 442.768 289.909 444.892 Q289.514 447.634 289.514 454.206 Z" fill="#000000" fill-rule="evenodd" fill-opacity="1" /><path clip-path="url(#clip280)" d="M376.789 464.186 Q376.789 462.679 377.654 461.962 Q378.518 461.246 379.63 461.246 Q380.791 461.246 381.606 462.012 Q382.446 462.753 382.446 464.062 Q382.446 465.47 381.458 466.261 Q380.495 467.051 379.111 466.854 Q380.322 468.879 382.545 469.793 Q384.793 470.707 386.868 470.707 Q389.042 470.707 390.796 468.83 Q392.575 466.952 392.575 462.358 Q392.575 458.455 391.043 456.207 Q389.536 453.959 386.547 453.959 L384.324 453.959 Q383.558 453.959 383.336 453.884 Q383.113 453.81 383.113 453.39 Q383.113 452.896 383.879 452.797 Q384.645 452.797 385.855 452.649 Q388.795 452.55 390.351 450.006 Q391.759 447.634 391.759 444.25 Q391.759 441.162 390.277 439.878 Q388.82 438.568 386.918 438.568 Q385.139 438.568 383.187 439.309 Q381.236 440.051 380.174 441.706 Q383.311 441.706 383.311 444.25 Q383.311 445.362 382.595 446.103 Q381.903 446.819 380.742 446.819 Q379.63 446.819 378.889 446.128 Q378.148 445.411 378.148 444.201 Q378.148 441.31 380.717 439.309 Q383.311 437.308 387.115 437.308 Q390.87 437.308 393.637 439.285 Q396.428 441.261 396.428 444.3 Q396.428 447.289 394.452 449.734 Q392.476 452.18 389.339 453.193 Q393.192 453.959 395.49 456.577 Q397.787 459.171 397.787 462.358 Q397.787 466.31 394.674 469.225 Q391.562 472.115 387.016 472.115 Q382.817 472.115 379.803 469.843 Q376.789 467.57 376.789 464.186 Z" fill="#000000" fill-rule="evenodd" fill-opacity="1" /><path clip-path="url(#clip280)" d="M401.937 454.823 Q401.937 447.387 403.815 443.336 Q406.433 437.308 412.609 437.308 Q413.918 437.308 415.277 437.679 Q416.66 438.025 418.39 439.384 Q420.144 440.742 421.206 442.966 Q423.232 447.264 423.232 454.823 Q423.232 462.209 421.354 466.236 Q418.612 472.115 412.56 472.115 Q410.287 472.115 407.965 470.954 Q405.667 469.793 404.21 467.002 Q401.937 462.827 401.937 454.823 M406.137 454.206 Q406.137 461.839 406.68 464.877 Q407.298 468.163 408.978 469.596 Q410.682 471.004 412.56 471.004 Q414.585 471.004 416.265 469.497 Q417.97 467.965 418.489 464.68 Q419.057 461.444 419.032 454.206 Q419.032 447.165 418.538 444.349 Q417.871 441.063 416.092 439.754 Q414.338 438.42 412.56 438.42 Q411.893 438.42 411.176 438.618 Q410.485 438.815 409.472 439.384 Q408.459 439.952 407.668 441.36 Q406.903 442.768 406.532 444.892 Q406.137 447.634 406.137 454.206 Z" fill="#000000" fill-rule="evenodd" fill-opacity="1" /><path clip-path="url(#clip280)" d="M427.233 454.823 Q427.233 447.387 429.111 443.336 Q431.73 437.308 437.905 437.308 Q439.215 437.308 440.573 437.679 Q441.957 438.025 443.686 439.384 Q445.44 440.742 446.502 442.966 Q448.528 447.264 448.528 454.823 Q448.528 462.209 446.65 466.236 Q443.908 472.115 437.856 472.115 Q435.583 472.115 433.261 470.954 Q430.964 469.793 429.506 467.002 Q427.233 462.827 427.233 454.823 M431.433 454.206 Q431.433 461.839 431.977 464.877 Q432.594 468.163 434.274 469.596 Q435.978 471.004 437.856 471.004 Q439.882 471.004 441.561 469.497 Q443.266 467.965 443.785 464.68 Q444.353 461.444 444.328 454.206 Q444.328 447.165 443.834 444.349 Q443.167 441.063 441.389 439.754 Q439.635 438.42 437.856 438.42 Q437.189 438.42 436.473 438.618 Q435.781 438.815 434.768 439.384 Q433.755 439.952 432.965 441.36 Q432.199 442.768 431.828 444.892 Q431.433 447.634 431.433 454.206 Z" fill="#000000" fill-rule="evenodd" fill-opacity="1" /><path clip-path="url(#clip280)" d="M452.53 454.823 Q452.53 447.387 454.407 443.336 Q457.026 437.308 463.202 437.308 Q464.511 437.308 465.87 437.679 Q467.253 438.025 468.982 439.384 Q470.736 440.742 471.798 442.966 Q473.824 447.264 473.824 454.823 Q473.824 462.209 471.947 466.236 Q469.205 472.115 463.152 472.115 Q460.879 472.115 458.557 470.954 Q456.26 469.793 454.802 467.002 Q452.53 462.827 452.53 454.823 M456.729 454.206 Q456.729 461.839 457.273 464.877 Q457.89 468.163 459.57 469.596 Q461.275 471.004 463.152 471.004 Q465.178 471.004 466.858 469.497 Q468.562 467.965 469.081 464.68 Q469.649 461.444 469.624 454.206 Q469.624 447.165 469.13 444.349 Q468.463 441.063 466.685 439.754 Q464.931 438.42 463.152 438.42 Q462.485 438.42 461.769 438.618 Q461.077 438.815 460.064 439.384 Q459.051 439.952 458.261 441.36 Q457.495 442.768 457.125 444.892 Q456.729 447.634 456.729 454.206 Z" fill="#000000" fill-rule="evenodd" fill-opacity="1" /><path clip-path="url(#clip280)" d="M544.005 455.021 Q544.005 447.066 548.056 442.2 Q552.107 437.308 557.32 437.308 Q560.358 437.308 562.038 438.865 Q563.743 440.396 563.743 442.768 Q563.743 444.077 562.977 444.645 Q562.211 445.214 561.42 445.214 Q560.506 445.214 559.79 444.596 Q559.074 443.978 559.074 442.867 Q559.074 440.594 561.865 440.594 Q560.556 438.568 557.419 438.568 Q556.455 438.568 555.467 438.865 Q554.479 439.137 553.194 440.075 Q551.91 441.014 550.922 442.496 Q549.933 443.978 549.242 446.77 Q548.55 449.561 548.55 453.193 L548.55 454.403 Q550.625 449.388 554.874 449.413 Q559.123 449.413 562.063 452.649 Q565.002 455.885 565.002 460.678 Q565.002 465.594 561.939 468.855 Q558.876 472.115 554.578 472.115 Q552.651 472.115 550.897 471.3 Q549.168 470.51 547.537 468.682 Q545.931 466.854 544.968 463.346 Q544.005 459.838 544.005 455.021 M548.649 459.566 Q548.649 464.532 549.563 466.903 Q549.711 467.298 550.032 467.842 Q550.378 468.385 550.946 469.102 Q551.539 469.793 552.503 470.263 Q553.466 470.707 554.578 470.707 Q557.962 470.707 559.592 467.422 Q560.457 465.594 560.457 460.628 Q560.457 455.564 559.543 453.711 Q557.987 450.574 554.825 450.574 Q552.7 450.574 551.218 452.032 Q549.761 453.489 549.192 455.441 Q548.649 457.392 548.649 459.566 Z" fill="#000000" fill-rule="evenodd" fill-opacity="1" /><path clip-path="url(#clip280)" d="M569.153 454.823 Q569.153 447.387 571.03 443.336 Q573.649 437.308 579.824 437.308 Q581.134 437.308 582.492 437.679 Q583.876 438.025 585.605 439.384 Q587.359 440.742 588.421 442.966 Q590.447 447.264 590.447 454.823 Q590.447 462.209 588.569 466.236 Q585.827 472.115 579.775 472.115 Q577.502 472.115 575.18 470.954 Q572.883 469.793 571.425 467.002 Q569.153 462.827 569.153 454.823 M573.352 454.206 Q573.352 461.839 573.896 464.877 Q574.513 468.163 576.193 469.596 Q577.898 471.004 579.775 471.004 Q581.801 471.004 583.481 469.497 Q585.185 467.965 585.704 464.68 Q586.272 461.444 586.247 454.206 Q586.247 447.165 585.753 444.349 Q585.086 441.063 583.308 439.754 Q581.554 438.42 579.775 438.42 Q579.108 438.42 578.392 438.618 Q577.7 438.815 576.687 439.384 Q575.674 439.952 574.884 441.36 Q574.118 442.768 573.747 444.892 Q573.352 447.634 573.352 454.206 Z" fill="#000000" fill-rule="evenodd" fill-opacity="1" /><path clip-path="url(#clip280)" d="M594.449 454.823 Q594.449 447.387 596.326 443.336 Q598.945 437.308 605.121 437.308 Q606.43 437.308 607.789 437.679 Q609.172 438.025 610.901 439.384 Q612.655 440.742 613.718 442.966 Q615.743 447.264 615.743 454.823 Q615.743 462.209 613.866 466.236 Q611.124 472.115 605.071 472.115 Q602.799 472.115 600.477 470.954 Q598.179 469.793 596.722 467.002 Q594.449 462.827 594.449 454.823 M598.648 454.206 Q598.648 461.839 599.192 464.877 Q599.81 468.163 601.489 469.596 Q603.194 471.004 605.071 471.004 Q607.097 471.004 608.777 469.497 Q610.481 467.965 611 464.68 Q611.568 461.444 611.544 454.206 Q611.544 447.165 611.05 444.349 Q610.383 441.063 608.604 439.754 Q606.85 438.42 605.071 438.42 Q604.404 438.42 603.688 438.618 Q602.996 438.815 601.983 439.384 Q600.971 439.952 600.18 441.36 Q599.414 442.768 599.044 444.892 Q598.648 447.634 598.648 454.206 Z" fill="#000000" fill-rule="evenodd" fill-opacity="1" /><path clip-path="url(#clip280)" d="M619.745 454.823 Q619.745 447.387 621.623 443.336 Q624.241 437.308 630.417 437.308 Q631.726 437.308 633.085 437.679 Q634.468 438.025 636.198 439.384 Q637.952 440.742 639.014 442.966 Q641.039 447.264 641.039 454.823 Q641.039 462.209 639.162 466.236 Q636.42 472.115 630.368 472.115 Q628.095 472.115 625.773 470.954 Q623.475 469.793 622.018 467.002 Q619.745 462.827 619.745 454.823 M623.945 454.206 Q623.945 461.839 624.488 464.877 Q625.106 468.163 626.786 469.596 Q628.49 471.004 630.368 471.004 Q632.393 471.004 634.073 469.497 Q635.778 467.965 636.296 464.68 Q636.865 461.444 636.84 454.206 Q636.84 447.165 636.346 444.349 Q635.679 441.063 633.9 439.754 Q632.146 438.42 630.368 438.42 Q629.701 438.42 628.984 438.618 Q628.292 438.815 627.28 439.384 Q626.267 439.952 625.476 441.36 Q624.711 442.768 624.34 444.892 Q623.945 447.634 623.945 454.206 Z" fill="#000000" fill-rule="evenodd" fill-opacity="1" /><path clip-path="url(#clip280)" d="M690.284 442.126 L690.284 440.545 Q696.361 440.545 699.498 437.308 Q700.363 437.308 700.511 437.506 Q700.659 437.704 700.659 438.618 L700.659 467.002 Q700.659 468.509 701.4 468.978 Q702.142 469.448 705.378 469.448 L706.983 469.448 L706.983 471.004 Q705.205 470.856 698.782 470.856 Q692.359 470.856 690.605 471.004 L690.605 469.448 L692.211 469.448 Q695.398 469.448 696.163 469.003 Q696.929 468.534 696.929 467.002 L696.929 440.792 Q694.286 442.126 690.284 442.126 Z" fill="#000000" fill-rule="evenodd" fill-opacity="1" /><path clip-path="url(#clip280)" d="M713.604 471.004 Q713.604 470.09 713.678 469.818 Q713.777 469.546 714.172 469.126 L723.88 458.306 Q729.192 452.328 729.192 447.116 Q729.192 443.731 727.413 441.31 Q725.659 438.889 722.423 438.889 Q720.2 438.889 718.322 440.248 Q716.445 441.607 715.58 444.028 Q715.728 443.978 716.247 443.978 Q717.507 443.978 718.199 444.769 Q718.915 445.559 718.915 446.622 Q718.915 447.98 718.026 448.647 Q717.161 449.29 716.297 449.29 Q715.951 449.29 715.481 449.215 Q715.037 449.141 714.32 448.45 Q713.604 447.733 713.604 446.473 Q713.604 442.941 716.272 440.125 Q718.965 437.308 723.065 437.308 Q727.71 437.308 730.748 440.075 Q733.811 442.817 733.811 447.116 Q733.811 448.623 733.342 450.006 Q732.897 451.365 732.28 452.427 Q731.687 453.489 730.056 455.194 Q728.426 456.898 727.117 458.109 Q725.807 459.319 722.868 461.888 L717.507 467.101 L726.623 467.101 Q731.069 467.101 731.415 466.705 Q731.909 465.989 732.527 462.209 L733.811 462.209 L732.378 471.004 L713.604 471.004 Z" fill="#000000" fill-rule="evenodd" fill-opacity="1" /><path clip-path="url(#clip280)" d="M738.357 454.823 Q738.357 447.387 740.234 443.336 Q742.853 437.308 749.029 437.308 Q750.338 437.308 751.696 437.679 Q753.08 438.025 754.809 439.384 Q756.563 440.742 757.625 442.966 Q759.651 447.264 759.651 454.823 Q759.651 462.209 757.774 466.236 Q755.031 472.115 748.979 472.115 Q746.706 472.115 744.384 470.954 Q742.087 469.793 740.629 467.002 Q738.357 462.827 738.357 454.823 M742.556 454.206 Q742.556 461.839 743.1 464.877 Q743.717 468.163 745.397 469.596 Q747.102 471.004 748.979 471.004 Q751.005 471.004 752.685 469.497 Q754.389 467.965 754.908 464.68 Q755.476 461.444 755.451 454.206 Q755.451 447.165 754.957 444.349 Q754.29 441.063 752.512 439.754 Q750.758 438.42 748.979 438.42 Q748.312 438.42 747.596 438.618 Q746.904 438.815 745.891 439.384 Q744.878 439.952 744.088 441.36 Q743.322 442.768 742.951 444.892 Q742.556 447.634 742.556 454.206 Z" fill="#000000" fill-rule="evenodd" fill-opacity="1" /><path clip-path="url(#clip280)" d="M763.653 454.823 Q763.653 447.387 765.53 443.336 Q768.149 437.308 774.325 437.308 Q775.634 437.308 776.993 437.679 Q778.376 438.025 780.105 439.384 Q781.859 440.742 782.922 442.966 Q784.947 447.264 784.947 454.823 Q784.947 462.209 783.07 466.236 Q780.328 472.115 774.275 472.115 Q772.003 472.115 769.681 470.954 Q767.383 469.793 765.926 467.002 Q763.653 462.827 763.653 454.823 M767.852 454.206 Q767.852 461.839 768.396 464.877 Q769.014 468.163 770.693 469.596 Q772.398 471.004 774.275 471.004 Q776.301 471.004 777.981 469.497 Q779.685 467.965 780.204 464.68 Q780.772 461.444 780.748 454.206 Q780.748 447.165 780.254 444.349 Q779.587 441.063 777.808 439.754 Q776.054 438.42 774.275 438.42 Q773.608 438.42 772.892 438.618 Q772.2 438.815 771.187 439.384 Q770.175 439.952 769.384 441.36 Q768.618 442.768 768.248 444.892 Q767.852 447.634 767.852 454.206 Z" fill="#000000" fill-rule="evenodd" fill-opacity="1" /><path clip-path="url(#clip280)" d="M788.949 454.823 Q788.949 447.387 790.827 443.336 Q793.445 437.308 799.621 437.308 Q800.93 437.308 802.289 437.679 Q803.672 438.025 805.402 439.384 Q807.156 440.742 808.218 442.966 Q810.243 447.264 810.243 454.823 Q810.243 462.209 808.366 466.236 Q805.624 472.115 799.572 472.115 Q797.299 472.115 794.977 470.954 Q792.679 469.793 791.222 467.002 Q788.949 462.827 788.949 454.823 M793.149 454.206 Q793.149 461.839 793.692 464.877 Q794.31 468.163 795.99 469.596 Q797.694 471.004 799.572 471.004 Q801.597 471.004 803.277 469.497 Q804.982 467.965 805.5 464.68 Q806.069 461.444 806.044 454.206 Q806.044 447.165 805.55 444.349 Q804.883 441.063 803.104 439.754 Q801.35 438.42 799.572 438.42 Q798.905 438.42 798.188 438.618 Q797.497 438.815 796.484 439.384 Q795.471 439.952 794.68 441.36 Q793.915 442.768 793.544 444.892 Q793.149 447.634 793.149 454.206 Z" fill="#000000" fill-rule="evenodd" fill-opacity="1" /><path clip-path="url(#clip280)" d="M368.735 545.068 L368.735 542.928 L370.4 542.928 Q374.17 542.928 375.019 542.317 Q375.902 541.671 375.902 539.633 L375.902 503.186 Q375.902 501.182 375.019 500.571 Q374.136 499.926 370.4 499.926 L368.735 499.926 L368.735 497.752 L407.899 497.752 L409.835 513.41 L408.103 513.41 Q407.627 509.436 406.982 507.161 Q406.371 504.851 404.842 503.084 Q403.348 501.318 400.868 500.639 Q398.422 499.926 394.448 499.926 L385.481 499.926 Q383.103 499.926 382.594 500.435 Q382.084 500.911 382.084 502.711 L382.084 519.389 L388.334 519.389 Q393.124 519.389 394.482 517.724 Q395.841 516.06 395.841 511.271 L397.607 511.271 L397.607 529.681 L395.841 529.681 Q395.841 524.959 394.482 523.261 Q393.124 521.563 388.334 521.563 L382.084 521.563 L382.084 540.143 Q382.084 541.943 382.594 542.452 Q383.137 542.928 385.481 542.928 L394.754 542.928 Q397.743 542.928 399.917 542.554 Q402.125 542.147 403.653 541.196 Q405.182 540.211 406.201 539.09 Q407.254 537.969 407.967 535.965 Q408.714 533.927 409.122 532.058 Q409.564 530.19 410.039 527.133 L411.771 527.133 L408.85 545.068 L368.735 545.068 Z" fill="#000000" fill-rule="evenodd" fill-opacity="1" /><path clip-path="url(#clip280)" d="M415.644 556.413 Q419.346 556.413 420.195 555.937 Q421.078 555.496 421.078 553.288 L421.078 520.713 Q421.078 518.404 420.195 517.826 Q419.346 517.249 415.644 517.249 L415.644 515.075 L425.664 514.328 L425.664 518.913 Q429.842 514.328 435.413 514.328 Q441.323 514.328 445.637 518.913 Q449.95 523.499 449.95 530.054 Q449.95 536.678 445.365 541.264 Q440.779 545.849 434.428 545.849 Q430.963 545.849 428.619 544.083 Q426.309 542.283 425.868 540.958 L425.868 541.603 L425.868 553.288 Q425.868 555.53 426.751 555.971 Q427.634 556.413 431.303 556.413 L431.303 558.553 Q424 558.349 423.456 558.349 Q422.777 558.349 415.644 558.553 L415.644 556.413 M425.868 537.154 Q425.868 538.206 426.004 538.58 Q426.174 538.954 426.853 540.075 Q429.604 544.287 434.088 544.287 Q434.122 544.287 434.156 544.287 Q438.13 544.287 441.153 540.245 Q444.176 536.168 444.176 530.054 Q444.176 524.212 441.425 520.136 Q438.673 516.06 434.869 516.06 Q432.152 516.06 429.774 517.521 Q427.396 518.981 425.868 521.631 L425.868 537.154 Z" fill="#000000" fill-rule="evenodd" fill-opacity="1" /><path clip-path="url(#clip280)" d="M454.604 545.068 L454.604 542.928 Q458.306 542.928 459.156 542.486 Q460.005 542.011 460.005 539.769 L460.005 521.053 Q460.005 518.472 459.122 517.86 Q458.272 517.249 454.876 517.249 L454.876 515.075 L464.59 514.328 L464.59 539.837 Q464.59 541.909 465.338 542.418 Q466.085 542.928 469.482 542.928 L469.482 545.068 Q462.382 544.864 462.247 544.864 Q461.296 544.864 454.604 545.068 M457.525 502.201 Q457.525 500.809 458.578 499.688 Q459.665 498.533 461.194 498.533 Q462.722 498.533 463.809 499.586 Q464.896 500.605 464.896 502.235 Q464.896 503.832 463.809 504.885 Q462.722 505.904 461.194 505.904 Q459.597 505.904 458.544 504.783 Q457.525 503.662 457.525 502.201 Z" fill="#000000" fill-rule="evenodd" fill-opacity="1" /><path clip-path="url(#clip280)" d="M473.863 544.151 L473.863 534.98 Q473.863 534.198 473.897 533.927 Q473.931 533.655 474.135 533.451 Q474.339 533.247 474.746 533.247 Q475.222 533.247 475.392 533.451 Q475.596 533.655 475.732 534.436 Q476.785 539.225 479.026 541.773 Q481.302 544.287 485.412 544.287 Q489.318 544.287 491.288 542.554 Q493.259 540.822 493.259 537.969 Q493.259 532.874 486.024 531.583 Q481.846 530.734 480.113 530.19 Q478.381 529.613 476.852 528.356 Q473.863 525.91 473.863 522.446 Q473.863 518.981 476.479 516.434 Q479.128 513.886 484.971 513.886 Q488.877 513.886 491.526 515.856 Q492.307 515.245 492.715 514.735 Q493.632 513.886 494.108 513.886 Q494.651 513.886 494.753 514.26 Q494.855 514.599 494.855 515.584 L494.855 522.582 Q494.855 523.363 494.821 523.635 Q494.787 523.906 494.583 524.11 Q494.379 524.28 493.938 524.28 Q493.157 524.28 493.123 523.635 Q492.579 515.211 484.971 515.211 Q480.861 515.211 479.026 516.807 Q477.192 518.37 477.192 520.51 Q477.192 521.698 477.736 522.616 Q478.313 523.499 479.026 524.042 Q479.774 524.552 481.132 525.061 Q482.491 525.537 483.306 525.707 Q484.155 525.876 485.752 526.216 Q491.322 527.269 493.666 529.545 Q496.587 532.466 496.587 536.168 Q496.587 540.278 493.802 543.064 Q491.017 545.849 485.412 545.849 Q480.895 545.849 477.736 542.826 Q477.328 543.234 477.022 543.607 Q476.717 543.947 476.581 544.083 Q476.479 544.219 476.445 544.321 Q476.411 544.389 476.343 544.456 Q474.95 545.849 474.611 545.849 Q474.067 545.849 473.965 545.475 Q473.863 545.136 473.863 544.151 Z" fill="#000000" fill-rule="evenodd" fill-opacity="1" /><path clip-path="url(#clip280)" d="M505.453 541.331 Q500.867 536.78 500.867 530.19 Q500.867 523.567 505.351 518.743 Q509.868 513.886 516.322 513.886 Q522.64 513.886 527.158 518.709 Q531.709 523.499 531.709 530.19 Q531.709 536.746 527.124 541.297 Q522.572 545.849 516.254 545.849 Q510.072 545.849 505.453 541.331 M506.642 529.613 Q506.642 536.372 508.408 539.429 Q511.125 544.083 516.322 544.083 Q518.904 544.083 521.044 542.69 Q523.218 541.297 524.406 538.954 Q525.935 535.897 525.935 529.613 Q525.935 522.921 524.101 519.966 Q521.383 515.449 516.254 515.449 Q514.012 515.449 511.805 516.637 Q509.631 517.792 508.306 520.102 Q506.642 523.159 506.642 529.613 Z" fill="#000000" fill-rule="evenodd" fill-opacity="1" /><path clip-path="url(#clip280)" d="M538.027 530.122 Q538.027 523.499 542.647 518.913 Q547.266 514.328 553.516 514.328 Q558.815 514.328 562.28 518.641 L562.28 503.594 Q562.28 501.012 561.363 500.367 Q560.48 499.722 556.879 499.722 L556.879 497.548 L566.899 496.801 L566.899 539.022 Q566.899 541.603 567.782 542.283 Q568.7 542.928 572.3 542.928 L572.3 545.068 L562.076 545.849 L562.076 541.23 Q558.475 545.815 552.769 545.849 Q546.791 545.849 542.409 541.264 Q538.027 536.678 538.027 530.122 M543.802 530.19 Q543.802 536.644 545.806 539.837 Q548.591 544.287 553.109 544.287 Q558.272 544.287 561.329 539.429 Q562.11 538.24 562.076 536.848 L562.076 522.582 Q562.076 521.189 561.329 520.034 Q558.475 515.856 553.822 515.856 Q548.965 515.856 545.942 520.306 Q543.802 523.635 543.802 530.19 Z" fill="#000000" fill-rule="evenodd" fill-opacity="1" /><path clip-path="url(#clip280)" d="M576.172 529.749 Q576.172 523.193 580.384 518.54 Q584.596 513.886 590.642 513.886 Q596.756 513.886 599.915 517.86 Q603.108 521.834 603.108 527.541 Q603.108 528.594 602.837 528.798 Q602.565 529.001 601.376 529.001 L581.947 529.001 Q581.947 536.101 584.053 539.429 Q586.974 544.083 591.899 544.083 Q592.578 544.083 593.394 543.947 Q594.209 543.811 595.873 543.234 Q597.538 542.622 598.998 541.026 Q600.459 539.429 601.308 536.916 Q601.512 535.931 602.191 535.965 Q603.108 535.965 603.108 536.78 Q603.108 537.391 602.429 538.784 Q601.784 540.143 600.527 541.773 Q599.27 543.403 596.824 544.626 Q594.413 545.849 591.491 545.849 Q585.377 545.849 580.758 541.23 Q576.172 536.576 576.172 529.749 M582.015 527.541 L598.523 527.541 Q598.523 526.08 598.251 524.45 Q598.013 522.819 597.266 520.578 Q596.553 518.302 594.854 516.875 Q593.156 515.449 590.642 515.449 Q589.521 515.449 588.299 515.924 Q587.11 516.4 585.649 517.554 Q584.189 518.709 583.17 521.325 Q582.151 523.94 582.015 527.541 Z" fill="#000000" fill-rule="evenodd" fill-opacity="1" /><path clip-path="url(#clip280)" d="M607.422 544.151 L607.422 534.98 Q607.422 534.198 607.456 533.927 Q607.49 533.655 607.694 533.451 Q607.898 533.247 608.305 533.247 Q608.781 533.247 608.951 533.451 Q609.154 533.655 609.29 534.436 Q610.343 539.225 612.585 541.773 Q614.861 544.287 618.971 544.287 Q622.877 544.287 624.847 542.554 Q626.817 540.822 626.817 537.969 Q626.817 532.874 619.582 531.583 Q615.404 530.734 613.672 530.19 Q611.94 529.613 610.411 528.356 Q607.422 525.91 607.422 522.446 Q607.422 518.981 610.038 516.434 Q612.687 513.886 618.529 513.886 Q622.436 513.886 625.085 515.856 Q625.866 515.245 626.274 514.735 Q627.191 513.886 627.666 513.886 Q628.21 513.886 628.312 514.26 Q628.414 514.599 628.414 515.584 L628.414 522.582 Q628.414 523.363 628.38 523.635 Q628.346 523.906 628.142 524.11 Q627.938 524.28 627.497 524.28 Q626.715 524.28 626.681 523.635 Q626.138 515.211 618.529 515.211 Q614.419 515.211 612.585 516.807 Q610.751 518.37 610.751 520.51 Q610.751 521.698 611.294 522.616 Q611.872 523.499 612.585 524.042 Q613.332 524.552 614.691 525.061 Q616.05 525.537 616.865 525.707 Q617.714 525.876 619.311 526.216 Q624.881 527.269 627.225 529.545 Q630.146 532.466 630.146 536.168 Q630.146 540.278 627.361 543.064 Q624.575 545.849 618.971 545.849 Q614.453 545.849 611.294 542.826 Q610.887 543.234 610.581 543.607 Q610.275 543.947 610.139 544.083 Q610.038 544.219 610.004 544.321 Q609.97 544.389 609.902 544.456 Q608.509 545.849 608.169 545.849 Q607.626 545.849 607.524 545.475 Q607.422 545.136 607.422 544.151 Z" fill="#000000" fill-rule="evenodd" fill-opacity="1" /><polyline clip-path="url(#clip282)" style="stroke:#000000; stroke-linecap:round; stroke-linejoin:round; stroke-width:2; stroke-opacity:0.1; fill:none" points="
  145.298,407.705 853.583,407.705 
  "/>
<polyline clip-path="url(#clip282)" style="stroke:#000000; stroke-linecap:round; stroke-linejoin:round; stroke-width:2; stroke-opacity:0.1; fill:none" points="
  145.298,311.249 853.583,311.249 
  "/>
<polyline clip-path="url(#clip282)" style="stroke:#000000; stroke-linecap:round; stroke-linejoin:round; stroke-width:2; stroke-opacity:0.1; fill:none" points="
  145.298,214.793 853.583,214.793 
  "/>
<polyline clip-path="url(#clip282)" style="stroke:#000000; stroke-linecap:round; stroke-linejoin:round; stroke-width:2; stroke-opacity:0.1; fill:none" points="
  145.298,118.337 853.583,118.337 
  "/>
<polyline clip-path="url(#clip280)" style="stroke:#000000; stroke-linecap:round; stroke-linejoin:round; stroke-width:4; stroke-opacity:1; fill:none" points="
  145.298,418.204 145.298,47.2441 
  "/>
<polyline clip-path="url(#clip280)" style="stroke:#000000; stroke-linecap:round; stroke-linejoin:round; stroke-width:4; stroke-opacity:1; fill:none" points="
  145.298,407.705 158.584,407.705 
  "/>
<polyline clip-path="url(#clip280)" style="stroke:#000000; stroke-linecap:round; stroke-linejoin:round; stroke-width:4; stroke-opacity:1; fill:none" points="
  145.298,311.249 158.584,311.249 
  "/>
<polyline clip-path="url(#clip280)" style="stroke:#000000; stroke-linecap:round; stroke-linejoin:round; stroke-width:4; stroke-opacity:1; fill:none" points="
  145.298,214.793 158.584,214.793 
  "/>
<polyline clip-path="url(#clip280)" style="stroke:#000000; stroke-linecap:round; stroke-linejoin:round; stroke-width:4; stroke-opacity:1; fill:none" points="
  145.298,118.337 158.584,118.337 
  "/>
<path clip-path="url(#clip280)" d="M106.004 408.804 Q106.004 401.369 107.882 397.317 Q110.5 391.29 116.676 391.29 Q117.985 391.29 119.344 391.66 Q120.727 392.006 122.457 393.365 Q124.211 394.723 125.273 396.947 Q127.298 401.245 127.298 408.804 Q127.298 416.191 125.421 420.217 Q122.679 426.097 116.627 426.097 Q114.354 426.097 112.032 424.936 Q109.734 423.775 108.277 420.983 Q106.004 416.808 106.004 408.804 M110.204 408.187 Q110.204 415.82 110.747 418.859 Q111.365 422.144 113.045 423.577 Q114.749 424.985 116.627 424.985 Q118.652 424.985 120.332 423.478 Q122.037 421.946 122.555 418.661 Q123.124 415.425 123.099 408.187 Q123.099 401.146 122.605 398.33 Q121.938 395.045 120.159 393.735 Q118.405 392.401 116.627 392.401 Q115.96 392.401 115.243 392.599 Q114.552 392.797 113.539 393.365 Q112.526 393.933 111.735 395.341 Q110.97 396.749 110.599 398.874 Q110.204 401.616 110.204 408.187 Z" fill="#000000" fill-rule="evenodd" fill-opacity="1" /><path clip-path="url(#clip280)" d="M110.599 299.651 L110.599 298.07 Q116.676 298.07 119.813 294.833 Q120.678 294.833 120.826 295.031 Q120.974 295.229 120.974 296.143 L120.974 324.527 Q120.974 326.034 121.715 326.503 Q122.457 326.973 125.693 326.973 L127.298 326.973 L127.298 328.529 Q125.52 328.381 119.097 328.381 Q112.674 328.381 110.92 328.529 L110.92 326.973 L112.526 326.973 Q115.713 326.973 116.478 326.528 Q117.244 326.059 117.244 324.527 L117.244 298.317 Q114.601 299.651 110.599 299.651 Z" fill="#000000" fill-rule="evenodd" fill-opacity="1" /><path clip-path="url(#clip280)" d="M107.091 232.073 Q107.091 231.159 107.165 230.887 Q107.264 230.615 107.659 230.195 L117.368 219.375 Q122.679 213.397 122.679 208.185 Q122.679 204.8 120.9 202.379 Q119.146 199.958 115.91 199.958 Q113.687 199.958 111.809 201.317 Q109.932 202.676 109.067 205.097 Q109.216 205.047 109.734 205.047 Q110.994 205.047 111.686 205.838 Q112.402 206.628 112.402 207.691 Q112.402 209.049 111.513 209.716 Q110.648 210.359 109.784 210.359 Q109.438 210.359 108.969 210.284 Q108.524 210.21 107.808 209.519 Q107.091 208.802 107.091 207.542 Q107.091 204.01 109.759 201.194 Q112.452 198.377 116.552 198.377 Q121.197 198.377 124.235 201.144 Q127.298 203.886 127.298 208.185 Q127.298 209.692 126.829 211.075 Q126.384 212.434 125.767 213.496 Q125.174 214.558 123.544 216.263 Q121.913 217.967 120.604 219.178 Q119.295 220.388 116.355 222.957 L110.994 228.17 L120.11 228.17 Q124.556 228.17 124.902 227.774 Q125.396 227.058 126.014 223.278 L127.298 223.278 L125.866 232.073 L107.091 232.073 Z" fill="#000000" fill-rule="evenodd" fill-opacity="1" /><path clip-path="url(#clip280)" d="M106.301 128.799 Q106.301 127.292 107.165 126.575 Q108.03 125.859 109.141 125.859 Q110.303 125.859 111.118 126.625 Q111.958 127.366 111.958 128.675 Q111.958 130.083 110.97 130.874 Q110.006 131.664 108.623 131.467 Q109.833 133.492 112.056 134.406 Q114.304 135.32 116.38 135.32 Q118.553 135.32 120.307 133.443 Q122.086 131.565 122.086 126.971 Q122.086 123.067 120.554 120.819 Q119.048 118.571 116.058 118.571 L113.835 118.571 Q113.069 118.571 112.847 118.497 Q112.625 118.423 112.625 118.003 Q112.625 117.509 113.39 117.41 Q114.156 117.41 115.367 117.262 Q118.306 117.163 119.863 114.619 Q121.271 112.247 121.271 108.863 Q121.271 105.775 119.789 104.49 Q118.331 103.181 116.429 103.181 Q114.65 103.181 112.699 103.922 Q110.747 104.663 109.685 106.318 Q112.822 106.318 112.822 108.863 Q112.822 109.975 112.106 110.716 Q111.414 111.432 110.253 111.432 Q109.141 111.432 108.4 110.74 Q107.659 110.024 107.659 108.814 Q107.659 105.923 110.228 103.922 Q112.822 101.921 116.627 101.921 Q120.382 101.921 123.148 103.898 Q125.94 105.874 125.94 108.912 Q125.94 111.901 123.963 114.347 Q121.987 116.793 118.85 117.806 Q122.704 118.571 125.001 121.19 Q127.298 123.784 127.298 126.971 Q127.298 130.923 124.186 133.838 Q121.073 136.728 116.528 136.728 Q112.328 136.728 109.314 134.456 Q106.301 132.183 106.301 128.799 Z" fill="#000000" fill-rule="evenodd" fill-opacity="1" /><path clip-path="url(#clip280)" d="M35.5691 460.558 Q29.5909 460.558 25.5828 457.501 Q21.5747 454.444 21.5747 450.334 Q21.5747 447.821 23.8165 445.341 Q29.1833 439.703 29.1493 432.332 Q29.1493 423.976 22.5597 419.119 Q21.5747 418.269 21.5747 417.658 Q21.5747 417.114 22.0162 416.707 Q22.4238 416.265 22.9673 416.265 Q23.3749 416.265 24.2241 416.809 L76.6014 451.999 Q77.6544 452.78 77.6544 453.391 Q77.6544 453.935 77.2128 454.376 Q76.8052 454.784 76.2617 454.784 Q75.7862 454.784 74.8691 454.173 L28.3341 422.923 L28.2662 422.991 Q30.7118 426.591 30.6779 432.264 Q30.6779 437.631 27.7567 442.76 Q31.3572 441.299 35.637 441.299 Q41.4794 441.299 45.5554 443.915 Q49.5975 446.53 49.5975 450.334 Q49.5975 454.444 45.6573 457.501 Q41.6832 460.558 35.5691 460.558 M29.8966 455.769 Q32.3422 456.245 35.637 456.245 Q38.8979 456.245 41.3435 455.769 Q43.7552 455.294 45.012 454.614 Q46.2688 453.901 47.016 452.95 Q47.7293 451.999 47.8992 451.421 Q48.069 450.844 48.069 450.266 Q48.069 447.413 44.5364 445.239 Q40.9699 443.031 35.5691 443.031 Q30.2702 443.031 26.7037 445.239 Q23.1032 447.413 23.1032 450.266 Q23.1032 450.878 23.273 451.489 Q23.4429 452.067 24.1901 452.984 Q24.9034 453.901 26.1602 454.614 Q27.417 455.294 29.8966 455.769 M63.592 429.75 Q57.6138 429.75 53.6057 426.693 Q49.5975 423.636 49.5975 419.526 Q49.5975 415.756 53.6736 413.14 Q57.7496 410.491 63.6599 410.491 Q69.5023 410.491 73.5783 413.106 Q77.6544 415.688 77.6544 419.526 Q77.6544 423.636 73.6802 426.693 Q69.7061 429.75 63.592 429.75 M57.9195 424.961 Q60.3991 425.436 63.6599 425.436 Q66.9208 425.436 69.3664 424.961 Q71.812 424.451 73.0688 423.772 Q74.2916 423.059 75.0049 422.142 Q75.7522 421.191 75.9221 420.613 Q76.1259 420.002 76.1259 419.458 Q76.1259 416.605 72.5933 414.431 Q69.0267 412.223 63.592 412.223 Q58.2931 412.223 54.7266 414.431 Q51.1261 416.605 51.1261 419.458 Q51.1261 420.07 51.3299 420.681 Q51.4997 421.258 52.247 422.176 Q52.9603 423.059 54.2171 423.772 Q55.4399 424.451 57.9195 424.961 Z" fill="#000000" fill-rule="evenodd" fill-opacity="1" /><path clip-path="url(#clip280)" d="M45.9291 381.177 L43.7552 381.177 L43.0079 370.953 L66.1056 370.953 Q67.7699 370.953 68.755 370.817 Q69.7061 370.681 70.827 370.138 Q71.9479 369.561 72.4574 368.27 Q72.9669 366.945 72.9669 364.839 Q72.9669 361.069 69.8759 358.759 Q66.7849 356.415 62.1993 356.415 L49.8013 356.415 Q47.2198 356.415 46.5745 357.332 Q45.9291 358.249 45.9291 361.85 L43.7552 361.85 L43.0079 351.626 L67.702 351.626 Q70.2835 351.626 70.9629 350.743 Q71.6082 349.826 71.6082 346.191 L73.7482 346.191 L74.5294 356.211 L68.2455 356.211 Q74.4954 359.133 74.5294 365.179 Q74.5294 368.236 73.7482 370.342 Q72.9669 372.414 72.0158 373.467 Q71.0308 374.52 69.1626 375.097 Q67.2944 375.641 66.1395 375.709 Q64.9846 375.776 62.7428 375.776 L52.3149 375.776 Q47.5935 375.776 46.7783 376.456 Q45.9291 377.135 45.9291 381.177 Z" fill="#000000" fill-rule="evenodd" fill-opacity="1" /><path clip-path="url(#clip280)" d="M73.7482 342.591 L71.6082 342.591 Q71.6082 338.888 71.1667 338.039 Q70.6911 337.19 68.4493 337.19 L49.8013 337.19 Q47.2198 337.19 46.5745 338.107 Q45.9291 338.99 45.9291 342.591 L43.7552 342.591 L43.0079 332.808 L50.3108 332.808 Q43.0079 329.547 43.0079 322.516 Q43.0079 317.285 45.5894 315.213 Q47.3217 313.685 49.2579 313.379 Q51.194 313.039 56.2211 313.039 L69.5023 313.039 Q70.9629 312.971 71.3025 311.85 Q71.6082 310.729 71.6082 307.604 L73.7482 307.604 Q73.5444 314.704 73.5444 315.417 Q73.5444 315.96 73.7482 323.263 L71.6082 323.263 Q71.6082 319.561 71.1667 318.712 Q70.6911 317.829 68.4493 317.829 L52.247 317.829 Q48.7144 317.829 46.6424 318.916 Q44.5364 320.002 44.5364 322.992 Q44.5364 326.592 47.5595 329.479 Q50.5826 332.367 55.6776 332.367 L68.4493 332.367 Q70.6911 332.367 71.1667 331.517 Q71.6082 330.634 71.6082 326.966 L73.7482 326.966 Q73.5444 334.065 73.5444 334.744 Q73.5444 335.288 73.7482 342.591 Z" fill="#000000" fill-rule="evenodd" fill-opacity="1" /><path clip-path="url(#clip280)" d="M72.831 303.936 L63.6599 303.936 Q62.8787 303.936 62.6069 303.902 Q62.3352 303.868 62.1314 303.664 Q61.9276 303.46 61.9276 303.053 Q61.9276 302.577 62.1314 302.408 Q62.3352 302.204 63.1164 302.068 Q67.9058 301.015 70.4533 298.773 Q72.9669 296.497 72.9669 292.387 Q72.9669 288.481 71.2346 286.511 Q69.5023 284.541 66.649 284.541 Q61.554 284.541 60.2632 291.776 Q59.414 295.954 58.8706 297.686 Q58.2931 299.418 57.0363 300.947 Q54.5907 303.936 51.1261 303.936 Q47.6614 303.936 45.1139 301.321 Q42.5663 298.671 42.5663 292.829 Q42.5663 288.923 44.5364 286.273 Q43.925 285.492 43.4155 285.084 Q42.5663 284.167 42.5663 283.692 Q42.5663 283.148 42.94 283.046 Q43.2797 282.944 44.2647 282.944 L51.2619 282.944 Q52.0432 282.944 52.3149 282.978 Q52.5866 283.012 52.7904 283.216 Q52.9603 283.42 52.9603 283.861 Q52.9603 284.643 52.3149 284.677 Q43.8911 285.22 43.8911 292.829 Q43.8911 296.939 45.4875 298.773 Q47.05 300.607 49.1899 300.607 Q50.3788 300.607 51.2959 300.064 Q52.179 299.486 52.7225 298.773 Q53.232 298.026 53.7415 296.667 Q54.2171 295.308 54.3869 294.493 Q54.5567 293.644 54.8964 292.048 Q55.9494 286.477 58.2252 284.133 Q61.1464 281.212 64.8488 281.212 Q68.9588 281.212 71.7441 283.997 Q74.5294 286.783 74.5294 292.387 Q74.5294 296.905 71.5063 300.064 Q71.9139 300.471 72.2876 300.777 Q72.6272 301.083 72.7631 301.219 Q72.899 301.321 73.0009 301.355 Q73.0688 301.389 73.1367 301.456 Q74.5294 302.849 74.5294 303.189 Q74.5294 303.732 74.1558 303.834 Q73.8161 303.936 72.831 303.936 Z" fill="#000000" fill-rule="evenodd" fill-opacity="1" /><path clip-path="url(#clip280)" d="M67.1246 275.947 Q61.2143 275.947 58.0893 268.984 Q56.0853 264.806 55.5757 256.178 L53.0282 256.178 Q48.7144 256.178 46.4386 258.454 Q44.1288 260.696 44.1288 263.549 Q44.1288 268.644 47.3217 271.09 Q47.3897 269.018 48.4427 268.271 Q49.4617 267.523 50.5146 267.523 Q51.9073 267.523 52.8244 268.406 Q53.7076 269.256 53.7076 270.716 Q53.7076 272.109 52.8584 273.026 Q51.9752 273.943 50.4467 273.943 Q47.05 273.943 44.8082 270.886 Q42.5663 267.795 42.5663 263.413 Q42.5663 257.707 46.4046 253.902 Q47.5935 252.714 49.122 252.136 Q50.6505 251.525 51.6695 251.457 Q52.6546 251.389 54.6247 251.389 L68.5172 251.389 Q68.9248 251.389 69.6042 251.253 Q70.2835 251.117 71.1667 250.506 Q72.0158 249.86 72.0158 248.807 Q72.0158 246.294 67.5661 246.328 L63.6599 246.328 L63.6599 244.562 L67.5661 244.562 Q71.2686 244.562 72.7291 246.532 Q74.1558 248.468 74.1558 250.268 Q74.1558 252.578 72.4574 254.038 Q70.7591 255.499 68.4493 255.703 Q71.0987 256.756 72.831 259.167 Q74.5294 261.545 74.5294 264.806 Q74.5294 267.319 73.884 269.697 Q73.2726 272.041 71.5403 274.011 Q69.774 275.947 67.1246 275.947 M67.0566 270.58 Q69.6381 270.58 71.3025 268.746 Q72.9669 266.912 72.9669 264.33 Q72.9669 261.409 70.7251 258.794 Q68.4493 256.178 63.9996 256.178 L57.0363 256.178 Q57.3081 263.889 60.3991 267.252 Q63.4561 270.58 67.0566 270.58 Z" fill="#000000" fill-rule="evenodd" fill-opacity="1" /><path clip-path="url(#clip280)" d="M45.9291 241.776 L43.7552 241.776 L43.7552 236.307 L35.7729 236.307 Q30.6099 236.307 27.6548 232.979 Q24.6996 229.616 24.6996 225.506 Q24.6996 222.789 26.1602 221.022 Q27.6208 219.256 29.5909 219.256 Q30.9156 219.256 31.7988 220.071 Q32.6479 220.852 32.6479 222.313 Q32.6479 223.706 31.7648 224.521 Q30.8817 225.302 29.6588 225.302 Q27.417 225.302 26.7377 223.23 Q26.2621 224.283 26.2282 225.506 Q26.2282 228.02 28.8097 229.99 Q31.3912 231.926 35.705 231.926 L43.7552 231.926 L43.7552 223.774 L45.9291 223.774 L45.9291 231.688 L68.3134 231.688 Q70.3175 231.688 70.9629 230.873 Q71.6082 230.024 71.6082 226.423 L71.6082 224.962 L73.7482 224.962 Q73.5444 227.748 73.5444 233.794 Q73.5444 234.643 73.5783 235.968 Q73.6123 237.259 73.6802 239.025 Q73.7482 240.757 73.7482 241.708 L71.6082 241.708 Q71.6082 238.006 71.1667 237.157 Q70.6911 236.307 68.4493 236.307 L45.9291 236.307 L45.9291 241.776 Z" fill="#000000" fill-rule="evenodd" fill-opacity="1" /><path clip-path="url(#clip280)" d="M58.429 220.954 Q51.8733 220.954 47.2198 216.742 Q42.5663 212.531 42.5663 206.484 Q42.5663 200.37 46.5405 197.211 Q50.5146 194.018 56.2211 194.018 Q57.2741 194.018 57.4779 194.29 Q57.6817 194.562 57.6817 195.751 L57.6817 215.18 Q64.7808 215.18 68.1096 213.074 Q72.7631 210.153 72.7631 205.228 Q72.7631 204.548 72.6272 203.733 Q72.4914 202.918 71.9139 201.253 Q71.3025 199.589 69.7061 198.128 Q68.1096 196.668 65.596 195.819 Q64.611 195.615 64.645 194.936 Q64.645 194.018 65.4602 194.018 Q66.0716 194.018 67.4642 194.698 Q68.8229 195.343 70.4533 196.6 Q72.0838 197.857 73.3066 200.302 Q74.5294 202.714 74.5294 205.635 Q74.5294 211.749 69.9099 216.369 Q65.2564 220.954 58.429 220.954 M56.2211 215.112 L56.2211 198.604 Q54.7605 198.604 53.1301 198.876 Q51.4997 199.114 49.2579 199.861 Q46.9821 200.574 45.5554 202.272 Q44.1288 203.971 44.1288 206.484 Q44.1288 207.605 44.6044 208.828 Q45.0799 210.017 46.2348 211.478 Q47.3897 212.938 50.0051 213.957 Q52.6206 214.976 56.2211 215.112 Z" fill="#000000" fill-rule="evenodd" fill-opacity="1" /><path clip-path="url(#clip280)" d="M45.9291 167.626 L43.7552 167.626 Q43.959 163.856 43.959 161.172 Q43.959 159.848 43.7552 153.564 L45.9291 153.564 Q45.9291 157.674 47.7973 157.674 Q48.2049 157.674 49.0541 157.334 L67.6341 150.71 L50.7864 144.732 Q47.3897 145.989 46.9821 146.329 Q45.9291 147.178 45.9291 150.71 L43.7552 150.71 Q43.959 147.585 43.959 144.528 Q43.959 143.339 43.7552 137.293 L45.9291 137.293 Q45.9291 141.403 47.7973 141.403 Q48.069 141.403 49.122 141.064 L68.5172 134.168 L50.7185 127.85 Q49.8013 127.511 49.2579 127.477 Q47.7293 127.477 46.8802 128.564 Q45.997 129.651 45.9291 131.519 L43.7552 131.519 Q43.959 127.545 43.959 125.065 Q43.959 122.28 43.7552 119.97 L45.9291 119.97 Q46.065 124.284 50.3788 125.812 L73.2047 133.965 Q74.4615 134.746 74.5294 135.357 Q74.5294 136.274 73.2047 136.75 L53.4358 143.849 L73.1367 150.88 Q73.9859 151.152 74.2577 151.39 Q74.5294 151.627 74.5294 152.273 Q74.5294 152.884 74.1558 153.156 Q73.8161 153.428 72.9669 153.733 L48.3408 162.497 Q46.7443 163.108 46.3367 164.025 Q45.9291 164.909 45.9291 167.626 Z" fill="#000000" fill-rule="evenodd" fill-opacity="1" /><path clip-path="url(#clip280)" d="M67.1246 117.694 Q61.2143 117.694 58.0893 110.731 Q56.0853 106.553 55.5757 97.9255 L53.0282 97.9255 Q48.7144 97.9255 46.4386 100.201 Q44.1288 102.443 44.1288 105.296 Q44.1288 110.391 47.3217 112.837 Q47.3897 110.765 48.4427 110.018 Q49.4617 109.27 50.5146 109.27 Q51.9073 109.27 52.8244 110.154 Q53.7076 111.003 53.7076 112.463 Q53.7076 113.856 52.8584 114.773 Q51.9752 115.69 50.4467 115.69 Q47.05 115.69 44.8082 112.633 Q42.5663 109.542 42.5663 105.16 Q42.5663 99.454 46.4046 95.6497 Q47.5935 94.4608 49.122 93.8834 Q50.6505 93.272 51.6695 93.204 Q52.6546 93.1361 54.6247 93.1361 L68.5172 93.1361 Q68.9248 93.1361 69.6042 93.0002 Q70.2835 92.8644 71.1667 92.2529 Q72.0158 91.6076 72.0158 90.5546 Q72.0158 88.041 67.5661 88.075 L63.6599 88.075 L63.6599 86.3087 L67.5661 86.3087 Q71.2686 86.3087 72.7291 88.2788 Q74.1558 90.2149 74.1558 92.0152 Q74.1558 94.3249 72.4574 95.7855 Q70.7591 97.2461 68.4493 97.4499 Q71.0987 98.5029 72.831 100.915 Q74.5294 103.292 74.5294 106.553 Q74.5294 109.067 73.884 111.444 Q73.2726 113.788 71.5403 115.758 Q69.774 117.694 67.1246 117.694 M67.0566 112.328 Q69.6381 112.328 71.3025 110.493 Q72.9669 108.659 72.9669 106.078 Q72.9669 103.156 70.7251 100.541 Q68.4493 97.9255 63.9996 97.9255 L57.0363 97.9255 Q57.3081 105.636 60.3991 108.999 Q63.4561 112.328 67.0566 112.328 Z" fill="#000000" fill-rule="evenodd" fill-opacity="1" /><path clip-path="url(#clip280)" d="M73.7482 83.5234 L71.6082 83.5234 Q71.6082 79.821 71.1667 78.9718 Q70.6911 78.1226 68.4493 78.1226 L32.2743 78.1226 Q29.6928 78.1226 29.0474 79.0397 Q28.4021 79.9229 28.4021 83.5234 L26.2282 83.5234 L25.4809 73.5371 L68.4493 73.5371 Q70.6911 73.5371 71.1667 72.6539 Q71.6082 71.7708 71.6082 68.1023 L73.7482 68.1023 Q73.7482 68.9515 73.6802 70.7178 Q73.6123 72.4841 73.5783 73.7748 Q73.5444 75.0656 73.5444 75.8129 Q73.5444 76.6281 73.7482 83.5234 Z" fill="#000000" fill-rule="evenodd" fill-opacity="1" /><path clip-path="url(#clip280)" d="M73.7482 64.6377 L71.6082 64.6377 Q71.6082 60.9353 71.1667 60.0861 Q70.6911 59.2029 68.4493 59.2029 L32.2743 59.2029 Q29.6928 59.2029 29.0474 60.1201 Q28.4021 61.0032 28.4021 64.6377 L26.2282 64.6377 L25.4809 54.6174 L58.8706 54.6174 L50.3788 44.8009 Q49.0541 43.2724 47.6614 43.2724 Q46.065 43.2724 45.9291 45.2764 L43.7552 45.2764 Q43.959 42.3552 43.959 37.4979 Q43.959 34.6447 43.7552 32.6407 L45.9291 32.6407 Q46.1329 37.0224 49.6655 41.4042 Q50.4467 42.3892 52.4847 44.7329 Q54.4888 47.0427 54.6926 47.0427 Q54.7605 47.0427 54.9304 46.9748 Q55.1002 46.8729 55.2361 46.737 Q55.3719 46.6011 55.4399 46.6011 L67.9058 37.7697 Q70.4194 35.9694 71.0308 34.6447 Q71.6082 33.32 71.6082 31.0102 L73.7482 31.0102 Q73.5444 33.9993 73.5444 37.0903 Q73.5444 38.7547 73.7482 44.5971 L71.6082 44.5971 Q71.6082 42.0835 69.9778 42.0835 Q68.8569 42.0835 61.0784 47.7221 Q60.5349 48.1297 59.3461 49.0468 Q58.0893 49.8959 57.4779 50.3715 L61.2822 54.8212 L68.4493 54.8212 Q70.6911 54.8212 71.1667 53.972 Q71.6082 53.0889 71.6082 49.3864 L73.7482 49.3864 Q73.5444 53.5644 73.5444 57.029 Q73.5444 57.7424 73.7482 64.6377 Z" fill="#000000" fill-rule="evenodd" fill-opacity="1" /><path clip-path="url(#clip280)" d="M72.831 27.6135 L63.6599 27.6135 Q62.8787 27.6135 62.6069 27.5796 Q62.3352 27.5456 62.1314 27.3418 Q61.9276 27.138 61.9276 26.7304 Q61.9276 26.2548 62.1314 26.085 Q62.3352 25.8812 63.1164 25.7453 Q67.9058 24.6923 70.4533 22.4505 Q72.9669 20.1747 72.9669 16.0647 Q72.9669 12.1585 71.2346 10.1884 Q69.5023 8.21829 66.649 8.21829 Q61.554 8.21829 60.2632 15.4533 Q59.414 19.6312 58.8706 21.3636 Q58.2931 23.0959 57.0363 24.6244 Q54.5907 27.6135 51.1261 27.6135 Q47.6614 27.6135 45.1139 24.998 Q42.5663 22.3486 42.5663 16.5063 Q42.5663 12.6001 44.5364 9.95062 Q43.925 9.16937 43.4155 8.76177 Q42.5663 7.84465 42.5663 7.36912 Q42.5663 6.82564 42.94 6.72374 Q43.2797 6.62184 44.2647 6.62184 L51.2619 6.62184 Q52.0432 6.62184 52.3149 6.65581 Q52.5866 6.68977 52.7904 6.89358 Q52.9603 7.09738 52.9603 7.53895 Q52.9603 8.32019 52.3149 8.35416 Q43.8911 8.89764 43.8911 16.5063 Q43.8911 20.6163 45.4875 22.4505 Q47.05 24.2847 49.1899 24.2847 Q50.3788 24.2847 51.2959 23.7413 Q52.179 23.1638 52.7225 22.4505 Q53.232 21.7032 53.7415 20.3446 Q54.2171 18.9859 54.3869 18.1707 Q54.5567 17.3215 54.8964 15.725 Q55.9494 10.1544 58.2252 7.81069 Q61.1464 4.88952 64.8488 4.88952 Q68.9588 4.88952 71.7441 7.67482 Q74.5294 10.4601 74.5294 16.0647 Q74.5294 20.5823 71.5063 23.7413 Q71.9139 24.1489 72.2876 24.4546 Q72.6272 24.7603 72.7631 24.8961 Q72.899 24.998 73.0009 25.032 Q73.0688 25.066 73.1367 25.1339 Q74.5294 26.5266 74.5294 26.8662 Q74.5294 27.4097 74.1558 27.5116 Q73.8161 27.6135 72.831 27.6135 Z" fill="#000000" fill-rule="evenodd" fill-opacity="1" /><path clip-path="url(#clip282)" d="
M181.731 57.743 L181.731 407.705 L226.322 407.705 L226.322 57.743 L181.731 57.743 L181.731 57.743  Z
  " fill="#3498db" fill-rule="evenodd" fill-opacity="1"/>
<polyline clip-path="url(#clip282)" style="stroke:#3498db; stroke-linecap:round; stroke-linejoin:round; stroke-width:4; stroke-opacity:1; fill:none" points="
  181.731,57.743 181.731,407.705 226.322,407.705 226.322,57.743 181.731,57.743 
  "/>
<path clip-path="url(#clip282)" d="
M348.947 281.28 L348.947 407.705 L393.538 407.705 L393.538 281.28 L348.947 281.28 L348.947 281.28  Z
  " fill="#3498db" fill-rule="evenodd" fill-opacity="1"/>
<polyline clip-path="url(#clip282)" style="stroke:#3498db; stroke-linecap:round; stroke-linejoin:round; stroke-width:4; stroke-opacity:1; fill:none" points="
  348.947,281.28 348.947,407.705 393.538,407.705 393.538,281.28 348.947,281.28 
  "/>
<path clip-path="url(#clip282)" d="
M516.162 189.415 L516.162 407.705 L560.753 407.705 L560.753 189.415 L516.162 189.415 L516.162 189.415  Z
  " fill="#3498db" fill-rule="evenodd" fill-opacity="1"/>
<polyline clip-path="url(#clip282)" style="stroke:#3498db; stroke-linecap:round; stroke-linejoin:round; stroke-width:4; stroke-opacity:1; fill:none" points="
  516.162,189.415 516.162,407.705 560.753,407.705 560.753,189.415 516.162,189.415 
  "/>
<path clip-path="url(#clip282)" d="
M683.378 346.523 L683.378 407.705 L727.968 407.705 L727.968 346.523 L683.378 346.523 L683.378 346.523  Z
  " fill="#3498db" fill-rule="evenodd" fill-opacity="1"/>
<polyline clip-path="url(#clip282)" style="stroke:#3498db; stroke-linecap:round; stroke-linejoin:round; stroke-width:4; stroke-opacity:1; fill:none" points="
  683.378,346.523 683.378,407.705 727.968,407.705 727.968,346.523 683.378,346.523 
  "/>
<circle clip-path="url(#clip282)" style="fill:#3498db; stroke:none; fill-opacity:0" cx="204.027" cy="57.743" r="2"/>
<circle clip-path="url(#clip282)" style="fill:#3498db; stroke:none; fill-opacity:0" cx="371.242" cy="281.28" r="2"/>
<circle clip-path="url(#clip282)" style="fill:#3498db; stroke:none; fill-opacity:0" cx="538.458" cy="189.415" r="2"/>
<circle clip-path="url(#clip282)" style="fill:#3498db; stroke:none; fill-opacity:0" cx="705.673" cy="346.523" r="2"/>
<path clip-path="url(#clip282)" d="
M226.322 407.319 L226.322 407.705 L270.913 407.705 L270.913 407.319 L226.322 407.319 L226.322 407.319  Z
  " fill="#2ecc71" fill-rule="evenodd" fill-opacity="1"/>
<polyline clip-path="url(#clip282)" style="stroke:#2ecc71; stroke-linecap:round; stroke-linejoin:round; stroke-width:4; stroke-opacity:1; fill:none" points="
  226.322,407.319 226.322,407.705 270.913,407.705 270.913,407.319 226.322,407.319 
  "/>
<path clip-path="url(#clip282)" d="
M393.538 392.86 L393.538 407.705 L438.128 407.705 L438.128 392.86 L393.538 392.86 L393.538 392.86  Z
  " fill="#2ecc71" fill-rule="evenodd" fill-opacity="1"/>
<polyline clip-path="url(#clip282)" style="stroke:#2ecc71; stroke-linecap:round; stroke-linejoin:round; stroke-width:4; stroke-opacity:1; fill:none" points="
  393.538,392.86 393.538,407.705 438.128,407.705 438.128,392.86 393.538,392.86 
  "/>
<path clip-path="url(#clip282)" d="
M560.753 403.934 L560.753 407.705 L605.344 407.705 L605.344 403.934 L560.753 403.934 L560.753 403.934  Z
  " fill="#2ecc71" fill-rule="evenodd" fill-opacity="1"/>
<polyline clip-path="url(#clip282)" style="stroke:#2ecc71; stroke-linecap:round; stroke-linejoin:round; stroke-width:4; stroke-opacity:1; fill:none" points="
  560.753,403.934 560.753,407.705 605.344,407.705 605.344,403.934 560.753,403.934 
  "/>
<path clip-path="url(#clip282)" d="
M727.968 406.113 L727.968 407.705 L772.559 407.705 L772.559 406.113 L727.968 406.113 L727.968 406.113  Z
  " fill="#2ecc71" fill-rule="evenodd" fill-opacity="1"/>
<polyline clip-path="url(#clip282)" style="stroke:#2ecc71; stroke-linecap:round; stroke-linejoin:round; stroke-width:4; stroke-opacity:1; fill:none" points="
  727.968,406.113 727.968,407.705 772.559,407.705 772.559,406.113 727.968,406.113 
  "/>
<circle clip-path="url(#clip282)" style="fill:#2ecc71; stroke:none; fill-opacity:0" cx="248.618" cy="407.319" r="2"/>
<circle clip-path="url(#clip282)" style="fill:#2ecc71; stroke:none; fill-opacity:0" cx="415.833" cy="392.86" r="2"/>
<circle clip-path="url(#clip282)" style="fill:#2ecc71; stroke:none; fill-opacity:0" cx="583.048" cy="403.934" r="2"/>
<circle clip-path="url(#clip282)" style="fill:#2ecc71; stroke:none; fill-opacity:0" cx="750.264" cy="406.113" r="2"/>
<path clip-path="url(#clip282)" d="
M270.913 407.705 L270.913 407.705 L315.504 407.705 L315.504 407.705 L270.913 407.705 L270.913 407.705  Z
  " fill="#9b59b6" fill-rule="evenodd" fill-opacity="1"/>
<polyline clip-path="url(#clip282)" style="stroke:#9b59b6; stroke-linecap:round; stroke-linejoin:round; stroke-width:4; stroke-opacity:1; fill:none" points="
  270.913,407.705 270.913,407.705 315.504,407.705 270.913,407.705 
  "/>
<path clip-path="url(#clip282)" d="
M438.128 407.589 L438.128 407.705 L482.719 407.705 L482.719 407.589 L438.128 407.589 L438.128 407.589  Z
  " fill="#9b59b6" fill-rule="evenodd" fill-opacity="1"/>
<polyline clip-path="url(#clip282)" style="stroke:#9b59b6; stroke-linecap:round; stroke-linejoin:round; stroke-width:4; stroke-opacity:1; fill:none" points="
  438.128,407.589 438.128,407.705 482.719,407.705 482.719,407.589 438.128,407.589 
  "/>
<path clip-path="url(#clip282)" d="
M605.344 407.039 L605.344 407.705 L649.934 407.705 L649.934 407.039 L605.344 407.039 L605.344 407.039  Z
  " fill="#9b59b6" fill-rule="evenodd" fill-opacity="1"/>
<polyline clip-path="url(#clip282)" style="stroke:#9b59b6; stroke-linecap:round; stroke-linejoin:round; stroke-width:4; stroke-opacity:1; fill:none" points="
  605.344,407.039 605.344,407.705 649.934,407.705 649.934,407.039 605.344,407.039 
  "/>
<path clip-path="url(#clip282)" d="
M772.559 407.493 L772.559 407.705 L817.15 407.705 L817.15 407.493 L772.559 407.493 L772.559 407.493  Z
  " fill="#9b59b6" fill-rule="evenodd" fill-opacity="1"/>
<polyline clip-path="url(#clip282)" style="stroke:#9b59b6; stroke-linecap:round; stroke-linejoin:round; stroke-width:4; stroke-opacity:1; fill:none" points="
  772.559,407.493 772.559,407.705 817.15,407.705 817.15,407.493 772.559,407.493 
  "/>
<circle clip-path="url(#clip282)" style="fill:#9b59b6; stroke:none; fill-opacity:0" cx="293.208" cy="407.705" r="2"/>
<circle clip-path="url(#clip282)" style="fill:#9b59b6; stroke:none; fill-opacity:0" cx="460.424" cy="407.589" r="2"/>
<circle clip-path="url(#clip282)" style="fill:#9b59b6; stroke:none; fill-opacity:0" cx="627.639" cy="407.039" r="2"/>
<circle clip-path="url(#clip282)" style="fill:#9b59b6; stroke:none; fill-opacity:0" cx="794.854" cy="407.493" r="2"/>
<path clip-path="url(#clip280)" d="
M887.165 322.849 L1152.76 322.849 L1152.76 115.489 L887.165 115.489  Z
  " fill="#ffffff" fill-rule="evenodd" fill-opacity="1"/>
<polyline clip-path="url(#clip280)" style="stroke:#000000; stroke-linecap:round; stroke-linejoin:round; stroke-width:4; stroke-opacity:1; fill:none" points="
  887.165,322.849 1152.76,322.849 1152.76,115.489 887.165,115.489 887.165,322.849 
  "/>
<path clip-path="url(#clip280)" d="
M898.359 188.065 L965.522 188.065 L965.522 146.593 L898.359 146.593 L898.359 188.065  Z
  " fill="#3498db" fill-rule="evenodd" fill-opacity="1"/>
<polyline clip-path="url(#clip280)" style="stroke:#3498db; stroke-linecap:round; stroke-linejoin:round; stroke-width:4; stroke-opacity:1; fill:none" points="
  898.359,188.065 965.522,188.065 965.522,146.593 898.359,146.593 898.359,188.065 
  "/>
<path clip-path="url(#clip280)" d="M976.716 173.74 Q976.716 168.923 980.076 165.588 Q983.436 162.253 987.981 162.253 Q991.835 162.253 994.355 165.39 L994.355 154.446 Q994.355 152.569 993.688 152.1 Q993.045 151.63 990.427 151.63 L990.427 150.049 L997.714 149.506 L997.714 180.212 Q997.714 182.09 998.357 182.584 Q999.024 183.053 1001.64 183.053 L1001.64 184.609 L994.206 185.177 L994.206 181.818 Q991.588 185.153 987.438 185.177 Q983.09 185.177 979.903 181.843 Q976.716 178.508 976.716 173.74 M980.916 173.789 Q980.916 178.483 982.373 180.805 Q984.399 184.041 987.685 184.041 Q991.44 184.041 993.663 180.509 Q994.231 179.644 994.206 178.631 L994.206 168.256 Q994.206 167.243 993.663 166.403 Q991.588 163.364 988.203 163.364 Q984.671 163.364 982.472 166.601 Q980.916 169.021 980.916 173.789 Z" fill="#000000" fill-rule="evenodd" fill-opacity="1" /><path clip-path="url(#clip280)" d="M1005.94 176.927 Q1005.99 176.309 1006.95 176.309 L1037.96 176.309 Q1039.41 176.309 1039.44 176.877 Q1039.44 177.495 1038.05 177.47 L1007.3 177.47 Q1005.94 177.495 1005.94 176.927 M1005.94 167.045 Q1005.94 166.428 1007 166.452 L1037.91 166.452 Q1039.41 166.452 1039.44 167.045 Q1039.44 167.613 1038.15 167.613 L1006.95 167.613 Q1005.94 167.613 1005.94 167.045 Z" fill="#000000" fill-rule="evenodd" fill-opacity="1" /><path clip-path="url(#clip280)" d="M1046.9 155.731 L1046.9 154.15 Q1052.98 154.15 1056.11 150.914 Q1056.98 150.914 1057.13 151.112 Q1057.27 151.309 1057.27 152.223 L1057.27 180.607 Q1057.27 182.114 1058.02 182.584 Q1058.76 183.053 1061.99 183.053 L1063.6 183.053 L1063.6 184.609 Q1061.82 184.461 1055.4 184.461 Q1048.97 184.461 1047.22 184.609 L1047.22 183.053 L1048.83 183.053 Q1052.01 183.053 1052.78 182.608 Q1053.54 182.139 1053.54 180.607 L1053.54 154.397 Q1050.9 155.731 1046.9 155.731 Z" fill="#000000" fill-rule="evenodd" fill-opacity="1" /><path clip-path="url(#clip280)" d="M1069.68 168.429 Q1069.68 160.993 1071.55 156.942 Q1074.17 150.914 1080.35 150.914 Q1081.66 150.914 1083.01 151.284 Q1084.4 151.63 1086.13 152.989 Q1087.88 154.348 1088.94 156.571 Q1090.97 160.869 1090.97 168.429 Q1090.97 175.815 1089.09 179.842 Q1086.35 185.721 1080.3 185.721 Q1078.02 185.721 1075.7 184.56 Q1073.41 183.399 1071.95 180.607 Q1069.68 176.432 1069.68 168.429 M1073.87 167.811 Q1073.87 175.444 1074.42 178.483 Q1075.04 181.768 1076.72 183.201 Q1078.42 184.609 1080.3 184.609 Q1082.32 184.609 1084 183.102 Q1085.71 181.571 1086.23 178.285 Q1086.79 175.049 1086.77 167.811 Q1086.77 160.771 1086.28 157.954 Q1085.61 154.669 1083.83 153.36 Q1082.08 152.026 1080.3 152.026 Q1079.63 152.026 1078.91 152.223 Q1078.22 152.421 1077.21 152.989 Q1076.2 153.557 1075.41 154.965 Q1074.64 156.373 1074.27 158.498 Q1073.87 161.24 1073.87 167.811 Z" fill="#000000" fill-rule="evenodd" fill-opacity="1" /><path clip-path="url(#clip280)" d="
M898.359 239.905 L965.522 239.905 L965.522 198.433 L898.359 198.433 L898.359 239.905  Z
  " fill="#2ecc71" fill-rule="evenodd" fill-opacity="1"/>
<polyline clip-path="url(#clip280)" style="stroke:#2ecc71; stroke-linecap:round; stroke-linejoin:round; stroke-width:4; stroke-opacity:1; fill:none" points="
  898.359,239.905 965.522,239.905 965.522,198.433 898.359,198.433 898.359,239.905 
  "/>
<path clip-path="url(#clip280)" d="M976.716 225.58 Q976.716 220.763 980.076 217.428 Q983.436 214.093 987.981 214.093 Q991.835 214.093 994.355 217.23 L994.355 206.286 Q994.355 204.409 993.688 203.94 Q993.045 203.47 990.427 203.47 L990.427 201.889 L997.714 201.346 L997.714 232.052 Q997.714 233.93 998.357 234.424 Q999.024 234.893 1001.64 234.893 L1001.64 236.449 L994.206 237.017 L994.206 233.658 Q991.588 236.993 987.438 237.017 Q983.09 237.017 979.903 233.683 Q976.716 230.348 976.716 225.58 M980.916 225.629 Q980.916 230.323 982.373 232.645 Q984.399 235.881 987.685 235.881 Q991.44 235.881 993.663 232.349 Q994.231 231.484 994.206 230.471 L994.206 220.096 Q994.206 219.083 993.663 218.243 Q991.588 215.204 988.203 215.204 Q984.671 215.204 982.472 218.441 Q980.916 220.861 980.916 225.629 Z" fill="#000000" fill-rule="evenodd" fill-opacity="1" /><path clip-path="url(#clip280)" d="M1005.94 228.767 Q1005.99 228.149 1006.95 228.149 L1037.96 228.149 Q1039.41 228.149 1039.44 228.717 Q1039.44 229.335 1038.05 229.31 L1007.3 229.31 Q1005.94 229.335 1005.94 228.767 M1005.94 218.885 Q1005.94 218.268 1007 218.292 L1037.91 218.292 Q1039.41 218.292 1039.44 218.885 Q1039.44 219.453 1038.15 219.453 L1006.95 219.453 Q1005.94 219.453 1005.94 218.885 Z" fill="#000000" fill-rule="evenodd" fill-opacity="1" /><path clip-path="url(#clip280)" d="M1046.9 207.571 L1046.9 205.99 Q1052.98 205.99 1056.11 202.754 Q1056.98 202.754 1057.13 202.952 Q1057.27 203.149 1057.27 204.063 L1057.27 232.447 Q1057.27 233.954 1058.02 234.424 Q1058.76 234.893 1061.99 234.893 L1063.6 234.893 L1063.6 236.449 Q1061.82 236.301 1055.4 236.301 Q1048.97 236.301 1047.22 236.449 L1047.22 234.893 L1048.83 234.893 Q1052.01 234.893 1052.78 234.448 Q1053.54 233.979 1053.54 232.447 L1053.54 206.237 Q1050.9 207.571 1046.9 207.571 Z" fill="#000000" fill-rule="evenodd" fill-opacity="1" /><path clip-path="url(#clip280)" d="M1069.68 220.269 Q1069.68 212.833 1071.55 208.782 Q1074.17 202.754 1080.35 202.754 Q1081.66 202.754 1083.01 203.124 Q1084.4 203.47 1086.13 204.829 Q1087.88 206.188 1088.94 208.411 Q1090.97 212.709 1090.97 220.269 Q1090.97 227.655 1089.09 231.682 Q1086.35 237.561 1080.3 237.561 Q1078.02 237.561 1075.7 236.4 Q1073.41 235.239 1071.95 232.447 Q1069.68 228.272 1069.68 220.269 M1073.87 219.651 Q1073.87 227.284 1074.42 230.323 Q1075.04 233.608 1076.72 235.041 Q1078.42 236.449 1080.3 236.449 Q1082.32 236.449 1084 234.942 Q1085.71 233.411 1086.23 230.125 Q1086.79 226.889 1086.77 219.651 Q1086.77 212.611 1086.28 209.794 Q1085.61 206.509 1083.83 205.2 Q1082.08 203.866 1080.3 203.866 Q1079.63 203.866 1078.91 204.063 Q1078.22 204.261 1077.21 204.829 Q1076.2 205.397 1075.41 206.805 Q1074.64 208.213 1074.27 210.338 Q1073.87 213.08 1073.87 219.651 Z" fill="#000000" fill-rule="evenodd" fill-opacity="1" /><path clip-path="url(#clip280)" d="M1094.97 220.269 Q1094.97 212.833 1096.85 208.782 Q1099.47 202.754 1105.64 202.754 Q1106.95 202.754 1108.31 203.124 Q1109.69 203.47 1111.42 204.829 Q1113.18 206.188 1114.24 208.411 Q1116.27 212.709 1116.27 220.269 Q1116.27 227.655 1114.39 231.682 Q1111.65 237.561 1105.59 237.561 Q1103.32 237.561 1101 236.4 Q1098.7 235.239 1097.24 232.447 Q1094.97 228.272 1094.97 220.269 M1099.17 219.651 Q1099.17 227.284 1099.71 230.323 Q1100.33 233.608 1102.01 235.041 Q1103.72 236.449 1105.59 236.449 Q1107.62 236.449 1109.3 234.942 Q1111 233.411 1111.52 230.125 Q1112.09 226.889 1112.07 219.651 Q1112.07 212.611 1111.57 209.794 Q1110.91 206.509 1109.13 205.2 Q1107.37 203.866 1105.59 203.866 Q1104.93 203.866 1104.21 204.063 Q1103.52 204.261 1102.51 204.829 Q1101.49 205.397 1100.7 206.805 Q1099.94 208.213 1099.57 210.338 Q1099.17 213.08 1099.17 219.651 Z" fill="#000000" fill-rule="evenodd" fill-opacity="1" /><path clip-path="url(#clip280)" d="
M898.359 291.745 L965.522 291.745 L965.522 250.273 L898.359 250.273 L898.359 291.745  Z
  " fill="#9b59b6" fill-rule="evenodd" fill-opacity="1"/>
<polyline clip-path="url(#clip280)" style="stroke:#9b59b6; stroke-linecap:round; stroke-linejoin:round; stroke-width:4; stroke-opacity:1; fill:none" points="
  898.359,291.745 965.522,291.745 965.522,250.273 898.359,250.273 898.359,291.745 
  "/>
<path clip-path="url(#clip280)" d="M976.716 277.42 Q976.716 272.603 980.076 269.268 Q983.436 265.933 987.981 265.933 Q991.835 265.933 994.355 269.07 L994.355 258.126 Q994.355 256.249 993.688 255.78 Q993.045 255.31 990.427 255.31 L990.427 253.729 L997.714 253.186 L997.714 283.892 Q997.714 285.77 998.357 286.264 Q999.024 286.733 1001.64 286.733 L1001.64 288.289 L994.206 288.857 L994.206 285.498 Q991.588 288.833 987.438 288.857 Q983.09 288.857 979.903 285.523 Q976.716 282.188 976.716 277.42 M980.916 277.469 Q980.916 282.163 982.373 284.485 Q984.399 287.721 987.685 287.721 Q991.44 287.721 993.663 284.189 Q994.231 283.324 994.206 282.311 L994.206 271.936 Q994.206 270.923 993.663 270.083 Q991.588 267.044 988.203 267.044 Q984.671 267.044 982.472 270.281 Q980.916 272.701 980.916 277.469 Z" fill="#000000" fill-rule="evenodd" fill-opacity="1" /><path clip-path="url(#clip280)" d="M1005.94 280.607 Q1005.99 279.989 1006.95 279.989 L1037.96 279.989 Q1039.41 279.989 1039.44 280.557 Q1039.44 281.175 1038.05 281.15 L1007.3 281.15 Q1005.94 281.175 1005.94 280.607 M1005.94 270.725 Q1005.94 270.108 1007 270.132 L1037.91 270.132 Q1039.41 270.132 1039.44 270.725 Q1039.44 271.293 1038.15 271.293 L1006.95 271.293 Q1005.94 271.293 1005.94 270.725 Z" fill="#000000" fill-rule="evenodd" fill-opacity="1" /><path clip-path="url(#clip280)" d="M1046.9 259.411 L1046.9 257.83 Q1052.98 257.83 1056.11 254.594 Q1056.98 254.594 1057.13 254.792 Q1057.27 254.989 1057.27 255.903 L1057.27 284.287 Q1057.27 285.794 1058.02 286.264 Q1058.76 286.733 1061.99 286.733 L1063.6 286.733 L1063.6 288.289 Q1061.82 288.141 1055.4 288.141 Q1048.97 288.141 1047.22 288.289 L1047.22 286.733 L1048.83 286.733 Q1052.01 286.733 1052.78 286.288 Q1053.54 285.819 1053.54 284.287 L1053.54 258.077 Q1050.9 259.411 1046.9 259.411 Z" fill="#000000" fill-rule="evenodd" fill-opacity="1" /><path clip-path="url(#clip280)" d="M1069.68 272.109 Q1069.68 264.673 1071.55 260.622 Q1074.17 254.594 1080.35 254.594 Q1081.66 254.594 1083.01 254.964 Q1084.4 255.31 1086.13 256.669 Q1087.88 258.028 1088.94 260.251 Q1090.97 264.549 1090.97 272.109 Q1090.97 279.495 1089.09 283.522 Q1086.35 289.401 1080.3 289.401 Q1078.02 289.401 1075.7 288.24 Q1073.41 287.079 1071.95 284.287 Q1069.68 280.112 1069.68 272.109 M1073.87 271.491 Q1073.87 279.124 1074.42 282.163 Q1075.04 285.448 1076.72 286.881 Q1078.42 288.289 1080.3 288.289 Q1082.32 288.289 1084 286.782 Q1085.71 285.251 1086.23 281.965 Q1086.79 278.729 1086.77 271.491 Q1086.77 264.451 1086.28 261.634 Q1085.61 258.349 1083.83 257.04 Q1082.08 255.706 1080.3 255.706 Q1079.63 255.706 1078.91 255.903 Q1078.22 256.101 1077.21 256.669 Q1076.2 257.237 1075.41 258.645 Q1074.64 260.053 1074.27 262.178 Q1073.87 264.92 1073.87 271.491 Z" fill="#000000" fill-rule="evenodd" fill-opacity="1" /><path clip-path="url(#clip280)" d="M1094.97 272.109 Q1094.97 264.673 1096.85 260.622 Q1099.47 254.594 1105.64 254.594 Q1106.95 254.594 1108.31 254.964 Q1109.69 255.31 1111.42 256.669 Q1113.18 258.028 1114.24 260.251 Q1116.27 264.549 1116.27 272.109 Q1116.27 279.495 1114.39 283.522 Q1111.65 289.401 1105.59 289.401 Q1103.32 289.401 1101 288.24 Q1098.7 287.079 1097.24 284.287 Q1094.97 280.112 1094.97 272.109 M1099.17 271.491 Q1099.17 279.124 1099.71 282.163 Q1100.33 285.448 1102.01 286.881 Q1103.72 288.289 1105.59 288.289 Q1107.62 288.289 1109.3 286.782 Q1111 285.251 1111.52 281.965 Q1112.09 278.729 1112.07 271.491 Q1112.07 264.451 1111.57 261.634 Q1110.91 258.349 1109.13 257.04 Q1107.37 255.706 1105.59 255.706 Q1104.93 255.706 1104.21 255.903 Q1103.52 256.101 1102.51 256.669 Q1101.49 257.237 1100.7 258.645 Q1099.94 260.053 1099.57 262.178 Q1099.17 264.92 1099.17 271.491 Z" fill="#000000" fill-rule="evenodd" fill-opacity="1" /><path clip-path="url(#clip280)" d="M1120.27 272.109 Q1120.27 264.673 1122.15 260.622 Q1124.76 254.594 1130.94 254.594 Q1132.25 254.594 1133.61 254.964 Q1134.99 255.31 1136.72 256.669 Q1138.47 258.028 1139.54 260.251 Q1141.56 264.549 1141.56 272.109 Q1141.56 279.495 1139.68 283.522 Q1136.94 289.401 1130.89 289.401 Q1128.62 289.401 1126.3 288.24 Q1124 287.079 1122.54 284.287 Q1120.27 280.112 1120.27 272.109 M1124.47 271.491 Q1124.47 279.124 1125.01 282.163 Q1125.63 285.448 1127.31 286.881 Q1129.01 288.289 1130.89 288.289 Q1132.92 288.289 1134.6 286.782 Q1136.3 285.251 1136.82 281.965 Q1137.39 278.729 1137.36 271.491 Q1137.36 264.451 1136.87 261.634 Q1136.2 258.349 1134.42 257.04 Q1132.67 255.706 1130.89 255.706 Q1130.22 255.706 1129.51 255.903 Q1128.82 256.101 1127.8 256.669 Q1126.79 257.237 1126 258.645 Q1125.23 260.053 1124.86 262.178 Q1124.47 264.92 1124.47 271.491 Z" fill="#000000" fill-rule="evenodd" fill-opacity="1" /></svg>
