<?xml version="1.0" encoding="utf-8"?>
<svg xmlns="http://www.w3.org/2000/svg" xmlns:xlink="http://www.w3.org/1999/xlink" width="300" height="220" viewBox="0 0 1200 880">
<defs>
  <clipPath id="clip650">
    <rect x="0" y="0" width="1200" height="880"/>
  </clipPath>
</defs>
<path clip-path="url(#clip650)" d="
M0 880 L1200 880 L1200 1.13687e-13 L0 1.13687e-13  Z
  " fill="#ffffff" fill-rule="evenodd" fill-opacity="1"/>
<defs>
  <clipPath id="clip651">
    <rect x="240" y="0" width="841" height="841"/>
  </clipPath>
</defs>
<path clip-path="url(#clip650)" d="
M165.443 702.172 L1152.76 702.172 L1152.76 47.2441 L165.443 47.2441  Z
  " fill="#ffffff" fill-rule="evenodd" fill-opacity="1"/>
<defs>
  <clipPath id="clip652">
    <rect x="165" y="47" width="988" height="656"/>
  </clipPath>
</defs>
<polyline clip-path="url(#clip652)" style="stroke:#000000; stroke-linecap:butt; stroke-linejoin:round; stroke-width:2; stroke-opacity:0.1; fill:none" points="
  193.386,702.172 193.386,47.2441 
  "/>
<polyline clip-path="url(#clip652)" style="stroke:#000000; stroke-linecap:butt; stroke-linejoin:round; stroke-width:2; stroke-opacity:0.1; fill:none" points="
  426.242,702.172 426.242,47.2441 
  "/>
<polyline clip-path="url(#clip652)" style="stroke:#000000; stroke-linecap:butt; stroke-linejoin:round; stroke-width:2; stroke-opacity:0.1; fill:none" points="
  659.099,702.172 659.099,47.2441 
  "/>
<polyline clip-path="url(#clip652)" style="stroke:#000000; stroke-linecap:butt; stroke-linejoin:round; stroke-width:2; stroke-opacity:0.1; fill:none" points="
  891.956,702.172 891.956,47.2441 
  "/>
<polyline clip-path="url(#clip652)" style="stroke:#000000; stroke-linecap:butt; stroke-linejoin:round; stroke-width:2; stroke-opacity:0.1; fill:none" points="
  1124.81,702.172 1124.81,47.2441 
  "/>
<polyline clip-path="url(#clip650)" style="stroke:#000000; stroke-linecap:butt; stroke-linejoin:round; stroke-width:4; stroke-opacity:1; fill:none" points="
  165.443,702.172 1152.76,702.172 
  "/>
<polyline clip-path="url(#clip650)" style="stroke:#000000; stroke-linecap:butt; stroke-linejoin:round; stroke-width:4; stroke-opacity:1; fill:none" points="
  193.386,702.172 193.386,683.274 
  "/>
<polyline clip-path="url(#clip650)" style="stroke:#000000; stroke-linecap:butt; stroke-linejoin:round; stroke-width:4; stroke-opacity:1; fill:none" points="
  426.242,702.172 426.242,683.274 
  "/>
<polyline clip-path="url(#clip650)" style="stroke:#000000; stroke-linecap:butt; stroke-linejoin:round; stroke-width:4; stroke-opacity:1; fill:none" points="
  659.099,702.172 659.099,683.274 
  "/>
<polyline clip-path="url(#clip650)" style="stroke:#000000; stroke-linecap:butt; stroke-linejoin:round; stroke-width:4; stroke-opacity:1; fill:none" points="
  891.956,702.172 891.956,683.274 
  "/>
<polyline clip-path="url(#clip650)" style="stroke:#000000; stroke-linecap:butt; stroke-linejoin:round; stroke-width:4; stroke-opacity:1; fill:none" points="
  1124.81,702.172 1124.81,683.274 
  "/>
<path clip-path="url(#clip650)" d="M163.062 738.791 Q163.062 731.355 164.94 727.304 Q167.558 721.276 173.734 721.276 Q175.043 721.276 176.402 721.647 Q177.785 721.993 179.515 723.352 Q181.269 724.71 182.331 726.934 Q184.357 731.232 184.357 738.791 Q184.357 746.177 182.479 750.204 Q179.737 756.083 173.685 756.083 Q171.412 756.083 169.09 754.922 Q166.792 753.761 165.335 750.97 Q163.062 746.795 163.062 738.791 M167.262 738.174 Q167.262 745.807 167.805 748.845 Q168.423 752.131 170.103 753.564 Q171.807 754.972 173.685 754.972 Q175.71 754.972 177.39 753.465 Q179.095 751.933 179.614 748.648 Q180.182 745.412 180.157 738.174 Q180.157 731.133 179.663 728.317 Q178.996 725.031 177.217 723.722 Q175.463 722.388 173.685 722.388 Q173.018 722.388 172.301 722.586 Q171.61 722.783 170.597 723.352 Q169.584 723.92 168.793 725.328 Q168.028 726.736 167.657 728.86 Q167.262 731.602 167.262 738.174 Z" fill="#000000" fill-rule="evenodd" fill-opacity="1" /><path clip-path="url(#clip650)" d="M191.446 754.157 Q190.681 753.341 190.681 752.279 Q190.681 751.217 191.446 750.451 Q192.212 749.661 193.373 749.661 Q194.485 749.661 195.226 750.402 Q195.992 751.118 195.992 752.304 Q195.992 753.465 195.177 754.231 Q194.386 754.972 193.373 754.972 Q192.212 754.972 191.446 754.157 Z" fill="#000000" fill-rule="evenodd" fill-opacity="1" /><path clip-path="url(#clip650)" d="M202.415 738.791 Q202.415 731.355 204.292 727.304 Q206.911 721.276 213.087 721.276 Q214.396 721.276 215.755 721.647 Q217.138 721.993 218.867 723.352 Q220.621 724.71 221.683 726.934 Q223.709 731.232 223.709 738.791 Q223.709 746.177 221.832 750.204 Q219.089 756.083 213.037 756.083 Q210.764 756.083 208.442 754.922 Q206.145 753.761 204.687 750.97 Q202.415 746.795 202.415 738.791 M206.614 738.174 Q206.614 745.807 207.158 748.845 Q207.775 752.131 209.455 753.564 Q211.16 754.972 213.037 754.972 Q215.063 754.972 216.743 753.465 Q218.447 751.933 218.966 748.648 Q219.534 745.412 219.509 738.174 Q219.509 731.133 219.015 728.317 Q218.348 725.031 216.57 723.722 Q214.816 722.388 213.037 722.388 Q212.37 722.388 211.654 722.586 Q210.962 722.783 209.949 723.352 Q208.936 723.92 208.146 725.328 Q207.38 726.736 207.01 728.86 Q206.614 731.602 206.614 738.174 Z" fill="#000000" fill-rule="evenodd" fill-opacity="1" /><path clip-path="url(#clip650)" d="M396.463 754.972 Q396.463 754.058 396.537 753.786 Q396.636 753.514 397.031 753.094 L406.739 742.274 Q412.05 736.296 412.05 731.084 Q412.05 727.699 410.272 725.278 Q408.518 722.857 405.282 722.857 Q403.058 722.857 401.181 724.216 Q399.303 725.575 398.439 727.996 Q398.587 727.946 399.106 727.946 Q400.366 727.946 401.057 728.737 Q401.774 729.527 401.774 730.59 Q401.774 731.948 400.884 732.615 Q400.02 733.258 399.155 733.258 Q398.809 733.258 398.34 733.183 Q397.895 733.109 397.179 732.418 Q396.463 731.701 396.463 730.441 Q396.463 726.909 399.131 724.093 Q401.823 721.276 405.924 721.276 Q410.568 721.276 413.607 724.043 Q416.67 726.785 416.67 731.084 Q416.67 732.591 416.201 733.974 Q415.756 735.333 415.138 736.395 Q414.545 737.457 412.915 739.162 Q411.285 740.866 409.975 742.077 Q408.666 743.287 405.726 745.856 L400.366 751.069 L409.481 751.069 Q413.928 751.069 414.274 750.673 Q414.768 749.957 415.385 746.177 L416.67 746.177 L415.237 754.972 L396.463 754.972 Z" fill="#000000" fill-rule="evenodd" fill-opacity="1" /><path clip-path="url(#clip650)" d="M424.303 754.157 Q423.537 753.341 423.537 752.279 Q423.537 751.217 424.303 750.451 Q425.069 749.661 426.23 749.661 Q427.342 749.661 428.083 750.402 Q428.849 751.118 428.849 752.304 Q428.849 753.465 428.033 754.231 Q427.243 754.972 426.23 754.972 Q425.069 754.972 424.303 754.157 Z" fill="#000000" fill-rule="evenodd" fill-opacity="1" /><path clip-path="url(#clip650)" d="M435.815 746.82 Q435.815 745.313 436.63 744.745 Q437.445 744.152 438.31 744.152 Q439.471 744.152 440.138 744.893 Q440.83 745.609 440.83 746.622 Q440.83 747.635 440.138 748.376 Q439.471 749.092 438.31 749.092 Q437.742 749.092 437.445 748.994 Q438.112 751.316 440.138 752.996 Q442.189 754.675 444.881 754.675 Q448.266 754.675 450.291 751.39 Q451.502 749.265 451.502 744.448 Q451.502 740.199 450.588 738.075 Q449.18 734.839 446.289 734.839 Q442.189 734.839 439.768 738.371 Q439.471 738.816 439.125 738.841 Q438.631 738.841 438.508 738.569 Q438.409 738.272 438.409 737.507 L438.409 722.536 Q438.409 721.326 438.903 721.326 Q439.101 721.326 439.521 721.474 Q442.707 722.882 446.24 722.907 Q449.871 722.907 453.132 721.425 Q453.379 721.276 453.527 721.276 Q454.021 721.276 454.046 721.845 Q454.046 722.042 453.626 722.635 Q453.231 723.203 452.366 723.969 Q451.502 724.71 450.39 725.427 Q449.278 726.143 447.648 726.637 Q446.042 727.106 444.264 727.106 Q442.139 727.106 439.965 726.439 L439.965 736.296 Q442.584 733.727 446.388 733.727 Q450.439 733.727 453.231 736.988 Q456.022 740.249 456.022 744.794 Q456.022 749.562 452.712 752.823 Q449.427 756.083 444.98 756.083 Q440.929 756.083 438.359 753.193 Q435.815 750.303 435.815 746.82 Z" fill="#000000" fill-rule="evenodd" fill-opacity="1" /><path clip-path="url(#clip650)" d="M629.048 746.82 Q629.048 745.313 629.863 744.745 Q630.678 744.152 631.543 744.152 Q632.704 744.152 633.371 744.893 Q634.063 745.609 634.063 746.622 Q634.063 747.635 633.371 748.376 Q632.704 749.092 631.543 749.092 Q630.975 749.092 630.678 748.994 Q631.345 751.316 633.371 752.996 Q635.421 754.675 638.114 754.675 Q641.498 754.675 643.524 751.39 Q644.734 749.265 644.734 744.448 Q644.734 740.199 643.82 738.075 Q642.412 734.839 639.522 734.839 Q635.421 734.839 633 738.371 Q632.704 738.816 632.358 738.841 Q631.864 738.841 631.74 738.569 Q631.642 738.272 631.642 737.507 L631.642 722.536 Q631.642 721.326 632.136 721.326 Q632.333 721.326 632.753 721.474 Q635.94 722.882 639.473 722.907 Q643.104 722.907 646.365 721.425 Q646.612 721.276 646.76 721.276 Q647.254 721.276 647.279 721.845 Q647.279 722.042 646.859 722.635 Q646.464 723.203 645.599 723.969 Q644.734 724.71 643.623 725.427 Q642.511 726.143 640.881 726.637 Q639.275 727.106 637.496 727.106 Q635.372 727.106 633.198 726.439 L633.198 736.296 Q635.816 733.727 639.621 733.727 Q643.672 733.727 646.464 736.988 Q649.255 740.249 649.255 744.794 Q649.255 749.562 645.945 752.823 Q642.659 756.083 638.213 756.083 Q634.161 756.083 631.592 753.193 Q629.048 750.303 629.048 746.82 Z" fill="#000000" fill-rule="evenodd" fill-opacity="1" /><path clip-path="url(#clip650)" d="M656.888 754.157 Q656.123 753.341 656.123 752.279 Q656.123 751.217 656.888 750.451 Q657.654 749.661 658.815 749.661 Q659.927 749.661 660.668 750.402 Q661.434 751.118 661.434 752.304 Q661.434 753.465 660.619 754.231 Q659.828 754.972 658.815 754.972 Q657.654 754.972 656.888 754.157 Z" fill="#000000" fill-rule="evenodd" fill-opacity="1" /><path clip-path="url(#clip650)" d="M667.857 738.791 Q667.857 731.355 669.734 727.304 Q672.353 721.276 678.529 721.276 Q679.838 721.276 681.197 721.647 Q682.58 721.993 684.309 723.352 Q686.063 724.71 687.125 726.934 Q689.151 731.232 689.151 738.791 Q689.151 746.177 687.274 750.204 Q684.531 756.083 678.479 756.083 Q676.206 756.083 673.884 754.922 Q671.587 753.761 670.129 750.97 Q667.857 746.795 667.857 738.791 M672.056 738.174 Q672.056 745.807 672.6 748.845 Q673.217 752.131 674.897 753.564 Q676.602 754.972 678.479 754.972 Q680.505 754.972 682.185 753.465 Q683.889 751.933 684.408 748.648 Q684.976 745.412 684.951 738.174 Q684.951 731.133 684.457 728.317 Q683.79 725.031 682.012 723.722 Q680.258 722.388 678.479 722.388 Q677.812 722.388 677.096 722.586 Q676.404 722.783 675.391 723.352 Q674.378 723.92 673.588 725.328 Q672.822 726.736 672.452 728.86 Q672.056 731.602 672.056 738.174 Z" fill="#000000" fill-rule="evenodd" fill-opacity="1" /><path clip-path="url(#clip650)" d="M862.337 731.183 L863.992 720.782 L865.252 720.782 Q865.4 721.4 865.647 721.672 Q865.919 721.943 867.352 722.166 Q868.809 722.388 871.749 722.388 L884.026 722.388 Q884.026 723.549 883.582 724.167 L876.739 733.776 Q874.565 736.815 873.602 742.423 Q873.033 746.177 873.058 750.723 L873.058 753.292 Q873.058 756.083 870.711 756.083 Q868.389 756.083 868.389 753.292 Q868.389 743.633 874.614 734.27 Q875.281 733.307 877.727 729.873 Q880.197 726.439 880.296 726.291 L869.822 726.291 Q865.227 726.291 864.857 726.588 Q864.363 727.032 863.597 731.183 L862.337 731.183 Z" fill="#000000" fill-rule="evenodd" fill-opacity="1" /><path clip-path="url(#clip650)" d="M889.856 754.157 Q889.091 753.341 889.091 752.279 Q889.091 751.217 889.856 750.451 Q890.622 749.661 891.783 749.661 Q892.895 749.661 893.636 750.402 Q894.402 751.118 894.402 752.304 Q894.402 753.465 893.587 754.231 Q892.796 754.972 891.783 754.972 Q890.622 754.972 889.856 754.157 Z" fill="#000000" fill-rule="evenodd" fill-opacity="1" /><path clip-path="url(#clip650)" d="M901.368 746.82 Q901.368 745.313 902.183 744.745 Q902.999 744.152 903.863 744.152 Q905.024 744.152 905.691 744.893 Q906.383 745.609 906.383 746.622 Q906.383 747.635 905.691 748.376 Q905.024 749.092 903.863 749.092 Q903.295 749.092 902.999 748.994 Q903.666 751.316 905.691 752.996 Q907.742 754.675 910.434 754.675 Q913.819 754.675 915.844 751.39 Q917.055 749.265 917.055 744.448 Q917.055 740.199 916.141 738.075 Q914.733 734.839 911.842 734.839 Q907.742 734.839 905.321 738.371 Q905.024 738.816 904.678 738.841 Q904.184 738.841 904.061 738.569 Q903.962 738.272 903.962 737.507 L903.962 722.536 Q903.962 721.326 904.456 721.326 Q904.654 721.326 905.074 721.474 Q908.26 722.882 911.793 722.907 Q915.424 722.907 918.685 721.425 Q918.932 721.276 919.081 721.276 Q919.575 721.276 919.599 721.845 Q919.599 722.042 919.179 722.635 Q918.784 723.203 917.919 723.969 Q917.055 724.71 915.943 725.427 Q914.832 726.143 913.201 726.637 Q911.595 727.106 909.817 727.106 Q907.692 727.106 905.518 726.439 L905.518 736.296 Q908.137 733.727 911.941 733.727 Q915.993 733.727 918.784 736.988 Q921.576 740.249 921.576 744.794 Q921.576 749.562 918.265 752.823 Q914.98 756.083 910.533 756.083 Q906.482 756.083 903.913 753.193 Q901.368 750.303 901.368 746.82 Z" fill="#000000" fill-rule="evenodd" fill-opacity="1" /><path clip-path="url(#clip650)" d="M1083.1 726.094 L1083.1 724.513 Q1089.18 724.513 1092.32 721.276 Q1093.18 721.276 1093.33 721.474 Q1093.48 721.672 1093.48 722.586 L1093.48 750.97 Q1093.48 752.477 1094.22 752.946 Q1094.96 753.416 1098.2 753.416 L1099.8 753.416 L1099.8 754.972 Q1098.02 754.824 1091.6 754.824 Q1085.18 754.824 1083.42 754.972 L1083.42 753.416 L1085.03 753.416 Q1088.22 753.416 1088.98 752.971 Q1089.75 752.502 1089.75 750.97 L1089.75 724.76 Q1087.1 726.094 1083.1 726.094 Z" fill="#000000" fill-rule="evenodd" fill-opacity="1" /><path clip-path="url(#clip650)" d="M1105.88 738.791 Q1105.88 731.355 1107.76 727.304 Q1110.37 721.276 1116.55 721.276 Q1117.86 721.276 1119.22 721.647 Q1120.6 721.993 1122.33 723.352 Q1124.08 724.71 1125.15 726.934 Q1127.17 731.232 1127.17 738.791 Q1127.17 746.177 1125.29 750.204 Q1122.55 756.083 1116.5 756.083 Q1114.23 756.083 1111.91 754.922 Q1109.61 753.761 1108.15 750.97 Q1105.88 746.795 1105.88 738.791 M1110.08 738.174 Q1110.08 745.807 1110.62 748.845 Q1111.24 752.131 1112.92 753.564 Q1114.62 754.972 1116.5 754.972 Q1118.53 754.972 1120.21 753.465 Q1121.91 751.933 1122.43 748.648 Q1123 745.412 1122.97 738.174 Q1122.97 731.133 1122.48 728.317 Q1121.81 725.031 1120.03 723.722 Q1118.28 722.388 1116.5 722.388 Q1115.83 722.388 1115.12 722.586 Q1114.43 722.783 1113.41 723.352 Q1112.4 723.92 1111.61 725.328 Q1110.84 726.736 1110.47 728.86 Q1110.08 731.602 1110.08 738.174 Z" fill="#000000" fill-rule="evenodd" fill-opacity="1" /><path clip-path="url(#clip650)" d="M1134.26 754.157 Q1133.5 753.341 1133.5 752.279 Q1133.5 751.217 1134.26 750.451 Q1135.03 749.661 1136.19 749.661 Q1137.3 749.661 1138.04 750.402 Q1138.81 751.118 1138.81 752.304 Q1138.81 753.465 1137.99 754.231 Q1137.2 754.972 1136.19 754.972 Q1135.03 754.972 1134.26 754.157 Z" fill="#000000" fill-rule="evenodd" fill-opacity="1" /><path clip-path="url(#clip650)" d="M1145.23 738.791 Q1145.23 731.355 1147.11 727.304 Q1149.73 721.276 1155.9 721.276 Q1157.21 721.276 1158.57 721.647 Q1159.95 721.993 1161.68 723.352 Q1163.44 724.71 1164.5 726.934 Q1166.52 731.232 1166.52 738.791 Q1166.52 746.177 1164.65 750.204 Q1161.91 756.083 1155.85 756.083 Q1153.58 756.083 1151.26 754.922 Q1148.96 753.761 1147.5 750.97 Q1145.23 746.795 1145.23 738.791 M1149.43 738.174 Q1149.43 745.807 1149.97 748.845 Q1150.59 752.131 1152.27 753.564 Q1153.98 754.972 1155.85 754.972 Q1157.88 754.972 1159.56 753.465 Q1161.26 751.933 1161.78 748.648 Q1162.35 745.412 1162.33 738.174 Q1162.33 731.133 1161.83 728.317 Q1161.16 725.031 1159.39 723.722 Q1157.63 722.388 1155.85 722.388 Q1155.19 722.388 1154.47 722.586 Q1153.78 722.783 1152.76 723.352 Q1151.75 723.92 1150.96 725.328 Q1150.2 726.736 1149.83 728.86 Q1149.43 731.602 1149.43 738.174 Z" fill="#000000" fill-rule="evenodd" fill-opacity="1" /><path clip-path="url(#clip650)" d="M532.436 797.582 L533.761 781.957 L576.254 781.957 L577.578 797.582 L575.846 797.582 Q575.574 794.457 575.302 792.657 Q575.065 790.857 574.453 789.158 Q573.876 787.426 573.129 786.611 Q572.415 785.762 571.023 785.116 Q569.63 784.437 567.83 784.267 Q566.029 784.097 563.312 784.097 Q560.119 784.097 559.338 784.233 Q558.489 784.437 558.285 785.048 Q558.081 785.626 558.081 786.883 L558.081 823.533 Q558.081 824.926 558.353 825.503 Q558.659 826.047 560.255 826.488 Q561.851 826.896 565.384 826.896 L568.169 826.896 L568.169 829.036 Q565.316 828.832 554.956 828.832 Q544.664 828.832 541.811 829.036 L541.811 826.896 L544.596 826.896 Q548.129 826.896 549.725 826.488 Q551.356 826.047 551.627 825.503 Q551.899 824.926 551.899 823.533 L551.899 786.883 Q551.899 785.898 551.831 785.49 Q551.763 785.082 551.458 784.743 Q551.152 784.369 550.439 784.233 Q549.759 784.097 546.702 784.097 Q543.985 784.097 542.151 784.267 Q540.35 784.437 538.958 785.116 Q537.565 785.762 536.818 786.611 Q536.104 787.426 535.493 789.158 Q534.916 790.857 534.678 792.657 Q534.44 794.457 534.168 797.582 L532.436 797.582 Z" fill="#000000" fill-rule="evenodd" fill-opacity="1" /><path clip-path="url(#clip650)" d="M582.436 829.036 L582.436 826.896 Q586.138 826.896 586.987 826.454 Q587.836 825.979 587.836 823.737 L587.836 805.021 Q587.836 802.44 586.953 801.828 Q586.104 801.217 582.707 801.217 L582.707 799.043 L592.422 798.296 L592.422 823.805 Q592.422 825.877 593.169 826.386 Q593.916 826.896 597.313 826.896 L597.313 829.036 Q590.214 828.832 590.078 828.832 Q589.127 828.832 582.436 829.036 M585.357 786.169 Q585.357 784.777 586.41 783.656 Q587.497 782.501 589.025 782.501 Q590.554 782.501 591.641 783.554 Q592.728 784.573 592.728 786.203 Q592.728 787.8 591.641 788.853 Q590.554 789.872 589.025 789.872 Q587.429 789.872 586.376 788.751 Q585.357 787.63 585.357 786.169 Z" fill="#000000" fill-rule="evenodd" fill-opacity="1" /><path clip-path="url(#clip650)" d="M601.627 829.036 L601.627 826.896 Q605.329 826.896 606.179 826.454 Q607.028 825.979 607.028 823.737 L607.028 805.089 Q607.028 802.508 606.111 801.862 Q605.228 801.217 601.627 801.217 L601.627 799.043 L611.41 798.296 L611.41 805.599 Q614.67 798.296 621.702 798.296 Q629.854 798.296 630.975 805.089 Q632.163 802.44 634.643 800.368 Q637.157 798.296 641.063 798.296 Q646.294 798.296 648.366 800.877 Q649.894 802.609 650.2 804.546 Q650.506 806.482 650.506 811.509 L650.506 824.79 Q650.574 826.251 651.695 826.59 Q652.815 826.896 655.94 826.896 L655.94 829.036 Q648.841 828.832 648.162 828.832 Q647.618 828.832 640.282 829.036 L640.282 826.896 Q643.984 826.896 644.833 826.454 Q645.716 825.979 645.716 823.737 L645.716 807.535 Q645.716 804.002 644.629 801.93 Q643.542 799.824 640.553 799.824 Q636.953 799.824 634.066 802.847 Q631.178 805.87 631.178 810.965 L631.178 823.737 Q631.178 825.979 632.028 826.454 Q632.911 826.896 636.613 826.896 L636.613 829.036 Q629.514 828.832 628.801 828.832 Q628.257 828.832 620.954 829.036 L620.954 826.896 Q624.657 826.896 625.506 826.454 Q626.389 825.979 626.389 823.737 L626.389 807.535 Q626.389 804.002 625.302 801.93 Q624.215 799.824 621.226 799.824 Q617.626 799.824 614.738 802.847 Q611.851 805.87 611.851 810.965 L611.851 823.737 Q611.851 825.979 612.7 826.454 Q613.583 826.896 617.252 826.896 L617.252 829.036 Q610.153 828.832 609.473 828.832 Q608.93 828.832 601.627 829.036 Z" fill="#000000" fill-rule="evenodd" fill-opacity="1" /><path clip-path="url(#clip650)" d="M659.235 813.717 Q659.235 807.161 663.447 802.508 Q667.659 797.854 673.705 797.854 Q679.819 797.854 682.978 801.828 Q686.171 805.802 686.171 811.509 Q686.171 812.562 685.899 812.766 Q685.628 812.969 684.439 812.969 L665.01 812.969 Q665.01 820.069 667.116 823.397 Q670.037 828.051 674.962 828.051 Q675.641 828.051 676.457 827.915 Q677.272 827.779 678.936 827.202 Q680.601 826.59 682.061 824.994 Q683.522 823.397 684.371 820.884 Q684.575 819.899 685.254 819.933 Q686.171 819.933 686.171 820.748 Q686.171 821.359 685.492 822.752 Q684.846 824.111 683.59 825.741 Q682.333 827.371 679.887 828.594 Q677.476 829.817 674.554 829.817 Q668.44 829.817 663.821 825.198 Q659.235 820.544 659.235 813.717 M665.078 811.509 L681.586 811.509 Q681.586 810.048 681.314 808.418 Q681.076 806.787 680.329 804.546 Q679.615 802.27 677.917 800.843 Q676.219 799.417 673.705 799.417 Q672.584 799.417 671.361 799.892 Q670.173 800.368 668.712 801.522 Q667.251 802.677 666.232 805.293 Q665.213 807.908 665.078 811.509 Z" fill="#000000" fill-rule="evenodd" fill-opacity="1" /><path clip-path="url(#clip650)" d="M718.202 811.645 Q718.202 799.892 722.584 790.415 Q724.452 786.441 727.068 783.112 Q729.683 779.784 731.415 778.323 Q733.148 776.862 733.623 776.862 Q734.303 776.862 734.337 777.542 Q734.337 777.881 733.419 778.731 Q722.21 790.143 722.244 811.645 Q722.244 833.214 733.148 844.185 Q734.337 845.374 734.337 845.748 Q734.337 846.427 733.623 846.427 Q733.148 846.427 731.483 845.034 Q729.819 843.642 727.237 840.449 Q724.656 837.256 722.788 833.35 Q718.202 823.873 718.202 811.645 Z" fill="#000000" fill-rule="evenodd" fill-opacity="1" /><path clip-path="url(#clip650)" d="M740.586 828.119 L740.586 818.948 Q740.586 818.166 740.62 817.895 Q740.654 817.623 740.858 817.419 Q741.062 817.215 741.47 817.215 Q741.945 817.215 742.115 817.419 Q742.319 817.623 742.455 818.404 Q743.508 823.193 745.749 825.741 Q748.025 828.255 752.135 828.255 Q756.042 828.255 758.012 826.522 Q759.982 824.79 759.982 821.937 Q759.982 816.842 752.747 815.551 Q748.569 814.702 746.836 814.158 Q745.104 813.581 743.576 812.324 Q740.586 809.878 740.586 806.414 Q740.586 802.949 743.202 800.402 Q745.851 797.854 751.694 797.854 Q755.6 797.854 758.249 799.824 Q759.031 799.213 759.438 798.703 Q760.355 797.854 760.831 797.854 Q761.374 797.854 761.476 798.228 Q761.578 798.567 761.578 799.552 L761.578 806.55 Q761.578 807.331 761.544 807.603 Q761.51 807.874 761.306 808.078 Q761.103 808.248 760.661 808.248 Q759.88 808.248 759.846 807.603 Q759.302 799.179 751.694 799.179 Q747.584 799.179 745.749 800.775 Q743.915 802.338 743.915 804.478 Q743.915 805.666 744.459 806.584 Q745.036 807.467 745.749 808.01 Q746.497 808.52 747.855 809.029 Q749.214 809.505 750.029 809.675 Q750.879 809.844 752.475 810.184 Q758.046 811.237 760.389 813.513 Q763.31 816.434 763.31 820.136 Q763.31 824.246 760.525 827.032 Q757.74 829.817 752.135 829.817 Q747.618 829.817 744.459 826.794 Q744.051 827.202 743.745 827.575 Q743.44 827.915 743.304 828.051 Q743.202 828.187 743.168 828.289 Q743.134 828.357 743.066 828.424 Q741.673 829.817 741.334 829.817 Q740.79 829.817 740.688 829.443 Q740.586 829.104 740.586 828.119 Z" fill="#000000" fill-rule="evenodd" fill-opacity="1" /><path clip-path="url(#clip650)" d="M769.628 845.748 Q769.628 845.408 770.512 844.559 Q781.721 833.146 781.721 811.645 Q781.721 790.076 770.953 779.172 Q769.628 777.915 769.628 777.542 Q769.628 776.862 770.308 776.862 Q770.783 776.862 772.448 778.255 Q774.146 779.648 776.694 782.841 Q779.275 786.033 781.177 789.94 Q785.763 799.417 785.763 811.645 Q785.763 823.397 781.381 832.874 Q779.513 836.848 776.897 840.177 Q774.282 843.506 772.55 844.966 Q770.817 846.427 770.308 846.427 Q769.628 846.427 769.628 845.748 Z" fill="#000000" fill-rule="evenodd" fill-opacity="1" /><polyline clip-path="url(#clip652)" style="stroke:#000000; stroke-linecap:butt; stroke-linejoin:round; stroke-width:2; stroke-opacity:0.1; fill:none" points="
  165.443,702.172 1152.76,702.172 
  "/>
<polyline clip-path="url(#clip652)" style="stroke:#000000; stroke-linecap:butt; stroke-linejoin:round; stroke-width:2; stroke-opacity:0.1; fill:none" points="
  165.443,520.247 1152.76,520.247 
  "/>
<polyline clip-path="url(#clip652)" style="stroke:#000000; stroke-linecap:butt; stroke-linejoin:round; stroke-width:2; stroke-opacity:0.1; fill:none" points="
  165.443,338.323 1152.76,338.323 
  "/>
<polyline clip-path="url(#clip652)" style="stroke:#000000; stroke-linecap:butt; stroke-linejoin:round; stroke-width:2; stroke-opacity:0.1; fill:none" points="
  165.443,156.399 1152.76,156.399 
  "/>
<polyline clip-path="url(#clip650)" style="stroke:#000000; stroke-linecap:butt; stroke-linejoin:round; stroke-width:4; stroke-opacity:1; fill:none" points="
  165.443,702.172 165.443,47.2441 
  "/>
<polyline clip-path="url(#clip650)" style="stroke:#000000; stroke-linecap:butt; stroke-linejoin:round; stroke-width:4; stroke-opacity:1; fill:none" points="
  165.443,702.172 184.34,702.172 
  "/>
<polyline clip-path="url(#clip650)" style="stroke:#000000; stroke-linecap:butt; stroke-linejoin:round; stroke-width:4; stroke-opacity:1; fill:none" points="
  165.443,520.247 184.34,520.247 
  "/>
<polyline clip-path="url(#clip650)" style="stroke:#000000; stroke-linecap:butt; stroke-linejoin:round; stroke-width:4; stroke-opacity:1; fill:none" points="
  165.443,338.323 184.34,338.323 
  "/>
<polyline clip-path="url(#clip650)" style="stroke:#000000; stroke-linecap:butt; stroke-linejoin:round; stroke-width:4; stroke-opacity:1; fill:none" points="
  165.443,156.399 184.34,156.399 
  "/>
<path clip-path="url(#clip650)" d="M126.149 703.271 Q126.149 695.835 128.026 691.784 Q130.645 685.756 136.82 685.756 Q138.13 685.756 139.488 686.127 Q140.872 686.473 142.601 687.832 Q144.355 689.19 145.417 691.414 Q147.443 695.712 147.443 703.271 Q147.443 710.657 145.565 714.684 Q142.823 720.563 136.771 720.563 Q134.498 720.563 132.176 719.402 Q129.879 718.241 128.421 715.45 Q126.149 711.275 126.149 703.271 M130.348 702.654 Q130.348 710.287 130.892 713.325 Q131.509 716.611 133.189 718.044 Q134.894 719.452 136.771 719.452 Q138.797 719.452 140.476 717.945 Q142.181 716.413 142.7 713.128 Q143.268 709.892 143.243 702.654 Q143.243 695.613 142.749 692.797 Q142.082 689.511 140.304 688.202 Q138.55 686.868 136.771 686.868 Q136.104 686.868 135.388 687.066 Q134.696 687.263 133.683 687.832 Q132.67 688.4 131.88 689.808 Q131.114 691.216 130.743 693.34 Q130.348 696.082 130.348 702.654 Z" fill="#000000" fill-rule="evenodd" fill-opacity="1" /><path clip-path="url(#clip650)" d="M127.235 537.527 Q127.235 536.613 127.31 536.342 Q127.408 536.07 127.804 535.65 L137.512 524.83 Q142.823 518.852 142.823 513.639 Q142.823 510.255 141.045 507.834 Q139.291 505.413 136.055 505.413 Q133.831 505.413 131.954 506.772 Q130.076 508.13 129.212 510.551 Q129.36 510.502 129.879 510.502 Q131.139 510.502 131.83 511.293 Q132.547 512.083 132.547 513.145 Q132.547 514.504 131.657 515.171 Q130.793 515.813 129.928 515.813 Q129.582 515.813 129.113 515.739 Q128.668 515.665 127.952 514.973 Q127.235 514.257 127.235 512.997 Q127.235 509.464 129.903 506.648 Q132.596 503.832 136.697 503.832 Q141.341 503.832 144.38 506.599 Q147.443 509.341 147.443 513.639 Q147.443 515.146 146.973 516.53 Q146.529 517.888 145.911 518.951 Q145.318 520.013 143.688 521.717 Q142.057 523.422 140.748 524.632 Q139.439 525.843 136.499 528.412 L131.139 533.624 L140.254 533.624 Q144.701 533.624 145.047 533.229 Q145.541 532.513 146.158 528.733 L147.443 528.733 L146.01 537.527 L127.235 537.527 Z" fill="#000000" fill-rule="evenodd" fill-opacity="1" /><path clip-path="url(#clip650)" d="M125.012 347.253 L125.012 345.697 L140.551 321.957 Q140.946 321.34 141.563 321.364 Q142.132 321.364 142.255 321.587 Q142.379 321.809 142.379 322.674 L142.379 345.697 L147.443 345.697 L147.443 347.253 L142.379 347.253 L142.379 351.651 Q142.379 353.108 142.971 353.577 Q143.589 354.047 146.208 354.047 L147.27 354.047 L147.27 355.603 Q145.195 355.455 140.402 355.455 Q135.635 355.455 133.56 355.603 L133.56 354.047 L134.622 354.047 Q137.24 354.047 137.858 353.602 Q138.475 353.133 138.475 351.651 L138.475 347.253 L125.012 347.253 M126.445 345.697 L138.772 345.697 L138.772 326.824 L126.445 345.697 Z" fill="#000000" fill-rule="evenodd" fill-opacity="1" /><path clip-path="url(#clip650)" d="M126.445 157.696 Q126.445 149.741 130.496 144.875 Q134.548 139.983 139.76 139.983 Q142.799 139.983 144.478 141.54 Q146.183 143.071 146.183 145.443 Q146.183 146.752 145.417 147.32 Q144.651 147.888 143.861 147.888 Q142.947 147.888 142.23 147.271 Q141.514 146.653 141.514 145.542 Q141.514 143.269 144.305 143.269 Q142.996 141.243 139.859 141.243 Q138.895 141.243 137.907 141.54 Q136.919 141.811 135.635 142.75 Q134.35 143.689 133.362 145.171 Q132.374 146.653 131.682 149.445 Q130.99 152.236 130.99 155.868 L130.99 157.078 Q133.065 152.063 137.314 152.088 Q141.563 152.088 144.503 155.324 Q147.443 158.56 147.443 163.353 Q147.443 168.269 144.38 171.53 Q141.316 174.79 137.018 174.79 Q135.091 174.79 133.337 173.975 Q131.608 173.185 129.978 171.357 Q128.372 169.529 127.408 166.021 Q126.445 162.513 126.445 157.696 M131.089 162.241 Q131.089 167.206 132.003 169.578 Q132.151 169.973 132.473 170.517 Q132.818 171.06 133.387 171.777 Q133.979 172.468 134.943 172.938 Q135.906 173.382 137.018 173.382 Q140.402 173.382 142.033 170.097 Q142.897 168.269 142.897 163.303 Q142.897 158.239 141.983 156.386 Q140.427 153.249 137.265 153.249 Q135.141 153.249 133.658 154.707 Q132.201 156.164 131.633 158.116 Q131.089 160.067 131.089 162.241 Z" fill="#000000" fill-rule="evenodd" fill-opacity="1" /><path clip-path="url(#clip650)" d="M92.7562 560.729 L90.6162 560.729 L90.6162 559.065 Q90.6162 555.294 90.0048 554.445 Q89.3594 553.562 87.3214 553.562 L50.6709 553.562 Q48.6668 553.562 48.0554 554.445 Q47.4101 555.328 47.4101 559.065 L47.4101 560.729 L45.2362 560.729 L45.2362 536.171 Q45.2362 529.139 49.1084 524.452 Q52.9807 519.765 58.1776 519.765 Q63.3406 519.765 67.077 524.554 Q70.7794 529.309 70.7794 535.627 L70.7794 547.38 L87.3214 547.38 Q89.3255 547.38 89.9709 546.531 Q90.6162 545.647 90.6162 541.877 L90.6162 540.213 L92.7562 540.213 Q92.5524 542.658 92.5524 550.505 Q92.5524 558.283 92.7562 560.729 M68.9792 547.584 L68.9792 538.005 Q68.9792 534.88 68.096 532.604 Q67.2129 530.328 66.1599 529.309 Q65.073 528.256 63.3406 527.679 Q61.5743 527.067 60.6233 527 Q59.6382 526.932 58.1776 526.932 Q56.6491 526.932 55.698 527 Q54.713 527.067 52.9807 527.679 Q51.2144 528.256 50.1614 529.309 Q49.0744 530.328 48.2592 532.604 Q47.4101 534.846 47.4101 538.005 L47.4101 544.187 Q47.4101 546.565 47.8856 547.074 Q48.3611 547.584 50.1954 547.584 L68.9792 547.584 Z" fill="#000000" fill-rule="evenodd" fill-opacity="1" /><path clip-path="url(#clip650)" d="M89.0198 511.307 Q84.4682 515.892 77.8786 515.892 Q71.255 515.892 66.4316 511.409 Q61.5743 506.891 61.5743 500.437 Q61.5743 494.119 66.3977 489.602 Q71.187 485.05 77.8786 485.05 Q84.4342 485.05 88.9858 489.636 Q93.5374 494.187 93.5374 500.505 Q93.5374 506.687 89.0198 511.307 M77.3011 510.118 Q84.0606 510.118 87.1176 508.352 Q91.7711 505.634 91.7711 500.437 Q91.7711 497.856 90.3785 495.716 Q88.9858 493.542 86.6421 492.353 Q83.585 490.825 77.3011 490.825 Q70.6096 490.825 67.6545 492.659 Q63.1368 495.376 63.1368 500.505 Q63.1368 502.747 64.3257 504.955 Q65.4806 507.129 67.7903 508.454 Q70.8474 510.118 77.3011 510.118 Z" fill="#000000" fill-rule="evenodd" fill-opacity="1" /><path clip-path="url(#clip650)" d="M91.839 480.736 L82.6679 480.736 Q81.8867 480.736 81.6149 480.702 Q81.3432 480.668 81.1394 480.465 Q80.9356 480.261 80.9356 479.853 Q80.9356 479.378 81.1394 479.208 Q81.3432 479.004 82.1244 478.868 Q86.9138 477.815 89.4613 475.573 Q91.9749 473.298 91.9749 469.188 Q91.9749 465.281 90.2426 463.311 Q88.5103 461.341 85.657 461.341 Q80.562 461.341 79.2712 468.576 Q78.422 472.754 77.8786 474.486 Q77.3011 476.219 76.0443 477.747 Q73.5987 480.736 70.1341 480.736 Q66.6694 480.736 64.1219 478.121 Q61.5743 475.471 61.5743 469.629 Q61.5743 465.723 63.5444 463.073 Q62.933 462.292 62.4235 461.885 Q61.5743 460.967 61.5743 460.492 Q61.5743 459.948 61.948 459.847 Q62.2877 459.745 63.2727 459.745 L70.2699 459.745 Q71.0512 459.745 71.3229 459.779 Q71.5946 459.813 71.7984 460.016 Q71.9683 460.22 71.9683 460.662 Q71.9683 461.443 71.3229 461.477 Q62.8991 462.02 62.8991 469.629 Q62.8991 473.739 64.4955 475.573 Q66.058 477.408 68.1979 477.408 Q69.3868 477.408 70.3039 476.864 Q71.187 476.287 71.7305 475.573 Q72.24 474.826 72.7495 473.467 Q73.2251 472.109 73.3949 471.293 Q73.5647 470.444 73.9044 468.848 Q74.9574 463.277 77.2332 460.934 Q80.1544 458.012 83.8568 458.012 Q87.9668 458.012 90.7521 460.798 Q93.5374 463.583 93.5374 469.188 Q93.5374 473.705 90.5143 476.864 Q90.9219 477.272 91.2956 477.577 Q91.6352 477.883 91.7711 478.019 Q91.907 478.121 92.0089 478.155 Q92.0768 478.189 92.1447 478.257 Q93.5374 479.649 93.5374 479.989 Q93.5374 480.533 93.1638 480.634 Q92.8241 480.736 91.839 480.736 Z" fill="#000000" fill-rule="evenodd" fill-opacity="1" /><path clip-path="url(#clip650)" d="M92.7562 453.359 L90.6162 453.359 Q90.6162 449.656 90.1747 448.807 Q89.6991 447.958 87.4573 447.958 L68.7414 447.958 Q66.1599 447.958 65.5485 448.841 Q64.9371 449.69 64.9371 453.087 L62.7632 453.087 L62.0159 443.373 L87.5252 443.373 Q89.5972 443.373 90.1067 442.625 Q90.6162 441.878 90.6162 438.481 L92.7562 438.481 Q92.5524 445.58 92.5524 445.716 Q92.5524 446.667 92.7562 453.359 M49.8897 450.438 Q48.497 450.438 47.3761 449.385 Q46.2212 448.298 46.2212 446.769 Q46.2212 445.241 47.2742 444.154 Q48.2932 443.067 49.9236 443.067 Q51.5201 443.067 52.5731 444.154 Q53.5921 445.241 53.5921 446.769 Q53.5921 448.366 52.4712 449.419 Q51.3502 450.438 49.8897 450.438 Z" fill="#000000" fill-rule="evenodd" fill-opacity="1" /><path clip-path="url(#clip650)" d="M64.9371 435.085 L63.4086 435.085 Q63.2727 431.892 61.0309 429.786 Q58.7551 427.646 55.9698 426.932 Q53.1845 426.185 49.9576 426.117 L49.9576 424.385 L62.7632 424.385 L62.7632 414.433 L64.9371 414.433 L64.9371 424.385 L84.2644 424.385 Q91.7711 424.385 91.7711 419.697 Q91.7711 417.693 89.7331 416.369 Q87.6611 415.044 83.9926 415.044 L80.1544 415.044 L80.1544 413.312 L84.1285 413.312 Q87.8989 413.312 90.7181 415.044 Q93.5374 416.776 93.5374 420.207 Q93.5374 421.464 93.1977 422.72 Q92.892 423.943 92.0768 425.574 Q91.2276 427.17 89.1896 428.189 Q87.1176 429.174 84.1285 429.174 L64.9371 429.174 L64.9371 435.085 Z" fill="#000000" fill-rule="evenodd" fill-opacity="1" /><path clip-path="url(#clip650)" d="M92.7562 407.13 L90.6162 407.13 Q90.6162 403.427 90.1747 402.578 Q89.6991 401.729 87.4573 401.729 L68.7414 401.729 Q66.1599 401.729 65.5485 402.612 Q64.9371 403.461 64.9371 406.858 L62.7632 406.858 L62.0159 397.143 L87.5252 397.143 Q89.5972 397.143 90.1067 396.396 Q90.6162 395.649 90.6162 392.252 L92.7562 392.252 Q92.5524 399.351 92.5524 399.487 Q92.5524 400.438 92.7562 407.13 M49.8897 404.208 Q48.497 404.208 47.3761 403.155 Q46.2212 402.068 46.2212 400.54 Q46.2212 399.011 47.2742 397.924 Q48.2932 396.838 49.9236 396.838 Q51.5201 396.838 52.5731 397.924 Q53.5921 399.011 53.5921 400.54 Q53.5921 402.136 52.4712 403.189 Q51.3502 404.208 49.8897 404.208 Z" fill="#000000" fill-rule="evenodd" fill-opacity="1" /><path clip-path="url(#clip650)" d="M89.0198 383.658 Q84.4682 388.244 77.8786 388.244 Q71.255 388.244 66.4316 383.76 Q61.5743 379.243 61.5743 372.789 Q61.5743 366.471 66.3977 361.953 Q71.187 357.402 77.8786 357.402 Q84.4342 357.402 88.9858 361.987 Q93.5374 366.539 93.5374 372.857 Q93.5374 379.039 89.0198 383.658 M77.3011 382.469 Q84.0606 382.469 87.1176 380.703 Q91.7711 377.986 91.7711 372.789 Q91.7711 370.207 90.3785 368.067 Q88.9858 365.894 86.6421 364.705 Q83.585 363.176 77.3011 363.176 Q70.6096 363.176 67.6545 365.01 Q63.1368 367.728 63.1368 372.857 Q63.1368 375.099 64.3257 377.306 Q65.4806 379.48 67.7903 380.805 Q70.8474 382.469 77.3011 382.469 Z" fill="#000000" fill-rule="evenodd" fill-opacity="1" /><path clip-path="url(#clip650)" d="M92.7562 353.156 L90.6162 353.156 Q90.6162 349.453 90.1747 348.604 Q89.6991 347.755 87.4573 347.755 L68.8093 347.755 Q66.2278 347.755 65.5825 348.672 Q64.9371 349.555 64.9371 353.156 L62.7632 353.156 L62.0159 343.373 L69.3188 343.373 Q62.0159 340.112 62.0159 333.081 Q62.0159 327.85 64.5974 325.778 Q66.3297 324.25 68.2659 323.944 Q70.202 323.604 75.2291 323.604 L88.5103 323.604 Q89.9709 323.537 90.3105 322.416 Q90.6162 321.295 90.6162 318.17 L92.7562 318.17 Q92.5524 325.269 92.5524 325.982 Q92.5524 326.526 92.7562 333.829 L90.6162 333.829 Q90.6162 330.126 90.1747 329.277 Q89.6991 328.394 87.4573 328.394 L71.255 328.394 Q67.7224 328.394 65.6504 329.481 Q63.5444 330.568 63.5444 333.557 Q63.5444 337.157 66.5675 340.045 Q69.5906 342.932 74.6856 342.932 L87.4573 342.932 Q89.6991 342.932 90.1747 342.083 Q90.6162 341.199 90.6162 337.531 L92.7562 337.531 Q92.5524 344.63 92.5524 345.309 Q92.5524 345.853 92.7562 353.156 Z" fill="#000000" fill-rule="evenodd" fill-opacity="1" /><path clip-path="url(#clip650)" d="M75.365 286.784 Q63.6124 286.784 54.1355 282.402 Q50.1614 280.534 46.8326 277.919 Q43.5038 275.303 42.0432 273.571 Q40.5827 271.839 40.5827 271.363 Q40.5827 270.684 41.262 270.65 Q41.6017 270.65 42.4509 271.567 Q53.8638 282.776 75.365 282.742 Q96.9341 282.742 107.905 271.839 Q109.094 270.65 109.468 270.65 Q110.147 270.65 110.147 271.363 Q110.147 271.839 108.755 273.503 Q107.362 275.167 104.169 277.749 Q100.976 280.33 97.07 282.199 Q87.5932 286.784 75.365 286.784 Z" fill="#000000" fill-rule="evenodd" fill-opacity="1" /><path clip-path="url(#clip650)" d="M92.7562 264.468 L90.6162 264.468 Q90.6162 260.765 90.1747 259.916 Q89.6991 259.067 87.4573 259.067 L68.8093 259.067 Q66.2278 259.067 65.5825 259.984 Q64.9371 260.867 64.9371 264.468 L62.7632 264.468 L62.0159 254.685 L69.3188 254.685 Q62.0159 251.424 62.0159 244.393 Q62.0159 236.241 68.8093 235.12 Q66.1599 233.931 64.0879 231.452 Q62.0159 228.938 62.0159 225.032 Q62.0159 219.801 64.5974 217.729 Q66.3297 216.2 68.2659 215.895 Q70.202 215.589 75.2291 215.589 L88.5103 215.589 Q89.9709 215.521 90.3105 214.4 Q90.6162 213.279 90.6162 210.154 L92.7562 210.154 Q92.5524 217.253 92.5524 217.933 Q92.5524 218.476 92.7562 225.813 L90.6162 225.813 Q90.6162 222.111 90.1747 221.262 Q89.6991 220.378 87.4573 220.378 L71.255 220.378 Q67.7224 220.378 65.6504 221.465 Q63.5444 222.552 63.5444 225.541 Q63.5444 229.142 66.5675 232.029 Q69.5906 234.916 74.6856 234.916 L87.4573 234.916 Q89.6991 234.916 90.1747 234.067 Q90.6162 233.184 90.6162 229.482 L92.7562 229.482 Q92.5524 236.581 92.5524 237.294 Q92.5524 237.837 92.7562 245.14 L90.6162 245.14 Q90.6162 241.438 90.1747 240.589 Q89.6991 239.706 87.4573 239.706 L71.255 239.706 Q67.7224 239.706 65.6504 240.793 Q63.5444 241.88 63.5444 244.869 Q63.5444 248.469 66.5675 251.356 Q69.5906 254.244 74.6856 254.244 L87.4573 254.244 Q89.6991 254.244 90.1747 253.394 Q90.6162 252.511 90.6162 248.843 L92.7562 248.843 Q92.5524 255.942 92.5524 256.621 Q92.5524 257.165 92.7562 264.468 Z" fill="#000000" fill-rule="evenodd" fill-opacity="1" /><path clip-path="url(#clip650)" d="M109.468 204.821 Q109.128 204.821 108.279 203.938 Q96.8662 192.729 75.365 192.729 Q53.7959 192.729 42.8924 203.497 Q41.6356 204.821 41.262 204.821 Q40.5827 204.821 40.5827 204.142 Q40.5827 203.667 41.9753 202.002 Q43.368 200.304 46.5609 197.756 Q49.7538 195.175 53.66 193.273 Q63.1368 188.687 75.365 188.687 Q87.1176 188.687 96.5944 193.069 Q100.569 194.937 103.897 197.552 Q107.226 200.168 108.687 201.9 Q110.147 203.633 110.147 204.142 Q110.147 204.821 109.468 204.821 Z" fill="#000000" fill-rule="evenodd" fill-opacity="1" /><polyline clip-path="url(#clip652)" style="stroke:#34495e; stroke-linecap:butt; stroke-linejoin:round; stroke-width:4; stroke-opacity:1; fill:none" points="
  193.386,65.4365 202.7,69.8982 212.014,83.2833 221.328,105.592 230.643,136.824 239.957,176.979 249.271,226.058 258.586,284.06 267.9,350.985 277.214,426.834 
  286.528,511.606 295.843,605.302 305.157,697.309 314.471,611.641 323.785,534.895 333.1,467.074 342.414,408.175 351.728,358.2 361.043,317.148 370.357,393.853 
  379.671,479.481 388.985,574.033 398.3,677.508 407.614,628.285 416.928,540.688 426.242,462.016 435.557,392.266 444.871,331.44 454.185,279.538 463.5,236.559 
  472.814,202.503 482.128,177.37 491.442,161.161 500.757,153.876 510.071,155.514 519.385,166.075 528.7,185.559 538.014,213.967 547.328,251.299 556.642,297.553 
  565.957,352.731 575.271,416.833 584.585,489.858 593.899,571.806 603.214,662.678 612.528,651.474 621.842,573.156 631.157,503.761 640.471,443.29 649.785,391.742 
  659.099,349.118 668.414,315.417 677.728,385.21 687.042,463.927 696.356,551.568 705.671,648.131 714.985,655.278 724.299,563.592 733.614,480.828 742.928,406.988 
  752.242,342.071 761.556,286.078 770.871,239.008 780.185,200.861 789.499,171.638 798.813,151.339 808.128,139.962 817.442,137.509 826.756,143.98 836.071,159.373 
  845.385,183.691 854.699,216.931 864.013,259.095 873.328,310.183 882.642,370.193 891.956,439.127 901.27,516.985 910.585,603.766 919.899,699.47 929.213,616.511 
  938.528,537.282 947.842,466.976 957.156,405.594 966.47,353.135 975.785,309.599 985.099,387.566 994.413,474.456 1003.73,570.27 1013.04,675.006 1022.36,630.821 
  1031.67,543.98 1040.98,466.062 1050.3,397.067 1059.61,336.995 1068.93,430.671 1078.24,533.27 1087.56,644.793 1096.87,645.798 1106.18,542.954 1115.5,449.033 
  1124.81,364.036 
  "/>
<circle clip-path="url(#clip652)" cx="193.386" cy="65.4365" r="7.2" fill="#34495e" fill-rule="evenodd" fill-opacity="1" stroke="#000000" stroke-opacity="1" stroke-width="0"/>
<circle clip-path="url(#clip652)" cx="202.7" cy="69.8982" r="7.2" fill="#34495e" fill-rule="evenodd" fill-opacity="1" stroke="#000000" stroke-opacity="1" stroke-width="0"/>
<circle clip-path="url(#clip652)" cx="212.014" cy="83.2833" r="7.2" fill="#34495e" fill-rule="evenodd" fill-opacity="1" stroke="#000000" stroke-opacity="1" stroke-width="0"/>
<circle clip-path="url(#clip652)" cx="221.328" cy="105.592" r="7.2" fill="#34495e" fill-rule="evenodd" fill-opacity="1" stroke="#000000" stroke-opacity="1" stroke-width="0"/>
<circle clip-path="url(#clip652)" cx="230.643" cy="136.824" r="7.2" fill="#34495e" fill-rule="evenodd" fill-opacity="1" stroke="#000000" stroke-opacity="1" stroke-width="0"/>
<circle clip-path="url(#clip652)" cx="239.957" cy="176.979" r="7.2" fill="#34495e" fill-rule="evenodd" fill-opacity="1" stroke="#000000" stroke-opacity="1" stroke-width="0"/>
<circle clip-path="url(#clip652)" cx="249.271" cy="226.058" r="7.2" fill="#34495e" fill-rule="evenodd" fill-opacity="1" stroke="#000000" stroke-opacity="1" stroke-width="0"/>
<circle clip-path="url(#clip652)" cx="258.586" cy="284.06" r="7.2" fill="#34495e" fill-rule="evenodd" fill-opacity="1" stroke="#000000" stroke-opacity="1" stroke-width="0"/>
<circle clip-path="url(#clip652)" cx="267.9" cy="350.985" r="7.2" fill="#34495e" fill-rule="evenodd" fill-opacity="1" stroke="#000000" stroke-opacity="1" stroke-width="0"/>
<circle clip-path="url(#clip652)" cx="277.214" cy="426.834" r="7.2" fill="#34495e" fill-rule="evenodd" fill-opacity="1" stroke="#000000" stroke-opacity="1" stroke-width="0"/>
<circle clip-path="url(#clip652)" cx="286.528" cy="511.606" r="7.2" fill="#34495e" fill-rule="evenodd" fill-opacity="1" stroke="#000000" stroke-opacity="1" stroke-width="0"/>
<circle clip-path="url(#clip652)" cx="295.843" cy="605.302" r="7.2" fill="#34495e" fill-rule="evenodd" fill-opacity="1" stroke="#000000" stroke-opacity="1" stroke-width="0"/>
<circle clip-path="url(#clip652)" cx="305.157" cy="697.309" r="7.2" fill="#34495e" fill-rule="evenodd" fill-opacity="1" stroke="#000000" stroke-opacity="1" stroke-width="0"/>
<circle clip-path="url(#clip652)" cx="314.471" cy="611.641" r="7.2" fill="#34495e" fill-rule="evenodd" fill-opacity="1" stroke="#000000" stroke-opacity="1" stroke-width="0"/>
<circle clip-path="url(#clip652)" cx="323.785" cy="534.895" r="7.2" fill="#34495e" fill-rule="evenodd" fill-opacity="1" stroke="#000000" stroke-opacity="1" stroke-width="0"/>
<circle clip-path="url(#clip652)" cx="333.1" cy="467.074" r="7.2" fill="#34495e" fill-rule="evenodd" fill-opacity="1" stroke="#000000" stroke-opacity="1" stroke-width="0"/>
<circle clip-path="url(#clip652)" cx="342.414" cy="408.175" r="7.2" fill="#34495e" fill-rule="evenodd" fill-opacity="1" stroke="#000000" stroke-opacity="1" stroke-width="0"/>
<circle clip-path="url(#clip652)" cx="351.728" cy="358.2" r="7.2" fill="#34495e" fill-rule="evenodd" fill-opacity="1" stroke="#000000" stroke-opacity="1" stroke-width="0"/>
<circle clip-path="url(#clip652)" cx="361.043" cy="317.148" r="7.2" fill="#34495e" fill-rule="evenodd" fill-opacity="1" stroke="#000000" stroke-opacity="1" stroke-width="0"/>
<circle clip-path="url(#clip652)" cx="370.357" cy="393.853" r="7.2" fill="#34495e" fill-rule="evenodd" fill-opacity="1" stroke="#000000" stroke-opacity="1" stroke-width="0"/>
<circle clip-path="url(#clip652)" cx="379.671" cy="479.481" r="7.2" fill="#34495e" fill-rule="evenodd" fill-opacity="1" stroke="#000000" stroke-opacity="1" stroke-width="0"/>
<circle clip-path="url(#clip652)" cx="388.985" cy="574.033" r="7.2" fill="#34495e" fill-rule="evenodd" fill-opacity="1" stroke="#000000" stroke-opacity="1" stroke-width="0"/>
<circle clip-path="url(#clip652)" cx="398.3" cy="677.508" r="7.2" fill="#34495e" fill-rule="evenodd" fill-opacity="1" stroke="#000000" stroke-opacity="1" stroke-width="0"/>
<circle clip-path="url(#clip652)" cx="407.614" cy="628.285" r="7.2" fill="#34495e" fill-rule="evenodd" fill-opacity="1" stroke="#000000" stroke-opacity="1" stroke-width="0"/>
<circle clip-path="url(#clip652)" cx="416.928" cy="540.688" r="7.2" fill="#34495e" fill-rule="evenodd" fill-opacity="1" stroke="#000000" stroke-opacity="1" stroke-width="0"/>
<circle clip-path="url(#clip652)" cx="426.242" cy="462.016" r="7.2" fill="#34495e" fill-rule="evenodd" fill-opacity="1" stroke="#000000" stroke-opacity="1" stroke-width="0"/>
<circle clip-path="url(#clip652)" cx="435.557" cy="392.266" r="7.2" fill="#34495e" fill-rule="evenodd" fill-opacity="1" stroke="#000000" stroke-opacity="1" stroke-width="0"/>
<circle clip-path="url(#clip652)" cx="444.871" cy="331.44" r="7.2" fill="#34495e" fill-rule="evenodd" fill-opacity="1" stroke="#000000" stroke-opacity="1" stroke-width="0"/>
<circle clip-path="url(#clip652)" cx="454.185" cy="279.538" r="7.2" fill="#34495e" fill-rule="evenodd" fill-opacity="1" stroke="#000000" stroke-opacity="1" stroke-width="0"/>
<circle clip-path="url(#clip652)" cx="463.5" cy="236.559" r="7.2" fill="#34495e" fill-rule="evenodd" fill-opacity="1" stroke="#000000" stroke-opacity="1" stroke-width="0"/>
<circle clip-path="url(#clip652)" cx="472.814" cy="202.503" r="7.2" fill="#34495e" fill-rule="evenodd" fill-opacity="1" stroke="#000000" stroke-opacity="1" stroke-width="0"/>
<circle clip-path="url(#clip652)" cx="482.128" cy="177.37" r="7.2" fill="#34495e" fill-rule="evenodd" fill-opacity="1" stroke="#000000" stroke-opacity="1" stroke-width="0"/>
<circle clip-path="url(#clip652)" cx="491.442" cy="161.161" r="7.2" fill="#34495e" fill-rule="evenodd" fill-opacity="1" stroke="#000000" stroke-opacity="1" stroke-width="0"/>
<circle clip-path="url(#clip652)" cx="500.757" cy="153.876" r="7.2" fill="#34495e" fill-rule="evenodd" fill-opacity="1" stroke="#000000" stroke-opacity="1" stroke-width="0"/>
<circle clip-path="url(#clip652)" cx="510.071" cy="155.514" r="7.2" fill="#34495e" fill-rule="evenodd" fill-opacity="1" stroke="#000000" stroke-opacity="1" stroke-width="0"/>
<circle clip-path="url(#clip652)" cx="519.385" cy="166.075" r="7.2" fill="#34495e" fill-rule="evenodd" fill-opacity="1" stroke="#000000" stroke-opacity="1" stroke-width="0"/>
<circle clip-path="url(#clip652)" cx="528.7" cy="185.559" r="7.2" fill="#34495e" fill-rule="evenodd" fill-opacity="1" stroke="#000000" stroke-opacity="1" stroke-width="0"/>
<circle clip-path="url(#clip652)" cx="538.014" cy="213.967" r="7.2" fill="#34495e" fill-rule="evenodd" fill-opacity="1" stroke="#000000" stroke-opacity="1" stroke-width="0"/>
<circle clip-path="url(#clip652)" cx="547.328" cy="251.299" r="7.2" fill="#34495e" fill-rule="evenodd" fill-opacity="1" stroke="#000000" stroke-opacity="1" stroke-width="0"/>
<circle clip-path="url(#clip652)" cx="556.642" cy="297.553" r="7.2" fill="#34495e" fill-rule="evenodd" fill-opacity="1" stroke="#000000" stroke-opacity="1" stroke-width="0"/>
<circle clip-path="url(#clip652)" cx="565.957" cy="352.731" r="7.2" fill="#34495e" fill-rule="evenodd" fill-opacity="1" stroke="#000000" stroke-opacity="1" stroke-width="0"/>
<circle clip-path="url(#clip652)" cx="575.271" cy="416.833" r="7.2" fill="#34495e" fill-rule="evenodd" fill-opacity="1" stroke="#000000" stroke-opacity="1" stroke-width="0"/>
<circle clip-path="url(#clip652)" cx="584.585" cy="489.858" r="7.2" fill="#34495e" fill-rule="evenodd" fill-opacity="1" stroke="#000000" stroke-opacity="1" stroke-width="0"/>
<circle clip-path="url(#clip652)" cx="593.899" cy="571.806" r="7.2" fill="#34495e" fill-rule="evenodd" fill-opacity="1" stroke="#000000" stroke-opacity="1" stroke-width="0"/>
<circle clip-path="url(#clip652)" cx="603.214" cy="662.678" r="7.2" fill="#34495e" fill-rule="evenodd" fill-opacity="1" stroke="#000000" stroke-opacity="1" stroke-width="0"/>
<circle clip-path="url(#clip652)" cx="612.528" cy="651.474" r="7.2" fill="#34495e" fill-rule="evenodd" fill-opacity="1" stroke="#000000" stroke-opacity="1" stroke-width="0"/>
<circle clip-path="url(#clip652)" cx="621.842" cy="573.156" r="7.2" fill="#34495e" fill-rule="evenodd" fill-opacity="1" stroke="#000000" stroke-opacity="1" stroke-width="0"/>
<circle clip-path="url(#clip652)" cx="631.157" cy="503.761" r="7.2" fill="#34495e" fill-rule="evenodd" fill-opacity="1" stroke="#000000" stroke-opacity="1" stroke-width="0"/>
<circle clip-path="url(#clip652)" cx="640.471" cy="443.29" r="7.2" fill="#34495e" fill-rule="evenodd" fill-opacity="1" stroke="#000000" stroke-opacity="1" stroke-width="0"/>
<circle clip-path="url(#clip652)" cx="649.785" cy="391.742" r="7.2" fill="#34495e" fill-rule="evenodd" fill-opacity="1" stroke="#000000" stroke-opacity="1" stroke-width="0"/>
<circle clip-path="url(#clip652)" cx="659.099" cy="349.118" r="7.2" fill="#34495e" fill-rule="evenodd" fill-opacity="1" stroke="#000000" stroke-opacity="1" stroke-width="0"/>
<circle clip-path="url(#clip652)" cx="668.414" cy="315.417" r="7.2" fill="#34495e" fill-rule="evenodd" fill-opacity="1" stroke="#000000" stroke-opacity="1" stroke-width="0"/>
<circle clip-path="url(#clip652)" cx="677.728" cy="385.21" r="7.2" fill="#34495e" fill-rule="evenodd" fill-opacity="1" stroke="#000000" stroke-opacity="1" stroke-width="0"/>
<circle clip-path="url(#clip652)" cx="687.042" cy="463.927" r="7.2" fill="#34495e" fill-rule="evenodd" fill-opacity="1" stroke="#000000" stroke-opacity="1" stroke-width="0"/>
<circle clip-path="url(#clip652)" cx="696.356" cy="551.568" r="7.2" fill="#34495e" fill-rule="evenodd" fill-opacity="1" stroke="#000000" stroke-opacity="1" stroke-width="0"/>
<circle clip-path="url(#clip652)" cx="705.671" cy="648.131" r="7.2" fill="#34495e" fill-rule="evenodd" fill-opacity="1" stroke="#000000" stroke-opacity="1" stroke-width="0"/>
<circle clip-path="url(#clip652)" cx="714.985" cy="655.278" r="7.2" fill="#34495e" fill-rule="evenodd" fill-opacity="1" stroke="#000000" stroke-opacity="1" stroke-width="0"/>
<circle clip-path="url(#clip652)" cx="724.299" cy="563.592" r="7.2" fill="#34495e" fill-rule="evenodd" fill-opacity="1" stroke="#000000" stroke-opacity="1" stroke-width="0"/>
<circle clip-path="url(#clip652)" cx="733.614" cy="480.828" r="7.2" fill="#34495e" fill-rule="evenodd" fill-opacity="1" stroke="#000000" stroke-opacity="1" stroke-width="0"/>
<circle clip-path="url(#clip652)" cx="742.928" cy="406.988" r="7.2" fill="#34495e" fill-rule="evenodd" fill-opacity="1" stroke="#000000" stroke-opacity="1" stroke-width="0"/>
<circle clip-path="url(#clip652)" cx="752.242" cy="342.071" r="7.2" fill="#34495e" fill-rule="evenodd" fill-opacity="1" stroke="#000000" stroke-opacity="1" stroke-width="0"/>
<circle clip-path="url(#clip652)" cx="761.556" cy="286.078" r="7.2" fill="#34495e" fill-rule="evenodd" fill-opacity="1" stroke="#000000" stroke-opacity="1" stroke-width="0"/>
<circle clip-path="url(#clip652)" cx="770.871" cy="239.008" r="7.2" fill="#34495e" fill-rule="evenodd" fill-opacity="1" stroke="#000000" stroke-opacity="1" stroke-width="0"/>
<circle clip-path="url(#clip652)" cx="780.185" cy="200.861" r="7.2" fill="#34495e" fill-rule="evenodd" fill-opacity="1" stroke="#000000" stroke-opacity="1" stroke-width="0"/>
<circle clip-path="url(#clip652)" cx="789.499" cy="171.638" r="7.2" fill="#34495e" fill-rule="evenodd" fill-opacity="1" stroke="#000000" stroke-opacity="1" stroke-width="0"/>
<circle clip-path="url(#clip652)" cx="798.813" cy="151.339" r="7.2" fill="#34495e" fill-rule="evenodd" fill-opacity="1" stroke="#000000" stroke-opacity="1" stroke-width="0"/>
<circle clip-path="url(#clip652)" cx="808.128" cy="139.962" r="7.2" fill="#34495e" fill-rule="evenodd" fill-opacity="1" stroke="#000000" stroke-opacity="1" stroke-width="0"/>
<circle clip-path="url(#clip652)" cx="817.442" cy="137.509" r="7.2" fill="#34495e" fill-rule="evenodd" fill-opacity="1" stroke="#000000" stroke-opacity="1" stroke-width="0"/>
<circle clip-path="url(#clip652)" cx="826.756" cy="143.98" r="7.2" fill="#34495e" fill-rule="evenodd" fill-opacity="1" stroke="#000000" stroke-opacity="1" stroke-width="0"/>
<circle clip-path="url(#clip652)" cx="836.071" cy="159.373" r="7.2" fill="#34495e" fill-rule="evenodd" fill-opacity="1" stroke="#000000" stroke-opacity="1" stroke-width="0"/>
<circle clip-path="url(#clip652)" cx="845.385" cy="183.691" r="7.2" fill="#34495e" fill-rule="evenodd" fill-opacity="1" stroke="#000000" stroke-opacity="1" stroke-width="0"/>
<circle clip-path="url(#clip652)" cx="854.699" cy="216.931" r="7.2" fill="#34495e" fill-rule="evenodd" fill-opacity="1" stroke="#000000" stroke-opacity="1" stroke-width="0"/>
<circle clip-path="url(#clip652)" cx="864.013" cy="259.095" r="7.2" fill="#34495e" fill-rule="evenodd" fill-opacity="1" stroke="#000000" stroke-opacity="1" stroke-width="0"/>
<circle clip-path="url(#clip652)" cx="873.328" cy="310.183" r="7.2" fill="#34495e" fill-rule="evenodd" fill-opacity="1" stroke="#000000" stroke-opacity="1" stroke-width="0"/>
<circle clip-path="url(#clip652)" cx="882.642" cy="370.193" r="7.2" fill="#34495e" fill-rule="evenodd" fill-opacity="1" stroke="#000000" stroke-opacity="1" stroke-width="0"/>
<circle clip-path="url(#clip652)" cx="891.956" cy="439.127" r="7.2" fill="#34495e" fill-rule="evenodd" fill-opacity="1" stroke="#000000" stroke-opacity="1" stroke-width="0"/>
<circle clip-path="url(#clip652)" cx="901.27" cy="516.985" r="7.2" fill="#34495e" fill-rule="evenodd" fill-opacity="1" stroke="#000000" stroke-opacity="1" stroke-width="0"/>
<circle clip-path="url(#clip652)" cx="910.585" cy="603.766" r="7.2" fill="#34495e" fill-rule="evenodd" fill-opacity="1" stroke="#000000" stroke-opacity="1" stroke-width="0"/>
<circle clip-path="url(#clip652)" cx="919.899" cy="699.47" r="7.2" fill="#34495e" fill-rule="evenodd" fill-opacity="1" stroke="#000000" stroke-opacity="1" stroke-width="0"/>
<circle clip-path="url(#clip652)" cx="929.213" cy="616.511" r="7.2" fill="#34495e" fill-rule="evenodd" fill-opacity="1" stroke="#000000" stroke-opacity="1" stroke-width="0"/>
<circle clip-path="url(#clip652)" cx="938.528" cy="537.282" r="7.2" fill="#34495e" fill-rule="evenodd" fill-opacity="1" stroke="#000000" stroke-opacity="1" stroke-width="0"/>
<circle clip-path="url(#clip652)" cx="947.842" cy="466.976" r="7.2" fill="#34495e" fill-rule="evenodd" fill-opacity="1" stroke="#000000" stroke-opacity="1" stroke-width="0"/>
<circle clip-path="url(#clip652)" cx="957.156" cy="405.594" r="7.2" fill="#34495e" fill-rule="evenodd" fill-opacity="1" stroke="#000000" stroke-opacity="1" stroke-width="0"/>
<circle clip-path="url(#clip652)" cx="966.47" cy="353.135" r="7.2" fill="#34495e" fill-rule="evenodd" fill-opacity="1" stroke="#000000" stroke-opacity="1" stroke-width="0"/>
<circle clip-path="url(#clip652)" cx="975.785" cy="309.599" r="7.2" fill="#34495e" fill-rule="evenodd" fill-opacity="1" stroke="#000000" stroke-opacity="1" stroke-width="0"/>
<circle clip-path="url(#clip652)" cx="985.099" cy="387.566" r="7.2" fill="#34495e" fill-rule="evenodd" fill-opacity="1" stroke="#000000" stroke-opacity="1" stroke-width="0"/>
<circle clip-path="url(#clip652)" cx="994.413" cy="474.456" r="7.2" fill="#34495e" fill-rule="evenodd" fill-opacity="1" stroke="#000000" stroke-opacity="1" stroke-width="0"/>
<circle clip-path="url(#clip652)" cx="1003.73" cy="570.27" r="7.2" fill="#34495e" fill-rule="evenodd" fill-opacity="1" stroke="#000000" stroke-opacity="1" stroke-width="0"/>
<circle clip-path="url(#clip652)" cx="1013.04" cy="675.006" r="7.2" fill="#34495e" fill-rule="evenodd" fill-opacity="1" stroke="#000000" stroke-opacity="1" stroke-width="0"/>
<circle clip-path="url(#clip652)" cx="1022.36" cy="630.821" r="7.2" fill="#34495e" fill-rule="evenodd" fill-opacity="1" stroke="#000000" stroke-opacity="1" stroke-width="0"/>
<circle clip-path="url(#clip652)" cx="1031.67" cy="543.98" r="7.2" fill="#34495e" fill-rule="evenodd" fill-opacity="1" stroke="#000000" stroke-opacity="1" stroke-width="0"/>
<circle clip-path="url(#clip652)" cx="1040.98" cy="466.062" r="7.2" fill="#34495e" fill-rule="evenodd" fill-opacity="1" stroke="#000000" stroke-opacity="1" stroke-width="0"/>
<circle clip-path="url(#clip652)" cx="1050.3" cy="397.067" r="7.2" fill="#34495e" fill-rule="evenodd" fill-opacity="1" stroke="#000000" stroke-opacity="1" stroke-width="0"/>
<circle clip-path="url(#clip652)" cx="1059.61" cy="336.995" r="7.2" fill="#34495e" fill-rule="evenodd" fill-opacity="1" stroke="#000000" stroke-opacity="1" stroke-width="0"/>
<circle clip-path="url(#clip652)" cx="1068.93" cy="430.671" r="7.2" fill="#34495e" fill-rule="evenodd" fill-opacity="1" stroke="#000000" stroke-opacity="1" stroke-width="0"/>
<circle clip-path="url(#clip652)" cx="1078.24" cy="533.27" r="7.2" fill="#34495e" fill-rule="evenodd" fill-opacity="1" stroke="#000000" stroke-opacity="1" stroke-width="0"/>
<circle clip-path="url(#clip652)" cx="1087.56" cy="644.793" r="7.2" fill="#34495e" fill-rule="evenodd" fill-opacity="1" stroke="#000000" stroke-opacity="1" stroke-width="0"/>
<circle clip-path="url(#clip652)" cx="1096.87" cy="645.798" r="7.2" fill="#34495e" fill-rule="evenodd" fill-opacity="1" stroke="#000000" stroke-opacity="1" stroke-width="0"/>
<circle clip-path="url(#clip652)" cx="1106.18" cy="542.954" r="7.2" fill="#34495e" fill-rule="evenodd" fill-opacity="1" stroke="#000000" stroke-opacity="1" stroke-width="0"/>
<circle clip-path="url(#clip652)" cx="1115.5" cy="449.033" r="7.2" fill="#34495e" fill-rule="evenodd" fill-opacity="1" stroke="#000000" stroke-opacity="1" stroke-width="0"/>
<circle clip-path="url(#clip652)" cx="1124.81" cy="364.036" r="7.2" fill="#34495e" fill-rule="evenodd" fill-opacity="1" stroke="#000000" stroke-opacity="1" stroke-width="0"/>
</svg>
