<?xml version="1.0" encoding="UTF-8" standalone="no"?>
<svg
   width="118.93824"
   height="125.94351"
   viewBox="0 0 475.75295 503.77405"
   version="1.1"
   id="svg8504"
   sodipodi:docname="Cart Pole.svg"
   inkscape:version="1.2.2 (b0a8486, 2022-12-01)"
   xmlns:inkscape="http://www.inkscape.org/namespaces/inkscape"
   xmlns:sodipodi="http://sodipodi.sourceforge.net/DTD/sodipodi-0.dtd"
   xmlns="http://www.w3.org/2000/svg"
   xmlns:svg="http://www.w3.org/2000/svg">
  <g
     transform="matrix(4,0,0,4,-75.741105,-38.794107)"
     id="text1669"
     style="font-size:13.3333px;font-family:'CMU Serif';-inkscape-font-specification:'CMU Serif';white-space:pre;shape-inside:url(#rect1671);stroke-width:2;stroke-linecap:round;stroke-linejoin:round" />
  <sodipodi:namedview
     id="namedview8506"
     pagecolor="#ffffff"
     bordercolor="#000000"
     borderopacity="0.25"
     inkscape:showpageshadow="2"
     inkscape:pageopacity="0.0"
     inkscape:pagecheckerboard="0"
     inkscape:deskcolor="#d1d1d1"
     showgrid="false"
     inkscape:zoom="2.6401873"
     inkscape:cx="51.132736"
     inkscape:cy="99.992906"
     inkscape:window-width="1920"
     inkscape:window-height="1014"
     inkscape:window-x="1920"
     inkscape:window-y="29"
     inkscape:window-maximized="1"
     inkscape:current-layer="svg8504" />
  <defs
     id="defs8418">
    <rect
       x="6.2330651"
       y="102.74571"
       width="135.70773"
       height="20.961731"
       id="rect1671" />
    <marker
       style="overflow:visible"
       id="Stop"
       refX="0"
       refY="0"
       orient="auto"
       inkscape:stockid="Stop"
       markerWidth="1"
       markerHeight="8"
       viewBox="0 0 1 8"
       inkscape:isstock="true"
       inkscape:collect="always"
       preserveAspectRatio="xMidYMid">
      <path
         style="fill:none;stroke:context-stroke;stroke-width:1"
         d="M 0,4 V -4"
         id="path171" />
    </marker>
    <marker
       style="overflow:visible"
       id="TriangleStart"
       refX="0"
       refY="0"
       orient="auto-start-reverse"
       inkscape:stockid="TriangleStart"
       markerWidth="5.3244081"
       markerHeight="6.155385"
       viewBox="0 0 5.3244081 6.1553851"
       inkscape:isstock="true"
       inkscape:collect="always"
       preserveAspectRatio="xMidYMid">
      <path
         transform="scale(0.5)"
         style="fill:context-stroke;fill-rule:evenodd;stroke:context-stroke;stroke-width:1pt"
         d="M 5.77,0 -2.88,5 V -5 Z"
         id="path135" />
    </marker>
    <clipPath
       id="clip350">
      <rect
         x="0"
         y="0"
         width="1200"
         height="880"
         id="rect8415" />
    </clipPath>
    <clipPath
       id="clip210">
      <rect
         x="0"
         y="0"
         width="1200"
         height="880"
         id="rect6999" />
    </clipPath>
  </defs>
  <defs
     id="defs8425">
    <clipPath
       id="clip351">
      <rect
         x="240"
         y="0"
         width="841"
         height="841"
         id="rect8422" />
    </clipPath>
  </defs>
  <path
     clip-path="url(#clip350)"
     d="M 222.778,785.94 H 977.222 V 31.4961 H 222.778 Z"
     fill="#ffffff"
     fill-rule="evenodd"
     fill-opacity="1"
     id="path8427"
     transform="matrix(0.63060075,0,0,0.66774223,-140.48397,-21.031276)"
     style="stroke-width:1.54105" />
  <defs
     id="defs8432">
    <clipPath
       id="clip352">
      <rect
         x="222"
         y="31"
         width="755"
         height="755"
         id="rect8429" />
    </clipPath>
  </defs>
  <polyline
     clip-path="url(#clip350)"
     style="fill:none;stroke:#000000;stroke-width:7.3059;stroke-linecap:round;stroke-linejoin:round;stroke-opacity:1"
     points="222.778,785.94 977.222,785.94 "
     id="polyline8444"
     transform="matrix(0.54750222,0,0,0.54750222,-64.867752,-33.721971)" />
  <polyline
     clip-path="url(#clip350)"
     style="fill:none;stroke:#000000;stroke-width:4;stroke-linecap:round;stroke-linejoin:round;stroke-opacity:1"
     points="600,785.94 600,767.042 "
     id="polyline8450"
     transform="translate(-351.22903,-389.35807)" />
  <polyline
     clip-path="url(#clip350)"
     style="fill:none;stroke:#000000;stroke-width:4;stroke-linecap:round;stroke-linejoin:round;stroke-opacity:1"
     points="788.611,785.94 788.611,767.042 "
     id="polyline8452"
     transform="translate(-351.22903,-389.35807)" />
  <polyline
     clip-path="url(#clip352)"
     style="fill:none;stroke:#2980b9;stroke-width:4;stroke-linecap:round;stroke-linejoin:round;stroke-opacity:1"
     points="548.396,597.329 661.563,597.329 "
     id="polyline8492"
     transform="translate(-301.76495,-310.78949)" />
  <path
     clip-path="url(#clip352)"
     d="m 561.196,597.329 -19.2,-11.2 v 22.4 z"
     fill="#2ecc71"
     fill-rule="evenodd"
     fill-opacity="1"
     stroke="none"
     id="path8494"
     transform="translate(-351.22903,-310.78949)" />
  <path
     clip-path="url(#clip352)"
     d="m 674.363,597.329 -19.2,-11.2 v 22.4 z"
     fill="#2ecc71"
     fill-rule="evenodd"
     fill-opacity="1"
     stroke="none"
     id="path8496"
     transform="translate(-301.76495,-310.78949)"
     style="fill:#2980b9;fill-opacity:1" />
  <path
     clip-path="url(#clip352)"
     d="m 472.952,635.051 v -75.444 h 150.889 v 75.444 z"
     fill="#34495e"
     fill-rule="evenodd"
     fill-opacity="1"
     id="path8498"
     transform="translate(-351.22903,-310.78949)" />
  <polyline
     clip-path="url(#clip352)"
     style="fill:none;stroke:#000000;stroke-width:0;stroke-linecap:round;stroke-linejoin:round;stroke-opacity:1"
     points="472.952,635.051 472.952,559.607 623.841,559.607 623.841,635.051 472.952,635.051 "
     id="polyline8500"
     transform="translate(-351.22903,-310.78949)" />
  <polyline
     clip-path="url(#clip352)"
     style="fill:none;stroke:#7f8c8d;stroke-width:16;stroke-linecap:round;stroke-linejoin:round;stroke-opacity:1"
     points="548.396,597.329 625.112,227.99 "
     id="polyline8502"
     transform="rotate(31.38982,925.46882,-183.35301)"
     inkscape:transform-center-x="-129.05799"
     inkscape:transform-center-y="-137.22712" />
  <path
     clip-path="url(#clip210)"
     d="m 691.677,805.54 q 0,1.803 -1.127,2.834 -1.128,0.998 -2.416,0.998 -1.224,0 -1.868,-0.708 -0.644,-0.709 -0.644,-1.611 0,-1.223 0.902,-2.286 0.902,-1.063 2.254,-1.288 -1.32,-0.838 -3.285,-0.838 -1.288,0 -2.415,0.677 -1.095,0.676 -1.772,1.545 -0.644,0.87 -1.223,2.126 -0.548,1.224 -0.773,1.965 -0.194,0.708 -0.355,1.481 l -2.254,9.018 q -1.095,4.283 -1.095,5.797 0,1.868 0.902,3.124 0.902,1.224 2.705,1.224 0.709,0 1.514,-0.194 0.805,-0.225 1.836,-0.805 1.062,-0.612 1.996,-1.514 0.966,-0.933 1.9,-2.512 0.934,-1.578 1.546,-3.607 0.194,-0.708 0.838,-0.708 0.805,0 0.805,0.644 0,0.547 -0.451,1.707 -0.419,1.127 -1.353,2.609 -0.901,1.449 -2.093,2.769 -1.192,1.288 -2.963,2.19 -1.771,0.902 -3.704,0.902 -2.769,0 -4.605,-1.481 -1.836,-1.482 -2.512,-3.543 -0.161,0.29 -0.387,0.676 -0.225,0.387 -0.901,1.256 -0.645,0.838 -1.385,1.482 -0.741,0.612 -1.9,1.095 -1.128,0.515 -2.351,0.515 -1.546,0 -2.931,-0.451 -1.353,-0.451 -2.319,-1.481 -0.966,-1.031 -0.966,-2.448 0,-1.578 1.063,-2.673 1.095,-1.127 2.576,-1.127 0.934,0 1.675,0.547 0.773,0.548 0.773,1.739 0,1.321 -0.902,2.319 -0.902,0.999 -2.19,1.256 1.32,0.838 3.285,0.838 2.126,0 3.8,-1.868 1.675,-1.868 2.48,-4.992 1.997,-7.504 2.77,-10.854 0.773,-3.381 0.773,-4.831 0,-1.352 -0.355,-2.286 -0.354,-0.934 -0.966,-1.353 -0.579,-0.451 -1.127,-0.612 -0.515,-0.161 -1.095,-0.161 -0.966,0 -2.061,0.387 -1.063,0.386 -2.351,1.288 -1.256,0.87 -2.448,2.673 -1.191,1.804 -1.997,4.283 -0.161,0.741 -0.869,0.741 -0.773,-0.032 -0.773,-0.676 0,-0.548 0.419,-1.675 0.451,-1.159 1.352,-2.609 0.934,-1.449 2.126,-2.737 1.224,-1.32 2.995,-2.222 1.804,-0.902 3.736,-0.902 0.869,0 1.707,0.193 0.869,0.161 1.9,0.644 1.063,0.483 1.997,1.546 0.934,1.063 1.513,2.609 0.387,-0.741 0.902,-1.449 0.548,-0.709 1.385,-1.578 0.87,-0.902 2.061,-1.418 1.224,-0.547 2.577,-0.547 1.32,0 2.608,0.354 1.289,0.322 2.384,1.385 1.127,1.031 1.127,2.609 z"
     fill="#000000"
     fill-rule="nonzero"
     fill-opacity="1"
     id="path7044"
     transform="translate(-423.6674,-332.08299)"
     style="fill:#2980b9;fill-opacity:1" />
  <path
     id="path7730"
     style="fill:none;stroke:#2980b9;stroke-width:4;stroke-linecap:round;stroke-linejoin:round;stroke-dasharray:none;stroke-dashoffset:0;marker-end:url(#Stop)"
     d="m 197.28559,224.46427 c 15.47345,0 30.36759,5.92784 41.66125,16.5811"
     sodipodi:nodetypes="cc" />
  <g
     aria-label="θ"
     id="text8887"
     style="font-size:53.3332px;font-family:serif;-inkscape-font-specification:serif;fill:#2980b9;stroke-width:7.56;stroke-linecap:round;stroke-linejoin:round"
     transform="translate(10.863964,-147.03351)">
    <path
       d="m 210.54559,363.21018 q -4.42666,0 -6.82665,-3.57332 -2.34666,-3.57333 -2.34666,-10.18664 0,-3.25333 0.58666,-6.98665 0.64,-3.78666 1.92,-7.41332 1.27999,-3.62665 3.19999,-6.55998 1.97333,-2.98666 4.63999,-4.74666 2.71999,-1.81332 6.13331,-1.81332 4.74666,0 7.14665,3.51999 2.45333,3.46665 2.45333,9.9733 0,2.34667 -0.42667,5.33332 -0.42666,2.93333 -1.27999,6.07999 -0.85333,3.09332 -2.24,6.02665 -1.33333,2.93333 -3.25332,5.27999 -1.86666,2.29333 -4.26666,3.67999 -2.39999,1.38666 -5.43998,1.38666 z m 7.09331,-38.5599 q -1.81333,0 -3.35999,1.44 -1.54666,1.38666 -2.82666,3.73332 -1.22666,2.34666 -2.18666,5.22665 -0.96,2.88 -1.6,5.81332 h 13.8133 q 0.42667,-2.66666 0.64,-4.90665 0.26667,-2.29333 0.26667,-3.73333 0,-3.57332 -1.12,-5.54665 -1.12,-2.02666 -3.62666,-2.02666 z m -6.93331,35.83991 q 1.97332,0 3.57332,-1.49333 1.6,-1.49333 2.87999,-3.99999 1.28,-2.50666 2.24,-5.54665 0.95999,-3.04 1.59999,-6.07999 h -13.86663 q -0.53333,2.82666 -0.8,5.27999 -0.26666,2.39999 -0.26666,3.94665 0,4.31999 1.38666,6.13332 1.44,1.76 3.25333,1.76 z"
       style="font-style:italic"
       id="path14706" />
  </g>
  <path
     id="path10587"
     style="fill:none;stroke:#2980b9;stroke-width:4;stroke-linecap:round;stroke-linejoin:round;stroke-dasharray:none;marker-end:url(#TriangleStart)"
     d="m 197.2861,85.093893 c 58.79399,0 115.3868,21.704917 158.29897,60.712077"
     sodipodi:nodetypes="cc" />
  <g
     aria-label="ω"
     id="text10863"
     style="font-size:53.3332px;font-family:serif;-inkscape-font-specification:serif;fill:#2980b9;stroke-width:4;stroke-linecap:round;stroke-linejoin:round"
     transform="translate(29.336615,-114.41192)">
    <path
       d="m 255.25398,208.39875 q -3.57332,0 -5.86665,-2.55999 -2.29333,-2.61333 -2.29333,-7.30665 0,-4.69332 1.54666,-8.42665 1.6,-3.78665 4.05333,-6.61331 2.50666,-2.88 5.22665,-4.74666 l 1.86666,1.76 q -2.55999,3.19999 -4.21332,6.02665 -1.65333,2.82666 -2.50666,5.75998 -0.8,2.88 -0.8,6.45332 0,3.25333 1.12,5.01332 1.12,1.76 2.87999,1.76 2.56,0 4.15999,-1.76 1.65333,-1.81333 2.66666,-4.74665 -0.0533,-0.58667 -0.16,-1.49333 -0.10666,-0.96 -0.10666,-2.61333 0,-3.51999 1.06666,-5.22665 1.12,-1.76 2.61333,-1.76 0.79999,0 1.33333,0.58667 0.58666,0.58666 0.58666,2.02666 0,1.22666 -0.48,2.87999 -0.42666,1.6 -1.06666,3.19999 -0.64,1.54667 -1.33333,2.72 0.16,1.38666 0.69333,2.82666 0.53333,1.43999 1.54666,2.39999 1.01333,0.96 2.61333,0.96 1.86666,0 3.19999,-1.06667 1.33333,-1.11999 2.24,-2.93332 0.90666,-1.81333 1.43999,-3.94666 0.53333,-2.13333 0.74667,-4.26666 0.26666,-2.18666 0.26666,-3.89332 0,-2.55999 -0.42666,-4.74665 -0.37333,-2.24 -1.12,-4.15999 l 2.61333,-1.76 q 1.75999,2.13333 2.82666,5.38665 1.06666,3.2 1.06666,6.98665 0,3.14666 -0.74666,6.23999 -0.69334,3.03999 -2.24,5.54665 -1.54666,2.50666 -3.94666,3.99999 -2.34666,1.49333 -5.70665,1.49333 -3.03999,0 -4.63999,-1.70666 -1.54666,-1.70667 -1.97332,-3.78666 h -0.21334 q -1.27999,2.34666 -3.25332,3.94666 -1.97333,1.54666 -5.27999,1.54666 z"
       style="font-style:italic"
       id="path14709" />
  </g>
  <g
     aria-label="v"
     id="text13875"
     style="font-size:53.3332px;font-family:serif;-inkscape-font-specification:serif;fill:#2980b9;stroke-width:4;stroke-linecap:round;stroke-linejoin:round"
     transform="translate(10.863964,-147.03351)">
    <path
       d="m 330.89663,384.38268 q -0.26667,-1.70666 -1.22666,-2.24 -0.90667,-0.58666 -2.45333,-0.58666 h -0.53333 l 0.42666,-2.24 h 7.99998 l 2.45333,15.78663 q 0.26666,1.76 0.48,3.62666 0.26666,1.86666 0.48,3.41332 0.21333,1.49333 0.26666,2.4 h 0.16 q 1.92,-1.86667 3.67999,-4.15999 1.81333,-2.29333 3.14666,-4.63999 1.38666,-2.39999 2.18666,-4.58666 0.8,-2.18666 0.8,-3.78665 0,-1.86666 -0.90666,-2.93333 -0.90667,-1.12 -2.4,-1.12 0,-2.18666 1.17333,-3.19999 1.17333,-1.06666 2.45333,-1.06666 1.70666,0 2.66666,1.17333 0.96,1.12 0.96,3.78666 0,3.14665 -1.38667,6.55998 -1.33333,3.41332 -3.46665,6.71998 -2.08,3.25333 -4.37333,6.02665 -2.23999,2.72 -4.05332,4.53333 l -4.79999,0.53333 z"
       style="font-style:italic"
       id="path14712" />
  </g>
  <polyline
     clip-path="url(#clip350)"
     style="fill:none;stroke:#000000;stroke-width:4;stroke-linecap:round;stroke-linejoin:round;stroke-opacity:1"
     points="600,785.94 600,767.042 "
     id="polyline2438"
     transform="translate(-543.25164,-389.35807)" />
  <g
     aria-label="0.0"
     id="text799"
     style="font-size:53.3332px;font-family:'CMU Serif';-inkscape-font-specification:'CMU Serif';stroke-width:8;stroke-linecap:round;stroke-linejoin:round"
     transform="translate(-75.741105,-38.794107)">
    <path
       d="m 288.49364,464.10855 q 0,-7.83852 1.97916,-12.10934 2.76041,-6.35415 9.27081,-6.35415 1.3802,0 2.81249,0.39062 1.45833,0.36458 3.28124,1.79687 1.84896,1.43229 2.96875,3.77604 2.13541,4.53123 2.13541,12.49996 0,7.78644 -1.97916,12.03122 -2.89062,6.1979 -9.27081,6.1979 -2.39583,0 -4.84374,-1.22395 -2.42187,-1.22396 -3.95833,-4.16666 -2.39582,-4.40103 -2.39582,-12.83851 z m 4.42707,-0.65104 q 0,8.04686 0.57291,11.24997 0.65104,3.46354 2.42187,4.97395 1.79687,1.48437 3.77604,1.48437 2.13541,0 3.90624,-1.58854 1.79687,-1.61457 2.34374,-5.07811 0.59896,-3.41145 0.57291,-11.04164 0,-7.42185 -0.52083,-10.3906 -0.70312,-3.46353 -2.57812,-4.84373 -1.84895,-1.40625 -3.72394,-1.40625 -0.70313,0 -1.45833,0.20833 -0.72917,0.20834 -1.79687,0.80729 -1.06771,0.59896 -1.90104,2.08333 -0.80729,1.48437 -1.19792,3.72395 -0.41666,2.89062 -0.41666,9.81768 z"
       id="path1688" />
    <path
       d="m 318.41544,480.30643 q -0.80729,-0.85937 -0.80729,-1.97916 0,-1.11979 0.80729,-1.92708 0.80729,-0.83333 2.03124,-0.83333 1.17187,0 1.95312,0.78125 0.80729,0.7552 0.80729,2.0052 0,1.22395 -0.85937,2.03124 -0.83333,0.78125 -1.90104,0.78125 -1.22395,0 -2.03124,-0.85937 z"
       id="path1690" />
    <path
       d="m 329.97791,464.10855 q 0,-7.83852 1.97916,-12.10934 2.76041,-6.35415 9.27081,-6.35415 1.3802,0 2.81249,0.39062 1.45833,0.36458 3.28124,1.79687 1.84895,1.43229 2.96874,3.77604 2.13542,4.53123 2.13542,12.49996 0,7.78644 -1.97917,12.03122 -2.89061,6.1979 -9.27081,6.1979 -2.39582,0 -4.84373,-1.22395 -2.42187,-1.22396 -3.95833,-4.16666 -2.39582,-4.40103 -2.39582,-12.83851 z m 4.42707,-0.65104 q 0,8.04686 0.57291,11.24997 0.65104,3.46354 2.42187,4.97395 1.79687,1.48437 3.77603,1.48437 2.13541,0 3.90624,-1.58854 1.79687,-1.61457 2.34375,-5.07811 0.59895,-3.41145 0.57291,-11.04164 0,-7.42185 -0.52083,-10.3906 -0.70312,-3.46353 -2.57812,-4.84373 -1.84895,-1.40625 -3.72395,-1.40625 -0.70312,0 -1.45833,0.20833 -0.72916,0.20834 -1.79687,0.80729 -1.0677,0.59896 -1.90103,2.08333 -0.80729,1.48437 -1.19792,3.72395 -0.41666,2.89062 -0.41666,9.81768 z"
       id="path1692" />
  </g>
  <g
     aria-label="-2.4"
     id="text1639"
     style="font-size:53.3332px;font-family:'CMU Serif';-inkscape-font-specification:'CMU Serif';stroke-width:8;stroke-linecap:round;stroke-linejoin:round"
     transform="translate(-75.741105,-38.794107)">
    <path
       d="m 79.487865,472.48608 v -3.15104 h 14.192673 v 3.15104 z"
       id="path1695" />
    <path
       d="m 99.357608,482.40793 q 0,-0.96354 0.07813,-1.25 0.104166,-0.28646 0.520832,-0.72916 l 10.23435,-11.40622 q 5.59895,-6.30207 5.59895,-11.79685 0,-3.5677 -1.875,-6.11978 -1.84895,-2.55207 -5.2604,-2.55207 -2.34374,0 -4.32291,1.43229 -1.97916,1.43228 -2.89061,3.98436 0.15625,-0.0521 0.70312,-0.0521 1.32812,0 2.05729,0.83333 0.7552,0.83333 0.7552,1.95312 0,1.43229 -0.9375,2.13541 -0.91145,0.67708 -1.82291,0.67708 -0.36458,0 -0.85937,-0.0781 -0.46875,-0.0781 -1.22396,-0.80729 -0.755207,-0.75521 -0.755207,-2.08333 0,-3.72395 2.812497,-6.69269 2.83854,-2.96875 7.16144,-2.96875 4.89582,0 8.09894,2.91666 3.22916,2.89062 3.22916,7.42186 0,1.58854 -0.49479,3.04687 -0.46875,1.43229 -1.11979,2.55207 -0.625,1.11979 -2.34375,2.91666 -1.71874,1.79687 -3.09895,3.07291 -1.3802,1.27604 -4.47915,3.98437 l -5.65103,5.49478 h 9.60935 q 4.68749,0 5.05207,-0.41667 0.52083,-0.75521 1.17187,-4.73957 h 1.35416 l -1.51041,9.27081 z"
       id="path1697" />
    <path
       d="m 128.70649,481.54856 q -0.80729,-0.85938 -0.80729,-1.97917 0,-1.11978 0.80729,-1.92707 0.80729,-0.83334 2.03125,-0.83334 1.17187,0 1.95312,0.78125 0.80729,0.75521 0.80729,2.00521 0,1.22395 -0.85937,2.03124 -0.83334,0.78125 -1.90104,0.78125 -1.22396,0 -2.03125,-0.85937 z"
       id="path1699" />
    <path
       d="m 139.67001,473.60587 v -1.64062 l 16.38016,-25.02598 q 0.41667,-0.65104 1.06771,-0.625 0.59896,0 0.72916,0.23437 0.13021,0.23438 0.13021,1.14583 v 24.27078 h 5.33853 v 1.64062 h -5.33853 v 4.6354 q 0,1.53646 0.625,2.03125 0.65104,0.49479 3.41145,0.49479 h 1.11979 v 1.64062 q -2.1875,-0.15625 -7.23957,-0.15625 -5.02603,0 -7.21352,0.15625 v -1.64062 h 1.11979 q 2.76041,0 3.41145,-0.46875 0.65104,-0.49479 0.65104,-2.05729 v -4.6354 z m 1.51041,-1.64062 h 12.99476 v -19.89579 z"
       id="path1701" />
  </g>
  <g
     aria-label="2.4"
     id="text1655"
     style="font-size:53.3332px;font-family:'CMU Serif';-inkscape-font-specification:'CMU Serif';stroke-width:8;stroke-linecap:round;stroke-linejoin:round"
     transform="translate(-75.741105,-38.794107)">
    <path
       d="m 477.87753,484.27118 q 0,-0.96354 0.0781,-1.25 0.10417,-0.28646 0.52083,-0.72916 l 10.23435,-11.40622 q 5.59895,-6.30207 5.59895,-11.79685 0,-3.5677 -1.875,-6.11978 -1.84895,-2.55207 -5.2604,-2.55207 -2.34375,0 -4.32291,1.43229 -1.97916,1.43228 -2.89062,3.98436 0.15625,-0.0521 0.70313,-0.0521 1.32812,0 2.05728,0.83333 0.75521,0.83333 0.75521,1.95312 0,1.43229 -0.9375,2.13541 -0.91145,0.67708 -1.82291,0.67708 -0.36458,0 -0.85937,-0.0781 -0.46875,-0.0781 -1.22396,-0.80729 -0.7552,-0.75521 -0.7552,-2.08333 0,-3.72395 2.81249,-6.69269 2.83853,-2.96874 7.16144,-2.96874 4.89582,0 8.09894,2.91665 3.22916,2.89062 3.22916,7.42186 0,1.58854 -0.49479,3.04687 -0.46875,1.43229 -1.11979,2.55208 -0.625,1.11978 -2.34375,2.91665 -1.71874,1.79688 -3.09895,3.07291 -1.3802,1.27604 -4.47915,3.98437 l -5.65103,5.49478 h 9.60935 q 4.68749,0 5.05207,-0.41667 0.52083,-0.75521 1.17187,-4.73957 h 1.35417 l -1.51042,9.27081 z"
       id="path1704" />
    <path
       d="m 507.22641,483.41181 q -0.80729,-0.85938 -0.80729,-1.97917 0,-1.11978 0.80729,-1.92707 0.80729,-0.83333 2.03125,-0.83333 1.17187,0 1.95312,0.78124 0.80728,0.75521 0.80728,2.00521 0,1.22395 -0.85937,2.03124 -0.83333,0.78125 -1.90103,0.78125 -1.22396,0 -2.03125,-0.85937 z"
       id="path1706" />
    <path
       d="m 518.18992,475.46912 v -1.64062 l 16.38017,-25.02598 q 0.41666,-0.65104 1.0677,-0.625 0.59896,0 0.72917,0.23437 0.13021,0.23438 0.13021,1.14584 v 24.27077 h 5.33853 v 1.64062 h -5.33853 v 4.6354 q 0,1.53646 0.625,2.03125 0.65104,0.49479 3.41145,0.49479 h 1.11978 v 1.64062 q -2.18749,-0.15625 -7.23956,-0.15625 -5.02603,0 -7.21352,0.15625 v -1.64062 h 1.11979 q 2.7604,0 3.41144,-0.46875 0.65104,-0.49479 0.65104,-2.05729 v -4.6354 z m 1.51042,-1.64062 h 12.99475 v -19.89579 z"
       id="path1708" />
  </g>
</svg>
