<?xml version="1.0" encoding="utf-8"?>
<svg xmlns="http://www.w3.org/2000/svg" xmlns:xlink="http://www.w3.org/1999/xlink" width="350" height="100" viewBox="0 0 1400 400">
<defs>
  <clipPath id="clip000">
    <rect x="0" y="0" width="1400" height="400"/>
  </clipPath>
</defs>
<path clip-path="url(#clip000)" d="M0 400 L1400 400 L1400 0 L0 0  Z" fill="#ffffff" fill-rule="evenodd" fill-opacity="1"/>
<defs>
  <clipPath id="clip001">
    <rect x="280" y="0" width="981" height="400"/>
  </clipPath>
</defs>
<path clip-path="url(#clip000)" d="M263.105 253.736 L1352.76 253.736 L1352.76 94.4882 L263.105 94.4882  Z" fill="#ffffff" fill-rule="evenodd" fill-opacity="1"/>
<defs>
  <clipPath id="clip002">
    <rect x="263" y="94" width="1091" height="160"/>
  </clipPath>
</defs>
<polyline clip-path="url(#clip002)" style="stroke:#000000; stroke-linecap:round; stroke-linejoin:round; stroke-width:2; stroke-opacity:0.1; fill:none" points="357.756,253.736 357.756,94.4882 "/>
<polyline clip-path="url(#clip002)" style="stroke:#000000; stroke-linecap:round; stroke-linejoin:round; stroke-width:2; stroke-opacity:0.1; fill:none" points="657.572,253.736 657.572,94.4882 "/>
<polyline clip-path="url(#clip002)" style="stroke:#000000; stroke-linecap:round; stroke-linejoin:round; stroke-width:2; stroke-opacity:0.1; fill:none" points="957.389,253.736 957.389,94.4882 "/>
<polyline clip-path="url(#clip002)" style="stroke:#000000; stroke-linecap:round; stroke-linejoin:round; stroke-width:2; stroke-opacity:0.1; fill:none" points="1257.2,253.736 1257.2,94.4882 "/>
<polyline clip-path="url(#clip000)" style="stroke:#000000; stroke-linecap:round; stroke-linejoin:round; stroke-width:4; stroke-opacity:1; fill:none" points="263.105,253.736 1352.76,253.736 "/>
<polyline clip-path="url(#clip000)" style="stroke:#000000; stroke-linecap:round; stroke-linejoin:round; stroke-width:4; stroke-opacity:1; fill:none" points="357.756,253.736 357.756,234.839 "/>
<polyline clip-path="url(#clip000)" style="stroke:#000000; stroke-linecap:round; stroke-linejoin:round; stroke-width:4; stroke-opacity:1; fill:none" points="657.572,253.736 657.572,234.839 "/>
<polyline clip-path="url(#clip000)" style="stroke:#000000; stroke-linecap:round; stroke-linejoin:round; stroke-width:4; stroke-opacity:1; fill:none" points="957.389,253.736 957.389,234.839 "/>
<polyline clip-path="url(#clip000)" style="stroke:#000000; stroke-linecap:round; stroke-linejoin:round; stroke-width:4; stroke-opacity:1; fill:none" points="1257.2,253.736 1257.2,234.839 "/>
<path clip-path="url(#clip000)" d="M347.109 291.956 Q347.109 284.52 348.986 280.468 Q351.605 274.441 357.781 274.441 Q359.09 274.441 360.449 274.811 Q361.832 275.157 363.561 276.516 Q365.315 277.875 366.378 280.098 Q368.403 284.396 368.403 291.956 Q368.403 299.342 366.526 303.368 Q363.784 309.248 357.731 309.248 Q355.459 309.248 353.137 308.087 Q350.839 306.926 349.382 304.134 Q347.109 299.959 347.109 291.956 M351.309 291.338 Q351.309 298.971 351.852 302.01 Q352.47 305.295 354.149 306.728 Q355.854 308.136 357.731 308.136 Q359.757 308.136 361.437 306.629 Q363.141 305.098 363.66 301.812 Q364.228 298.576 364.204 291.338 Q364.204 284.298 363.71 281.481 Q363.043 278.196 361.264 276.886 Q359.51 275.553 357.731 275.553 Q357.064 275.553 356.348 275.75 Q355.656 275.948 354.644 276.516 Q353.631 277.084 352.84 278.492 Q352.074 279.9 351.704 282.025 Q351.309 284.767 351.309 291.338 Z" fill="#000000" fill-rule="nonzero" fill-opacity="1" /><path clip-path="url(#clip000)" d="M596.605 308.136 Q596.605 307.222 596.679 306.95 Q596.777 306.679 597.173 306.259 L606.881 295.439 Q612.192 289.461 612.192 284.248 Q612.192 280.864 610.414 278.443 Q608.66 276.022 605.424 276.022 Q603.2 276.022 601.323 277.381 Q599.445 278.739 598.581 281.16 Q598.729 281.111 599.248 281.111 Q600.508 281.111 601.199 281.901 Q601.916 282.692 601.916 283.754 Q601.916 285.113 601.026 285.78 Q600.162 286.422 599.297 286.422 Q598.951 286.422 598.482 286.348 Q598.037 286.274 597.321 285.582 Q596.605 284.866 596.605 283.606 Q596.605 280.073 599.272 277.257 Q601.965 274.441 606.066 274.441 Q610.71 274.441 613.749 277.208 Q616.812 279.95 616.812 284.248 Q616.812 285.755 616.343 287.138 Q615.898 288.497 615.28 289.559 Q614.687 290.622 613.057 292.326 Q611.427 294.031 610.117 295.241 Q608.808 296.452 605.868 299.021 L600.508 304.233 L609.623 304.233 Q614.07 304.233 614.416 303.838 Q614.91 303.121 615.527 299.342 L616.812 299.342 L615.379 308.136 L596.605 308.136 Z" fill="#000000" fill-rule="nonzero" fill-opacity="1" /><path clip-path="url(#clip000)" d="M621.357 291.956 Q621.357 284.52 623.235 280.468 Q625.853 274.441 632.029 274.441 Q633.338 274.441 634.697 274.811 Q636.081 275.157 637.81 276.516 Q639.564 277.875 640.626 280.098 Q642.652 284.396 642.652 291.956 Q642.652 299.342 640.774 303.368 Q638.032 309.248 631.98 309.248 Q629.707 309.248 627.385 308.087 Q625.088 306.926 623.63 304.134 Q621.357 299.959 621.357 291.956 M625.557 291.338 Q625.557 298.971 626.1 302.01 Q626.718 305.295 628.398 306.728 Q630.102 308.136 631.98 308.136 Q634.005 308.136 635.685 306.629 Q637.39 305.098 637.909 301.812 Q638.477 298.576 638.452 291.338 Q638.452 284.298 637.958 281.481 Q637.291 278.196 635.512 276.886 Q633.758 275.553 631.98 275.553 Q631.313 275.553 630.596 275.75 Q629.905 275.948 628.892 276.516 Q627.879 277.084 627.088 278.492 Q626.323 279.9 625.952 282.025 Q625.557 284.767 625.557 291.338 Z" fill="#000000" fill-rule="nonzero" fill-opacity="1" /><path clip-path="url(#clip000)" d="M646.654 291.956 Q646.654 284.52 648.531 280.468 Q651.15 274.441 657.325 274.441 Q658.635 274.441 659.993 274.811 Q661.377 275.157 663.106 276.516 Q664.86 277.875 665.922 280.098 Q667.948 284.396 667.948 291.956 Q667.948 299.342 666.07 303.368 Q663.328 309.248 657.276 309.248 Q655.003 309.248 652.681 308.087 Q650.384 306.926 648.926 304.134 Q646.654 299.959 646.654 291.956 M650.853 291.338 Q650.853 298.971 651.397 302.01 Q652.014 305.295 653.694 306.728 Q655.399 308.136 657.276 308.136 Q659.302 308.136 660.981 306.629 Q662.686 305.098 663.205 301.812 Q663.773 298.576 663.748 291.338 Q663.748 284.298 663.254 281.481 Q662.587 278.196 660.809 276.886 Q659.055 275.553 657.276 275.553 Q656.609 275.553 655.893 275.75 Q655.201 275.948 654.188 276.516 Q653.175 277.084 652.385 278.492 Q651.619 279.9 651.248 282.025 Q650.853 284.767 650.853 291.338 Z" fill="#000000" fill-rule="nonzero" fill-opacity="1" /><path clip-path="url(#clip000)" d="M671.95 291.956 Q671.95 284.52 673.827 280.468 Q676.446 274.441 682.622 274.441 Q683.931 274.441 685.29 274.811 Q686.673 275.157 688.402 276.516 Q690.156 277.875 691.218 280.098 Q693.244 284.396 693.244 291.956 Q693.244 299.342 691.367 303.368 Q688.625 309.248 682.572 309.248 Q680.3 309.248 677.977 308.087 Q675.68 306.926 674.222 304.134 Q671.95 299.959 671.95 291.956 M676.149 291.338 Q676.149 298.971 676.693 302.01 Q677.31 305.295 678.99 306.728 Q680.695 308.136 682.572 308.136 Q684.598 308.136 686.278 306.629 Q687.982 305.098 688.501 301.812 Q689.069 298.576 689.045 291.338 Q689.045 284.298 688.55 281.481 Q687.883 278.196 686.105 276.886 Q684.351 275.553 682.572 275.553 Q681.905 275.553 681.189 275.75 Q680.497 275.948 679.484 276.516 Q678.471 277.084 677.681 278.492 Q676.915 279.9 676.545 282.025 Q676.149 284.767 676.149 291.338 Z" fill="#000000" fill-rule="nonzero" fill-opacity="1" /><path clip-path="url(#clip000)" d="M697.246 291.956 Q697.246 284.52 699.123 280.468 Q701.742 274.441 707.918 274.441 Q709.227 274.441 710.586 274.811 Q711.969 275.157 713.698 276.516 Q715.452 277.875 716.515 280.098 Q718.54 284.396 718.54 291.956 Q718.54 299.342 716.663 303.368 Q713.921 309.248 707.868 309.248 Q705.596 309.248 703.274 308.087 Q700.976 306.926 699.519 304.134 Q697.246 299.959 697.246 291.956 M701.446 291.338 Q701.446 298.971 701.989 302.01 Q702.607 305.295 704.286 306.728 Q705.991 308.136 707.868 308.136 Q709.894 308.136 711.574 306.629 Q713.279 305.098 713.797 301.812 Q714.365 298.576 714.341 291.338 Q714.341 284.298 713.847 281.481 Q713.18 278.196 711.401 276.886 Q709.647 275.553 707.868 275.553 Q707.201 275.553 706.485 275.75 Q705.793 275.948 704.781 276.516 Q703.768 277.084 702.977 278.492 Q702.211 279.9 701.841 282.025 Q701.446 284.767 701.446 291.338 Z" fill="#000000" fill-rule="nonzero" fill-opacity="1" /><path clip-path="url(#clip000)" d="M895.865 299.787 L895.865 298.23 L911.403 274.49 Q911.799 273.873 912.416 273.897 Q912.984 273.897 913.108 274.12 Q913.231 274.342 913.231 275.207 L913.231 298.23 L918.296 298.23 L918.296 299.787 L913.231 299.787 L913.231 304.184 Q913.231 305.641 913.824 306.111 Q914.442 306.58 917.06 306.58 L918.123 306.58 L918.123 308.136 Q916.048 307.988 911.255 307.988 Q906.487 307.988 904.412 308.136 L904.412 306.58 L905.475 306.58 Q908.093 306.58 908.711 306.135 Q909.328 305.666 909.328 304.184 L909.328 299.787 L895.865 299.787 M897.298 298.23 L909.625 298.23 L909.625 279.357 L897.298 298.23 Z" fill="#000000" fill-rule="nonzero" fill-opacity="1" /><path clip-path="url(#clip000)" d="M921.729 291.956 Q921.729 284.52 923.607 280.468 Q926.225 274.441 932.401 274.441 Q933.711 274.441 935.069 274.811 Q936.453 275.157 938.182 276.516 Q939.936 277.875 940.998 280.098 Q943.024 284.396 943.024 291.956 Q943.024 299.342 941.146 303.368 Q938.404 309.248 932.352 309.248 Q930.079 309.248 927.757 308.087 Q925.46 306.926 924.002 304.134 Q921.729 299.959 921.729 291.956 M925.929 291.338 Q925.929 298.971 926.472 302.01 Q927.09 305.295 928.77 306.728 Q930.474 308.136 932.352 308.136 Q934.378 308.136 936.057 306.629 Q937.762 305.098 938.281 301.812 Q938.849 298.576 938.824 291.338 Q938.824 284.298 938.33 281.481 Q937.663 278.196 935.884 276.886 Q934.13 275.553 932.352 275.553 Q931.685 275.553 930.968 275.75 Q930.277 275.948 929.264 276.516 Q928.251 277.084 927.461 278.492 Q926.695 279.9 926.324 282.025 Q925.929 284.767 925.929 291.338 Z" fill="#000000" fill-rule="nonzero" fill-opacity="1" /><path clip-path="url(#clip000)" d="M947.026 291.956 Q947.026 284.52 948.903 280.468 Q951.522 274.441 957.697 274.441 Q959.007 274.441 960.365 274.811 Q961.749 275.157 963.478 276.516 Q965.232 277.875 966.294 280.098 Q968.32 284.396 968.32 291.956 Q968.32 299.342 966.442 303.368 Q963.7 309.248 957.648 309.248 Q955.375 309.248 953.053 308.087 Q950.756 306.926 949.298 304.134 Q947.026 299.959 947.026 291.956 M951.225 291.338 Q951.225 298.971 951.769 302.01 Q952.386 305.295 954.066 306.728 Q955.771 308.136 957.648 308.136 Q959.674 308.136 961.354 306.629 Q963.058 305.098 963.577 301.812 Q964.145 298.576 964.12 291.338 Q964.12 284.298 963.626 281.481 Q962.959 278.196 961.181 276.886 Q959.427 275.553 957.648 275.553 Q956.981 275.553 956.265 275.75 Q955.573 275.948 954.56 276.516 Q953.547 277.084 952.757 278.492 Q951.991 279.9 951.62 282.025 Q951.225 284.767 951.225 291.338 Z" fill="#000000" fill-rule="nonzero" fill-opacity="1" /><path clip-path="url(#clip000)" d="M972.322 291.956 Q972.322 284.52 974.199 280.468 Q976.818 274.441 982.994 274.441 Q984.303 274.441 985.662 274.811 Q987.045 275.157 988.774 276.516 Q990.528 277.875 991.591 280.098 Q993.616 284.396 993.616 291.956 Q993.616 299.342 991.739 303.368 Q988.997 309.248 982.944 309.248 Q980.672 309.248 978.35 308.087 Q976.052 306.926 974.595 304.134 Q972.322 299.959 972.322 291.956 M976.521 291.338 Q976.521 298.971 977.065 302.01 Q977.683 305.295 979.362 306.728 Q981.067 308.136 982.944 308.136 Q984.97 308.136 986.65 306.629 Q988.354 305.098 988.873 301.812 Q989.441 298.576 989.417 291.338 Q989.417 284.298 988.923 281.481 Q988.256 278.196 986.477 276.886 Q984.723 275.553 982.944 275.553 Q982.277 275.553 981.561 275.75 Q980.869 275.948 979.856 276.516 Q978.844 277.084 978.053 278.492 Q977.287 279.9 976.917 282.025 Q976.521 284.767 976.521 291.338 Z" fill="#000000" fill-rule="nonzero" fill-opacity="1" /><path clip-path="url(#clip000)" d="M997.618 291.956 Q997.618 284.52 999.496 280.468 Q1002.11 274.441 1008.29 274.441 Q1009.6 274.441 1010.96 274.811 Q1012.34 275.157 1014.07 276.516 Q1015.82 277.875 1016.89 280.098 Q1018.91 284.396 1018.91 291.956 Q1018.91 299.342 1017.03 303.368 Q1014.29 309.248 1008.24 309.248 Q1005.97 309.248 1003.65 308.087 Q1001.35 306.926 999.891 304.134 Q997.618 299.959 997.618 291.956 M1001.82 291.338 Q1001.82 298.971 1002.36 302.01 Q1002.98 305.295 1004.66 306.728 Q1006.36 308.136 1008.24 308.136 Q1010.27 308.136 1011.95 306.629 Q1013.65 305.098 1014.17 301.812 Q1014.74 298.576 1014.71 291.338 Q1014.71 284.298 1014.22 281.481 Q1013.55 278.196 1011.77 276.886 Q1010.02 275.553 1008.24 275.553 Q1007.57 275.553 1006.86 275.75 Q1006.17 275.948 1005.15 276.516 Q1004.14 277.084 1003.35 278.492 Q1002.58 279.9 1002.21 282.025 Q1001.82 284.767 1001.82 291.338 Z" fill="#000000" fill-rule="nonzero" fill-opacity="1" /><path clip-path="url(#clip000)" d="M1196.04 292.153 Q1196.04 284.199 1200.09 279.332 Q1204.14 274.441 1209.35 274.441 Q1212.39 274.441 1214.07 275.997 Q1215.78 277.529 1215.78 279.9 Q1215.78 281.21 1215.01 281.778 Q1214.25 282.346 1213.46 282.346 Q1212.54 282.346 1211.82 281.728 Q1211.11 281.111 1211.11 279.999 Q1211.11 277.726 1213.9 277.726 Q1212.59 275.701 1209.45 275.701 Q1208.49 275.701 1207.5 275.997 Q1206.51 276.269 1205.23 277.208 Q1203.94 278.146 1202.96 279.629 Q1201.97 281.111 1201.28 283.902 Q1200.58 286.694 1200.58 290.325 L1200.58 291.536 Q1202.66 286.521 1206.91 286.546 Q1211.16 286.546 1214.1 289.782 Q1217.04 293.018 1217.04 297.81 Q1217.04 302.726 1213.97 305.987 Q1210.91 309.248 1206.61 309.248 Q1204.69 309.248 1202.93 308.433 Q1201.2 307.642 1199.57 305.814 Q1197.97 303.986 1197 300.478 Q1196.04 296.97 1196.04 292.153 M1200.68 296.699 Q1200.68 301.664 1201.6 304.035 Q1201.75 304.431 1202.07 304.974 Q1202.41 305.518 1202.98 306.234 Q1203.57 306.926 1204.54 307.395 Q1205.5 307.84 1206.61 307.84 Q1210 307.84 1211.63 304.554 Q1212.49 302.726 1212.49 297.761 Q1212.49 292.697 1211.58 290.844 Q1210.02 287.707 1206.86 287.707 Q1204.74 287.707 1203.25 289.164 Q1201.8 290.622 1201.23 292.573 Q1200.68 294.525 1200.68 296.699 Z" fill="#000000" fill-rule="nonzero" fill-opacity="1" /><path clip-path="url(#clip000)" d="M1221.19 291.956 Q1221.19 284.52 1223.06 280.468 Q1225.68 274.441 1231.86 274.441 Q1233.17 274.441 1234.53 274.811 Q1235.91 275.157 1237.64 276.516 Q1239.39 277.875 1240.46 280.098 Q1242.48 284.396 1242.48 291.956 Q1242.48 299.342 1240.6 303.368 Q1237.86 309.248 1231.81 309.248 Q1229.54 309.248 1227.22 308.087 Q1224.92 306.926 1223.46 304.134 Q1221.19 299.959 1221.19 291.956 M1225.39 291.338 Q1225.39 298.971 1225.93 302.01 Q1226.55 305.295 1228.23 306.728 Q1229.93 308.136 1231.81 308.136 Q1233.84 308.136 1235.52 306.629 Q1237.22 305.098 1237.74 301.812 Q1238.31 298.576 1238.28 291.338 Q1238.28 284.298 1237.79 281.481 Q1237.12 278.196 1235.34 276.886 Q1233.59 275.553 1231.81 275.553 Q1231.14 275.553 1230.43 275.75 Q1229.73 275.948 1228.72 276.516 Q1227.71 277.084 1226.92 278.492 Q1226.15 279.9 1225.78 282.025 Q1225.39 284.767 1225.39 291.338 Z" fill="#000000" fill-rule="nonzero" fill-opacity="1" /><path clip-path="url(#clip000)" d="M1246.48 291.956 Q1246.48 284.52 1248.36 280.468 Q1250.98 274.441 1257.16 274.441 Q1258.46 274.441 1259.82 274.811 Q1261.21 275.157 1262.94 276.516 Q1264.69 277.875 1265.75 280.098 Q1267.78 284.396 1267.78 291.956 Q1267.78 299.342 1265.9 303.368 Q1263.16 309.248 1257.11 309.248 Q1254.83 309.248 1252.51 308.087 Q1250.21 306.926 1248.76 304.134 Q1246.48 299.959 1246.48 291.956 M1250.68 291.338 Q1250.68 298.971 1251.23 302.01 Q1251.84 305.295 1253.52 306.728 Q1255.23 308.136 1257.11 308.136 Q1259.13 308.136 1260.81 306.629 Q1262.52 305.098 1263.03 301.812 Q1263.6 298.576 1263.58 291.338 Q1263.58 284.298 1263.08 281.481 Q1262.42 278.196 1260.64 276.886 Q1258.88 275.553 1257.11 275.553 Q1256.44 275.553 1255.72 275.75 Q1255.03 275.948 1254.02 276.516 Q1253.01 277.084 1252.21 278.492 Q1251.45 279.9 1251.08 282.025 Q1250.68 284.767 1250.68 291.338 Z" fill="#000000" fill-rule="nonzero" fill-opacity="1" /><path clip-path="url(#clip000)" d="M1271.78 291.956 Q1271.78 284.52 1273.66 280.468 Q1276.28 274.441 1282.45 274.441 Q1283.76 274.441 1285.12 274.811 Q1286.5 275.157 1288.23 276.516 Q1289.99 277.875 1291.05 280.098 Q1293.07 284.396 1293.07 291.956 Q1293.07 299.342 1291.2 303.368 Q1288.45 309.248 1282.4 309.248 Q1280.13 309.248 1277.81 308.087 Q1275.51 306.926 1274.05 304.134 Q1271.78 299.959 1271.78 291.956 M1275.98 291.338 Q1275.98 298.971 1276.52 302.01 Q1277.14 305.295 1278.82 306.728 Q1280.52 308.136 1282.4 308.136 Q1284.43 308.136 1286.11 306.629 Q1287.81 305.098 1288.33 301.812 Q1288.9 298.576 1288.87 291.338 Q1288.87 284.298 1288.38 281.481 Q1287.71 278.196 1285.93 276.886 Q1284.18 275.553 1282.4 275.553 Q1281.74 275.553 1281.02 275.75 Q1280.33 275.948 1279.31 276.516 Q1278.3 277.084 1277.51 278.492 Q1276.75 279.9 1276.37 282.025 Q1275.98 284.767 1275.98 291.338 Z" fill="#000000" fill-rule="nonzero" fill-opacity="1" /><path clip-path="url(#clip000)" d="M1297.08 291.956 Q1297.08 284.52 1298.95 280.468 Q1301.57 274.441 1307.75 274.441 Q1309.06 274.441 1310.42 274.811 Q1311.8 275.157 1313.53 276.516 Q1315.28 277.875 1316.34 280.098 Q1318.37 284.396 1318.37 291.956 Q1318.37 299.342 1316.49 303.368 Q1313.75 309.248 1307.7 309.248 Q1305.43 309.248 1303.1 308.087 Q1300.81 306.926 1299.35 304.134 Q1297.08 299.959 1297.08 291.956 M1301.28 291.338 Q1301.28 298.971 1301.82 302.01 Q1302.44 305.295 1304.12 306.728 Q1305.82 308.136 1307.7 308.136 Q1309.72 308.136 1311.4 306.629 Q1313.11 305.098 1313.63 301.812 Q1314.2 298.576 1314.17 291.338 Q1314.17 284.298 1313.68 281.481 Q1313.01 278.196 1311.23 276.886 Q1309.48 275.553 1307.7 275.553 Q1307.03 275.553 1306.32 275.75 Q1305.62 275.948 1304.61 276.516 Q1303.6 277.084 1302.81 278.492 Q1302.04 279.9 1301.67 282.025 Q1301.28 284.767 1301.28 291.338 Z" fill="#000000" fill-rule="nonzero" fill-opacity="1" /><path clip-path="url(#clip000)" d="M473.966 352.147 L475.29 336.522 L517.783 336.522 L519.108 352.147 L517.376 352.147 Q517.104 349.022 516.832 347.221 Q516.594 345.421 515.983 343.723 Q515.405 341.991 514.658 341.175 Q513.945 340.326 512.552 339.681 Q511.16 339.001 509.359 338.832 Q507.559 338.662 504.842 338.662 Q501.649 338.662 500.868 338.798 Q500.018 339.001 499.815 339.613 Q499.611 340.19 499.611 341.447 L499.611 378.098 Q499.611 379.49 499.882 380.068 Q500.188 380.611 501.785 381.053 Q503.381 381.46 506.914 381.46 L509.699 381.46 L509.699 383.6 Q506.846 383.396 496.486 383.396 Q486.194 383.396 483.34 383.6 L483.34 381.46 L486.126 381.46 Q489.658 381.46 491.255 381.053 Q492.885 380.611 493.157 380.068 Q493.429 379.49 493.429 378.098 L493.429 341.447 Q493.429 340.462 493.361 340.054 Q493.293 339.647 492.987 339.307 Q492.681 338.933 491.968 338.798 Q491.289 338.662 488.232 338.662 Q485.514 338.662 483.68 338.832 Q481.88 339.001 480.487 339.681 Q479.095 340.326 478.347 341.175 Q477.634 341.991 477.023 343.723 Q476.445 345.421 476.207 347.221 Q475.97 349.022 475.698 352.147 L473.966 352.147 Z" fill="#000000" fill-rule="nonzero" fill-opacity="1" /><path clip-path="url(#clip000)" d="M522.403 379.864 Q517.817 375.312 517.817 368.723 Q517.817 362.099 522.301 357.276 Q526.818 352.418 533.272 352.418 Q539.59 352.418 544.108 357.242 Q548.659 362.031 548.659 368.723 Q548.659 375.278 544.074 379.83 Q539.522 384.381 533.204 384.381 Q527.022 384.381 522.403 379.864 M523.592 368.145 Q523.592 374.905 525.358 377.962 Q528.075 382.615 533.272 382.615 Q535.854 382.615 537.994 381.223 Q540.167 379.83 541.356 377.486 Q542.885 374.429 542.885 368.145 Q542.885 361.454 541.051 358.499 Q538.333 353.981 533.204 353.981 Q530.962 353.981 528.755 355.17 Q526.581 356.325 525.256 358.634 Q523.592 361.691 523.592 368.145 Z" fill="#000000" fill-rule="nonzero" fill-opacity="1" /><path clip-path="url(#clip000)" d="M551.988 355.781 L551.988 354.253 Q555.181 354.117 557.287 351.875 Q559.427 349.599 560.14 346.814 Q560.887 344.029 560.955 340.802 L562.688 340.802 L562.688 353.607 L572.64 353.607 L572.64 355.781 L562.688 355.781 L562.688 375.108 Q562.688 382.615 567.375 382.615 Q569.379 382.615 570.704 380.577 Q572.029 378.505 572.029 374.837 L572.029 370.998 L573.761 370.998 L573.761 374.973 Q573.761 378.743 572.029 381.562 Q570.296 384.381 566.866 384.381 Q565.609 384.381 564.352 384.042 Q563.129 383.736 561.499 382.921 Q559.902 382.072 558.883 380.034 Q557.898 377.962 557.898 374.973 L557.898 355.781 L551.988 355.781 Z" fill="#000000" fill-rule="nonzero" fill-opacity="1" /><path clip-path="url(#clip000)" d="M580.554 376.977 Q580.554 371.066 587.518 367.941 Q591.696 365.937 600.323 365.428 L600.323 362.88 Q600.323 358.566 598.047 356.291 Q595.806 353.981 592.952 353.981 Q587.857 353.981 585.412 357.174 Q587.484 357.242 588.231 358.295 Q588.978 359.314 588.978 360.367 Q588.978 361.759 588.095 362.676 Q587.246 363.56 585.785 363.56 Q584.393 363.56 583.476 362.71 Q582.558 361.827 582.558 360.299 Q582.558 356.902 585.615 354.66 Q588.706 352.418 593.088 352.418 Q598.795 352.418 602.599 356.257 Q603.788 357.446 604.365 358.974 Q604.977 360.503 605.045 361.522 Q605.113 362.507 605.113 364.477 L605.113 378.369 Q605.113 378.777 605.248 379.456 Q605.384 380.136 605.996 381.019 Q606.641 381.868 607.694 381.868 Q610.208 381.868 610.174 377.418 L610.174 373.512 L611.94 373.512 L611.94 377.418 Q611.94 381.121 609.97 382.581 Q608.034 384.008 606.234 384.008 Q603.924 384.008 602.463 382.309 Q601.003 380.611 600.799 378.301 Q599.746 380.951 597.334 382.683 Q594.956 384.381 591.696 384.381 Q589.182 384.381 586.804 383.736 Q584.461 383.125 582.491 381.392 Q580.554 379.626 580.554 376.977 M585.921 376.909 Q585.921 379.49 587.755 381.155 Q589.59 382.819 592.171 382.819 Q595.092 382.819 597.708 380.577 Q600.323 378.301 600.323 373.852 L600.323 366.888 Q592.613 367.16 589.25 370.251 Q585.921 373.308 585.921 376.909 Z" fill="#000000" fill-rule="nonzero" fill-opacity="1" /><path clip-path="url(#clip000)" d="M614.725 383.6 L614.725 381.46 Q618.428 381.46 619.277 381.019 Q620.126 380.543 620.126 378.301 L620.126 342.126 Q620.126 339.545 619.209 338.9 Q618.326 338.254 614.725 338.254 L614.725 336.08 L624.712 335.333 L624.712 378.301 Q624.712 380.543 625.595 381.019 Q626.478 381.46 630.146 381.46 L630.146 383.6 Q629.297 383.6 627.531 383.532 Q625.765 383.464 624.474 383.43 Q623.183 383.396 622.436 383.396 Q621.621 383.396 614.725 383.6 Z" fill="#000000" fill-rule="nonzero" fill-opacity="1" /><path clip-path="url(#clip000)" d="M656.743 368.281 Q656.743 361.725 660.955 357.072 Q665.166 352.418 671.213 352.418 Q677.327 352.418 680.486 356.393 Q683.679 360.367 683.679 366.073 Q683.679 367.126 683.407 367.33 Q683.135 367.534 681.946 367.534 L662.517 367.534 Q662.517 374.633 664.623 377.962 Q667.544 382.615 672.469 382.615 Q673.149 382.615 673.964 382.479 Q674.779 382.343 676.444 381.766 Q678.108 381.155 679.569 379.558 Q681.029 377.962 681.878 375.448 Q682.082 374.463 682.761 374.497 Q683.679 374.497 683.679 375.312 Q683.679 375.924 682.999 377.316 Q682.354 378.675 681.097 380.305 Q679.84 381.936 677.395 383.159 Q674.983 384.381 672.062 384.381 Q665.948 384.381 661.328 379.762 Q656.743 375.108 656.743 368.281 M662.585 366.073 L679.093 366.073 Q679.093 364.613 678.821 362.982 Q678.583 361.352 677.836 359.11 Q677.123 356.834 675.425 355.408 Q673.726 353.981 671.213 353.981 Q670.092 353.981 668.869 354.456 Q667.68 354.932 666.219 356.087 Q664.759 357.242 663.74 359.857 Q662.721 362.473 662.585 366.073 Z" fill="#000000" fill-rule="nonzero" fill-opacity="1" /><path clip-path="url(#clip000)" d="M687.619 394.945 Q691.321 394.945 692.17 394.47 Q693.053 394.028 693.053 391.82 L693.053 359.246 Q693.053 356.936 692.17 356.359 Q691.321 355.781 687.619 355.781 L687.619 353.607 L697.639 352.86 L697.639 357.446 Q701.817 352.86 707.388 352.86 Q713.298 352.86 717.612 357.446 Q721.926 362.031 721.926 368.587 Q721.926 375.21 717.34 379.796 Q712.754 384.381 706.403 384.381 Q702.938 384.381 700.594 382.615 Q698.284 380.815 697.843 379.49 L697.843 380.136 L697.843 391.82 Q697.843 394.062 698.726 394.504 Q699.609 394.945 703.278 394.945 L703.278 397.085 Q695.975 396.881 695.431 396.881 Q694.752 396.881 687.619 397.085 L687.619 394.945 M697.843 375.686 Q697.843 376.739 697.979 377.113 Q698.149 377.486 698.828 378.607 Q701.579 382.819 706.063 382.819 Q706.097 382.819 706.131 382.819 Q710.105 382.819 713.128 378.777 Q716.151 374.701 716.151 368.587 Q716.151 362.744 713.4 358.668 Q710.648 354.592 706.844 354.592 Q704.127 354.592 701.749 356.053 Q699.371 357.513 697.843 360.163 L697.843 375.686 Z" fill="#000000" fill-rule="nonzero" fill-opacity="1" /><path clip-path="url(#clip000)" d="M726.579 383.6 L726.579 381.46 Q730.281 381.46 731.131 381.019 Q731.98 380.543 731.98 378.301 L731.98 359.585 Q731.98 357.004 731.097 356.393 Q730.247 355.781 726.851 355.781 L726.851 353.607 L736.565 352.86 L736.565 378.369 Q736.565 380.441 737.313 380.951 Q738.06 381.46 741.457 381.46 L741.457 383.6 Q734.358 383.396 734.222 383.396 Q733.271 383.396 726.579 383.6 M729.5 340.734 Q729.5 339.341 730.553 338.22 Q731.64 337.065 733.169 337.065 Q734.697 337.065 735.784 338.118 Q736.871 339.137 736.871 340.768 Q736.871 342.364 735.784 343.417 Q734.697 344.436 733.169 344.436 Q731.572 344.436 730.519 343.315 Q729.5 342.194 729.5 340.734 Z" fill="#000000" fill-rule="nonzero" fill-opacity="1" /><path clip-path="url(#clip000)" d="M745.838 382.683 L745.838 373.512 Q745.838 372.731 745.872 372.459 Q745.906 372.187 746.11 371.983 Q746.314 371.78 746.722 371.78 Q747.197 371.78 747.367 371.983 Q747.571 372.187 747.707 372.969 Q748.76 377.758 751.001 380.305 Q753.277 382.819 757.387 382.819 Q761.293 382.819 763.264 381.087 Q765.234 379.354 765.234 376.501 Q765.234 371.406 757.999 370.115 Q753.821 369.266 752.088 368.723 Q750.356 368.145 748.828 366.888 Q745.838 364.443 745.838 360.978 Q745.838 357.513 748.454 354.966 Q751.103 352.418 756.946 352.418 Q760.852 352.418 763.501 354.389 Q764.283 353.777 764.69 353.268 Q765.607 352.418 766.083 352.418 Q766.626 352.418 766.728 352.792 Q766.83 353.132 766.83 354.117 L766.83 361.114 Q766.83 361.895 766.796 362.167 Q766.762 362.439 766.558 362.643 Q766.355 362.812 765.913 362.812 Q765.132 362.812 765.098 362.167 Q764.554 353.743 756.946 353.743 Q752.836 353.743 751.001 355.34 Q749.167 356.902 749.167 359.042 Q749.167 360.231 749.711 361.148 Q750.288 362.031 751.001 362.575 Q751.749 363.084 753.107 363.594 Q754.466 364.069 755.281 364.239 Q756.13 364.409 757.727 364.748 Q763.297 365.801 765.641 368.077 Q768.562 370.998 768.562 374.701 Q768.562 378.811 765.777 381.596 Q762.992 384.381 757.387 384.381 Q752.87 384.381 749.711 381.358 Q749.303 381.766 748.997 382.14 Q748.692 382.479 748.556 382.615 Q748.454 382.751 748.42 382.853 Q748.386 382.921 748.318 382.989 Q746.925 384.381 746.586 384.381 Q746.042 384.381 745.94 384.008 Q745.838 383.668 745.838 382.683 Z" fill="#000000" fill-rule="nonzero" fill-opacity="1" /><path clip-path="url(#clip000)" d="M777.428 379.864 Q772.842 375.312 772.842 368.723 Q772.842 362.099 777.326 357.276 Q781.844 352.418 788.297 352.418 Q794.615 352.418 799.133 357.242 Q803.684 362.031 803.684 368.723 Q803.684 375.278 799.099 379.83 Q794.547 384.381 788.229 384.381 Q782.047 384.381 777.428 379.864 M778.617 368.145 Q778.617 374.905 780.383 377.962 Q783.1 382.615 788.297 382.615 Q790.879 382.615 793.019 381.223 Q795.193 379.83 796.381 377.486 Q797.91 374.429 797.91 368.145 Q797.91 361.454 796.076 358.499 Q793.358 353.981 788.229 353.981 Q785.988 353.981 783.78 355.17 Q781.606 356.325 780.281 358.634 Q778.617 361.691 778.617 368.145 Z" fill="#000000" fill-rule="nonzero" fill-opacity="1" /><path clip-path="url(#clip000)" d="M810.002 368.655 Q810.002 362.031 814.622 357.446 Q819.241 352.86 825.491 352.86 Q830.79 352.86 834.255 357.174 L834.255 342.126 Q834.255 339.545 833.338 338.9 Q832.455 338.254 828.854 338.254 L828.854 336.08 L838.874 335.333 L838.874 377.554 Q838.874 380.136 839.757 380.815 Q840.675 381.46 844.275 381.46 L844.275 383.6 L834.051 384.381 L834.051 379.762 Q830.45 384.348 824.744 384.381 Q818.766 384.381 814.384 379.796 Q810.002 375.21 810.002 368.655 M815.777 368.723 Q815.777 375.176 817.781 378.369 Q820.566 382.819 825.084 382.819 Q830.247 382.819 833.304 377.962 Q834.085 376.773 834.051 375.38 L834.051 361.114 Q834.051 359.721 833.304 358.566 Q830.45 354.389 825.797 354.389 Q820.94 354.389 817.917 358.838 Q815.777 362.167 815.777 368.723 Z" fill="#000000" fill-rule="nonzero" fill-opacity="1" /><path clip-path="url(#clip000)" d="M848.147 368.281 Q848.147 361.725 852.359 357.072 Q856.571 352.418 862.617 352.418 Q868.731 352.418 871.89 356.393 Q875.083 360.367 875.083 366.073 Q875.083 367.126 874.812 367.33 Q874.54 367.534 873.351 367.534 L853.922 367.534 Q853.922 374.633 856.028 377.962 Q858.949 382.615 863.874 382.615 Q864.553 382.615 865.369 382.479 Q866.184 382.343 867.848 381.766 Q869.513 381.155 870.973 379.558 Q872.434 377.962 873.283 375.448 Q873.487 374.463 874.166 374.497 Q875.083 374.497 875.083 375.312 Q875.083 375.924 874.404 377.316 Q873.759 378.675 872.502 380.305 Q871.245 381.936 868.799 383.159 Q866.388 384.381 863.467 384.381 Q857.352 384.381 852.733 379.762 Q848.147 375.108 848.147 368.281 M853.99 366.073 L870.498 366.073 Q870.498 364.613 870.226 362.982 Q869.988 361.352 869.241 359.11 Q868.528 356.834 866.829 355.408 Q865.131 353.981 862.617 353.981 Q861.496 353.981 860.274 354.456 Q859.085 354.932 857.624 356.087 Q856.164 357.242 855.145 359.857 Q854.126 362.473 853.99 366.073 Z" fill="#000000" fill-rule="nonzero" fill-opacity="1" /><path clip-path="url(#clip000)" d="M879.397 382.683 L879.397 373.512 Q879.397 372.731 879.431 372.459 Q879.465 372.187 879.669 371.983 Q879.873 371.78 880.28 371.78 Q880.756 371.78 880.926 371.983 Q881.129 372.187 881.265 372.969 Q882.318 377.758 884.56 380.305 Q886.836 382.819 890.946 382.819 Q894.852 382.819 896.822 381.087 Q898.792 379.354 898.792 376.501 Q898.792 371.406 891.557 370.115 Q887.379 369.266 885.647 368.723 Q883.915 368.145 882.386 366.888 Q879.397 364.443 879.397 360.978 Q879.397 357.513 882.013 354.966 Q884.662 352.418 890.504 352.418 Q894.411 352.418 897.06 354.389 Q897.841 353.777 898.249 353.268 Q899.166 352.418 899.642 352.418 Q900.185 352.418 900.287 352.792 Q900.389 353.132 900.389 354.117 L900.389 361.114 Q900.389 361.895 900.355 362.167 Q900.321 362.439 900.117 362.643 Q899.913 362.812 899.472 362.812 Q898.69 362.812 898.656 362.167 Q898.113 353.743 890.504 353.743 Q886.394 353.743 884.56 355.34 Q882.726 356.902 882.726 359.042 Q882.726 360.231 883.269 361.148 Q883.847 362.031 884.56 362.575 Q885.307 363.084 886.666 363.594 Q888.025 364.069 888.84 364.239 Q889.689 364.409 891.286 364.748 Q896.856 365.801 899.2 368.077 Q902.121 370.998 902.121 374.701 Q902.121 378.811 899.336 381.596 Q896.551 384.381 890.946 384.381 Q886.428 384.381 883.269 381.358 Q882.862 381.766 882.556 382.14 Q882.25 382.479 882.114 382.615 Q882.013 382.751 881.979 382.853 Q881.945 382.921 881.877 382.989 Q880.484 384.381 880.144 384.381 Q879.601 384.381 879.499 384.008 Q879.397 383.668 879.397 382.683 Z" fill="#000000" fill-rule="nonzero" fill-opacity="1" /><path clip-path="url(#clip000)" d="M928.921 355.781 L928.921 354.253 Q932.114 354.117 934.22 351.875 Q936.36 349.599 937.073 346.814 Q937.821 344.029 937.888 340.802 L939.621 340.802 L939.621 353.607 L949.573 353.607 L949.573 355.781 L939.621 355.781 L939.621 375.108 Q939.621 382.615 944.308 382.615 Q946.312 382.615 947.637 380.577 Q948.962 378.505 948.962 374.837 L948.962 370.998 L950.694 370.998 L950.694 374.973 Q950.694 378.743 948.962 381.562 Q947.229 384.381 943.799 384.381 Q942.542 384.381 941.285 384.042 Q940.062 383.736 938.432 382.921 Q936.836 382.072 935.816 380.034 Q934.831 377.962 934.831 374.973 L934.831 355.781 L928.921 355.781 Z" fill="#000000" fill-rule="nonzero" fill-opacity="1" /><path clip-path="url(#clip000)" d="M956.502 383.6 L956.502 381.46 Q960.205 381.46 961.054 381.019 Q961.937 380.543 961.937 378.301 L961.937 359.653 Q961.937 357.072 961.02 356.427 Q960.137 355.781 956.502 355.781 L956.502 353.607 L966.183 352.86 L966.183 360.503 Q967.168 357.513 969.24 355.204 Q971.346 352.86 974.743 352.86 Q976.985 352.86 978.411 354.117 Q979.872 355.374 979.872 357.106 Q979.872 358.634 978.921 359.416 Q978.004 360.163 976.883 360.163 Q975.626 360.163 974.743 359.382 Q973.894 358.566 973.894 357.174 Q973.894 356.325 974.267 355.679 Q974.675 355 974.981 354.762 Q975.286 354.524 975.49 354.456 Q975.354 354.389 974.743 354.389 Q970.905 354.389 968.697 358.227 Q966.523 362.031 966.523 367.466 L966.523 378.166 Q966.523 380.17 967.338 380.815 Q968.187 381.46 971.822 381.46 L973.282 381.46 L973.282 383.6 Q970.497 383.396 964.451 383.396 Q963.602 383.396 962.277 383.43 Q960.952 383.464 959.22 383.532 Q957.488 383.6 956.502 383.6 Z" fill="#000000" fill-rule="nonzero" fill-opacity="1" /><path clip-path="url(#clip000)" d="M984.661 376.977 Q984.661 371.066 991.624 367.941 Q995.802 365.937 1004.43 365.428 L1004.43 362.88 Q1004.43 358.566 1002.15 356.291 Q999.912 353.981 997.059 353.981 Q991.964 353.981 989.519 357.174 Q991.591 357.242 992.338 358.295 Q993.085 359.314 993.085 360.367 Q993.085 361.759 992.202 362.676 Q991.353 363.56 989.892 363.56 Q988.499 363.56 987.582 362.71 Q986.665 361.827 986.665 360.299 Q986.665 356.902 989.722 354.66 Q992.813 352.418 997.195 352.418 Q1002.9 352.418 1006.71 356.257 Q1007.89 357.446 1008.47 358.974 Q1009.08 360.503 1009.15 361.522 Q1009.22 362.507 1009.22 364.477 L1009.22 378.369 Q1009.22 378.777 1009.36 379.456 Q1009.49 380.136 1010.1 381.019 Q1010.75 381.868 1011.8 381.868 Q1014.31 381.868 1014.28 377.418 L1014.28 373.512 L1016.05 373.512 L1016.05 377.418 Q1016.05 381.121 1014.08 382.581 Q1012.14 384.008 1010.34 384.008 Q1008.03 384.008 1006.57 382.309 Q1005.11 380.611 1004.91 378.301 Q1003.85 380.951 1001.44 382.683 Q999.063 384.381 995.802 384.381 Q993.289 384.381 990.911 383.736 Q988.567 383.125 986.597 381.392 Q984.661 379.626 984.661 376.977 M990.028 376.909 Q990.028 379.49 991.862 381.155 Q993.696 382.819 996.278 382.819 Q999.199 382.819 1001.81 380.577 Q1004.43 378.301 1004.43 373.852 L1004.43 366.888 Q996.72 367.16 993.357 370.251 Q990.028 373.308 990.028 376.909 Z" fill="#000000" fill-rule="nonzero" fill-opacity="1" /><path clip-path="url(#clip000)" d="M1018.83 383.6 L1018.83 381.46 Q1022.53 381.46 1023.38 381.019 Q1024.23 380.543 1024.23 378.301 L1024.23 359.585 Q1024.23 357.004 1023.35 356.393 Q1022.5 355.781 1019.1 355.781 L1019.1 353.607 L1028.82 352.86 L1028.82 378.369 Q1028.82 380.441 1029.57 380.951 Q1030.31 381.46 1033.71 381.46 L1033.71 383.6 Q1026.61 383.396 1026.47 383.396 Q1025.52 383.396 1018.83 383.6 M1021.75 340.734 Q1021.75 339.341 1022.81 338.22 Q1023.89 337.065 1025.42 337.065 Q1026.95 337.065 1028.04 338.118 Q1029.12 339.137 1029.12 340.768 Q1029.12 342.364 1028.04 343.417 Q1026.95 344.436 1025.42 344.436 Q1023.83 344.436 1022.77 343.315 Q1021.75 342.194 1021.75 340.734 Z" fill="#000000" fill-rule="nonzero" fill-opacity="1" /><path clip-path="url(#clip000)" d="M1038.02 383.6 L1038.02 381.46 Q1041.73 381.46 1042.58 381.019 Q1043.42 380.543 1043.42 378.301 L1043.42 359.653 Q1043.42 357.072 1042.51 356.427 Q1041.62 355.781 1038.02 355.781 L1038.02 353.607 L1047.81 352.86 L1047.81 360.163 Q1051.07 352.86 1058.1 352.86 Q1063.33 352.86 1065.4 355.442 Q1066.93 357.174 1067.24 359.11 Q1067.57 361.046 1067.57 366.073 L1067.57 379.354 Q1067.64 380.815 1068.76 381.155 Q1069.88 381.46 1073.01 381.46 L1073.01 383.6 Q1065.91 383.396 1065.2 383.396 Q1064.65 383.396 1057.35 383.6 L1057.35 381.46 Q1061.05 381.46 1061.9 381.019 Q1062.79 380.543 1062.79 378.301 L1062.79 362.099 Q1062.79 358.566 1061.7 356.494 Q1060.61 354.389 1057.62 354.389 Q1054.02 354.389 1051.13 357.412 Q1048.25 360.435 1048.25 365.53 L1048.25 378.301 Q1048.25 380.543 1049.1 381.019 Q1049.98 381.46 1053.65 381.46 L1053.65 383.6 Q1046.55 383.396 1045.87 383.396 Q1045.33 383.396 1038.02 383.6 Z" fill="#000000" fill-rule="nonzero" fill-opacity="1" /><path clip-path="url(#clip000)" d="M1076.3 368.281 Q1076.3 361.725 1080.52 357.072 Q1084.73 352.418 1090.77 352.418 Q1096.89 352.418 1100.05 356.393 Q1103.24 360.367 1103.24 366.073 Q1103.24 367.126 1102.97 367.33 Q1102.7 367.534 1101.51 367.534 L1082.08 367.534 Q1082.08 374.633 1084.18 377.962 Q1087.11 382.615 1092.03 382.615 Q1092.71 382.615 1093.53 382.479 Q1094.34 382.343 1096.01 381.766 Q1097.67 381.155 1099.13 379.558 Q1100.59 377.962 1101.44 375.448 Q1101.64 374.463 1102.32 374.497 Q1103.24 374.497 1103.24 375.312 Q1103.24 375.924 1102.56 377.316 Q1101.92 378.675 1100.66 380.305 Q1099.4 381.936 1096.96 383.159 Q1094.54 384.381 1091.62 384.381 Q1085.51 384.381 1080.89 379.762 Q1076.3 375.108 1076.3 368.281 M1082.15 366.073 L1098.65 366.073 Q1098.65 364.613 1098.38 362.982 Q1098.15 361.352 1097.4 359.11 Q1096.68 356.834 1094.99 355.408 Q1093.29 353.981 1090.77 353.981 Q1089.65 353.981 1088.43 354.456 Q1087.24 354.932 1085.78 356.087 Q1084.32 357.242 1083.3 359.857 Q1082.28 362.473 1082.15 366.073 Z" fill="#000000" fill-rule="nonzero" fill-opacity="1" /><path clip-path="url(#clip000)" d="M1107.62 368.655 Q1107.62 362.031 1112.24 357.446 Q1116.86 352.86 1123.11 352.86 Q1128.41 352.86 1131.87 357.174 L1131.87 342.126 Q1131.87 339.545 1130.96 338.9 Q1130.07 338.254 1126.47 338.254 L1126.47 336.08 L1136.49 335.333 L1136.49 377.554 Q1136.49 380.136 1137.38 380.815 Q1138.29 381.46 1141.9 381.46 L1141.9 383.6 L1131.67 384.381 L1131.67 379.762 Q1128.07 384.348 1122.36 384.381 Q1116.39 384.381 1112 379.796 Q1107.62 375.21 1107.62 368.655 M1113.4 368.723 Q1113.4 375.176 1115.4 378.369 Q1118.19 382.819 1122.7 382.819 Q1127.87 382.819 1130.92 377.962 Q1131.7 376.773 1131.67 375.38 L1131.67 361.114 Q1131.67 359.721 1130.92 358.566 Q1128.07 354.389 1123.42 354.389 Q1118.56 354.389 1115.54 358.838 Q1113.4 362.167 1113.4 368.723 Z" fill="#000000" fill-rule="nonzero" fill-opacity="1" /><polyline clip-path="url(#clip002)" style="stroke:#000000; stroke-linecap:round; stroke-linejoin:round; stroke-width:2; stroke-opacity:0.1; fill:none" points="263.105,253.736 1352.76,253.736 "/>
<polyline clip-path="url(#clip002)" style="stroke:#000000; stroke-linecap:round; stroke-linejoin:round; stroke-width:2; stroke-opacity:0.1; fill:none" points="263.105,174.112 1352.76,174.112 "/>
<polyline clip-path="url(#clip002)" style="stroke:#000000; stroke-linecap:round; stroke-linejoin:round; stroke-width:2; stroke-opacity:0.1; fill:none" points="263.105,94.4882 1352.76,94.4882 "/>
<polyline clip-path="url(#clip000)" style="stroke:#000000; stroke-linecap:round; stroke-linejoin:round; stroke-width:4; stroke-opacity:1; fill:none" points="263.105,253.736 263.105,94.4882 "/>
<polyline clip-path="url(#clip000)" style="stroke:#000000; stroke-linecap:round; stroke-linejoin:round; stroke-width:4; stroke-opacity:1; fill:none" points="263.105,253.736 282.002,253.736 "/>
<polyline clip-path="url(#clip000)" style="stroke:#000000; stroke-linecap:round; stroke-linejoin:round; stroke-width:4; stroke-opacity:1; fill:none" points="263.105,174.112 282.002,174.112 "/>
<polyline clip-path="url(#clip000)" style="stroke:#000000; stroke-linecap:round; stroke-linejoin:round; stroke-width:4; stroke-opacity:1; fill:none" points="263.105,94.4882 282.002,94.4882 "/>
<path clip-path="url(#clip000)" d="M140.179 254.836 Q140.179 247.4 142.056 243.348 Q144.675 237.321 150.85 237.321 Q152.16 237.321 153.518 237.691 Q154.902 238.037 156.631 239.396 Q158.385 240.755 159.447 242.978 Q161.473 247.276 161.473 254.836 Q161.473 262.222 159.595 266.248 Q156.853 272.128 150.801 272.128 Q148.528 272.128 146.206 270.967 Q143.909 269.806 142.451 267.014 Q140.179 262.839 140.179 254.836 M144.378 254.218 Q144.378 261.851 144.922 264.89 Q145.539 268.175 147.219 269.608 Q148.924 271.016 150.801 271.016 Q152.827 271.016 154.507 269.509 Q156.211 267.978 156.73 264.692 Q157.298 261.456 157.273 254.218 Q157.273 247.178 156.779 244.361 Q156.112 241.076 154.334 239.766 Q152.58 238.433 150.801 238.433 Q150.134 238.433 149.418 238.63 Q148.726 238.828 147.713 239.396 Q146.7 239.964 145.91 241.372 Q145.144 242.78 144.773 244.905 Q144.378 247.647 144.378 254.218 Z" fill="#000000" fill-rule="nonzero" fill-opacity="1" /><path clip-path="url(#clip000)" d="M168.563 270.201 Q167.797 269.386 167.797 268.324 Q167.797 267.261 168.563 266.496 Q169.329 265.705 170.49 265.705 Q171.601 265.705 172.342 266.446 Q173.108 267.163 173.108 268.348 Q173.108 269.509 172.293 270.275 Q171.502 271.016 170.49 271.016 Q169.329 271.016 168.563 270.201 Z" fill="#000000" fill-rule="nonzero" fill-opacity="1" /><path clip-path="url(#clip000)" d="M179.531 254.836 Q179.531 247.4 181.409 243.348 Q184.027 237.321 190.203 237.321 Q191.512 237.321 192.871 237.691 Q194.254 238.037 195.983 239.396 Q197.737 240.755 198.8 242.978 Q200.825 247.276 200.825 254.836 Q200.825 262.222 198.948 266.248 Q196.206 272.128 190.154 272.128 Q187.881 272.128 185.559 270.967 Q183.261 269.806 181.804 267.014 Q179.531 262.839 179.531 254.836 M183.731 254.218 Q183.731 261.851 184.274 264.89 Q184.892 268.175 186.572 269.608 Q188.276 271.016 190.154 271.016 Q192.179 271.016 193.859 269.509 Q195.564 267.978 196.082 264.692 Q196.65 261.456 196.626 254.218 Q196.626 247.178 196.132 244.361 Q195.465 241.076 193.686 239.766 Q191.932 238.433 190.154 238.433 Q189.487 238.433 188.77 238.63 Q188.078 238.828 187.066 239.396 Q186.053 239.964 185.262 241.372 Q184.496 242.78 184.126 244.905 Q183.731 247.647 183.731 254.218 Z" fill="#000000" fill-rule="nonzero" fill-opacity="1" /><path clip-path="url(#clip000)" d="M205.692 243.25 Q205.692 238.902 207.915 235.987 Q210.139 233.072 213.128 233.072 Q214.956 233.072 216.759 234.702 Q220.86 238.605 226.22 238.581 Q232.297 238.581 235.83 233.788 Q236.448 233.072 236.892 233.072 Q237.288 233.072 237.584 233.393 Q237.905 233.689 237.905 234.085 Q237.905 234.381 237.51 234.999 L211.917 273.091 Q211.349 273.857 210.904 273.857 Q210.509 273.857 210.188 273.536 Q209.891 273.24 209.891 272.844 Q209.891 272.498 210.336 271.831 L233.063 237.988 L233.014 237.938 Q230.395 239.717 226.27 239.692 Q222.367 239.692 218.636 237.568 Q219.699 240.186 219.699 243.299 Q219.699 247.548 217.797 250.512 Q215.894 253.452 213.128 253.452 Q210.139 253.452 207.915 250.587 Q205.692 247.696 205.692 243.25 M209.175 239.124 Q208.829 240.903 208.829 243.299 Q208.829 245.671 209.175 247.449 Q209.521 249.203 210.015 250.117 Q210.534 251.031 211.225 251.575 Q211.917 252.093 212.337 252.217 Q212.757 252.341 213.177 252.341 Q215.252 252.341 216.833 249.771 Q218.439 247.178 218.439 243.25 Q218.439 239.396 216.833 236.802 Q215.252 234.184 213.177 234.184 Q212.732 234.184 212.288 234.307 Q211.868 234.431 211.201 234.974 Q210.534 235.493 210.015 236.407 Q209.521 237.321 209.175 239.124 M228.098 263.63 Q228.098 259.282 230.321 256.367 Q232.544 253.452 235.534 253.452 Q238.276 253.452 240.178 256.417 Q242.105 259.381 242.105 263.679 Q242.105 267.928 240.203 270.893 Q238.325 273.857 235.534 273.857 Q232.544 273.857 230.321 270.967 Q228.098 268.077 228.098 263.63 M231.581 259.504 Q231.235 261.308 231.235 263.679 Q231.235 266.051 231.581 267.83 Q231.952 269.608 232.446 270.522 Q232.964 271.411 233.631 271.93 Q234.323 272.474 234.743 272.597 Q235.188 272.745 235.583 272.745 Q237.658 272.745 239.239 270.176 Q240.845 267.582 240.845 263.63 Q240.845 259.776 239.239 257.182 Q237.658 254.564 235.583 254.564 Q235.138 254.564 234.694 254.712 Q234.274 254.836 233.607 255.379 Q232.964 255.898 232.446 256.812 Q231.952 257.701 231.581 259.504 Z" fill="#000000" fill-rule="nonzero" fill-opacity="1" /><path clip-path="url(#clip000)" d="M115.426 183.24 Q115.426 181.733 116.241 181.165 Q117.056 180.572 117.921 180.572 Q119.082 180.572 119.749 181.313 Q120.441 182.03 120.441 183.042 Q120.441 184.055 119.749 184.796 Q119.082 185.513 117.921 185.513 Q117.353 185.513 117.056 185.414 Q117.723 187.736 119.749 189.416 Q121.799 191.096 124.492 191.096 Q127.876 191.096 129.902 187.81 Q131.112 185.686 131.112 180.869 Q131.112 176.62 130.198 174.495 Q128.79 171.259 125.9 171.259 Q121.799 171.259 119.378 174.792 Q119.082 175.236 118.736 175.261 Q118.242 175.261 118.119 174.989 Q118.02 174.693 118.02 173.927 L118.02 158.957 Q118.02 157.746 118.514 157.746 Q118.711 157.746 119.131 157.894 Q122.318 159.303 125.851 159.327 Q129.482 159.327 132.743 157.845 Q132.99 157.697 133.138 157.697 Q133.632 157.697 133.657 158.265 Q133.657 158.463 133.237 159.056 Q132.842 159.624 131.977 160.389 Q131.112 161.131 130.001 161.847 Q128.889 162.563 127.259 163.057 Q125.653 163.527 123.874 163.527 Q121.75 163.527 119.576 162.86 L119.576 172.716 Q122.195 170.147 125.999 170.147 Q130.05 170.147 132.842 173.408 Q135.633 176.669 135.633 181.214 Q135.633 185.982 132.323 189.243 Q129.037 192.504 124.591 192.504 Q120.539 192.504 117.97 189.614 Q115.426 186.723 115.426 183.24 Z" fill="#000000" fill-rule="nonzero" fill-opacity="1" /><path clip-path="url(#clip000)" d="M140.179 175.212 Q140.179 167.776 142.056 163.724 Q144.675 157.697 150.85 157.697 Q152.16 157.697 153.518 158.067 Q154.902 158.413 156.631 159.772 Q158.385 161.131 159.447 163.354 Q161.473 167.652 161.473 175.212 Q161.473 182.598 159.595 186.624 Q156.853 192.504 150.801 192.504 Q148.528 192.504 146.206 191.343 Q143.909 190.182 142.451 187.39 Q140.179 183.215 140.179 175.212 M144.378 174.594 Q144.378 182.227 144.922 185.266 Q145.539 188.551 147.219 189.984 Q148.924 191.392 150.801 191.392 Q152.827 191.392 154.507 189.885 Q156.211 188.354 156.73 185.068 Q157.298 181.832 157.273 174.594 Q157.273 167.553 156.779 164.737 Q156.112 161.452 154.334 160.142 Q152.58 158.808 150.801 158.808 Q150.134 158.808 149.418 159.006 Q148.726 159.204 147.713 159.772 Q146.7 160.34 145.91 161.748 Q145.144 163.156 144.773 165.281 Q144.378 168.023 144.378 174.594 Z" fill="#000000" fill-rule="nonzero" fill-opacity="1" /><path clip-path="url(#clip000)" d="M168.563 190.577 Q167.797 189.762 167.797 188.7 Q167.797 187.637 168.563 186.872 Q169.329 186.081 170.49 186.081 Q171.601 186.081 172.342 186.822 Q173.108 187.538 173.108 188.724 Q173.108 189.885 172.293 190.651 Q171.502 191.392 170.49 191.392 Q169.329 191.392 168.563 190.577 Z" fill="#000000" fill-rule="nonzero" fill-opacity="1" /><path clip-path="url(#clip000)" d="M179.531 175.212 Q179.531 167.776 181.409 163.724 Q184.027 157.697 190.203 157.697 Q191.512 157.697 192.871 158.067 Q194.254 158.413 195.983 159.772 Q197.737 161.131 198.8 163.354 Q200.825 167.652 200.825 175.212 Q200.825 182.598 198.948 186.624 Q196.206 192.504 190.154 192.504 Q187.881 192.504 185.559 191.343 Q183.261 190.182 181.804 187.39 Q179.531 183.215 179.531 175.212 M183.731 174.594 Q183.731 182.227 184.274 185.266 Q184.892 188.551 186.572 189.984 Q188.276 191.392 190.154 191.392 Q192.179 191.392 193.859 189.885 Q195.564 188.354 196.082 185.068 Q196.65 181.832 196.626 174.594 Q196.626 167.553 196.132 164.737 Q195.465 161.452 193.686 160.142 Q191.932 158.808 190.154 158.808 Q189.487 158.808 188.77 159.006 Q188.078 159.204 187.066 159.772 Q186.053 160.34 185.262 161.748 Q184.496 163.156 184.126 165.281 Q183.731 168.023 183.731 174.594 Z" fill="#000000" fill-rule="nonzero" fill-opacity="1" /><path clip-path="url(#clip000)" d="M205.692 163.626 Q205.692 159.278 207.915 156.363 Q210.139 153.448 213.128 153.448 Q214.956 153.448 216.759 155.078 Q220.86 158.981 226.22 158.957 Q232.297 158.957 235.83 154.164 Q236.448 153.448 236.892 153.448 Q237.288 153.448 237.584 153.769 Q237.905 154.065 237.905 154.461 Q237.905 154.757 237.51 155.375 L211.917 193.467 Q211.349 194.233 210.904 194.233 Q210.509 194.233 210.188 193.912 Q209.891 193.616 209.891 193.22 Q209.891 192.874 210.336 192.207 L233.063 158.364 L233.014 158.314 Q230.395 160.093 226.27 160.068 Q222.367 160.068 218.636 157.944 Q219.699 160.562 219.699 163.675 Q219.699 167.924 217.797 170.888 Q215.894 173.828 213.128 173.828 Q210.139 173.828 207.915 170.963 Q205.692 168.072 205.692 163.626 M209.175 159.5 Q208.829 161.279 208.829 163.675 Q208.829 166.047 209.175 167.825 Q209.521 169.579 210.015 170.493 Q210.534 171.407 211.225 171.951 Q211.917 172.469 212.337 172.593 Q212.757 172.716 213.177 172.716 Q215.252 172.716 216.833 170.147 Q218.439 167.553 218.439 163.626 Q218.439 159.772 216.833 157.178 Q215.252 154.56 213.177 154.56 Q212.732 154.56 212.288 154.683 Q211.868 154.807 211.201 155.35 Q210.534 155.869 210.015 156.783 Q209.521 157.697 209.175 159.5 M228.098 184.006 Q228.098 179.658 230.321 176.743 Q232.544 173.828 235.534 173.828 Q238.276 173.828 240.178 176.793 Q242.105 179.757 242.105 184.055 Q242.105 188.304 240.203 191.269 Q238.325 194.233 235.534 194.233 Q232.544 194.233 230.321 191.343 Q228.098 188.453 228.098 184.006 M231.581 179.88 Q231.235 181.684 231.235 184.055 Q231.235 186.427 231.581 188.205 Q231.952 189.984 232.446 190.898 Q232.964 191.787 233.631 192.306 Q234.323 192.85 234.743 192.973 Q235.188 193.121 235.583 193.121 Q237.658 193.121 239.239 190.552 Q240.845 187.958 240.845 184.006 Q240.845 180.152 239.239 177.558 Q237.658 174.94 235.583 174.94 Q235.138 174.94 234.694 175.088 Q234.274 175.212 233.607 175.755 Q232.964 176.274 232.446 177.188 Q231.952 178.077 231.581 179.88 Z" fill="#000000" fill-rule="nonzero" fill-opacity="1" /><path clip-path="url(#clip000)" d="M92.1059 82.89 L92.1059 81.3089 Q98.1829 81.3089 101.32 78.0728 Q102.185 78.0728 102.333 78.2704 Q102.481 78.4681 102.481 79.3821 L102.481 107.766 Q102.481 109.273 103.222 109.743 Q103.963 110.212 107.2 110.212 L108.805 110.212 L108.805 111.768 Q107.027 111.62 100.604 111.62 Q94.181 111.62 92.427 111.768 L92.427 110.212 L94.0327 110.212 Q97.2195 110.212 97.9853 109.767 Q98.7511 109.298 98.7511 107.766 L98.7511 81.556 Q96.1078 82.89 92.1059 82.89 Z" fill="#000000" fill-rule="nonzero" fill-opacity="1" /><path clip-path="url(#clip000)" d="M114.882 95.5875 Q114.882 88.1518 116.76 84.1004 Q119.378 78.0728 125.554 78.0728 Q126.863 78.0728 128.222 78.4434 Q129.606 78.7892 131.335 80.1479 Q133.089 81.5066 134.151 83.7299 Q136.177 88.0283 136.177 95.5875 Q136.177 102.974 134.299 107 Q131.557 112.88 125.505 112.88 Q123.232 112.88 120.91 111.719 Q118.613 110.558 117.155 107.766 Q114.882 103.591 114.882 95.5875 M119.082 94.9699 Q119.082 102.603 119.625 105.642 Q120.243 108.927 121.923 110.36 Q123.627 111.768 125.505 111.768 Q127.53 111.768 129.21 110.261 Q130.915 108.73 131.434 105.444 Q132.002 102.208 131.977 94.9699 Q131.977 87.9294 131.483 85.1133 Q130.816 81.8277 129.037 80.5184 Q127.283 79.1845 125.505 79.1845 Q124.838 79.1845 124.121 79.3821 Q123.43 79.5797 122.417 80.1479 Q121.404 80.7161 120.614 82.1242 Q119.848 83.5322 119.477 85.6567 Q119.082 88.3988 119.082 94.9699 Z" fill="#000000" fill-rule="nonzero" fill-opacity="1" /><path clip-path="url(#clip000)" d="M140.179 95.5875 Q140.179 88.1518 142.056 84.1004 Q144.675 78.0728 150.85 78.0728 Q152.16 78.0728 153.518 78.4434 Q154.902 78.7892 156.631 80.1479 Q158.385 81.5066 159.447 83.7299 Q161.473 88.0283 161.473 95.5875 Q161.473 102.974 159.595 107 Q156.853 112.88 150.801 112.88 Q148.528 112.88 146.206 111.719 Q143.909 110.558 142.451 107.766 Q140.179 103.591 140.179 95.5875 M144.378 94.9699 Q144.378 102.603 144.922 105.642 Q145.539 108.927 147.219 110.36 Q148.924 111.768 150.801 111.768 Q152.827 111.768 154.507 110.261 Q156.211 108.73 156.73 105.444 Q157.298 102.208 157.273 94.9699 Q157.273 87.9294 156.779 85.1133 Q156.112 81.8277 154.334 80.5184 Q152.58 79.1845 150.801 79.1845 Q150.134 79.1845 149.418 79.3821 Q148.726 79.5797 147.713 80.1479 Q146.7 80.7161 145.91 82.1242 Q145.144 83.5322 144.773 85.6567 Q144.378 88.3988 144.378 94.9699 Z" fill="#000000" fill-rule="nonzero" fill-opacity="1" /><path clip-path="url(#clip000)" d="M168.563 110.953 Q167.797 110.138 167.797 109.076 Q167.797 108.013 168.563 107.247 Q169.329 106.457 170.49 106.457 Q171.601 106.457 172.342 107.198 Q173.108 107.914 173.108 109.1 Q173.108 110.261 172.293 111.027 Q171.502 111.768 170.49 111.768 Q169.329 111.768 168.563 110.953 Z" fill="#000000" fill-rule="nonzero" fill-opacity="1" /><path clip-path="url(#clip000)" d="M179.531 95.5875 Q179.531 88.1518 181.409 84.1004 Q184.027 78.0728 190.203 78.0728 Q191.512 78.0728 192.871 78.4434 Q194.254 78.7892 195.983 80.1479 Q197.737 81.5066 198.8 83.7299 Q200.825 88.0283 200.825 95.5875 Q200.825 102.974 198.948 107 Q196.206 112.88 190.154 112.88 Q187.881 112.88 185.559 111.719 Q183.261 110.558 181.804 107.766 Q179.531 103.591 179.531 95.5875 M183.731 94.9699 Q183.731 102.603 184.274 105.642 Q184.892 108.927 186.572 110.36 Q188.276 111.768 190.154 111.768 Q192.179 111.768 193.859 110.261 Q195.564 108.73 196.082 105.444 Q196.65 102.208 196.626 94.9699 Q196.626 87.9294 196.132 85.1133 Q195.465 81.8277 193.686 80.5184 Q191.932 79.1845 190.154 79.1845 Q189.487 79.1845 188.77 79.3821 Q188.078 79.5797 187.066 80.1479 Q186.053 80.7161 185.262 82.1242 Q184.496 83.5322 184.126 85.6567 Q183.731 88.3988 183.731 94.9699 Z" fill="#000000" fill-rule="nonzero" fill-opacity="1" /><path clip-path="url(#clip000)" d="M205.692 84.0016 Q205.692 79.6538 207.915 76.7388 Q210.139 73.8238 213.128 73.8238 Q214.956 73.8238 216.759 75.4543 Q220.86 79.3574 226.22 79.3327 Q232.297 79.3327 235.83 74.5402 Q236.448 73.8238 236.892 73.8238 Q237.288 73.8238 237.584 74.145 Q237.905 74.4414 237.905 74.8367 Q237.905 75.1331 237.51 75.7507 L211.917 113.843 Q211.349 114.609 210.904 114.609 Q210.509 114.609 210.188 114.288 Q209.891 113.991 209.891 113.596 Q209.891 113.25 210.336 112.583 L233.063 78.7398 L233.014 78.6904 Q230.395 80.469 226.27 80.4443 Q222.367 80.4443 218.636 78.3198 Q219.699 80.9384 219.699 84.051 Q219.699 88.3 217.797 91.2644 Q215.894 94.2041 213.128 94.2041 Q210.139 94.2041 207.915 91.3385 Q205.692 88.4482 205.692 84.0016 M209.175 79.8762 Q208.829 81.6548 208.829 84.051 Q208.829 86.4225 209.175 88.2012 Q209.521 89.9551 210.015 90.8691 Q210.534 91.7832 211.225 92.3266 Q211.917 92.8454 212.337 92.9689 Q212.757 93.0924 213.177 93.0924 Q215.252 93.0924 216.833 90.5233 Q218.439 87.9294 218.439 84.0016 Q218.439 80.1479 216.833 77.554 Q215.252 74.9355 213.177 74.9355 Q212.732 74.9355 212.288 75.059 Q211.868 75.1825 211.201 75.726 Q210.534 76.2448 210.015 77.1588 Q209.521 78.0728 209.175 79.8762 M228.098 104.382 Q228.098 100.034 230.321 97.1191 Q232.544 94.2041 235.534 94.2041 Q238.276 94.2041 240.178 97.1685 Q242.105 100.133 242.105 104.431 Q242.105 108.68 240.203 111.645 Q238.325 114.609 235.534 114.609 Q232.544 114.609 230.321 111.719 Q228.098 108.828 228.098 104.382 M231.581 100.256 Q231.235 102.06 231.235 104.431 Q231.235 106.803 231.581 108.581 Q231.952 110.36 232.446 111.274 Q232.964 112.163 233.631 112.682 Q234.323 113.226 234.743 113.349 Q235.188 113.497 235.583 113.497 Q237.658 113.497 239.239 110.928 Q240.845 108.334 240.845 104.382 Q240.845 100.528 239.239 97.9343 Q237.658 95.3158 235.583 95.3158 Q235.138 95.3158 234.694 95.464 Q234.274 95.5875 233.607 96.131 Q232.964 96.6497 232.446 97.5638 Q231.952 98.4531 231.581 100.256 Z" fill="#000000" fill-rule="nonzero" fill-opacity="1" /><path clip-path="url(#clip000)" d="M56.714 311.136 L42.7875 311.136 Q42.0062 311.136 41.7345 311.102 Q41.4628 311.068 41.259 310.864 Q41.0552 310.66 41.0552 310.252 Q41.0552 309.471 41.7685 309.403 Q48.6638 309.199 52.4681 305.089 Q56.2385 301.047 56.2385 294.118 Q56.2385 289.94 53.2494 287.359 Q50.2263 284.777 46.2861 284.777 Q42.5157 284.777 39.8663 286.951 Q38.6775 287.868 37.9302 289.023 Q37.1489 290.144 36.9112 290.857 Q36.6734 291.537 36.3337 292.861 Q34.2617 301.489 34.024 302.032 Q32.6313 306.142 29.1327 308.656 Q25.6001 311.136 21.2863 311.136 Q15.7157 311.136 11.7755 307.229 Q7.80135 303.289 7.80135 297.583 Q7.80135 294.729 8.71846 292.352 Q9.60161 289.94 10.4168 288.955 Q11.232 287.97 12.6926 286.441 L8.71846 284.03 Q7.80135 283.486 7.80135 282.977 Q7.80135 282.433 8.14102 282.331 Q8.44673 282.196 9.46574 282.196 L23.4602 282.196 Q24.2414 282.196 24.5132 282.23 Q24.7849 282.264 24.9547 282.501 Q25.1246 282.705 25.1246 283.113 Q25.1246 283.792 24.3094 283.962 Q9.77144 285.898 9.77144 297.515 Q9.77144 301.489 12.4548 304.104 Q15.1043 306.686 18.8746 306.686 Q21.9317 306.686 24.4452 304.784 Q26.9248 302.882 27.7061 299.655 L29.846 290.755 Q30.899 286.306 34.8392 283.317 Q38.7794 280.327 43.9084 280.327 Q49.8187 280.327 54.0985 284.2 Q58.3784 288.038 58.3784 294.05 Q58.3784 298.364 56.9518 301.693 Q55.5252 305.021 53.5211 306.822 Q55.8309 308.214 57.1216 309.132 L57.4613 309.335 Q58.3784 309.879 58.3784 310.388 Q58.3784 310.932 58.0387 311.034 Q57.699 311.136 56.714 311.136 Z" fill="#000000" fill-rule="nonzero" fill-opacity="1" /><path clip-path="url(#clip000)" d="M50.2263 273.534 Q44.316 273.534 41.191 266.571 Q39.187 262.393 38.6775 253.765 L36.1299 253.765 Q31.8161 253.765 29.5403 256.041 Q27.2305 258.283 27.2305 261.136 Q27.2305 266.231 30.4235 268.677 Q30.4914 266.605 31.5444 265.857 Q32.5634 265.11 33.6164 265.11 Q35.009 265.11 35.9261 265.993 Q36.8093 266.842 36.8093 268.303 Q36.8093 269.696 35.9601 270.613 Q35.0769 271.53 33.5484 271.53 Q30.1517 271.53 27.9099 268.473 Q25.6681 265.382 25.6681 261 Q25.6681 255.294 29.5063 251.489 Q30.6952 250.3 32.2237 249.723 Q33.7522 249.112 34.7712 249.044 Q35.7563 248.976 37.7264 248.976 L51.6189 248.976 Q52.0265 248.976 52.7059 248.84 Q53.3852 248.704 54.2684 248.093 Q55.1175 247.447 55.1175 246.394 Q55.1175 243.881 50.6679 243.915 L46.7616 243.915 L46.7616 242.148 L50.6679 242.148 Q54.3703 242.148 55.8309 244.118 Q57.2575 246.055 57.2575 247.855 Q57.2575 250.165 55.5591 251.625 Q53.8608 253.086 51.551 253.29 Q54.2004 254.343 55.9328 256.754 Q57.6311 259.132 57.6311 262.393 Q57.6311 264.906 56.9857 267.284 Q56.3743 269.628 54.642 271.598 Q52.8757 273.534 50.2263 273.534 M50.1583 268.167 Q52.7399 268.167 54.4042 266.333 Q56.0686 264.499 56.0686 261.917 Q56.0686 258.996 53.8268 256.381 Q51.551 253.765 47.1013 253.765 L40.138 253.765 Q40.4098 261.476 43.5008 264.838 Q46.5578 268.167 50.1583 268.167 Z" fill="#000000" fill-rule="nonzero" fill-opacity="1" /><path clip-path="url(#clip000)" d="M29.0308 239.363 L26.8569 239.363 L26.8569 233.894 L18.8746 233.894 Q13.7116 233.894 10.7565 230.566 Q7.80135 227.203 7.80135 223.093 Q7.80135 220.375 9.26194 218.609 Q10.7225 216.843 12.6926 216.843 Q14.0173 216.843 14.9005 217.658 Q15.7497 218.439 15.7497 219.9 Q15.7497 221.293 14.8665 222.108 Q13.9834 222.889 12.7606 222.889 Q10.5187 222.889 9.83938 220.817 Q9.36384 221.87 9.32987 223.093 Q9.32987 225.606 11.9114 227.576 Q14.4929 229.513 18.8067 229.513 L26.8569 229.513 L26.8569 221.36 L29.0308 221.36 L29.0308 229.275 L51.4151 229.275 Q53.4192 229.275 54.0646 228.46 Q54.7099 227.61 54.7099 224.01 L54.7099 222.549 L56.8499 222.549 Q56.6461 225.335 56.6461 231.381 Q56.6461 232.23 56.68 233.555 Q56.714 234.845 56.7819 236.612 Q56.8499 238.344 56.8499 239.295 L54.7099 239.295 Q54.7099 235.593 54.2684 234.744 Q53.7928 233.894 51.551 233.894 L29.0308 233.894 L29.0308 239.363 Z" fill="#000000" fill-rule="nonzero" fill-opacity="1" /><path clip-path="url(#clip000)" d="M41.5307 218.541 Q34.975 218.541 30.3216 214.329 Q25.6681 210.117 25.6681 204.071 Q25.6681 197.957 29.6422 194.798 Q33.6164 191.605 39.3228 191.605 Q40.3758 191.605 40.5796 191.877 Q40.7834 192.149 40.7834 193.338 L40.7834 212.767 Q47.8826 212.767 51.2113 210.661 Q55.8648 207.74 55.8648 202.814 Q55.8648 202.135 55.729 201.32 Q55.5931 200.505 55.0156 198.84 Q54.4042 197.176 52.8078 195.715 Q51.2113 194.255 48.6978 193.406 Q47.7127 193.202 47.7467 192.522 Q47.7467 191.605 48.5619 191.605 Q49.1733 191.605 50.566 192.285 Q51.9246 192.93 53.5551 194.187 Q55.1855 195.444 56.4083 197.889 Q57.6311 200.301 57.6311 203.222 Q57.6311 209.336 53.0116 213.956 Q48.3581 218.541 41.5307 218.541 M39.3228 212.699 L39.3228 196.191 Q37.8623 196.191 36.2318 196.463 Q34.6014 196.7 32.3596 197.448 Q30.0838 198.161 28.6572 199.859 Q27.2305 201.558 27.2305 204.071 Q27.2305 205.192 27.7061 206.415 Q28.1816 207.604 29.3365 209.064 Q30.4914 210.525 33.1069 211.544 Q35.7223 212.563 39.3228 212.699 Z" fill="#000000" fill-rule="nonzero" fill-opacity="1" /><path clip-path="url(#clip000)" d="M56.8499 164.533 L54.7099 164.533 Q54.7099 160.831 54.2684 159.982 Q53.7928 159.099 51.551 159.099 L32.9031 159.099 Q30.3216 159.099 29.6762 160.016 Q29.0308 160.899 29.0308 164.533 L26.8569 164.533 L26.1096 154.853 L33.7522 154.853 Q30.7631 153.868 28.4534 151.796 Q26.1096 149.69 26.1096 146.293 Q26.1096 144.051 27.3664 142.625 Q28.6232 141.164 30.3555 141.164 Q31.884 141.164 32.6653 142.115 Q33.4126 143.032 33.4126 144.153 Q33.4126 145.41 32.6313 146.293 Q31.8161 147.142 30.4235 147.142 Q29.5743 147.142 28.9289 146.769 Q28.2496 146.361 28.0118 146.055 Q27.774 145.75 27.7061 145.546 Q27.6381 145.682 27.6381 146.293 Q27.6381 150.131 31.4764 152.339 Q35.2808 154.513 40.7155 154.513 L51.4151 154.513 Q53.4192 154.513 54.0646 153.698 Q54.7099 152.849 54.7099 149.214 L54.7099 147.754 L56.8499 147.754 Q56.6461 150.539 56.6461 156.585 Q56.6461 157.434 56.68 158.759 Q56.714 160.084 56.7819 161.816 Q56.8499 163.548 56.8499 164.533 Z" fill="#000000" fill-rule="nonzero" fill-opacity="1" /><path clip-path="url(#clip000)" d="M29.0308 137.054 L26.8569 137.054 L26.1096 126.83 L49.2073 126.83 Q50.8717 126.83 51.8567 126.694 Q52.8078 126.558 53.9287 126.015 Q55.0496 125.437 55.5591 124.147 Q56.0686 122.822 56.0686 120.716 Q56.0686 116.946 52.9776 114.636 Q49.8866 112.292 45.3011 112.292 L32.9031 112.292 Q30.3216 112.292 29.6762 113.209 Q29.0308 114.126 29.0308 117.727 L26.8569 117.727 L26.1096 107.503 L50.8037 107.503 Q53.3852 107.503 54.0646 106.62 Q54.7099 105.702 54.7099 102.068 L56.8499 102.068 L57.6311 112.088 L51.3472 112.088 Q57.5971 115.009 57.6311 121.056 Q57.6311 124.113 56.8499 126.219 Q56.0686 128.291 55.1175 129.344 Q54.1325 130.397 52.2643 130.974 Q50.3961 131.517 49.2412 131.585 Q48.0864 131.653 45.8445 131.653 L35.4166 131.653 Q30.6952 131.653 29.88 132.333 Q29.0308 133.012 29.0308 137.054 Z" fill="#000000" fill-rule="nonzero" fill-opacity="1" /><path clip-path="url(#clip000)" d="M56.8499 98.4674 L54.7099 98.4674 Q54.7099 94.765 54.2684 93.9158 Q53.7928 93.0667 51.551 93.0667 L32.9031 93.0667 Q30.3216 93.0667 29.6762 93.9838 Q29.0308 94.8669 29.0308 98.4674 L26.8569 98.4674 L26.1096 88.6849 L33.4126 88.6849 Q26.1096 85.4241 26.1096 78.3929 Q26.1096 73.1619 28.6911 71.0899 Q30.4235 69.5614 32.3596 69.2557 Q34.2957 68.916 39.3228 68.916 L52.604 68.916 Q54.0646 68.8481 54.4042 67.7272 Q54.7099 66.6063 54.7099 63.4813 L56.8499 63.4813 Q56.6461 70.5804 56.6461 71.2937 Q56.6461 71.8372 56.8499 79.1402 L54.7099 79.1402 Q54.7099 75.4377 54.2684 74.5886 Q53.7928 73.7054 51.551 73.7054 L35.3487 73.7054 Q31.8161 73.7054 29.7441 74.7924 Q27.6381 75.8793 27.6381 78.8684 Q27.6381 82.4689 30.6612 85.3561 Q33.6843 88.2433 38.7794 88.2433 L51.551 88.2433 Q53.7928 88.2433 54.2684 87.3942 Q54.7099 86.511 54.7099 82.8426 L56.8499 82.8426 Q56.6461 89.9417 56.6461 90.621 Q56.6461 91.1645 56.8499 98.4674 Z" fill="#000000" fill-rule="nonzero" fill-opacity="1" /><path clip-path="url(#clip000)" d="M55.9328 59.8129 L46.7616 59.8129 Q45.9804 59.8129 45.7087 59.7789 Q45.4369 59.7449 45.2331 59.5411 Q45.0293 59.3373 45.0293 58.9297 Q45.0293 58.4542 45.2331 58.2843 Q45.4369 58.0805 46.2182 57.9447 Q51.0075 56.8917 53.5551 54.6499 Q56.0686 52.3741 56.0686 48.264 Q56.0686 44.3578 54.3363 42.3877 Q52.604 40.4176 49.7507 40.4176 Q44.6557 40.4176 43.3649 47.6526 Q42.5157 51.8306 41.9723 53.5629 Q41.3948 55.2952 40.138 56.8238 Q37.6924 59.8129 34.2278 59.8129 Q30.7631 59.8129 28.2156 57.1974 Q25.6681 54.548 25.6681 48.7056 Q25.6681 44.7994 27.6381 42.15 Q27.0267 41.3687 26.5172 40.9611 Q25.6681 40.044 25.6681 39.5685 Q25.6681 39.025 26.0417 38.9231 Q26.3814 38.8212 27.3664 38.8212 L34.3636 38.8212 Q35.1449 38.8212 35.4166 38.8551 Q35.6884 38.8891 35.8922 39.0929 Q36.062 39.2967 36.062 39.7383 Q36.062 40.5195 35.4166 40.5535 Q26.9928 41.097 26.9928 48.7056 Q26.9928 52.8156 28.5892 54.6499 Q30.1517 56.4841 32.2916 56.4841 Q33.4805 56.4841 34.3976 55.9406 Q35.2808 55.3632 35.8242 54.6499 Q36.3337 53.9026 36.8432 52.5439 Q37.3188 51.1852 37.4886 50.37 Q37.6584 49.5208 37.9981 47.9244 Q39.0511 42.3538 41.3269 40.01 Q44.2481 37.0889 47.9505 37.0889 Q52.0605 37.0889 54.8458 39.8742 Q57.6311 42.6595 57.6311 48.264 Q57.6311 52.7817 54.608 55.9406 Q55.0156 56.3482 55.3893 56.6539 Q55.729 56.9596 55.8648 57.0955 Q56.0007 57.1974 56.1026 57.2314 Q56.1705 57.2653 56.2385 57.3333 Q57.6311 58.7259 57.6311 59.0656 Q57.6311 59.6091 57.2575 59.711 Q56.9178 59.8129 55.9328 59.8129 Z" fill="#000000" fill-rule="nonzero" fill-opacity="1" /><path clip-path="url(#clip002)" d="M323.037 183.667 L323.037 253.736 L394.274 253.736 L394.274 183.667 L323.037 183.667 L323.037 183.667  Z" fill="#3498db" fill-rule="evenodd" fill-opacity="1"/>
<polyline clip-path="url(#clip002)" style="stroke:#3498db; stroke-linecap:round; stroke-linejoin:round; stroke-width:0; stroke-opacity:1; fill:none" points="323.037,183.667 323.037,253.736 394.274,253.736 394.274,183.667 323.037,183.667 "/>
<path clip-path="url(#clip002)" d="M412.083 202.777 L412.083 253.736 L483.319 253.736 L483.319 202.777 L412.083 202.777 L412.083 202.777  Z" fill="#3498db" fill-rule="evenodd" fill-opacity="1"/>
<polyline clip-path="url(#clip002)" style="stroke:#3498db; stroke-linecap:round; stroke-linejoin:round; stroke-width:0; stroke-opacity:1; fill:none" points="412.083,202.777 412.083,253.736 483.319,253.736 483.319,202.777 412.083,202.777 "/>
<path clip-path="url(#clip002)" d="M502.028 169.335 L502.028 253.736 L573.264 253.736 L573.264 169.335 L502.028 169.335 L502.028 169.335  Z" fill="#3498db" fill-rule="evenodd" fill-opacity="1"/>
<polyline clip-path="url(#clip002)" style="stroke:#3498db; stroke-linecap:round; stroke-linejoin:round; stroke-width:0; stroke-opacity:1; fill:none" points="502.028,169.335 502.028,253.736 573.264,253.736 573.264,169.335 502.028,169.335 "/>
<path clip-path="url(#clip002)" d="M591.973 139.078 L591.973 253.736 L663.209 253.736 L663.209 139.078 L591.973 139.078 L591.973 139.078  Z" fill="#3498db" fill-rule="evenodd" fill-opacity="1"/>
<polyline clip-path="url(#clip002)" style="stroke:#3498db; stroke-linecap:round; stroke-linejoin:round; stroke-width:0; stroke-opacity:1; fill:none" points="591.973,139.078 591.973,253.736 663.209,253.736 663.209,139.078 591.973,139.078 "/>
<path clip-path="url(#clip002)" d="M681.918 119.968 L681.918 253.736 L753.154 253.736 L753.154 119.968 L681.918 119.968 L681.918 119.968  Z" fill="#3498db" fill-rule="evenodd" fill-opacity="1"/>
<polyline clip-path="url(#clip002)" style="stroke:#3498db; stroke-linecap:round; stroke-linejoin:round; stroke-width:0; stroke-opacity:1; fill:none" points="681.918,119.968 681.918,253.736 753.154,253.736 753.154,119.968 681.918,119.968 "/>
<path clip-path="url(#clip002)" d="M771.862 126.338 L771.862 253.736 L843.099 253.736 L843.099 126.338 L771.862 126.338 L771.862 126.338  Z" fill="#3498db" fill-rule="evenodd" fill-opacity="1"/>
<polyline clip-path="url(#clip002)" style="stroke:#3498db; stroke-linecap:round; stroke-linejoin:round; stroke-width:0; stroke-opacity:1; fill:none" points="771.862,126.338 771.862,253.736 843.099,253.736 843.099,126.338 771.862,126.338 "/>
<path clip-path="url(#clip002)" d="M861.807 115.19 L861.807 253.736 L933.044 253.736 L933.044 115.19 L861.807 115.19 L861.807 115.19  Z" fill="#3498db" fill-rule="evenodd" fill-opacity="1"/>
<polyline clip-path="url(#clip002)" style="stroke:#3498db; stroke-linecap:round; stroke-linejoin:round; stroke-width:0; stroke-opacity:1; fill:none" points="861.807,115.19 861.807,253.736 933.044,253.736 933.044,115.19 861.807,115.19 "/>
<path clip-path="url(#clip002)" d="M951.752 108.821 L951.752 253.736 L1022.99 253.736 L1022.99 108.821 L951.752 108.821 L951.752 108.821  Z" fill="#3498db" fill-rule="evenodd" fill-opacity="1"/>
<polyline clip-path="url(#clip002)" style="stroke:#3498db; stroke-linecap:round; stroke-linejoin:round; stroke-width:0; stroke-opacity:1; fill:none" points="951.752,108.821 951.752,253.736 1022.99,253.736 1022.99,108.821 951.752,108.821 "/>
<path clip-path="url(#clip002)" d="M1041.7 115.19 L1041.7 253.736 L1112.93 253.736 L1112.93 115.19 L1041.7 115.19 L1041.7 115.19  Z" fill="#3498db" fill-rule="evenodd" fill-opacity="1"/>
<polyline clip-path="url(#clip002)" style="stroke:#3498db; stroke-linecap:round; stroke-linejoin:round; stroke-width:0; stroke-opacity:1; fill:none" points="1041.7,115.19 1041.7,253.736 1112.93,253.736 1112.93,115.19 1041.7,115.19 "/>
<path clip-path="url(#clip002)" d="M1131.64 123.153 L1131.64 253.736 L1202.88 253.736 L1202.88 123.153 L1131.64 123.153 L1131.64 123.153  Z" fill="#3498db" fill-rule="evenodd" fill-opacity="1"/>
<polyline clip-path="url(#clip002)" style="stroke:#3498db; stroke-linecap:round; stroke-linejoin:round; stroke-width:0; stroke-opacity:1; fill:none" points="1131.64,123.153 1131.64,253.736 1202.88,253.736 1202.88,123.153 1131.64,123.153 "/>
<path clip-path="url(#clip002)" d="M1221.59 108.821 L1221.59 253.736 L1292.82 253.736 L1292.82 108.821 L1221.59 108.821 L1221.59 108.821  Z" fill="#3498db" fill-rule="evenodd" fill-opacity="1"/>
<polyline clip-path="url(#clip002)" style="stroke:#3498db; stroke-linecap:round; stroke-linejoin:round; stroke-width:0; stroke-opacity:1; fill:none" points="1221.59,108.821 1221.59,253.736 1292.82,253.736 1292.82,108.821 1221.59,108.821 "/>
<circle clip-path="url(#clip002)" style="fill:#3498db; stroke:none; fill-opacity:0" cx="358.656" cy="183.667" r="2"/>
<circle clip-path="url(#clip002)" style="fill:#3498db; stroke:none; fill-opacity:0" cx="447.701" cy="202.777" r="2"/>
<circle clip-path="url(#clip002)" style="fill:#3498db; stroke:none; fill-opacity:0" cx="537.646" cy="169.335" r="2"/>
<circle clip-path="url(#clip002)" style="fill:#3498db; stroke:none; fill-opacity:0" cx="627.591" cy="139.078" r="2"/>
<circle clip-path="url(#clip002)" style="fill:#3498db; stroke:none; fill-opacity:0" cx="717.536" cy="119.968" r="2"/>
<circle clip-path="url(#clip002)" style="fill:#3498db; stroke:none; fill-opacity:0" cx="807.481" cy="126.338" r="2"/>
<circle clip-path="url(#clip002)" style="fill:#3498db; stroke:none; fill-opacity:0" cx="897.425" cy="115.19" r="2"/>
<circle clip-path="url(#clip002)" style="fill:#3498db; stroke:none; fill-opacity:0" cx="987.37" cy="108.821" r="2"/>
<circle clip-path="url(#clip002)" style="fill:#3498db; stroke:none; fill-opacity:0" cx="1077.32" cy="115.19" r="2"/>
<circle clip-path="url(#clip002)" style="fill:#3498db; stroke:none; fill-opacity:0" cx="1167.26" cy="123.153" r="2"/>
<circle clip-path="url(#clip002)" style="fill:#3498db; stroke:none; fill-opacity:0" cx="1257.2" cy="108.821" r="2"/>
<polyline clip-path="url(#clip002)" style="stroke:#000000; stroke-linecap:round; stroke-linejoin:round; stroke-width:4; stroke-opacity:1; fill:none" points="358.656,253.736 358.656,94.4882 "/>
<polyline clip-path="url(#clip002)" style="stroke:#000000; stroke-linecap:round; stroke-linejoin:round; stroke-width:4; stroke-opacity:1; fill:none" points="447.701,237.811 447.701,174.112 "/>
<polyline clip-path="url(#clip002)" style="stroke:#000000; stroke-linecap:round; stroke-linejoin:round; stroke-width:4; stroke-opacity:1; fill:none" points="537.646,205.962 537.646,126.338 "/>
<polyline clip-path="url(#clip002)" style="stroke:#000000; stroke-linecap:round; stroke-linejoin:round; stroke-width:4; stroke-opacity:1; fill:none" points="627.591,158.187 627.591,110.413 "/>
<polyline clip-path="url(#clip002)" style="stroke:#000000; stroke-linecap:round; stroke-linejoin:round; stroke-width:4; stroke-opacity:1; fill:none" points="717.536,158.187 717.536,94.4882 "/>
<polyline clip-path="url(#clip002)" style="stroke:#000000; stroke-linecap:round; stroke-linejoin:round; stroke-width:4; stroke-opacity:1; fill:none" points="807.481,158.187 807.481,94.4882 "/>
<polyline clip-path="url(#clip002)" style="stroke:#000000; stroke-linecap:round; stroke-linejoin:round; stroke-width:4; stroke-opacity:1; fill:none" points="897.425,142.263 897.425,94.4882 "/>
<polyline clip-path="url(#clip002)" style="stroke:#000000; stroke-linecap:round; stroke-linejoin:round; stroke-width:4; stroke-opacity:1; fill:none" points="987.37,142.263 987.37,94.4882 "/>
<polyline clip-path="url(#clip002)" style="stroke:#000000; stroke-linecap:round; stroke-linejoin:round; stroke-width:4; stroke-opacity:1; fill:none" points="1077.32,142.263 1077.32,94.4882 "/>
<polyline clip-path="url(#clip002)" style="stroke:#000000; stroke-linecap:round; stroke-linejoin:round; stroke-width:4; stroke-opacity:1; fill:none" points="1167.26,158.187 1167.26,94.4882 "/>
<polyline clip-path="url(#clip002)" style="stroke:#000000; stroke-linecap:round; stroke-linejoin:round; stroke-width:4; stroke-opacity:1; fill:none" points="1257.2,126.338 1257.2,94.4882 "/>
<line clip-path="url(#clip002)" x1="374.656" y1="253.736" x2="342.656" y2="253.736" style="stroke:#000000; stroke-width:4; stroke-opacity:1"/>
<line clip-path="url(#clip002)" x1="374.656" y1="94.4882" x2="342.656" y2="94.4882" style="stroke:#000000; stroke-width:4; stroke-opacity:1"/>
<line clip-path="url(#clip002)" x1="463.701" y1="237.811" x2="431.701" y2="237.811" style="stroke:#000000; stroke-width:4; stroke-opacity:1"/>
<line clip-path="url(#clip002)" x1="463.701" y1="174.112" x2="431.701" y2="174.112" style="stroke:#000000; stroke-width:4; stroke-opacity:1"/>
<line clip-path="url(#clip002)" x1="553.646" y1="205.962" x2="521.646" y2="205.962" style="stroke:#000000; stroke-width:4; stroke-opacity:1"/>
<line clip-path="url(#clip002)" x1="553.646" y1="126.338" x2="521.646" y2="126.338" style="stroke:#000000; stroke-width:4; stroke-opacity:1"/>
<line clip-path="url(#clip002)" x1="643.591" y1="158.187" x2="611.591" y2="158.187" style="stroke:#000000; stroke-width:4; stroke-opacity:1"/>
<line clip-path="url(#clip002)" x1="643.591" y1="110.413" x2="611.591" y2="110.413" style="stroke:#000000; stroke-width:4; stroke-opacity:1"/>
<line clip-path="url(#clip002)" x1="733.536" y1="158.187" x2="701.536" y2="158.187" style="stroke:#000000; stroke-width:4; stroke-opacity:1"/>
<line clip-path="url(#clip002)" x1="733.536" y1="94.4882" x2="701.536" y2="94.4882" style="stroke:#000000; stroke-width:4; stroke-opacity:1"/>
<line clip-path="url(#clip002)" x1="823.481" y1="158.187" x2="791.481" y2="158.187" style="stroke:#000000; stroke-width:4; stroke-opacity:1"/>
<line clip-path="url(#clip002)" x1="823.481" y1="94.4882" x2="791.481" y2="94.4882" style="stroke:#000000; stroke-width:4; stroke-opacity:1"/>
<line clip-path="url(#clip002)" x1="913.425" y1="142.263" x2="881.425" y2="142.263" style="stroke:#000000; stroke-width:4; stroke-opacity:1"/>
<line clip-path="url(#clip002)" x1="913.425" y1="94.4882" x2="881.425" y2="94.4882" style="stroke:#000000; stroke-width:4; stroke-opacity:1"/>
<line clip-path="url(#clip002)" x1="1003.37" y1="142.263" x2="971.37" y2="142.263" style="stroke:#000000; stroke-width:4; stroke-opacity:1"/>
<line clip-path="url(#clip002)" x1="1003.37" y1="94.4882" x2="971.37" y2="94.4882" style="stroke:#000000; stroke-width:4; stroke-opacity:1"/>
<line clip-path="url(#clip002)" x1="1093.32" y1="142.263" x2="1061.32" y2="142.263" style="stroke:#000000; stroke-width:4; stroke-opacity:1"/>
<line clip-path="url(#clip002)" x1="1093.32" y1="94.4882" x2="1061.32" y2="94.4882" style="stroke:#000000; stroke-width:4; stroke-opacity:1"/>
<line clip-path="url(#clip002)" x1="1183.26" y1="158.187" x2="1151.26" y2="158.187" style="stroke:#000000; stroke-width:4; stroke-opacity:1"/>
<line clip-path="url(#clip002)" x1="1183.26" y1="94.4882" x2="1151.26" y2="94.4882" style="stroke:#000000; stroke-width:4; stroke-opacity:1"/>
<line clip-path="url(#clip002)" x1="1273.2" y1="126.338" x2="1241.2" y2="126.338" style="stroke:#000000; stroke-width:4; stroke-opacity:1"/>
<line clip-path="url(#clip002)" x1="1273.2" y1="94.4882" x2="1241.2" y2="94.4882" style="stroke:#000000; stroke-width:4; stroke-opacity:1"/>
<line clip-path="url(#clip002)" x1="374.656" y1="183.667" x2="342.656" y2="183.667" style="stroke:#3498db; stroke-width:0.8; stroke-opacity:1"/>
<line clip-path="url(#clip002)" x1="463.701" y1="202.777" x2="431.701" y2="202.777" style="stroke:#3498db; stroke-width:0.8; stroke-opacity:1"/>
<line clip-path="url(#clip002)" x1="553.646" y1="169.335" x2="521.646" y2="169.335" style="stroke:#3498db; stroke-width:0.8; stroke-opacity:1"/>
<line clip-path="url(#clip002)" x1="643.591" y1="139.078" x2="611.591" y2="139.078" style="stroke:#3498db; stroke-width:0.8; stroke-opacity:1"/>
<line clip-path="url(#clip002)" x1="733.536" y1="119.968" x2="701.536" y2="119.968" style="stroke:#3498db; stroke-width:0.8; stroke-opacity:1"/>
<line clip-path="url(#clip002)" x1="823.481" y1="126.338" x2="791.481" y2="126.338" style="stroke:#3498db; stroke-width:0.8; stroke-opacity:1"/>
<line clip-path="url(#clip002)" x1="913.425" y1="115.19" x2="881.425" y2="115.19" style="stroke:#3498db; stroke-width:0.8; stroke-opacity:1"/>
<line clip-path="url(#clip002)" x1="1003.37" y1="108.821" x2="971.37" y2="108.821" style="stroke:#3498db; stroke-width:0.8; stroke-opacity:1"/>
<line clip-path="url(#clip002)" x1="1093.32" y1="115.19" x2="1061.32" y2="115.19" style="stroke:#3498db; stroke-width:0.8; stroke-opacity:1"/>
<line clip-path="url(#clip002)" x1="1183.26" y1="123.153" x2="1151.26" y2="123.153" style="stroke:#3498db; stroke-width:0.8; stroke-opacity:1"/>
<line clip-path="url(#clip002)" x1="1273.2" y1="108.821" x2="1241.2" y2="108.821" style="stroke:#3498db; stroke-width:0.8; stroke-opacity:1"/>
<path clip-path="url(#clip000)" d="M1019.82 248.428 L1316.43 248.428 L1316.43 144.748 L1019.82 144.748  Z" fill="#ffffff" fill-rule="evenodd" fill-opacity="1"/>
<polyline clip-path="url(#clip000)" style="stroke:#000000; stroke-linecap:round; stroke-linejoin:round; stroke-width:4; stroke-opacity:1; fill:none" points="1019.82,248.428 1316.43,248.428 1316.43,144.748 1019.82,144.748 1019.82,248.428 "/>
<path clip-path="url(#clip000)" d="M1031.93 217.324 L1104.57 217.324 L1104.57 175.852 L1031.93 175.852 L1031.93 217.324  Z" fill="#3498db" fill-rule="evenodd" fill-opacity="1"/>
<polyline clip-path="url(#clip000)" style="stroke:#3498db; stroke-linecap:round; stroke-linejoin:round; stroke-width:0.8; stroke-opacity:1; fill:none" points="1031.93,217.324 1104.57,217.324 1104.57,175.852 1031.93,175.852 1031.93,217.324 "/>
<path clip-path="url(#clip000)" d="M1116.68 213.868 L1116.68 212.312 Q1118.51 212.312 1119.67 211.966 Q1120.83 211.595 1121.25 210.928 Q1121.7 210.237 1121.79 209.792 Q1121.89 209.323 1121.89 208.557 L1121.89 183.261 Q1121.89 181.803 1121.25 181.358 Q1120.63 180.889 1117.89 180.889 L1116.68 180.889 L1116.68 179.308 L1125.23 179.308 Q1126.14 179.308 1126.39 179.481 Q1126.64 179.629 1127.01 180.42 L1137.97 208.754 L1149.04 180.271 Q1149.29 179.555 1149.51 179.431 Q1149.76 179.308 1150.72 179.308 L1159.27 179.308 L1159.27 180.889 L1158.06 180.889 Q1155.32 180.889 1154.67 181.358 Q1154.06 181.803 1154.06 183.261 L1154.06 209.915 Q1154.06 211.373 1154.67 211.842 Q1155.32 212.312 1158.06 212.312 L1159.27 212.312 L1159.27 213.868 Q1157.39 213.72 1152.03 213.72 Q1146.62 213.72 1144.74 213.868 L1144.74 212.312 L1145.98 212.312 Q1148.72 212.312 1149.34 211.867 Q1149.96 211.398 1149.96 209.915 L1149.96 180.889 L1149.91 180.889 L1137.48 212.905 Q1137.13 213.868 1136.57 213.868 Q1135.95 213.868 1135.55 212.756 L1123.35 181.284 L1123.3 181.284 L1123.3 208.557 Q1123.3 209.323 1123.4 209.792 Q1123.5 210.237 1123.92 210.928 Q1124.36 211.595 1125.52 211.966 Q1126.69 212.312 1128.51 212.312 L1128.51 213.868 Q1123.2 213.72 1122.58 213.72 Q1121.99 213.72 1116.68 213.868 Z" fill="#000000" fill-rule="nonzero" fill-opacity="1" /><path clip-path="url(#clip000)" d="M1162.75 213.868 L1162.75 212.312 Q1167.25 212.213 1168.41 208.903 L1178.88 178.666 Q1179.08 178.048 1179.3 177.85 Q1179.53 177.653 1180.09 177.653 Q1180.39 177.653 1180.56 177.702 Q1180.76 177.752 1180.88 177.925 Q1181.01 178.098 1181.06 178.196 Q1181.11 178.295 1181.25 178.666 L1192.17 210.286 Q1192.57 211.546 1193.38 211.941 Q1194.2 212.312 1196.5 212.312 L1197.39 212.312 L1197.39 213.868 Q1194.2 213.72 1190.77 213.72 Q1185.31 213.72 1183.48 213.868 L1183.48 212.312 Q1187.68 212.312 1187.68 210.78 Q1187.68 210.681 1187.53 210.064 L1184.86 202.332 L1172.36 202.332 L1170.01 208.952 Q1169.92 209.15 1169.92 209.718 Q1169.92 210.78 1170.9 211.546 Q1171.89 212.312 1173.72 212.312 L1173.72 213.868 Q1168.85 213.72 1167.89 213.72 Q1166.24 213.72 1162.75 213.868 M1172.91 200.775 L1184.29 200.775 L1178.59 184.323 L1172.91 200.775 Z" fill="#000000" fill-rule="nonzero" fill-opacity="1" /><path clip-path="url(#clip000)" d="M1200.84 213.868 L1200.84 212.312 L1202.06 212.312 Q1204.8 212.312 1205.41 211.867 Q1206.06 211.398 1206.06 209.915 L1206.06 183.261 Q1206.06 181.803 1205.41 181.358 Q1204.77 180.889 1202.06 180.889 L1200.84 180.889 L1200.84 179.308 L1218.71 179.308 Q1223.82 179.308 1227.23 182.124 Q1230.64 184.94 1230.64 188.72 Q1230.64 192.475 1227.15 195.192 Q1223.7 197.885 1219.1 197.885 L1210.55 197.885 L1210.55 209.915 Q1210.55 211.373 1211.17 211.842 Q1211.81 212.312 1214.55 212.312 L1215.77 212.312 L1215.77 213.868 Q1213.99 213.72 1208.28 213.72 Q1202.62 213.72 1200.84 213.868 M1210.4 196.576 L1217.37 196.576 Q1219.64 196.576 1221.3 195.933 Q1222.95 195.291 1223.7 194.525 Q1224.46 193.735 1224.88 192.475 Q1225.33 191.19 1225.38 190.499 Q1225.42 189.782 1225.42 188.72 Q1225.42 187.608 1225.38 186.917 Q1225.33 186.2 1224.88 184.94 Q1224.46 183.656 1223.7 182.89 Q1222.95 182.099 1221.3 181.507 Q1219.67 180.889 1217.37 180.889 L1212.88 180.889 Q1211.15 180.889 1210.78 181.235 Q1210.4 181.581 1210.4 182.915 L1210.4 196.576 Z" fill="#000000" fill-rule="nonzero" fill-opacity="1" /><path clip-path="url(#clip000)" d="M1235.23 213.868 L1235.23 212.312 L1236.44 212.312 Q1239.18 212.312 1239.8 211.867 Q1240.44 211.398 1240.44 209.915 L1240.44 183.261 Q1240.44 181.803 1239.8 181.358 Q1239.16 180.889 1236.44 180.889 L1235.23 180.889 L1235.23 179.308 L1253.09 179.308 Q1258.21 179.308 1261.61 182.124 Q1265.02 184.94 1265.02 188.72 Q1265.02 192.475 1261.54 195.192 Q1258.08 197.885 1253.49 197.885 L1244.94 197.885 L1244.94 209.915 Q1244.94 211.373 1245.56 211.842 Q1246.2 212.312 1248.94 212.312 L1250.15 212.312 L1250.15 213.868 Q1248.37 213.72 1242.67 213.72 Q1237.01 213.72 1235.23 213.868 M1244.79 196.576 L1251.76 196.576 Q1254.03 196.576 1255.69 195.933 Q1257.34 195.291 1258.08 194.525 Q1258.85 193.735 1259.27 192.475 Q1259.71 191.19 1259.76 190.499 Q1259.81 189.782 1259.81 188.72 Q1259.81 187.608 1259.76 186.917 Q1259.71 186.2 1259.27 184.94 Q1258.85 183.656 1258.08 182.89 Q1257.34 182.099 1255.69 181.507 Q1254.06 180.889 1251.76 180.889 L1247.26 180.889 Q1245.53 180.889 1245.16 181.235 Q1244.79 181.581 1244.79 182.915 L1244.79 196.576 Z" fill="#000000" fill-rule="nonzero" fill-opacity="1" /><path clip-path="url(#clip000)" d="M1270.68 196.724 Q1270.68 188.992 1275.62 183.606 Q1280.59 178.196 1287.48 178.196 Q1294.42 178.196 1299.36 183.606 Q1304.33 189.016 1304.33 196.724 Q1304.33 204.357 1299.36 209.668 Q1294.4 214.98 1287.48 214.98 Q1280.66 214.98 1275.67 209.693 Q1270.68 204.407 1270.68 196.724 M1275.89 196.007 Q1275.89 200.701 1277.01 204.308 Q1278.12 207.89 1279.9 209.841 Q1281.7 211.793 1283.63 212.732 Q1285.55 213.67 1287.53 213.67 Q1289.46 213.67 1291.33 212.756 Q1293.24 211.842 1295.04 209.915 Q1296.84 207.989 1297.98 204.382 Q1299.11 200.775 1299.11 196.007 Q1299.11 192.302 1298.32 189.338 Q1297.53 186.348 1296.3 184.545 Q1295.06 182.742 1293.46 181.556 Q1291.88 180.37 1290.37 179.926 Q1288.89 179.456 1287.48 179.456 Q1285.7 179.456 1283.85 180.247 Q1282 181.037 1280.12 182.791 Q1278.26 184.52 1277.08 187.954 Q1275.89 191.363 1275.89 196.007 Z" fill="#000000" fill-rule="nonzero" fill-opacity="1" /></svg>
