<?xml version="1.0" encoding="UTF-8" standalone="no"?>
<svg
   width="181.43887"
   height="139.93353"
   viewBox="0 0 725.75549 559.73413"
   version="1.1"
   id="svg271"
   sodipodi:docname="Bouncing Ball.svg"
   inkscape:version="1.2.2 (b0a8486, 2022-12-01)"
   xml:space="preserve"
   xmlns:inkscape="http://www.inkscape.org/namespaces/inkscape"
   xmlns:sodipodi="http://sodipodi.sourceforge.net/DTD/sodipodi-0.dtd"
   xmlns:xlink="http://www.w3.org/1999/xlink"
   xmlns="http://www.w3.org/2000/svg"
   xmlns:svg="http://www.w3.org/2000/svg"><sodipodi:namedview
     id="namedview273"
     pagecolor="#ffffff"
     bordercolor="#000000"
     borderopacity="0.25"
     inkscape:showpageshadow="2"
     inkscape:pageopacity="0.0"
     inkscape:pagecheckerboard="0"
     inkscape:deskcolor="#d1d1d1"
     showgrid="false"
     inkscape:zoom="7.5983445"
     inkscape:cx="78.240727"
     inkscape:cy="91.993723"
     inkscape:window-width="1920"
     inkscape:window-height="1014"
     inkscape:window-x="1920"
     inkscape:window-y="29"
     inkscape:window-maximized="1"
     inkscape:current-layer="svg271"
     showguides="true"><sodipodi:guide
       position="393.76998,168.06987"
       orientation="0,-1"
       id="guide706"
       inkscape:locked="false" /></sodipodi:namedview><defs
     id="defs185"><marker
       style="overflow:visible"
       id="Stop"
       refX="0"
       refY="0"
       orient="auto"
       inkscape:stockid="Stop"
       markerWidth="1"
       markerHeight="8"
       viewBox="0 0 1 8"
       inkscape:isstock="true"
       inkscape:collect="always"
       preserveAspectRatio="xMidYMid"><path
         style="fill:none;stroke:context-stroke;stroke-width:1"
         d="M 0,4 V -4"
         id="path171" /></marker><linearGradient
       inkscape:collect="always"
       id="linearGradient3002"><stop
         style="stop-color:#c0392b;stop-opacity:1;"
         offset="0"
         id="stop2998" /><stop
         style="stop-color:#e67e22;stop-opacity:1;"
         offset="1"
         id="stop3000" /></linearGradient><marker
       style="overflow:visible"
       id="TriangleStart"
       refX="0"
       refY="0"
       orient="auto-start-reverse"
       inkscape:stockid="TriangleStart"
       markerWidth="5.3244081"
       markerHeight="6.155385"
       viewBox="0 0 5.3244081 6.1553851"
       inkscape:isstock="true"
       inkscape:collect="always"
       preserveAspectRatio="xMidYMid"><path
         transform="scale(0.5)"
         style="fill:context-stroke;fill-rule:evenodd;stroke:context-stroke;stroke-width:1pt"
         d="M 5.77,0 -2.88,5 V -5 Z"
         id="path135" /></marker><clipPath
       id="clip350"><rect
         x="0"
         y="0"
         width="1200"
         height="880"
         id="rect182" /></clipPath><linearGradient
       inkscape:collect="always"
       xlink:href="#linearGradient3002"
       id="linearGradient3004"
       x1="403.14352"
       y1="536.78839"
       x2="573.93982"
       y2="714.54022"
       gradientUnits="userSpaceOnUse"
       gradientTransform="matrix(0.51960079,0,0,0.51968081,125.7004,73.8591)" /></defs><path
     clip-path="url(#clip350)"
     d="M 0,880 H 1200 V 0 H 0 Z"
     fill="#ffffff"
     fill-rule="evenodd"
     fill-opacity="1"
     id="path187"
     transform="scale(0.60479626,0.63606153)"
     style="stroke-width:1.6123" /><defs
     id="defs192"><clipPath
       id="clip351"><rect
         x="240"
         y="0"
         width="841"
         height="841"
         id="rect189" /></clipPath></defs><defs
     id="defs199"><clipPath
       id="clip352"><rect
         x="222"
         y="31"
         width="755"
         height="755"
         id="rect196" /></clipPath></defs><path
     style="fill:none;stroke:#27ae60;stroke-width:8;stroke-linecap:round;stroke-linejoin:round;stroke-dasharray:none;stroke-opacity:1;marker-end:url(#TriangleStart)"
     d="M 194.50829,23.68785 V 230.6207"
     id="path474"
     sodipodi:nodetypes="cc" /><g
     id="g3059"
     transform="matrix(0.55,0,0,0.55,5.8757116,61.11745)"
     style="stroke-width:1.81818"><g
       aria-label="hit!"
       id="text2086"
       style="font-size:117.333px;font-family:serif;-inkscape-font-specification:serif;fill:#27ae60;stroke-width:21.8182;stroke-linecap:round;stroke-linejoin:round"><path
         d="m 111.75452,187.24132 v -4.928 h 0.93866 q 3.98934,0 6.80534,-1.408 2.816,-1.52534 2.816,-7.04 v -62.89067 q 0,-5.16267 -2.93334,-6.57067 -2.816,-1.408 -6.688,-1.408 h -0.93866 v -4.927998 h 21.58933 v 25.813338 q 0,2.112 -0.11733,4.45866 -0.11734,2.22934 -0.23467,3.872 -0.11733,1.64267 -0.11733,1.64267 h 0.58666 q 5.39734,-10.67733 17.248,-10.67733 10.09067,0 15.37067,5.51466 5.39734,5.39734 5.39734,17.48267 v 27.69067 q 0,5.51466 2.464,7.04 2.58133,1.408 6.57066,1.408 h 0.352 v 4.928 h -20.416 v -40.48 q 0,-7.62667 -2.93333,-11.85067 -2.816,-4.224 -9.97334,-4.224 -7.27466,0 -10.79466,5.16267 -3.40267,5.16266 -3.40267,13.84533 v 24.75733 q 0,5.16267 2.816,6.57067 2.93333,1.29067 6.80533,1.29067 h 0.352 v 4.928 z"
         id="path6922"
         style="stroke-width:21.8182" /><path
         d="m 203.03965,112.61732 q -2.816,0 -4.81066,-1.64267 -1.87734,-1.64267 -1.87734,-5.632 0,-4.10667 1.87734,-5.632001 1.99466,-1.642667 4.81066,-1.642667 2.69867,0 4.69334,1.642667 1.99466,1.525331 1.99466,5.632001 0,3.98933 -1.99466,5.632 -1.99467,1.64267 -4.69334,1.64267 z m -16.192,74.624 v -4.928 h 1.52534 q 3.872,0 6.688,-1.29067 2.93333,-1.408 2.93333,-6.57067 v -37.19466 q 0,-5.16267 -2.93333,-6.57067 -2.816,-1.408 -6.688,-1.408 h -0.352 v -4.928 h 21.00266 v 49.51467 q 0,5.51466 2.816,7.04 2.816,1.408 6.80534,1.408 h 1.52533 v 4.928 z"
         id="path6924"
         style="stroke-width:21.8182" /><path
         d="m 249.85562,188.41465 q -8.91734,0 -13.024,-3.98933 -3.98934,-4.10667 -3.98934,-14.19734 v -39.18933 h -8.91733 v -4.69333 q 2.112,0 4.69333,-0.82134 2.58134,-0.93866 4.45867,-2.93333 1.99467,-2.112 3.28533,-5.16267 1.29067,-3.05066 2.112,-7.50933 h 5.39734 v 14.432 h 15.37067 v 6.688 h -15.37067 v 39.54133 q 0,5.984 2.464,8.8 2.464,2.816 6.45333,2.816 2.112,0 3.872,-0.23466 1.76,-0.23467 3.63734,-0.58667 v 5.16267 q -1.52534,0.704 -4.576,1.29066 -3.05067,0.58667 -5.86667,0.58667 z"
         id="path6926"
         style="stroke-width:21.8182" /><path
         d="m 279.30621,163.65732 -3.63734,-60.192 h 13.61067 l -3.63733,60.192 z m 3.168,24.40533 q -3.05067,0 -5.28,-1.76 -2.112,-1.76 -2.112,-6.21867 0,-4.576 2.112,-6.21866 2.22933,-1.76 5.28,-1.76 3.05066,0 5.16266,1.76 2.22934,1.64266 2.22934,6.21866 0,4.45867 -2.22934,6.21867 -2.112,1.76 -5.16266,1.76 z"
         id="path6928"
         style="stroke-width:21.8182" /></g></g><path
     style="fill:#c0392b;fill-opacity:1;stroke:#2980b9;stroke-width:8.00002;stroke-linecap:round;stroke-linejoin:round;stroke-dasharray:24, 24;stroke-dashoffset:0;stroke-opacity:1;marker-start:url(#Stop)"
     d="M 247.58151,390.11733 V 547.17298"
     id="path4275"
     sodipodi:nodetypes="cc" /><g
     aria-label="p"
     id="text4529"
     style="font-size:117.333px;font-family:serif;-inkscape-font-specification:serif;fill:#2980b9;stroke-width:14.5455;stroke-linecap:round;stroke-linejoin:round"
     transform="matrix(0.55,0,0,0.55,111.41416,-1.2918)"><path
       d="m 216.14169,597.07626 v -4.928 h 0.93867 q 3.98933,0 6.80533,-1.52533 2.816,-1.408 2.816,-6.92267 v -64.768 q 0,-5.16267 -2.93333,-6.57067 -2.816,-1.408 -6.688,-1.408 h -1.52533 v -4.928 h 20.53333 l 1.17333,10.56 h 0.46934 q 2.69866,-5.39733 6.92266,-8.56533 4.224,-3.168 11.02934,-3.168 11.616,0 17.71733,7.86133 6.21867,7.744 6.21867,24.64 0,17.01334 -6.21867,24.87467 -6.10133,7.86133 -17.71733,7.86133 -6.80534,0 -11.14667,-2.816 -4.224,-2.93333 -6.80533,-7.50933 h -0.46934 q 0.23467,3.40267 0.352,7.27467 0.11734,3.75466 0.11734,5.984 v 11.264 q 0,5.16266 2.816,6.45333 2.93333,1.408 6.80533,1.408 h 0.352 v 4.928 z m 37.664,-34.496 q 7.744,0 11.02934,-6.45333 3.40266,-6.57067 3.40266,-18.89067 0,-12.55467 -3.40266,-18.656 -3.28534,-6.21867 -11.14667,-6.21867 -9.152,0 -12.55467,6.21867 -3.40266,6.10133 -3.40266,18.77333 0,12.20267 3.40266,18.77334 3.40267,6.45333 12.672,6.45333 z"
       id="path6919"
       style="stroke-width:14.5455" /></g><path
     clip-path="url(#clip352)"
     d="m 472.952,635.051 v -75.444 h 150.889 v 75.444 z"
     fill="#34495e"
     fill-rule="evenodd"
     fill-opacity="1"
     id="path265"
     transform="matrix(2.0987324,0,0,0.69156369,-768.24304,-251.86603)"
     style="stroke-width:0.830051" /><path
     clip-path="url(#clip352)"
     d="m 472.952,635.051 v -75.444 h 150.889 v 75.444 z"
     fill="#34495e"
     fill-rule="evenodd"
     fill-opacity="1"
     id="path418"
     transform="matrix(0.74112474,0,0,1.9668646,-23.735659,-1100.4745)"
     style="stroke-width:0.82826" /><ellipse
     style="fill:url(#linearGradient3004);fill-opacity:1;stroke:#34495e;stroke-width:4;stroke-linecap:round;stroke-linejoin:round;stroke-dasharray:none;stroke-opacity:1"
     id="path2484"
     cx="383.36182"
     cy="393.78369"
     rx="67.462936"
     ry="67.473328" /><path
     style="fill:none;stroke:#2980b9;stroke-width:8;stroke-linecap:round;stroke-linejoin:round;stroke-dasharray:none;stroke-opacity:1;marker-end:url(#TriangleStart)"
     d="M 383.31217,392.5343 V 239.9638"
     id="path5491"
     sodipodi:nodetypes="cc" /><g
     aria-label="v"
     id="text5495"
     style="font-size:117.333px;font-family:serif;-inkscape-font-specification:serif;fill:#2980b9;stroke-width:21.8182;stroke-linecap:round;stroke-linejoin:round"
     transform="matrix(0.55,0,0,0.55,163.33418,46.43786)"><path
       d="m 475.29449,400.63283 q -1.29066,-3.75466 -3.16799,-4.92799 -1.75999,-1.29066 -5.51465,-1.29066 v -4.92799 h 29.33325 v 4.92799 h -1.52533 q -7.03998,0 -7.03998,5.63198 0,0.93866 0.23467,1.99466 0.23466,1.056 0.70399,2.34666 l 7.97865,22.17594 q 1.64266,4.34132 3.16799,9.50397 1.52533,5.04532 2.34666,8.09598 0.58666,-2.46399 2.46399,-7.15731 1.87733,-4.69332 3.40266,-8.91731 l 8.44798,-22.87994 q 1.05599,-2.81599 1.05599,-5.04532 0,-5.74931 -7.74398,-5.74931 h -0.82133 v -4.92799 h 25.10927 v 4.92799 h -1.408 q -3.40266,0 -5.16265,1.75999 -1.64266,1.76 -3.75466,7.39198 l -18.53861,48.81053 H 494.1851 Z"
       id="path6916"
       style="stroke-width:21.8182" /></g><path
     style="fill:none;stroke:#34495e;stroke-width:7.55906;stroke-linecap:round;stroke-linejoin:round;stroke-dasharray:none;stroke-opacity:1"
     d="M 66.857785,546.62662 H 632.50668"
     id="path465" /></svg>
