<?xml version="1.0" encoding="UTF-8" standalone="no"?>
<svg
   width="360pt"
   height="288pt"
   viewBox="0 0 360 288"
   version="1.1"
   id="svg387"
   sodipodi:docname="rule2.svg"
   inkscape:version="1.2.2 (b0a8486, 2022-12-01)"
   xmlns:inkscape="http://www.inkscape.org/namespaces/inkscape"
   xmlns:sodipodi="http://sodipodi.sourceforge.net/DTD/sodipodi-0.dtd"
   xmlns:xlink="http://www.w3.org/1999/xlink"
   xmlns="http://www.w3.org/2000/svg"
   xmlns:svg="http://www.w3.org/2000/svg"
   xmlns:rdf="http://www.w3.org/1999/02/22-rdf-syntax-ns#"
   xmlns:cc="http://creativecommons.org/ns#"
   xmlns:dc="http://purl.org/dc/elements/1.1/">
  <sodipodi:namedview
     id="namedview389"
     pagecolor="#ffffff"
     bordercolor="#000000"
     borderopacity="0.25"
     inkscape:showpageshadow="2"
     inkscape:pageopacity="0.0"
     inkscape:pagecheckerboard="0"
     inkscape:deskcolor="#d1d1d1"
     inkscape:document-units="pt"
     showgrid="false"
     inkscape:zoom="2.0814625"
     inkscape:cx="431.18721"
     inkscape:cy="217.63544"
     inkscape:window-width="2560"
     inkscape:window-height="1371"
     inkscape:window-x="1440"
     inkscape:window-y="815"
     inkscape:window-maximized="1"
     inkscape:current-layer="svg387" />
  <metadata
     id="metadata182">
    <rdf:RDF>
      <cc:Work>
        <dc:type
           rdf:resource="http://purl.org/dc/dcmitype/StillImage" />
        <dc:date>2025-04-14T10:52:18.089022</dc:date>
        <dc:format>image/svg+xml</dc:format>
        <dc:creator>
          <cc:Agent>
            <dc:title>Matplotlib v3.10.1, https://matplotlib.org/</dc:title>
          </cc:Agent>
        </dc:creator>
      </cc:Work>
    </rdf:RDF>
  </metadata>
  <defs
     id="defs186">
    <pattern
       inkscape:collect="always"
       xlink:href="#Strips1_1"
       id="pattern4292"
       patternTransform="matrix(7.0710678,7.0710678,-7.0710678,7.0710678,0,0)" />
    <pattern
       inkscape:collect="always"
       patternUnits="userSpaceOnUse"
       width="2"
       height="1"
       patternTransform="translate(0,0) scale(10,10)"
       id="Strips1_1"
       inkscape:stockid="Stripes 1:1"
       inkscape:isstock="true">
      <rect
         style="fill:black;stroke:none"
         x="0"
         y="-0.5"
         width="1"
         height="2"
         id="rect2871" />
    </pattern>
    <style
       type="text/css"
       id="style184">*{stroke-linejoin: round; stroke-linecap: butt}</style>
  </defs>
  <g
     id="patch_1">
    <path
       d="M 0,288 H 360 V 0 H 0 Z"
       style="fill:#ffffff"
       id="path188" />
  </g>
  <path
     d="m 46.325,236.8 h 298.42 V 16.2 H 46.325 Z"
     style="fill:#ffffff"
     id="path191" />
  <path
     d="m 46.325,236.8 h 149.21 V 126.5 H 46.325 Z"
     clip-path="url(#pd63b0edf8c)"
     style="fill:#bebada;stroke:#000000;stroke-width:0.2"
     id="path194" />
  <path
     d="m 46.325,126.5 h 149.21 V 71.35 H 46.325 Z"
     clip-path="url(#pd63b0edf8c)"
     style="fill:#ffffb3;stroke:#000000;stroke-width:0.2"
     id="path196" />
  <path
     d="m 46.325,71.35 h 149.21 V 16.2 H 46.325 Z"
     clip-path="url(#pd63b0edf8c)"
     style="fill:#bebada;stroke:#000000;stroke-width:0.2"
     id="path198" />
  <path
     d="M 195.535,236.8 H 270.14 V 71.35 h -74.605 z"
     clip-path="url(#pd63b0edf8c)"
     style="fill:#ffffb3;stroke:#000000;stroke-width:0.2"
     id="path200" />
  <path
     d="M 195.535,71.35 H 270.14 V 16.2 h -74.605 z"
     clip-path="url(#pd63b0edf8c)"
     style="fill:#ffffb3;stroke:#000000;stroke-width:0.2"
     id="path202" />
  <path
     d="m 270.14,236.8 h 74.605 V 16.2 H 270.14 Z"
     clip-path="url(#pd63b0edf8c)"
     style="fill:#ffffb3;stroke:#000000;stroke-width:0.2"
     id="path204" />
  <path
     d="M 46.325,126.5 H 270.14 V 71.35 H 46.325 Z"
     clip-path="url(#pd63b0edf8c)"
     style="opacity:0.401422;fill:url(#pattern4292);fill-opacity:1"
     id="path206" />
  <path
     d="M 46.325,126.5 H 270.14 V 71.35 H 46.325 Z"
     clip-path="url(#pd63b0edf8c)"
     style="fill:none;stroke:#000000"
     id="path208" />
  <path
     d="m 46.325,71.35 h 149.21 V 16.2 H 46.325 Z"
     clip-path="url(#pd63b0edf8c)"
     style="fill:#ffffb3"
     id="path210" />
  <path
     d="m 46.325,71.35 h 149.21 V 16.2 H 46.325 Z"
     clip-path="url(#pd63b0edf8c)"
     style="fill:none;stroke:#000000"
     id="path212" />
  <g
     id="line2d_1">
    <defs
       id="defs220">
      <path
         id="mfbfd561cda"
         d="M 0,0 V 3.5"
         style="stroke:#000000;stroke-width:0.8" />
    </defs>
    <g
       id="g224">
      <use
         xlink:href="#mfbfd561cda"
         x="46.325001"
         y="236.8"
         style="stroke:#000000;stroke-width:0.8"
         id="use222" />
    </g>
  </g>
  <g
     id="line2d_2">
    <g
       id="g238">
      <use
         xlink:href="#mfbfd561cda"
         x="120.93"
         y="236.8"
         style="stroke:#000000;stroke-width:0.8"
         id="use236" />
    </g>
  </g>
  <g
     id="line2d_3">
    <g
       id="g252">
      <use
         xlink:href="#mfbfd561cda"
         x="195.535"
         y="236.8"
         style="stroke:#000000;stroke-width:0.8"
         id="use250" />
    </g>
  </g>
  <g
     id="line2d_4">
    <g
       id="g266">
      <use
         xlink:href="#mfbfd561cda"
         x="270.14001"
         y="236.8"
         style="stroke:#000000;stroke-width:0.8"
         id="use264" />
    </g>
  </g>
  <g
     id="line2d_5">
    <g
       id="g280">
      <use
         xlink:href="#mfbfd561cda"
         x="344.745"
         y="236.8"
         style="stroke:#000000;stroke-width:0.8"
         id="use278" />
    </g>
  </g>
  <g
     id="line2d_6">
    <defs
       id="defs302">
      <path
         id="m8016c6abad"
         d="M 0,0 H -3.5"
         style="stroke:#000000;stroke-width:0.8" />
    </defs>
    <g
       id="g306">
      <use
         xlink:href="#m8016c6abad"
         x="46.325001"
         y="236.8"
         style="stroke:#000000;stroke-width:0.8"
         id="use304" />
    </g>
  </g>
  <g
     id="line2d_7">
    <g
       id="g317">
      <use
         xlink:href="#m8016c6abad"
         x="46.325001"
         y="181.64999"
         style="stroke:#000000;stroke-width:0.8"
         id="use315" />
    </g>
  </g>
  <g
     id="line2d_8">
    <g
       id="g328">
      <use
         xlink:href="#m8016c6abad"
         x="46.325001"
         y="126.5"
         style="stroke:#000000;stroke-width:0.8"
         id="use326" />
    </g>
  </g>
  <g
     id="line2d_9">
    <g
       id="g339">
      <use
         xlink:href="#m8016c6abad"
         x="46.325001"
         y="71.349998"
         style="stroke:#000000;stroke-width:0.8"
         id="use337" />
    </g>
  </g>
  <g
     id="line2d_10">
    <g
       id="g350">
      <use
         xlink:href="#m8016c6abad"
         x="46.325001"
         y="16.200001"
         style="stroke:#000000;stroke-width:0.8"
         id="use348" />
    </g>
  </g>
  <path
     d="M 46.325,236.8 V 16.2"
     style="fill:none;stroke:#000000;stroke-width:0.8;stroke-linecap:square;stroke-linejoin:miter"
     id="path368" />
  <path
     d="M 344.745,236.8 V 16.2"
     style="fill:none;stroke:#000000;stroke-width:0.8;stroke-linecap:square;stroke-linejoin:miter"
     id="path371" />
  <path
     d="m 46.325,236.8 h 298.42"
     style="fill:none;stroke:#000000;stroke-width:0.8;stroke-linecap:square;stroke-linejoin:miter"
     id="path374" />
  <path
     d="m 46.325,16.2 h 298.42"
     style="fill:none;stroke:#000000;stroke-width:0.8;stroke-linecap:square;stroke-linejoin:miter"
     id="path377" />
  <defs
     id="defs385">
    <clipPath
       id="pd63b0edf8c">
      <rect
         x="46.325"
         y="16.2"
         width="298.42"
         height="220.6"
         id="rect382" />
    </clipPath>
  </defs>
  <g
     id="g2458">
    <g
       id="text_1"
       transform="matrix(1.728,0,0,1.728,-33.722211,-178.26822)"
       style="stroke-width:0.578703">
      <!-- 0 -->
      <g
         transform="matrix(0.14,0,0,-0.14,41.87125,254.43781)"
         id="g232"
         style="stroke-width:0.578703">
        <defs
           id="defs228">
          <path
             id="DejaVuSans-30"
             d="m 2034,4250 q -487,0 -733,-480 -245,-479 -245,-1442 0,-959 245,-1439 246,-480 733,-480 491,0 736,480 246,480 246,1439 0,963 -246,1442 -245,480 -736,480 z m 0,500 q 785,0 1199,-621 414,-620 414,-1801 0,-1178 -414,-1799 -414,-620 -1199,-620 -784,0 -1198,620 -414,621 -414,1799 0,1181 414,1801 414,621 1198,621 z"
             transform="scale(0.015625)" />
        </defs>
        <use
           xlink:href="#DejaVuSans-30"
           id="use230"
           style="stroke-width:0.578703" />
      </g>
    </g>
    <g
       id="text_2"
       transform="matrix(1.728,0,0,1.728,-88.12622,-178.26265)"
       style="stroke-width:0.578703">
      <!-- 1 -->
      <g
         transform="matrix(0.14,0,0,-0.14,116.47625,254.43781)"
         id="g246"
         style="stroke-width:0.578703">
        <defs
           id="defs242">
          <path
             id="DejaVuSans-31"
             d="M 794,531 H 1825 V 4091 L 703,3866 v 575 l 1116,225 h 631 V 531 H 3481 V 0 H 794 Z"
             transform="scale(0.015625)" />
        </defs>
        <use
           xlink:href="#DejaVuSans-31"
           id="use244"
           style="stroke-width:0.578703" />
      </g>
    </g>
    <g
       id="text_3"
       transform="matrix(1.728,0,0,1.728,-142.21253,-178.19577)"
       style="stroke-width:0.578703">
      <!-- 2 -->
      <g
         transform="matrix(0.14,0,0,-0.14,191.08125,254.43781)"
         id="g260"
         style="stroke-width:0.578703">
        <defs
           id="defs256">
          <path
             id="DejaVuSans-32"
             d="M 1228,531 H 3431 V 0 H 469 v 531 q 359,372 979,998 621,627 780,809 303,340 423,576 121,236 121,464 0,372 -261,606 -261,235 -680,235 -297,0 -627,-103 -329,-103 -704,-313 v 638 q 381,153 712,231 332,78 607,78 725,0 1156,-363 431,-362 431,-968 0,-288 -108,-546 -107,-257 -392,-607 -78,-91 -497,-524 Q 1991,1309 1228,531 Z"
             transform="scale(0.015625)" />
        </defs>
        <use
           xlink:href="#DejaVuSans-32"
           id="use258"
           style="stroke-width:0.578703" />
      </g>
    </g>
    <g
       id="text_4"
       transform="matrix(1.728,0,0,1.728,-196.64202,-178.26822)"
       style="stroke-width:0.578703">
      <!-- 3 -->
      <g
         transform="matrix(0.14,0,0,-0.14,265.68625,254.43781)"
         id="g274"
         style="stroke-width:0.578703">
        <defs
           id="defs270">
          <path
             id="DejaVuSans-33"
             d="m 2597,2516 q 453,-97 707,-404 255,-306 255,-756 0,-690 -475,-1069 -475,-378 -1350,-378 -293,0 -604,58 -311,58 -642,174 v 609 q 262,-153 574,-231 313,-78 654,-78 593,0 904,234 311,234 311,681 0,413 -289,645 -289,233 -804,233 h -544 v 519 h 569 q 465,0 712,186 247,186 247,536 0,359 -255,551 -254,193 -729,193 -260,0 -557,-57 -297,-56 -653,-174 v 562 q 360,100 674,150 314,50 592,50 719,0 1137,-327 419,-326 419,-882 0,-388 -222,-655 -222,-267 -631,-370 z"
             transform="scale(0.015625)" />
        </defs>
        <use
           xlink:href="#DejaVuSans-33"
           id="use272"
           style="stroke-width:0.578703" />
      </g>
    </g>
    <g
       id="text_5"
       transform="matrix(1.728,0,0,1.728,-250.93773,-178.26265)"
       style="stroke-width:0.578703">
      <!-- 4 -->
      <g
         transform="matrix(0.14,0,0,-0.14,340.29125,254.43781)"
         id="g288"
         style="stroke-width:0.578703">
        <defs
           id="defs284">
          <path
             id="DejaVuSans-34"
             d="M 2419,4116 825,1625 h 1594 z m -166,550 h 794 V 1625 h 666 V 1100 H 3047 V 0 H 2419 V 1100 H 313 v 609 z"
             transform="scale(0.015625)" />
        </defs>
        <use
           xlink:href="#DejaVuSans-34"
           id="use286"
           style="stroke-width:0.578703" />
      </g>
    </g>
    <g
       id="text_7"
       transform="matrix(1.728,0,0,1.728,-25.383881,-172.55284)"
       style="stroke-width:0.578703">
      <!-- 0 -->
      <g
         transform="matrix(0.14,0,0,-0.14,30.4175,242.11891)"
         id="g311"
         style="stroke-width:0.578703">
        <use
           xlink:href="#DejaVuSans-30"
           id="use309"
           style="stroke-width:0.578703" />
      </g>
    </g>
    <g
       id="text_8"
       transform="matrix(1.728,0,0,1.728,-25.47545,-132.39806)"
       style="stroke-width:0.578703">
      <!-- 1 -->
      <g
         transform="matrix(0.14,0,0,-0.14,30.4175,186.96891)"
         id="g322"
         style="stroke-width:0.578703">
        <use
           xlink:href="#DejaVuSans-31"
           id="use320"
           style="stroke-width:0.578703" />
      </g>
    </g>
    <g
       id="text_9"
       transform="matrix(1.728,0,0,1.728,-25.249315,-92.181979)"
       style="stroke-width:0.578703">
      <!-- 2 -->
      <g
         transform="matrix(0.14,0,0,-0.14,30.4175,131.81891)"
         id="g333"
         style="stroke-width:0.578703">
        <use
           xlink:href="#DejaVuSans-32"
           id="use331"
           style="stroke-width:0.578703" />
      </g>
    </g>
    <g
       id="text_10"
       transform="matrix(1.728,0,0,1.728,-25.366364,-52.105235)"
       style="stroke-width:0.578703">
      <!-- 3 -->
      <g
         transform="matrix(0.14,0,0,-0.14,30.4175,76.668906)"
         id="g344"
         style="stroke-width:0.578703">
        <use
           xlink:href="#DejaVuSans-33"
           id="use342"
           style="stroke-width:0.578703" />
      </g>
    </g>
    <g
       id="text_11"
       transform="matrix(1.728,0,0,1.728,-25.349643,-11.950461)"
       style="stroke-width:0.578703">
      <!-- 4 -->
      <g
         transform="matrix(0.14,0,0,-0.14,30.4175,21.518906)"
         id="g355"
         style="stroke-width:0.578703">
        <use
           xlink:href="#DejaVuSans-34"
           id="use353"
           style="stroke-width:0.578703" />
      </g>
    </g>
    <g
       aria-label="s1"
       id="text478"
       style="font-size:31.68px;-inkscape-font-specification:'sans-serif, Normal';opacity:1;stroke-width:0.2;stroke-linecap:round;stop-color:#000000">
      <path
         d="m 198.65473,276.18206 q 0,2.47104 -1.83744,3.73824 -1.83744,1.2672 -4.94208,1.2672 -1.77408,0 -3.07296,-0.28512 -1.2672,-0.28512 -2.24928,-0.792 v -2.5344 q 1.01376,0.50688 2.43936,0.9504 1.45728,0.41184 2.94624,0.41184 2.12256,0 3.07296,-0.66528 0.9504,-0.69696 0.9504,-1.83744 0,-0.6336 -0.34848,-1.14048 -0.34848,-0.50688 -1.2672,-1.01376 -0.88704,-0.50688 -2.56608,-1.14048 -1.64736,-0.6336 -2.81952,-1.2672 -1.17216,-0.6336 -1.80576,-1.52064 -0.6336,-0.88704 -0.6336,-2.28096 0,-2.15424 1.7424,-3.3264 1.77408,-1.17216 4.62528,-1.17216 1.55232,0 2.88288,0.3168 1.36224,0.28512 2.5344,0.82368 l -0.9504,2.2176 q -1.07712,-0.44352 -2.24928,-0.76032 -1.17216,-0.3168 -2.40768,-0.3168 -1.71072,0 -2.62944,0.57024 -0.88704,0.53856 -0.88704,1.48896 0,0.69696 0.41184,1.20384 0.41184,0.4752 1.36224,0.9504 0.98208,0.44352 2.59776,1.07712 1.61568,0.60192 2.75616,1.23552 1.14048,0.6336 1.7424,1.55232 0.60192,0.88704 0.60192,2.24928 z"
         style="stroke-linecap:butt"
         id="path2297" />
      <path
         d="m 207.39043,287.2067 h -1.77091 v -10.27541 q 0,-0.88546 0.0206,-1.42085 0.0206,-0.53539 0.0618,-1.11197 -0.32947,0.32948 -0.59717,0.55599 -0.2677,0.22651 -0.67954,0.57657 l -1.56499,1.27671 -0.94723,-1.21493 3.97426,-3.0888 h 1.50321 z"
         style="font-size:20.592px;baseline-shift:sub;stroke-linecap:butt"
         id="path2299" />
    </g>
    <g
       aria-label="s2"
       transform="rotate(-90)"
       id="text1740"
       style="font-size:31.68px;-inkscape-font-specification:'sans-serif, Normal';opacity:1;stroke-width:0.2;stroke-linecap:round;stop-color:#000000">
      <path
         d="m -127.86985,14.673529 q 0,2.47104 -1.83744,3.73824 -1.83744,1.2672 -4.94208,1.2672 -1.77408,0 -3.07296,-0.28512 -1.2672,-0.28512 -2.24928,-0.792 v -2.5344 q 1.01376,0.50688 2.43936,0.9504 1.45728,0.41184 2.94624,0.41184 2.12256,0 3.07296,-0.66528 0.9504,-0.69696 0.9504,-1.83744 0,-0.6336 -0.34848,-1.14048 -0.34848,-0.50688 -1.2672,-1.01376 -0.88704,-0.50688 -2.56608,-1.14048 -1.64736,-0.6336 -2.81952,-1.2672 -1.17216,-0.6335998 -1.80576,-1.5206398 -0.6336,-0.88704 -0.6336,-2.2809601 0,-2.15424 1.7424,-3.3264 1.77408,-1.17216 4.62528,-1.17216 1.55232,0 2.88288,0.3168 1.36224,0.28512 2.5344,0.82368 l -0.9504,2.2176 q -1.07712,-0.44352 -2.24928,-0.76032 -1.17216,-0.3168 -2.40768,-0.3168 -1.71072,0 -2.62944,0.57024 -0.88704,0.53856 -0.88704,1.48896 0,0.69696 0.41184,1.2038401 0.41184,0.4752 1.36224,0.9504 0.98208,0.44352 2.59776,1.07712 1.61568,0.6019198 2.75616,1.2355198 1.14048,0.6336 1.7424,1.55232 0.60192,0.88704 0.60192,2.24928 z"
         style="stroke-linecap:butt"
         id="path2292" />
      <path
         d="m -115.73647,25.698169 h -9.71942 v -1.503216 l 3.8507,-3.891888 q 1.11197,-1.111967 1.87387,-1.976831 0.76191,-0.864864 1.15315,-1.688544 0.39125,-0.844272 0.39125,-1.832688 0,-1.214928 -0.72072,-1.832688 -0.72072,-0.638352 -1.87387,-0.638352 -1.07078,0 -1.89446,0.370656 -0.80309,0.370656 -1.64736,1.0296 l -0.96783,-1.214928 q 0.86487,-0.72072 1.97683,-1.214928 1.13256,-0.5148 2.53282,-0.5148 2.0592,0 3.25354,1.050192 1.19433,1.0296 1.19433,2.862288 0,1.153152 -0.47361,2.16216 -0.47362,1.009008 -1.31789,1.997424 -0.84427,0.967824 -1.97683,2.079791 l -3.06821,3.027024 v 0.08237 h 7.43371 z"
         style="font-size:20.592px;baseline-shift:sub;stroke-linecap:butt"
         id="path2294" />
    </g>
  </g>
  <path
     style="fill:none;stroke:#0025fc;stroke-width:6.25322829;stroke-dasharray:23.13693346, 10.0051649;stroke-dashoffset:0;stroke-opacity:1"
     d="M 195.535,236.8 H 270.14 V 71.35 h -74.605 z"
     id="path216" />
</svg>
