<?xml version="1.0" encoding="UTF-8" standalone="no"?>
<svg
   width="300"
   height="150"
   viewBox="0 0 1200 600"
   version="1.1"
   id="svg700"
   sodipodi:docname="BarbaricAccuracyN.svg"
   inkscape:export-filename="BarbaricAccuracyN.png"
   inkscape:export-xdpi="200"
   inkscape:export-ydpi="200"
   inkscape:version="1.2.2 (b0a8486, 2022-12-01)"
   xmlns:inkscape="http://www.inkscape.org/namespaces/inkscape"
   xmlns:sodipodi="http://sodipodi.sourceforge.net/DTD/sodipodi-0.dtd"
   xmlns="http://www.w3.org/2000/svg"
   xmlns:svg="http://www.w3.org/2000/svg">
  <sodipodi:namedview
     id="namedview702"
     pagecolor="#ffffff"
     bordercolor="#000000"
     borderopacity="0.25"
     inkscape:showpageshadow="2"
     inkscape:pageopacity="0.0"
     inkscape:pagecheckerboard="0"
     inkscape:deskcolor="#d1d1d1"
     showgrid="false"
     inkscape:zoom="12.586667"
     inkscape:cx="278.70763"
     inkscape:cy="101.09905"
     inkscape:window-width="2560"
     inkscape:window-height="1376"
     inkscape:window-x="0"
     inkscape:window-y="0"
     inkscape:window-maximized="1"
     inkscape:current-layer="svg700" />
  <defs
     id="defs458">
    <clipPath
       id="clip610">
      <rect
         x="0"
         y="0"
         width="1200"
         height="600"
         id="rect455" />
    </clipPath>
  </defs>
  <path
     clip-path="url(#clip610)"
     d=" M0 600 L1200 600 L1200 0 L0 0  Z   "
     fill="#ffffff"
     fill-rule="evenodd"
     fill-opacity="1"
     id="path460" />
  <defs
     id="defs465">
    <clipPath
       id="clip611">
      <rect
         x="240"
         y="0"
         width="841"
         height="600"
         id="rect462" />
    </clipPath>
  </defs>
  <defs
     id="defs470">
    <clipPath
       id="clip612">
      <rect
         x="197"
         y="31"
         width="972"
         height="439"
         id="rect467" />
    </clipPath>
  </defs>
  <path
     clip-path="url(#clip610)"
     d=" M197.835 469.448 L1168.5 469.448 L1168.5 31.4961 L197.835 31.4961  Z   "
     fill="#ffffff"
     fill-rule="evenodd"
     fill-opacity="1"
     id="path472" />
  <polyline
     clip-path="url(#clip612)"
     style="stroke:#000000; stroke-linecap:round; stroke-linejoin:round; stroke-width:2; stroke-opacity:0.1; fill:none"
     points="   225.307,469.448 225.307,31.4961    "
     id="polyline474" />
  <polyline
     clip-path="url(#clip612)"
     style="stroke:#000000; stroke-linecap:round; stroke-linejoin:round; stroke-width:2; stroke-opacity:0.1; fill:none"
     points="   356.125,469.448 356.125,31.4961    "
     id="polyline476" />
  <polyline
     clip-path="url(#clip612)"
     style="stroke:#000000; stroke-linecap:round; stroke-linejoin:round; stroke-width:2; stroke-opacity:0.1; fill:none"
     points="   486.943,469.448 486.943,31.4961    "
     id="polyline478" />
  <polyline
     clip-path="url(#clip612)"
     style="stroke:#000000; stroke-linecap:round; stroke-linejoin:round; stroke-width:2; stroke-opacity:0.1; fill:none"
     points="   617.761,469.448 617.761,31.4961    "
     id="polyline480" />
  <polyline
     clip-path="url(#clip612)"
     style="stroke:#000000; stroke-linecap:round; stroke-linejoin:round; stroke-width:2; stroke-opacity:0.1; fill:none"
     points="   748.578,469.448 748.578,31.4961    "
     id="polyline482" />
  <polyline
     clip-path="url(#clip612)"
     style="stroke:#000000; stroke-linecap:round; stroke-linejoin:round; stroke-width:2; stroke-opacity:0.1; fill:none"
     points="   879.396,469.448 879.396,31.4961    "
     id="polyline484" />
  <polyline
     clip-path="url(#clip612)"
     style="stroke:#000000; stroke-linecap:round; stroke-linejoin:round; stroke-width:2; stroke-opacity:0.1; fill:none"
     points="   1010.21,469.448 1010.21,31.4961    "
     id="polyline486" />
  <polyline
     clip-path="url(#clip612)"
     style="stroke:#000000; stroke-linecap:round; stroke-linejoin:round; stroke-width:2; stroke-opacity:0.1; fill:none"
     points="   1141.03,469.448 1141.03,31.4961    "
     id="polyline488" />
  <polyline
     clip-path="url(#clip610)"
     style="stroke:#000000; stroke-linecap:round; stroke-linejoin:round; stroke-width:4; stroke-opacity:1; fill:none"
     points="   197.835,469.448 1168.5,469.448    "
     id="polyline490" />
  <polyline
     clip-path="url(#clip610)"
     style="stroke:#000000; stroke-linecap:round; stroke-linejoin:round; stroke-width:4; stroke-opacity:1; fill:none"
     points="   225.307,469.448 225.307,450.55    "
     id="polyline492" />
  <polyline
     clip-path="url(#clip610)"
     style="stroke:#000000; stroke-linecap:round; stroke-linejoin:round; stroke-width:4; stroke-opacity:1; fill:none"
     points="   356.125,469.448 356.125,450.55    "
     id="polyline494" />
  <polyline
     clip-path="url(#clip610)"
     style="stroke:#000000; stroke-linecap:round; stroke-linejoin:round; stroke-width:4; stroke-opacity:1; fill:none"
     points="   486.943,469.448 486.943,450.55    "
     id="polyline496" />
  <polyline
     clip-path="url(#clip610)"
     style="stroke:#000000; stroke-linecap:round; stroke-linejoin:round; stroke-width:4; stroke-opacity:1; fill:none"
     points="   617.761,469.448 617.761,450.55    "
     id="polyline498" />
  <polyline
     clip-path="url(#clip610)"
     style="stroke:#000000; stroke-linecap:round; stroke-linejoin:round; stroke-width:4; stroke-opacity:1; fill:none"
     points="   748.578,469.448 748.578,450.55    "
     id="polyline500" />
  <polyline
     clip-path="url(#clip610)"
     style="stroke:#000000; stroke-linecap:round; stroke-linejoin:round; stroke-width:4; stroke-opacity:1; fill:none"
     points="   879.396,469.448 879.396,450.55    "
     id="polyline502" />
  <polyline
     clip-path="url(#clip610)"
     style="stroke:#000000; stroke-linecap:round; stroke-linejoin:round; stroke-width:4; stroke-opacity:1; fill:none"
     points="   1010.21,469.448 1010.21,450.55    "
     id="polyline504" />
  <polyline
     clip-path="url(#clip610)"
     style="stroke:#000000; stroke-linecap:round; stroke-linejoin:round; stroke-width:4; stroke-opacity:1; fill:none"
     points="   1141.03,469.448 1141.03,450.55    "
     id="polyline506" />
  <path
     clip-path="url(#clip610)"
     d="M215.203 522.248 Q215.203 521.334 215.277 521.062 Q215.376 520.79 215.771 520.37 L225.48 509.55 Q230.791 503.572 230.791 498.36 Q230.791 494.975 229.012 492.554 Q227.258 490.134 224.022 490.134 Q221.799 490.134 219.921 491.492 Q218.044 492.851 217.179 495.272 Q217.328 495.222 217.846 495.222 Q219.106 495.222 219.798 496.013 Q220.514 496.803 220.514 497.866 Q220.514 499.224 219.625 499.891 Q218.76 500.534 217.896 500.534 Q217.55 500.534 217.081 500.46 Q216.636 500.385 215.919 499.694 Q215.203 498.977 215.203 497.717 Q215.203 494.185 217.871 491.369 Q220.564 488.552 224.664 488.552 Q229.309 488.552 232.347 491.319 Q235.41 494.061 235.41 498.36 Q235.41 499.867 234.941 501.25 Q234.496 502.609 233.879 503.671 Q233.286 504.733 231.656 506.438 Q230.025 508.142 228.716 509.353 Q227.407 510.563 224.467 513.132 L219.106 518.345 L228.222 518.345 Q232.668 518.345 233.014 517.949 Q233.508 517.233 234.126 513.453 L235.41 513.453 L233.978 522.248 L215.203 522.248 Z"
     fill="#000000"
     fill-rule="evenodd"
     fill-opacity="1"
     id="path508" />
  <path
     clip-path="url(#clip610)"
     d="M344.909 513.898 L344.909 512.342 L360.448 488.602 Q360.843 487.984 361.461 488.009 Q362.029 488.009 362.152 488.231 Q362.276 488.454 362.276 489.318 L362.276 512.342 L367.34 512.342 L367.34 513.898 L362.276 513.898 L362.276 518.295 Q362.276 519.753 362.869 520.222 Q363.486 520.692 366.105 520.692 L367.167 520.692 L367.167 522.248 Q365.092 522.1 360.3 522.1 Q355.532 522.1 353.457 522.248 L353.457 520.692 L354.519 520.692 Q357.138 520.692 357.755 520.247 Q358.373 519.778 358.373 518.295 L358.373 513.898 L344.909 513.898 M346.342 512.342 L358.669 512.342 L358.669 493.468 L346.342 512.342 Z"
     fill="#000000"
     fill-rule="evenodd"
     fill-opacity="1"
     id="path510" />
  <path
     clip-path="url(#clip610)"
     d="M476.444 506.265 Q476.444 498.31 480.495 493.444 Q484.546 488.552 489.759 488.552 Q492.797 488.552 494.477 490.109 Q496.182 491.64 496.182 494.012 Q496.182 495.321 495.416 495.889 Q494.65 496.458 493.86 496.458 Q492.946 496.458 492.229 495.84 Q491.513 495.222 491.513 494.111 Q491.513 491.838 494.304 491.838 Q492.995 489.812 489.858 489.812 Q488.894 489.812 487.906 490.109 Q486.918 490.381 485.633 491.319 Q484.349 492.258 483.361 493.74 Q482.372 495.222 481.681 498.014 Q480.989 500.805 480.989 504.437 L480.989 505.647 Q483.064 500.632 487.313 500.657 Q491.562 500.657 494.502 503.893 Q497.442 507.129 497.442 511.922 Q497.442 516.838 494.378 520.099 Q491.315 523.36 487.017 523.36 Q485.09 523.36 483.336 522.544 Q481.607 521.754 479.976 519.926 Q478.371 518.098 477.407 514.59 Q476.444 511.082 476.444 506.265 M481.088 510.81 Q481.088 515.776 482.002 518.147 Q482.15 518.542 482.471 519.086 Q482.817 519.629 483.385 520.346 Q483.978 521.037 484.942 521.507 Q485.905 521.951 487.017 521.951 Q490.401 521.951 492.031 518.666 Q492.896 516.838 492.896 511.872 Q492.896 506.808 491.982 504.956 Q490.426 501.818 487.264 501.818 Q485.139 501.818 483.657 503.276 Q482.2 504.733 481.631 506.685 Q481.088 508.636 481.088 510.81 Z"
     fill="#000000"
     fill-rule="evenodd"
     fill-opacity="1"
     id="path512" />
  <path
     clip-path="url(#clip610)"
     d="M607.262 514.615 Q607.262 508.957 614.549 505.301 Q611.412 503.177 610.844 502.559 Q608.62 500.089 608.62 497.001 Q608.62 493.468 611.288 491.023 Q613.981 488.552 617.785 488.552 Q621.417 488.552 624.159 490.652 Q626.901 492.752 626.901 496.087 Q626.901 500.781 620.774 503.943 Q624.826 506.462 625.789 507.525 Q628.259 510.267 628.259 513.75 Q628.259 517.801 625.147 520.593 Q622.034 523.36 617.736 523.36 Q613.536 523.36 610.399 520.914 Q607.262 518.468 607.262 514.615 M609.781 514.615 Q609.781 517.752 612.128 519.852 Q614.5 521.951 617.785 521.951 Q620.972 521.951 623.343 520.123 Q625.74 518.295 625.74 515.578 Q625.74 514.516 625.369 513.602 Q625.023 512.688 624.307 511.971 Q623.615 511.23 623.171 510.909 Q622.751 510.563 621.935 509.995 L615.71 506.067 Q609.781 509.353 609.781 514.615 M610.844 495.025 Q610.844 497.446 613.388 499.126 L619.663 503.177 Q624.677 500.237 624.677 496.087 Q624.677 493.394 622.627 491.616 Q620.577 489.812 617.736 489.812 Q614.944 489.812 612.894 491.295 Q610.844 492.752 610.844 495.025 Z"
     fill="#000000"
     fill-rule="evenodd"
     fill-opacity="1"
     id="path514" />
  <path
     clip-path="url(#clip610)"
     d="M726.543 493.37 L726.543 491.789 Q732.62 491.789 735.757 488.552 Q736.622 488.552 736.77 488.75 Q736.918 488.948 736.918 489.862 L736.918 518.246 Q736.918 519.753 737.66 520.222 Q738.401 520.692 741.637 520.692 L743.242 520.692 L743.242 522.248 Q741.464 522.1 735.041 522.1 Q728.618 522.1 726.864 522.248 L726.864 520.692 L728.47 520.692 Q731.657 520.692 732.422 520.247 Q733.188 519.778 733.188 518.246 L733.188 492.036 Q730.545 493.37 726.543 493.37 Z"
     fill="#000000"
     fill-rule="evenodd"
     fill-opacity="1"
     id="path516" />
  <path
     clip-path="url(#clip610)"
     d="M749.32 506.067 Q749.32 498.631 751.197 494.58 Q753.816 488.552 759.991 488.552 Q761.301 488.552 762.659 488.923 Q764.043 489.269 765.772 490.628 Q767.526 491.986 768.588 494.21 Q770.614 498.508 770.614 506.067 Q770.614 513.453 768.736 517.48 Q765.994 523.36 759.942 523.36 Q757.669 523.36 755.347 522.198 Q753.05 521.037 751.592 518.246 Q749.32 514.071 749.32 506.067 M753.519 505.45 Q753.519 513.083 754.063 516.121 Q754.68 519.407 756.36 520.84 Q758.065 522.248 759.942 522.248 Q761.968 522.248 763.647 520.741 Q765.352 519.209 765.871 515.924 Q766.439 512.688 766.414 505.45 Q766.414 498.409 765.92 495.593 Q765.253 492.307 763.475 490.998 Q761.721 489.664 759.942 489.664 Q759.275 489.664 758.559 489.862 Q757.867 490.059 756.854 490.628 Q755.841 491.196 755.051 492.604 Q754.285 494.012 753.914 496.136 Q753.519 498.878 753.519 505.45 Z"
     fill="#000000"
     fill-rule="evenodd"
     fill-opacity="1"
     id="path518" />
  <path
     clip-path="url(#clip610)"
     d="M857.633 493.37 L857.633 491.789 Q863.71 491.789 866.847 488.552 Q867.712 488.552 867.86 488.75 Q868.008 488.948 868.008 489.862 L868.008 518.246 Q868.008 519.753 868.749 520.222 Q869.49 520.692 872.726 520.692 L874.332 520.692 L874.332 522.248 Q872.554 522.1 866.131 522.1 Q859.708 522.1 857.954 522.248 L857.954 520.692 L859.56 520.692 Q862.746 520.692 863.512 520.247 Q864.278 519.778 864.278 518.246 L864.278 492.036 Q861.635 493.37 857.633 493.37 Z"
     fill="#000000"
     fill-rule="evenodd"
     fill-opacity="1"
     id="path520" />
  <path
     clip-path="url(#clip610)"
     d="M880.953 522.248 Q880.953 521.334 881.027 521.062 Q881.126 520.79 881.521 520.37 L891.229 509.55 Q896.54 503.572 896.54 498.36 Q896.54 494.975 894.762 492.554 Q893.008 490.134 889.772 490.134 Q887.548 490.134 885.671 491.492 Q883.794 492.851 882.929 495.272 Q883.077 495.222 883.596 495.222 Q884.856 495.222 885.547 496.013 Q886.264 496.803 886.264 497.866 Q886.264 499.224 885.375 499.891 Q884.51 500.534 883.645 500.534 Q883.299 500.534 882.83 500.46 Q882.385 500.385 881.669 499.694 Q880.953 498.977 880.953 497.717 Q880.953 494.185 883.621 491.369 Q886.313 488.552 890.414 488.552 Q895.058 488.552 898.097 491.319 Q901.16 494.061 901.16 498.36 Q901.16 499.867 900.691 501.25 Q900.246 502.609 899.628 503.671 Q899.036 504.733 897.405 506.438 Q895.775 508.142 894.465 509.353 Q893.156 510.563 890.216 513.132 L884.856 518.345 L893.971 518.345 Q898.418 518.345 898.764 517.949 Q899.258 517.233 899.875 513.453 L901.16 513.453 L899.727 522.248 L880.953 522.248 Z"
     fill="#000000"
     fill-rule="evenodd"
     fill-opacity="1"
     id="path522" />
  <path
     clip-path="url(#clip610)"
     d="M987.895 493.37 L987.895 491.789 Q993.972 491.789 997.109 488.552 Q997.974 488.552 998.122 488.75 Q998.27 488.948 998.27 489.862 L998.27 518.246 Q998.27 519.753 999.011 520.222 Q999.752 520.692 1002.99 520.692 L1004.59 520.692 L1004.59 522.248 Q1002.82 522.1 996.393 522.1 Q989.97 522.1 988.216 522.248 L988.216 520.692 L989.822 520.692 Q993.008 520.692 993.774 520.247 Q994.54 519.778 994.54 518.246 L994.54 492.036 Q991.897 493.37 987.895 493.37 Z"
     fill="#000000"
     fill-rule="evenodd"
     fill-opacity="1"
     id="path524" />
  <path
     clip-path="url(#clip610)"
     d="M1010.1 513.898 L1010.1 512.342 L1025.64 488.602 Q1026.04 487.984 1026.65 488.009 Q1027.22 488.009 1027.35 488.231 Q1027.47 488.454 1027.47 489.318 L1027.47 512.342 L1032.53 512.342 L1032.53 513.898 L1027.47 513.898 L1027.47 518.295 Q1027.47 519.753 1028.06 520.222 Q1028.68 520.692 1031.3 520.692 L1032.36 520.692 L1032.36 522.248 Q1030.29 522.1 1025.49 522.1 Q1020.73 522.1 1018.65 522.248 L1018.65 520.692 L1019.71 520.692 Q1022.33 520.692 1022.95 520.247 Q1023.57 519.778 1023.57 518.295 L1023.57 513.898 L1010.1 513.898 M1011.54 512.342 L1023.86 512.342 L1023.86 493.468 L1011.54 512.342 Z"
     fill="#000000"
     fill-rule="evenodd"
     fill-opacity="1"
     id="path526" />
  <path
     clip-path="url(#clip610)"
     d="M1119.07 493.37 L1119.07 491.789 Q1125.15 491.789 1128.29 488.552 Q1129.15 488.552 1129.3 488.75 Q1129.45 488.948 1129.45 489.862 L1129.45 518.246 Q1129.45 519.753 1130.19 520.222 Q1130.93 520.692 1134.16 520.692 L1135.77 520.692 L1135.77 522.248 Q1133.99 522.1 1127.57 522.1 Q1121.15 522.1 1119.39 522.248 L1119.39 520.692 L1121 520.692 Q1124.18 520.692 1124.95 520.247 Q1125.72 519.778 1125.72 518.246 L1125.72 492.036 Q1123.07 493.37 1119.07 493.37 Z"
     fill="#000000"
     fill-rule="evenodd"
     fill-opacity="1"
     id="path528" />
  <path
     clip-path="url(#clip610)"
     d="M1142 506.265 Q1142 498.31 1146.05 493.444 Q1150.1 488.552 1155.31 488.552 Q1158.35 488.552 1160.03 490.109 Q1161.73 491.64 1161.73 494.012 Q1161.73 495.321 1160.97 495.889 Q1160.2 496.458 1159.41 496.458 Q1158.5 496.458 1157.78 495.84 Q1157.06 495.222 1157.06 494.111 Q1157.06 491.838 1159.86 491.838 Q1158.55 489.812 1155.41 489.812 Q1154.45 489.812 1153.46 490.109 Q1152.47 490.381 1151.19 491.319 Q1149.9 492.258 1148.91 493.74 Q1147.92 495.222 1147.23 498.014 Q1146.54 500.805 1146.54 504.437 L1146.54 505.647 Q1148.62 500.632 1152.87 500.657 Q1157.11 500.657 1160.05 503.893 Q1162.99 507.129 1162.99 511.922 Q1162.99 516.838 1159.93 520.099 Q1156.87 523.36 1152.57 523.36 Q1150.64 523.36 1148.89 522.544 Q1147.16 521.754 1145.53 519.926 Q1143.92 518.098 1142.96 514.59 Q1142 511.082 1142 506.265 M1146.64 510.81 Q1146.64 515.776 1147.55 518.147 Q1147.7 518.542 1148.02 519.086 Q1148.37 519.629 1148.94 520.346 Q1149.53 521.037 1150.49 521.507 Q1151.46 521.951 1152.57 521.951 Q1155.95 521.951 1157.58 518.666 Q1158.45 516.838 1158.45 511.872 Q1158.45 506.808 1157.53 504.956 Q1155.98 501.818 1152.82 501.818 Q1150.69 501.818 1149.21 503.276 Q1147.75 504.733 1147.18 506.685 Q1146.64 508.636 1146.64 510.81 Z"
     fill="#000000"
     fill-rule="evenodd"
     fill-opacity="1"
     id="path530" />
  <path
     clip-path="url(#clip610)"
     d="M699.332 572.43 Q699.332 572.688 699.042 573.686 Q698.753 574.684 698.044 576.23 Q697.368 577.776 696.434 579.193 Q695.5 580.578 693.954 581.609 Q692.44 582.607 690.701 582.607 Q688.382 582.607 686.836 581.061 Q685.291 579.515 685.291 577.196 Q685.291 575.908 685.967 574.137 Q690.25 562.704 690.25 558.775 Q690.25 554.169 686.675 554.169 Q684.904 554.169 683.229 554.846 Q681.587 555.49 680.46 556.391 Q679.332 557.293 678.302 558.549 Q677.303 559.773 676.788 560.61 Q676.305 561.416 675.919 562.221 L675.081 565.506 Q674.888 566.407 673.954 569.918 L672.505 575.876 Q671.474 580.32 671.249 580.739 Q670.927 581.641 670.218 582.124 Q669.51 582.607 668.801 582.607 Q667.996 582.607 667.448 582.124 Q666.901 581.641 666.901 580.803 Q666.901 580.675 666.998 580.192 Q667.094 579.708 667.255 579.032 Q667.416 578.356 667.481 577.969 L671.313 562.736 Q672.022 559.966 672.183 559.097 Q672.376 558.195 672.376 557.197 Q672.376 554.169 670.315 554.169 Q668.64 554.169 667.545 556.166 Q666.45 558.163 665.516 562.027 Q665.226 563.09 665.033 563.316 Q664.872 563.541 664.389 563.541 Q663.584 563.509 663.584 562.865 Q663.584 562.704 663.841 561.641 Q664.099 560.578 664.582 559.065 Q665.097 557.519 665.581 556.488 Q665.999 555.715 666.225 555.361 Q666.482 554.974 667.094 554.234 Q667.738 553.461 668.576 553.106 Q669.445 552.72 670.508 552.72 Q672.891 552.72 674.63 554.266 Q676.37 555.78 676.595 558.453 Q680.878 552.72 686.869 552.72 Q690.411 552.72 692.44 554.588 Q694.469 556.456 694.469 559.773 Q694.469 560.546 694.308 561.544 Q694.179 562.511 693.857 563.734 Q693.567 564.958 693.31 565.892 Q693.052 566.826 692.537 568.34 Q692.022 569.821 691.796 570.465 Q691.571 571.11 691.023 572.623 Q690.508 574.105 690.443 574.266 Q689.252 577.261 689.252 578.968 Q689.252 580.095 689.606 580.61 Q689.993 581.126 690.83 581.126 Q693.084 581.126 694.759 578.903 Q696.466 576.649 697.561 572.977 Q697.819 572.172 697.947 571.979 Q698.108 571.786 698.559 571.786 Q699.332 571.786 699.332 572.43 Z"
     fill="#000000"
     fill-rule="evenodd"
     fill-opacity="1"
     id="path532" />
  <polyline
     clip-path="url(#clip612)"
     style="stroke:#000000; stroke-linecap:round; stroke-linejoin:round; stroke-width:2; stroke-opacity:0.1; fill:none"
     points="   197.835,372.072 1168.5,372.072    "
     id="polyline534" />
  <polyline
     clip-path="url(#clip612)"
     style="stroke:#000000; stroke-linecap:round; stroke-linejoin:round; stroke-width:2; stroke-opacity:0.1; fill:none"
     points="   197.835,262.678 1168.5,262.678    "
     id="polyline536" />
  <polyline
     clip-path="url(#clip612)"
     style="stroke:#000000; stroke-linecap:round; stroke-linejoin:round; stroke-width:2; stroke-opacity:0.1; fill:none"
     points="   197.835,153.285 1168.5,153.285    "
     id="polyline538" />
  <polyline
     clip-path="url(#clip612)"
     style="stroke:#000000; stroke-linecap:round; stroke-linejoin:round; stroke-width:2; stroke-opacity:0.1; fill:none"
     points="   197.835,43.8909 1168.5,43.8909    "
     id="polyline540" />
  <polyline
     clip-path="url(#clip610)"
     style="stroke:#000000; stroke-linecap:round; stroke-linejoin:round; stroke-width:4; stroke-opacity:1; fill:none"
     points="   197.835,469.448 197.835,31.4961    "
     id="polyline542" />
  <polyline
     clip-path="url(#clip610)"
     style="stroke:#000000; stroke-linecap:round; stroke-linejoin:round; stroke-width:4; stroke-opacity:1; fill:none"
     points="   197.835,372.072 216.733,372.072    "
     id="polyline544" />
  <polyline
     clip-path="url(#clip610)"
     style="stroke:#000000; stroke-linecap:round; stroke-linejoin:round; stroke-width:4; stroke-opacity:1; fill:none"
     points="   197.835,262.678 216.733,262.678    "
     id="polyline546" />
  <polyline
     clip-path="url(#clip610)"
     style="stroke:#000000; stroke-linecap:round; stroke-linejoin:round; stroke-width:4; stroke-opacity:1; fill:none"
     points="   197.835,153.285 216.733,153.285    "
     id="polyline548" />
  <polyline
     clip-path="url(#clip610)"
     style="stroke:#000000; stroke-linecap:round; stroke-linejoin:round; stroke-width:4; stroke-opacity:1; fill:none"
     points="   197.835,43.8909 216.733,43.8909    "
     id="polyline550" />
  <path
     clip-path="url(#clip610)"
     d="M92.6321 373.171 Q92.6321 365.735 94.5096 361.684 Q97.1281 355.656 103.304 355.656 Q104.613 355.656 105.972 356.027 Q107.355 356.373 109.085 357.731 Q110.839 359.09 111.901 361.313 Q113.926 365.612 113.926 373.171 Q113.926 380.557 112.049 384.584 Q109.307 390.463 103.255 390.463 Q100.982 390.463 98.6597 389.302 Q96.3623 388.141 94.9048 385.35 Q92.6321 381.175 92.6321 373.171 M96.8317 372.553 Q96.8317 380.187 97.3752 383.225 Q97.9928 386.511 99.6726 387.944 Q101.377 389.352 103.255 389.352 Q105.28 389.352 106.96 387.845 Q108.665 386.313 109.183 383.028 Q109.752 379.792 109.727 372.553 Q109.727 365.513 109.233 362.697 Q108.566 359.411 106.787 358.102 Q105.033 356.768 103.255 356.768 Q102.588 356.768 101.871 356.966 Q101.179 357.163 100.167 357.731 Q99.1538 358.3 98.3633 359.708 Q97.5975 361.116 97.227 363.24 Q96.8317 365.982 96.8317 372.553 Z"
     fill="#000000"
     fill-rule="evenodd"
     fill-opacity="1"
     id="path552" />
  <path
     clip-path="url(#clip610)"
     d="M121.016 388.537 Q120.25 387.721 120.25 386.659 Q120.25 385.597 121.016 384.831 Q121.782 384.041 122.943 384.041 Q124.055 384.041 124.796 384.782 Q125.562 385.498 125.562 386.684 Q125.562 387.845 124.746 388.611 Q123.956 389.352 122.943 389.352 Q121.782 389.352 121.016 388.537 Z"
     fill="#000000"
     fill-rule="evenodd"
     fill-opacity="1"
     id="path554" />
  <path
     clip-path="url(#clip610)"
     d="M132.133 367.045 Q132.133 364.352 132.923 362.524 Q133.714 360.671 135.369 358.843 Q138.407 355.656 142.805 355.656 Q144.682 355.656 146.337 356.447 Q148.017 357.237 149.598 359.041 Q151.204 360.819 152.167 364.352 Q153.131 367.86 153.131 372.702 Q153.131 380.533 149.326 385.498 Q145.547 390.463 140.433 390.463 Q137.197 390.463 135.295 389.006 Q133.393 387.524 133.393 385.004 Q133.393 383.695 134.134 383.151 Q134.875 382.583 135.715 382.583 Q136.629 382.583 137.345 383.201 Q138.062 383.794 138.062 384.905 Q138.062 385.819 137.469 386.536 Q136.901 387.227 135.418 387.227 Q136.876 389.055 140.384 389.055 Q141.644 389.055 142.903 388.487 Q144.163 387.894 145.522 386.486 Q146.905 385.053 147.745 382.064 Q148.585 379.075 148.585 374.876 L148.585 373.27 Q146.56 378.334 142.261 378.334 Q138.012 378.334 135.072 375.073 Q132.133 371.812 132.133 367.045 M136.678 367.094 Q136.678 372.109 137.592 373.962 Q139.149 377.148 142.311 377.148 Q145.399 377.148 146.93 374.406 Q148.486 371.639 148.486 368.057 Q148.486 363.092 147.671 360.918 Q146.164 356.916 142.805 356.916 Q139.47 356.916 137.74 360.103 Q136.678 361.98 136.678 367.094 Z"
     fill="#000000"
     fill-rule="evenodd"
     fill-opacity="1"
     id="path556" />
  <path
     clip-path="url(#clip610)"
     d="M158.145 365.562 L159.801 355.162 L161.06 355.162 Q161.209 355.78 161.456 356.052 Q161.727 356.323 163.16 356.546 Q164.618 356.768 167.557 356.768 L179.835 356.768 Q179.835 357.929 179.39 358.547 L172.547 368.156 Q170.374 371.195 169.41 376.802 Q168.842 380.557 168.867 385.103 L168.867 387.672 Q168.867 390.463 166.52 390.463 Q164.198 390.463 164.198 387.672 Q164.198 378.013 170.423 368.65 Q171.09 367.687 173.536 364.253 Q176.006 360.819 176.105 360.671 L165.631 360.671 Q161.036 360.671 160.665 360.968 Q160.171 361.412 159.405 365.562 L158.145 365.562 Z"
     fill="#000000"
     fill-rule="evenodd"
     fill-opacity="1"
     id="path558" />
  <path
     clip-path="url(#clip610)"
     d="M94.0402 263.777 Q94.0402 256.342 95.9177 252.29 Q98.5362 246.263 104.712 246.263 Q106.021 246.263 107.38 246.633 Q108.763 246.979 110.493 248.338 Q112.247 249.697 113.309 251.92 Q115.335 256.218 115.335 263.777 Q115.335 271.164 113.457 275.19 Q110.715 281.07 104.663 281.07 Q102.39 281.07 100.068 279.909 Q97.7704 278.748 96.3129 275.956 Q94.0402 271.781 94.0402 263.777 M98.2398 263.16 Q98.2398 270.793 98.7833 273.832 Q99.4008 277.117 101.081 278.55 Q102.785 279.958 104.663 279.958 Q106.688 279.958 108.368 278.451 Q110.073 276.92 110.591 273.634 Q111.16 270.398 111.135 263.16 Q111.135 256.119 110.641 253.303 Q109.974 250.018 108.195 248.708 Q106.441 247.374 104.663 247.374 Q103.996 247.374 103.279 247.572 Q102.588 247.77 101.575 248.338 Q100.562 248.906 99.7714 250.314 Q99.0056 251.722 98.635 253.847 Q98.2398 256.589 98.2398 263.16 Z"
     fill="#000000"
     fill-rule="evenodd"
     fill-opacity="1"
     id="path560" />
  <path
     clip-path="url(#clip610)"
     d="M122.424 279.143 Q121.659 278.328 121.659 277.265 Q121.659 276.203 122.424 275.437 Q123.19 274.647 124.351 274.647 Q125.463 274.647 126.204 275.388 Q126.97 276.104 126.97 277.29 Q126.97 278.451 126.155 279.217 Q125.364 279.958 124.351 279.958 Q123.19 279.958 122.424 279.143 Z"
     fill="#000000"
     fill-rule="evenodd"
     fill-opacity="1"
     id="path562" />
  <path
     clip-path="url(#clip610)"
     d="M133.541 257.651 Q133.541 254.958 134.331 253.13 Q135.122 251.278 136.777 249.45 Q139.816 246.263 144.213 246.263 Q146.09 246.263 147.745 247.053 Q149.425 247.844 151.006 249.647 Q152.612 251.426 153.575 254.958 Q154.539 258.466 154.539 263.308 Q154.539 271.139 150.734 276.104 Q146.955 281.07 141.841 281.07 Q138.605 281.07 136.703 279.612 Q134.801 278.13 134.801 275.61 Q134.801 274.301 135.542 273.758 Q136.283 273.189 137.123 273.189 Q138.037 273.189 138.753 273.807 Q139.47 274.4 139.47 275.512 Q139.47 276.426 138.877 277.142 Q138.309 277.834 136.826 277.834 Q138.284 279.662 141.792 279.662 Q143.052 279.662 144.312 279.094 Q145.571 278.501 146.93 277.093 Q148.313 275.66 149.153 272.671 Q149.993 269.682 149.993 265.482 L149.993 263.876 Q147.968 268.94 143.669 268.94 Q139.42 268.94 136.481 265.68 Q133.541 262.419 133.541 257.651 M138.086 257.7 Q138.086 262.715 139 264.568 Q140.557 267.755 143.719 267.755 Q146.807 267.755 148.338 265.013 Q149.895 262.246 149.895 258.664 Q149.895 253.698 149.079 251.525 Q147.572 247.523 144.213 247.523 Q140.878 247.523 139.149 250.709 Q138.086 252.587 138.086 257.7 Z"
     fill="#000000"
     fill-rule="evenodd"
     fill-opacity="1"
     id="path564" />
  <path
     clip-path="url(#clip610)"
     d="M158.837 272.325 Q158.837 266.668 166.125 263.012 Q162.987 260.887 162.419 260.27 Q160.196 257.799 160.196 254.711 Q160.196 251.179 162.864 248.733 Q165.556 246.263 169.361 246.263 Q172.992 246.263 175.734 248.363 Q178.476 250.462 178.476 253.797 Q178.476 258.491 172.35 261.653 Q176.401 264.173 177.365 265.235 Q179.835 267.977 179.835 271.46 Q179.835 275.512 176.722 278.303 Q173.61 281.07 169.311 281.07 Q165.112 281.07 161.974 278.624 Q158.837 276.179 158.837 272.325 M161.357 272.325 Q161.357 275.462 163.704 277.562 Q166.075 279.662 169.361 279.662 Q172.547 279.662 174.919 277.834 Q177.315 276.006 177.315 273.288 Q177.315 272.226 176.945 271.312 Q176.599 270.398 175.882 269.682 Q175.191 268.94 174.746 268.619 Q174.326 268.273 173.511 267.705 L167.286 263.777 Q161.357 267.063 161.357 272.325 M162.419 252.735 Q162.419 255.156 164.964 256.836 L171.238 260.887 Q176.253 257.947 176.253 253.797 Q176.253 251.105 174.203 249.326 Q172.152 247.523 169.311 247.523 Q166.52 247.523 164.469 249.005 Q162.419 250.462 162.419 252.735 Z"
     fill="#000000"
     fill-rule="evenodd"
     fill-opacity="1"
     id="path566" />
  <path
     clip-path="url(#clip610)"
     d="M94.0402 154.384 Q94.0402 146.948 95.9177 142.897 Q98.5362 136.869 104.712 136.869 Q106.021 136.869 107.38 137.24 Q108.763 137.586 110.493 138.944 Q112.247 140.303 113.309 142.526 Q115.335 146.825 115.335 154.384 Q115.335 161.77 113.457 165.797 Q110.715 171.676 104.663 171.676 Q102.39 171.676 100.068 170.515 Q97.7704 169.354 96.3129 166.563 Q94.0402 162.388 94.0402 154.384 M98.2398 153.766 Q98.2398 161.4 98.7833 164.438 Q99.4008 167.724 101.081 169.156 Q102.785 170.565 104.663 170.565 Q106.688 170.565 108.368 169.058 Q110.073 167.526 110.591 164.24 Q111.16 161.004 111.135 153.766 Q111.135 146.726 110.641 143.91 Q109.974 140.624 108.195 139.315 Q106.441 137.981 104.663 137.981 Q103.996 137.981 103.279 138.178 Q102.588 138.376 101.575 138.944 Q100.562 139.512 99.7714 140.921 Q99.0056 142.329 98.635 144.453 Q98.2398 147.195 98.2398 153.766 Z"
     fill="#000000"
     fill-rule="evenodd"
     fill-opacity="1"
     id="path568" />
  <path
     clip-path="url(#clip610)"
     d="M122.424 169.749 Q121.659 168.934 121.659 167.872 Q121.659 166.81 122.424 166.044 Q123.19 165.253 124.351 165.253 Q125.463 165.253 126.204 165.994 Q126.97 166.711 126.97 167.897 Q126.97 169.058 126.155 169.823 Q125.364 170.565 124.351 170.565 Q123.19 170.565 122.424 169.749 Z"
     fill="#000000"
     fill-rule="evenodd"
     fill-opacity="1"
     id="path570" />
  <path
     clip-path="url(#clip610)"
     d="M133.541 148.257 Q133.541 145.565 134.331 143.737 Q135.122 141.884 136.777 140.056 Q139.816 136.869 144.213 136.869 Q146.09 136.869 147.745 137.66 Q149.425 138.45 151.006 140.254 Q152.612 142.032 153.575 145.565 Q154.539 149.073 154.539 153.914 Q154.539 161.745 150.734 166.711 Q146.955 171.676 141.841 171.676 Q138.605 171.676 136.703 170.219 Q134.801 168.736 134.801 166.217 Q134.801 164.907 135.542 164.364 Q136.283 163.796 137.123 163.796 Q138.037 163.796 138.753 164.413 Q139.47 165.006 139.47 166.118 Q139.47 167.032 138.877 167.748 Q138.309 168.44 136.826 168.44 Q138.284 170.268 141.792 170.268 Q143.052 170.268 144.312 169.7 Q145.571 169.107 146.93 167.699 Q148.313 166.266 149.153 163.277 Q149.993 160.288 149.993 156.088 L149.993 154.483 Q147.968 159.547 143.669 159.547 Q139.42 159.547 136.481 156.286 Q133.541 153.025 133.541 148.257 M138.086 148.307 Q138.086 153.322 139 155.174 Q140.557 158.361 143.719 158.361 Q146.807 158.361 148.338 155.619 Q149.895 152.852 149.895 149.27 Q149.895 144.305 149.079 142.131 Q147.572 138.129 144.213 138.129 Q140.878 138.129 139.149 141.316 Q138.086 143.193 138.086 148.307 Z"
     fill="#000000"
     fill-rule="evenodd"
     fill-opacity="1"
     id="path572" />
  <path
     clip-path="url(#clip610)"
     d="M158.837 148.257 Q158.837 145.565 159.628 143.737 Q160.418 141.884 162.073 140.056 Q165.112 136.869 169.509 136.869 Q171.386 136.869 173.042 137.66 Q174.721 138.45 176.302 140.254 Q177.908 142.032 178.872 145.565 Q179.835 149.073 179.835 153.914 Q179.835 161.745 176.031 166.711 Q172.251 171.676 167.137 171.676 Q163.901 171.676 161.999 170.219 Q160.097 168.736 160.097 166.217 Q160.097 164.907 160.838 164.364 Q161.579 163.796 162.419 163.796 Q163.333 163.796 164.05 164.413 Q164.766 165.006 164.766 166.118 Q164.766 167.032 164.173 167.748 Q163.605 168.44 162.123 168.44 Q163.58 170.268 167.088 170.268 Q168.348 170.268 169.608 169.7 Q170.868 169.107 172.226 167.699 Q173.61 166.266 174.45 163.277 Q175.29 160.288 175.29 156.088 L175.29 154.483 Q173.264 159.547 168.966 159.547 Q164.717 159.547 161.777 156.286 Q158.837 153.025 158.837 148.257 M163.383 148.307 Q163.383 153.322 164.297 155.174 Q165.853 158.361 169.015 158.361 Q172.103 158.361 173.634 155.619 Q175.191 152.852 175.191 149.27 Q175.191 144.305 174.376 142.131 Q172.869 138.129 169.509 138.129 Q166.174 138.129 164.445 141.316 Q163.383 143.193 163.383 148.307 Z"
     fill="#000000"
     fill-rule="evenodd"
     fill-opacity="1"
     id="path574" />
  <path
     clip-path="url(#clip610)"
     d="M96.4117 32.2927 L96.4117 30.7117 Q102.489 30.7117 105.626 27.4755 Q106.491 27.4755 106.639 27.6732 Q106.787 27.8708 106.787 28.7848 L106.787 57.169 Q106.787 58.6759 107.528 59.1453 Q108.269 59.6146 111.505 59.6146 L113.111 59.6146 L113.111 61.1709 Q111.333 61.0227 104.91 61.0227 Q98.4868 61.0227 96.7329 61.1709 L96.7329 59.6146 L98.3386 59.6146 Q101.525 59.6146 102.291 59.17 Q103.057 58.7006 103.057 57.169 L103.057 30.9587 Q100.414 32.2927 96.4117 32.2927 Z"
     fill="#000000"
     fill-rule="evenodd"
     fill-opacity="1"
     id="path576" />
  <path
     clip-path="url(#clip610)"
     d="M122.276 60.3557 Q121.51 59.5405 121.51 58.4783 Q121.51 57.416 122.276 56.6502 Q123.042 55.8597 124.203 55.8597 Q125.315 55.8597 126.056 56.6008 Q126.822 57.3172 126.822 58.503 Q126.822 59.664 126.006 60.4298 Q125.216 61.1709 124.203 61.1709 Q123.042 61.1709 122.276 60.3557 Z"
     fill="#000000"
     fill-rule="evenodd"
     fill-opacity="1"
     id="path578" />
  <path
     clip-path="url(#clip610)"
     d="M133.244 44.9902 Q133.244 37.5545 135.122 33.5032 Q137.74 27.4755 143.916 27.4755 Q145.226 27.4755 146.584 27.8461 Q147.968 28.1919 149.697 29.5506 Q151.451 30.9093 152.513 33.1326 Q154.539 37.431 154.539 44.9902 Q154.539 52.3765 152.661 56.4032 Q149.919 62.2826 143.867 62.2826 Q141.594 62.2826 139.272 61.1215 Q136.975 59.9605 135.517 57.169 Q133.244 52.9941 133.244 44.9902 M137.444 44.3726 Q137.444 52.006 137.987 55.0445 Q138.605 58.33 140.285 59.7628 Q141.989 61.1709 143.867 61.1709 Q145.893 61.1709 147.572 59.664 Q149.277 58.1324 149.796 54.8469 Q150.364 51.6107 150.339 44.3726 Q150.339 37.3322 149.845 34.516 Q149.178 31.2305 147.399 29.9212 Q145.646 28.5872 143.867 28.5872 Q143.2 28.5872 142.484 28.7848 Q141.792 28.9824 140.779 29.5506 Q139.766 30.1188 138.976 31.5269 Q138.21 32.935 137.839 35.0595 Q137.444 37.8015 137.444 44.3726 Z"
     fill="#000000"
     fill-rule="evenodd"
     fill-opacity="1"
     id="path580" />
  <path
     clip-path="url(#clip610)"
     d="M158.541 44.9902 Q158.541 37.5545 160.418 33.5032 Q163.037 27.4755 169.213 27.4755 Q170.522 27.4755 171.881 27.8461 Q173.264 28.1919 174.993 29.5506 Q176.747 30.9093 177.809 33.1326 Q179.835 37.431 179.835 44.9902 Q179.835 52.3765 177.958 56.4032 Q175.215 62.2826 169.163 62.2826 Q166.89 62.2826 164.568 61.1215 Q162.271 59.9605 160.813 57.169 Q158.541 52.9941 158.541 44.9902 M162.74 44.3726 Q162.74 52.006 163.284 55.0445 Q163.901 58.33 165.581 59.7628 Q167.286 61.1709 169.163 61.1709 Q171.189 61.1709 172.869 59.664 Q174.573 58.1324 175.092 54.8469 Q175.66 51.6107 175.635 44.3726 Q175.635 37.3322 175.141 34.516 Q174.474 31.2305 172.696 29.9212 Q170.942 28.5872 169.163 28.5872 Q168.496 28.5872 167.78 28.7848 Q167.088 28.9824 166.075 29.5506 Q165.062 30.1188 164.272 31.5269 Q163.506 32.935 163.136 35.0595 Q162.74 37.8015 162.74 44.3726 Z"
     fill="#000000"
     fill-rule="evenodd"
     fill-opacity="1"
     id="path582" />
  <path
     clip-path="url(#clip610)"
     d="M60.3761 388.718 L58.2362 388.718 Q58.1003 382.536 53.5487 380.94 L11.973 366.538 Q11.1238 366.266 10.8521 365.96 Q10.5803 365.654 10.5803 364.873 Q10.5803 364.466 10.6483 364.228 Q10.7162 363.956 10.954 363.786 Q11.1917 363.616 11.3276 363.549 Q11.4635 363.481 11.973 363.277 L55.4509 348.263 Q57.1832 347.72 57.7267 346.599 Q58.2362 345.478 58.2362 342.319 L58.2362 341.096 L60.3761 341.096 Q60.1723 345.478 60.1723 350.199 Q60.1723 357.706 60.3761 360.22 L58.2362 360.22 Q58.2362 354.445 56.1302 354.445 Q55.9944 354.445 55.1452 354.649 L44.5135 358.318 L44.5135 375.505 L53.6167 378.732 Q53.8884 378.868 54.6696 378.868 Q56.1302 378.868 57.1832 377.509 Q58.2362 376.15 58.2362 373.637 L60.3761 373.637 Q60.1723 380.328 60.1723 381.653 Q60.1723 383.929 60.3761 388.718 M42.3736 374.758 L42.3736 359.099 L19.7515 366.945 L42.3736 374.758 Z"
     fill="#000000"
     fill-rule="evenodd"
     fill-opacity="1"
     id="path584" />
  <path
     clip-path="url(#clip610)"
     d="M56.5718 333.929 Q51.9523 338.345 45.3627 338.345 Q38.7391 338.345 33.9837 333.997 Q29.1943 329.649 29.1943 323.264 Q29.1943 319.018 31.2323 315.825 Q33.2364 312.632 36.6671 312.632 Q38.1956 312.632 39.0787 313.549 Q39.9279 314.432 39.9279 315.825 Q39.9279 317.285 39.0448 318.168 Q38.1277 319.018 36.735 319.018 Q36.1236 319.018 35.5122 318.814 Q34.9008 318.61 34.2554 317.863 Q33.61 317.081 33.5081 315.757 Q30.9606 318.236 30.9606 323.06 Q30.9606 323.128 30.9606 323.196 Q30.9606 326.728 34.2894 329.649 Q37.6182 332.57 45.2268 332.57 Q49.2009 332.57 52.1221 331.619 Q55.0093 330.634 56.5039 329.038 Q57.9984 327.441 58.7117 325.879 Q59.3911 324.316 59.3911 322.788 Q59.3911 315.961 52.0881 313.651 Q51.4088 313.447 51.4088 312.768 Q51.4088 311.851 52.0881 311.851 Q52.4278 311.851 53.311 312.122 Q54.1941 312.394 55.5868 313.243 Q56.9794 314.092 58.2022 315.315 Q59.3911 316.504 60.2742 318.644 Q61.1574 320.75 61.1574 323.399 Q61.1574 329.513 56.5718 333.929 Z"
     fill="#000000"
     fill-rule="evenodd"
     fill-opacity="1"
     id="path586" />
  <path
     clip-path="url(#clip610)"
     d="M56.5718 303.053 Q51.9523 307.469 45.3627 307.469 Q38.7391 307.469 33.9837 303.121 Q29.1943 298.773 29.1943 292.387 Q29.1943 288.142 31.2323 284.949 Q33.2364 281.756 36.6671 281.756 Q38.1956 281.756 39.0787 282.673 Q39.9279 283.556 39.9279 284.949 Q39.9279 286.409 39.0448 287.292 Q38.1277 288.142 36.735 288.142 Q36.1236 288.142 35.5122 287.938 Q34.9008 287.734 34.2554 286.987 Q33.61 286.205 33.5081 284.881 Q30.9606 287.36 30.9606 292.184 Q30.9606 292.252 30.9606 292.319 Q30.9606 295.852 34.2894 298.773 Q37.6182 301.694 45.2268 301.694 Q49.2009 301.694 52.1221 300.743 Q55.0093 299.758 56.5039 298.162 Q57.9984 296.565 58.7117 295.003 Q59.3911 293.44 59.3911 291.912 Q59.3911 285.084 52.0881 282.775 Q51.4088 282.571 51.4088 281.892 Q51.4088 280.974 52.0881 280.974 Q52.4278 280.974 53.311 281.246 Q54.1941 281.518 55.5868 282.367 Q56.9794 283.216 58.2022 284.439 Q59.3911 285.628 60.2742 287.768 Q61.1574 289.874 61.1574 292.523 Q61.1574 298.637 56.5718 303.053 Z"
     fill="#000000"
     fill-rule="evenodd"
     fill-opacity="1"
     id="path588" />
  <path
     clip-path="url(#clip610)"
     d="M32.5571 276.729 L30.3832 276.729 L29.6359 266.504 L52.7335 266.504 Q54.3979 266.504 55.383 266.369 Q56.334 266.233 57.455 265.689 Q58.5759 265.112 59.0854 263.821 Q59.5949 262.496 59.5949 260.39 Q59.5949 256.62 56.5039 254.31 Q53.4129 251.967 48.8273 251.967 L36.4293 251.967 Q33.8478 251.967 33.2024 252.884 Q32.5571 253.801 32.5571 257.401 L30.3832 257.401 L29.6359 247.177 L54.33 247.177 Q56.9115 247.177 57.5908 246.294 Q58.2362 245.377 58.2362 241.742 L60.3761 241.742 L61.1574 251.763 L54.8735 251.763 Q61.1234 254.684 61.1574 260.73 Q61.1574 263.787 60.3761 265.893 Q59.5949 267.965 58.6438 269.018 Q57.6588 270.071 55.7906 270.648 Q53.9224 271.192 52.7675 271.26 Q51.6126 271.328 49.3708 271.328 L38.9429 271.328 Q34.2214 271.328 33.4062 272.007 Q32.5571 272.686 32.5571 276.729 Z"
     fill="#000000"
     fill-rule="evenodd"
     fill-opacity="1"
     id="path590" />
  <path
     clip-path="url(#clip610)"
     d="M60.3761 238.448 L58.2362 238.448 Q58.2362 234.745 57.7946 233.896 Q57.3191 233.013 55.0773 233.013 L36.4293 233.013 Q33.8478 233.013 33.2024 233.93 Q32.5571 234.813 32.5571 238.448 L30.3832 238.448 L29.6359 228.767 L37.2785 228.767 Q34.2894 227.782 31.9796 225.71 Q29.6359 223.604 29.6359 220.207 Q29.6359 217.965 30.8927 216.539 Q32.1494 215.078 33.8818 215.078 Q35.4103 215.078 36.1915 216.029 Q36.9388 216.946 36.9388 218.067 Q36.9388 219.324 36.1576 220.207 Q35.3424 221.056 33.9497 221.056 Q33.1005 221.056 32.4552 220.683 Q31.7758 220.275 31.538 219.969 Q31.3003 219.664 31.2323 219.46 Q31.1644 219.596 31.1644 220.207 Q31.1644 224.046 35.0027 226.253 Q38.807 228.427 44.2417 228.427 L54.9414 228.427 Q56.9454 228.427 57.5908 227.612 Q58.2362 226.763 58.2362 223.128 L58.2362 221.668 L60.3761 221.668 Q60.1723 224.453 60.1723 230.499 Q60.1723 231.348 60.2063 232.673 Q60.2403 233.998 60.3082 235.73 Q60.3761 237.463 60.3761 238.448 Z"
     fill="#000000"
     fill-rule="evenodd"
     fill-opacity="1"
     id="path592" />
  <path
     clip-path="url(#clip610)"
     d="M53.7525 210.289 Q47.8423 210.289 44.7173 203.326 Q42.7132 199.148 42.2037 190.52 L39.6562 190.52 Q35.3424 190.52 33.0666 192.796 Q30.7568 195.038 30.7568 197.891 Q30.7568 202.986 33.9497 205.432 Q34.0176 203.36 35.0706 202.612 Q36.0896 201.865 37.1426 201.865 Q38.5353 201.865 39.4524 202.748 Q40.3355 203.597 40.3355 205.058 Q40.3355 206.451 39.4863 207.368 Q38.6032 208.285 37.0747 208.285 Q33.678 208.285 31.4361 205.228 Q29.1943 202.137 29.1943 197.755 Q29.1943 192.049 33.0326 188.244 Q34.2214 187.055 35.75 186.478 Q37.2785 185.867 38.2975 185.799 Q39.2825 185.731 41.2526 185.731 L55.1452 185.731 Q55.5528 185.731 56.2321 185.595 Q56.9115 185.459 57.7946 184.847 Q58.6438 184.202 58.6438 183.149 Q58.6438 180.636 54.1941 180.67 L50.2879 180.67 L50.2879 178.903 L54.1941 178.903 Q57.8965 178.903 59.3571 180.873 Q60.7837 182.809 60.7837 184.61 Q60.7837 186.919 59.0854 188.38 Q57.387 189.841 55.0773 190.044 Q57.7267 191.097 59.459 193.509 Q61.1574 195.887 61.1574 199.148 Q61.1574 201.661 60.512 204.039 Q59.9006 206.383 58.1683 208.353 Q56.402 210.289 53.7525 210.289 M53.6846 204.922 Q56.2661 204.922 57.9305 203.088 Q59.5949 201.254 59.5949 198.672 Q59.5949 195.751 57.3531 193.135 Q55.0773 190.52 50.6276 190.52 L43.6643 190.52 Q43.936 198.231 47.027 201.593 Q50.0841 204.922 53.6846 204.922 Z"
     fill="#000000"
     fill-rule="evenodd"
     fill-opacity="1"
     id="path594" />
  <path
     clip-path="url(#clip610)"
     d="M56.5718 171.634 Q51.9523 176.05 45.3627 176.05 Q38.7391 176.05 33.9837 171.702 Q29.1943 167.354 29.1943 160.969 Q29.1943 156.723 31.2323 153.53 Q33.2364 150.337 36.6671 150.337 Q38.1956 150.337 39.0787 151.254 Q39.9279 152.137 39.9279 153.53 Q39.9279 154.99 39.0448 155.874 Q38.1277 156.723 36.735 156.723 Q36.1236 156.723 35.5122 156.519 Q34.9008 156.315 34.2554 155.568 Q33.61 154.787 33.5081 153.462 Q30.9606 155.941 30.9606 160.765 Q30.9606 160.833 30.9606 160.901 Q30.9606 164.433 34.2894 167.354 Q37.6182 170.276 45.2268 170.276 Q49.2009 170.276 52.1221 169.325 Q55.0093 168.339 56.5039 166.743 Q57.9984 165.147 58.7117 163.584 Q59.3911 162.022 59.3911 160.493 Q59.3911 153.666 52.0881 151.356 Q51.4088 151.152 51.4088 150.473 Q51.4088 149.556 52.0881 149.556 Q52.4278 149.556 53.311 149.827 Q54.1941 150.099 55.5868 150.948 Q56.9794 151.797 58.2022 153.02 Q59.3911 154.209 60.2742 156.349 Q61.1574 158.455 61.1574 161.104 Q61.1574 167.219 56.5718 171.634 Z"
     fill="#000000"
     fill-rule="evenodd"
     fill-opacity="1"
     id="path596" />
  <path
     clip-path="url(#clip610)"
     d="M69.0038 146.227 Q67.5432 146.227 66.7619 145.378 Q66.0147 144.495 66.0147 143.306 Q66.0147 142.049 66.7959 141.234 Q67.6111 140.385 68.9358 140.385 Q71.5173 140.385 71.857 143.102 Q73.1138 141.777 73.1138 139.841 Q73.1138 137.769 71.5853 136.105 Q70.0568 134.406 68.5962 133.693 Q67.1356 132.946 64.4861 131.893 Q62.4142 130.908 60.3761 130.16 L34.9687 140.588 Q33.3043 141.268 32.9307 142.321 Q32.5571 143.374 32.5571 146.227 L30.3832 146.227 Q30.587 143.102 30.587 139.467 Q30.587 137.327 30.3832 131.893 L32.5571 131.893 Q32.5571 135.799 34.3573 135.799 Q34.5611 135.799 35.6141 135.391 L54.33 127.647 L37.2106 120.616 Q36.2255 120.208 35.5462 120.208 Q32.6929 120.208 32.5571 123.469 L30.3832 123.469 Q30.587 118.883 30.587 117.423 Q30.587 114.57 30.3832 112.226 L32.5571 112.226 Q32.5571 116.879 37.0067 118.68 L66.694 130.942 Q74.6083 134.27 74.6423 139.841 Q74.6423 142.49 73.0119 144.359 Q71.3815 146.227 69.0038 146.227 Z"
     fill="#000000"
     fill-rule="evenodd"
     fill-opacity="1"
     id="path598" />
  <polyline
     clip-path="url(#clip612)"
     style="stroke:#3498db; stroke-linecap:round; stroke-linejoin:round; stroke-width:16; stroke-opacity:1; fill:none"
     points="   225.307,457.053 290.716,117.328 356.125,88.7316 421.534,71.0029 486.943,58.9496 552.352,52.1872 617.761,50.8525 683.169,47.39 748.578,44.686 813.987,44.7325    879.396,45.0843 944.805,44.6374 1010.21,45.0194 1075.62,44.6665 1141.03,44.639    "
     id="polyline600" />
  <circle
     clip-path="url(#clip612)"
     cx="225.307"
     cy="457.053"
     r="25.2"
     fill="#3498db"
     fill-rule="evenodd"
     fill-opacity="1"
     stroke="#ffffff"
     stroke-opacity="1"
     stroke-width="1.2"
     id="circle602" />
  <circle
     clip-path="url(#clip612)"
     cx="290.716"
     cy="117.328"
     r="25.2"
     fill="#3498db"
     fill-rule="evenodd"
     fill-opacity="1"
     stroke="#ffffff"
     stroke-opacity="1"
     stroke-width="1.2"
     id="circle604" />
  <circle
     clip-path="url(#clip612)"
     cx="356.125"
     cy="88.7316"
     r="25.2"
     fill="#3498db"
     fill-rule="evenodd"
     fill-opacity="1"
     stroke="#ffffff"
     stroke-opacity="1"
     stroke-width="1.2"
     id="circle606" />
  <circle
     clip-path="url(#clip612)"
     cx="421.534"
     cy="71.0029"
     r="25.2"
     fill="#3498db"
     fill-rule="evenodd"
     fill-opacity="1"
     stroke="#ffffff"
     stroke-opacity="1"
     stroke-width="1.2"
     id="circle608" />
  <circle
     clip-path="url(#clip612)"
     cx="486.943"
     cy="58.9496"
     r="25.2"
     fill="#3498db"
     fill-rule="evenodd"
     fill-opacity="1"
     stroke="#ffffff"
     stroke-opacity="1"
     stroke-width="1.2"
     id="circle610" />
  <circle
     clip-path="url(#clip612)"
     cx="552.352"
     cy="52.1872"
     r="25.2"
     fill="#3498db"
     fill-rule="evenodd"
     fill-opacity="1"
     stroke="#ffffff"
     stroke-opacity="1"
     stroke-width="1.2"
     id="circle612" />
  <circle
     clip-path="url(#clip612)"
     cx="617.761"
     cy="50.8525"
     r="25.2"
     fill="#3498db"
     fill-rule="evenodd"
     fill-opacity="1"
     stroke="#ffffff"
     stroke-opacity="1"
     stroke-width="1.2"
     id="circle614" />
  <circle
     clip-path="url(#clip612)"
     cx="683.169"
     cy="47.39"
     r="25.2"
     fill="#3498db"
     fill-rule="evenodd"
     fill-opacity="1"
     stroke="#ffffff"
     stroke-opacity="1"
     stroke-width="1.2"
     id="circle616" />
  <circle
     clip-path="url(#clip612)"
     cx="748.578"
     cy="44.686"
     r="25.2"
     fill="#3498db"
     fill-rule="evenodd"
     fill-opacity="1"
     stroke="#ffffff"
     stroke-opacity="1"
     stroke-width="1.2"
     id="circle618" />
  <circle
     clip-path="url(#clip612)"
     cx="813.987"
     cy="44.7325"
     r="25.2"
     fill="#3498db"
     fill-rule="evenodd"
     fill-opacity="1"
     stroke="#ffffff"
     stroke-opacity="1"
     stroke-width="1.2"
     id="circle620" />
  <circle
     clip-path="url(#clip612)"
     cx="879.396"
     cy="45.0843"
     r="25.2"
     fill="#3498db"
     fill-rule="evenodd"
     fill-opacity="1"
     stroke="#ffffff"
     stroke-opacity="1"
     stroke-width="1.2"
     id="circle622" />
  <circle
     clip-path="url(#clip612)"
     cx="944.805"
     cy="44.6374"
     r="25.2"
     fill="#3498db"
     fill-rule="evenodd"
     fill-opacity="1"
     stroke="#ffffff"
     stroke-opacity="1"
     stroke-width="1.2"
     id="circle624" />
  <circle
     clip-path="url(#clip612)"
     cx="1010.21"
     cy="45.0194"
     r="25.2"
     fill="#3498db"
     fill-rule="evenodd"
     fill-opacity="1"
     stroke="#ffffff"
     stroke-opacity="1"
     stroke-width="1.2"
     id="circle626" />
  <circle
     clip-path="url(#clip612)"
     cx="1075.62"
     cy="44.6665"
     r="25.2"
     fill="#3498db"
     fill-rule="evenodd"
     fill-opacity="1"
     stroke="#ffffff"
     stroke-opacity="1"
     stroke-width="1.2"
     id="circle628" />
  <circle
     clip-path="url(#clip612)"
     cx="1141.03"
     cy="44.639"
     r="25.2"
     fill="#3498db"
     fill-rule="evenodd"
     fill-opacity="1"
     stroke="#ffffff"
     stroke-opacity="1"
     stroke-width="1.2"
     id="circle630" />
  <polyline
     clip-path="url(#clip612)"
     style="stroke:#9b59b6; stroke-linecap:round; stroke-linejoin:round; stroke-width:16; stroke-opacity:1; fill:none"
     points="   225.307,210.874 290.716,87.0672 356.125,60.8732 421.534,52.8212 486.943,48.598 552.352,47.4846 617.761,45.5778 683.169,45.2637 748.578,44.9096 813.987,44.3758    879.396,44.1448 944.805,44.014 1010.21,43.979 1075.62,43.9737 1141.03,43.9637    "
     id="polyline632" />
  <circle
     clip-path="url(#clip612)"
     cx="225.307"
     cy="210.874"
     r="25.2"
     fill="#9b59b6"
     fill-rule="evenodd"
     fill-opacity="1"
     stroke="#ffffff"
     stroke-opacity="1"
     stroke-width="1.2"
     id="circle634" />
  <circle
     clip-path="url(#clip612)"
     cx="290.716"
     cy="87.0672"
     r="25.2"
     fill="#9b59b6"
     fill-rule="evenodd"
     fill-opacity="1"
     stroke="#ffffff"
     stroke-opacity="1"
     stroke-width="1.2"
     id="circle636" />
  <circle
     clip-path="url(#clip612)"
     cx="356.125"
     cy="60.8732"
     r="25.2"
     fill="#9b59b6"
     fill-rule="evenodd"
     fill-opacity="1"
     stroke="#ffffff"
     stroke-opacity="1"
     stroke-width="1.2"
     id="circle638" />
  <circle
     clip-path="url(#clip612)"
     cx="421.534"
     cy="52.8212"
     r="25.2"
     fill="#9b59b6"
     fill-rule="evenodd"
     fill-opacity="1"
     stroke="#ffffff"
     stroke-opacity="1"
     stroke-width="1.2"
     id="circle640" />
  <circle
     clip-path="url(#clip612)"
     cx="486.943"
     cy="48.598"
     r="25.2"
     fill="#9b59b6"
     fill-rule="evenodd"
     fill-opacity="1"
     stroke="#ffffff"
     stroke-opacity="1"
     stroke-width="1.2"
     id="circle642" />
  <circle
     clip-path="url(#clip612)"
     cx="552.352"
     cy="47.4846"
     r="25.2"
     fill="#9b59b6"
     fill-rule="evenodd"
     fill-opacity="1"
     stroke="#ffffff"
     stroke-opacity="1"
     stroke-width="1.2"
     id="circle644" />
  <circle
     clip-path="url(#clip612)"
     cx="617.761"
     cy="45.5778"
     r="25.2"
     fill="#9b59b6"
     fill-rule="evenodd"
     fill-opacity="1"
     stroke="#ffffff"
     stroke-opacity="1"
     stroke-width="1.2"
     id="circle646" />
  <circle
     clip-path="url(#clip612)"
     cx="683.169"
     cy="45.2637"
     r="25.2"
     fill="#9b59b6"
     fill-rule="evenodd"
     fill-opacity="1"
     stroke="#ffffff"
     stroke-opacity="1"
     stroke-width="1.2"
     id="circle648" />
  <circle
     clip-path="url(#clip612)"
     cx="748.578"
     cy="44.9096"
     r="25.2"
     fill="#9b59b6"
     fill-rule="evenodd"
     fill-opacity="1"
     stroke="#ffffff"
     stroke-opacity="1"
     stroke-width="1.2"
     id="circle650" />
  <circle
     clip-path="url(#clip612)"
     cx="813.987"
     cy="44.3758"
     r="25.2"
     fill="#9b59b6"
     fill-rule="evenodd"
     fill-opacity="1"
     stroke="#ffffff"
     stroke-opacity="1"
     stroke-width="1.2"
     id="circle652" />
  <circle
     clip-path="url(#clip612)"
     cx="879.396"
     cy="44.1448"
     r="25.2"
     fill="#9b59b6"
     fill-rule="evenodd"
     fill-opacity="1"
     stroke="#ffffff"
     stroke-opacity="1"
     stroke-width="1.2"
     id="circle654" />
  <circle
     clip-path="url(#clip612)"
     cx="944.805"
     cy="44.014"
     r="25.2"
     fill="#9b59b6"
     fill-rule="evenodd"
     fill-opacity="1"
     stroke="#ffffff"
     stroke-opacity="1"
     stroke-width="1.2"
     id="circle656" />
  <circle
     clip-path="url(#clip612)"
     cx="1010.21"
     cy="43.979"
     r="25.2"
     fill="#9b59b6"
     fill-rule="evenodd"
     fill-opacity="1"
     stroke="#ffffff"
     stroke-opacity="1"
     stroke-width="1.2"
     id="circle658" />
  <circle
     clip-path="url(#clip612)"
     cx="1075.62"
     cy="43.9737"
     r="25.2"
     fill="#9b59b6"
     fill-rule="evenodd"
     fill-opacity="1"
     stroke="#ffffff"
     stroke-opacity="1"
     stroke-width="1.2"
     id="circle660" />
  <circle
     clip-path="url(#clip612)"
     cx="1141.03"
     cy="43.9637"
     r="25.2"
     fill="#9b59b6"
     fill-rule="evenodd"
     fill-opacity="1"
     stroke="#ffffff"
     stroke-opacity="1"
     stroke-width="1.2"
     id="circle662" />
  <polyline
     clip-path="url(#clip612)"
     style="stroke:#7f8c8d; stroke-linecap:round; stroke-linejoin:round; stroke-width:4; stroke-opacity:1; fill:none"
     points="   -772.834,43.8909 2139.17,43.8909    "
     id="polyline664" />
  <path
     clip-path="url(#clip610)"
     d=" M887.18 454.849 L1136.15 454.849 L1136.15 299.329 L887.18 299.329  Z   "
     fill="#ffffff"
     fill-rule="evenodd"
     fill-opacity="1"
     id="path666" />
  <polyline
     clip-path="url(#clip610)"
     style="stroke:#000000; stroke-linecap:round; stroke-linejoin:round; stroke-width:4; stroke-opacity:1; fill:none"
     points="   887.18,454.849 1136.15,454.849 1136.15,299.329 887.18,299.329 887.18,454.849    "
     id="polyline668" />
  <polyline
     clip-path="url(#clip610)"
     style="stroke:#3498db; stroke-linecap:round; stroke-linejoin:round; stroke-width:16; stroke-opacity:1; fill:none"
     points="   897.966,351.169 962.677,351.169    "
     id="polyline670" />
  <circle
     clip-path="url(#clip610)"
     cx="930.32098"
     cy="351.16901"
     r="8.9876804"
     fill="#3498db"
     fill-rule="evenodd"
     fill-opacity="1"
     stroke="#ffffff"
     stroke-opacity="1"
     stroke-width="1.09714"
     id="circle672"
     transform="matrix(2,0,0,2,-930.32098,-351.16901)" />
  <path
     clip-path="url(#clip610)"
     d="M973.462 350.836 Q973.462 350.021 973.734 349.057 Q974.03 348.069 974.944 347.106 Q975.858 346.142 977.217 346.142 Q979.836 346.142 981.886 349.823 Q983.936 353.479 986.16 361.681 Q987.173 358.099 988.704 354.245 Q989.322 352.738 989.766 351.799 Q990.211 350.836 991.15 349.304 Q992.088 347.748 993.25 346.958 Q994.411 346.142 995.769 346.142 Q996.832 346.142 997.424 346.785 Q998.017 347.402 998.017 348.217 Q998.017 349.428 997.004 350.045 Q996.659 350.243 995.819 350.367 Q994.979 350.49 994.287 350.688 Q993.595 350.885 992.533 352.046 Q991.471 353.183 990.458 355.307 Q989.198 357.926 988.087 361.137 Q986.975 364.349 986.975 365.115 Q986.975 365.46 987.222 366.893 Q987.494 368.301 987.741 370.772 Q987.988 373.267 987.988 376.083 Q987.988 376.7 987.938 376.997 Q987.839 377.664 987.321 378.084 Q986.827 378.528 986.11 378.528 Q984.183 378.528 984.183 376.033 L984.183 375.786 Q984.183 373.612 984.455 371.019 Q984.752 368.449 985.048 366.72 L985.32 365.065 Q985.32 364.003 983.714 359.433 Q982.133 354.838 980.799 352.862 Q979.169 350.391 976.97 350.391 Q975.957 350.391 975.463 350.614 Q974.994 350.836 974.747 351.207 Q974.524 351.552 974.426 351.602 Q974.129 351.799 973.783 351.577 Q973.462 351.33 973.462 350.836 Z"
     fill="#000000"
     fill-rule="evenodd"
     fill-opacity="1"
     id="path674" />
  <path
     clip-path="url(#clip610)"
     d="M1003.06 360.767 Q1003.11 360.149 1004.07 360.149 L1035.07 360.149 Q1036.53 360.149 1036.55 360.717 Q1036.55 361.335 1035.17 361.31 L1004.42 361.31 Q1003.06 361.335 1003.06 360.767 M1003.06 350.885 Q1003.06 350.268 1004.12 350.293 L1035.02 350.293 Q1036.53 350.293 1036.55 350.885 Q1036.55 351.454 1035.27 351.454 L1004.07 351.454 Q1003.06 351.454 1003.06 350.885 Z"
     fill="#000000"
     fill-rule="evenodd"
     fill-opacity="1"
     id="path676" />
  <path
     clip-path="url(#clip610)"
     d="M1044.01 339.571 L1044.01 337.99 Q1050.09 337.99 1053.23 334.754 Q1054.09 334.754 1054.24 334.952 Q1054.39 335.149 1054.39 336.063 L1054.39 364.448 Q1054.39 365.954 1055.13 366.424 Q1055.87 366.893 1059.11 366.893 L1060.71 366.893 L1060.71 368.449 Q1058.94 368.301 1052.51 368.301 Q1046.09 368.301 1044.34 368.449 L1044.34 366.893 L1045.94 366.893 Q1049.13 366.893 1049.89 366.449 Q1050.66 365.979 1050.66 364.448 L1050.66 338.237 Q1048.02 339.571 1044.01 339.571 Z"
     fill="#000000"
     fill-rule="evenodd"
     fill-opacity="1"
     id="path678" />
  <path
     clip-path="url(#clip610)"
     d="M1069.88 367.634 Q1069.11 366.819 1069.11 365.757 Q1069.11 364.695 1069.88 363.929 Q1070.65 363.138 1071.81 363.138 Q1072.92 363.138 1073.66 363.879 Q1074.42 364.596 1074.42 365.782 Q1074.42 366.943 1073.61 367.708 Q1072.82 368.449 1071.81 368.449 Q1070.65 368.449 1069.88 367.634 Z"
     fill="#000000"
     fill-rule="evenodd"
     fill-opacity="1"
     id="path680" />
  <path
     clip-path="url(#clip610)"
     d="M1080.85 352.269 Q1080.85 344.833 1082.73 340.782 Q1085.34 334.754 1091.52 334.754 Q1092.83 334.754 1094.19 335.125 Q1095.57 335.47 1097.3 336.829 Q1099.05 338.188 1100.12 340.411 Q1102.14 344.71 1102.14 352.269 Q1102.14 359.655 1100.26 363.682 Q1097.52 369.561 1091.47 369.561 Q1089.2 369.561 1086.88 368.4 Q1084.58 367.239 1083.12 364.448 Q1080.85 360.273 1080.85 352.269 M1085.05 351.651 Q1085.05 359.285 1085.59 362.323 Q1086.21 365.609 1087.89 367.041 Q1089.59 368.449 1091.47 368.449 Q1093.5 368.449 1095.18 366.943 Q1096.88 365.411 1097.4 362.125 Q1097.97 358.889 1097.94 351.651 Q1097.94 344.611 1097.45 341.795 Q1096.78 338.509 1095 337.2 Q1093.25 335.866 1091.47 335.866 Q1090.8 335.866 1090.09 336.063 Q1089.4 336.261 1088.38 336.829 Q1087.37 337.397 1086.58 338.805 Q1085.81 340.214 1085.44 342.338 Q1085.05 345.08 1085.05 351.651 Z"
     fill="#000000"
     fill-rule="evenodd"
     fill-opacity="1"
     id="path682" />
  <polyline
     clip-path="url(#clip610)"
     style="stroke:#9b59b6; stroke-linecap:round; stroke-linejoin:round; stroke-width:16; stroke-opacity:1; fill:none"
     points="   897.966,403.009 962.677,403.009    "
     id="polyline684" />
  <circle
     clip-path="url(#clip610)"
     cx="930.32098"
     cy="403.009"
     r="8.9876804"
     fill="#9b59b6"
     fill-rule="evenodd"
     fill-opacity="1"
     stroke="#ffffff"
     stroke-opacity="1"
     stroke-width="1.09714"
     id="circle686"
     transform="matrix(2,0,0,2,-930.32098,-403.009)" />
  <path
     clip-path="url(#clip610)"
     d="M973.462 402.676 Q973.462 401.861 973.734 400.897 Q974.03 399.909 974.944 398.946 Q975.858 397.982 977.217 397.982 Q979.836 397.982 981.886 401.663 Q983.936 405.319 986.16 413.521 Q987.173 409.939 988.704 406.085 Q989.322 404.578 989.766 403.639 Q990.211 402.676 991.15 401.144 Q992.088 399.588 993.25 398.798 Q994.411 397.982 995.769 397.982 Q996.832 397.982 997.424 398.625 Q998.017 399.242 998.017 400.057 Q998.017 401.268 997.004 401.885 Q996.659 402.083 995.819 402.207 Q994.979 402.33 994.287 402.528 Q993.595 402.725 992.533 403.886 Q991.471 405.023 990.458 407.147 Q989.198 409.766 988.087 412.977 Q986.975 416.189 986.975 416.955 Q986.975 417.3 987.222 418.733 Q987.494 420.141 987.741 422.612 Q987.988 425.107 987.988 427.923 Q987.988 428.54 987.938 428.837 Q987.839 429.504 987.321 429.924 Q986.827 430.368 986.11 430.368 Q984.183 430.368 984.183 427.873 L984.183 427.626 Q984.183 425.452 984.455 422.859 Q984.752 420.289 985.048 418.56 L985.32 416.905 Q985.32 415.843 983.714 411.273 Q982.133 406.678 980.799 404.702 Q979.169 402.231 976.97 402.231 Q975.957 402.231 975.463 402.454 Q974.994 402.676 974.747 403.047 Q974.524 403.392 974.426 403.442 Q974.129 403.639 973.783 403.417 Q973.462 403.17 973.462 402.676 Z"
     fill="#000000"
     fill-rule="evenodd"
     fill-opacity="1"
     id="path688" />
  <path
     clip-path="url(#clip610)"
     d="M1003.06 412.607 Q1003.11 411.989 1004.07 411.989 L1035.07 411.989 Q1036.53 411.989 1036.55 412.557 Q1036.55 413.175 1035.17 413.15 L1004.42 413.15 Q1003.06 413.175 1003.06 412.607 M1003.06 402.725 Q1003.06 402.108 1004.12 402.133 L1035.02 402.133 Q1036.53 402.133 1036.55 402.725 Q1036.55 403.294 1035.27 403.294 L1004.07 403.294 Q1003.06 403.294 1003.06 402.725 Z"
     fill="#000000"
     fill-rule="evenodd"
     fill-opacity="1"
     id="path690" />
  <path
     clip-path="url(#clip610)"
     d="M1041.5 404.109 Q1041.5 396.673 1043.37 392.622 Q1045.99 386.594 1052.17 386.594 Q1053.48 386.594 1054.84 386.965 Q1056.22 387.31 1057.95 388.669 Q1059.7 390.028 1060.76 392.251 Q1062.79 396.55 1062.79 404.109 Q1062.79 411.495 1060.91 415.522 Q1058.17 421.401 1052.12 421.401 Q1049.84 421.401 1047.52 420.24 Q1045.23 419.079 1043.77 416.288 Q1041.5 412.113 1041.5 404.109 M1045.69 403.491 Q1045.69 411.125 1046.24 414.163 Q1046.86 417.449 1048.54 418.881 Q1050.24 420.289 1052.12 420.289 Q1054.14 420.289 1055.82 418.783 Q1057.53 417.251 1058.05 413.965 Q1058.61 410.729 1058.59 403.491 Q1058.59 396.451 1058.1 393.635 Q1057.43 390.349 1055.65 389.04 Q1053.9 387.706 1052.12 387.706 Q1051.45 387.706 1050.73 387.903 Q1050.04 388.101 1049.03 388.669 Q1048.02 389.237 1047.23 390.645 Q1046.46 392.054 1046.09 394.178 Q1045.69 396.92 1045.69 403.491 Z"
     fill="#000000"
     fill-rule="evenodd"
     fill-opacity="1"
     id="path692" />
  <path
     clip-path="url(#clip610)"
     d="M1069.88 419.474 Q1069.11 418.659 1069.11 417.597 Q1069.11 416.535 1069.88 415.769 Q1070.65 414.978 1071.81 414.978 Q1072.92 414.978 1073.66 415.719 Q1074.42 416.436 1074.42 417.622 Q1074.42 418.783 1073.61 419.548 Q1072.82 420.289 1071.81 420.289 Q1070.65 420.289 1069.88 419.474 Z"
     fill="#000000"
     fill-rule="evenodd"
     fill-opacity="1"
     id="path694" />
  <path
     clip-path="url(#clip610)"
     d="M1080.85 404.109 Q1080.85 396.673 1082.73 392.622 Q1085.34 386.594 1091.52 386.594 Q1092.83 386.594 1094.19 386.965 Q1095.57 387.31 1097.3 388.669 Q1099.05 390.028 1100.12 392.251 Q1102.14 396.55 1102.14 404.109 Q1102.14 411.495 1100.26 415.522 Q1097.52 421.401 1091.47 421.401 Q1089.2 421.401 1086.88 420.24 Q1084.58 419.079 1083.12 416.288 Q1080.85 412.113 1080.85 404.109 M1085.05 403.491 Q1085.05 411.125 1085.59 414.163 Q1086.21 417.449 1087.89 418.881 Q1089.59 420.289 1091.47 420.289 Q1093.5 420.289 1095.18 418.783 Q1096.88 417.251 1097.4 413.965 Q1097.97 410.729 1097.94 403.491 Q1097.94 396.451 1097.45 393.635 Q1096.78 390.349 1095 389.04 Q1093.25 387.706 1091.47 387.706 Q1090.8 387.706 1090.09 387.903 Q1089.4 388.101 1088.38 388.669 Q1087.37 389.237 1086.58 390.645 Q1085.81 392.054 1085.44 394.178 Q1085.05 396.92 1085.05 403.491 Z"
     fill="#000000"
     fill-rule="evenodd"
     fill-opacity="1"
     id="path696" />
  <path
     clip-path="url(#clip610)"
     d="M1108.66 391.411 L1108.66 389.83 Q1114.74 389.83 1117.88 386.594 Q1118.74 386.594 1118.89 386.792 Q1119.04 386.989 1119.04 387.903 L1119.04 416.288 Q1119.04 417.794 1119.78 418.264 Q1120.52 418.733 1123.76 418.733 L1125.36 418.733 L1125.36 420.289 Q1123.58 420.141 1117.16 420.141 Q1110.74 420.141 1108.98 420.289 L1108.98 418.733 L1110.59 418.733 Q1113.78 418.733 1114.54 418.289 Q1115.31 417.819 1115.31 416.288 L1115.31 390.077 Q1112.67 391.411 1108.66 391.411 Z"
     fill="#000000"
     fill-rule="evenodd"
     fill-opacity="1"
     id="path698" />
</svg>
