<?xml version="1.0" encoding="utf-8"?>
<svg xmlns="http://www.w3.org/2000/svg" xmlns:xlink="http://www.w3.org/1999/xlink" width="300" height="140" viewBox="0 0 1200 560">
<defs>
  <clipPath id="clip780">
    <rect x="0" y="0" width="1200" height="560"/>
  </clipPath>
</defs>
<path clip-path="url(#clip780)" d="
M0 560 L1200 560 L1200 0 L0 0  Z
  " fill="#ffffff" fill-rule="evenodd" fill-opacity="1"/>
<defs>
  <clipPath id="clip781">
    <rect x="240" y="0" width="841" height="560"/>
  </clipPath>
</defs>
<path clip-path="url(#clip780)" d="
M209.947 418.204 L862.203 418.204 L862.203 47.2441 L209.947 47.2441  Z
  " fill="#ffffff" fill-rule="evenodd" fill-opacity="1"/>
<defs>
  <clipPath id="clip782">
    <rect x="209" y="47" width="653" height="372"/>
  </clipPath>
</defs>
<polyline clip-path="url(#clip782)" style="stroke:#000000; stroke-linecap:round; stroke-linejoin:round; stroke-width:2; stroke-opacity:0.1; fill:none" points="
  305.093,418.204 305.093,47.2441 
  "/>
<polyline clip-path="url(#clip782)" style="stroke:#000000; stroke-linecap:round; stroke-linejoin:round; stroke-width:2; stroke-opacity:0.1; fill:none" points="
  459.081,418.204 459.081,47.2441 
  "/>
<polyline clip-path="url(#clip782)" style="stroke:#000000; stroke-linecap:round; stroke-linejoin:round; stroke-width:2; stroke-opacity:0.1; fill:none" points="
  613.069,418.204 613.069,47.2441 
  "/>
<polyline clip-path="url(#clip782)" style="stroke:#000000; stroke-linecap:round; stroke-linejoin:round; stroke-width:2; stroke-opacity:0.1; fill:none" points="
  767.057,418.204 767.057,47.2441 
  "/>
<polyline clip-path="url(#clip780)" style="stroke:#000000; stroke-linecap:round; stroke-linejoin:round; stroke-width:4; stroke-opacity:1; fill:none" points="
  209.947,418.204 862.203,418.204 
  "/>
<polyline clip-path="url(#clip780)" style="stroke:#000000; stroke-linecap:round; stroke-linejoin:round; stroke-width:4; stroke-opacity:1; fill:none" points="
  305.093,418.204 305.093,399.306 
  "/>
<polyline clip-path="url(#clip780)" style="stroke:#000000; stroke-linecap:round; stroke-linejoin:round; stroke-width:4; stroke-opacity:1; fill:none" points="
  459.081,418.204 459.081,399.306 
  "/>
<polyline clip-path="url(#clip780)" style="stroke:#000000; stroke-linecap:round; stroke-linejoin:round; stroke-width:4; stroke-opacity:1; fill:none" points="
  613.069,418.204 613.069,399.306 
  "/>
<polyline clip-path="url(#clip780)" style="stroke:#000000; stroke-linecap:round; stroke-linejoin:round; stroke-width:4; stroke-opacity:1; fill:none" points="
  767.057,418.204 767.057,399.306 
  "/>
<path clip-path="url(#clip780)" d="M268.421 442.126 L268.421 440.545 Q274.498 440.545 277.635 437.308 Q278.5 437.308 278.648 437.506 Q278.796 437.704 278.796 438.618 L278.796 467.002 Q278.796 468.509 279.538 468.978 Q280.279 469.448 283.515 469.448 L285.12 469.448 L285.12 471.004 Q283.342 470.856 276.919 470.856 Q270.496 470.856 268.742 471.004 L268.742 469.448 L270.348 469.448 Q273.535 469.448 274.3 469.003 Q275.066 468.534 275.066 467.002 L275.066 440.792 Q272.423 442.126 268.421 442.126 Z" fill="#000000" fill-rule="evenodd" fill-opacity="1" /><path clip-path="url(#clip780)" d="M291.741 462.852 Q291.741 461.345 292.556 460.777 Q293.371 460.184 294.236 460.184 Q295.397 460.184 296.064 460.925 Q296.756 461.641 296.756 462.654 Q296.756 463.667 296.064 464.408 Q295.397 465.124 294.236 465.124 Q293.668 465.124 293.371 465.026 Q294.038 467.348 296.064 469.028 Q298.114 470.707 300.807 470.707 Q304.191 470.707 306.217 467.422 Q307.428 465.297 307.428 460.48 Q307.428 456.231 306.514 454.107 Q305.105 450.871 302.215 450.871 Q298.114 450.871 295.694 454.403 Q295.397 454.848 295.051 454.873 Q294.557 454.873 294.434 454.601 Q294.335 454.304 294.335 453.539 L294.335 438.568 Q294.335 437.358 294.829 437.358 Q295.027 437.358 295.446 437.506 Q298.633 438.914 302.166 438.939 Q305.797 438.939 309.058 437.457 Q309.305 437.308 309.453 437.308 Q309.947 437.308 309.972 437.877 Q309.972 438.074 309.552 438.667 Q309.157 439.235 308.292 440.001 Q307.428 440.742 306.316 441.459 Q305.204 442.175 303.574 442.669 Q301.968 443.138 300.19 443.138 Q298.065 443.138 295.891 442.471 L295.891 452.328 Q298.51 449.759 302.314 449.759 Q306.365 449.759 309.157 453.02 Q311.948 456.281 311.948 460.826 Q311.948 465.594 308.638 468.855 Q305.353 472.115 300.906 472.115 Q296.855 472.115 294.285 469.225 Q291.741 466.335 291.741 462.852 Z" fill="#000000" fill-rule="evenodd" fill-opacity="1" /><path clip-path="url(#clip780)" d="M316.494 454.823 Q316.494 447.387 318.371 443.336 Q320.99 437.308 327.166 437.308 Q328.475 437.308 329.834 437.679 Q331.217 438.025 332.946 439.384 Q334.7 440.742 335.762 442.966 Q337.788 447.264 337.788 454.823 Q337.788 462.209 335.911 466.236 Q333.169 472.115 327.116 472.115 Q324.843 472.115 322.521 470.954 Q320.224 469.793 318.766 467.002 Q316.494 462.827 316.494 454.823 M320.693 454.206 Q320.693 461.839 321.237 464.877 Q321.854 468.163 323.534 469.596 Q325.239 471.004 327.116 471.004 Q329.142 471.004 330.822 469.497 Q332.526 467.965 333.045 464.68 Q333.613 461.444 333.588 454.206 Q333.588 447.165 333.094 444.349 Q332.427 441.063 330.649 439.754 Q328.895 438.42 327.116 438.42 Q326.449 438.42 325.733 438.618 Q325.041 438.815 324.028 439.384 Q323.015 439.952 322.225 441.36 Q321.459 442.768 321.089 444.892 Q320.693 447.634 320.693 454.206 Z" fill="#000000" fill-rule="evenodd" fill-opacity="1" /><path clip-path="url(#clip780)" d="M341.79 454.823 Q341.79 447.387 343.667 443.336 Q346.286 437.308 352.462 437.308 Q353.771 437.308 355.13 437.679 Q356.513 438.025 358.242 439.384 Q359.996 440.742 361.059 442.966 Q363.084 447.264 363.084 454.823 Q363.084 462.209 361.207 466.236 Q358.465 472.115 352.412 472.115 Q350.14 472.115 347.818 470.954 Q345.52 469.793 344.063 467.002 Q341.79 462.827 341.79 454.823 M345.99 454.206 Q345.99 461.839 346.533 464.877 Q347.151 468.163 348.83 469.596 Q350.535 471.004 352.412 471.004 Q354.438 471.004 356.118 469.497 Q357.822 467.965 358.341 464.68 Q358.909 461.444 358.885 454.206 Q358.885 447.165 358.391 444.349 Q357.724 441.063 355.945 439.754 Q354.191 438.42 352.412 438.42 Q351.745 438.42 351.029 438.618 Q350.337 438.815 349.324 439.384 Q348.312 439.952 347.521 441.36 Q346.755 442.768 346.385 444.892 Q345.99 447.634 345.99 454.206 Z" fill="#000000" fill-rule="evenodd" fill-opacity="1" /><path clip-path="url(#clip780)" d="M420.037 464.186 Q420.037 462.679 420.902 461.962 Q421.767 461.246 422.878 461.246 Q424.039 461.246 424.854 462.012 Q425.694 462.753 425.694 464.062 Q425.694 465.47 424.706 466.261 Q423.743 467.051 422.359 466.854 Q423.57 468.879 425.793 469.793 Q428.041 470.707 430.116 470.707 Q432.29 470.707 434.044 468.83 Q435.823 466.952 435.823 462.358 Q435.823 458.455 434.291 456.207 Q432.784 453.959 429.795 453.959 L427.572 453.959 Q426.806 453.959 426.584 453.884 Q426.361 453.81 426.361 453.39 Q426.361 452.896 427.127 452.797 Q427.893 452.797 429.103 452.649 Q432.043 452.55 433.599 450.006 Q435.008 447.634 435.008 444.25 Q435.008 441.162 433.525 439.878 Q432.068 438.568 430.166 438.568 Q428.387 438.568 426.435 439.309 Q424.484 440.051 423.422 441.706 Q426.559 441.706 426.559 444.25 Q426.559 445.362 425.843 446.103 Q425.151 446.819 423.99 446.819 Q422.878 446.819 422.137 446.128 Q421.396 445.411 421.396 444.201 Q421.396 441.31 423.965 439.309 Q426.559 437.308 430.363 437.308 Q434.118 437.308 436.885 439.285 Q439.676 441.261 439.676 444.3 Q439.676 447.289 437.7 449.734 Q435.724 452.18 432.587 453.193 Q436.44 453.959 438.738 456.577 Q441.035 459.171 441.035 462.358 Q441.035 466.31 437.923 469.225 Q434.81 472.115 430.264 472.115 Q426.065 472.115 423.051 469.843 Q420.037 467.57 420.037 464.186 Z" fill="#000000" fill-rule="evenodd" fill-opacity="1" /><path clip-path="url(#clip780)" d="M445.185 454.823 Q445.185 447.387 447.063 443.336 Q449.681 437.308 455.857 437.308 Q457.166 437.308 458.525 437.679 Q459.909 438.025 461.638 439.384 Q463.392 440.742 464.454 442.966 Q466.48 447.264 466.48 454.823 Q466.48 462.209 464.602 466.236 Q461.86 472.115 455.808 472.115 Q453.535 472.115 451.213 470.954 Q448.916 469.793 447.458 467.002 Q445.185 462.827 445.185 454.823 M449.385 454.206 Q449.385 461.839 449.928 464.877 Q450.546 468.163 452.226 469.596 Q453.93 471.004 455.808 471.004 Q457.833 471.004 459.513 469.497 Q461.218 467.965 461.737 464.68 Q462.305 461.444 462.28 454.206 Q462.28 447.165 461.786 444.349 Q461.119 441.063 459.34 439.754 Q457.586 438.42 455.808 438.42 Q455.141 438.42 454.424 438.618 Q453.733 438.815 452.72 439.384 Q451.707 439.952 450.916 441.36 Q450.151 442.768 449.78 444.892 Q449.385 447.634 449.385 454.206 Z" fill="#000000" fill-rule="evenodd" fill-opacity="1" /><path clip-path="url(#clip780)" d="M470.482 454.823 Q470.482 447.387 472.359 443.336 Q474.978 437.308 481.153 437.308 Q482.463 437.308 483.821 437.679 Q485.205 438.025 486.934 439.384 Q488.688 440.742 489.75 442.966 Q491.776 447.264 491.776 454.823 Q491.776 462.209 489.898 466.236 Q487.156 472.115 481.104 472.115 Q478.831 472.115 476.509 470.954 Q474.212 469.793 472.754 467.002 Q470.482 462.827 470.482 454.823 M474.681 454.206 Q474.681 461.839 475.225 464.877 Q475.842 468.163 477.522 469.596 Q479.227 471.004 481.104 471.004 Q483.13 471.004 484.809 469.497 Q486.514 467.965 487.033 464.68 Q487.601 461.444 487.576 454.206 Q487.576 447.165 487.082 444.349 Q486.415 441.063 484.637 439.754 Q482.883 438.42 481.104 438.42 Q480.437 438.42 479.721 438.618 Q479.029 438.815 478.016 439.384 Q477.003 439.952 476.213 441.36 Q475.447 442.768 475.076 444.892 Q474.681 447.634 474.681 454.206 Z" fill="#000000" fill-rule="evenodd" fill-opacity="1" /><path clip-path="url(#clip780)" d="M495.778 454.823 Q495.778 447.387 497.655 443.336 Q500.274 437.308 506.45 437.308 Q507.759 437.308 509.118 437.679 Q510.501 438.025 512.23 439.384 Q513.984 440.742 515.046 442.966 Q517.072 447.264 517.072 454.823 Q517.072 462.209 515.195 466.236 Q512.453 472.115 506.4 472.115 Q504.128 472.115 501.805 470.954 Q499.508 469.793 498.05 467.002 Q495.778 462.827 495.778 454.823 M499.977 454.206 Q499.977 461.839 500.521 464.877 Q501.138 468.163 502.818 469.596 Q504.523 471.004 506.4 471.004 Q508.426 471.004 510.106 469.497 Q511.81 467.965 512.329 464.68 Q512.897 461.444 512.873 454.206 Q512.873 447.165 512.378 444.349 Q511.711 441.063 509.933 439.754 Q508.179 438.42 506.4 438.42 Q505.733 438.42 505.017 438.618 Q504.325 438.815 503.312 439.384 Q502.299 439.952 501.509 441.36 Q500.743 442.768 500.373 444.892 Q499.977 447.634 499.977 454.206 Z" fill="#000000" fill-rule="evenodd" fill-opacity="1" /><path clip-path="url(#clip780)" d="M574.025 455.021 Q574.025 447.066 578.076 442.2 Q582.128 437.308 587.34 437.308 Q590.379 437.308 592.059 438.865 Q593.763 440.396 593.763 442.768 Q593.763 444.077 592.997 444.645 Q592.231 445.214 591.441 445.214 Q590.527 445.214 589.811 444.596 Q589.094 443.978 589.094 442.867 Q589.094 440.594 591.886 440.594 Q590.576 438.568 587.439 438.568 Q586.476 438.568 585.487 438.865 Q584.499 439.137 583.215 440.075 Q581.93 441.014 580.942 442.496 Q579.954 443.978 579.262 446.77 Q578.571 449.561 578.571 453.193 L578.571 454.403 Q580.646 449.388 584.895 449.413 Q589.144 449.413 592.083 452.649 Q595.023 455.885 595.023 460.678 Q595.023 465.594 591.96 468.855 Q588.897 472.115 584.598 472.115 Q582.671 472.115 580.917 471.3 Q579.188 470.51 577.558 468.682 Q575.952 466.854 574.989 463.346 Q574.025 459.838 574.025 455.021 M578.669 459.566 Q578.669 464.532 579.583 466.903 Q579.732 467.298 580.053 467.842 Q580.399 468.385 580.967 469.102 Q581.56 469.793 582.523 470.263 Q583.486 470.707 584.598 470.707 Q587.982 470.707 589.613 467.422 Q590.478 465.594 590.478 460.628 Q590.478 455.564 589.564 453.711 Q588.007 450.574 584.845 450.574 Q582.721 450.574 581.238 452.032 Q579.781 453.489 579.213 455.441 Q578.669 457.392 578.669 459.566 Z" fill="#000000" fill-rule="evenodd" fill-opacity="1" /><path clip-path="url(#clip780)" d="M599.173 454.823 Q599.173 447.387 601.051 443.336 Q603.669 437.308 609.845 437.308 Q611.154 437.308 612.513 437.679 Q613.896 438.025 615.626 439.384 Q617.379 440.742 618.442 442.966 Q620.467 447.264 620.467 454.823 Q620.467 462.209 618.59 466.236 Q615.848 472.115 609.796 472.115 Q607.523 472.115 605.201 470.954 Q602.903 469.793 601.446 467.002 Q599.173 462.827 599.173 454.823 M603.373 454.206 Q603.373 461.839 603.916 464.877 Q604.534 468.163 606.214 469.596 Q607.918 471.004 609.796 471.004 Q611.821 471.004 613.501 469.497 Q615.206 467.965 615.724 464.68 Q616.293 461.444 616.268 454.206 Q616.268 447.165 615.774 444.349 Q615.107 441.063 613.328 439.754 Q611.574 438.42 609.796 438.42 Q609.129 438.42 608.412 438.618 Q607.72 438.815 606.708 439.384 Q605.695 439.952 604.904 441.36 Q604.138 442.768 603.768 444.892 Q603.373 447.634 603.373 454.206 Z" fill="#000000" fill-rule="evenodd" fill-opacity="1" /><path clip-path="url(#clip780)" d="M624.469 454.823 Q624.469 447.387 626.347 443.336 Q628.965 437.308 635.141 437.308 Q636.45 437.308 637.809 437.679 Q639.193 438.025 640.922 439.384 Q642.676 440.742 643.738 442.966 Q645.764 447.264 645.764 454.823 Q645.764 462.209 643.886 466.236 Q641.144 472.115 635.092 472.115 Q632.819 472.115 630.497 470.954 Q628.2 469.793 626.742 467.002 Q624.469 462.827 624.469 454.823 M628.669 454.206 Q628.669 461.839 629.212 464.877 Q629.83 468.163 631.51 469.596 Q633.214 471.004 635.092 471.004 Q637.117 471.004 638.797 469.497 Q640.502 467.965 641.021 464.68 Q641.589 461.444 641.564 454.206 Q641.564 447.165 641.07 444.349 Q640.403 441.063 638.624 439.754 Q636.87 438.42 635.092 438.42 Q634.425 438.42 633.708 438.618 Q633.017 438.815 632.004 439.384 Q630.991 439.952 630.201 441.36 Q629.435 442.768 629.064 444.892 Q628.669 447.634 628.669 454.206 Z" fill="#000000" fill-rule="evenodd" fill-opacity="1" /><path clip-path="url(#clip780)" d="M649.766 454.823 Q649.766 447.387 651.643 443.336 Q654.262 437.308 660.437 437.308 Q661.747 437.308 663.105 437.679 Q664.489 438.025 666.218 439.384 Q667.972 440.742 669.034 442.966 Q671.06 447.264 671.06 454.823 Q671.06 462.209 669.182 466.236 Q666.44 472.115 660.388 472.115 Q658.115 472.115 655.793 470.954 Q653.496 469.793 652.038 467.002 Q649.766 462.827 649.766 454.823 M653.965 454.206 Q653.965 461.839 654.509 464.877 Q655.126 468.163 656.806 469.596 Q658.511 471.004 660.388 471.004 Q662.414 471.004 664.094 469.497 Q665.798 467.965 666.317 464.68 Q666.885 461.444 666.86 454.206 Q666.86 447.165 666.366 444.349 Q665.699 441.063 663.921 439.754 Q662.167 438.42 660.388 438.42 Q659.721 438.42 659.005 438.618 Q658.313 438.815 657.3 439.384 Q656.287 439.952 655.497 441.36 Q654.731 442.768 654.36 444.892 Q653.965 447.634 653.965 454.206 Z" fill="#000000" fill-rule="evenodd" fill-opacity="1" /><path clip-path="url(#clip780)" d="M707.077 442.126 L707.077 440.545 Q713.154 440.545 716.291 437.308 Q717.156 437.308 717.304 437.506 Q717.452 437.704 717.452 438.618 L717.452 467.002 Q717.452 468.509 718.193 468.978 Q718.934 469.448 722.171 469.448 L723.776 469.448 L723.776 471.004 Q721.998 470.856 715.575 470.856 Q709.152 470.856 707.398 471.004 L707.398 469.448 L709.004 469.448 Q712.19 469.448 712.956 469.003 Q713.722 468.534 713.722 467.002 L713.722 440.792 Q711.079 442.126 707.077 442.126 Z" fill="#000000" fill-rule="evenodd" fill-opacity="1" /><path clip-path="url(#clip780)" d="M730.397 471.004 Q730.397 470.09 730.471 469.818 Q730.57 469.546 730.965 469.126 L740.673 458.306 Q745.985 452.328 745.985 447.116 Q745.985 443.731 744.206 441.31 Q742.452 438.889 739.216 438.889 Q736.993 438.889 735.115 440.248 Q733.238 441.607 732.373 444.028 Q732.521 443.978 733.04 443.978 Q734.3 443.978 734.992 444.769 Q735.708 445.559 735.708 446.622 Q735.708 447.98 734.819 448.647 Q733.954 449.29 733.089 449.29 Q732.744 449.29 732.274 449.215 Q731.83 449.141 731.113 448.45 Q730.397 447.733 730.397 446.473 Q730.397 442.941 733.065 440.125 Q735.757 437.308 739.858 437.308 Q744.502 437.308 747.541 440.075 Q750.604 442.817 750.604 447.116 Q750.604 448.623 750.135 450.006 Q749.69 451.365 749.073 452.427 Q748.48 453.489 746.849 455.194 Q745.219 456.898 743.91 458.109 Q742.6 459.319 739.661 461.888 L734.3 467.101 L743.415 467.101 Q747.862 467.101 748.208 466.705 Q748.702 465.989 749.32 462.209 L750.604 462.209 L749.171 471.004 L730.397 471.004 Z" fill="#000000" fill-rule="evenodd" fill-opacity="1" /><path clip-path="url(#clip780)" d="M755.15 454.823 Q755.15 447.387 757.027 443.336 Q759.646 437.308 765.821 437.308 Q767.131 437.308 768.489 437.679 Q769.873 438.025 771.602 439.384 Q773.356 440.742 774.418 442.966 Q776.444 447.264 776.444 454.823 Q776.444 462.209 774.566 466.236 Q771.824 472.115 765.772 472.115 Q763.499 472.115 761.177 470.954 Q758.88 469.793 757.422 467.002 Q755.15 462.827 755.15 454.823 M759.349 454.206 Q759.349 461.839 759.893 464.877 Q760.51 468.163 762.19 469.596 Q763.895 471.004 765.772 471.004 Q767.798 471.004 769.477 469.497 Q771.182 467.965 771.701 464.68 Q772.269 461.444 772.244 454.206 Q772.244 447.165 771.75 444.349 Q771.083 441.063 769.305 439.754 Q767.551 438.42 765.772 438.42 Q765.105 438.42 764.389 438.618 Q763.697 438.815 762.684 439.384 Q761.671 439.952 760.881 441.36 Q760.115 442.768 759.744 444.892 Q759.349 447.634 759.349 454.206 Z" fill="#000000" fill-rule="evenodd" fill-opacity="1" /><path clip-path="url(#clip780)" d="M780.446 454.823 Q780.446 447.387 782.323 443.336 Q784.942 437.308 791.118 437.308 Q792.427 437.308 793.786 437.679 Q795.169 438.025 796.898 439.384 Q798.652 440.742 799.714 442.966 Q801.74 447.264 801.74 454.823 Q801.74 462.209 799.863 466.236 Q797.121 472.115 791.068 472.115 Q788.796 472.115 786.473 470.954 Q784.176 469.793 782.718 467.002 Q780.446 462.827 780.446 454.823 M784.645 454.206 Q784.645 461.839 785.189 464.877 Q785.806 468.163 787.486 469.596 Q789.191 471.004 791.068 471.004 Q793.094 471.004 794.774 469.497 Q796.478 467.965 796.997 464.68 Q797.565 461.444 797.541 454.206 Q797.541 447.165 797.046 444.349 Q796.379 441.063 794.601 439.754 Q792.847 438.42 791.068 438.42 Q790.401 438.42 789.685 438.618 Q788.993 438.815 787.98 439.384 Q786.967 439.952 786.177 441.36 Q785.411 442.768 785.041 444.892 Q784.645 447.634 784.645 454.206 Z" fill="#000000" fill-rule="evenodd" fill-opacity="1" /><path clip-path="url(#clip780)" d="M805.742 454.823 Q805.742 447.387 807.619 443.336 Q810.238 437.308 816.414 437.308 Q817.723 437.308 819.082 437.679 Q820.465 438.025 822.194 439.384 Q823.948 440.742 825.011 442.966 Q827.036 447.264 827.036 454.823 Q827.036 462.209 825.159 466.236 Q822.417 472.115 816.364 472.115 Q814.092 472.115 811.77 470.954 Q809.472 469.793 808.015 467.002 Q805.742 462.827 805.742 454.823 M809.942 454.206 Q809.942 461.839 810.485 464.877 Q811.103 468.163 812.782 469.596 Q814.487 471.004 816.364 471.004 Q818.39 471.004 820.07 469.497 Q821.775 467.965 822.293 464.68 Q822.861 461.444 822.837 454.206 Q822.837 447.165 822.343 444.349 Q821.676 441.063 819.897 439.754 Q818.143 438.42 816.364 438.42 Q815.697 438.42 814.981 438.618 Q814.289 438.815 813.277 439.384 Q812.264 439.952 811.473 441.36 Q810.707 442.768 810.337 444.892 Q809.942 447.634 809.942 454.206 Z" fill="#000000" fill-rule="evenodd" fill-opacity="1" /><path clip-path="url(#clip780)" d="M405.369 545.068 L405.369 542.928 L407.034 542.928 Q410.804 542.928 411.653 542.317 Q412.536 541.671 412.536 539.633 L412.536 503.186 Q412.536 501.182 411.653 500.571 Q410.77 499.926 407.034 499.926 L405.369 499.926 L405.369 497.752 L444.533 497.752 L446.47 513.41 L444.737 513.41 Q444.262 509.436 443.616 507.161 Q443.005 504.851 441.476 503.084 Q439.982 501.318 437.502 500.639 Q435.057 499.926 431.082 499.926 L422.115 499.926 Q419.737 499.926 419.228 500.435 Q418.718 500.911 418.718 502.711 L418.718 519.389 L424.968 519.389 Q429.758 519.389 431.116 517.724 Q432.475 516.06 432.475 511.271 L434.241 511.271 L434.241 529.681 L432.475 529.681 Q432.475 524.959 431.116 523.261 Q429.758 521.563 424.968 521.563 L418.718 521.563 L418.718 540.143 Q418.718 541.943 419.228 542.452 Q419.771 542.928 422.115 542.928 L431.388 542.928 Q434.377 542.928 436.551 542.554 Q438.759 542.147 440.288 541.196 Q441.816 540.211 442.835 539.09 Q443.888 537.969 444.601 535.965 Q445.349 533.927 445.756 532.058 Q446.198 530.19 446.673 527.133 L448.406 527.133 L445.485 545.068 L405.369 545.068 Z" fill="#000000" fill-rule="evenodd" fill-opacity="1" /><path clip-path="url(#clip780)" d="M452.278 556.413 Q455.98 556.413 456.83 555.937 Q457.713 555.496 457.713 553.288 L457.713 520.713 Q457.713 518.404 456.83 517.826 Q455.98 517.249 452.278 517.249 L452.278 515.075 L462.298 514.328 L462.298 518.913 Q466.476 514.328 472.047 514.328 Q477.957 514.328 482.271 518.913 Q486.585 523.499 486.585 530.054 Q486.585 536.678 481.999 541.264 Q477.414 545.849 471.062 545.849 Q467.597 545.849 465.253 544.083 Q462.944 542.283 462.502 540.958 L462.502 541.603 L462.502 553.288 Q462.502 555.53 463.385 555.971 Q464.268 556.413 467.937 556.413 L467.937 558.553 Q460.634 558.349 460.09 558.349 Q459.411 558.349 452.278 558.553 L452.278 556.413 M462.502 537.154 Q462.502 538.206 462.638 538.58 Q462.808 538.954 463.487 540.075 Q466.238 544.287 470.722 544.287 Q470.756 544.287 470.79 544.287 Q474.764 544.287 477.787 540.245 Q480.81 536.168 480.81 530.054 Q480.81 524.212 478.059 520.136 Q475.308 516.06 471.503 516.06 Q468.786 516.06 466.408 517.521 Q464.031 518.981 462.502 521.631 L462.502 537.154 Z" fill="#000000" fill-rule="evenodd" fill-opacity="1" /><path clip-path="url(#clip780)" d="M491.238 545.068 L491.238 542.928 Q494.941 542.928 495.79 542.486 Q496.639 542.011 496.639 539.769 L496.639 521.053 Q496.639 518.472 495.756 517.86 Q494.907 517.249 491.51 517.249 L491.51 515.075 L501.225 514.328 L501.225 539.837 Q501.225 541.909 501.972 542.418 Q502.719 542.928 506.116 542.928 L506.116 545.068 Q499.017 544.864 498.881 544.864 Q497.93 544.864 491.238 545.068 M494.159 502.201 Q494.159 500.809 495.212 499.688 Q496.299 498.533 497.828 498.533 Q499.356 498.533 500.443 499.586 Q501.53 500.605 501.53 502.235 Q501.53 503.832 500.443 504.885 Q499.356 505.904 497.828 505.904 Q496.231 505.904 495.178 504.783 Q494.159 503.662 494.159 502.201 Z" fill="#000000" fill-rule="evenodd" fill-opacity="1" /><path clip-path="url(#clip780)" d="M510.498 544.151 L510.498 534.98 Q510.498 534.198 510.532 533.927 Q510.566 533.655 510.769 533.451 Q510.973 533.247 511.381 533.247 Q511.856 533.247 512.026 533.451 Q512.23 533.655 512.366 534.436 Q513.419 539.225 515.661 541.773 Q517.936 544.287 522.046 544.287 Q525.953 544.287 527.923 542.554 Q529.893 540.822 529.893 537.969 Q529.893 532.874 522.658 531.583 Q518.48 530.734 516.748 530.19 Q515.015 529.613 513.487 528.356 Q510.498 525.91 510.498 522.446 Q510.498 518.981 513.113 516.434 Q515.763 513.886 521.605 513.886 Q525.511 513.886 528.161 515.856 Q528.942 515.245 529.349 514.735 Q530.266 513.886 530.742 513.886 Q531.285 513.886 531.387 514.26 Q531.489 514.599 531.489 515.584 L531.489 522.582 Q531.489 523.363 531.455 523.635 Q531.421 523.906 531.218 524.11 Q531.014 524.28 530.572 524.28 Q529.791 524.28 529.757 523.635 Q529.213 515.211 521.605 515.211 Q517.495 515.211 515.661 516.807 Q513.826 518.37 513.826 520.51 Q513.826 521.698 514.37 522.616 Q514.947 523.499 515.661 524.042 Q516.408 524.552 517.767 525.061 Q519.125 525.537 519.94 525.707 Q520.79 525.876 522.386 526.216 Q527.957 527.269 530.3 529.545 Q533.222 532.466 533.222 536.168 Q533.222 540.278 530.436 543.064 Q527.651 545.849 522.046 545.849 Q517.529 545.849 514.37 542.826 Q513.962 543.234 513.657 543.607 Q513.351 543.947 513.215 544.083 Q513.113 544.219 513.079 544.321 Q513.045 544.389 512.977 544.456 Q511.585 545.849 511.245 545.849 Q510.701 545.849 510.6 545.475 Q510.498 545.136 510.498 544.151 Z" fill="#000000" fill-rule="evenodd" fill-opacity="1" /><path clip-path="url(#clip780)" d="M542.087 541.331 Q537.501 536.78 537.501 530.19 Q537.501 523.567 541.985 518.743 Q546.503 513.886 552.957 513.886 Q559.274 513.886 563.792 518.709 Q568.344 523.499 568.344 530.19 Q568.344 536.746 563.758 541.297 Q559.206 545.849 552.889 545.849 Q546.707 545.849 542.087 541.331 M543.276 529.613 Q543.276 536.372 545.042 539.429 Q547.76 544.083 552.957 544.083 Q555.538 544.083 557.678 542.69 Q559.852 541.297 561.041 538.954 Q562.569 535.897 562.569 529.613 Q562.569 522.921 560.735 519.966 Q558.018 515.449 552.889 515.449 Q550.647 515.449 548.439 516.637 Q546.265 517.792 544.94 520.102 Q543.276 523.159 543.276 529.613 Z" fill="#000000" fill-rule="evenodd" fill-opacity="1" /><path clip-path="url(#clip780)" d="M574.661 530.122 Q574.661 523.499 579.281 518.913 Q583.901 514.328 590.151 514.328 Q595.449 514.328 598.914 518.641 L598.914 503.594 Q598.914 501.012 597.997 500.367 Q597.114 499.722 593.513 499.722 L593.513 497.548 L603.534 496.801 L603.534 539.022 Q603.534 541.603 604.417 542.283 Q605.334 542.928 608.934 542.928 L608.934 545.068 L598.71 545.849 L598.71 541.23 Q595.11 545.815 589.403 545.849 Q583.425 545.849 579.043 541.264 Q574.661 536.678 574.661 530.122 M580.436 530.19 Q580.436 536.644 582.44 539.837 Q585.225 544.287 589.743 544.287 Q594.906 544.287 597.963 539.429 Q598.744 538.24 598.71 536.848 L598.71 522.582 Q598.71 521.189 597.963 520.034 Q595.11 515.856 590.456 515.856 Q585.599 515.856 582.576 520.306 Q580.436 523.635 580.436 530.19 Z" fill="#000000" fill-rule="evenodd" fill-opacity="1" /><path clip-path="url(#clip780)" d="M612.807 529.749 Q612.807 523.193 617.018 518.54 Q621.23 513.886 627.277 513.886 Q633.391 513.886 636.55 517.86 Q639.742 521.834 639.742 527.541 Q639.742 528.594 639.471 528.798 Q639.199 529.001 638.01 529.001 L618.581 529.001 Q618.581 536.101 620.687 539.429 Q623.608 544.083 628.533 544.083 Q629.213 544.083 630.028 543.947 Q630.843 543.811 632.508 543.234 Q634.172 542.622 635.632 541.026 Q637.093 539.429 637.942 536.916 Q638.146 535.931 638.825 535.965 Q639.742 535.965 639.742 536.78 Q639.742 537.391 639.063 538.784 Q638.418 540.143 637.161 541.773 Q635.904 543.403 633.459 544.626 Q631.047 545.849 628.126 545.849 Q622.012 545.849 617.392 541.23 Q612.807 536.576 612.807 529.749 M618.649 527.541 L635.157 527.541 Q635.157 526.08 634.885 524.45 Q634.647 522.819 633.9 520.578 Q633.187 518.302 631.488 516.875 Q629.79 515.449 627.277 515.449 Q626.156 515.449 624.933 515.924 Q623.744 516.4 622.283 517.554 Q620.823 518.709 619.804 521.325 Q618.785 523.94 618.649 527.541 Z" fill="#000000" fill-rule="evenodd" fill-opacity="1" /><path clip-path="url(#clip780)" d="M644.056 544.151 L644.056 534.98 Q644.056 534.198 644.09 533.927 Q644.124 533.655 644.328 533.451 Q644.532 533.247 644.939 533.247 Q645.415 533.247 645.585 533.451 Q645.789 533.655 645.925 534.436 Q646.977 539.225 649.219 541.773 Q651.495 544.287 655.605 544.287 Q659.511 544.287 661.481 542.554 Q663.452 540.822 663.452 537.969 Q663.452 532.874 656.217 531.583 Q652.039 530.734 650.306 530.19 Q648.574 529.613 647.045 528.356 Q644.056 525.91 644.056 522.446 Q644.056 518.981 646.672 516.434 Q649.321 513.886 655.164 513.886 Q659.07 513.886 661.719 515.856 Q662.5 515.245 662.908 514.735 Q663.825 513.886 664.301 513.886 Q664.844 513.886 664.946 514.26 Q665.048 514.599 665.048 515.584 L665.048 522.582 Q665.048 523.363 665.014 523.635 Q664.98 523.906 664.776 524.11 Q664.572 524.28 664.131 524.28 Q663.35 524.28 663.316 523.635 Q662.772 515.211 655.164 515.211 Q651.054 515.211 649.219 516.807 Q647.385 518.37 647.385 520.51 Q647.385 521.698 647.929 522.616 Q648.506 523.499 649.219 524.042 Q649.967 524.552 651.325 525.061 Q652.684 525.537 653.499 525.707 Q654.348 525.876 655.945 526.216 Q661.515 527.269 663.859 529.545 Q666.78 532.466 666.78 536.168 Q666.78 540.278 663.995 543.064 Q661.21 545.849 655.605 545.849 Q651.088 545.849 647.929 542.826 Q647.521 543.234 647.215 543.607 Q646.91 543.947 646.774 544.083 Q646.672 544.219 646.638 544.321 Q646.604 544.389 646.536 544.456 Q645.143 545.849 644.804 545.849 Q644.26 545.849 644.158 545.475 Q644.056 545.136 644.056 544.151 Z" fill="#000000" fill-rule="evenodd" fill-opacity="1" /><polyline clip-path="url(#clip782)" style="stroke:#000000; stroke-linecap:round; stroke-linejoin:round; stroke-width:2; stroke-opacity:0.1; fill:none" points="
  209.947,407.705 862.203,407.705 
  "/>
<polyline clip-path="url(#clip782)" style="stroke:#000000; stroke-linecap:round; stroke-linejoin:round; stroke-width:2; stroke-opacity:0.1; fill:none" points="
  209.947,318.774 862.203,318.774 
  "/>
<polyline clip-path="url(#clip782)" style="stroke:#000000; stroke-linecap:round; stroke-linejoin:round; stroke-width:2; stroke-opacity:0.1; fill:none" points="
  209.947,229.843 862.203,229.843 
  "/>
<polyline clip-path="url(#clip782)" style="stroke:#000000; stroke-linecap:round; stroke-linejoin:round; stroke-width:2; stroke-opacity:0.1; fill:none" points="
  209.947,140.911 862.203,140.911 
  "/>
<polyline clip-path="url(#clip782)" style="stroke:#000000; stroke-linecap:round; stroke-linejoin:round; stroke-width:2; stroke-opacity:0.1; fill:none" points="
  209.947,51.9802 862.203,51.9802 
  "/>
<polyline clip-path="url(#clip780)" style="stroke:#000000; stroke-linecap:round; stroke-linejoin:round; stroke-width:4; stroke-opacity:1; fill:none" points="
  209.947,418.204 209.947,47.2441 
  "/>
<polyline clip-path="url(#clip780)" style="stroke:#000000; stroke-linecap:round; stroke-linejoin:round; stroke-width:4; stroke-opacity:1; fill:none" points="
  209.947,407.705 223.021,407.705 
  "/>
<polyline clip-path="url(#clip780)" style="stroke:#000000; stroke-linecap:round; stroke-linejoin:round; stroke-width:4; stroke-opacity:1; fill:none" points="
  209.947,318.774 223.021,318.774 
  "/>
<polyline clip-path="url(#clip780)" style="stroke:#000000; stroke-linecap:round; stroke-linejoin:round; stroke-width:4; stroke-opacity:1; fill:none" points="
  209.947,229.843 223.021,229.843 
  "/>
<polyline clip-path="url(#clip780)" style="stroke:#000000; stroke-linecap:round; stroke-linejoin:round; stroke-width:4; stroke-opacity:1; fill:none" points="
  209.947,140.911 223.021,140.911 
  "/>
<polyline clip-path="url(#clip780)" style="stroke:#000000; stroke-linecap:round; stroke-linejoin:round; stroke-width:4; stroke-opacity:1; fill:none" points="
  209.947,51.9802 223.021,51.9802 
  "/>
<path clip-path="url(#clip780)" d="M106.004 408.804 Q106.004 401.369 107.882 397.317 Q110.5 391.29 116.676 391.29 Q117.985 391.29 119.344 391.66 Q120.727 392.006 122.457 393.365 Q124.211 394.723 125.273 396.947 Q127.298 401.245 127.298 408.804 Q127.298 416.191 125.421 420.217 Q122.679 426.097 116.627 426.097 Q114.354 426.097 112.032 424.936 Q109.734 423.775 108.277 420.983 Q106.004 416.808 106.004 408.804 M110.204 408.187 Q110.204 415.82 110.747 418.859 Q111.365 422.144 113.045 423.577 Q114.749 424.985 116.627 424.985 Q118.652 424.985 120.332 423.478 Q122.037 421.946 122.555 418.661 Q123.124 415.425 123.099 408.187 Q123.099 401.146 122.605 398.33 Q121.938 395.045 120.159 393.735 Q118.405 392.401 116.627 392.401 Q115.96 392.401 115.243 392.599 Q114.552 392.797 113.539 393.365 Q112.526 393.933 111.735 395.341 Q110.97 396.749 110.599 398.874 Q110.204 401.616 110.204 408.187 Z" fill="#000000" fill-rule="evenodd" fill-opacity="1" /><path clip-path="url(#clip780)" d="M134.388 424.17 Q133.623 423.355 133.623 422.292 Q133.623 421.23 134.388 420.464 Q135.154 419.674 136.315 419.674 Q137.427 419.674 138.168 420.415 Q138.934 421.131 138.934 422.317 Q138.934 423.478 138.119 424.244 Q137.328 424.985 136.315 424.985 Q135.154 424.985 134.388 424.17 Z" fill="#000000" fill-rule="evenodd" fill-opacity="1" /><path clip-path="url(#clip780)" d="M145.357 408.804 Q145.357 401.369 147.234 397.317 Q149.853 391.29 156.028 391.29 Q157.338 391.29 158.696 391.66 Q160.08 392.006 161.809 393.365 Q163.563 394.723 164.625 396.947 Q166.651 401.245 166.651 408.804 Q166.651 416.191 164.773 420.217 Q162.031 426.097 155.979 426.097 Q153.706 426.097 151.384 424.936 Q149.087 423.775 147.629 420.983 Q145.357 416.808 145.357 408.804 M149.556 408.187 Q149.556 415.82 150.1 418.859 Q150.717 422.144 152.397 423.577 Q154.102 424.985 155.979 424.985 Q158.005 424.985 159.685 423.478 Q161.389 421.946 161.908 418.661 Q162.476 415.425 162.451 408.187 Q162.451 401.146 161.957 398.33 Q161.29 395.045 159.512 393.735 Q157.758 392.401 155.979 392.401 Q155.312 392.401 154.596 392.599 Q153.904 392.797 152.891 393.365 Q151.878 393.933 151.088 395.341 Q150.322 396.749 149.951 398.874 Q149.556 401.616 149.556 408.187 Z" fill="#000000" fill-rule="evenodd" fill-opacity="1" /><path clip-path="url(#clip780)" d="M170.653 408.804 Q170.653 401.369 172.53 397.317 Q175.149 391.29 181.325 391.29 Q182.634 391.29 183.993 391.66 Q185.376 392.006 187.105 393.365 Q188.859 394.723 189.921 396.947 Q191.947 401.245 191.947 408.804 Q191.947 416.191 190.07 420.217 Q187.328 426.097 181.275 426.097 Q179.003 426.097 176.68 424.936 Q174.383 423.775 172.926 420.983 Q170.653 416.808 170.653 408.804 M174.852 408.187 Q174.852 415.82 175.396 418.859 Q176.013 422.144 177.693 423.577 Q179.398 424.985 181.275 424.985 Q183.301 424.985 184.981 423.478 Q186.685 421.946 187.204 418.661 Q187.772 415.425 187.748 408.187 Q187.748 401.146 187.254 398.33 Q186.587 395.045 184.808 393.735 Q183.054 392.401 181.275 392.401 Q180.608 392.401 179.892 392.599 Q179.2 392.797 178.187 393.365 Q177.175 393.933 176.384 395.341 Q175.618 396.749 175.248 398.874 Q174.852 401.616 174.852 408.187 Z" fill="#000000" fill-rule="evenodd" fill-opacity="1" /><path clip-path="url(#clip780)" d="M106.548 319.873 Q106.548 312.437 108.425 308.386 Q111.044 302.358 117.219 302.358 Q118.529 302.358 119.887 302.729 Q121.271 303.075 123 304.433 Q124.754 305.792 125.816 308.015 Q127.842 312.314 127.842 319.873 Q127.842 327.259 125.964 331.286 Q123.222 337.165 117.17 337.165 Q114.897 337.165 112.575 336.004 Q110.278 334.843 108.82 332.052 Q106.548 327.877 106.548 319.873 M110.747 319.256 Q110.747 326.889 111.291 329.927 Q111.908 333.213 113.588 334.646 Q115.293 336.054 117.17 336.054 Q119.196 336.054 120.876 334.547 Q122.58 333.015 123.099 329.73 Q123.667 326.494 123.642 319.256 Q123.642 312.215 123.148 309.399 Q122.481 306.113 120.703 304.804 Q118.949 303.47 117.17 303.47 Q116.503 303.47 115.787 303.668 Q115.095 303.865 114.082 304.433 Q113.069 305.002 112.279 306.41 Q111.513 307.818 111.142 309.942 Q110.747 312.684 110.747 319.256 Z" fill="#000000" fill-rule="evenodd" fill-opacity="1" /><path clip-path="url(#clip780)" d="M134.932 335.239 Q134.166 334.423 134.166 333.361 Q134.166 332.299 134.932 331.533 Q135.698 330.743 136.859 330.743 Q137.97 330.743 138.711 331.484 Q139.477 332.2 139.477 333.386 Q139.477 334.547 138.662 335.313 Q137.871 336.054 136.859 336.054 Q135.698 336.054 134.932 335.239 Z" fill="#000000" fill-rule="evenodd" fill-opacity="1" /><path clip-path="url(#clip780)" d="M146.444 336.054 Q146.444 335.14 146.518 334.868 Q146.616 334.596 147.012 334.176 L156.72 323.356 Q162.031 317.378 162.031 312.166 Q162.031 308.781 160.253 306.36 Q158.499 303.939 155.263 303.939 Q153.039 303.939 151.162 305.298 Q149.284 306.657 148.42 309.078 Q148.568 309.028 149.087 309.028 Q150.347 309.028 151.038 309.819 Q151.755 310.609 151.755 311.672 Q151.755 313.03 150.865 313.697 Q150.001 314.34 149.136 314.34 Q148.79 314.34 148.321 314.265 Q147.876 314.191 147.16 313.5 Q146.444 312.783 146.444 311.523 Q146.444 307.991 149.112 305.175 Q151.804 302.358 155.905 302.358 Q160.549 302.358 163.588 305.125 Q166.651 307.867 166.651 312.166 Q166.651 313.673 166.182 315.056 Q165.737 316.415 165.119 317.477 Q164.526 318.539 162.896 320.244 Q161.266 321.948 159.956 323.159 Q158.647 324.369 155.707 326.938 L150.347 332.151 L159.462 332.151 Q163.909 332.151 164.255 331.755 Q164.749 331.039 165.366 327.259 L166.651 327.259 L165.218 336.054 L146.444 336.054 Z" fill="#000000" fill-rule="evenodd" fill-opacity="1" /><path clip-path="url(#clip780)" d="M171.74 327.902 Q171.74 326.395 172.555 325.827 Q173.37 325.234 174.235 325.234 Q175.396 325.234 176.063 325.975 Q176.755 326.691 176.755 327.704 Q176.755 328.717 176.063 329.458 Q175.396 330.174 174.235 330.174 Q173.667 330.174 173.37 330.076 Q174.037 332.398 176.063 334.078 Q178.113 335.757 180.806 335.757 Q184.19 335.757 186.216 332.472 Q187.426 330.347 187.426 325.53 Q187.426 321.281 186.512 319.157 Q185.104 315.921 182.214 315.921 Q178.113 315.921 175.692 319.453 Q175.396 319.898 175.05 319.922 Q174.556 319.922 174.432 319.651 Q174.334 319.354 174.334 318.589 L174.334 303.618 Q174.334 302.408 174.828 302.408 Q175.025 302.408 175.445 302.556 Q178.632 303.964 182.165 303.989 Q185.796 303.989 189.057 302.507 Q189.304 302.358 189.452 302.358 Q189.946 302.358 189.971 302.927 Q189.971 303.124 189.551 303.717 Q189.156 304.285 188.291 305.051 Q187.426 305.792 186.315 306.509 Q185.203 307.225 183.573 307.719 Q181.967 308.188 180.188 308.188 Q178.064 308.188 175.89 307.521 L175.89 317.378 Q178.509 314.809 182.313 314.809 Q186.364 314.809 189.156 318.07 Q191.947 321.331 191.947 325.876 Q191.947 330.644 188.637 333.905 Q185.351 337.165 180.905 337.165 Q176.853 337.165 174.284 334.275 Q171.74 331.385 171.74 327.902 Z" fill="#000000" fill-rule="evenodd" fill-opacity="1" /><path clip-path="url(#clip780)" d="M106.004 230.942 Q106.004 223.506 107.882 219.455 Q110.5 213.427 116.676 213.427 Q117.985 213.427 119.344 213.798 Q120.727 214.144 122.457 215.502 Q124.211 216.861 125.273 219.084 Q127.298 223.383 127.298 230.942 Q127.298 238.328 125.421 242.355 Q122.679 248.234 116.627 248.234 Q114.354 248.234 112.032 247.073 Q109.734 245.912 108.277 243.121 Q106.004 238.946 106.004 230.942 M110.204 230.324 Q110.204 237.958 110.747 240.996 Q111.365 244.282 113.045 245.715 Q114.749 247.123 116.627 247.123 Q118.652 247.123 120.332 245.616 Q122.037 244.084 122.555 240.799 Q123.124 237.562 123.099 230.324 Q123.099 223.284 122.605 220.468 Q121.938 217.182 120.159 215.873 Q118.405 214.539 116.627 214.539 Q115.96 214.539 115.243 214.736 Q114.552 214.934 113.539 215.502 Q112.526 216.07 111.735 217.479 Q110.97 218.887 110.599 221.011 Q110.204 223.753 110.204 230.324 Z" fill="#000000" fill-rule="evenodd" fill-opacity="1" /><path clip-path="url(#clip780)" d="M134.388 246.307 Q133.623 245.492 133.623 244.43 Q133.623 243.368 134.388 242.602 Q135.154 241.811 136.315 241.811 Q137.427 241.811 138.168 242.552 Q138.934 243.269 138.934 244.455 Q138.934 245.616 138.119 246.381 Q137.328 247.123 136.315 247.123 Q135.154 247.123 134.388 246.307 Z" fill="#000000" fill-rule="evenodd" fill-opacity="1" /><path clip-path="url(#clip780)" d="M145.9 238.97 Q145.9 237.464 146.715 236.895 Q147.531 236.303 148.395 236.303 Q149.556 236.303 150.223 237.044 Q150.915 237.76 150.915 238.773 Q150.915 239.786 150.223 240.527 Q149.556 241.243 148.395 241.243 Q147.827 241.243 147.531 241.144 Q148.197 243.467 150.223 245.146 Q152.274 246.826 154.966 246.826 Q158.351 246.826 160.376 243.541 Q161.587 241.416 161.587 236.599 Q161.587 232.35 160.673 230.225 Q159.265 226.989 156.374 226.989 Q152.274 226.989 149.853 230.522 Q149.556 230.967 149.21 230.991 Q148.716 230.991 148.593 230.72 Q148.494 230.423 148.494 229.657 L148.494 214.687 Q148.494 213.477 148.988 213.477 Q149.186 213.477 149.606 213.625 Q152.792 215.033 156.325 215.058 Q159.956 215.058 163.217 213.575 Q163.464 213.427 163.612 213.427 Q164.106 213.427 164.131 213.995 Q164.131 214.193 163.711 214.786 Q163.316 215.354 162.451 216.12 Q161.587 216.861 160.475 217.577 Q159.363 218.294 157.733 218.788 Q156.127 219.257 154.349 219.257 Q152.224 219.257 150.05 218.59 L150.05 228.447 Q152.669 225.878 156.473 225.878 Q160.524 225.878 163.316 229.139 Q166.107 232.399 166.107 236.945 Q166.107 241.713 162.797 244.973 Q159.512 248.234 155.065 248.234 Q151.014 248.234 148.445 245.344 Q145.9 242.454 145.9 238.97 Z" fill="#000000" fill-rule="evenodd" fill-opacity="1" /><path clip-path="url(#clip780)" d="M170.653 230.942 Q170.653 223.506 172.53 219.455 Q175.149 213.427 181.325 213.427 Q182.634 213.427 183.993 213.798 Q185.376 214.144 187.105 215.502 Q188.859 216.861 189.921 219.084 Q191.947 223.383 191.947 230.942 Q191.947 238.328 190.07 242.355 Q187.328 248.234 181.275 248.234 Q179.003 248.234 176.68 247.073 Q174.383 245.912 172.926 243.121 Q170.653 238.946 170.653 230.942 M174.852 230.324 Q174.852 237.958 175.396 240.996 Q176.013 244.282 177.693 245.715 Q179.398 247.123 181.275 247.123 Q183.301 247.123 184.981 245.616 Q186.685 244.084 187.204 240.799 Q187.772 237.562 187.748 230.324 Q187.748 223.284 187.254 220.468 Q186.587 217.182 184.808 215.873 Q183.054 214.539 181.275 214.539 Q180.608 214.539 179.892 214.736 Q179.2 214.934 178.187 215.502 Q177.175 216.07 176.384 217.479 Q175.618 218.887 175.248 221.011 Q174.852 223.753 174.852 230.324 Z" fill="#000000" fill-rule="evenodd" fill-opacity="1" /><path clip-path="url(#clip780)" d="M106.548 142.011 Q106.548 134.575 108.425 130.524 Q111.044 124.496 117.219 124.496 Q118.529 124.496 119.887 124.867 Q121.271 125.212 123 126.571 Q124.754 127.93 125.816 130.153 Q127.842 134.451 127.842 142.011 Q127.842 149.397 125.964 153.424 Q123.222 159.303 117.17 159.303 Q114.897 159.303 112.575 158.142 Q110.278 156.981 108.82 154.189 Q106.548 150.015 106.548 142.011 M110.747 141.393 Q110.747 149.026 111.291 152.065 Q111.908 155.351 113.588 156.783 Q115.293 158.191 117.17 158.191 Q119.196 158.191 120.876 156.685 Q122.58 155.153 123.099 151.867 Q123.667 148.631 123.642 141.393 Q123.642 134.353 123.148 131.536 Q122.481 128.251 120.703 126.942 Q118.949 125.608 117.17 125.608 Q116.503 125.608 115.787 125.805 Q115.095 126.003 114.082 126.571 Q113.069 127.139 112.279 128.547 Q111.513 129.955 111.142 132.08 Q110.747 134.822 110.747 141.393 Z" fill="#000000" fill-rule="evenodd" fill-opacity="1" /><path clip-path="url(#clip780)" d="M134.932 157.376 Q134.166 156.561 134.166 155.499 Q134.166 154.436 134.932 153.671 Q135.698 152.88 136.859 152.88 Q137.97 152.88 138.711 153.621 Q139.477 154.338 139.477 155.523 Q139.477 156.685 138.662 157.45 Q137.871 158.191 136.859 158.191 Q135.698 158.191 134.932 157.376 Z" fill="#000000" fill-rule="evenodd" fill-opacity="1" /><path clip-path="url(#clip780)" d="M146.765 134.402 L148.42 124.002 L149.68 124.002 Q149.828 124.62 150.075 124.891 Q150.347 125.163 151.779 125.385 Q153.237 125.608 156.177 125.608 L168.454 125.608 Q168.454 126.769 168.01 127.386 L161.167 136.996 Q158.993 140.034 158.029 145.642 Q157.461 149.397 157.486 153.942 L157.486 156.512 Q157.486 159.303 155.139 159.303 Q152.817 159.303 152.817 156.512 Q152.817 146.853 159.042 137.49 Q159.709 136.527 162.155 133.093 Q164.625 129.659 164.724 129.511 L154.25 129.511 Q149.655 129.511 149.284 129.807 Q148.79 130.252 148.025 134.402 L146.765 134.402 Z" fill="#000000" fill-rule="evenodd" fill-opacity="1" /><path clip-path="url(#clip780)" d="M171.74 150.039 Q171.74 148.532 172.555 147.964 Q173.37 147.371 174.235 147.371 Q175.396 147.371 176.063 148.112 Q176.755 148.829 176.755 149.842 Q176.755 150.855 176.063 151.596 Q175.396 152.312 174.235 152.312 Q173.667 152.312 173.37 152.213 Q174.037 154.535 176.063 156.215 Q178.113 157.895 180.806 157.895 Q184.19 157.895 186.216 154.609 Q187.426 152.485 187.426 147.668 Q187.426 143.419 186.512 141.294 Q185.104 138.058 182.214 138.058 Q178.113 138.058 175.692 141.591 Q175.396 142.035 175.05 142.06 Q174.556 142.06 174.432 141.788 Q174.334 141.492 174.334 140.726 L174.334 125.756 Q174.334 124.545 174.828 124.545 Q175.025 124.545 175.445 124.694 Q178.632 126.102 182.165 126.126 Q185.796 126.126 189.057 124.644 Q189.304 124.496 189.452 124.496 Q189.946 124.496 189.971 125.064 Q189.971 125.262 189.551 125.855 Q189.156 126.423 188.291 127.189 Q187.426 127.93 186.315 128.646 Q185.203 129.363 183.573 129.857 Q181.967 130.326 180.188 130.326 Q178.064 130.326 175.89 129.659 L175.89 139.516 Q178.509 136.947 182.313 136.947 Q186.364 136.947 189.156 140.207 Q191.947 143.468 191.947 148.014 Q191.947 152.781 188.637 156.042 Q185.351 159.303 180.905 159.303 Q176.853 159.303 174.284 156.413 Q171.74 153.522 171.74 150.039 Z" fill="#000000" fill-rule="evenodd" fill-opacity="1" /><path clip-path="url(#clip780)" d="M108.524 40.382 L108.524 38.801 Q114.601 38.801 117.738 35.5648 Q118.603 35.5648 118.751 35.7625 Q118.899 35.9601 118.899 36.8741 L118.899 65.2583 Q118.899 66.7652 119.64 67.2345 Q120.382 67.7039 123.618 67.7039 L125.223 67.7039 L125.223 69.2602 Q123.445 69.112 117.022 69.112 Q110.599 69.112 108.845 69.2602 L108.845 67.7039 L110.451 67.7039 Q113.637 67.7039 114.403 67.2592 Q115.169 66.7899 115.169 65.2583 L115.169 39.048 Q112.526 40.382 108.524 40.382 Z" fill="#000000" fill-rule="evenodd" fill-opacity="1" /><path clip-path="url(#clip780)" d="M134.388 68.445 Q133.623 67.6298 133.623 66.5675 Q133.623 65.5053 134.388 64.7395 Q135.154 63.949 136.315 63.949 Q137.427 63.949 138.168 64.6901 Q138.934 65.4065 138.934 66.5923 Q138.934 67.7533 138.119 68.5191 Q137.328 69.2602 136.315 69.2602 Q135.154 69.2602 134.388 68.445 Z" fill="#000000" fill-rule="evenodd" fill-opacity="1" /><path clip-path="url(#clip780)" d="M145.357 53.0795 Q145.357 45.6438 147.234 41.5925 Q149.853 35.5648 156.028 35.5648 Q157.338 35.5648 158.696 35.9354 Q160.08 36.2812 161.809 37.6399 Q163.563 38.9986 164.625 41.2219 Q166.651 45.5203 166.651 53.0795 Q166.651 60.4658 164.773 64.4925 Q162.031 70.3719 155.979 70.3719 Q153.706 70.3719 151.384 69.2108 Q149.087 68.0497 147.629 65.2583 Q145.357 61.0834 145.357 53.0795 M149.556 52.4619 Q149.556 60.0953 150.1 63.1338 Q150.717 66.4193 152.397 67.8521 Q154.102 69.2602 155.979 69.2602 Q158.005 69.2602 159.685 67.7533 Q161.389 66.2217 161.908 62.9362 Q162.476 59.7 162.451 52.4619 Q162.451 45.4215 161.957 42.6053 Q161.29 39.3197 159.512 38.0105 Q157.758 36.6765 155.979 36.6765 Q155.312 36.6765 154.596 36.8741 Q153.904 37.0717 152.891 37.6399 Q151.878 38.2081 151.088 39.6162 Q150.322 41.0243 149.951 43.1488 Q149.556 45.8908 149.556 52.4619 Z" fill="#000000" fill-rule="evenodd" fill-opacity="1" /><path clip-path="url(#clip780)" d="M170.653 53.0795 Q170.653 45.6438 172.53 41.5925 Q175.149 35.5648 181.325 35.5648 Q182.634 35.5648 183.993 35.9354 Q185.376 36.2812 187.105 37.6399 Q188.859 38.9986 189.921 41.2219 Q191.947 45.5203 191.947 53.0795 Q191.947 60.4658 190.07 64.4925 Q187.328 70.3719 181.275 70.3719 Q179.003 70.3719 176.68 69.2108 Q174.383 68.0497 172.926 65.2583 Q170.653 61.0834 170.653 53.0795 M174.852 52.4619 Q174.852 60.0953 175.396 63.1338 Q176.013 66.4193 177.693 67.8521 Q179.398 69.2602 181.275 69.2602 Q183.301 69.2602 184.981 67.7533 Q186.685 66.2217 187.204 62.9362 Q187.772 59.7 187.748 52.4619 Q187.748 45.4215 187.254 42.6053 Q186.587 39.3197 184.808 38.0105 Q183.054 36.6765 181.275 36.6765 Q180.608 36.6765 179.892 36.8741 Q179.2 37.0717 178.187 37.6399 Q177.175 38.2081 176.384 39.6162 Q175.618 41.0243 175.248 43.1488 Q174.852 45.8908 174.852 52.4619 Z" fill="#000000" fill-rule="evenodd" fill-opacity="1" /><path clip-path="url(#clip780)" d="M35.5691 443.252 Q29.5909 443.252 25.5828 440.195 Q21.5747 437.138 21.5747 433.028 Q21.5747 430.515 23.8165 428.035 Q29.1833 422.396 29.1493 415.025 Q29.1493 406.67 22.5597 401.812 Q21.5747 400.963 21.5747 400.352 Q21.5747 399.808 22.0162 399.401 Q22.4238 398.959 22.9673 398.959 Q23.3749 398.959 24.2241 399.503 L76.6014 434.692 Q77.6544 435.474 77.6544 436.085 Q77.6544 436.629 77.2128 437.07 Q76.8052 437.478 76.2617 437.478 Q75.7862 437.478 74.8691 436.866 L28.3341 405.617 L28.2662 405.685 Q30.7118 409.285 30.6779 414.958 Q30.6779 420.324 27.7567 425.453 Q31.3572 423.993 35.637 423.993 Q41.4794 423.993 45.5554 426.608 Q49.5975 429.224 49.5975 433.028 Q49.5975 437.138 45.6573 440.195 Q41.6832 443.252 35.5691 443.252 M29.8966 438.463 Q32.3422 438.938 35.637 438.938 Q38.8979 438.938 41.3435 438.463 Q43.7552 437.987 45.012 437.308 Q46.2688 436.595 47.016 435.644 Q47.7293 434.692 47.8992 434.115 Q48.069 433.538 48.069 432.96 Q48.069 430.107 44.5364 427.933 Q40.9699 425.725 35.5691 425.725 Q30.2702 425.725 26.7037 427.933 Q23.1032 430.107 23.1032 432.96 Q23.1032 433.572 23.273 434.183 Q23.4429 434.76 24.1901 435.678 Q24.9034 436.595 26.1602 437.308 Q27.417 437.987 29.8966 438.463 M63.592 412.444 Q57.6138 412.444 53.6057 409.387 Q49.5975 406.33 49.5975 402.22 Q49.5975 398.45 53.6736 395.834 Q57.7496 393.185 63.6599 393.185 Q69.5023 393.185 73.5783 395.8 Q77.6544 398.382 77.6544 402.22 Q77.6544 406.33 73.6802 409.387 Q69.7061 412.444 63.592 412.444 M57.9195 407.655 Q60.3991 408.13 63.6599 408.13 Q66.9208 408.13 69.3664 407.655 Q71.812 407.145 73.0688 406.466 Q74.2916 405.752 75.0049 404.835 Q75.7522 403.884 75.9221 403.307 Q76.1259 402.695 76.1259 402.152 Q76.1259 399.299 72.5933 397.125 Q69.0267 394.917 63.592 394.917 Q58.2931 394.917 54.7266 397.125 Q51.1261 399.299 51.1261 402.152 Q51.1261 402.763 51.3299 403.375 Q51.4997 403.952 52.247 404.869 Q52.9603 405.752 54.2171 406.466 Q55.4399 407.145 57.9195 407.655 Z" fill="#000000" fill-rule="evenodd" fill-opacity="1" /><path clip-path="url(#clip780)" d="M45.9291 363.871 L43.7552 363.871 L43.0079 353.647 L66.1056 353.647 Q67.7699 353.647 68.755 353.511 Q69.7061 353.375 70.827 352.832 Q71.9479 352.254 72.4574 350.964 Q72.9669 349.639 72.9669 347.533 Q72.9669 343.762 69.8759 341.453 Q66.7849 339.109 62.1993 339.109 L49.8013 339.109 Q47.2198 339.109 46.5745 340.026 Q45.9291 340.943 45.9291 344.544 L43.7552 344.544 L43.0079 334.32 L67.702 334.32 Q70.2835 334.32 70.9629 333.436 Q71.6082 332.519 71.6082 328.885 L73.7482 328.885 L74.5294 338.905 L68.2455 338.905 Q74.4954 341.826 74.5294 347.873 Q74.5294 350.93 73.7482 353.036 Q72.9669 355.107 72.0158 356.16 Q71.0308 357.213 69.1626 357.791 Q67.2944 358.334 66.1395 358.402 Q64.9846 358.47 62.7428 358.47 L52.3149 358.47 Q47.5935 358.47 46.7783 359.15 Q45.9291 359.829 45.9291 363.871 Z" fill="#000000" fill-rule="evenodd" fill-opacity="1" /><path clip-path="url(#clip780)" d="M73.7482 325.284 L71.6082 325.284 Q71.6082 321.582 71.1667 320.733 Q70.6911 319.884 68.4493 319.884 L49.8013 319.884 Q47.2198 319.884 46.5745 320.801 Q45.9291 321.684 45.9291 325.284 L43.7552 325.284 L43.0079 315.502 L50.3108 315.502 Q43.0079 312.241 43.0079 305.21 Q43.0079 299.979 45.5894 297.907 Q47.3217 296.378 49.2579 296.073 Q51.194 295.733 56.2211 295.733 L69.5023 295.733 Q70.9629 295.665 71.3025 294.544 Q71.6082 293.423 71.6082 290.298 L73.7482 290.298 Q73.5444 297.397 73.5444 298.111 Q73.5444 298.654 73.7482 305.957 L71.6082 305.957 Q71.6082 302.255 71.1667 301.405 Q70.6911 300.522 68.4493 300.522 L52.247 300.522 Q48.7144 300.522 46.6424 301.609 Q44.5364 302.696 44.5364 305.685 Q44.5364 309.286 47.5595 312.173 Q50.5826 315.06 55.6776 315.06 L68.4493 315.06 Q70.6911 315.06 71.1667 314.211 Q71.6082 313.328 71.6082 309.659 L73.7482 309.659 Q73.5444 316.759 73.5444 317.438 Q73.5444 317.981 73.7482 325.284 Z" fill="#000000" fill-rule="evenodd" fill-opacity="1" /><path clip-path="url(#clip780)" d="M72.831 286.63 L63.6599 286.63 Q62.8787 286.63 62.6069 286.596 Q62.3352 286.562 62.1314 286.358 Q61.9276 286.154 61.9276 285.747 Q61.9276 285.271 62.1314 285.101 Q62.3352 284.897 63.1164 284.762 Q67.9058 283.709 70.4533 281.467 Q72.9669 279.191 72.9669 275.081 Q72.9669 271.175 71.2346 269.205 Q69.5023 267.235 66.649 267.235 Q61.554 267.235 60.2632 274.47 Q59.414 278.648 58.8706 280.38 Q58.2931 282.112 57.0363 283.641 Q54.5907 286.63 51.1261 286.63 Q47.6614 286.63 45.1139 284.014 Q42.5663 281.365 42.5663 275.523 Q42.5663 271.616 44.5364 268.967 Q43.925 268.186 43.4155 267.778 Q42.5663 266.861 42.5663 266.385 Q42.5663 265.842 42.94 265.74 Q43.2797 265.638 44.2647 265.638 L51.2619 265.638 Q52.0432 265.638 52.3149 265.672 Q52.5866 265.706 52.7904 265.91 Q52.9603 266.114 52.9603 266.555 Q52.9603 267.336 52.3149 267.37 Q43.8911 267.914 43.8911 275.523 Q43.8911 279.633 45.4875 281.467 Q47.05 283.301 49.1899 283.301 Q50.3788 283.301 51.2959 282.758 Q52.179 282.18 52.7225 281.467 Q53.232 280.72 53.7415 279.361 Q54.2171 278.002 54.3869 277.187 Q54.5567 276.338 54.8964 274.741 Q55.9494 269.171 58.2252 266.827 Q61.1464 263.906 64.8488 263.906 Q68.9588 263.906 71.7441 266.691 Q74.5294 269.476 74.5294 275.081 Q74.5294 279.599 71.5063 282.758 Q71.9139 283.165 72.2876 283.471 Q72.6272 283.777 72.7631 283.912 Q72.899 284.014 73.0009 284.048 Q73.0688 284.082 73.1367 284.15 Q74.5294 285.543 74.5294 285.883 Q74.5294 286.426 74.1558 286.528 Q73.8161 286.63 72.831 286.63 Z" fill="#000000" fill-rule="evenodd" fill-opacity="1" /><path clip-path="url(#clip780)" d="M67.1246 258.641 Q61.2143 258.641 58.0893 251.678 Q56.0853 247.5 55.5757 238.872 L53.0282 238.872 Q48.7144 238.872 46.4386 241.148 Q44.1288 243.39 44.1288 246.243 Q44.1288 251.338 47.3217 253.784 Q47.3897 251.712 48.4427 250.964 Q49.4617 250.217 50.5146 250.217 Q51.9073 250.217 52.8244 251.1 Q53.7076 251.949 53.7076 253.41 Q53.7076 254.803 52.8584 255.72 Q51.9752 256.637 50.4467 256.637 Q47.05 256.637 44.8082 253.58 Q42.5663 250.489 42.5663 246.107 Q42.5663 240.401 46.4046 236.596 Q47.5935 235.407 49.122 234.83 Q50.6505 234.219 51.6695 234.151 Q52.6546 234.083 54.6247 234.083 L68.5172 234.083 Q68.9248 234.083 69.6042 233.947 Q70.2835 233.811 71.1667 233.2 Q72.0158 232.554 72.0158 231.501 Q72.0158 228.988 67.5661 229.022 L63.6599 229.022 L63.6599 227.255 L67.5661 227.255 Q71.2686 227.255 72.7291 229.225 Q74.1558 231.161 74.1558 232.962 Q74.1558 235.272 72.4574 236.732 Q70.7591 238.193 68.4493 238.396 Q71.0987 239.449 72.831 241.861 Q74.5294 244.239 74.5294 247.5 Q74.5294 250.013 73.884 252.391 Q73.2726 254.735 71.5403 256.705 Q69.774 258.641 67.1246 258.641 M67.0566 253.274 Q69.6381 253.274 71.3025 251.44 Q72.9669 249.606 72.9669 247.024 Q72.9669 244.103 70.7251 241.487 Q68.4493 238.872 63.9996 238.872 L57.0363 238.872 Q57.3081 246.583 60.3991 249.945 Q63.4561 253.274 67.0566 253.274 Z" fill="#000000" fill-rule="evenodd" fill-opacity="1" /><path clip-path="url(#clip780)" d="M45.9291 224.47 L43.7552 224.47 L43.7552 219.001 L35.7729 219.001 Q30.6099 219.001 27.6548 215.672 Q24.6996 212.31 24.6996 208.2 Q24.6996 205.482 26.1602 203.716 Q27.6208 201.95 29.5909 201.95 Q30.9156 201.95 31.7988 202.765 Q32.6479 203.546 32.6479 205.007 Q32.6479 206.399 31.7648 207.215 Q30.8817 207.996 29.6588 207.996 Q27.417 207.996 26.7377 205.924 Q26.2621 206.977 26.2282 208.2 Q26.2282 210.713 28.8097 212.683 Q31.3912 214.619 35.705 214.619 L43.7552 214.619 L43.7552 206.467 L45.9291 206.467 L45.9291 214.382 L68.3134 214.382 Q70.3175 214.382 70.9629 213.567 Q71.6082 212.717 71.6082 209.117 L71.6082 207.656 L73.7482 207.656 Q73.5444 210.442 73.5444 216.488 Q73.5444 217.337 73.5783 218.662 Q73.6123 219.952 73.6802 221.719 Q73.7482 223.451 73.7482 224.402 L71.6082 224.402 Q71.6082 220.7 71.1667 219.85 Q70.6911 219.001 68.4493 219.001 L45.9291 219.001 L45.9291 224.47 Z" fill="#000000" fill-rule="evenodd" fill-opacity="1" /><path clip-path="url(#clip780)" d="M58.429 203.648 Q51.8733 203.648 47.2198 199.436 Q42.5663 195.224 42.5663 189.178 Q42.5663 183.064 46.5405 179.905 Q50.5146 176.712 56.2211 176.712 Q57.2741 176.712 57.4779 176.984 Q57.6817 177.256 57.6817 178.445 L57.6817 197.874 Q64.7808 197.874 68.1096 195.768 Q72.7631 192.847 72.7631 187.921 Q72.7631 187.242 72.6272 186.427 Q72.4914 185.612 71.9139 183.947 Q71.3025 182.283 69.7061 180.822 Q68.1096 179.362 65.596 178.512 Q64.611 178.309 64.645 177.629 Q64.645 176.712 65.4602 176.712 Q66.0716 176.712 67.4642 177.392 Q68.8229 178.037 70.4533 179.294 Q72.0838 180.55 73.3066 182.996 Q74.5294 185.408 74.5294 188.329 Q74.5294 194.443 69.9099 199.063 Q65.2564 203.648 58.429 203.648 M56.2211 197.806 L56.2211 181.298 Q54.7605 181.298 53.1301 181.569 Q51.4997 181.807 49.2579 182.555 Q46.9821 183.268 45.5554 184.966 Q44.1288 186.665 44.1288 189.178 Q44.1288 190.299 44.6044 191.522 Q45.0799 192.711 46.2348 194.171 Q47.3897 195.632 50.0051 196.651 Q52.6206 197.67 56.2211 197.806 Z" fill="#000000" fill-rule="evenodd" fill-opacity="1" /><path clip-path="url(#clip780)" d="M73.7482 149.64 L71.6082 149.64 Q71.6082 145.938 71.1667 145.089 Q70.6911 144.206 68.4493 144.206 L49.8013 144.206 Q47.2198 144.206 46.5745 145.123 Q45.9291 146.006 45.9291 149.64 L43.7552 149.64 L43.0079 139.96 L50.6505 139.96 Q47.6614 138.975 45.3516 136.903 Q43.0079 134.797 43.0079 131.4 Q43.0079 129.158 44.2647 127.732 Q45.5215 126.271 47.2538 126.271 Q48.7823 126.271 49.5636 127.222 Q50.3108 128.139 50.3108 129.26 Q50.3108 130.517 49.5296 131.4 Q48.7144 132.249 47.3217 132.249 Q46.4726 132.249 45.8272 131.876 Q45.1478 131.468 44.9101 131.162 Q44.6723 130.857 44.6044 130.653 Q44.5364 130.789 44.5364 131.4 Q44.5364 135.238 48.3747 137.446 Q52.179 139.62 57.6138 139.62 L68.3134 139.62 Q70.3175 139.62 70.9629 138.805 Q71.6082 137.956 71.6082 134.321 L71.6082 132.861 L73.7482 132.861 Q73.5444 135.646 73.5444 141.692 Q73.5444 142.541 73.5783 143.866 Q73.6123 145.191 73.6802 146.923 Q73.7482 148.655 73.7482 149.64 Z" fill="#000000" fill-rule="evenodd" fill-opacity="1" /><path clip-path="url(#clip780)" d="M45.9291 122.161 L43.7552 122.161 L43.0079 111.937 L66.1056 111.937 Q67.7699 111.937 68.755 111.801 Q69.7061 111.665 70.827 111.122 Q71.9479 110.544 72.4574 109.253 Q72.9669 107.929 72.9669 105.823 Q72.9669 102.052 69.8759 99.7427 Q66.7849 97.399 62.1993 97.399 L49.8013 97.399 Q47.2198 97.399 46.5745 98.3161 Q45.9291 99.2332 45.9291 102.834 L43.7552 102.834 L43.0079 92.6096 L67.702 92.6096 Q70.2835 92.6096 70.9629 91.7265 Q71.6082 90.8093 71.6082 87.1749 L73.7482 87.1749 L74.5294 97.1952 L68.2455 97.1952 Q74.4954 100.116 74.5294 106.162 Q74.5294 109.22 73.7482 111.325 Q72.9669 113.397 72.0158 114.45 Q71.0308 115.503 69.1626 116.081 Q67.2944 116.624 66.1395 116.692 Q64.9846 116.76 62.7428 116.76 L52.3149 116.76 Q47.5935 116.76 46.7783 117.44 Q45.9291 118.119 45.9291 122.161 Z" fill="#000000" fill-rule="evenodd" fill-opacity="1" /><path clip-path="url(#clip780)" d="M73.7482 83.5743 L71.6082 83.5743 Q71.6082 79.8719 71.1667 79.0228 Q70.6911 78.1736 68.4493 78.1736 L49.8013 78.1736 Q47.2198 78.1736 46.5745 79.0907 Q45.9291 79.9738 45.9291 83.5743 L43.7552 83.5743 L43.0079 73.7918 L50.3108 73.7918 Q43.0079 70.531 43.0079 63.4998 Q43.0079 58.2688 45.5894 56.1968 Q47.3217 54.6683 49.2579 54.3626 Q51.194 54.023 56.2211 54.023 L69.5023 54.023 Q70.9629 53.955 71.3025 52.8341 Q71.6082 51.7132 71.6082 48.5882 L73.7482 48.5882 Q73.5444 55.6873 73.5444 56.4007 Q73.5444 56.9441 73.7482 64.2471 L71.6082 64.2471 Q71.6082 60.5446 71.1667 59.6955 Q70.6911 58.8123 68.4493 58.8123 L52.247 58.8123 Q48.7144 58.8123 46.6424 59.8993 Q44.5364 60.9862 44.5364 63.9753 Q44.5364 67.5758 47.5595 70.463 Q50.5826 73.3502 55.6776 73.3502 L68.4493 73.3502 Q70.6911 73.3502 71.1667 72.5011 Q71.6082 71.6179 71.6082 67.9495 L73.7482 67.9495 Q73.5444 75.0486 73.5444 75.7279 Q73.5444 76.2714 73.7482 83.5743 Z" fill="#000000" fill-rule="evenodd" fill-opacity="1" /><path clip-path="url(#clip780)" d="M72.831 44.9198 L63.6599 44.9198 Q62.8787 44.9198 62.6069 44.8858 Q62.3352 44.8518 62.1314 44.648 Q61.9276 44.4442 61.9276 44.0366 Q61.9276 43.5611 62.1314 43.3912 Q62.3352 43.1874 63.1164 43.0516 Q67.9058 41.9986 70.4533 39.7568 Q72.9669 37.481 72.9669 33.3709 Q72.9669 29.4647 71.2346 27.4946 Q69.5023 25.5245 66.649 25.5245 Q61.554 25.5245 60.2632 32.7595 Q59.414 36.9375 58.8706 38.6698 Q58.2931 40.4021 57.0363 41.9307 Q54.5907 44.9198 51.1261 44.9198 Q47.6614 44.9198 45.1139 42.3043 Q42.5663 39.6549 42.5663 33.8125 Q42.5663 29.9063 44.5364 27.2569 Q43.925 26.4756 43.4155 26.068 Q42.5663 25.1509 42.5663 24.6754 Q42.5663 24.1319 42.94 24.03 Q43.2797 23.9281 44.2647 23.9281 L51.2619 23.9281 Q52.0432 23.9281 52.3149 23.9621 Q52.5866 23.996 52.7904 24.1998 Q52.9603 24.4036 52.9603 24.8452 Q52.9603 25.6264 52.3149 25.6604 Q43.8911 26.2039 43.8911 33.8125 Q43.8911 37.9225 45.4875 39.7568 Q47.05 41.591 49.1899 41.591 Q50.3788 41.591 51.2959 41.0475 Q52.179 40.4701 52.7225 39.7568 Q53.232 39.0095 53.7415 37.6508 Q54.2171 36.2921 54.3869 35.4769 Q54.5567 34.6277 54.8964 33.0313 Q55.9494 27.4607 58.2252 25.1169 Q61.1464 22.1958 64.8488 22.1958 Q68.9588 22.1958 71.7441 24.9811 Q74.5294 27.7664 74.5294 33.3709 Q74.5294 37.8886 71.5063 41.0475 Q71.9139 41.4551 72.2876 41.7608 Q72.6272 42.0665 72.7631 42.2024 Q72.899 42.3043 73.0009 42.3383 Q73.0688 42.3722 73.1367 42.4402 Q74.5294 43.8328 74.5294 44.1725 Q74.5294 44.716 74.1558 44.8179 Q73.8161 44.9198 72.831 44.9198 Z" fill="#000000" fill-rule="evenodd" fill-opacity="1" /><path clip-path="url(#clip782)" d="
M243.498 64.8575 L243.498 407.705 L284.561 407.705 L284.561 64.8575 L243.498 64.8575 L243.498 64.8575  Z
  " fill="#3498db" fill-rule="evenodd" fill-opacity="1"/>
<polyline clip-path="url(#clip782)" style="stroke:#3498db; stroke-linecap:round; stroke-linejoin:round; stroke-width:4; stroke-opacity:1; fill:none" points="
  243.498,64.8575 243.498,407.705 284.561,407.705 284.561,64.8575 243.498,64.8575 
  "/>
<path clip-path="url(#clip782)" d="
M397.486 57.743 L397.486 407.705 L438.549 407.705 L438.549 57.743 L397.486 57.743 L397.486 57.743  Z
  " fill="#3498db" fill-rule="evenodd" fill-opacity="1"/>
<polyline clip-path="url(#clip782)" style="stroke:#3498db; stroke-linecap:round; stroke-linejoin:round; stroke-width:4; stroke-opacity:1; fill:none" points="
  397.486,57.743 397.486,407.705 438.549,407.705 438.549,57.743 397.486,57.743 
  "/>
<path clip-path="url(#clip782)" d="
M551.474 58.4544 L551.474 407.705 L592.537 407.705 L592.537 58.4544 L551.474 58.4544 L551.474 58.4544  Z
  " fill="#3498db" fill-rule="evenodd" fill-opacity="1"/>
<polyline clip-path="url(#clip782)" style="stroke:#3498db; stroke-linecap:round; stroke-linejoin:round; stroke-width:4; stroke-opacity:1; fill:none" points="
  551.474,58.4544 551.474,407.705 592.537,407.705 592.537,58.4544 551.474,58.4544 
  "/>
<path clip-path="url(#clip782)" d="
M705.461 59.6639 L705.461 407.705 L746.525 407.705 L746.525 59.6639 L705.461 59.6639 L705.461 59.6639  Z
  " fill="#3498db" fill-rule="evenodd" fill-opacity="1"/>
<polyline clip-path="url(#clip782)" style="stroke:#3498db; stroke-linecap:round; stroke-linejoin:round; stroke-width:4; stroke-opacity:1; fill:none" points="
  705.461,59.6639 705.461,407.705 746.525,407.705 746.525,59.6639 705.461,59.6639 
  "/>
<circle clip-path="url(#clip782)" style="fill:#3498db; stroke:none; fill-opacity:0" cx="264.03" cy="64.8575" r="2"/>
<circle clip-path="url(#clip782)" style="fill:#3498db; stroke:none; fill-opacity:0" cx="418.018" cy="57.743" r="2"/>
<circle clip-path="url(#clip782)" style="fill:#3498db; stroke:none; fill-opacity:0" cx="572.005" cy="58.4544" r="2"/>
<circle clip-path="url(#clip782)" style="fill:#3498db; stroke:none; fill-opacity:0" cx="725.993" cy="59.6639" r="2"/>
<path clip-path="url(#clip782)" d="
M284.561 247.985 L284.561 407.705 L325.625 407.705 L325.625 247.985 L284.561 247.985 L284.561 247.985  Z
  " fill="#2ecc71" fill-rule="evenodd" fill-opacity="1"/>
<polyline clip-path="url(#clip782)" style="stroke:#2ecc71; stroke-linecap:round; stroke-linejoin:round; stroke-width:4; stroke-opacity:1; fill:none" points="
  284.561,247.985 284.561,407.705 325.625,407.705 325.625,247.985 284.561,247.985 
  "/>
<path clip-path="url(#clip782)" d="
M438.549 216.574 L438.549 407.705 L479.613 407.705 L479.613 216.574 L438.549 216.574 L438.549 216.574  Z
  " fill="#2ecc71" fill-rule="evenodd" fill-opacity="1"/>
<polyline clip-path="url(#clip782)" style="stroke:#2ecc71; stroke-linecap:round; stroke-linejoin:round; stroke-width:4; stroke-opacity:1; fill:none" points="
  438.549,216.574 438.549,407.705 479.613,407.705 479.613,216.574 438.549,216.574 
  "/>
<path clip-path="url(#clip782)" d="
M592.537 225.147 L592.537 407.705 L633.6 407.705 L633.6 225.147 L592.537 225.147 L592.537 225.147  Z
  " fill="#2ecc71" fill-rule="evenodd" fill-opacity="1"/>
<polyline clip-path="url(#clip782)" style="stroke:#2ecc71; stroke-linecap:round; stroke-linejoin:round; stroke-width:4; stroke-opacity:1; fill:none" points="
  592.537,225.147 592.537,407.705 633.6,407.705 633.6,225.147 592.537,225.147 
  "/>
<path clip-path="url(#clip782)" d="
M746.525 221.27 L746.525 407.705 L787.588 407.705 L787.588 221.27 L746.525 221.27 L746.525 221.27  Z
  " fill="#2ecc71" fill-rule="evenodd" fill-opacity="1"/>
<polyline clip-path="url(#clip782)" style="stroke:#2ecc71; stroke-linecap:round; stroke-linejoin:round; stroke-width:4; stroke-opacity:1; fill:none" points="
  746.525,221.27 746.525,407.705 787.588,407.705 787.588,221.27 746.525,221.27 
  "/>
<circle clip-path="url(#clip782)" style="fill:#2ecc71; stroke:none; fill-opacity:0" cx="305.093" cy="247.985" r="2"/>
<circle clip-path="url(#clip782)" style="fill:#2ecc71; stroke:none; fill-opacity:0" cx="459.081" cy="216.574" r="2"/>
<circle clip-path="url(#clip782)" style="fill:#2ecc71; stroke:none; fill-opacity:0" cx="613.069" cy="225.147" r="2"/>
<circle clip-path="url(#clip782)" style="fill:#2ecc71; stroke:none; fill-opacity:0" cx="767.057" cy="221.27" r="2"/>
<path clip-path="url(#clip782)" d="
M325.625 295.687 L325.625 407.705 L366.688 407.705 L366.688 295.687 L325.625 295.687 L325.625 295.687  Z
  " fill="#9b59b6" fill-rule="evenodd" fill-opacity="1"/>
<polyline clip-path="url(#clip782)" style="stroke:#9b59b6; stroke-linecap:round; stroke-linejoin:round; stroke-width:4; stroke-opacity:1; fill:none" points="
  325.625,295.687 325.625,407.705 366.688,407.705 366.688,295.687 325.625,295.687 
  "/>
<path clip-path="url(#clip782)" d="
M479.613 239.981 L479.613 407.705 L520.676 407.705 L520.676 239.981 L479.613 239.981 L479.613 239.981  Z
  " fill="#9b59b6" fill-rule="evenodd" fill-opacity="1"/>
<polyline clip-path="url(#clip782)" style="stroke:#9b59b6; stroke-linecap:round; stroke-linejoin:round; stroke-width:4; stroke-opacity:1; fill:none" points="
  479.613,239.981 479.613,407.705 520.676,407.705 520.676,239.981 479.613,239.981 
  "/>
<path clip-path="url(#clip782)" d="
M633.6 246.633 L633.6 407.705 L674.664 407.705 L674.664 246.633 L633.6 246.633 L633.6 246.633  Z
  " fill="#9b59b6" fill-rule="evenodd" fill-opacity="1"/>
<polyline clip-path="url(#clip782)" style="stroke:#9b59b6; stroke-linecap:round; stroke-linejoin:round; stroke-width:4; stroke-opacity:1; fill:none" points="
  633.6,246.633 633.6,407.705 674.664,407.705 674.664,246.633 633.6,246.633 
  "/>
<path clip-path="url(#clip782)" d="
M787.588 236.068 L787.588 407.705 L828.652 407.705 L828.652 236.068 L787.588 236.068 L787.588 236.068  Z
  " fill="#9b59b6" fill-rule="evenodd" fill-opacity="1"/>
<polyline clip-path="url(#clip782)" style="stroke:#9b59b6; stroke-linecap:round; stroke-linejoin:round; stroke-width:4; stroke-opacity:1; fill:none" points="
  787.588,236.068 787.588,407.705 828.652,407.705 828.652,236.068 787.588,236.068 
  "/>
<circle clip-path="url(#clip782)" style="fill:#9b59b6; stroke:none; fill-opacity:0" cx="346.157" cy="295.687" r="2"/>
<circle clip-path="url(#clip782)" style="fill:#9b59b6; stroke:none; fill-opacity:0" cx="500.144" cy="239.981" r="2"/>
<circle clip-path="url(#clip782)" style="fill:#9b59b6; stroke:none; fill-opacity:0" cx="654.132" cy="246.633" r="2"/>
<circle clip-path="url(#clip782)" style="fill:#9b59b6; stroke:none; fill-opacity:0" cx="808.12" cy="236.068" r="2"/>
<path clip-path="url(#clip780)" d="
M893.63 322.849 L1152.76 322.849 L1152.76 115.489 L893.63 115.489  Z
  " fill="#ffffff" fill-rule="evenodd" fill-opacity="1"/>
<polyline clip-path="url(#clip780)" style="stroke:#000000; stroke-linecap:round; stroke-linejoin:round; stroke-width:4; stroke-opacity:1; fill:none" points="
  893.63,322.849 1152.76,322.849 1152.76,115.489 893.63,115.489 893.63,322.849 
  "/>
<path clip-path="url(#clip780)" d="
M904.105 188.065 L966.959 188.065 L966.959 146.593 L904.105 146.593 L904.105 188.065  Z
  " fill="#3498db" fill-rule="evenodd" fill-opacity="1"/>
<polyline clip-path="url(#clip780)" style="stroke:#3498db; stroke-linecap:round; stroke-linejoin:round; stroke-width:4; stroke-opacity:1; fill:none" points="
  904.105,188.065 966.959,188.065 966.959,146.593 904.105,146.593 904.105,188.065 
  "/>
<path clip-path="url(#clip780)" d="M977.435 173.74 Q977.435 168.923 980.794 165.588 Q984.154 162.253 988.699 162.253 Q992.553 162.253 995.073 165.39 L995.073 154.446 Q995.073 152.569 994.406 152.1 Q993.764 151.63 991.145 151.63 L991.145 150.049 L998.433 149.506 L998.433 180.212 Q998.433 182.09 999.075 182.584 Q999.742 183.053 1002.36 183.053 L1002.36 184.609 L994.925 185.177 L994.925 181.818 Q992.306 185.153 988.156 185.177 Q983.808 185.177 980.621 181.843 Q977.435 178.508 977.435 173.74 M981.634 173.789 Q981.634 178.483 983.092 180.805 Q985.117 184.041 988.403 184.041 Q992.158 184.041 994.381 180.509 Q994.949 179.644 994.925 178.631 L994.925 168.256 Q994.925 167.243 994.381 166.403 Q992.306 163.364 988.922 163.364 Q985.389 163.364 983.191 166.601 Q981.634 169.021 981.634 173.789 Z" fill="#000000" fill-rule="evenodd" fill-opacity="1" /><path clip-path="url(#clip780)" d="M1006.66 176.927 Q1006.71 176.309 1007.67 176.309 L1038.67 176.309 Q1040.13 176.309 1040.16 176.877 Q1040.16 177.495 1038.77 177.47 L1008.02 177.47 Q1006.66 177.495 1006.66 176.927 M1006.66 167.045 Q1006.66 166.428 1007.72 166.452 L1038.62 166.452 Q1040.13 166.452 1040.16 167.045 Q1040.16 167.613 1038.87 167.613 L1007.67 167.613 Q1006.66 167.613 1006.66 167.045 Z" fill="#000000" fill-rule="evenodd" fill-opacity="1" /><path clip-path="url(#clip780)" d="M1047.62 155.731 L1047.62 154.15 Q1053.69 154.15 1056.83 150.914 Q1057.7 150.914 1057.84 151.112 Q1057.99 151.309 1057.99 152.223 L1057.99 180.607 Q1057.99 182.114 1058.73 182.584 Q1059.47 183.053 1062.71 183.053 L1064.32 183.053 L1064.32 184.609 Q1062.54 184.461 1056.11 184.461 Q1049.69 184.461 1047.94 184.609 L1047.94 183.053 L1049.54 183.053 Q1052.73 183.053 1053.5 182.608 Q1054.26 182.139 1054.26 180.607 L1054.26 154.397 Q1051.62 155.731 1047.62 155.731 Z" fill="#000000" fill-rule="evenodd" fill-opacity="1" /><path clip-path="url(#clip780)" d="M1070.39 168.429 Q1070.39 160.993 1072.27 156.942 Q1074.89 150.914 1081.07 150.914 Q1082.37 150.914 1083.73 151.284 Q1085.12 151.63 1086.85 152.989 Q1088.6 154.348 1089.66 156.571 Q1091.69 160.869 1091.69 168.429 Q1091.69 175.815 1089.81 179.842 Q1087.07 185.721 1081.02 185.721 Q1078.74 185.721 1076.42 184.56 Q1074.12 183.399 1072.67 180.607 Q1070.39 176.432 1070.39 168.429 M1074.59 167.811 Q1074.59 175.444 1075.14 178.483 Q1075.75 181.768 1077.43 183.201 Q1079.14 184.609 1081.02 184.609 Q1083.04 184.609 1084.72 183.102 Q1086.43 181.571 1086.94 178.285 Q1087.51 175.049 1087.49 167.811 Q1087.49 160.771 1086.99 157.954 Q1086.33 154.669 1084.55 153.36 Q1082.79 152.026 1081.02 152.026 Q1080.35 152.026 1079.63 152.223 Q1078.94 152.421 1077.93 152.989 Q1076.92 153.557 1076.12 154.965 Q1075.36 156.373 1074.99 158.498 Q1074.59 161.24 1074.59 167.811 Z" fill="#000000" fill-rule="evenodd" fill-opacity="1" /><path clip-path="url(#clip780)" d="
M904.105 239.905 L966.959 239.905 L966.959 198.433 L904.105 198.433 L904.105 239.905  Z
  " fill="#2ecc71" fill-rule="evenodd" fill-opacity="1"/>
<polyline clip-path="url(#clip780)" style="stroke:#2ecc71; stroke-linecap:round; stroke-linejoin:round; stroke-width:4; stroke-opacity:1; fill:none" points="
  904.105,239.905 966.959,239.905 966.959,198.433 904.105,198.433 904.105,239.905 
  "/>
<path clip-path="url(#clip780)" d="M977.435 225.58 Q977.435 220.763 980.794 217.428 Q984.154 214.093 988.699 214.093 Q992.553 214.093 995.073 217.23 L995.073 206.286 Q995.073 204.409 994.406 203.94 Q993.764 203.47 991.145 203.47 L991.145 201.889 L998.433 201.346 L998.433 232.052 Q998.433 233.93 999.075 234.424 Q999.742 234.893 1002.36 234.893 L1002.36 236.449 L994.925 237.017 L994.925 233.658 Q992.306 236.993 988.156 237.017 Q983.808 237.017 980.621 233.683 Q977.435 230.348 977.435 225.58 M981.634 225.629 Q981.634 230.323 983.092 232.645 Q985.117 235.881 988.403 235.881 Q992.158 235.881 994.381 232.349 Q994.949 231.484 994.925 230.471 L994.925 220.096 Q994.925 219.083 994.381 218.243 Q992.306 215.204 988.922 215.204 Q985.389 215.204 983.191 218.441 Q981.634 220.861 981.634 225.629 Z" fill="#000000" fill-rule="evenodd" fill-opacity="1" /><path clip-path="url(#clip780)" d="M1006.66 228.767 Q1006.71 228.149 1007.67 228.149 L1038.67 228.149 Q1040.13 228.149 1040.16 228.717 Q1040.16 229.335 1038.77 229.31 L1008.02 229.31 Q1006.66 229.335 1006.66 228.767 M1006.66 218.885 Q1006.66 218.268 1007.72 218.292 L1038.62 218.292 Q1040.13 218.292 1040.16 218.885 Q1040.16 219.453 1038.87 219.453 L1007.67 219.453 Q1006.66 219.453 1006.66 218.885 Z" fill="#000000" fill-rule="evenodd" fill-opacity="1" /><path clip-path="url(#clip780)" d="M1047.62 207.571 L1047.62 205.99 Q1053.69 205.99 1056.83 202.754 Q1057.7 202.754 1057.84 202.952 Q1057.99 203.149 1057.99 204.063 L1057.99 232.447 Q1057.99 233.954 1058.73 234.424 Q1059.47 234.893 1062.71 234.893 L1064.32 234.893 L1064.32 236.449 Q1062.54 236.301 1056.11 236.301 Q1049.69 236.301 1047.94 236.449 L1047.94 234.893 L1049.54 234.893 Q1052.73 234.893 1053.5 234.448 Q1054.26 233.979 1054.26 232.447 L1054.26 206.237 Q1051.62 207.571 1047.62 207.571 Z" fill="#000000" fill-rule="evenodd" fill-opacity="1" /><path clip-path="url(#clip780)" d="M1070.39 220.269 Q1070.39 212.833 1072.27 208.782 Q1074.89 202.754 1081.07 202.754 Q1082.37 202.754 1083.73 203.124 Q1085.12 203.47 1086.85 204.829 Q1088.6 206.188 1089.66 208.411 Q1091.69 212.709 1091.69 220.269 Q1091.69 227.655 1089.81 231.682 Q1087.07 237.561 1081.02 237.561 Q1078.74 237.561 1076.42 236.4 Q1074.12 235.239 1072.67 232.447 Q1070.39 228.272 1070.39 220.269 M1074.59 219.651 Q1074.59 227.284 1075.14 230.323 Q1075.75 233.608 1077.43 235.041 Q1079.14 236.449 1081.02 236.449 Q1083.04 236.449 1084.72 234.942 Q1086.43 233.411 1086.94 230.125 Q1087.51 226.889 1087.49 219.651 Q1087.49 212.611 1086.99 209.794 Q1086.33 206.509 1084.55 205.2 Q1082.79 203.866 1081.02 203.866 Q1080.35 203.866 1079.63 204.063 Q1078.94 204.261 1077.93 204.829 Q1076.92 205.397 1076.12 206.805 Q1075.36 208.213 1074.99 210.338 Q1074.59 213.08 1074.59 219.651 Z" fill="#000000" fill-rule="evenodd" fill-opacity="1" /><path clip-path="url(#clip780)" d="M1095.69 220.269 Q1095.69 212.833 1097.57 208.782 Q1100.19 202.754 1106.36 202.754 Q1107.67 202.754 1109.03 203.124 Q1110.41 203.47 1112.14 204.829 Q1113.9 206.188 1114.96 208.411 Q1116.98 212.709 1116.98 220.269 Q1116.98 227.655 1115.11 231.682 Q1112.36 237.561 1106.31 237.561 Q1104.04 237.561 1101.72 236.4 Q1099.42 235.239 1097.96 232.447 Q1095.69 228.272 1095.69 220.269 M1099.89 219.651 Q1099.89 227.284 1100.43 230.323 Q1101.05 233.608 1102.73 235.041 Q1104.43 236.449 1106.31 236.449 Q1108.34 236.449 1110.02 234.942 Q1111.72 233.411 1112.24 230.125 Q1112.81 226.889 1112.78 219.651 Q1112.78 212.611 1112.29 209.794 Q1111.62 206.509 1109.84 205.2 Q1108.09 203.866 1106.31 203.866 Q1105.65 203.866 1104.93 204.063 Q1104.24 204.261 1103.22 204.829 Q1102.21 205.397 1101.42 206.805 Q1100.66 208.213 1100.28 210.338 Q1099.89 213.08 1099.89 219.651 Z" fill="#000000" fill-rule="evenodd" fill-opacity="1" /><path clip-path="url(#clip780)" d="
M904.105 291.745 L966.959 291.745 L966.959 250.273 L904.105 250.273 L904.105 291.745  Z
  " fill="#9b59b6" fill-rule="evenodd" fill-opacity="1"/>
<polyline clip-path="url(#clip780)" style="stroke:#9b59b6; stroke-linecap:round; stroke-linejoin:round; stroke-width:4; stroke-opacity:1; fill:none" points="
  904.105,291.745 966.959,291.745 966.959,250.273 904.105,250.273 904.105,291.745 
  "/>
<path clip-path="url(#clip780)" d="M977.435 277.42 Q977.435 272.603 980.794 269.268 Q984.154 265.933 988.699 265.933 Q992.553 265.933 995.073 269.07 L995.073 258.126 Q995.073 256.249 994.406 255.78 Q993.764 255.31 991.145 255.31 L991.145 253.729 L998.433 253.186 L998.433 283.892 Q998.433 285.77 999.075 286.264 Q999.742 286.733 1002.36 286.733 L1002.36 288.289 L994.925 288.857 L994.925 285.498 Q992.306 288.833 988.156 288.857 Q983.808 288.857 980.621 285.523 Q977.435 282.188 977.435 277.42 M981.634 277.469 Q981.634 282.163 983.092 284.485 Q985.117 287.721 988.403 287.721 Q992.158 287.721 994.381 284.189 Q994.949 283.324 994.925 282.311 L994.925 271.936 Q994.925 270.923 994.381 270.083 Q992.306 267.044 988.922 267.044 Q985.389 267.044 983.191 270.281 Q981.634 272.701 981.634 277.469 Z" fill="#000000" fill-rule="evenodd" fill-opacity="1" /><path clip-path="url(#clip780)" d="M1006.66 280.607 Q1006.71 279.989 1007.67 279.989 L1038.67 279.989 Q1040.13 279.989 1040.16 280.557 Q1040.16 281.175 1038.77 281.15 L1008.02 281.15 Q1006.66 281.175 1006.66 280.607 M1006.66 270.725 Q1006.66 270.108 1007.72 270.132 L1038.62 270.132 Q1040.13 270.132 1040.16 270.725 Q1040.16 271.293 1038.87 271.293 L1007.67 271.293 Q1006.66 271.293 1006.66 270.725 Z" fill="#000000" fill-rule="evenodd" fill-opacity="1" /><path clip-path="url(#clip780)" d="M1047.62 259.411 L1047.62 257.83 Q1053.69 257.83 1056.83 254.594 Q1057.7 254.594 1057.84 254.792 Q1057.99 254.989 1057.99 255.903 L1057.99 284.287 Q1057.99 285.794 1058.73 286.264 Q1059.47 286.733 1062.71 286.733 L1064.32 286.733 L1064.32 288.289 Q1062.54 288.141 1056.11 288.141 Q1049.69 288.141 1047.94 288.289 L1047.94 286.733 L1049.54 286.733 Q1052.73 286.733 1053.5 286.288 Q1054.26 285.819 1054.26 284.287 L1054.26 258.077 Q1051.62 259.411 1047.62 259.411 Z" fill="#000000" fill-rule="evenodd" fill-opacity="1" /><path clip-path="url(#clip780)" d="M1070.39 272.109 Q1070.39 264.673 1072.27 260.622 Q1074.89 254.594 1081.07 254.594 Q1082.37 254.594 1083.73 254.964 Q1085.12 255.31 1086.85 256.669 Q1088.6 258.028 1089.66 260.251 Q1091.69 264.549 1091.69 272.109 Q1091.69 279.495 1089.81 283.522 Q1087.07 289.401 1081.02 289.401 Q1078.74 289.401 1076.42 288.24 Q1074.12 287.079 1072.67 284.287 Q1070.39 280.112 1070.39 272.109 M1074.59 271.491 Q1074.59 279.124 1075.14 282.163 Q1075.75 285.448 1077.43 286.881 Q1079.14 288.289 1081.02 288.289 Q1083.04 288.289 1084.72 286.782 Q1086.43 285.251 1086.94 281.965 Q1087.51 278.729 1087.49 271.491 Q1087.49 264.451 1086.99 261.634 Q1086.33 258.349 1084.55 257.04 Q1082.79 255.706 1081.02 255.706 Q1080.35 255.706 1079.63 255.903 Q1078.94 256.101 1077.93 256.669 Q1076.92 257.237 1076.12 258.645 Q1075.36 260.053 1074.99 262.178 Q1074.59 264.92 1074.59 271.491 Z" fill="#000000" fill-rule="evenodd" fill-opacity="1" /><path clip-path="url(#clip780)" d="M1095.69 272.109 Q1095.69 264.673 1097.57 260.622 Q1100.19 254.594 1106.36 254.594 Q1107.67 254.594 1109.03 254.964 Q1110.41 255.31 1112.14 256.669 Q1113.9 258.028 1114.96 260.251 Q1116.98 264.549 1116.98 272.109 Q1116.98 279.495 1115.11 283.522 Q1112.36 289.401 1106.31 289.401 Q1104.04 289.401 1101.72 288.24 Q1099.42 287.079 1097.96 284.287 Q1095.69 280.112 1095.69 272.109 M1099.89 271.491 Q1099.89 279.124 1100.43 282.163 Q1101.05 285.448 1102.73 286.881 Q1104.43 288.289 1106.31 288.289 Q1108.34 288.289 1110.02 286.782 Q1111.72 285.251 1112.24 281.965 Q1112.81 278.729 1112.78 271.491 Q1112.78 264.451 1112.29 261.634 Q1111.62 258.349 1109.84 257.04 Q1108.09 255.706 1106.31 255.706 Q1105.65 255.706 1104.93 255.903 Q1104.24 256.101 1103.22 256.669 Q1102.21 257.237 1101.42 258.645 Q1100.66 260.053 1100.28 262.178 Q1099.89 264.92 1099.89 271.491 Z" fill="#000000" fill-rule="evenodd" fill-opacity="1" /><path clip-path="url(#clip780)" d="M1120.99 272.109 Q1120.99 264.673 1122.86 260.622 Q1125.48 254.594 1131.66 254.594 Q1132.97 254.594 1134.33 254.964 Q1135.71 255.31 1137.44 256.669 Q1139.19 258.028 1140.25 260.251 Q1142.28 264.549 1142.28 272.109 Q1142.28 279.495 1140.4 283.522 Q1137.66 289.401 1131.61 289.401 Q1129.34 289.401 1127.01 288.24 Q1124.72 287.079 1123.26 284.287 Q1120.99 280.112 1120.99 272.109 M1125.19 271.491 Q1125.19 279.124 1125.73 282.163 Q1126.35 285.448 1128.03 286.881 Q1129.73 288.289 1131.61 288.289 Q1133.63 288.289 1135.31 286.782 Q1137.02 285.251 1137.54 281.965 Q1138.11 278.729 1138.08 271.491 Q1138.08 264.451 1137.59 261.634 Q1136.92 258.349 1135.14 257.04 Q1133.39 255.706 1131.61 255.706 Q1130.94 255.706 1130.23 255.903 Q1129.53 256.101 1128.52 256.669 Q1127.51 257.237 1126.72 258.645 Q1125.95 260.053 1125.58 262.178 Q1125.19 264.92 1125.19 271.491 Z" fill="#000000" fill-rule="evenodd" fill-opacity="1" /></svg>
