<?xml version="1.0" encoding="utf-8"?>
<svg xmlns="http://www.w3.org/2000/svg" xmlns:xlink="http://www.w3.org/1999/xlink" width="300" height="140" viewBox="0 0 1200 560">
<defs>
  <clipPath id="clip930">
    <rect x="0" y="0" width="1200" height="560"/>
  </clipPath>
</defs>
<path clip-path="url(#clip930)" d="
M0 560 L1200 560 L1200 0 L0 0  Z
  " fill="#ffffff" fill-rule="evenodd" fill-opacity="1"/>
<defs>
  <clipPath id="clip931">
    <rect x="240" y="0" width="841" height="560"/>
  </clipPath>
</defs>
<path clip-path="url(#clip930)" d="
M146.435 418.204 L853.734 418.204 L853.734 47.2441 L146.435 47.2441  Z
  " fill="#ffffff" fill-rule="evenodd" fill-opacity="1"/>
<defs>
  <clipPath id="clip932">
    <rect x="146" y="47" width="708" height="372"/>
  </clipPath>
</defs>
<polyline clip-path="url(#clip932)" style="stroke:#000000; stroke-linecap:round; stroke-linejoin:round; stroke-width:2; stroke-opacity:0.1; fill:none" points="
  249.61,418.204 249.61,47.2441 
  "/>
<polyline clip-path="url(#clip932)" style="stroke:#000000; stroke-linecap:round; stroke-linejoin:round; stroke-width:2; stroke-opacity:0.1; fill:none" points="
  416.593,418.204 416.593,47.2441 
  "/>
<polyline clip-path="url(#clip932)" style="stroke:#000000; stroke-linecap:round; stroke-linejoin:round; stroke-width:2; stroke-opacity:0.1; fill:none" points="
  583.576,418.204 583.576,47.2441 
  "/>
<polyline clip-path="url(#clip932)" style="stroke:#000000; stroke-linecap:round; stroke-linejoin:round; stroke-width:2; stroke-opacity:0.1; fill:none" points="
  750.559,418.204 750.559,47.2441 
  "/>
<polyline clip-path="url(#clip930)" style="stroke:#000000; stroke-linecap:round; stroke-linejoin:round; stroke-width:4; stroke-opacity:1; fill:none" points="
  146.435,418.204 853.734,418.204 
  "/>
<polyline clip-path="url(#clip930)" style="stroke:#000000; stroke-linecap:round; stroke-linejoin:round; stroke-width:4; stroke-opacity:1; fill:none" points="
  249.61,418.204 249.61,399.306 
  "/>
<polyline clip-path="url(#clip930)" style="stroke:#000000; stroke-linecap:round; stroke-linejoin:round; stroke-width:4; stroke-opacity:1; fill:none" points="
  416.593,418.204 416.593,399.306 
  "/>
<polyline clip-path="url(#clip930)" style="stroke:#000000; stroke-linecap:round; stroke-linejoin:round; stroke-width:4; stroke-opacity:1; fill:none" points="
  583.576,418.204 583.576,399.306 
  "/>
<polyline clip-path="url(#clip930)" style="stroke:#000000; stroke-linecap:round; stroke-linejoin:round; stroke-width:4; stroke-opacity:1; fill:none" points="
  750.559,418.204 750.559,399.306 
  "/>
<path clip-path="url(#clip930)" d="M212.938 442.126 L212.938 440.545 Q219.015 440.545 222.152 437.308 Q223.017 437.308 223.165 437.506 Q223.313 437.704 223.313 438.618 L223.313 467.002 Q223.313 468.509 224.055 468.978 Q224.796 469.448 228.032 469.448 L229.638 469.448 L229.638 471.004 Q227.859 470.856 221.436 470.856 Q215.013 470.856 213.259 471.004 L213.259 469.448 L214.865 469.448 Q218.052 469.448 218.817 469.003 Q219.583 468.534 219.583 467.002 L219.583 440.792 Q216.94 442.126 212.938 442.126 Z" fill="#000000" fill-rule="evenodd" fill-opacity="1" /><path clip-path="url(#clip930)" d="M236.258 462.852 Q236.258 461.345 237.073 460.777 Q237.888 460.184 238.753 460.184 Q239.914 460.184 240.581 460.925 Q241.273 461.641 241.273 462.654 Q241.273 463.667 240.581 464.408 Q239.914 465.124 238.753 465.124 Q238.185 465.124 237.888 465.026 Q238.555 467.348 240.581 469.028 Q242.631 470.707 245.324 470.707 Q248.709 470.707 250.734 467.422 Q251.945 465.297 251.945 460.48 Q251.945 456.231 251.031 454.107 Q249.623 450.871 246.732 450.871 Q242.631 450.871 240.211 454.403 Q239.914 454.848 239.568 454.873 Q239.074 454.873 238.951 454.601 Q238.852 454.304 238.852 453.539 L238.852 438.568 Q238.852 437.358 239.346 437.358 Q239.544 437.358 239.964 437.506 Q243.15 438.914 246.683 438.939 Q250.314 438.939 253.575 437.457 Q253.822 437.308 253.97 437.308 Q254.464 437.308 254.489 437.877 Q254.489 438.074 254.069 438.667 Q253.674 439.235 252.809 440.001 Q251.945 440.742 250.833 441.459 Q249.721 442.175 248.091 442.669 Q246.485 443.138 244.707 443.138 Q242.582 443.138 240.408 442.471 L240.408 452.328 Q243.027 449.759 246.831 449.759 Q250.882 449.759 253.674 453.02 Q256.465 456.281 256.465 460.826 Q256.465 465.594 253.155 468.855 Q249.87 472.115 245.423 472.115 Q241.372 472.115 238.802 469.225 Q236.258 466.335 236.258 462.852 Z" fill="#000000" fill-rule="evenodd" fill-opacity="1" /><path clip-path="url(#clip930)" d="M261.011 454.823 Q261.011 447.387 262.888 443.336 Q265.507 437.308 271.683 437.308 Q272.992 437.308 274.351 437.679 Q275.734 438.025 277.463 439.384 Q279.217 440.742 280.279 442.966 Q282.305 447.264 282.305 454.823 Q282.305 462.209 280.428 466.236 Q277.686 472.115 271.633 472.115 Q269.361 472.115 267.038 470.954 Q264.741 469.793 263.284 467.002 Q261.011 462.827 261.011 454.823 M265.21 454.206 Q265.21 461.839 265.754 464.877 Q266.371 468.163 268.051 469.596 Q269.756 471.004 271.633 471.004 Q273.659 471.004 275.339 469.497 Q277.043 467.965 277.562 464.68 Q278.13 461.444 278.106 454.206 Q278.106 447.165 277.611 444.349 Q276.944 441.063 275.166 439.754 Q273.412 438.42 271.633 438.42 Q270.966 438.42 270.25 438.618 Q269.558 438.815 268.545 439.384 Q267.532 439.952 266.742 441.36 Q265.976 442.768 265.606 444.892 Q265.21 447.634 265.21 454.206 Z" fill="#000000" fill-rule="evenodd" fill-opacity="1" /><path clip-path="url(#clip930)" d="M286.307 454.823 Q286.307 447.387 288.184 443.336 Q290.803 437.308 296.979 437.308 Q298.288 437.308 299.647 437.679 Q301.03 438.025 302.759 439.384 Q304.513 440.742 305.576 442.966 Q307.601 447.264 307.601 454.823 Q307.601 462.209 305.724 466.236 Q302.982 472.115 296.929 472.115 Q294.657 472.115 292.335 470.954 Q290.037 469.793 288.58 467.002 Q286.307 462.827 286.307 454.823 M290.507 454.206 Q290.507 461.839 291.05 464.877 Q291.668 468.163 293.347 469.596 Q295.052 471.004 296.929 471.004 Q298.955 471.004 300.635 469.497 Q302.34 467.965 302.858 464.68 Q303.426 461.444 303.402 454.206 Q303.402 447.165 302.908 444.349 Q302.241 441.063 300.462 439.754 Q298.708 438.42 296.929 438.42 Q296.262 438.42 295.546 438.618 Q294.854 438.815 293.842 439.384 Q292.829 439.952 292.038 441.36 Q291.272 442.768 290.902 444.892 Q290.507 447.634 290.507 454.206 Z" fill="#000000" fill-rule="evenodd" fill-opacity="1" /><path clip-path="url(#clip930)" d="M377.549 464.186 Q377.549 462.679 378.414 461.962 Q379.279 461.246 380.39 461.246 Q381.551 461.246 382.367 462.012 Q383.206 462.753 383.206 464.062 Q383.206 465.47 382.218 466.261 Q381.255 467.051 379.872 466.854 Q381.082 468.879 383.305 469.793 Q385.553 470.707 387.628 470.707 Q389.802 470.707 391.556 468.83 Q393.335 466.952 393.335 462.358 Q393.335 458.455 391.803 456.207 Q390.296 453.959 387.307 453.959 L385.084 453.959 Q384.318 453.959 384.096 453.884 Q383.873 453.81 383.873 453.39 Q383.873 452.896 384.639 452.797 Q385.405 452.797 386.616 452.649 Q389.555 452.55 391.112 450.006 Q392.52 447.634 392.52 444.25 Q392.52 441.162 391.037 439.878 Q389.58 438.568 387.678 438.568 Q385.899 438.568 383.948 439.309 Q381.996 440.051 380.934 441.706 Q384.071 441.706 384.071 444.25 Q384.071 445.362 383.355 446.103 Q382.663 446.819 381.502 446.819 Q380.39 446.819 379.649 446.128 Q378.908 445.411 378.908 444.201 Q378.908 441.31 381.477 439.309 Q384.071 437.308 387.875 437.308 Q391.63 437.308 394.397 439.285 Q397.189 441.261 397.189 444.3 Q397.189 447.289 395.212 449.734 Q393.236 452.18 390.099 453.193 Q393.952 453.959 396.25 456.577 Q398.547 459.171 398.547 462.358 Q398.547 466.31 395.435 469.225 Q392.322 472.115 387.777 472.115 Q383.577 472.115 380.563 469.843 Q377.549 467.57 377.549 464.186 Z" fill="#000000" fill-rule="evenodd" fill-opacity="1" /><path clip-path="url(#clip930)" d="M402.697 454.823 Q402.697 447.387 404.575 443.336 Q407.193 437.308 413.369 437.308 Q414.679 437.308 416.037 437.679 Q417.421 438.025 419.15 439.384 Q420.904 440.742 421.966 442.966 Q423.992 447.264 423.992 454.823 Q423.992 462.209 422.114 466.236 Q419.372 472.115 413.32 472.115 Q411.047 472.115 408.725 470.954 Q406.428 469.793 404.97 467.002 Q402.697 462.827 402.697 454.823 M406.897 454.206 Q406.897 461.839 407.44 464.877 Q408.058 468.163 409.738 469.596 Q411.442 471.004 413.32 471.004 Q415.346 471.004 417.025 469.497 Q418.73 467.965 419.249 464.68 Q419.817 461.444 419.792 454.206 Q419.792 447.165 419.298 444.349 Q418.631 441.063 416.852 439.754 Q415.099 438.42 413.32 438.42 Q412.653 438.42 411.936 438.618 Q411.245 438.815 410.232 439.384 Q409.219 439.952 408.429 441.36 Q407.663 442.768 407.292 444.892 Q406.897 447.634 406.897 454.206 Z" fill="#000000" fill-rule="evenodd" fill-opacity="1" /><path clip-path="url(#clip930)" d="M427.994 454.823 Q427.994 447.387 429.871 443.336 Q432.49 437.308 438.666 437.308 Q439.975 437.308 441.333 437.679 Q442.717 438.025 444.446 439.384 Q446.2 440.742 447.262 442.966 Q449.288 447.264 449.288 454.823 Q449.288 462.209 447.411 466.236 Q444.668 472.115 438.616 472.115 Q436.343 472.115 434.021 470.954 Q431.724 469.793 430.266 467.002 Q427.994 462.827 427.994 454.823 M432.193 454.206 Q432.193 461.839 432.737 464.877 Q433.354 468.163 435.034 469.596 Q436.739 471.004 438.616 471.004 Q440.642 471.004 442.322 469.497 Q444.026 467.965 444.545 464.68 Q445.113 461.444 445.088 454.206 Q445.088 447.165 444.594 444.349 Q443.927 441.063 442.149 439.754 Q440.395 438.42 438.616 438.42 Q437.949 438.42 437.233 438.618 Q436.541 438.815 435.528 439.384 Q434.515 439.952 433.725 441.36 Q432.959 442.768 432.589 444.892 Q432.193 447.634 432.193 454.206 Z" fill="#000000" fill-rule="evenodd" fill-opacity="1" /><path clip-path="url(#clip930)" d="M453.29 454.823 Q453.29 447.387 455.167 443.336 Q457.786 437.308 463.962 437.308 Q465.271 437.308 466.63 437.679 Q468.013 438.025 469.742 439.384 Q471.496 440.742 472.559 442.966 Q474.584 447.264 474.584 454.823 Q474.584 462.209 472.707 466.236 Q469.965 472.115 463.912 472.115 Q461.64 472.115 459.318 470.954 Q457.02 469.793 455.563 467.002 Q453.29 462.827 453.29 454.823 M457.489 454.206 Q457.489 461.839 458.033 464.877 Q458.651 468.163 460.33 469.596 Q462.035 471.004 463.912 471.004 Q465.938 471.004 467.618 469.497 Q469.322 467.965 469.841 464.68 Q470.409 461.444 470.385 454.206 Q470.385 447.165 469.891 444.349 Q469.224 441.063 467.445 439.754 Q465.691 438.42 463.912 438.42 Q463.245 438.42 462.529 438.618 Q461.837 438.815 460.824 439.384 Q459.812 439.952 459.021 441.36 Q458.255 442.768 457.885 444.892 Q457.489 447.634 457.489 454.206 Z" fill="#000000" fill-rule="evenodd" fill-opacity="1" /><path clip-path="url(#clip930)" d="M544.532 455.021 Q544.532 447.066 548.584 442.2 Q552.635 437.308 557.847 437.308 Q560.886 437.308 562.566 438.865 Q564.27 440.396 564.27 442.768 Q564.27 444.077 563.504 444.645 Q562.739 445.214 561.948 445.214 Q561.034 445.214 560.318 444.596 Q559.601 443.978 559.601 442.867 Q559.601 440.594 562.393 440.594 Q561.084 438.568 557.946 438.568 Q556.983 438.568 555.995 438.865 Q555.007 439.137 553.722 440.075 Q552.437 441.014 551.449 442.496 Q550.461 443.978 549.769 446.77 Q549.078 449.561 549.078 453.193 L549.078 454.403 Q551.153 449.388 555.402 449.413 Q559.651 449.413 562.59 452.649 Q565.53 455.885 565.53 460.678 Q565.53 465.594 562.467 468.855 Q559.404 472.115 555.105 472.115 Q553.178 472.115 551.425 471.3 Q549.695 470.51 548.065 468.682 Q546.459 466.854 545.496 463.346 Q544.532 459.838 544.532 455.021 M549.177 459.566 Q549.177 464.532 550.091 466.903 Q550.239 467.298 550.56 467.842 Q550.906 468.385 551.474 469.102 Q552.067 469.793 553.03 470.263 Q553.994 470.707 555.105 470.707 Q558.49 470.707 560.12 467.422 Q560.985 465.594 560.985 460.628 Q560.985 455.564 560.071 453.711 Q558.514 450.574 555.352 450.574 Q553.228 450.574 551.746 452.032 Q550.288 453.489 549.72 455.441 Q549.177 457.392 549.177 459.566 Z" fill="#000000" fill-rule="evenodd" fill-opacity="1" /><path clip-path="url(#clip930)" d="M569.68 454.823 Q569.68 447.387 571.558 443.336 Q574.176 437.308 580.352 437.308 Q581.661 437.308 583.02 437.679 Q584.404 438.025 586.133 439.384 Q587.887 440.742 588.949 442.966 Q590.975 447.264 590.975 454.823 Q590.975 462.209 589.097 466.236 Q586.355 472.115 580.303 472.115 Q578.03 472.115 575.708 470.954 Q573.411 469.793 571.953 467.002 Q569.68 462.827 569.68 454.823 M573.88 454.206 Q573.88 461.839 574.423 464.877 Q575.041 468.163 576.721 469.596 Q578.425 471.004 580.303 471.004 Q582.328 471.004 584.008 469.497 Q585.713 467.965 586.232 464.68 Q586.8 461.444 586.775 454.206 Q586.775 447.165 586.281 444.349 Q585.614 441.063 583.835 439.754 Q582.081 438.42 580.303 438.42 Q579.636 438.42 578.919 438.618 Q578.228 438.815 577.215 439.384 Q576.202 439.952 575.412 441.36 Q574.646 442.768 574.275 444.892 Q573.88 447.634 573.88 454.206 Z" fill="#000000" fill-rule="evenodd" fill-opacity="1" /><path clip-path="url(#clip930)" d="M594.977 454.823 Q594.977 447.387 596.854 443.336 Q599.473 437.308 605.648 437.308 Q606.958 437.308 608.316 437.679 Q609.7 438.025 611.429 439.384 Q613.183 440.742 614.245 442.966 Q616.271 447.264 616.271 454.823 Q616.271 462.209 614.393 466.236 Q611.651 472.115 605.599 472.115 Q603.326 472.115 601.004 470.954 Q598.707 469.793 597.249 467.002 Q594.977 462.827 594.977 454.823 M599.176 454.206 Q599.176 461.839 599.72 464.877 Q600.337 468.163 602.017 469.596 Q603.722 471.004 605.599 471.004 Q607.625 471.004 609.305 469.497 Q611.009 467.965 611.528 464.68 Q612.096 461.444 612.071 454.206 Q612.071 447.165 611.577 444.349 Q610.91 441.063 609.132 439.754 Q607.378 438.42 605.599 438.42 Q604.932 438.42 604.216 438.618 Q603.524 438.815 602.511 439.384 Q601.498 439.952 600.708 441.36 Q599.942 442.768 599.571 444.892 Q599.176 447.634 599.176 454.206 Z" fill="#000000" fill-rule="evenodd" fill-opacity="1" /><path clip-path="url(#clip930)" d="M620.273 454.823 Q620.273 447.387 622.15 443.336 Q624.769 437.308 630.945 437.308 Q632.254 437.308 633.613 437.679 Q634.996 438.025 636.725 439.384 Q638.479 440.742 639.541 442.966 Q641.567 447.264 641.567 454.823 Q641.567 462.209 639.69 466.236 Q636.948 472.115 630.895 472.115 Q628.623 472.115 626.3 470.954 Q624.003 469.793 622.546 467.002 Q620.273 462.827 620.273 454.823 M624.472 454.206 Q624.472 461.839 625.016 464.877 Q625.633 468.163 627.313 469.596 Q629.018 471.004 630.895 471.004 Q632.921 471.004 634.601 469.497 Q636.305 467.965 636.824 464.68 Q637.392 461.444 637.368 454.206 Q637.368 447.165 636.873 444.349 Q636.206 441.063 634.428 439.754 Q632.674 438.42 630.895 438.42 Q630.228 438.42 629.512 438.618 Q628.82 438.815 627.807 439.384 Q626.794 439.952 626.004 441.36 Q625.238 442.768 624.868 444.892 Q624.472 447.634 624.472 454.206 Z" fill="#000000" fill-rule="evenodd" fill-opacity="1" /><path clip-path="url(#clip930)" d="M690.579 442.126 L690.579 440.545 Q696.656 440.545 699.793 437.308 Q700.658 437.308 700.806 437.506 Q700.955 437.704 700.955 438.618 L700.955 467.002 Q700.955 468.509 701.696 468.978 Q702.437 469.448 705.673 469.448 L707.279 469.448 L707.279 471.004 Q705.5 470.856 699.077 470.856 Q692.654 470.856 690.9 471.004 L690.9 469.448 L692.506 469.448 Q695.693 469.448 696.458 469.003 Q697.224 468.534 697.224 467.002 L697.224 440.792 Q694.581 442.126 690.579 442.126 Z" fill="#000000" fill-rule="evenodd" fill-opacity="1" /><path clip-path="url(#clip930)" d="M713.899 471.004 Q713.899 470.09 713.973 469.818 Q714.072 469.546 714.467 469.126 L724.176 458.306 Q729.487 452.328 729.487 447.116 Q729.487 443.731 727.708 441.31 Q725.954 438.889 722.718 438.889 Q720.495 438.889 718.617 440.248 Q716.74 441.607 715.875 444.028 Q716.024 443.978 716.542 443.978 Q717.802 443.978 718.494 444.769 Q719.21 445.559 719.21 446.622 Q719.21 447.98 718.321 448.647 Q717.456 449.29 716.592 449.29 Q716.246 449.29 715.777 449.215 Q715.332 449.141 714.615 448.45 Q713.899 447.733 713.899 446.473 Q713.899 442.941 716.567 440.125 Q719.26 437.308 723.36 437.308 Q728.005 437.308 731.043 440.075 Q734.106 442.817 734.106 447.116 Q734.106 448.623 733.637 450.006 Q733.192 451.365 732.575 452.427 Q731.982 453.489 730.352 455.194 Q728.721 456.898 727.412 458.109 Q726.103 459.319 723.163 461.888 L717.802 467.101 L726.918 467.101 Q731.364 467.101 731.71 466.705 Q732.204 465.989 732.822 462.209 L734.106 462.209 L732.674 471.004 L713.899 471.004 Z" fill="#000000" fill-rule="evenodd" fill-opacity="1" /><path clip-path="url(#clip930)" d="M738.652 454.823 Q738.652 447.387 740.529 443.336 Q743.148 437.308 749.324 437.308 Q750.633 437.308 751.992 437.679 Q753.375 438.025 755.104 439.384 Q756.858 440.742 757.92 442.966 Q759.946 447.264 759.946 454.823 Q759.946 462.209 758.069 466.236 Q755.327 472.115 749.274 472.115 Q747.002 472.115 744.679 470.954 Q742.382 469.793 740.925 467.002 Q738.652 462.827 738.652 454.823 M742.851 454.206 Q742.851 461.839 743.395 464.877 Q744.012 468.163 745.692 469.596 Q747.397 471.004 749.274 471.004 Q751.3 471.004 752.98 469.497 Q754.684 467.965 755.203 464.68 Q755.771 461.444 755.747 454.206 Q755.747 447.165 755.252 444.349 Q754.586 441.063 752.807 439.754 Q751.053 438.42 749.274 438.42 Q748.607 438.42 747.891 438.618 Q747.199 438.815 746.186 439.384 Q745.174 439.952 744.383 441.36 Q743.617 442.768 743.247 444.892 Q742.851 447.634 742.851 454.206 Z" fill="#000000" fill-rule="evenodd" fill-opacity="1" /><path clip-path="url(#clip930)" d="M763.948 454.823 Q763.948 447.387 765.826 443.336 Q768.444 437.308 774.62 437.308 Q775.929 437.308 777.288 437.679 Q778.671 438.025 780.401 439.384 Q782.154 440.742 783.217 442.966 Q785.242 447.264 785.242 454.823 Q785.242 462.209 783.365 466.236 Q780.623 472.115 774.571 472.115 Q772.298 472.115 769.976 470.954 Q767.678 469.793 766.221 467.002 Q763.948 462.827 763.948 454.823 M768.148 454.206 Q768.148 461.839 768.691 464.877 Q769.309 468.163 770.989 469.596 Q772.693 471.004 774.571 471.004 Q776.596 471.004 778.276 469.497 Q779.981 467.965 780.499 464.68 Q781.068 461.444 781.043 454.206 Q781.043 447.165 780.549 444.349 Q779.882 441.063 778.103 439.754 Q776.349 438.42 774.571 438.42 Q773.904 438.42 773.187 438.618 Q772.495 438.815 771.483 439.384 Q770.47 439.952 769.679 441.36 Q768.913 442.768 768.543 444.892 Q768.148 447.634 768.148 454.206 Z" fill="#000000" fill-rule="evenodd" fill-opacity="1" /><path clip-path="url(#clip930)" d="M789.244 454.823 Q789.244 447.387 791.122 443.336 Q793.74 437.308 799.916 437.308 Q801.225 437.308 802.584 437.679 Q803.968 438.025 805.697 439.384 Q807.451 440.742 808.513 442.966 Q810.539 447.264 810.539 454.823 Q810.539 462.209 808.661 466.236 Q805.919 472.115 799.867 472.115 Q797.594 472.115 795.272 470.954 Q792.975 469.793 791.517 467.002 Q789.244 462.827 789.244 454.823 M793.444 454.206 Q793.444 461.839 793.987 464.877 Q794.605 468.163 796.285 469.596 Q797.989 471.004 799.867 471.004 Q801.892 471.004 803.572 469.497 Q805.277 467.965 805.796 464.68 Q806.364 461.444 806.339 454.206 Q806.339 447.165 805.845 444.349 Q805.178 441.063 803.399 439.754 Q801.645 438.42 799.867 438.42 Q799.2 438.42 798.483 438.618 Q797.792 438.815 796.779 439.384 Q795.766 439.952 794.975 441.36 Q794.21 442.768 793.839 444.892 Q793.444 447.634 793.444 454.206 Z" fill="#000000" fill-rule="evenodd" fill-opacity="1" /><path clip-path="url(#clip930)" d="M369.379 545.068 L369.379 542.928 L371.043 542.928 Q374.814 542.928 375.663 542.317 Q376.546 541.671 376.546 539.633 L376.546 503.186 Q376.546 501.182 375.663 500.571 Q374.78 499.926 371.043 499.926 L369.379 499.926 L369.379 497.752 L408.543 497.752 L410.479 513.41 L408.747 513.41 Q408.271 509.436 407.626 507.161 Q407.015 504.851 405.486 503.084 Q403.992 501.318 401.512 500.639 Q399.066 499.926 395.092 499.926 L386.125 499.926 Q383.747 499.926 383.238 500.435 Q382.728 500.911 382.728 502.711 L382.728 519.389 L388.978 519.389 Q393.767 519.389 395.126 517.724 Q396.485 516.06 396.485 511.271 L398.251 511.271 L398.251 529.681 L396.485 529.681 Q396.485 524.959 395.126 523.261 Q393.767 521.563 388.978 521.563 L382.728 521.563 L382.728 540.143 Q382.728 541.943 383.238 542.452 Q383.781 542.928 386.125 542.928 L395.398 542.928 Q398.387 542.928 400.561 542.554 Q402.769 542.147 404.297 541.196 Q405.826 540.211 406.845 539.09 Q407.898 537.969 408.611 535.965 Q409.358 533.927 409.766 532.058 Q410.208 530.19 410.683 527.133 L412.415 527.133 L409.494 545.068 L369.379 545.068 Z" fill="#000000" fill-rule="evenodd" fill-opacity="1" /><path clip-path="url(#clip930)" d="M416.288 556.413 Q419.99 556.413 420.839 555.937 Q421.722 555.496 421.722 553.288 L421.722 520.713 Q421.722 518.404 420.839 517.826 Q419.99 517.249 416.288 517.249 L416.288 515.075 L426.308 514.328 L426.308 518.913 Q430.486 514.328 436.057 514.328 Q441.967 514.328 446.281 518.913 Q450.594 523.499 450.594 530.054 Q450.594 536.678 446.009 541.264 Q441.423 545.849 435.071 545.849 Q431.607 545.849 429.263 544.083 Q426.953 542.283 426.512 540.958 L426.512 541.603 L426.512 553.288 Q426.512 555.53 427.395 555.971 Q428.278 556.413 431.946 556.413 L431.946 558.553 Q424.644 558.349 424.1 558.349 Q423.421 558.349 416.288 558.553 L416.288 556.413 M426.512 537.154 Q426.512 538.206 426.648 538.58 Q426.817 538.954 427.497 540.075 Q430.248 544.287 434.732 544.287 Q434.766 544.287 434.8 544.287 Q438.774 544.287 441.797 540.245 Q444.82 536.168 444.82 530.054 Q444.82 524.212 442.069 520.136 Q439.317 516.06 435.513 516.06 Q432.796 516.06 430.418 517.521 Q428.04 518.981 426.512 521.631 L426.512 537.154 Z" fill="#000000" fill-rule="evenodd" fill-opacity="1" /><path clip-path="url(#clip930)" d="M455.248 545.068 L455.248 542.928 Q458.95 542.928 459.8 542.486 Q460.649 542.011 460.649 539.769 L460.649 521.053 Q460.649 518.472 459.766 517.86 Q458.916 517.249 455.52 517.249 L455.52 515.075 L465.234 514.328 L465.234 539.837 Q465.234 541.909 465.982 542.418 Q466.729 542.928 470.126 542.928 L470.126 545.068 Q463.026 544.864 462.891 544.864 Q461.939 544.864 455.248 545.068 M458.169 502.201 Q458.169 500.809 459.222 499.688 Q460.309 498.533 461.838 498.533 Q463.366 498.533 464.453 499.586 Q465.54 500.605 465.54 502.235 Q465.54 503.832 464.453 504.885 Q463.366 505.904 461.838 505.904 Q460.241 505.904 459.188 504.783 Q458.169 503.662 458.169 502.201 Z" fill="#000000" fill-rule="evenodd" fill-opacity="1" /><path clip-path="url(#clip930)" d="M474.507 544.151 L474.507 534.98 Q474.507 534.198 474.541 533.927 Q474.575 533.655 474.779 533.451 Q474.983 533.247 475.39 533.247 Q475.866 533.247 476.036 533.451 Q476.24 533.655 476.375 534.436 Q477.428 539.225 479.67 541.773 Q481.946 544.287 486.056 544.287 Q489.962 544.287 491.932 542.554 Q493.903 540.822 493.903 537.969 Q493.903 532.874 486.668 531.583 Q482.49 530.734 480.757 530.19 Q479.025 529.613 477.496 528.356 Q474.507 525.91 474.507 522.446 Q474.507 518.981 477.123 516.434 Q479.772 513.886 485.615 513.886 Q489.521 513.886 492.17 515.856 Q492.951 515.245 493.359 514.735 Q494.276 513.886 494.752 513.886 Q495.295 513.886 495.397 514.26 Q495.499 514.599 495.499 515.584 L495.499 522.582 Q495.499 523.363 495.465 523.635 Q495.431 523.906 495.227 524.11 Q495.023 524.28 494.582 524.28 Q493.801 524.28 493.767 523.635 Q493.223 515.211 485.615 515.211 Q481.505 515.211 479.67 516.807 Q477.836 518.37 477.836 520.51 Q477.836 521.698 478.38 522.616 Q478.957 523.499 479.67 524.042 Q480.418 524.552 481.776 525.061 Q483.135 525.537 483.95 525.707 Q484.799 525.876 486.396 526.216 Q491.966 527.269 494.31 529.545 Q497.231 532.466 497.231 536.168 Q497.231 540.278 494.446 543.064 Q491.661 545.849 486.056 545.849 Q481.538 545.849 478.38 542.826 Q477.972 543.234 477.666 543.607 Q477.361 543.947 477.225 544.083 Q477.123 544.219 477.089 544.321 Q477.055 544.389 476.987 544.456 Q475.594 545.849 475.255 545.849 Q474.711 545.849 474.609 545.475 Q474.507 545.136 474.507 544.151 Z" fill="#000000" fill-rule="evenodd" fill-opacity="1" /><path clip-path="url(#clip930)" d="M506.097 541.331 Q501.511 536.78 501.511 530.19 Q501.511 523.567 505.995 518.743 Q510.512 513.886 516.966 513.886 Q523.284 513.886 527.802 518.709 Q532.353 523.499 532.353 530.19 Q532.353 536.746 527.768 541.297 Q523.216 545.849 516.898 545.849 Q510.716 545.849 506.097 541.331 M507.286 529.613 Q507.286 536.372 509.052 539.429 Q511.769 544.083 516.966 544.083 Q519.548 544.083 521.688 542.69 Q523.862 541.297 525.05 538.954 Q526.579 535.897 526.579 529.613 Q526.579 522.921 524.745 519.966 Q522.027 515.449 516.898 515.449 Q514.656 515.449 512.449 516.637 Q510.275 517.792 508.95 520.102 Q507.286 523.159 507.286 529.613 Z" fill="#000000" fill-rule="evenodd" fill-opacity="1" /><path clip-path="url(#clip930)" d="M538.671 530.122 Q538.671 523.499 543.291 518.913 Q547.91 514.328 554.16 514.328 Q559.459 514.328 562.924 518.641 L562.924 503.594 Q562.924 501.012 562.007 500.367 Q561.123 499.722 557.523 499.722 L557.523 497.548 L567.543 496.801 L567.543 539.022 Q567.543 541.603 568.426 542.283 Q569.343 542.928 572.944 542.928 L572.944 545.068 L562.72 545.849 L562.72 541.23 Q559.119 545.815 553.413 545.849 Q547.435 545.849 543.053 541.264 Q538.671 536.678 538.671 530.122 M544.446 530.19 Q544.446 536.644 546.45 539.837 Q549.235 544.287 553.753 544.287 Q558.916 544.287 561.973 539.429 Q562.754 538.24 562.72 536.848 L562.72 522.582 Q562.72 521.189 561.973 520.034 Q559.119 515.856 554.466 515.856 Q549.609 515.856 546.586 520.306 Q544.446 523.635 544.446 530.19 Z" fill="#000000" fill-rule="evenodd" fill-opacity="1" /><path clip-path="url(#clip930)" d="M576.816 529.749 Q576.816 523.193 581.028 518.54 Q585.24 513.886 591.286 513.886 Q597.4 513.886 600.559 517.86 Q603.752 521.834 603.752 527.541 Q603.752 528.594 603.48 528.798 Q603.209 529.001 602.02 529.001 L582.591 529.001 Q582.591 536.101 584.697 539.429 Q587.618 544.083 592.543 544.083 Q593.222 544.083 594.038 543.947 Q594.853 543.811 596.517 543.234 Q598.182 542.622 599.642 541.026 Q601.103 539.429 601.952 536.916 Q602.156 535.931 602.835 535.965 Q603.752 535.965 603.752 536.78 Q603.752 537.391 603.073 538.784 Q602.427 540.143 601.171 541.773 Q599.914 543.403 597.468 544.626 Q595.057 545.849 592.135 545.849 Q586.021 545.849 581.402 541.23 Q576.816 536.576 576.816 529.749 M582.659 527.541 L599.167 527.541 Q599.167 526.08 598.895 524.45 Q598.657 522.819 597.91 520.578 Q597.197 518.302 595.498 516.875 Q593.8 515.449 591.286 515.449 Q590.165 515.449 588.943 515.924 Q587.754 516.4 586.293 517.554 Q584.832 518.709 583.813 521.325 Q582.794 523.94 582.659 527.541 Z" fill="#000000" fill-rule="evenodd" fill-opacity="1" /><path clip-path="url(#clip930)" d="M608.066 544.151 L608.066 534.98 Q608.066 534.198 608.1 533.927 Q608.134 533.655 608.338 533.451 Q608.542 533.247 608.949 533.247 Q609.425 533.247 609.595 533.451 Q609.798 533.655 609.934 534.436 Q610.987 539.225 613.229 541.773 Q615.505 544.287 619.615 544.287 Q623.521 544.287 625.491 542.554 Q627.461 540.822 627.461 537.969 Q627.461 532.874 620.226 531.583 Q616.048 530.734 614.316 530.19 Q612.584 529.613 611.055 528.356 Q608.066 525.91 608.066 522.446 Q608.066 518.981 610.681 516.434 Q613.331 513.886 619.173 513.886 Q623.079 513.886 625.729 515.856 Q626.51 515.245 626.918 514.735 Q627.835 513.886 628.31 513.886 Q628.854 513.886 628.956 514.26 Q629.058 514.599 629.058 515.584 L629.058 522.582 Q629.058 523.363 629.024 523.635 Q628.99 523.906 628.786 524.11 Q628.582 524.28 628.141 524.28 Q627.359 524.28 627.325 523.635 Q626.782 515.211 619.173 515.211 Q615.063 515.211 613.229 516.807 Q611.395 518.37 611.395 520.51 Q611.395 521.698 611.938 522.616 Q612.516 523.499 613.229 524.042 Q613.976 524.552 615.335 525.061 Q616.694 525.537 617.509 525.707 Q618.358 525.876 619.954 526.216 Q625.525 527.269 627.869 529.545 Q630.79 532.466 630.79 536.168 Q630.79 540.278 628.005 543.064 Q625.219 545.849 619.615 545.849 Q615.097 545.849 611.938 542.826 Q611.531 543.234 611.225 543.607 Q610.919 543.947 610.783 544.083 Q610.681 544.219 610.647 544.321 Q610.614 544.389 610.546 544.456 Q609.153 545.849 608.813 545.849 Q608.27 545.849 608.168 545.475 Q608.066 545.136 608.066 544.151 Z" fill="#000000" fill-rule="evenodd" fill-opacity="1" /><polyline clip-path="url(#clip932)" style="stroke:#000000; stroke-linecap:round; stroke-linejoin:round; stroke-width:2; stroke-opacity:0.1; fill:none" points="
  146.435,407.705 853.734,407.705 
  "/>
<polyline clip-path="url(#clip932)" style="stroke:#000000; stroke-linecap:round; stroke-linejoin:round; stroke-width:2; stroke-opacity:0.1; fill:none" points="
  146.435,348.49 853.734,348.49 
  "/>
<polyline clip-path="url(#clip932)" style="stroke:#000000; stroke-linecap:round; stroke-linejoin:round; stroke-width:2; stroke-opacity:0.1; fill:none" points="
  146.435,289.275 853.734,289.275 
  "/>
<polyline clip-path="url(#clip932)" style="stroke:#000000; stroke-linecap:round; stroke-linejoin:round; stroke-width:2; stroke-opacity:0.1; fill:none" points="
  146.435,230.059 853.734,230.059 
  "/>
<polyline clip-path="url(#clip932)" style="stroke:#000000; stroke-linecap:round; stroke-linejoin:round; stroke-width:2; stroke-opacity:0.1; fill:none" points="
  146.435,170.844 853.734,170.844 
  "/>
<polyline clip-path="url(#clip932)" style="stroke:#000000; stroke-linecap:round; stroke-linejoin:round; stroke-width:2; stroke-opacity:0.1; fill:none" points="
  146.435,111.629 853.734,111.629 
  "/>
<polyline clip-path="url(#clip932)" style="stroke:#000000; stroke-linecap:round; stroke-linejoin:round; stroke-width:2; stroke-opacity:0.1; fill:none" points="
  146.435,52.4136 853.734,52.4136 
  "/>
<polyline clip-path="url(#clip930)" style="stroke:#000000; stroke-linecap:round; stroke-linejoin:round; stroke-width:4; stroke-opacity:1; fill:none" points="
  146.435,418.204 146.435,47.2441 
  "/>
<polyline clip-path="url(#clip930)" style="stroke:#000000; stroke-linecap:round; stroke-linejoin:round; stroke-width:4; stroke-opacity:1; fill:none" points="
  146.435,407.705 159.717,407.705 
  "/>
<polyline clip-path="url(#clip930)" style="stroke:#000000; stroke-linecap:round; stroke-linejoin:round; stroke-width:4; stroke-opacity:1; fill:none" points="
  146.435,348.49 159.717,348.49 
  "/>
<polyline clip-path="url(#clip930)" style="stroke:#000000; stroke-linecap:round; stroke-linejoin:round; stroke-width:4; stroke-opacity:1; fill:none" points="
  146.435,289.275 159.717,289.275 
  "/>
<polyline clip-path="url(#clip930)" style="stroke:#000000; stroke-linecap:round; stroke-linejoin:round; stroke-width:4; stroke-opacity:1; fill:none" points="
  146.435,230.059 159.717,230.059 
  "/>
<polyline clip-path="url(#clip930)" style="stroke:#000000; stroke-linecap:round; stroke-linejoin:round; stroke-width:4; stroke-opacity:1; fill:none" points="
  146.435,170.844 159.717,170.844 
  "/>
<polyline clip-path="url(#clip930)" style="stroke:#000000; stroke-linecap:round; stroke-linejoin:round; stroke-width:4; stroke-opacity:1; fill:none" points="
  146.435,111.629 159.717,111.629 
  "/>
<polyline clip-path="url(#clip930)" style="stroke:#000000; stroke-linecap:round; stroke-linejoin:round; stroke-width:4; stroke-opacity:1; fill:none" points="
  146.435,52.4136 159.717,52.4136 
  "/>
<path clip-path="url(#clip930)" d="M107.141 408.804 Q107.141 401.369 109.018 397.317 Q111.637 391.29 117.812 391.29 Q119.122 391.29 120.48 391.66 Q121.864 392.006 123.593 393.365 Q125.347 394.723 126.409 396.947 Q128.435 401.245 128.435 408.804 Q128.435 416.191 126.557 420.217 Q123.815 426.097 117.763 426.097 Q115.49 426.097 113.168 424.936 Q110.871 423.775 109.413 420.983 Q107.141 416.808 107.141 408.804 M111.34 408.187 Q111.34 415.82 111.884 418.859 Q112.501 422.144 114.181 423.577 Q115.886 424.985 117.763 424.985 Q119.789 424.985 121.468 423.478 Q123.173 421.946 123.692 418.661 Q124.26 415.425 124.235 408.187 Q124.235 401.146 123.741 398.33 Q123.074 395.045 121.296 393.735 Q119.542 392.401 117.763 392.401 Q117.096 392.401 116.38 392.599 Q115.688 392.797 114.675 393.365 Q113.662 393.933 112.872 395.341 Q112.106 396.749 111.735 398.874 Q111.34 401.616 111.34 408.187 Z" fill="#000000" fill-rule="evenodd" fill-opacity="1" /><path clip-path="url(#clip930)" d="M111.735 336.892 L111.735 335.311 Q117.812 335.311 120.95 332.074 Q121.814 332.074 121.963 332.272 Q122.111 332.47 122.111 333.384 L122.111 361.768 Q122.111 363.275 122.852 363.744 Q123.593 364.213 126.829 364.213 L128.435 364.213 L128.435 365.77 Q126.656 365.622 120.233 365.622 Q113.81 365.622 112.056 365.77 L112.056 364.213 L113.662 364.213 Q116.849 364.213 117.615 363.769 Q118.381 363.299 118.381 361.768 L118.381 335.558 Q115.737 336.892 111.735 336.892 Z" fill="#000000" fill-rule="evenodd" fill-opacity="1" /><path clip-path="url(#clip930)" d="M108.227 306.555 Q108.227 305.64 108.302 305.369 Q108.4 305.097 108.796 304.677 L118.504 293.857 Q123.815 287.879 123.815 282.666 Q123.815 279.282 122.037 276.861 Q120.283 274.44 117.047 274.44 Q114.823 274.44 112.946 275.799 Q111.068 277.158 110.204 279.578 Q110.352 279.529 110.871 279.529 Q112.131 279.529 112.822 280.32 Q113.539 281.11 113.539 282.172 Q113.539 283.531 112.649 284.198 Q111.785 284.84 110.92 284.84 Q110.574 284.84 110.105 284.766 Q109.66 284.692 108.944 284 Q108.227 283.284 108.227 282.024 Q108.227 278.491 110.895 275.675 Q113.588 272.859 117.689 272.859 Q122.333 272.859 125.372 275.626 Q128.435 278.368 128.435 282.666 Q128.435 284.173 127.965 285.557 Q127.521 286.915 126.903 287.978 Q126.31 289.04 124.68 290.744 Q123.049 292.449 121.74 293.659 Q120.431 294.87 117.491 297.439 L112.131 302.651 L121.246 302.651 Q125.693 302.651 126.039 302.256 Q126.533 301.54 127.15 297.76 L128.435 297.76 L127.002 306.555 L108.227 306.555 Z" fill="#000000" fill-rule="evenodd" fill-opacity="1" /><path clip-path="url(#clip930)" d="M107.437 240.521 Q107.437 239.014 108.302 238.298 Q109.166 237.581 110.278 237.581 Q111.439 237.581 112.254 238.347 Q113.094 239.088 113.094 240.398 Q113.094 241.806 112.106 242.596 Q111.142 243.387 109.759 243.189 Q110.97 245.215 113.193 246.129 Q115.441 247.043 117.516 247.043 Q119.69 247.043 121.444 245.165 Q123.222 243.288 123.222 238.693 Q123.222 234.79 121.691 232.542 Q120.184 230.294 117.195 230.294 L114.971 230.294 Q114.206 230.294 113.983 230.22 Q113.761 230.146 113.761 229.726 Q113.761 229.232 114.527 229.133 Q115.293 229.133 116.503 228.985 Q119.443 228.886 120.999 226.341 Q122.407 223.97 122.407 220.586 Q122.407 217.498 120.925 216.213 Q119.467 214.904 117.565 214.904 Q115.787 214.904 113.835 215.645 Q111.884 216.386 110.821 218.041 Q113.959 218.041 113.959 220.586 Q113.959 221.697 113.242 222.438 Q112.551 223.155 111.389 223.155 Q110.278 223.155 109.537 222.463 Q108.796 221.747 108.796 220.536 Q108.796 217.646 111.365 215.645 Q113.959 213.644 117.763 213.644 Q121.518 213.644 124.285 215.62 Q127.076 217.596 127.076 220.635 Q127.076 223.624 125.1 226.07 Q123.124 228.515 119.986 229.528 Q123.84 230.294 126.137 232.913 Q128.435 235.506 128.435 238.693 Q128.435 242.646 125.322 245.561 Q122.21 248.451 117.664 248.451 Q113.465 248.451 110.451 246.178 Q107.437 243.906 107.437 240.521 Z" fill="#000000" fill-rule="evenodd" fill-opacity="1" /><path clip-path="url(#clip930)" d="M106.004 179.774 L106.004 178.218 L121.543 154.478 Q121.938 153.86 122.555 153.885 Q123.124 153.885 123.247 154.108 Q123.371 154.33 123.371 155.194 L123.371 178.218 L128.435 178.218 L128.435 179.774 L123.371 179.774 L123.371 184.172 Q123.371 185.629 123.963 186.098 Q124.581 186.568 127.2 186.568 L128.262 186.568 L128.262 188.124 Q126.187 187.976 121.394 187.976 Q116.627 187.976 114.552 188.124 L114.552 186.568 L115.614 186.568 Q118.232 186.568 118.85 186.123 Q119.467 185.654 119.467 184.172 L119.467 179.774 L106.004 179.774 M107.437 178.218 L119.764 178.218 L119.764 159.345 L107.437 178.218 Z" fill="#000000" fill-rule="evenodd" fill-opacity="1" /><path clip-path="url(#clip930)" d="M108.227 120.757 Q108.227 119.25 109.043 118.682 Q109.858 118.089 110.722 118.089 Q111.884 118.089 112.551 118.83 Q113.242 119.546 113.242 120.559 Q113.242 121.572 112.551 122.313 Q111.884 123.029 110.722 123.029 Q110.154 123.029 109.858 122.931 Q110.525 125.253 112.551 126.933 Q114.601 128.612 117.294 128.612 Q120.678 128.612 122.704 125.327 Q123.914 123.202 123.914 118.385 Q123.914 114.136 123 112.012 Q121.592 108.776 118.702 108.776 Q114.601 108.776 112.18 112.308 Q111.884 112.753 111.538 112.778 Q111.044 112.778 110.92 112.506 Q110.821 112.209 110.821 111.444 L110.821 96.4733 Q110.821 95.2628 111.315 95.2628 Q111.513 95.2628 111.933 95.4111 Q115.12 96.8192 118.652 96.8439 Q122.284 96.8439 125.545 95.3617 Q125.792 95.2134 125.94 95.2134 Q126.434 95.2134 126.459 95.7816 Q126.459 95.9792 126.039 96.5721 Q125.643 97.1403 124.779 97.9061 Q123.914 98.6472 122.802 99.3636 Q121.691 100.08 120.06 100.574 Q118.455 101.043 116.676 101.043 Q114.552 101.043 112.378 100.376 L112.378 110.233 Q114.996 107.664 118.8 107.664 Q122.852 107.664 125.643 110.925 Q128.435 114.186 128.435 118.731 Q128.435 123.499 125.125 126.76 Q121.839 130.02 117.392 130.02 Q113.341 130.02 110.772 127.13 Q108.227 124.24 108.227 120.757 Z" fill="#000000" fill-rule="evenodd" fill-opacity="1" /><path clip-path="url(#clip930)" d="M107.437 53.7105 Q107.437 45.756 111.488 40.8895 Q115.54 35.9982 120.752 35.9982 Q123.791 35.9982 125.47 37.5545 Q127.175 39.0861 127.175 41.4576 Q127.175 42.7669 126.409 43.3351 Q125.643 43.9033 124.853 43.9033 Q123.939 43.9033 123.222 43.2857 Q122.506 42.6681 122.506 41.5565 Q122.506 39.2837 125.297 39.2837 Q123.988 37.2581 120.851 37.2581 Q119.887 37.2581 118.899 37.5545 Q117.911 37.8263 116.627 38.765 Q115.342 39.7037 114.354 41.1859 Q113.366 42.6681 112.674 45.4596 Q111.982 48.2511 111.982 51.8825 L111.982 53.0929 Q114.057 48.0781 118.306 48.1028 Q122.555 48.1028 125.495 51.339 Q128.435 54.5751 128.435 59.3676 Q128.435 64.2835 125.372 67.5444 Q122.308 70.8052 118.01 70.8052 Q116.083 70.8052 114.329 69.99 Q112.6 69.1995 110.97 67.3715 Q109.364 65.5434 108.4 62.0355 Q107.437 58.5277 107.437 53.7105 M112.081 58.2559 Q112.081 63.2213 112.995 65.5928 Q113.143 65.9881 113.465 66.5316 Q113.81 67.075 114.379 67.7914 Q114.971 68.4831 115.935 68.9525 Q116.898 69.3971 118.01 69.3971 Q121.394 69.3971 123.025 66.1116 Q123.889 64.2835 123.889 59.3182 Q123.889 54.254 122.975 52.4012 Q121.419 49.2639 118.257 49.2639 Q116.133 49.2639 114.65 50.7214 Q113.193 52.1789 112.625 54.1305 Q112.081 56.082 112.081 58.2559 Z" fill="#000000" fill-rule="evenodd" fill-opacity="1" /><path clip-path="url(#clip930)" d="M35.5691 443.252 Q29.5909 443.252 25.5828 440.195 Q21.5747 437.138 21.5747 433.028 Q21.5747 430.515 23.8165 428.035 Q29.1833 422.396 29.1493 415.025 Q29.1493 406.67 22.5597 401.812 Q21.5747 400.963 21.5747 400.352 Q21.5747 399.808 22.0162 399.401 Q22.4238 398.959 22.9673 398.959 Q23.3749 398.959 24.2241 399.503 L76.6014 434.692 Q77.6544 435.474 77.6544 436.085 Q77.6544 436.629 77.2128 437.07 Q76.8052 437.478 76.2617 437.478 Q75.7862 437.478 74.8691 436.866 L28.3341 405.617 L28.2662 405.685 Q30.7118 409.285 30.6779 414.958 Q30.6779 420.324 27.7567 425.453 Q31.3572 423.993 35.637 423.993 Q41.4794 423.993 45.5554 426.608 Q49.5975 429.224 49.5975 433.028 Q49.5975 437.138 45.6573 440.195 Q41.6832 443.252 35.5691 443.252 M29.8966 438.463 Q32.3422 438.938 35.637 438.938 Q38.8979 438.938 41.3435 438.463 Q43.7552 437.987 45.012 437.308 Q46.2688 436.595 47.016 435.644 Q47.7293 434.692 47.8992 434.115 Q48.069 433.538 48.069 432.96 Q48.069 430.107 44.5364 427.933 Q40.9699 425.725 35.5691 425.725 Q30.2702 425.725 26.7037 427.933 Q23.1032 430.107 23.1032 432.96 Q23.1032 433.572 23.273 434.183 Q23.4429 434.76 24.1901 435.678 Q24.9034 436.595 26.1602 437.308 Q27.417 437.987 29.8966 438.463 M63.592 412.444 Q57.6138 412.444 53.6057 409.387 Q49.5975 406.33 49.5975 402.22 Q49.5975 398.45 53.6736 395.834 Q57.7496 393.185 63.6599 393.185 Q69.5023 393.185 73.5783 395.8 Q77.6544 398.382 77.6544 402.22 Q77.6544 406.33 73.6802 409.387 Q69.7061 412.444 63.592 412.444 M57.9195 407.655 Q60.3991 408.13 63.6599 408.13 Q66.9208 408.13 69.3664 407.655 Q71.812 407.145 73.0688 406.466 Q74.2916 405.752 75.0049 404.835 Q75.7522 403.884 75.9221 403.307 Q76.1259 402.695 76.1259 402.152 Q76.1259 399.299 72.5933 397.125 Q69.0267 394.917 63.592 394.917 Q58.2931 394.917 54.7266 397.125 Q51.1261 399.299 51.1261 402.152 Q51.1261 402.763 51.3299 403.375 Q51.4997 403.952 52.247 404.869 Q52.9603 405.752 54.2171 406.466 Q55.4399 407.145 57.9195 407.655 Z" fill="#000000" fill-rule="evenodd" fill-opacity="1" /><path clip-path="url(#clip930)" d="M45.9291 363.871 L43.7552 363.871 L43.0079 353.647 L66.1056 353.647 Q67.7699 353.647 68.755 353.511 Q69.7061 353.375 70.827 352.832 Q71.9479 352.254 72.4574 350.964 Q72.9669 349.639 72.9669 347.533 Q72.9669 343.762 69.8759 341.453 Q66.7849 339.109 62.1993 339.109 L49.8013 339.109 Q47.2198 339.109 46.5745 340.026 Q45.9291 340.943 45.9291 344.544 L43.7552 344.544 L43.0079 334.32 L67.702 334.32 Q70.2835 334.32 70.9629 333.436 Q71.6082 332.519 71.6082 328.885 L73.7482 328.885 L74.5294 338.905 L68.2455 338.905 Q74.4954 341.826 74.5294 347.873 Q74.5294 350.93 73.7482 353.036 Q72.9669 355.107 72.0158 356.16 Q71.0308 357.213 69.1626 357.791 Q67.2944 358.334 66.1395 358.402 Q64.9846 358.47 62.7428 358.47 L52.3149 358.47 Q47.5935 358.47 46.7783 359.15 Q45.9291 359.829 45.9291 363.871 Z" fill="#000000" fill-rule="evenodd" fill-opacity="1" /><path clip-path="url(#clip930)" d="M73.7482 325.284 L71.6082 325.284 Q71.6082 321.582 71.1667 320.733 Q70.6911 319.884 68.4493 319.884 L49.8013 319.884 Q47.2198 319.884 46.5745 320.801 Q45.9291 321.684 45.9291 325.284 L43.7552 325.284 L43.0079 315.502 L50.3108 315.502 Q43.0079 312.241 43.0079 305.21 Q43.0079 299.979 45.5894 297.907 Q47.3217 296.378 49.2579 296.073 Q51.194 295.733 56.2211 295.733 L69.5023 295.733 Q70.9629 295.665 71.3025 294.544 Q71.6082 293.423 71.6082 290.298 L73.7482 290.298 Q73.5444 297.397 73.5444 298.111 Q73.5444 298.654 73.7482 305.957 L71.6082 305.957 Q71.6082 302.255 71.1667 301.405 Q70.6911 300.522 68.4493 300.522 L52.247 300.522 Q48.7144 300.522 46.6424 301.609 Q44.5364 302.696 44.5364 305.685 Q44.5364 309.286 47.5595 312.173 Q50.5826 315.06 55.6776 315.06 L68.4493 315.06 Q70.6911 315.06 71.1667 314.211 Q71.6082 313.328 71.6082 309.659 L73.7482 309.659 Q73.5444 316.759 73.5444 317.438 Q73.5444 317.981 73.7482 325.284 Z" fill="#000000" fill-rule="evenodd" fill-opacity="1" /><path clip-path="url(#clip930)" d="M72.831 286.63 L63.6599 286.63 Q62.8787 286.63 62.6069 286.596 Q62.3352 286.562 62.1314 286.358 Q61.9276 286.154 61.9276 285.747 Q61.9276 285.271 62.1314 285.101 Q62.3352 284.897 63.1164 284.762 Q67.9058 283.709 70.4533 281.467 Q72.9669 279.191 72.9669 275.081 Q72.9669 271.175 71.2346 269.205 Q69.5023 267.235 66.649 267.235 Q61.554 267.235 60.2632 274.47 Q59.414 278.648 58.8706 280.38 Q58.2931 282.112 57.0363 283.641 Q54.5907 286.63 51.1261 286.63 Q47.6614 286.63 45.1139 284.014 Q42.5663 281.365 42.5663 275.523 Q42.5663 271.616 44.5364 268.967 Q43.925 268.186 43.4155 267.778 Q42.5663 266.861 42.5663 266.385 Q42.5663 265.842 42.94 265.74 Q43.2797 265.638 44.2647 265.638 L51.2619 265.638 Q52.0432 265.638 52.3149 265.672 Q52.5866 265.706 52.7904 265.91 Q52.9603 266.114 52.9603 266.555 Q52.9603 267.336 52.3149 267.37 Q43.8911 267.914 43.8911 275.523 Q43.8911 279.633 45.4875 281.467 Q47.05 283.301 49.1899 283.301 Q50.3788 283.301 51.2959 282.758 Q52.179 282.18 52.7225 281.467 Q53.232 280.72 53.7415 279.361 Q54.2171 278.002 54.3869 277.187 Q54.5567 276.338 54.8964 274.741 Q55.9494 269.171 58.2252 266.827 Q61.1464 263.906 64.8488 263.906 Q68.9588 263.906 71.7441 266.691 Q74.5294 269.476 74.5294 275.081 Q74.5294 279.599 71.5063 282.758 Q71.9139 283.165 72.2876 283.471 Q72.6272 283.777 72.7631 283.912 Q72.899 284.014 73.0009 284.048 Q73.0688 284.082 73.1367 284.15 Q74.5294 285.543 74.5294 285.883 Q74.5294 286.426 74.1558 286.528 Q73.8161 286.63 72.831 286.63 Z" fill="#000000" fill-rule="evenodd" fill-opacity="1" /><path clip-path="url(#clip930)" d="M67.1246 258.641 Q61.2143 258.641 58.0893 251.678 Q56.0853 247.5 55.5757 238.872 L53.0282 238.872 Q48.7144 238.872 46.4386 241.148 Q44.1288 243.39 44.1288 246.243 Q44.1288 251.338 47.3217 253.784 Q47.3897 251.712 48.4427 250.964 Q49.4617 250.217 50.5146 250.217 Q51.9073 250.217 52.8244 251.1 Q53.7076 251.949 53.7076 253.41 Q53.7076 254.803 52.8584 255.72 Q51.9752 256.637 50.4467 256.637 Q47.05 256.637 44.8082 253.58 Q42.5663 250.489 42.5663 246.107 Q42.5663 240.401 46.4046 236.596 Q47.5935 235.407 49.122 234.83 Q50.6505 234.219 51.6695 234.151 Q52.6546 234.083 54.6247 234.083 L68.5172 234.083 Q68.9248 234.083 69.6042 233.947 Q70.2835 233.811 71.1667 233.2 Q72.0158 232.554 72.0158 231.501 Q72.0158 228.988 67.5661 229.022 L63.6599 229.022 L63.6599 227.255 L67.5661 227.255 Q71.2686 227.255 72.7291 229.225 Q74.1558 231.161 74.1558 232.962 Q74.1558 235.272 72.4574 236.732 Q70.7591 238.193 68.4493 238.396 Q71.0987 239.449 72.831 241.861 Q74.5294 244.239 74.5294 247.5 Q74.5294 250.013 73.884 252.391 Q73.2726 254.735 71.5403 256.705 Q69.774 258.641 67.1246 258.641 M67.0566 253.274 Q69.6381 253.274 71.3025 251.44 Q72.9669 249.606 72.9669 247.024 Q72.9669 244.103 70.7251 241.487 Q68.4493 238.872 63.9996 238.872 L57.0363 238.872 Q57.3081 246.583 60.3991 249.945 Q63.4561 253.274 67.0566 253.274 Z" fill="#000000" fill-rule="evenodd" fill-opacity="1" /><path clip-path="url(#clip930)" d="M45.9291 224.47 L43.7552 224.47 L43.7552 219.001 L35.7729 219.001 Q30.6099 219.001 27.6548 215.672 Q24.6996 212.31 24.6996 208.2 Q24.6996 205.482 26.1602 203.716 Q27.6208 201.95 29.5909 201.95 Q30.9156 201.95 31.7988 202.765 Q32.6479 203.546 32.6479 205.007 Q32.6479 206.399 31.7648 207.215 Q30.8817 207.996 29.6588 207.996 Q27.417 207.996 26.7377 205.924 Q26.2621 206.977 26.2282 208.2 Q26.2282 210.713 28.8097 212.683 Q31.3912 214.619 35.705 214.619 L43.7552 214.619 L43.7552 206.467 L45.9291 206.467 L45.9291 214.382 L68.3134 214.382 Q70.3175 214.382 70.9629 213.567 Q71.6082 212.717 71.6082 209.117 L71.6082 207.656 L73.7482 207.656 Q73.5444 210.442 73.5444 216.488 Q73.5444 217.337 73.5783 218.662 Q73.6123 219.952 73.6802 221.719 Q73.7482 223.451 73.7482 224.402 L71.6082 224.402 Q71.6082 220.7 71.1667 219.85 Q70.6911 219.001 68.4493 219.001 L45.9291 219.001 L45.9291 224.47 Z" fill="#000000" fill-rule="evenodd" fill-opacity="1" /><path clip-path="url(#clip930)" d="M58.429 203.648 Q51.8733 203.648 47.2198 199.436 Q42.5663 195.224 42.5663 189.178 Q42.5663 183.064 46.5405 179.905 Q50.5146 176.712 56.2211 176.712 Q57.2741 176.712 57.4779 176.984 Q57.6817 177.256 57.6817 178.445 L57.6817 197.874 Q64.7808 197.874 68.1096 195.768 Q72.7631 192.847 72.7631 187.921 Q72.7631 187.242 72.6272 186.427 Q72.4914 185.612 71.9139 183.947 Q71.3025 182.283 69.7061 180.822 Q68.1096 179.362 65.596 178.512 Q64.611 178.309 64.645 177.629 Q64.645 176.712 65.4602 176.712 Q66.0716 176.712 67.4642 177.392 Q68.8229 178.037 70.4533 179.294 Q72.0838 180.55 73.3066 182.996 Q74.5294 185.408 74.5294 188.329 Q74.5294 194.443 69.9099 199.063 Q65.2564 203.648 58.429 203.648 M56.2211 197.806 L56.2211 181.298 Q54.7605 181.298 53.1301 181.569 Q51.4997 181.807 49.2579 182.555 Q46.9821 183.268 45.5554 184.966 Q44.1288 186.665 44.1288 189.178 Q44.1288 190.299 44.6044 191.522 Q45.0799 192.711 46.2348 194.171 Q47.3897 195.632 50.0051 196.651 Q52.6206 197.67 56.2211 197.806 Z" fill="#000000" fill-rule="evenodd" fill-opacity="1" /><path clip-path="url(#clip930)" d="M73.7482 149.64 L71.6082 149.64 Q71.6082 145.938 71.1667 145.089 Q70.6911 144.206 68.4493 144.206 L49.8013 144.206 Q47.2198 144.206 46.5745 145.123 Q45.9291 146.006 45.9291 149.64 L43.7552 149.64 L43.0079 139.96 L50.6505 139.96 Q47.6614 138.975 45.3516 136.903 Q43.0079 134.797 43.0079 131.4 Q43.0079 129.158 44.2647 127.732 Q45.5215 126.271 47.2538 126.271 Q48.7823 126.271 49.5636 127.222 Q50.3108 128.139 50.3108 129.26 Q50.3108 130.517 49.5296 131.4 Q48.7144 132.249 47.3217 132.249 Q46.4726 132.249 45.8272 131.876 Q45.1478 131.468 44.9101 131.162 Q44.6723 130.857 44.6044 130.653 Q44.5364 130.789 44.5364 131.4 Q44.5364 135.238 48.3747 137.446 Q52.179 139.62 57.6138 139.62 L68.3134 139.62 Q70.3175 139.62 70.9629 138.805 Q71.6082 137.956 71.6082 134.321 L71.6082 132.861 L73.7482 132.861 Q73.5444 135.646 73.5444 141.692 Q73.5444 142.541 73.5783 143.866 Q73.6123 145.191 73.6802 146.923 Q73.7482 148.655 73.7482 149.64 Z" fill="#000000" fill-rule="evenodd" fill-opacity="1" /><path clip-path="url(#clip930)" d="M45.9291 122.161 L43.7552 122.161 L43.0079 111.937 L66.1056 111.937 Q67.7699 111.937 68.755 111.801 Q69.7061 111.665 70.827 111.122 Q71.9479 110.544 72.4574 109.253 Q72.9669 107.929 72.9669 105.823 Q72.9669 102.052 69.8759 99.7427 Q66.7849 97.399 62.1993 97.399 L49.8013 97.399 Q47.2198 97.399 46.5745 98.3161 Q45.9291 99.2332 45.9291 102.834 L43.7552 102.834 L43.0079 92.6096 L67.702 92.6096 Q70.2835 92.6096 70.9629 91.7265 Q71.6082 90.8093 71.6082 87.1749 L73.7482 87.1749 L74.5294 97.1952 L68.2455 97.1952 Q74.4954 100.116 74.5294 106.162 Q74.5294 109.22 73.7482 111.325 Q72.9669 113.397 72.0158 114.45 Q71.0308 115.503 69.1626 116.081 Q67.2944 116.624 66.1395 116.692 Q64.9846 116.76 62.7428 116.76 L52.3149 116.76 Q47.5935 116.76 46.7783 117.44 Q45.9291 118.119 45.9291 122.161 Z" fill="#000000" fill-rule="evenodd" fill-opacity="1" /><path clip-path="url(#clip930)" d="M73.7482 83.5743 L71.6082 83.5743 Q71.6082 79.8719 71.1667 79.0228 Q70.6911 78.1736 68.4493 78.1736 L49.8013 78.1736 Q47.2198 78.1736 46.5745 79.0907 Q45.9291 79.9738 45.9291 83.5743 L43.7552 83.5743 L43.0079 73.7918 L50.3108 73.7918 Q43.0079 70.531 43.0079 63.4998 Q43.0079 58.2688 45.5894 56.1968 Q47.3217 54.6683 49.2579 54.3626 Q51.194 54.023 56.2211 54.023 L69.5023 54.023 Q70.9629 53.955 71.3025 52.8341 Q71.6082 51.7132 71.6082 48.5882 L73.7482 48.5882 Q73.5444 55.6873 73.5444 56.4007 Q73.5444 56.9441 73.7482 64.2471 L71.6082 64.2471 Q71.6082 60.5446 71.1667 59.6955 Q70.6911 58.8123 68.4493 58.8123 L52.247 58.8123 Q48.7144 58.8123 46.6424 59.8993 Q44.5364 60.9862 44.5364 63.9753 Q44.5364 67.5758 47.5595 70.463 Q50.5826 73.3502 55.6776 73.3502 L68.4493 73.3502 Q70.6911 73.3502 71.1667 72.5011 Q71.6082 71.6179 71.6082 67.9495 L73.7482 67.9495 Q73.5444 75.0486 73.5444 75.7279 Q73.5444 76.2714 73.7482 83.5743 Z" fill="#000000" fill-rule="evenodd" fill-opacity="1" /><path clip-path="url(#clip930)" d="M72.831 44.9198 L63.6599 44.9198 Q62.8787 44.9198 62.6069 44.8858 Q62.3352 44.8518 62.1314 44.648 Q61.9276 44.4442 61.9276 44.0366 Q61.9276 43.5611 62.1314 43.3912 Q62.3352 43.1874 63.1164 43.0516 Q67.9058 41.9986 70.4533 39.7568 Q72.9669 37.481 72.9669 33.3709 Q72.9669 29.4647 71.2346 27.4946 Q69.5023 25.5245 66.649 25.5245 Q61.554 25.5245 60.2632 32.7595 Q59.414 36.9375 58.8706 38.6698 Q58.2931 40.4021 57.0363 41.9307 Q54.5907 44.9198 51.1261 44.9198 Q47.6614 44.9198 45.1139 42.3043 Q42.5663 39.6549 42.5663 33.8125 Q42.5663 29.9063 44.5364 27.2569 Q43.925 26.4756 43.4155 26.068 Q42.5663 25.1509 42.5663 24.6754 Q42.5663 24.1319 42.94 24.03 Q43.2797 23.9281 44.2647 23.9281 L51.2619 23.9281 Q52.0432 23.9281 52.3149 23.9621 Q52.5866 23.996 52.7904 24.1998 Q52.9603 24.4036 52.9603 24.8452 Q52.9603 25.6264 52.3149 25.6604 Q43.8911 26.2039 43.8911 33.8125 Q43.8911 37.9225 45.4875 39.7568 Q47.05 41.591 49.1899 41.591 Q50.3788 41.591 51.2959 41.0475 Q52.179 40.4701 52.7225 39.7568 Q53.232 39.0095 53.7415 37.6508 Q54.2171 36.2921 54.3869 35.4769 Q54.5567 34.6277 54.8964 33.0313 Q55.9494 27.4607 58.2252 25.1169 Q61.1464 22.1958 64.8488 22.1958 Q68.9588 22.1958 71.7441 24.9811 Q74.5294 27.7664 74.5294 33.3709 Q74.5294 37.8886 71.5063 41.0475 Q71.9139 41.4551 72.2876 41.7608 Q72.6272 42.0665 72.7631 42.2024 Q72.899 42.3043 73.0009 42.3383 Q73.0688 42.3722 73.1367 42.4402 Q74.5294 43.8328 74.5294 44.1725 Q74.5294 44.716 74.1558 44.8179 Q73.8161 44.9198 72.831 44.9198 Z" fill="#000000" fill-rule="evenodd" fill-opacity="1" /><path clip-path="url(#clip932)" d="
M182.817 247.232 L182.817 407.705 L227.346 407.705 L227.346 247.232 L182.817 247.232 L182.817 247.232  Z
  " fill="#3498db" fill-rule="evenodd" fill-opacity="1"/>
<polyline clip-path="url(#clip932)" style="stroke:#3498db; stroke-linecap:round; stroke-linejoin:round; stroke-width:4; stroke-opacity:1; fill:none" points="
  182.817,247.232 182.817,407.705 227.346,407.705 227.346,247.232 182.817,247.232 
  "/>
<path clip-path="url(#clip932)" d="
M349.8 333.686 L349.8 407.705 L394.329 407.705 L394.329 333.686 L349.8 333.686 L349.8 333.686  Z
  " fill="#3498db" fill-rule="evenodd" fill-opacity="1"/>
<polyline clip-path="url(#clip932)" style="stroke:#3498db; stroke-linecap:round; stroke-linejoin:round; stroke-width:4; stroke-opacity:1; fill:none" points="
  349.8,333.686 349.8,407.705 394.329,407.705 394.329,333.686 349.8,333.686 
  "/>
<path clip-path="url(#clip932)" d="
M516.783 57.743 L516.783 407.705 L561.312 407.705 L561.312 57.743 L516.783 57.743 L516.783 57.743  Z
  " fill="#3498db" fill-rule="evenodd" fill-opacity="1"/>
<polyline clip-path="url(#clip932)" style="stroke:#3498db; stroke-linecap:round; stroke-linejoin:round; stroke-width:4; stroke-opacity:1; fill:none" points="
  516.783,57.743 516.783,407.705 561.312,407.705 561.312,57.743 516.783,57.743 
  "/>
<path clip-path="url(#clip932)" d="
M683.766 407.705 L683.766 407.705 L728.294 407.705 L728.294 407.705 L683.766 407.705 L683.766 407.705  Z
  " fill="#3498db" fill-rule="evenodd" fill-opacity="1"/>
<polyline clip-path="url(#clip932)" style="stroke:#3498db; stroke-linecap:round; stroke-linejoin:round; stroke-width:4; stroke-opacity:1; fill:none" points="
  683.766,407.705 683.766,407.705 728.294,407.705 683.766,407.705 
  "/>
<circle clip-path="url(#clip932)" style="fill:#3498db; stroke:none; fill-opacity:0" cx="205.081" cy="247.232" r="2"/>
<circle clip-path="url(#clip932)" style="fill:#3498db; stroke:none; fill-opacity:0" cx="372.064" cy="333.686" r="2"/>
<circle clip-path="url(#clip932)" style="fill:#3498db; stroke:none; fill-opacity:0" cx="539.047" cy="57.743" r="2"/>
<circle clip-path="url(#clip932)" style="fill:#3498db; stroke:none; fill-opacity:0" cx="706.03" cy="407.705" r="2"/>
<path clip-path="url(#clip932)" d="
M227.346 407.705 L227.346 407.705 L271.875 407.705 L271.875 407.705 L227.346 407.705 L227.346 407.705  Z
  " fill="#2ecc71" fill-rule="evenodd" fill-opacity="1"/>
<polyline clip-path="url(#clip932)" style="stroke:#2ecc71; stroke-linecap:round; stroke-linejoin:round; stroke-width:4; stroke-opacity:1; fill:none" points="
  227.346,407.705 227.346,407.705 271.875,407.705 227.346,407.705 
  "/>
<path clip-path="url(#clip932)" d="
M394.329 352.043 L394.329 407.705 L438.857 407.705 L438.857 352.043 L394.329 352.043 L394.329 352.043  Z
  " fill="#2ecc71" fill-rule="evenodd" fill-opacity="1"/>
<polyline clip-path="url(#clip932)" style="stroke:#2ecc71; stroke-linecap:round; stroke-linejoin:round; stroke-width:4; stroke-opacity:1; fill:none" points="
  394.329,352.043 394.329,407.705 438.857,407.705 438.857,352.043 394.329,352.043 
  "/>
<path clip-path="url(#clip932)" d="
M561.312 407.705 L561.312 407.705 L605.84 407.705 L605.84 407.705 L561.312 407.705 L561.312 407.705  Z
  " fill="#2ecc71" fill-rule="evenodd" fill-opacity="1"/>
<polyline clip-path="url(#clip932)" style="stroke:#2ecc71; stroke-linecap:round; stroke-linejoin:round; stroke-width:4; stroke-opacity:1; fill:none" points="
  561.312,407.705 561.312,407.705 605.84,407.705 561.312,407.705 
  "/>
<path clip-path="url(#clip932)" d="
M728.294 407.705 L728.294 407.705 L772.823 407.705 L772.823 407.705 L728.294 407.705 L728.294 407.705  Z
  " fill="#2ecc71" fill-rule="evenodd" fill-opacity="1"/>
<polyline clip-path="url(#clip932)" style="stroke:#2ecc71; stroke-linecap:round; stroke-linejoin:round; stroke-width:4; stroke-opacity:1; fill:none" points="
  728.294,407.705 728.294,407.705 772.823,407.705 728.294,407.705 
  "/>
<circle clip-path="url(#clip932)" style="fill:#2ecc71; stroke:none; fill-opacity:0" cx="249.61" cy="407.705" r="2"/>
<circle clip-path="url(#clip932)" style="fill:#2ecc71; stroke:none; fill-opacity:0" cx="416.593" cy="352.043" r="2"/>
<circle clip-path="url(#clip932)" style="fill:#2ecc71; stroke:none; fill-opacity:0" cx="583.576" cy="407.705" r="2"/>
<circle clip-path="url(#clip932)" style="fill:#2ecc71; stroke:none; fill-opacity:0" cx="750.559" cy="407.705" r="2"/>
<path clip-path="url(#clip932)" d="
M271.875 407.113 L271.875 407.705 L316.403 407.705 L316.403 407.113 L271.875 407.113 L271.875 407.113  Z
  " fill="#9b59b6" fill-rule="evenodd" fill-opacity="1"/>
<polyline clip-path="url(#clip932)" style="stroke:#9b59b6; stroke-linecap:round; stroke-linejoin:round; stroke-width:4; stroke-opacity:1; fill:none" points="
  271.875,407.113 271.875,407.705 316.403,407.705 316.403,407.113 271.875,407.113 
  "/>
<path clip-path="url(#clip932)" d="
M438.857 407.113 L438.857 407.705 L483.386 407.705 L483.386 407.113 L438.857 407.113 L438.857 407.113  Z
  " fill="#9b59b6" fill-rule="evenodd" fill-opacity="1"/>
<polyline clip-path="url(#clip932)" style="stroke:#9b59b6; stroke-linecap:round; stroke-linejoin:round; stroke-width:4; stroke-opacity:1; fill:none" points="
  438.857,407.113 438.857,407.705 483.386,407.705 483.386,407.113 438.857,407.113 
  "/>
<path clip-path="url(#clip932)" d="
M605.84 407.705 L605.84 407.705 L650.369 407.705 L650.369 407.705 L605.84 407.705 L605.84 407.705  Z
  " fill="#9b59b6" fill-rule="evenodd" fill-opacity="1"/>
<polyline clip-path="url(#clip932)" style="stroke:#9b59b6; stroke-linecap:round; stroke-linejoin:round; stroke-width:4; stroke-opacity:1; fill:none" points="
  605.84,407.705 605.84,407.705 650.369,407.705 605.84,407.705 
  "/>
<path clip-path="url(#clip932)" d="
M772.823 407.705 L772.823 407.705 L817.352 407.705 L817.352 407.705 L772.823 407.705 L772.823 407.705  Z
  " fill="#9b59b6" fill-rule="evenodd" fill-opacity="1"/>
<polyline clip-path="url(#clip932)" style="stroke:#9b59b6; stroke-linecap:round; stroke-linejoin:round; stroke-width:4; stroke-opacity:1; fill:none" points="
  772.823,407.705 772.823,407.705 817.352,407.705 772.823,407.705 
  "/>
<circle clip-path="url(#clip932)" style="fill:#9b59b6; stroke:none; fill-opacity:0" cx="294.139" cy="407.113" r="2"/>
<circle clip-path="url(#clip932)" style="fill:#9b59b6; stroke:none; fill-opacity:0" cx="461.122" cy="407.113" r="2"/>
<circle clip-path="url(#clip932)" style="fill:#9b59b6; stroke:none; fill-opacity:0" cx="628.105" cy="407.705" r="2"/>
<circle clip-path="url(#clip932)" style="fill:#9b59b6; stroke:none; fill-opacity:0" cx="795.088" cy="407.705" r="2"/>
<path clip-path="url(#clip930)" d="
M887.278 322.849 L1152.76 322.849 L1152.76 115.489 L887.278 115.489  Z
  " fill="#ffffff" fill-rule="evenodd" fill-opacity="1"/>
<polyline clip-path="url(#clip930)" style="stroke:#000000; stroke-linecap:round; stroke-linejoin:round; stroke-width:4; stroke-opacity:1; fill:none" points="
  887.278,322.849 1152.76,322.849 1152.76,115.489 887.278,115.489 887.278,322.849 
  "/>
<path clip-path="url(#clip930)" d="
M898.46 188.065 L965.548 188.065 L965.548 146.593 L898.46 146.593 L898.46 188.065  Z
  " fill="#3498db" fill-rule="evenodd" fill-opacity="1"/>
<polyline clip-path="url(#clip930)" style="stroke:#3498db; stroke-linecap:round; stroke-linejoin:round; stroke-width:4; stroke-opacity:1; fill:none" points="
  898.46,188.065 965.548,188.065 965.548,146.593 898.46,146.593 898.46,188.065 
  "/>
<path clip-path="url(#clip930)" d="M976.729 173.74 Q976.729 168.923 980.089 165.588 Q983.448 162.253 987.994 162.253 Q991.847 162.253 994.367 165.39 L994.367 154.446 Q994.367 152.569 993.7 152.1 Q993.058 151.63 990.439 151.63 L990.439 150.049 L997.727 149.506 L997.727 180.212 Q997.727 182.09 998.369 182.584 Q999.036 183.053 1001.65 183.053 L1001.65 184.609 L994.219 185.177 L994.219 181.818 Q991.6 185.153 987.45 185.177 Q983.103 185.177 979.916 181.843 Q976.729 178.508 976.729 173.74 M980.929 173.789 Q980.929 178.483 982.386 180.805 Q984.412 184.041 987.697 184.041 Q991.452 184.041 993.676 180.509 Q994.244 179.644 994.219 178.631 L994.219 168.256 Q994.219 167.243 993.676 166.403 Q991.6 163.364 988.216 163.364 Q984.684 163.364 982.485 166.601 Q980.929 169.021 980.929 173.789 Z" fill="#000000" fill-rule="evenodd" fill-opacity="1" /><path clip-path="url(#clip930)" d="M1005.95 176.927 Q1006 176.309 1006.97 176.309 L1037.97 176.309 Q1039.43 176.309 1039.45 176.877 Q1039.45 177.495 1038.07 177.47 L1007.31 177.47 Q1005.95 177.495 1005.95 176.927 M1005.95 167.045 Q1005.95 166.428 1007.02 166.452 L1037.92 166.452 Q1039.43 166.452 1039.45 167.045 Q1039.45 167.613 1038.17 167.613 L1006.97 167.613 Q1005.95 167.613 1005.95 167.045 Z" fill="#000000" fill-rule="evenodd" fill-opacity="1" /><path clip-path="url(#clip930)" d="M1046.91 155.731 L1046.91 154.15 Q1052.99 154.15 1056.13 150.914 Q1056.99 150.914 1057.14 151.112 Q1057.29 151.309 1057.29 152.223 L1057.29 180.607 Q1057.29 182.114 1058.03 182.584 Q1058.77 183.053 1062.01 183.053 L1063.61 183.053 L1063.61 184.609 Q1061.83 184.461 1055.41 184.461 Q1048.99 184.461 1047.23 184.609 L1047.23 183.053 L1048.84 183.053 Q1052.02 183.053 1052.79 182.608 Q1053.56 182.139 1053.56 180.607 L1053.56 154.397 Q1050.91 155.731 1046.91 155.731 Z" fill="#000000" fill-rule="evenodd" fill-opacity="1" /><path clip-path="url(#clip930)" d="M1069.69 168.429 Q1069.69 160.993 1071.57 156.942 Q1074.18 150.914 1080.36 150.914 Q1081.67 150.914 1083.03 151.284 Q1084.41 151.63 1086.14 152.989 Q1087.89 154.348 1088.96 156.571 Q1090.98 160.869 1090.98 168.429 Q1090.98 175.815 1089.1 179.842 Q1086.36 185.721 1080.31 185.721 Q1078.04 185.721 1075.72 184.56 Q1073.42 183.399 1071.96 180.607 Q1069.69 176.432 1069.69 168.429 M1073.89 167.811 Q1073.89 175.444 1074.43 178.483 Q1075.05 181.768 1076.73 183.201 Q1078.43 184.609 1080.31 184.609 Q1082.34 184.609 1084.02 183.102 Q1085.72 181.571 1086.24 178.285 Q1086.81 175.049 1086.78 167.811 Q1086.78 160.771 1086.29 157.954 Q1085.62 154.669 1083.84 153.36 Q1082.09 152.026 1080.31 152.026 Q1079.64 152.026 1078.93 152.223 Q1078.24 152.421 1077.22 152.989 Q1076.21 153.557 1075.42 154.965 Q1074.65 156.373 1074.28 158.498 Q1073.89 161.24 1073.89 167.811 Z" fill="#000000" fill-rule="evenodd" fill-opacity="1" /><path clip-path="url(#clip930)" d="
M898.46 239.905 L965.548 239.905 L965.548 198.433 L898.46 198.433 L898.46 239.905  Z
  " fill="#2ecc71" fill-rule="evenodd" fill-opacity="1"/>
<polyline clip-path="url(#clip930)" style="stroke:#2ecc71; stroke-linecap:round; stroke-linejoin:round; stroke-width:4; stroke-opacity:1; fill:none" points="
  898.46,239.905 965.548,239.905 965.548,198.433 898.46,198.433 898.46,239.905 
  "/>
<path clip-path="url(#clip930)" d="M976.729 225.58 Q976.729 220.763 980.089 217.428 Q983.448 214.093 987.994 214.093 Q991.847 214.093 994.367 217.23 L994.367 206.286 Q994.367 204.409 993.7 203.94 Q993.058 203.47 990.439 203.47 L990.439 201.889 L997.727 201.346 L997.727 232.052 Q997.727 233.93 998.369 234.424 Q999.036 234.893 1001.65 234.893 L1001.65 236.449 L994.219 237.017 L994.219 233.658 Q991.6 236.993 987.45 237.017 Q983.103 237.017 979.916 233.683 Q976.729 230.348 976.729 225.58 M980.929 225.629 Q980.929 230.323 982.386 232.645 Q984.412 235.881 987.697 235.881 Q991.452 235.881 993.676 232.349 Q994.244 231.484 994.219 230.471 L994.219 220.096 Q994.219 219.083 993.676 218.243 Q991.6 215.204 988.216 215.204 Q984.684 215.204 982.485 218.441 Q980.929 220.861 980.929 225.629 Z" fill="#000000" fill-rule="evenodd" fill-opacity="1" /><path clip-path="url(#clip930)" d="M1005.95 228.767 Q1006 228.149 1006.97 228.149 L1037.97 228.149 Q1039.43 228.149 1039.45 228.717 Q1039.45 229.335 1038.07 229.31 L1007.31 229.31 Q1005.95 229.335 1005.95 228.767 M1005.95 218.885 Q1005.95 218.268 1007.02 218.292 L1037.92 218.292 Q1039.43 218.292 1039.45 218.885 Q1039.45 219.453 1038.17 219.453 L1006.97 219.453 Q1005.95 219.453 1005.95 218.885 Z" fill="#000000" fill-rule="evenodd" fill-opacity="1" /><path clip-path="url(#clip930)" d="M1046.91 207.571 L1046.91 205.99 Q1052.99 205.99 1056.13 202.754 Q1056.99 202.754 1057.14 202.952 Q1057.29 203.149 1057.29 204.063 L1057.29 232.447 Q1057.29 233.954 1058.03 234.424 Q1058.77 234.893 1062.01 234.893 L1063.61 234.893 L1063.61 236.449 Q1061.83 236.301 1055.41 236.301 Q1048.99 236.301 1047.23 236.449 L1047.23 234.893 L1048.84 234.893 Q1052.02 234.893 1052.79 234.448 Q1053.56 233.979 1053.56 232.447 L1053.56 206.237 Q1050.91 207.571 1046.91 207.571 Z" fill="#000000" fill-rule="evenodd" fill-opacity="1" /><path clip-path="url(#clip930)" d="M1069.69 220.269 Q1069.69 212.833 1071.57 208.782 Q1074.18 202.754 1080.36 202.754 Q1081.67 202.754 1083.03 203.124 Q1084.41 203.47 1086.14 204.829 Q1087.89 206.188 1088.96 208.411 Q1090.98 212.709 1090.98 220.269 Q1090.98 227.655 1089.1 231.682 Q1086.36 237.561 1080.31 237.561 Q1078.04 237.561 1075.72 236.4 Q1073.42 235.239 1071.96 232.447 Q1069.69 228.272 1069.69 220.269 M1073.89 219.651 Q1073.89 227.284 1074.43 230.323 Q1075.05 233.608 1076.73 235.041 Q1078.43 236.449 1080.31 236.449 Q1082.34 236.449 1084.02 234.942 Q1085.72 233.411 1086.24 230.125 Q1086.81 226.889 1086.78 219.651 Q1086.78 212.611 1086.29 209.794 Q1085.62 206.509 1083.84 205.2 Q1082.09 203.866 1080.31 203.866 Q1079.64 203.866 1078.93 204.063 Q1078.24 204.261 1077.22 204.829 Q1076.21 205.397 1075.42 206.805 Q1074.65 208.213 1074.28 210.338 Q1073.89 213.08 1073.89 219.651 Z" fill="#000000" fill-rule="evenodd" fill-opacity="1" /><path clip-path="url(#clip930)" d="M1094.98 220.269 Q1094.98 212.833 1096.86 208.782 Q1099.48 202.754 1105.66 202.754 Q1106.97 202.754 1108.32 203.124 Q1109.71 203.47 1111.44 204.829 Q1113.19 206.188 1114.25 208.411 Q1116.28 212.709 1116.28 220.269 Q1116.28 227.655 1114.4 231.682 Q1111.66 237.561 1105.61 237.561 Q1103.33 237.561 1101.01 236.4 Q1098.71 235.239 1097.26 232.447 Q1094.98 228.272 1094.98 220.269 M1099.18 219.651 Q1099.18 227.284 1099.73 230.323 Q1100.34 233.608 1102.02 235.041 Q1103.73 236.449 1105.61 236.449 Q1107.63 236.449 1109.31 234.942 Q1111.02 233.411 1111.54 230.125 Q1112.1 226.889 1112.08 219.651 Q1112.08 212.611 1111.58 209.794 Q1110.92 206.509 1109.14 205.2 Q1107.39 203.866 1105.61 203.866 Q1104.94 203.866 1104.22 204.063 Q1103.53 204.261 1102.52 204.829 Q1101.51 205.397 1100.72 206.805 Q1099.95 208.213 1099.58 210.338 Q1099.18 213.08 1099.18 219.651 Z" fill="#000000" fill-rule="evenodd" fill-opacity="1" /><path clip-path="url(#clip930)" d="
M898.46 291.745 L965.548 291.745 L965.548 250.273 L898.46 250.273 L898.46 291.745  Z
  " fill="#9b59b6" fill-rule="evenodd" fill-opacity="1"/>
<polyline clip-path="url(#clip930)" style="stroke:#9b59b6; stroke-linecap:round; stroke-linejoin:round; stroke-width:4; stroke-opacity:1; fill:none" points="
  898.46,291.745 965.548,291.745 965.548,250.273 898.46,250.273 898.46,291.745 
  "/>
<path clip-path="url(#clip930)" d="M976.729 277.42 Q976.729 272.603 980.089 269.268 Q983.448 265.933 987.994 265.933 Q991.847 265.933 994.367 269.07 L994.367 258.126 Q994.367 256.249 993.7 255.78 Q993.058 255.31 990.439 255.31 L990.439 253.729 L997.727 253.186 L997.727 283.892 Q997.727 285.77 998.369 286.264 Q999.036 286.733 1001.65 286.733 L1001.65 288.289 L994.219 288.857 L994.219 285.498 Q991.6 288.833 987.45 288.857 Q983.103 288.857 979.916 285.523 Q976.729 282.188 976.729 277.42 M980.929 277.469 Q980.929 282.163 982.386 284.485 Q984.412 287.721 987.697 287.721 Q991.452 287.721 993.676 284.189 Q994.244 283.324 994.219 282.311 L994.219 271.936 Q994.219 270.923 993.676 270.083 Q991.6 267.044 988.216 267.044 Q984.684 267.044 982.485 270.281 Q980.929 272.701 980.929 277.469 Z" fill="#000000" fill-rule="evenodd" fill-opacity="1" /><path clip-path="url(#clip930)" d="M1005.95 280.607 Q1006 279.989 1006.97 279.989 L1037.97 279.989 Q1039.43 279.989 1039.45 280.557 Q1039.45 281.175 1038.07 281.15 L1007.31 281.15 Q1005.95 281.175 1005.95 280.607 M1005.95 270.725 Q1005.95 270.108 1007.02 270.132 L1037.92 270.132 Q1039.43 270.132 1039.45 270.725 Q1039.45 271.293 1038.17 271.293 L1006.97 271.293 Q1005.95 271.293 1005.95 270.725 Z" fill="#000000" fill-rule="evenodd" fill-opacity="1" /><path clip-path="url(#clip930)" d="M1046.91 259.411 L1046.91 257.83 Q1052.99 257.83 1056.13 254.594 Q1056.99 254.594 1057.14 254.792 Q1057.29 254.989 1057.29 255.903 L1057.29 284.287 Q1057.29 285.794 1058.03 286.264 Q1058.77 286.733 1062.01 286.733 L1063.61 286.733 L1063.61 288.289 Q1061.83 288.141 1055.41 288.141 Q1048.99 288.141 1047.23 288.289 L1047.23 286.733 L1048.84 286.733 Q1052.02 286.733 1052.79 286.288 Q1053.56 285.819 1053.56 284.287 L1053.56 258.077 Q1050.91 259.411 1046.91 259.411 Z" fill="#000000" fill-rule="evenodd" fill-opacity="1" /><path clip-path="url(#clip930)" d="M1069.69 272.109 Q1069.69 264.673 1071.57 260.622 Q1074.18 254.594 1080.36 254.594 Q1081.67 254.594 1083.03 254.964 Q1084.41 255.31 1086.14 256.669 Q1087.89 258.028 1088.96 260.251 Q1090.98 264.549 1090.98 272.109 Q1090.98 279.495 1089.1 283.522 Q1086.36 289.401 1080.31 289.401 Q1078.04 289.401 1075.72 288.24 Q1073.42 287.079 1071.96 284.287 Q1069.69 280.112 1069.69 272.109 M1073.89 271.491 Q1073.89 279.124 1074.43 282.163 Q1075.05 285.448 1076.73 286.881 Q1078.43 288.289 1080.31 288.289 Q1082.34 288.289 1084.02 286.782 Q1085.72 285.251 1086.24 281.965 Q1086.81 278.729 1086.78 271.491 Q1086.78 264.451 1086.29 261.634 Q1085.62 258.349 1083.84 257.04 Q1082.09 255.706 1080.31 255.706 Q1079.64 255.706 1078.93 255.903 Q1078.24 256.101 1077.22 256.669 Q1076.21 257.237 1075.42 258.645 Q1074.65 260.053 1074.28 262.178 Q1073.89 264.92 1073.89 271.491 Z" fill="#000000" fill-rule="evenodd" fill-opacity="1" /><path clip-path="url(#clip930)" d="M1094.98 272.109 Q1094.98 264.673 1096.86 260.622 Q1099.48 254.594 1105.66 254.594 Q1106.97 254.594 1108.32 254.964 Q1109.71 255.31 1111.44 256.669 Q1113.19 258.028 1114.25 260.251 Q1116.28 264.549 1116.28 272.109 Q1116.28 279.495 1114.4 283.522 Q1111.66 289.401 1105.61 289.401 Q1103.33 289.401 1101.01 288.24 Q1098.71 287.079 1097.26 284.287 Q1094.98 280.112 1094.98 272.109 M1099.18 271.491 Q1099.18 279.124 1099.73 282.163 Q1100.34 285.448 1102.02 286.881 Q1103.73 288.289 1105.61 288.289 Q1107.63 288.289 1109.31 286.782 Q1111.02 285.251 1111.54 281.965 Q1112.1 278.729 1112.08 271.491 Q1112.08 264.451 1111.58 261.634 Q1110.92 258.349 1109.14 257.04 Q1107.39 255.706 1105.61 255.706 Q1104.94 255.706 1104.22 255.903 Q1103.53 256.101 1102.52 256.669 Q1101.51 257.237 1100.72 258.645 Q1099.95 260.053 1099.58 262.178 Q1099.18 264.92 1099.18 271.491 Z" fill="#000000" fill-rule="evenodd" fill-opacity="1" /><path clip-path="url(#clip930)" d="M1120.28 272.109 Q1120.28 264.673 1122.16 260.622 Q1124.78 254.594 1130.95 254.594 Q1132.26 254.594 1133.62 254.964 Q1135 255.31 1136.73 256.669 Q1138.49 258.028 1139.55 260.251 Q1141.57 264.549 1141.57 272.109 Q1141.57 279.495 1139.7 283.522 Q1136.96 289.401 1130.9 289.401 Q1128.63 289.401 1126.31 288.24 Q1124.01 287.079 1122.55 284.287 Q1120.28 280.112 1120.28 272.109 M1124.48 271.491 Q1124.48 279.124 1125.02 282.163 Q1125.64 285.448 1127.32 286.881 Q1129.03 288.289 1130.9 288.289 Q1132.93 288.289 1134.61 286.782 Q1136.31 285.251 1136.83 281.965 Q1137.4 278.729 1137.37 271.491 Q1137.37 264.451 1136.88 261.634 Q1136.21 258.349 1134.44 257.04 Q1132.68 255.706 1130.9 255.706 Q1130.24 255.706 1129.52 255.903 Q1128.83 256.101 1127.81 256.669 Q1126.8 257.237 1126.01 258.645 Q1125.25 260.053 1124.88 262.178 Q1124.48 264.92 1124.48 271.491 Z" fill="#000000" fill-rule="evenodd" fill-opacity="1" /></svg>
