<?xml version="1.0" encoding="UTF-8" standalone="no"?>
<svg
   width="209.7215"
   height="199.0925"
   viewBox="0 0 838.88599 796.37"
   version="1.1"
   id="svg227"
   sodipodi:docname="RWExample.svg"
   inkscape:version="1.1.2 (0a00cf5339, 2022-02-04)"
   xmlns:inkscape="http://www.inkscape.org/namespaces/inkscape"
   xmlns:sodipodi="http://sodipodi.sourceforge.net/DTD/sodipodi-0.dtd"
   xmlns="http://www.w3.org/2000/svg"
   xmlns:svg="http://www.w3.org/2000/svg">
  <sodipodi:namedview
     id="namedview229"
     pagecolor="#ffffff"
     bordercolor="#000000"
     borderopacity="0.25"
     inkscape:pageshadow="2"
     inkscape:pageopacity="0.0"
     inkscape:pagecheckerboard="0"
     showgrid="false"
     inkscape:zoom="3.9433333"
     inkscape:cx="147.21048"
     inkscape:cy="108.53762"
     inkscape:window-width="2560"
     inkscape:window-height="1371"
     inkscape:window-x="0"
     inkscape:window-y="40"
     inkscape:window-maximized="1"
     inkscape:current-layer="svg227" />
  <defs
     id="defs5">
    <clipPath
       id="clip960">
      <rect
         x="0"
         y="0"
         width="1200"
         height="880"
         id="rect2" />
    </clipPath>
  </defs>
  <defs
     id="defs12">
    <clipPath
       id="clip961">
      <rect
         x="240"
         y="0"
         width="841"
         height="841"
         id="rect9" />
    </clipPath>
  </defs>
  <path
     clip-path="url(#clip960)"
     d="M 363.392,702.172 H 1018.32 V 47.2441 H 363.392 Z"
     fill="#ffffff"
     fill-rule="evenodd"
     fill-opacity="1"
     id="path14"
     transform="translate(-180.114,-47)" />
  <defs
     id="defs19">
    <clipPath
       id="clip962">
      <rect
         x="363"
         y="47"
         width="656"
         height="656"
         id="rect16" />
    </clipPath>
  </defs>
  <polyline
     clip-path="url(#clip962)"
     style="fill:none;stroke:#000000;stroke-width:2;stroke-linecap:butt;stroke-linejoin:round;stroke-opacity:0.1"
     points="   363.392,702.172 363.392,47.2441    "
     id="polyline21"
     transform="translate(-180.114,-47)" />
  <polyline
     clip-path="url(#clip962)"
     style="fill:none;stroke:#000000;stroke-width:2;stroke-linecap:butt;stroke-linejoin:round;stroke-opacity:0.1"
     points="   499.835,702.172 499.835,47.2441    "
     id="polyline23"
     transform="translate(-180.114,-47)" />
  <polyline
     clip-path="url(#clip962)"
     style="fill:none;stroke:#000000;stroke-width:2;stroke-linecap:butt;stroke-linejoin:round;stroke-opacity:0.1"
     points="   636.278,702.172 636.278,47.2441    "
     id="polyline25"
     transform="translate(-180.114,-47)" />
  <polyline
     clip-path="url(#clip962)"
     style="fill:none;stroke:#000000;stroke-width:2;stroke-linecap:butt;stroke-linejoin:round;stroke-opacity:0.1"
     points="   772.721,702.172 772.721,47.2441    "
     id="polyline27"
     transform="translate(-180.114,-47)" />
  <polyline
     clip-path="url(#clip962)"
     style="fill:none;stroke:#000000;stroke-width:2;stroke-linecap:butt;stroke-linejoin:round;stroke-opacity:0.1"
     points="   909.165,702.172 909.165,47.2441    "
     id="polyline29"
     transform="translate(-180.114,-47)" />
  <polyline
     clip-path="url(#clip960)"
     style="fill:none;stroke:#000000;stroke-width:4;stroke-linecap:butt;stroke-linejoin:round;stroke-opacity:1"
     points="   363.392,702.172 1018.32,702.172    "
     id="polyline31"
     transform="translate(-180.114,-47)" />
  <polyline
     clip-path="url(#clip960)"
     style="fill:none;stroke:#000000;stroke-width:4;stroke-linecap:butt;stroke-linejoin:round;stroke-opacity:1"
     points="   363.392,702.172 363.392,683.274    "
     id="polyline33"
     transform="translate(-180.114,-47)" />
  <polyline
     clip-path="url(#clip960)"
     style="fill:none;stroke:#000000;stroke-width:4;stroke-linecap:butt;stroke-linejoin:round;stroke-opacity:1"
     points="   499.835,702.172 499.835,683.274    "
     id="polyline35"
     transform="translate(-180.114,-47)" />
  <polyline
     clip-path="url(#clip960)"
     style="fill:none;stroke:#000000;stroke-width:4;stroke-linecap:butt;stroke-linejoin:round;stroke-opacity:1"
     points="   636.278,702.172 636.278,683.274    "
     id="polyline37"
     transform="translate(-180.114,-47)" />
  <polyline
     clip-path="url(#clip960)"
     style="fill:none;stroke:#000000;stroke-width:4;stroke-linecap:butt;stroke-linejoin:round;stroke-opacity:1"
     points="   772.721,702.172 772.721,683.274    "
     id="polyline39"
     transform="translate(-180.114,-47)" />
  <polyline
     clip-path="url(#clip960)"
     style="fill:none;stroke:#000000;stroke-width:4;stroke-linecap:butt;stroke-linejoin:round;stroke-opacity:1"
     points="   909.165,702.172 909.165,683.274    "
     id="polyline41"
     transform="translate(-180.114,-47)" />
  <path
     clip-path="url(#clip960)"
     d="m 320.42,738.791 q 0,-7.436 1.878,-11.487 2.618,-6.028 8.794,-6.028 1.309,0 2.668,0.371 1.383,0.346 3.113,1.705 1.754,1.358 2.816,3.582 2.025,4.298 2.025,11.857 0,7.386 -1.877,11.413 -2.742,5.879 -8.794,5.879 -2.273,0 -4.595,-1.161 -2.298,-1.161 -3.755,-3.952 -2.273,-4.175 -2.273,-12.179 m 4.2,-0.617 q 0,7.633 0.543,10.671 0.618,3.286 2.298,4.719 1.704,1.408 3.582,1.408 2.025,0 3.705,-1.507 1.705,-1.532 2.223,-4.817 0.569,-3.236 0.544,-10.474 0,-7.041 -0.494,-9.857 -0.667,-3.286 -2.446,-4.595 -1.754,-1.334 -3.532,-1.334 -0.667,0 -1.384,0.198 -0.691,0.197 -1.704,0.766 -1.013,0.568 -1.804,1.976 -0.765,1.408 -1.136,3.532 -0.395,2.742 -0.395,9.314 z"
     fill="#000000"
     fill-rule="evenodd"
     fill-opacity="1"
     id="path43"
     transform="translate(-180.114,-47)" />
  <path
     clip-path="url(#clip960)"
     d="m 348.804,754.157 q -0.765,-0.816 -0.765,-1.878 0,-1.062 0.765,-1.828 0.766,-0.79 1.927,-0.79 1.112,0 1.853,0.741 0.766,0.716 0.766,1.902 0,1.161 -0.815,1.927 -0.791,0.741 -1.804,0.741 -1.161,0 -1.927,-0.815 z"
     fill="#000000"
     fill-rule="evenodd"
     fill-opacity="1"
     id="path45"
     transform="translate(-180.114,-47)" />
  <path
     clip-path="url(#clip960)"
     d="m 359.773,738.791 q 0,-7.436 1.877,-11.487 2.619,-6.028 8.794,-6.028 1.31,0 2.668,0.371 1.384,0.346 3.113,1.705 1.754,1.358 2.816,3.582 2.026,4.298 2.026,11.857 0,7.386 -1.878,11.413 -2.742,5.879 -8.794,5.879 -2.273,0 -4.595,-1.161 -2.297,-1.161 -3.755,-3.952 -2.272,-4.175 -2.272,-12.179 m 4.199,-0.617 q 0,7.633 0.544,10.671 0.617,3.286 2.297,4.719 1.705,1.408 3.582,1.408 2.026,0 3.706,-1.507 1.704,-1.532 2.223,-4.817 0.568,-3.236 0.543,-10.474 0,-7.041 -0.494,-9.857 -0.667,-3.286 -2.445,-4.595 -1.754,-1.334 -3.533,-1.334 -0.667,0 -1.383,0.198 -0.692,0.197 -1.705,0.766 -1.013,0.568 -1.803,1.976 -0.766,1.408 -1.137,3.532 -0.395,2.742 -0.395,9.314 z"
     fill="#000000"
     fill-rule="evenodd"
     fill-opacity="1"
     id="path47"
     transform="translate(-180.114,-47)" />
  <path
     clip-path="url(#clip960)"
     d="m 385.069,738.791 q 0,-7.436 1.877,-11.487 2.619,-6.028 8.795,-6.028 1.309,0 2.668,0.371 1.383,0.346 3.112,1.705 1.754,1.358 2.816,3.582 2.026,4.298 2.026,11.857 0,7.386 -1.877,11.413 -2.742,5.879 -8.795,5.879 -2.272,0 -4.595,-1.161 -2.297,-1.161 -3.754,-3.952 -2.273,-4.175 -2.273,-12.179 m 4.199,-0.617 q 0,7.633 0.544,10.671 0.617,3.286 2.297,4.719 1.705,1.408 3.582,1.408 2.026,0 3.706,-1.507 1.704,-1.532 2.223,-4.817 0.568,-3.236 0.544,-10.474 0,-7.041 -0.494,-9.857 -0.667,-3.286 -2.446,-4.595 -1.754,-1.334 -3.533,-1.334 -0.667,0 -1.383,0.198 -0.692,0.197 -1.705,0.766 -1.012,0.568 -1.803,1.976 -0.766,1.408 -1.136,3.532 -0.396,2.742 -0.396,9.314 z"
     fill="#000000"
     fill-rule="evenodd"
     fill-opacity="1"
     id="path49"
     transform="translate(-180.114,-47)" />
  <path
     clip-path="url(#clip960)"
     d="m 457.135,738.791 q 0,-7.436 1.878,-11.487 2.618,-6.028 8.794,-6.028 1.309,0 2.668,0.371 1.383,0.346 3.113,1.705 1.754,1.358 2.816,3.582 2.025,4.298 2.025,11.857 0,7.386 -1.877,11.413 -2.742,5.879 -8.794,5.879 -2.273,0 -4.595,-1.161 -2.298,-1.161 -3.755,-3.952 -2.273,-4.175 -2.273,-12.179 m 4.2,-0.617 q 0,7.633 0.543,10.671 0.618,3.286 2.298,4.719 1.704,1.408 3.582,1.408 2.025,0 3.705,-1.507 1.705,-1.532 2.223,-4.817 0.569,-3.236 0.544,-10.474 0,-7.041 -0.494,-9.857 -0.667,-3.286 -2.446,-4.595 -1.754,-1.334 -3.532,-1.334 -0.667,0 -1.384,0.198 -0.691,0.197 -1.704,0.766 -1.013,0.568 -1.804,1.976 -0.765,1.408 -1.136,3.532 -0.395,2.742 -0.395,9.314 z"
     fill="#000000"
     fill-rule="evenodd"
     fill-opacity="1"
     id="path51"
     transform="translate(-180.114,-47)" />
  <path
     clip-path="url(#clip960)"
     d="m 485.519,754.157 q -0.765,-0.816 -0.765,-1.878 0,-1.062 0.765,-1.828 0.766,-0.79 1.927,-0.79 1.112,0 1.853,0.741 0.766,0.716 0.766,1.902 0,1.161 -0.815,1.927 -0.791,0.741 -1.804,0.741 -1.161,0 -1.927,-0.815 z"
     fill="#000000"
     fill-rule="evenodd"
     fill-opacity="1"
     id="path53"
     transform="translate(-180.114,-47)" />
  <path
     clip-path="url(#clip960)"
     d="m 497.031,754.972 q 0,-0.914 0.074,-1.186 0.099,-0.272 0.494,-0.692 l 9.709,-10.82 q 5.311,-5.978 5.311,-11.19 0,-3.385 -1.779,-5.806 -1.754,-2.421 -4.99,-2.421 -2.223,0 -4.101,1.359 -1.877,1.359 -2.742,3.78 0.149,-0.05 0.667,-0.05 1.26,0 1.952,0.791 0.716,0.79 0.716,1.853 0,1.358 -0.889,2.025 -0.865,0.643 -1.729,0.643 -0.346,0 -0.815,-0.075 -0.445,-0.074 -1.162,-0.765 -0.716,-0.717 -0.716,-1.977 0,-3.532 2.668,-6.348 2.693,-2.817 6.793,-2.817 4.645,0 7.683,2.767 3.063,2.742 3.063,7.041 0,1.507 -0.469,2.89 -0.445,1.359 -1.062,2.421 -0.593,1.062 -2.223,2.767 -1.631,1.704 -2.94,2.915 -1.309,1.21 -4.249,3.779 l -5.361,5.213 h 9.116 q 4.446,0 4.792,-0.396 0.494,-0.716 1.112,-4.496 h 1.284 l -1.432,8.795 z"
     fill="#000000"
     fill-rule="evenodd"
     fill-opacity="1"
     id="path55"
     transform="translate(-180.114,-47)" />
  <path
     clip-path="url(#clip960)"
     d="m 522.327,746.82 q 0,-1.507 0.816,-2.075 0.815,-0.593 1.679,-0.593 1.161,0 1.828,0.741 0.692,0.716 0.692,1.729 0,1.013 -0.692,1.754 -0.667,0.716 -1.828,0.716 -0.568,0 -0.864,-0.098 0.667,2.322 2.692,4.002 2.051,1.679 4.743,1.679 3.385,0 5.411,-3.285 1.21,-2.125 1.21,-6.942 0,-4.249 -0.914,-6.373 -1.408,-3.236 -4.298,-3.236 -4.101,0 -6.522,3.532 -0.297,0.445 -0.642,0.47 -0.494,0 -0.618,-0.272 -0.099,-0.297 -0.099,-1.062 v -14.971 q 0,-1.21 0.494,-1.21 0.198,0 0.618,0.148 3.187,1.408 6.719,1.433 3.632,0 6.892,-1.482 0.247,-0.149 0.396,-0.149 0.494,0 0.518,0.569 0,0.197 -0.42,0.79 -0.395,0.568 -1.259,1.334 -0.865,0.741 -1.977,1.458 -1.111,0.716 -2.742,1.21 -1.605,0.469 -3.384,0.469 -2.125,0 -4.298,-0.667 v 9.857 q 2.618,-2.569 6.422,-2.569 4.052,0 6.843,3.261 2.792,3.261 2.792,7.806 0,4.768 -3.311,8.029 -3.285,3.26 -7.732,3.26 -4.051,0 -6.62,-2.89 -2.545,-2.89 -2.545,-6.373 z"
     fill="#000000"
     fill-rule="evenodd"
     fill-opacity="1"
     id="path57"
     transform="translate(-180.114,-47)" />
  <path
     clip-path="url(#clip960)"
     d="m 593.307,738.791 q 0,-7.436 1.877,-11.487 2.619,-6.028 8.795,-6.028 1.309,0 2.668,0.371 1.383,0.346 3.112,1.705 1.754,1.358 2.816,3.582 2.026,4.298 2.026,11.857 0,7.386 -1.877,11.413 -2.743,5.879 -8.795,5.879 -2.273,0 -4.595,-1.161 -2.297,-1.161 -3.755,-3.952 -2.272,-4.175 -2.272,-12.179 m 4.199,-0.617 q 0,7.633 0.544,10.671 0.617,3.286 2.297,4.719 1.705,1.408 3.582,1.408 2.026,0 3.706,-1.507 1.704,-1.532 2.223,-4.817 0.568,-3.236 0.543,-10.474 0,-7.041 -0.494,-9.857 -0.667,-3.286 -2.445,-4.595 -1.754,-1.334 -3.533,-1.334 -0.667,0 -1.383,0.198 -0.692,0.197 -1.705,0.766 -1.013,0.568 -1.803,1.976 -0.766,1.408 -1.136,3.532 -0.396,2.742 -0.396,9.314 z"
     fill="#000000"
     fill-rule="evenodd"
     fill-opacity="1"
     id="path59"
     transform="translate(-180.114,-47)" />
  <path
     clip-path="url(#clip960)"
     d="m 621.691,754.157 q -0.766,-0.816 -0.766,-1.878 0,-1.062 0.766,-1.828 0.766,-0.79 1.927,-0.79 1.111,0 1.852,0.741 0.766,0.716 0.766,1.902 0,1.161 -0.815,1.927 -0.79,0.741 -1.803,0.741 -1.161,0 -1.927,-0.815 z"
     fill="#000000"
     fill-rule="evenodd"
     fill-opacity="1"
     id="path61"
     transform="translate(-180.114,-47)" />
  <path
     clip-path="url(#clip960)"
     d="m 633.203,746.82 q 0,-1.507 0.815,-2.075 0.815,-0.593 1.68,-0.593 1.161,0 1.828,0.741 0.691,0.716 0.691,1.729 0,1.013 -0.691,1.754 -0.667,0.716 -1.828,0.716 -0.568,0 -0.865,-0.098 0.667,2.322 2.693,4.002 2.05,1.679 4.743,1.679 3.384,0 5.41,-3.285 1.21,-2.125 1.21,-6.942 0,-4.249 -0.914,-6.373 -1.408,-3.236 -4.298,-3.236 -4.101,0 -6.522,3.532 -0.296,0.445 -0.642,0.47 -0.494,0 -0.618,-0.272 -0.099,-0.297 -0.099,-1.062 v -14.971 q 0,-1.21 0.495,-1.21 0.197,0 0.617,0.148 3.187,1.408 6.719,1.433 3.632,0 6.893,-1.482 0.247,-0.149 0.395,-0.149 0.494,0 0.519,0.569 0,0.197 -0.42,0.79 -0.395,0.568 -1.26,1.334 -0.865,0.741 -1.976,1.458 -1.112,0.716 -2.742,1.21 -1.606,0.469 -3.385,0.469 -2.124,0 -4.298,-0.667 v 9.857 q 2.618,-2.569 6.423,-2.569 4.051,0 6.843,3.261 2.791,3.261 2.791,7.806 0,4.768 -3.31,8.029 -3.286,3.26 -7.732,3.26 -4.052,0 -6.621,-2.89 -2.544,-2.89 -2.544,-6.373 z"
     fill="#000000"
     fill-rule="evenodd"
     fill-opacity="1"
     id="path63"
     transform="translate(-180.114,-47)" />
  <path
     clip-path="url(#clip960)"
     d="m 657.955,738.791 q 0,-7.436 1.878,-11.487 2.618,-6.028 8.794,-6.028 1.31,0 2.668,0.371 1.384,0.346 3.113,1.705 1.754,1.358 2.816,3.582 2.026,4.298 2.026,11.857 0,7.386 -1.878,11.413 -2.742,5.879 -8.794,5.879 -2.273,0 -4.595,-1.161 -2.297,-1.161 -3.755,-3.952 -2.273,-4.175 -2.273,-12.179 m 4.2,-0.617 q 0,7.633 0.543,10.671 0.618,3.286 2.298,4.719 1.704,1.408 3.582,1.408 2.026,0 3.705,-1.507 1.705,-1.532 2.224,-4.817 0.568,-3.236 0.543,-10.474 0,-7.041 -0.494,-9.857 -0.667,-3.286 -2.446,-4.595 -1.754,-1.334 -3.532,-1.334 -0.667,0 -1.384,0.198 -0.691,0.197 -1.704,0.766 -1.013,0.568 -1.803,1.976 -0.766,1.408 -1.137,3.532 -0.395,2.742 -0.395,9.314 z"
     fill="#000000"
     fill-rule="evenodd"
     fill-opacity="1"
     id="path65"
     transform="translate(-180.114,-47)" />
  <path
     clip-path="url(#clip960)"
     d="m 730.022,738.791 q 0,-7.436 1.877,-11.487 2.619,-6.028 8.795,-6.028 1.309,0 2.668,0.371 1.383,0.346 3.112,1.705 1.754,1.358 2.816,3.582 2.026,4.298 2.026,11.857 0,7.386 -1.877,11.413 -2.742,5.879 -8.795,5.879 -2.273,0 -4.595,-1.161 -2.297,-1.161 -3.755,-3.952 -2.272,-4.175 -2.272,-12.179 m 4.199,-0.617 q 0,7.633 0.544,10.671 0.617,3.286 2.297,4.719 1.705,1.408 3.582,1.408 2.026,0 3.706,-1.507 1.704,-1.532 2.223,-4.817 0.568,-3.236 0.543,-10.474 0,-7.041 -0.494,-9.857 -0.667,-3.286 -2.445,-4.595 -1.754,-1.334 -3.533,-1.334 -0.667,0 -1.383,0.198 -0.692,0.197 -1.705,0.766 -1.013,0.568 -1.803,1.976 -0.766,1.408 -1.136,3.532 -0.396,2.742 -0.396,9.314 z"
     fill="#000000"
     fill-rule="evenodd"
     fill-opacity="1"
     id="path67"
     transform="translate(-180.114,-47)" />
  <path
     clip-path="url(#clip960)"
     d="m 758.406,754.157 q -0.766,-0.816 -0.766,-1.878 0,-1.062 0.766,-1.828 0.766,-0.79 1.927,-0.79 1.111,0 1.853,0.741 0.765,0.716 0.765,1.902 0,1.161 -0.815,1.927 -0.79,0.741 -1.803,0.741 -1.161,0 -1.927,-0.815 z"
     fill="#000000"
     fill-rule="evenodd"
     fill-opacity="1"
     id="path69"
     transform="translate(-180.114,-47)" />
  <path
     clip-path="url(#clip960)"
     d="m 770.239,731.183 1.655,-10.401 h 1.26 q 0.148,0.618 0.395,0.89 0.272,0.271 1.705,0.494 1.457,0.222 4.397,0.222 h 12.277 q 0,1.161 -0.444,1.779 l -6.843,9.609 q -2.174,3.039 -3.137,8.647 -0.569,3.754 -0.544,8.3 v 2.569 q 0,2.791 -2.347,2.791 -2.322,0 -2.322,-2.791 0,-9.659 6.225,-19.022 0.667,-0.963 3.113,-4.397 2.47,-3.434 2.569,-3.582 h -10.474 q -4.595,0 -4.965,0.297 -0.495,0.444 -1.26,4.595 z"
     fill="#000000"
     fill-rule="evenodd"
     fill-opacity="1"
     id="path71"
     transform="translate(-180.114,-47)" />
  <path
     clip-path="url(#clip960)"
     d="m 795.214,746.82 q 0,-1.507 0.815,-2.075 0.815,-0.593 1.68,-0.593 1.161,0 1.828,0.741 0.692,0.716 0.692,1.729 0,1.013 -0.692,1.754 -0.667,0.716 -1.828,0.716 -0.568,0 -0.865,-0.098 0.667,2.322 2.693,4.002 2.05,1.679 4.743,1.679 3.384,0 5.41,-3.285 1.211,-2.125 1.211,-6.942 0,-4.249 -0.914,-6.373 -1.409,-3.236 -4.299,-3.236 -4.101,0 -6.522,3.532 -0.296,0.445 -0.642,0.47 -0.494,0 -0.617,-0.272 -0.099,-0.297 -0.099,-1.062 v -14.971 q 0,-1.21 0.494,-1.21 0.197,0 0.617,0.148 3.187,1.408 6.72,1.433 3.631,0 6.892,-1.482 0.247,-0.149 0.395,-0.149 0.494,0 0.519,0.569 0,0.197 -0.42,0.79 -0.395,0.568 -1.26,1.334 -0.864,0.741 -1.976,1.458 -1.112,0.716 -2.742,1.21 -1.606,0.469 -3.385,0.469 -2.124,0 -4.298,-0.667 v 9.857 q 2.619,-2.569 6.423,-2.569 4.051,0 6.843,3.261 2.791,3.261 2.791,7.806 0,4.768 -3.31,8.029 -3.286,3.26 -7.732,3.26 -4.052,0 -6.621,-2.89 -2.544,-2.89 -2.544,-6.373 z"
     fill="#000000"
     fill-rule="evenodd"
     fill-opacity="1"
     id="path73"
     transform="translate(-180.114,-47)" />
  <path
     clip-path="url(#clip960)"
     d="m 867.453,726.094 v -1.581 q 6.077,0 9.215,-3.237 0.864,0 1.012,0.198 0.149,0.198 0.149,1.112 v 28.384 q 0,1.507 0.741,1.976 0.741,0.47 3.977,0.47 h 1.606 v 1.556 q -1.779,-0.148 -8.202,-0.148 -6.423,0 -8.177,0.148 v -1.556 h 1.606 q 3.187,0 3.953,-0.445 0.765,-0.469 0.765,-2.001 v -26.21 q -2.643,1.334 -6.645,1.334 z"
     fill="#000000"
     fill-rule="evenodd"
     fill-opacity="1"
     id="path75"
     transform="translate(-180.114,-47)" />
  <path
     clip-path="url(#clip960)"
     d="m 893.318,754.157 q -0.766,-0.816 -0.766,-1.878 0,-1.062 0.766,-1.828 0.765,-0.79 1.926,-0.79 1.112,0 1.853,0.741 0.766,0.716 0.766,1.902 0,1.161 -0.815,1.927 -0.791,0.741 -1.804,0.741 -1.161,0 -1.926,-0.815 z"
     fill="#000000"
     fill-rule="evenodd"
     fill-opacity="1"
     id="path77"
     transform="translate(-180.114,-47)" />
  <path
     clip-path="url(#clip960)"
     d="m 904.286,738.791 q 0,-7.436 1.877,-11.487 2.619,-6.028 8.795,-6.028 1.309,0 2.668,0.371 1.383,0.346 3.112,1.705 1.754,1.358 2.816,3.582 2.026,4.298 2.026,11.857 0,7.386 -1.877,11.413 -2.742,5.879 -8.795,5.879 -2.272,0 -4.595,-1.161 -2.297,-1.161 -3.754,-3.952 -2.273,-4.175 -2.273,-12.179 m 4.199,-0.617 q 0,7.633 0.544,10.671 0.617,3.286 2.297,4.719 1.705,1.408 3.582,1.408 2.026,0 3.706,-1.507 1.704,-1.532 2.223,-4.817 0.568,-3.236 0.544,-10.474 0,-7.041 -0.494,-9.857 -0.667,-3.286 -2.446,-4.595 -1.754,-1.334 -3.533,-1.334 -0.667,0 -1.383,0.198 -0.692,0.197 -1.705,0.766 -1.012,0.568 -1.803,1.976 -0.766,1.408 -1.136,3.532 -0.396,2.742 -0.396,9.314 z"
     fill="#000000"
     fill-rule="evenodd"
     fill-opacity="1"
     id="path79"
     transform="translate(-180.114,-47)" />
  <path
     clip-path="url(#clip960)"
     d="m 929.582,738.791 q 0,-7.436 1.878,-11.487 2.618,-6.028 8.794,-6.028 1.309,0 2.668,0.371 1.383,0.346 3.113,1.705 1.753,1.358 2.816,3.582 2.025,4.298 2.025,11.857 0,7.386 -1.877,11.413 -2.742,5.879 -8.794,5.879 -2.273,0 -4.595,-1.161 -2.298,-1.161 -3.755,-3.952 -2.273,-4.175 -2.273,-12.179 m 4.2,-0.617 q 0,7.633 0.543,10.671 0.618,3.286 2.298,4.719 1.704,1.408 3.582,1.408 2.025,0 3.705,-1.507 1.705,-1.532 2.223,-4.817 0.569,-3.236 0.544,-10.474 0,-7.041 -0.494,-9.857 -0.667,-3.286 -2.446,-4.595 -1.754,-1.334 -3.532,-1.334 -0.667,0 -1.384,0.198 -0.692,0.197 -1.704,0.766 -1.013,0.568 -1.804,1.976 -0.766,1.408 -1.136,3.532 -0.395,2.742 -0.395,9.314 z"
     fill="#000000"
     fill-rule="evenodd"
     fill-opacity="1"
     id="path81"
     transform="translate(-180.114,-47)" />
  <path
     clip-path="url(#clip960)"
     d="m 564.838,829.036 v -2.14 h 1.664 q 3.77,0 4.619,-0.611 0.884,-0.646 0.884,-2.684 v -36.65 q 0,-2.004 -0.884,-2.616 -0.883,-0.645 -4.619,-0.645 h -1.664 v -2.174 h 24.558 q 7.031,0 11.718,3.872 4.688,3.872 4.688,9.069 0,5.163 -4.79,8.9 -4.755,3.702 -11.073,3.702 h -11.752 v 16.542 q 0,2.004 0.849,2.65 0.883,0.645 4.653,0.645 h 1.665 v 2.14 q -2.446,-0.204 -10.292,-0.204 -7.779,0 -10.224,0.204 m 13.145,-23.777 h 9.579 q 3.124,0 5.4,-0.883 2.276,-0.883 3.295,-1.936 1.053,-1.087 1.631,-2.82 0.611,-1.766 0.679,-2.717 0.068,-0.985 0.068,-2.446 0,-1.528 -0.068,-2.479 -0.068,-0.985 -0.679,-2.718 -0.578,-1.766 -1.631,-2.819 -1.019,-1.087 -3.295,-1.902 -2.242,-0.849 -5.4,-0.849 h -6.183 q -2.377,0 -2.887,0.475 -0.509,0.476 -0.509,2.31 z"
     fill="#000000"
     fill-rule="evenodd"
     fill-opacity="1"
     id="path83"
     transform="translate(-180.114,-47)" />
  <path
     clip-path="url(#clip960)"
     d="m 611.61,829.036 v -2.14 q 3.703,0 4.552,-0.442 0.883,-0.475 0.883,-2.717 v -18.648 q 0,-2.581 -0.917,-3.227 -0.883,-0.645 -4.518,-0.645 v -2.174 l 9.681,-0.747 v 7.642 q 0.985,-2.989 3.057,-5.299 2.106,-2.343 5.503,-2.343 2.241,0 3.668,1.256 1.461,1.257 1.461,2.989 0,1.529 -0.951,2.31 -0.918,0.748 -2.038,0.748 -1.257,0 -2.14,-0.782 -0.85,-0.815 -0.85,-2.208 0,-0.849 0.374,-1.494 0.408,-0.679 0.713,-0.917 0.306,-0.238 0.51,-0.306 -0.136,-0.068 -0.747,-0.068 -3.839,0 -6.047,3.838 -2.173,3.805 -2.173,9.239 v 10.7 q 0,2.004 0.815,2.65 0.849,0.645 4.483,0.645 h 1.461 v 2.14 q -2.785,-0.204 -8.831,-0.204 -0.85,0 -2.174,0.034 -1.325,0.034 -3.057,0.102 -1.733,0.068 -2.718,0.068 z"
     fill="#000000"
     fill-rule="evenodd"
     fill-opacity="1"
     id="path85"
     transform="translate(-180.114,-47)" />
  <path
     clip-path="url(#clip960)"
     d="m 643.369,825.299 q -4.585,-4.551 -4.585,-11.141 0,-6.623 4.484,-11.447 4.517,-4.857 10.971,-4.857 6.318,0 10.835,4.823 4.552,4.79 4.552,11.481 0,6.556 -4.585,11.107 -4.552,4.552 -10.87,4.552 -6.182,0 -10.802,-4.518 m 1.189,-11.718 q 0,6.759 1.767,9.816 2.717,4.654 7.914,4.654 2.581,0 4.721,-1.393 2.174,-1.393 3.363,-3.736 1.529,-3.057 1.529,-9.341 0,-6.692 -1.835,-9.647 -2.717,-4.517 -7.846,-4.517 -2.242,0 -4.45,1.188 -2.174,1.155 -3.498,3.465 -1.665,3.057 -1.665,9.511 z"
     fill="#000000"
     fill-rule="evenodd"
     fill-opacity="1"
     id="path87"
     transform="translate(-180.114,-47)" />
  <path
     clip-path="url(#clip960)"
     d="m 673.566,834.539 q 0,-2.242 1.699,-4.178 1.732,-1.937 4.721,-2.786 -3.057,-1.936 -3.057,-6.182 0,-3.261 2.14,-5.774 -3.261,-2.718 -3.261,-7.167 0,-4.11 3.261,-7.133 3.261,-3.023 8.016,-3.023 4.178,0 7.371,2.513 3.329,-3.261 7.371,-3.295 1.8,0 2.649,1.121 0.883,1.121 0.883,2.31 0,1.053 -0.679,1.563 -0.645,0.509 -1.325,0.509 -0.849,0 -1.46,-0.543 -0.578,-0.578 -0.578,-1.461 0,-1.461 1.121,-1.902 -0.203,-0.068 -0.679,-0.068 -3.397,0 -6.284,2.717 2.853,2.65 2.853,6.76 0,4.11 -3.261,7.133 -3.26,3.023 -7.982,3.023 -3.906,0 -6.895,-2.174 -1.189,1.393 -1.189,3.295 0,1.732 1.053,3.091 1.053,1.358 2.649,1.562 0.476,0.068 5.197,0.068 2.786,0 4.314,0.068 1.529,0.068 3.703,0.544 2.207,0.441 3.94,1.324 4.517,2.514 4.551,7.949 0,3.974 -4.585,6.453 -4.552,2.514 -10.87,2.514 -6.385,0 -10.903,-2.548 -4.484,-2.513 -4.484,-6.283 m 3.635,0 q 0,2.853 3.362,5.027 3.363,2.208 8.458,2.208 4.993,0 8.356,-2.174 3.397,-2.14 3.397,-5.061 0,-2.072 -1.189,-3.397 -1.189,-1.325 -3.634,-1.868 -2.412,-0.51 -4.11,-0.612 -1.699,-0.102 -4.824,-0.102 h -4.11 q -2.377,0.136 -4.042,1.868 -1.664,1.733 -1.664,4.111 m 3.804,-26.019 q 0,8.559 6.08,8.559 3.057,0 4.925,-2.785 1.121,-1.868 1.121,-5.842 0,-8.56 -6.046,-8.56 -3.057,0 -4.959,2.785 -1.121,1.869 -1.121,5.843 z"
     fill="#000000"
     fill-rule="evenodd"
     fill-opacity="1"
     id="path89"
     transform="translate(-180.114,-47)" />
  <path
     clip-path="url(#clip960)"
     d="m 708.349,829.036 v -2.14 q 3.702,0 4.551,-0.442 0.883,-0.475 0.883,-2.717 v -18.648 q 0,-2.581 -0.917,-3.227 -0.883,-0.645 -4.517,-0.645 v -2.174 l 9.68,-0.747 v 7.642 q 0.985,-2.989 3.057,-5.299 2.106,-2.343 5.503,-2.343 2.242,0 3.668,1.256 1.461,1.257 1.461,2.989 0,1.529 -0.951,2.31 -0.917,0.748 -2.038,0.748 -1.257,0 -2.14,-0.782 -0.849,-0.815 -0.849,-2.208 0,-0.849 0.373,-1.494 0.408,-0.679 0.714,-0.917 0.305,-0.238 0.509,-0.306 -0.136,-0.068 -0.747,-0.068 -3.838,0 -6.046,3.838 -2.174,3.805 -2.174,9.239 v 10.7 q 0,2.004 0.815,2.65 0.849,0.645 4.484,0.645 h 1.46 v 2.14 q -2.785,-0.204 -8.831,-0.204 -0.849,0 -2.174,0.034 -1.325,0.034 -3.057,0.102 -1.732,0.068 -2.717,0.068 z"
     fill="#000000"
     fill-rule="evenodd"
     fill-opacity="1"
     id="path91"
     transform="translate(-180.114,-47)" />
  <path
     clip-path="url(#clip960)"
     d="m 735.522,813.717 q 0,-6.556 4.212,-11.209 4.212,-4.654 10.258,-4.654 6.114,0 9.273,3.974 3.193,3.974 3.193,9.681 0,1.053 -0.272,1.257 -0.271,0.203 -1.46,0.203 h -19.429 q 0,7.1 2.106,10.428 2.921,4.654 7.846,4.654 0.679,0 1.495,-0.136 0.815,-0.136 2.479,-0.713 1.665,-0.612 3.125,-2.208 1.461,-1.597 2.31,-4.11 0.204,-0.985 0.883,-0.951 0.917,0 0.917,0.815 0,0.611 -0.679,2.004 -0.646,1.359 -1.902,2.989 -1.257,1.63 -3.703,2.853 -2.411,1.223 -5.333,1.223 -6.114,0 -10.733,-4.619 -4.586,-4.654 -4.586,-11.481 m 5.843,-2.208 h 16.508 q 0,-1.461 -0.272,-3.091 -0.238,-1.631 -0.985,-3.872 -0.713,-2.276 -2.412,-3.703 -1.698,-1.426 -4.212,-1.426 -1.121,0 -2.343,0.475 -1.189,0.476 -2.65,1.63 -1.46,1.155 -2.479,3.771 -1.019,2.615 -1.155,6.216 z"
     fill="#000000"
     fill-rule="evenodd"
     fill-opacity="1"
     id="path93"
     transform="translate(-180.114,-47)" />
  <path
     clip-path="url(#clip960)"
     d="m 766.772,828.119 v -9.171 q 0,-0.782 0.034,-1.053 0.034,-0.272 0.238,-0.476 0.204,-0.204 0.611,-0.204 0.476,0 0.646,0.204 0.203,0.204 0.339,0.985 1.053,4.789 3.295,7.337 2.276,2.514 6.386,2.514 3.906,0 5.876,-1.733 1.97,-1.732 1.97,-4.585 0,-5.095 -7.235,-6.386 -4.178,-0.849 -5.91,-1.393 -1.732,-0.577 -3.261,-1.834 -2.989,-2.446 -2.989,-5.91 0,-3.465 2.616,-6.012 2.649,-2.548 8.491,-2.548 3.907,0 6.556,1.97 0.781,-0.611 1.189,-1.121 0.917,-0.849 1.392,-0.849 0.544,0 0.646,0.374 0.102,0.339 0.102,1.324 v 6.998 q 0,0.781 -0.034,1.053 -0.034,0.271 -0.238,0.475 -0.204,0.17 -0.645,0.17 -0.782,0 -0.816,-0.645 -0.543,-8.424 -8.152,-8.424 -4.11,0 -5.944,1.596 -1.834,1.563 -1.834,3.703 0,1.188 0.543,2.106 0.578,0.883 1.291,1.426 0.747,0.51 2.106,1.019 1.359,0.476 2.174,0.646 0.849,0.169 2.446,0.509 5.57,1.053 7.914,3.329 2.921,2.921 2.921,6.623 0,4.11 -2.785,6.896 -2.786,2.785 -8.39,2.785 -4.518,0 -7.677,-3.023 -0.407,0.408 -0.713,0.781 -0.306,0.34 -0.442,0.476 -0.101,0.136 -0.135,0.238 -0.034,0.068 -0.102,0.135 -1.393,1.393 -1.733,1.393 -0.543,0 -0.645,-0.374 -0.102,-0.339 -0.102,-1.324 z"
     fill="#000000"
     fill-rule="evenodd"
     fill-opacity="1"
     id="path95"
     transform="translate(-180.114,-47)" />
  <path
     clip-path="url(#clip960)"
     d="m 794.15,828.119 v -9.171 q 0,-0.782 0.034,-1.053 0.033,-0.272 0.237,-0.476 0.204,-0.204 0.612,-0.204 0.475,0 0.645,0.204 0.204,0.204 0.34,0.985 1.053,4.789 3.295,7.337 2.275,2.514 6.385,2.514 3.907,0 5.877,-1.733 1.97,-1.732 1.97,-4.585 0,-5.095 -7.235,-6.386 -4.178,-0.849 -5.911,-1.393 -1.732,-0.577 -3.26,-1.834 -2.989,-2.446 -2.989,-5.91 0,-3.465 2.615,-6.012 2.649,-2.548 8.492,-2.548 3.906,0 6.555,1.97 0.782,-0.611 1.189,-1.121 0.917,-0.849 1.393,-0.849 0.543,0 0.645,0.374 0.102,0.339 0.102,1.324 v 6.998 q 0,0.781 -0.034,1.053 -0.034,0.271 -0.238,0.475 -0.203,0.17 -0.645,0.17 -0.781,0 -0.815,-0.645 -0.544,-8.424 -8.152,-8.424 -4.11,0 -5.944,1.596 -1.835,1.563 -1.835,3.703 0,1.188 0.544,2.106 0.577,0.883 1.291,1.426 0.747,0.51 2.105,1.019 1.359,0.476 2.174,0.646 0.85,0.169 2.446,0.509 5.571,1.053 7.914,3.329 2.922,2.921 2.922,6.623 0,4.11 -2.786,6.896 -2.785,2.785 -8.39,2.785 -4.517,0 -7.676,-3.023 -0.408,0.408 -0.714,0.781 -0.305,0.34 -0.441,0.476 -0.102,0.136 -0.136,0.238 -0.034,0.068 -0.102,0.135 -1.393,1.393 -1.732,1.393 -0.544,0 -0.646,-0.374 -0.101,-0.339 -0.101,-1.324 z"
     fill="#000000"
     fill-rule="evenodd"
     fill-opacity="1"
     id="path97"
     transform="translate(-180.114,-47)" />
  <polyline
     clip-path="url(#clip962)"
     style="fill:none;stroke:#000000;stroke-width:2;stroke-linecap:butt;stroke-linejoin:round;stroke-opacity:0.1"
     points="   363.392,702.172 1018.32,702.172    "
     id="polyline99"
     transform="translate(-180.114,-47)" />
  <polyline
     clip-path="url(#clip962)"
     style="fill:none;stroke:#000000;stroke-width:2;stroke-linecap:butt;stroke-linejoin:round;stroke-opacity:0.1"
     points="   363.392,565.729 1018.32,565.729    "
     id="polyline101"
     transform="translate(-180.114,-47)" />
  <polyline
     clip-path="url(#clip962)"
     style="fill:none;stroke:#000000;stroke-width:2;stroke-linecap:butt;stroke-linejoin:round;stroke-opacity:0.1"
     points="   363.392,429.285 1018.32,429.285    "
     id="polyline103"
     transform="translate(-180.114,-47)" />
  <polyline
     clip-path="url(#clip962)"
     style="fill:none;stroke:#000000;stroke-width:2;stroke-linecap:butt;stroke-linejoin:round;stroke-opacity:0.1"
     points="   363.392,292.842 1018.32,292.842    "
     id="polyline105"
     transform="translate(-180.114,-47)" />
  <polyline
     clip-path="url(#clip962)"
     style="fill:none;stroke:#000000;stroke-width:2;stroke-linecap:butt;stroke-linejoin:round;stroke-opacity:0.1"
     points="   363.392,156.399 1018.32,156.399    "
     id="polyline107"
     transform="translate(-180.114,-47)" />
  <polyline
     clip-path="url(#clip960)"
     style="fill:none;stroke:#000000;stroke-width:4;stroke-linecap:butt;stroke-linejoin:round;stroke-opacity:1"
     points="   363.392,702.172 363.392,47.2441    "
     id="polyline109"
     transform="translate(-180.114,-47)" />
  <polyline
     clip-path="url(#clip960)"
     style="fill:none;stroke:#000000;stroke-width:4;stroke-linecap:butt;stroke-linejoin:round;stroke-opacity:1"
     points="   363.392,702.172 376.789,702.172    "
     id="polyline111"
     transform="translate(-180.114,-47)" />
  <polyline
     clip-path="url(#clip960)"
     style="fill:none;stroke:#000000;stroke-width:4;stroke-linecap:butt;stroke-linejoin:round;stroke-opacity:1"
     points="   363.392,565.729 376.789,565.729    "
     id="polyline113"
     transform="translate(-180.114,-47)" />
  <polyline
     clip-path="url(#clip960)"
     style="fill:none;stroke:#000000;stroke-width:4;stroke-linecap:butt;stroke-linejoin:round;stroke-opacity:1"
     points="   363.392,429.285 376.789,429.285    "
     id="polyline115"
     transform="translate(-180.114,-47)" />
  <polyline
     clip-path="url(#clip960)"
     style="fill:none;stroke:#000000;stroke-width:4;stroke-linecap:butt;stroke-linejoin:round;stroke-opacity:1"
     points="   363.392,292.842 376.789,292.842    "
     id="polyline117"
     transform="translate(-180.114,-47)" />
  <polyline
     clip-path="url(#clip960)"
     style="fill:none;stroke:#000000;stroke-width:4;stroke-linecap:butt;stroke-linejoin:round;stroke-opacity:1"
     points="   363.392,156.399 376.789,156.399    "
     id="polyline119"
     transform="translate(-180.114,-47)" />
  <path
     clip-path="url(#clip960)"
     d="m 259.449,703.271 q 0,-7.436 1.877,-11.487 2.619,-6.028 8.795,-6.028 1.309,0 2.667,0.371 1.384,0.346 3.113,1.705 1.754,1.358 2.816,3.582 2.026,4.298 2.026,11.857 0,7.386 -1.877,11.413 -2.743,5.879 -8.795,5.879 -2.273,0 -4.595,-1.161 -2.297,-1.161 -3.755,-3.952 -2.272,-4.175 -2.272,-12.179 m 4.199,-0.617 q 0,7.633 0.544,10.671 0.617,3.286 2.297,4.719 1.705,1.408 3.582,1.408 2.026,0 3.706,-1.507 1.704,-1.532 2.223,-4.817 0.568,-3.236 0.543,-10.474 0,-7.041 -0.494,-9.857 -0.667,-3.286 -2.445,-4.595 -1.754,-1.334 -3.533,-1.334 -0.667,0 -1.383,0.198 -0.692,0.197 -1.705,0.766 -1.013,0.568 -1.803,1.976 -0.766,1.408 -1.137,3.532 -0.395,2.742 -0.395,9.314 z"
     fill="#000000"
     fill-rule="evenodd"
     fill-opacity="1"
     id="path121"
     transform="translate(-180.114,-47)" />
  <path
     clip-path="url(#clip960)"
     d="m 287.833,718.637 q -0.766,-0.816 -0.766,-1.878 0,-1.062 0.766,-1.828 0.766,-0.79 1.927,-0.79 1.111,0 1.852,0.741 0.766,0.716 0.766,1.902 0,1.161 -0.815,1.927 -0.79,0.741 -1.803,0.741 -1.161,0 -1.927,-0.815 z"
     fill="#000000"
     fill-rule="evenodd"
     fill-opacity="1"
     id="path123"
     transform="translate(-180.114,-47)" />
  <path
     clip-path="url(#clip960)"
     d="m 298.801,703.271 q 0,-7.436 1.878,-11.487 2.618,-6.028 8.794,-6.028 1.309,0 2.668,0.371 1.383,0.346 3.113,1.705 1.753,1.358 2.816,3.582 2.025,4.298 2.025,11.857 0,7.386 -1.877,11.413 -2.742,5.879 -8.794,5.879 -2.273,0 -4.595,-1.161 -2.298,-1.161 -3.755,-3.952 -2.273,-4.175 -2.273,-12.179 m 4.2,-0.617 q 0,7.633 0.543,10.671 0.618,3.286 2.298,4.719 1.704,1.408 3.582,1.408 2.025,0 3.705,-1.507 1.705,-1.532 2.223,-4.817 0.569,-3.236 0.544,-10.474 0,-7.041 -0.494,-9.857 -0.667,-3.286 -2.446,-4.595 -1.754,-1.334 -3.532,-1.334 -0.667,0 -1.384,0.198 -0.692,0.197 -1.704,0.766 -1.013,0.568 -1.804,1.976 -0.766,1.408 -1.136,3.532 -0.395,2.742 -0.395,9.314 z"
     fill="#000000"
     fill-rule="evenodd"
     fill-opacity="1"
     id="path125"
     transform="translate(-180.114,-47)" />
  <path
     clip-path="url(#clip960)"
     d="m 324.097,703.271 q 0,-7.436 1.878,-11.487 2.618,-6.028 8.794,-6.028 1.309,0 2.668,0.371 1.384,0.346 3.113,1.705 1.754,1.358 2.816,3.582 2.026,4.298 2.026,11.857 0,7.386 -1.878,11.413 -2.742,5.879 -8.794,5.879 -2.273,0 -4.595,-1.161 -2.297,-1.161 -3.755,-3.952 -2.273,-4.175 -2.273,-12.179 m 4.2,-0.617 q 0,7.633 0.543,10.671 0.618,3.286 2.298,4.719 1.704,1.408 3.582,1.408 2.025,0 3.705,-1.507 1.705,-1.532 2.224,-4.817 0.568,-3.236 0.543,-10.474 0,-7.041 -0.494,-9.857 -0.667,-3.286 -2.446,-4.595 -1.754,-1.334 -3.532,-1.334 -0.667,0 -1.384,0.198 -0.691,0.197 -1.704,0.766 -1.013,0.568 -1.803,1.976 -0.766,1.408 -1.137,3.532 -0.395,2.742 -0.395,9.314 z"
     fill="#000000"
     fill-rule="evenodd"
     fill-opacity="1"
     id="path127"
     transform="translate(-180.114,-47)" />
  <path
     clip-path="url(#clip960)"
     d="m 259.992,566.828 q 0,-7.436 1.878,-11.487 2.618,-6.028 8.794,-6.028 1.309,0 2.668,0.371 1.383,0.346 3.113,1.704 1.754,1.359 2.816,3.582 2.025,4.299 2.025,11.858 0,7.386 -1.877,11.413 -2.742,5.879 -8.794,5.879 -2.273,0 -4.595,-1.161 -2.298,-1.161 -3.755,-3.952 -2.273,-4.175 -2.273,-12.179 m 4.2,-0.618 q 0,7.634 0.543,10.672 0.618,3.286 2.298,4.718 1.704,1.409 3.582,1.409 2.025,0 3.705,-1.507 1.705,-1.532 2.223,-4.817 0.569,-3.237 0.544,-10.475 0,-7.04 -0.494,-9.856 -0.667,-3.286 -2.446,-4.595 -1.754,-1.334 -3.532,-1.334 -0.667,0 -1.384,0.197 -0.692,0.198 -1.704,0.766 -1.013,0.568 -1.804,1.977 -0.765,1.408 -1.136,3.532 -0.395,2.742 -0.395,9.313 z"
     fill="#000000"
     fill-rule="evenodd"
     fill-opacity="1"
     id="path129"
     transform="translate(-180.114,-47)" />
  <path
     clip-path="url(#clip960)"
     d="m 288.376,582.193 q -0.766,-0.815 -0.766,-1.877 0,-1.062 0.766,-1.828 0.766,-0.791 1.927,-0.791 1.112,0 1.853,0.741 0.766,0.717 0.766,1.903 0,1.161 -0.815,1.926 -0.791,0.742 -1.804,0.742 -1.161,0 -1.927,-0.816 z"
     fill="#000000"
     fill-rule="evenodd"
     fill-opacity="1"
     id="path131"
     transform="translate(-180.114,-47)" />
  <path
     clip-path="url(#clip960)"
     d="m 299.888,583.009 q 0,-0.914 0.074,-1.186 0.099,-0.272 0.494,-0.692 l 9.709,-10.82 q 5.311,-5.978 5.311,-11.191 0,-3.384 -1.779,-5.805 -1.754,-2.421 -4.99,-2.421 -2.223,0 -4.101,1.359 -1.877,1.359 -2.742,3.779 0.149,-0.049 0.667,-0.049 1.26,0 1.952,0.791 0.716,0.79 0.716,1.852 0,1.359 -0.889,2.026 -0.865,0.642 -1.729,0.642 -0.346,0 -0.815,-0.074 -0.445,-0.074 -1.162,-0.766 -0.716,-0.716 -0.716,-1.976 0,-3.532 2.668,-6.349 2.693,-2.816 6.793,-2.816 4.645,0 7.683,2.767 3.063,2.742 3.063,7.04 0,1.507 -0.469,2.891 -0.445,1.358 -1.062,2.421 -0.593,1.062 -2.223,2.766 -1.631,1.705 -2.94,2.915 -1.309,1.211 -4.249,3.78 l -5.361,5.212 h 9.116 q 4.446,0 4.792,-0.395 0.494,-0.716 1.112,-4.496 h 1.284 l -1.432,8.795 z"
     fill="#000000"
     fill-rule="evenodd"
     fill-opacity="1"
     id="path133"
     transform="translate(-180.114,-47)" />
  <path
     clip-path="url(#clip960)"
     d="m 325.184,574.856 q 0,-1.506 0.816,-2.075 0.815,-0.593 1.679,-0.593 1.161,0 1.828,0.742 0.692,0.716 0.692,1.729 0,1.013 -0.692,1.754 -0.667,0.716 -1.828,0.716 -0.568,0 -0.864,-0.099 0.667,2.322 2.692,4.002 2.051,1.68 4.743,1.68 3.385,0 5.41,-3.285 1.211,-2.125 1.211,-6.942 0,-4.249 -0.914,-6.374 -1.408,-3.236 -4.298,-3.236 -4.101,0 -6.522,3.533 -0.297,0.445 -0.642,0.469 -0.495,0 -0.618,-0.271 -0.099,-0.297 -0.099,-1.063 v -14.97 q 0,-1.21 0.494,-1.21 0.198,0 0.618,0.148 3.187,1.408 6.719,1.433 3.632,0 6.892,-1.483 0.247,-0.148 0.396,-0.148 0.494,0 0.518,0.568 0,0.198 -0.42,0.791 -0.395,0.568 -1.259,1.334 -0.865,0.741 -1.977,1.457 -1.111,0.717 -2.742,1.211 -1.606,0.469 -3.384,0.469 -2.125,0 -4.299,-0.667 v 9.857 q 2.619,-2.569 6.423,-2.569 4.052,0 6.843,3.261 2.792,3.26 2.792,7.806 0,4.768 -3.311,8.028 -3.285,3.261 -7.732,3.261 -4.051,0 -6.62,-2.89 -2.545,-2.89 -2.545,-6.374 z"
     fill="#000000"
     fill-rule="evenodd"
     fill-opacity="1"
     id="path135"
     transform="translate(-180.114,-47)" />
  <path
     clip-path="url(#clip960)"
     d="m 259.449,430.385 q 0,-7.436 1.877,-11.487 2.619,-6.028 8.795,-6.028 1.309,0 2.667,0.37 1.384,0.346 3.113,1.705 1.754,1.359 2.816,3.582 2.026,4.298 2.026,11.858 0,7.386 -1.877,11.413 -2.743,5.879 -8.795,5.879 -2.273,0 -4.595,-1.161 -2.297,-1.161 -3.755,-3.953 -2.272,-4.175 -2.272,-12.178 m 4.199,-0.618 q 0,7.633 0.544,10.672 0.617,3.285 2.297,4.718 1.705,1.408 3.582,1.408 2.026,0 3.706,-1.507 1.704,-1.531 2.223,-4.817 0.568,-3.236 0.543,-10.474 0,-7.04 -0.494,-9.857 -0.667,-3.285 -2.445,-4.594 -1.754,-1.334 -3.533,-1.334 -0.667,0 -1.383,0.197 -0.692,0.198 -1.705,0.766 -1.013,0.568 -1.803,1.976 -0.766,1.408 -1.137,3.533 -0.395,2.742 -0.395,9.313 z"
     fill="#000000"
     fill-rule="evenodd"
     fill-opacity="1"
     id="path137"
     transform="translate(-180.114,-47)" />
  <path
     clip-path="url(#clip960)"
     d="m 287.833,445.75 q -0.766,-0.815 -0.766,-1.877 0,-1.063 0.766,-1.828 0.766,-0.791 1.927,-0.791 1.111,0 1.852,0.741 0.766,0.717 0.766,1.902 0,1.161 -0.815,1.927 -0.79,0.741 -1.803,0.741 -1.161,0 -1.927,-0.815 z"
     fill="#000000"
     fill-rule="evenodd"
     fill-opacity="1"
     id="path139"
     transform="translate(-180.114,-47)" />
  <path
     clip-path="url(#clip960)"
     d="m 299.345,438.413 q 0,-1.507 0.815,-2.075 0.815,-0.593 1.68,-0.593 1.161,0 1.828,0.741 0.691,0.717 0.691,1.73 0,1.012 -0.691,1.753 -0.667,0.717 -1.828,0.717 -0.569,0 -0.865,-0.099 0.667,2.322 2.693,4.002 2.05,1.68 4.743,1.68 3.384,0 5.41,-3.286 1.21,-2.124 1.21,-6.941 0,-4.249 -0.914,-6.374 -1.408,-3.236 -4.298,-3.236 -4.101,0 -6.522,3.533 -0.296,0.444 -0.642,0.469 -0.494,0 -0.618,-0.272 -0.099,-0.296 -0.099,-1.062 v -14.97 q 0,-1.211 0.495,-1.211 0.197,0 0.617,0.149 3.187,1.408 6.719,1.432 3.632,0 6.893,-1.482 0.247,-0.148 0.395,-0.148 0.494,0 0.519,0.568 0,0.198 -0.42,0.791 -0.396,0.568 -1.26,1.334 -0.865,0.741 -1.976,1.457 -1.112,0.716 -2.743,1.211 -1.605,0.469 -3.384,0.469 -2.124,0 -4.298,-0.667 v 9.857 q 2.618,-2.57 6.423,-2.57 4.051,0 6.842,3.261 2.792,3.261 2.792,7.806 0,4.768 -3.31,8.029 -3.286,3.261 -7.732,3.261 -4.052,0 -6.621,-2.89 -2.544,-2.891 -2.544,-6.374 z"
     fill="#000000"
     fill-rule="evenodd"
     fill-opacity="1"
     id="path141"
     transform="translate(-180.114,-47)" />
  <path
     clip-path="url(#clip960)"
     d="m 324.097,430.385 q 0,-7.436 1.878,-11.487 2.618,-6.028 8.794,-6.028 1.309,0 2.668,0.37 1.384,0.346 3.113,1.705 1.754,1.359 2.816,3.582 2.026,4.298 2.026,11.858 0,7.386 -1.878,11.413 -2.742,5.879 -8.794,5.879 -2.273,0 -4.595,-1.161 -2.297,-1.161 -3.755,-3.953 -2.273,-4.175 -2.273,-12.178 m 4.2,-0.618 q 0,7.633 0.543,10.672 0.618,3.285 2.298,4.718 1.704,1.408 3.582,1.408 2.025,0 3.705,-1.507 1.705,-1.531 2.224,-4.817 0.568,-3.236 0.543,-10.474 0,-7.04 -0.494,-9.857 -0.667,-3.285 -2.446,-4.594 -1.754,-1.334 -3.532,-1.334 -0.667,0 -1.384,0.197 -0.691,0.198 -1.704,0.766 -1.013,0.568 -1.803,1.976 -0.766,1.408 -1.137,3.533 -0.395,2.742 -0.395,9.313 z"
     fill="#000000"
     fill-rule="evenodd"
     fill-opacity="1"
     id="path143"
     transform="translate(-180.114,-47)" />
  <path
     clip-path="url(#clip960)"
     d="m 259.992,293.941 q 0,-7.435 1.878,-11.487 2.618,-6.027 8.794,-6.027 1.309,0 2.668,0.37 1.383,0.346 3.113,1.705 1.754,1.358 2.816,3.582 2.025,4.298 2.025,11.857 0,7.387 -1.877,11.413 -2.742,5.88 -8.794,5.88 -2.273,0 -4.595,-1.161 -2.298,-1.161 -3.755,-3.953 -2.273,-4.175 -2.273,-12.179 m 4.2,-0.617 q 0,7.633 0.543,10.672 0.618,3.285 2.298,4.718 1.704,1.408 3.582,1.408 2.025,0 3.705,-1.507 1.705,-1.532 2.223,-4.817 0.569,-3.236 0.544,-10.474 0,-7.041 -0.494,-9.857 -0.667,-3.285 -2.446,-4.595 -1.754,-1.334 -3.532,-1.334 -0.667,0 -1.384,0.198 -0.692,0.198 -1.704,0.766 -1.013,0.568 -1.804,1.976 -0.765,1.408 -1.136,3.533 -0.395,2.742 -0.395,9.313 z"
     fill="#000000"
     fill-rule="evenodd"
     fill-opacity="1"
     id="path145"
     transform="translate(-180.114,-47)" />
  <path
     clip-path="url(#clip960)"
     d="m 288.376,309.307 q -0.766,-0.815 -0.766,-1.878 0,-1.062 0.766,-1.828 0.766,-0.79 1.927,-0.79 1.112,0 1.853,0.741 0.766,0.716 0.766,1.902 0,1.161 -0.815,1.927 -0.791,0.741 -1.804,0.741 -1.161,0 -1.927,-0.815 z"
     fill="#000000"
     fill-rule="evenodd"
     fill-opacity="1"
     id="path147"
     transform="translate(-180.114,-47)" />
  <path
     clip-path="url(#clip960)"
     d="m 300.209,286.333 1.655,-10.4 h 1.26 q 0.148,0.617 0.395,0.889 0.272,0.272 1.705,0.494 1.457,0.222 4.397,0.222 h 12.278 q 0,1.161 -0.445,1.779 l -6.843,9.61 q -2.174,3.038 -3.137,8.646 -0.568,3.755 -0.544,8.3 v 2.569 q 0,2.792 -2.346,2.792 -2.322,0 -2.322,-2.792 0,-9.659 6.225,-19.021 0.667,-0.964 3.112,-4.398 2.471,-3.433 2.57,-3.582 h -10.475 q -4.595,0 -4.965,0.297 -0.494,0.445 -1.26,4.595 z"
     fill="#000000"
     fill-rule="evenodd"
     fill-opacity="1"
     id="path149"
     transform="translate(-180.114,-47)" />
  <path
     clip-path="url(#clip960)"
     d="m 325.184,301.97 q 0,-1.507 0.816,-2.075 0.815,-0.593 1.679,-0.593 1.161,0 1.828,0.741 0.692,0.716 0.692,1.729 0,1.013 -0.692,1.754 -0.667,0.717 -1.828,0.717 -0.568,0 -0.864,-0.099 0.667,2.322 2.692,4.002 2.051,1.68 4.743,1.68 3.385,0 5.41,-3.286 1.211,-2.124 1.211,-6.942 0,-4.249 -0.914,-6.373 -1.408,-3.236 -4.298,-3.236 -4.101,0 -6.522,3.532 -0.297,0.445 -0.642,0.47 -0.495,0 -0.618,-0.272 -0.099,-0.296 -0.099,-1.062 v -14.971 q 0,-1.21 0.494,-1.21 0.198,0 0.618,0.148 3.187,1.408 6.719,1.433 3.632,0 6.892,-1.482 0.247,-0.148 0.396,-0.148 0.494,0 0.518,0.568 0,0.197 -0.42,0.79 -0.395,0.568 -1.259,1.334 -0.865,0.741 -1.977,1.458 -1.111,0.716 -2.742,1.21 -1.606,0.47 -3.384,0.47 -2.125,0 -4.299,-0.667 v 9.856 q 2.619,-2.569 6.423,-2.569 4.052,0 6.843,3.261 2.792,3.261 2.792,7.806 0,4.768 -3.311,8.029 -3.285,3.261 -7.732,3.261 -4.051,0 -6.62,-2.891 -2.545,-2.89 -2.545,-6.373 z"
     fill="#000000"
     fill-rule="evenodd"
     fill-opacity="1"
     id="path151"
     transform="translate(-180.114,-47)" />
  <path
     clip-path="url(#clip960)"
     d="m 261.968,144.8 v -1.581 q 6.077,0 9.215,-3.236 0.864,0 1.013,0.198 0.148,0.198 0.148,1.112 v 28.384 q 0,1.507 0.741,1.976 0.741,0.469 3.977,0.469 h 1.606 v 1.557 q -1.779,-0.149 -8.202,-0.149 -6.423,0 -8.176,0.149 v -1.557 h 1.605 q 3.187,0 3.953,-0.444 0.766,-0.47 0.766,-2.001 v -26.21 q -2.644,1.333 -6.646,1.333 z"
     fill="#000000"
     fill-rule="evenodd"
     fill-opacity="1"
     id="path153"
     transform="translate(-180.114,-47)" />
  <path
     clip-path="url(#clip960)"
     d="m 287.833,172.864 q -0.766,-0.816 -0.766,-1.878 0,-1.062 0.766,-1.828 0.766,-0.791 1.927,-0.791 1.111,0 1.852,0.742 0.766,0.716 0.766,1.902 0,1.161 -0.815,1.927 -0.79,0.741 -1.803,0.741 -1.161,0 -1.927,-0.815 z"
     fill="#000000"
     fill-rule="evenodd"
     fill-opacity="1"
     id="path155"
     transform="translate(-180.114,-47)" />
  <path
     clip-path="url(#clip960)"
     d="m 298.801,157.498 q 0,-7.436 1.878,-11.487 2.618,-6.028 8.794,-6.028 1.309,0 2.668,0.371 1.383,0.346 3.113,1.704 1.753,1.359 2.816,3.582 2.025,4.299 2.025,11.858 0,7.386 -1.877,11.413 -2.742,5.879 -8.794,5.879 -2.273,0 -4.595,-1.161 -2.298,-1.161 -3.755,-3.952 -2.273,-4.175 -2.273,-12.179 m 4.2,-0.618 q 0,7.634 0.543,10.672 0.618,3.286 2.298,4.719 1.704,1.408 3.582,1.408 2.025,0 3.705,-1.507 1.705,-1.532 2.223,-4.817 0.569,-3.236 0.544,-10.475 0,-7.04 -0.494,-9.856 -0.667,-3.286 -2.446,-4.595 -1.754,-1.334 -3.532,-1.334 -0.667,0 -1.384,0.198 -0.692,0.197 -1.704,0.765 -1.013,0.569 -1.804,1.977 -0.766,1.408 -1.136,3.532 -0.395,2.742 -0.395,9.313 z"
     fill="#000000"
     fill-rule="evenodd"
     fill-opacity="1"
     id="path157"
     transform="translate(-180.114,-47)" />
  <path
     clip-path="url(#clip960)"
     d="m 324.097,157.498 q 0,-7.436 1.878,-11.487 2.618,-6.028 8.794,-6.028 1.309,0 2.668,0.371 1.384,0.346 3.113,1.704 1.754,1.359 2.816,3.582 2.026,4.299 2.026,11.858 0,7.386 -1.878,11.413 -2.742,5.879 -8.794,5.879 -2.273,0 -4.595,-1.161 -2.297,-1.161 -3.755,-3.952 -2.273,-4.175 -2.273,-12.179 m 4.2,-0.618 q 0,7.634 0.543,10.672 0.618,3.286 2.298,4.719 1.704,1.408 3.582,1.408 2.025,0 3.705,-1.507 1.705,-1.532 2.224,-4.817 0.568,-3.236 0.543,-10.475 0,-7.04 -0.494,-9.856 -0.667,-3.286 -2.446,-4.595 -1.754,-1.334 -3.532,-1.334 -0.667,0 -1.384,0.198 -0.691,0.197 -1.704,0.765 -1.013,0.569 -1.803,1.977 -0.766,1.408 -1.137,3.532 -0.395,2.742 -0.395,9.313 z"
     fill="#000000"
     fill-rule="evenodd"
     fill-opacity="1"
     id="path159"
     transform="translate(-180.114,-47)" />
  <path
     clip-path="url(#clip960)"
     d="m 195.739,451.576 -15.625,-1.325 v -42.493 l 15.625,-1.325 v 1.733 q -3.125,0.271 -4.925,0.543 -1.8,0.238 -3.499,0.849 -1.732,0.578 -2.547,1.325 -0.849,0.713 -1.495,2.106 -0.679,1.393 -0.849,3.193 -0.17,1.8 -0.17,4.517 0,3.193 0.136,3.975 0.204,0.849 0.815,1.053 0.578,0.203 1.834,0.203 h 36.651 q 1.393,0 1.97,-0.271 0.544,-0.306 0.985,-1.903 0.408,-1.596 0.408,-5.129 v -2.785 h 2.14 q -0.204,2.853 -0.204,13.213 0,10.292 0.204,13.146 h -2.14 v -2.786 q 0,-3.532 -0.408,-5.129 -0.441,-1.63 -0.985,-1.902 -0.577,-0.272 -1.97,-0.272 h -36.651 q -0.985,0 -1.392,0.068 -0.408,0.068 -0.747,0.374 -0.374,0.306 -0.51,1.019 -0.136,0.679 -0.136,3.736 0,2.718 0.17,4.552 0.17,1.8 0.849,3.193 0.646,1.393 1.495,2.14 0.815,0.713 2.547,1.325 1.699,0.577 3.499,0.815 1.8,0.237 4.925,0.509 z"
     fill="#000000"
     fill-rule="evenodd"
     fill-opacity="1"
     id="path161"
     transform="translate(-180.114,-47)" />
  <path
     clip-path="url(#clip960)"
     d="m 227.193,401.576 h -2.14 q 0,-3.702 -0.442,-4.552 -0.475,-0.849 -2.717,-0.849 h -18.716 q -2.582,0 -3.193,0.883 -0.611,0.85 -0.611,4.246 H 197.2 l -0.748,-9.714 h 25.51 q 2.072,0 2.581,-0.748 0.51,-0.747 0.51,-4.144 h 2.14 q -0.204,7.099 -0.204,7.235 0,0.951 0.204,7.643 m -42.867,-2.921 q -1.392,0 -2.513,-1.053 -1.155,-1.087 -1.155,-2.616 0,-1.528 1.053,-2.615 1.019,-1.087 2.649,-1.087 1.597,0 2.65,1.087 1.019,1.087 1.019,2.615 0,1.597 -1.121,2.65 -1.121,1.019 -2.582,1.019 z"
     fill="#000000"
     fill-rule="evenodd"
     fill-opacity="1"
     id="path163"
     transform="translate(-180.114,-47)" />
  <path
     clip-path="url(#clip960)"
     d="m 227.193,382.385 h -2.14 q 0,-3.703 -0.442,-4.552 -0.475,-0.849 -2.717,-0.849 h -18.648 q -2.582,0 -3.227,0.917 -0.645,0.883 -0.645,4.484 H 197.2 l -0.748,-9.783 h 7.303 q -7.303,-3.261 -7.303,-10.292 0,-8.152 6.794,-9.273 -2.65,-1.189 -4.722,-3.669 -2.072,-2.513 -2.072,-6.419 0,-5.231 2.582,-7.303 1.732,-1.529 3.668,-1.834 1.936,-0.306 6.964,-0.306 h 13.281 q 1.46,-0.068 1.8,-1.189 0.306,-1.121 0.306,-4.246 h 2.14 q -0.204,7.099 -0.204,7.779 0,0.543 0.204,7.88 h -2.14 q 0,-3.702 -0.442,-4.552 -0.475,-0.883 -2.717,-0.883 h -16.203 q -3.532,0 -5.604,1.087 -2.106,1.087 -2.106,4.076 0,3.601 3.023,6.488 3.023,2.887 8.118,2.887 h 12.772 q 2.242,0 2.717,-0.849 0.442,-0.883 0.442,-4.586 h 2.14 q -0.204,7.1 -0.204,7.813 0,0.543 0.204,7.846 h -2.14 q 0,-3.702 -0.442,-4.551 -0.475,-0.883 -2.717,-0.883 h -16.203 q -3.532,0 -5.604,1.086 -2.106,1.087 -2.106,4.077 0,3.6 3.023,6.487 3.023,2.887 8.118,2.887 h 12.772 q 2.242,0 2.717,-0.849 0.442,-0.883 0.442,-4.551 h 2.14 q -0.204,7.099 -0.204,7.778 0,0.544 0.204,7.847 z"
     fill="#000000"
     fill-rule="evenodd"
     fill-opacity="1"
     id="path165"
     transform="translate(-180.114,-47)" />
  <path
     clip-path="url(#clip960)"
     d="m 211.873,324.776 q -6.555,0 -11.209,-4.212 -4.653,-4.212 -4.653,-10.258 0,-6.114 3.974,-9.273 3.974,-3.193 9.681,-3.193 1.053,0 1.256,0.272 0.204,0.272 0.204,1.461 v 19.429 q 7.099,0 10.428,-2.106 4.654,-2.921 4.654,-7.846 0,-0.68 -0.136,-1.495 -0.136,-0.815 -0.714,-2.48 -0.611,-1.664 -2.207,-3.125 -1.597,-1.46 -4.11,-2.309 -0.985,-0.204 -0.952,-0.884 0,-0.917 0.816,-0.917 0.611,0 2.004,0.68 1.358,0.645 2.989,1.902 1.63,1.257 2.853,3.702 1.223,2.412 1.223,5.333 0,6.114 -4.62,10.734 -4.653,4.585 -11.481,4.585 m -2.207,-5.842 v -16.508 q -1.461,0 -3.091,0.272 -1.631,0.237 -3.873,0.985 -2.275,0.713 -3.702,2.411 -1.427,1.699 -1.427,4.212 0,1.121 0.476,2.344 0.475,1.189 1.63,2.649 1.155,1.461 3.771,2.48 2.615,1.019 6.216,1.155 z"
     fill="#000000"
     fill-rule="evenodd"
     fill-opacity="1"
     id="path167"
     transform="translate(-180.114,-47)" />
  <polyline
     clip-path="url(#clip962)"
     style="fill:none;stroke:#808080;stroke-width:4;stroke-linecap:butt;stroke-linejoin:round;stroke-opacity:1"
     points="   -291.536,156.399 1673.25,156.399    "
     id="polyline169"
     transform="translate(-180.114,-47)" />
  <polyline
     clip-path="url(#clip962)"
     style="fill:none;stroke:#808080;stroke-width:4;stroke-linecap:butt;stroke-linejoin:round;stroke-opacity:1"
     points="   909.165,1357.1 909.165,-607.684    "
     id="polyline171"
     transform="translate(-180.114,-47)" />
  <polyline
     clip-path="url(#clip962)"
     style="fill:none;stroke:#d35400;stroke-width:12;stroke-linecap:butt;stroke-linejoin:round;stroke-opacity:1"
     stroke-dasharray="48, 30"
     points="   363.392,702.172 404.325,636.679    "
     id="polyline173"
     transform="translate(-180.114,-47)" />
  <polyline
     clip-path="url(#clip962)"
     style="fill:none;stroke:#d35400;stroke-width:12;stroke-linecap:butt;stroke-linejoin:round;stroke-opacity:1"
     stroke-dasharray="48, 30"
     points="   404.325,636.679 469.817,590.288    "
     id="polyline175"
     transform="translate(-180.114,-47)" />
  <polyline
     clip-path="url(#clip962)"
     style="fill:none;stroke:#d35400;stroke-width:12;stroke-linecap:butt;stroke-linejoin:round;stroke-opacity:1"
     stroke-dasharray="48, 30"
     points="   469.817,590.288 529.852,546.627    "
     id="polyline177"
     transform="translate(-180.114,-47)" />
  <polyline
     clip-path="url(#clip962)"
     style="fill:none;stroke:#d35400;stroke-width:12;stroke-linecap:butt;stroke-linejoin:round;stroke-opacity:1"
     stroke-dasharray="48, 30"
     points="   529.852,546.627 573.514,483.863    "
     id="polyline179"
     transform="translate(-180.114,-47)" />
  <polyline
     clip-path="url(#clip962)"
     style="fill:none;stroke:#2980b9;stroke-width:12;stroke-linecap:butt;stroke-linejoin:round;stroke-opacity:1"
     points="   573.514,483.863 666.296,448.387    "
     id="polyline181"
     transform="translate(-180.114,-47)" />
  <polyline
     clip-path="url(#clip962)"
     style="fill:none;stroke:#d35400;stroke-width:12;stroke-linecap:butt;stroke-linejoin:round;stroke-opacity:1"
     stroke-dasharray="48, 30"
     points="   666.296,448.387 712.686,366.521    "
     id="polyline183"
     transform="translate(-180.114,-47)" />
  <polyline
     clip-path="url(#clip962)"
     style="fill:none;stroke:#2980b9;stroke-width:12;stroke-linecap:butt;stroke-linejoin:round;stroke-opacity:1"
     points="   712.686,366.521 802.739,322.86    "
     id="polyline185"
     transform="translate(-180.114,-47)" />
  <circle
     clip-path="url(#clip962)"
     cx="363.392"
     cy="702.172"
     r="10"
     fill="#2c3e50"
     fill-rule="evenodd"
     fill-opacity="1"
     stroke="#000000"
     stroke-opacity="1"
     stroke-width="0"
     id="circle187"
     transform="translate(-180.114,-47)" />
  <circle
     clip-path="url(#clip962)"
     cx="404.32501"
     cy="636.67902"
     r="10"
     fill="#2c3e50"
     fill-rule="evenodd"
     fill-opacity="1"
     stroke="#000000"
     stroke-opacity="1"
     stroke-width="0"
     id="circle189"
     transform="translate(-180.114,-47)" />
  <circle
     clip-path="url(#clip962)"
     cx="469.81699"
     cy="590.28802"
     r="10"
     fill="#2c3e50"
     fill-rule="evenodd"
     fill-opacity="1"
     stroke="#000000"
     stroke-opacity="1"
     stroke-width="0"
     id="circle191"
     transform="translate(-180.114,-47)" />
  <circle
     clip-path="url(#clip962)"
     cx="529.85199"
     cy="546.62701"
     r="10"
     fill="#2c3e50"
     fill-rule="evenodd"
     fill-opacity="1"
     stroke="#000000"
     stroke-opacity="1"
     stroke-width="0"
     id="circle193"
     transform="translate(-180.114,-47)" />
  <circle
     clip-path="url(#clip962)"
     cx="573.51398"
     cy="483.86301"
     r="10"
     fill="#2c3e50"
     fill-rule="evenodd"
     fill-opacity="1"
     stroke="#000000"
     stroke-opacity="1"
     stroke-width="0"
     id="circle195"
     transform="translate(-180.114,-47)" />
  <circle
     clip-path="url(#clip962)"
     cx="666.29602"
     cy="448.38699"
     r="10"
     fill="#2c3e50"
     fill-rule="evenodd"
     fill-opacity="1"
     stroke="#000000"
     stroke-opacity="1"
     stroke-width="0"
     id="circle197"
     transform="translate(-180.114,-47)" />
  <circle
     clip-path="url(#clip962)"
     cx="712.68597"
     cy="366.521"
     r="10"
     fill="#2c3e50"
     fill-rule="evenodd"
     fill-opacity="1"
     stroke="#000000"
     stroke-opacity="1"
     stroke-width="0"
     id="circle199"
     transform="translate(-180.114,-47)" />
  <circle
     clip-path="url(#clip962)"
     cx="802.73901"
     cy="322.85999"
     r="10"
     fill="#2c3e50"
     fill-rule="evenodd"
     fill-opacity="1"
     stroke="#000000"
     stroke-opacity="1"
     stroke-width="0"
     id="circle201"
     transform="translate(-180.114,-47)" />
  <circle
     clip-path="url(#clip962)"
     cx="802.73901"
     cy="322.85999"
     r="10"
     fill="#2c3e50"
     fill-rule="evenodd"
     fill-opacity="1"
     stroke="#000000"
     stroke-opacity="1"
     stroke-width="0"
     id="circle203"
     transform="translate(-180.114,-47)" />
  <path
     clip-path="url(#clip962)"
     d="M 873.69,317.402 V 273.74 h 43.661 v 43.662 z"
     fill="#2980b9"
     fill-rule="evenodd"
     fill-opacity="0.8"
     id="path205"
     transform="translate(-180.114,-47)" />
  <polyline
     clip-path="url(#clip962)"
     style="fill:none;stroke:#000000;stroke-width:0;stroke-linecap:butt;stroke-linejoin:round;stroke-opacity:0.8"
     points="   873.69,317.402 873.69,273.74 917.351,273.74 917.351,317.402 873.69,317.402    "
     id="polyline207"
     transform="translate(-180.114,-47)" />
  <polyline
     clip-path="url(#clip962)"
     style="fill:none;stroke:#2980b9;stroke-width:4;stroke-linecap:butt;stroke-linejoin:round;stroke-opacity:1"
     points="   802.739,322.86 895.52,295.571    "
     id="polyline209"
     transform="translate(-180.114,-47)" />
  <circle
     clip-path="url(#clip962)"
     cx="802.73901"
     cy="322.85999"
     r="10"
     fill="#2c3e50"
     fill-rule="evenodd"
     fill-opacity="1"
     stroke="#000000"
     stroke-opacity="1"
     stroke-width="0"
     id="circle211"
     transform="translate(-180.114,-47)" />
  <path
     clip-path="url(#clip962)"
     d="m 835.485,279.198 v -43.662 h 43.662 v 43.662 z"
     fill="#d35400"
     fill-rule="evenodd"
     fill-opacity="0.8"
     id="path213"
     transform="translate(-180.114,-47)" />
  <polyline
     clip-path="url(#clip962)"
     style="fill:none;stroke:#000000;stroke-width:0;stroke-linecap:butt;stroke-linejoin:round;stroke-opacity:0.8"
     points="   835.485,279.198 835.485,235.536 879.147,235.536 879.147,279.198 835.485,279.198    "
     id="polyline215"
     transform="translate(-180.114,-47)" />
  <polyline
     clip-path="url(#clip962)"
     style="fill:none;stroke:#d35400;stroke-width:4;stroke-linecap:butt;stroke-linejoin:round;stroke-opacity:1"
     stroke-dasharray="16, 10"
     points="   802.739,322.86 857.316,257.367    "
     id="polyline217"
     transform="translate(-180.114,-47)" />
  <path
     clip-path="url(#clip962)"
     d="M 363.392,156.399 H 909.165 V -389.374 H 363.392 Z"
     fill="#ff9178"
     fill-rule="evenodd"
     fill-opacity="0.6"
     id="path219"
     transform="translate(-180.114,-47)" />
  <polyline
     clip-path="url(#clip962)"
     style="fill:none;stroke:#000000;stroke-width:0;stroke-linecap:butt;stroke-linejoin:round;stroke-opacity:1"
     points="   363.392,156.399 909.165,156.399 909.165,-389.374 363.392,-389.374 363.392,156.399    "
     id="polyline221"
     transform="translate(-180.114,-47)" />
  <path
     clip-path="url(#clip962)"
     d="M 909.165,702.172 H 1454.94 V -389.374 H 909.165 Z"
     fill="#2ecc71"
     fill-rule="evenodd"
     fill-opacity="0.6"
     id="path223"
     transform="translate(-180.114,-47)" />
  <polyline
     clip-path="url(#clip962)"
     style="fill:none;stroke:#000000;stroke-width:0;stroke-linecap:butt;stroke-linejoin:round;stroke-opacity:1"
     points="   909.165,702.172 1454.94,702.172 1454.94,-389.374 909.165,-389.374 909.165,702.172    "
     id="polyline225"
     transform="translate(-180.114,-47)" />
</svg>
