<?xml version="1.0" encoding="utf-8"?>
<svg xmlns="http://www.w3.org/2000/svg" xmlns:xlink="http://www.w3.org/1999/xlink" width="300" height="140" viewBox="0 0 1200 560">
<defs>
  <clipPath id="clip250">
    <rect x="0" y="0" width="1200" height="560"/>
  </clipPath>
</defs>
<path clip-path="url(#clip250)" d="
M0 560 L1200 560 L1200 0 L0 0  Z
  " fill="#ffffff" fill-rule="evenodd" fill-opacity="1"/>
<defs>
  <clipPath id="clip251">
    <rect x="240" y="0" width="841" height="560"/>
  </clipPath>
</defs>
<path clip-path="url(#clip250)" d="
M170.446 418.204 L856.936 418.204 L856.936 47.2441 L170.446 47.2441  Z
  " fill="#ffffff" fill-rule="evenodd" fill-opacity="1"/>
<defs>
  <clipPath id="clip252">
    <rect x="170" y="47" width="687" height="372"/>
  </clipPath>
</defs>
<polyline clip-path="url(#clip252)" style="stroke:#000000; stroke-linecap:round; stroke-linejoin:round; stroke-width:2; stroke-opacity:0.1; fill:none" points="
  270.343,418.204 270.343,47.2441 
  "/>
<polyline clip-path="url(#clip252)" style="stroke:#000000; stroke-linecap:round; stroke-linejoin:round; stroke-width:2; stroke-opacity:0.1; fill:none" points="
  432.575,418.204 432.575,47.2441 
  "/>
<polyline clip-path="url(#clip252)" style="stroke:#000000; stroke-linecap:round; stroke-linejoin:round; stroke-width:2; stroke-opacity:0.1; fill:none" points="
  594.807,418.204 594.807,47.2441 
  "/>
<polyline clip-path="url(#clip252)" style="stroke:#000000; stroke-linecap:round; stroke-linejoin:round; stroke-width:2; stroke-opacity:0.1; fill:none" points="
  757.04,418.204 757.04,47.2441 
  "/>
<polyline clip-path="url(#clip250)" style="stroke:#000000; stroke-linecap:round; stroke-linejoin:round; stroke-width:4; stroke-opacity:1; fill:none" points="
  170.446,418.204 856.936,418.204 
  "/>
<polyline clip-path="url(#clip250)" style="stroke:#000000; stroke-linecap:round; stroke-linejoin:round; stroke-width:4; stroke-opacity:1; fill:none" points="
  270.343,418.204 270.343,399.306 
  "/>
<polyline clip-path="url(#clip250)" style="stroke:#000000; stroke-linecap:round; stroke-linejoin:round; stroke-width:4; stroke-opacity:1; fill:none" points="
  432.575,418.204 432.575,399.306 
  "/>
<polyline clip-path="url(#clip250)" style="stroke:#000000; stroke-linecap:round; stroke-linejoin:round; stroke-width:4; stroke-opacity:1; fill:none" points="
  594.807,418.204 594.807,399.306 
  "/>
<polyline clip-path="url(#clip250)" style="stroke:#000000; stroke-linecap:round; stroke-linejoin:round; stroke-width:4; stroke-opacity:1; fill:none" points="
  757.04,418.204 757.04,399.306 
  "/>
<path clip-path="url(#clip250)" d="M233.671 442.126 L233.671 440.545 Q239.748 440.545 242.885 437.308 Q243.749 437.308 243.898 437.506 Q244.046 437.704 244.046 438.618 L244.046 467.002 Q244.046 468.509 244.787 468.978 Q245.528 469.448 248.764 469.448 L250.37 469.448 L250.37 471.004 Q248.591 470.856 242.168 470.856 Q235.746 470.856 233.992 471.004 L233.992 469.448 L235.597 469.448 Q238.784 469.448 239.55 469.003 Q240.316 468.534 240.316 467.002 L240.316 440.792 Q237.672 442.126 233.671 442.126 Z" fill="#000000" fill-rule="evenodd" fill-opacity="1" /><path clip-path="url(#clip250)" d="M256.99 462.852 Q256.99 461.345 257.806 460.777 Q258.621 460.184 259.486 460.184 Q260.647 460.184 261.314 460.925 Q262.005 461.641 262.005 462.654 Q262.005 463.667 261.314 464.408 Q260.647 465.124 259.486 465.124 Q258.917 465.124 258.621 465.026 Q259.288 467.348 261.314 469.028 Q263.364 470.707 266.057 470.707 Q269.441 470.707 271.467 467.422 Q272.677 465.297 272.677 460.48 Q272.677 456.231 271.763 454.107 Q270.355 450.871 267.465 450.871 Q263.364 450.871 260.943 454.403 Q260.647 454.848 260.301 454.873 Q259.807 454.873 259.683 454.601 Q259.584 454.304 259.584 453.539 L259.584 438.568 Q259.584 437.358 260.078 437.358 Q260.276 437.358 260.696 437.506 Q263.883 438.914 267.415 438.939 Q271.047 438.939 274.308 437.457 Q274.555 437.308 274.703 437.308 Q275.197 437.308 275.222 437.877 Q275.222 438.074 274.802 438.667 Q274.406 439.235 273.542 440.001 Q272.677 440.742 271.565 441.459 Q270.454 442.175 268.823 442.669 Q267.218 443.138 265.439 443.138 Q263.315 443.138 261.141 442.471 L261.141 452.328 Q263.759 449.759 267.564 449.759 Q271.615 449.759 274.406 453.02 Q277.198 456.281 277.198 460.826 Q277.198 465.594 273.888 468.855 Q270.602 472.115 266.155 472.115 Q262.104 472.115 259.535 469.225 Q256.99 466.335 256.99 462.852 Z" fill="#000000" fill-rule="evenodd" fill-opacity="1" /><path clip-path="url(#clip250)" d="M281.743 454.823 Q281.743 447.387 283.621 443.336 Q286.239 437.308 292.415 437.308 Q293.724 437.308 295.083 437.679 Q296.466 438.025 298.196 439.384 Q299.95 440.742 301.012 442.966 Q303.038 447.264 303.038 454.823 Q303.038 462.209 301.16 466.236 Q298.418 472.115 292.366 472.115 Q290.093 472.115 287.771 470.954 Q285.473 469.793 284.016 467.002 Q281.743 462.827 281.743 454.823 M285.943 454.206 Q285.943 461.839 286.486 464.877 Q287.104 468.163 288.784 469.596 Q290.488 471.004 292.366 471.004 Q294.391 471.004 296.071 469.497 Q297.776 467.965 298.295 464.68 Q298.863 461.444 298.838 454.206 Q298.838 447.165 298.344 444.349 Q297.677 441.063 295.898 439.754 Q294.144 438.42 292.366 438.42 Q291.699 438.42 290.982 438.618 Q290.291 438.815 289.278 439.384 Q288.265 439.952 287.474 441.36 Q286.709 442.768 286.338 444.892 Q285.943 447.634 285.943 454.206 Z" fill="#000000" fill-rule="evenodd" fill-opacity="1" /><path clip-path="url(#clip250)" d="M307.039 454.823 Q307.039 447.387 308.917 443.336 Q311.536 437.308 317.711 437.308 Q319.021 437.308 320.379 437.679 Q321.763 438.025 323.492 439.384 Q325.246 440.742 326.308 442.966 Q328.334 447.264 328.334 454.823 Q328.334 462.209 326.456 466.236 Q323.714 472.115 317.662 472.115 Q315.389 472.115 313.067 470.954 Q310.77 469.793 309.312 467.002 Q307.039 462.827 307.039 454.823 M311.239 454.206 Q311.239 461.839 311.783 464.877 Q312.4 468.163 314.08 469.596 Q315.784 471.004 317.662 471.004 Q319.688 471.004 321.367 469.497 Q323.072 467.965 323.591 464.68 Q324.159 461.444 324.134 454.206 Q324.134 447.165 323.64 444.349 Q322.973 441.063 321.195 439.754 Q319.441 438.42 317.662 438.42 Q316.995 438.42 316.279 438.618 Q315.587 438.815 314.574 439.384 Q313.561 439.952 312.771 441.36 Q312.005 442.768 311.634 444.892 Q311.239 447.634 311.239 454.206 Z" fill="#000000" fill-rule="evenodd" fill-opacity="1" /><path clip-path="url(#clip250)" d="M393.531 464.186 Q393.531 462.679 394.396 461.962 Q395.261 461.246 396.372 461.246 Q397.533 461.246 398.348 462.012 Q399.188 462.753 399.188 464.062 Q399.188 465.47 398.2 466.261 Q397.237 467.051 395.853 466.854 Q397.064 468.879 399.287 469.793 Q401.535 470.707 403.61 470.707 Q405.784 470.707 407.538 468.83 Q409.317 466.952 409.317 462.358 Q409.317 458.455 407.785 456.207 Q406.278 453.959 403.289 453.959 L401.066 453.959 Q400.3 453.959 400.078 453.884 Q399.855 453.81 399.855 453.39 Q399.855 452.896 400.621 452.797 Q401.387 452.797 402.597 452.649 Q405.537 452.55 407.093 450.006 Q408.502 447.634 408.502 444.25 Q408.502 441.162 407.019 439.878 Q405.562 438.568 403.66 438.568 Q401.881 438.568 399.929 439.309 Q397.978 440.051 396.916 441.706 Q400.053 441.706 400.053 444.25 Q400.053 445.362 399.337 446.103 Q398.645 446.819 397.484 446.819 Q396.372 446.819 395.631 446.128 Q394.89 445.411 394.89 444.201 Q394.89 441.31 397.459 439.309 Q400.053 437.308 403.857 437.308 Q407.612 437.308 410.379 439.285 Q413.17 441.261 413.17 444.3 Q413.17 447.289 411.194 449.734 Q409.218 452.18 406.081 453.193 Q409.934 453.959 412.232 456.577 Q414.529 459.171 414.529 462.358 Q414.529 466.31 411.417 469.225 Q408.304 472.115 403.759 472.115 Q399.559 472.115 396.545 469.843 Q393.531 467.57 393.531 464.186 Z" fill="#000000" fill-rule="evenodd" fill-opacity="1" /><path clip-path="url(#clip250)" d="M418.679 454.823 Q418.679 447.387 420.557 443.336 Q423.175 437.308 429.351 437.308 Q430.66 437.308 432.019 437.679 Q433.403 438.025 435.132 439.384 Q436.886 440.742 437.948 442.966 Q439.974 447.264 439.974 454.823 Q439.974 462.209 438.096 466.236 Q435.354 472.115 429.302 472.115 Q427.029 472.115 424.707 470.954 Q422.41 469.793 420.952 467.002 Q418.679 462.827 418.679 454.823 M422.879 454.206 Q422.879 461.839 423.422 464.877 Q424.04 468.163 425.72 469.596 Q427.424 471.004 429.302 471.004 Q431.327 471.004 433.007 469.497 Q434.712 467.965 435.231 464.68 Q435.799 461.444 435.774 454.206 Q435.774 447.165 435.28 444.349 Q434.613 441.063 432.834 439.754 Q431.08 438.42 429.302 438.42 Q428.635 438.42 427.918 438.618 Q427.227 438.815 426.214 439.384 Q425.201 439.952 424.411 441.36 Q423.645 442.768 423.274 444.892 Q422.879 447.634 422.879 454.206 Z" fill="#000000" fill-rule="evenodd" fill-opacity="1" /><path clip-path="url(#clip250)" d="M443.976 454.823 Q443.976 447.387 445.853 443.336 Q448.472 437.308 454.647 437.308 Q455.957 437.308 457.315 437.679 Q458.699 438.025 460.428 439.384 Q462.182 440.742 463.244 442.966 Q465.27 447.264 465.27 454.823 Q465.27 462.209 463.392 466.236 Q460.65 472.115 454.598 472.115 Q452.325 472.115 450.003 470.954 Q447.706 469.793 446.248 467.002 Q443.976 462.827 443.976 454.823 M448.175 454.206 Q448.175 461.839 448.719 464.877 Q449.336 468.163 451.016 469.596 Q452.721 471.004 454.598 471.004 Q456.624 471.004 458.304 469.497 Q460.008 467.965 460.527 464.68 Q461.095 461.444 461.07 454.206 Q461.07 447.165 460.576 444.349 Q459.909 441.063 458.131 439.754 Q456.377 438.42 454.598 438.42 Q453.931 438.42 453.215 438.618 Q452.523 438.815 451.51 439.384 Q450.497 439.952 449.707 441.36 Q448.941 442.768 448.57 444.892 Q448.175 447.634 448.175 454.206 Z" fill="#000000" fill-rule="evenodd" fill-opacity="1" /><path clip-path="url(#clip250)" d="M469.272 454.823 Q469.272 447.387 471.149 443.336 Q473.768 437.308 479.944 437.308 Q481.253 437.308 482.612 437.679 Q483.995 438.025 485.724 439.384 Q487.478 440.742 488.54 442.966 Q490.566 447.264 490.566 454.823 Q490.566 462.209 488.689 466.236 Q485.947 472.115 479.894 472.115 Q477.622 472.115 475.299 470.954 Q473.002 469.793 471.545 467.002 Q469.272 462.827 469.272 454.823 M473.471 454.206 Q473.471 461.839 474.015 464.877 Q474.632 468.163 476.312 469.596 Q478.017 471.004 479.894 471.004 Q481.92 471.004 483.6 469.497 Q485.304 467.965 485.823 464.68 Q486.391 461.444 486.367 454.206 Q486.367 447.165 485.872 444.349 Q485.205 441.063 483.427 439.754 Q481.673 438.42 479.894 438.42 Q479.227 438.42 478.511 438.618 Q477.819 438.815 476.806 439.384 Q475.794 439.952 475.003 441.36 Q474.237 442.768 473.867 444.892 Q473.471 447.634 473.471 454.206 Z" fill="#000000" fill-rule="evenodd" fill-opacity="1" /><path clip-path="url(#clip250)" d="M555.764 455.021 Q555.764 447.066 559.815 442.2 Q563.866 437.308 569.079 437.308 Q572.117 437.308 573.797 438.865 Q575.502 440.396 575.502 442.768 Q575.502 444.077 574.736 444.645 Q573.97 445.214 573.18 445.214 Q572.265 445.214 571.549 444.596 Q570.833 443.978 570.833 442.867 Q570.833 440.594 573.624 440.594 Q572.315 438.568 569.178 438.568 Q568.214 438.568 567.226 438.865 Q566.238 439.137 564.953 440.075 Q563.669 441.014 562.681 442.496 Q561.692 443.978 561.001 446.77 Q560.309 449.561 560.309 453.193 L560.309 454.403 Q562.384 449.388 566.633 449.413 Q570.882 449.413 573.822 452.649 Q576.761 455.885 576.761 460.678 Q576.761 465.594 573.698 468.855 Q570.635 472.115 566.337 472.115 Q564.41 472.115 562.656 471.3 Q560.927 470.51 559.296 468.682 Q557.69 466.854 556.727 463.346 Q555.764 459.838 555.764 455.021 M560.408 459.566 Q560.408 464.532 561.322 466.903 Q561.47 467.298 561.791 467.842 Q562.137 468.385 562.705 469.102 Q563.298 469.793 564.262 470.263 Q565.225 470.707 566.337 470.707 Q569.721 470.707 571.351 467.422 Q572.216 465.594 572.216 460.628 Q572.216 455.564 571.302 453.711 Q569.746 450.574 566.584 450.574 Q564.459 450.574 562.977 452.032 Q561.52 453.489 560.951 455.441 Q560.408 457.392 560.408 459.566 Z" fill="#000000" fill-rule="evenodd" fill-opacity="1" /><path clip-path="url(#clip250)" d="M580.912 454.823 Q580.912 447.387 582.789 443.336 Q585.408 437.308 591.584 437.308 Q592.893 437.308 594.251 437.679 Q595.635 438.025 597.364 439.384 Q599.118 440.742 600.18 442.966 Q602.206 447.264 602.206 454.823 Q602.206 462.209 600.328 466.236 Q597.586 472.115 591.534 472.115 Q589.261 472.115 586.939 470.954 Q584.642 469.793 583.184 467.002 Q580.912 462.827 580.912 454.823 M585.111 454.206 Q585.111 461.839 585.655 464.877 Q586.272 468.163 587.952 469.596 Q589.657 471.004 591.534 471.004 Q593.56 471.004 595.24 469.497 Q596.944 467.965 597.463 464.68 Q598.031 461.444 598.006 454.206 Q598.006 447.165 597.512 444.349 Q596.845 441.063 595.067 439.754 Q593.313 438.42 591.534 438.42 Q590.867 438.42 590.151 438.618 Q589.459 438.815 588.446 439.384 Q587.433 439.952 586.643 441.36 Q585.877 442.768 585.506 444.892 Q585.111 447.634 585.111 454.206 Z" fill="#000000" fill-rule="evenodd" fill-opacity="1" /><path clip-path="url(#clip250)" d="M606.208 454.823 Q606.208 447.387 608.085 443.336 Q610.704 437.308 616.88 437.308 Q618.189 437.308 619.548 437.679 Q620.931 438.025 622.66 439.384 Q624.414 440.742 625.477 442.966 Q627.502 447.264 627.502 454.823 Q627.502 462.209 625.625 466.236 Q622.883 472.115 616.83 472.115 Q614.558 472.115 612.236 470.954 Q609.938 469.793 608.481 467.002 Q606.208 462.827 606.208 454.823 M610.407 454.206 Q610.407 461.839 610.951 464.877 Q611.569 468.163 613.248 469.596 Q614.953 471.004 616.83 471.004 Q618.856 471.004 620.536 469.497 Q622.24 467.965 622.759 464.68 Q623.327 461.444 623.303 454.206 Q623.303 447.165 622.809 444.349 Q622.142 441.063 620.363 439.754 Q618.609 438.42 616.83 438.42 Q616.163 438.42 615.447 438.618 Q614.755 438.815 613.742 439.384 Q612.73 439.952 611.939 441.36 Q611.173 442.768 610.803 444.892 Q610.407 447.634 610.407 454.206 Z" fill="#000000" fill-rule="evenodd" fill-opacity="1" /><path clip-path="url(#clip250)" d="M631.504 454.823 Q631.504 447.387 633.382 443.336 Q636 437.308 642.176 437.308 Q643.485 437.308 644.844 437.679 Q646.227 438.025 647.957 439.384 Q649.711 440.742 650.773 442.966 Q652.798 447.264 652.798 454.823 Q652.798 462.209 650.921 466.236 Q648.179 472.115 642.127 472.115 Q639.854 472.115 637.532 470.954 Q635.234 469.793 633.777 467.002 Q631.504 462.827 631.504 454.823 M635.704 454.206 Q635.704 461.839 636.247 464.877 Q636.865 468.163 638.545 469.596 Q640.249 471.004 642.127 471.004 Q644.152 471.004 645.832 469.497 Q647.537 467.965 648.055 464.68 Q648.624 461.444 648.599 454.206 Q648.599 447.165 648.105 444.349 Q647.438 441.063 645.659 439.754 Q643.905 438.42 642.127 438.42 Q641.46 438.42 640.743 438.618 Q640.051 438.815 639.039 439.384 Q638.026 439.952 637.235 441.36 Q636.47 442.768 636.099 444.892 Q635.704 447.634 635.704 454.206 Z" fill="#000000" fill-rule="evenodd" fill-opacity="1" /><path clip-path="url(#clip250)" d="M697.06 442.126 L697.06 440.545 Q703.137 440.545 706.274 437.308 Q707.139 437.308 707.287 437.506 Q707.435 437.704 707.435 438.618 L707.435 467.002 Q707.435 468.509 708.176 468.978 Q708.917 469.448 712.154 469.448 L713.759 469.448 L713.759 471.004 Q711.981 470.856 705.558 470.856 Q699.135 470.856 697.381 471.004 L697.381 469.448 L698.987 469.448 Q702.173 469.448 702.939 469.003 Q703.705 468.534 703.705 467.002 L703.705 440.792 Q701.062 442.126 697.06 442.126 Z" fill="#000000" fill-rule="evenodd" fill-opacity="1" /><path clip-path="url(#clip250)" d="M720.38 471.004 Q720.38 470.09 720.454 469.818 Q720.553 469.546 720.948 469.126 L730.656 458.306 Q735.968 452.328 735.968 447.116 Q735.968 443.731 734.189 441.31 Q732.435 438.889 729.199 438.889 Q726.976 438.889 725.098 440.248 Q723.221 441.607 722.356 444.028 Q722.504 443.978 723.023 443.978 Q724.283 443.978 724.975 444.769 Q725.691 445.559 725.691 446.622 Q725.691 447.98 724.802 448.647 Q723.937 449.29 723.073 449.29 Q722.727 449.29 722.257 449.215 Q721.813 449.141 721.096 448.45 Q720.38 447.733 720.38 446.473 Q720.38 442.941 723.048 440.125 Q725.74 437.308 729.841 437.308 Q734.485 437.308 737.524 440.075 Q740.587 442.817 740.587 447.116 Q740.587 448.623 740.118 450.006 Q739.673 451.365 739.056 452.427 Q738.463 453.489 736.832 455.194 Q735.202 456.898 733.893 458.109 Q732.583 459.319 729.644 461.888 L724.283 467.101 L733.399 467.101 Q737.845 467.101 738.191 466.705 Q738.685 465.989 739.303 462.209 L740.587 462.209 L739.154 471.004 L720.38 471.004 Z" fill="#000000" fill-rule="evenodd" fill-opacity="1" /><path clip-path="url(#clip250)" d="M745.133 454.823 Q745.133 447.387 747.01 443.336 Q749.629 437.308 755.804 437.308 Q757.114 437.308 758.472 437.679 Q759.856 438.025 761.585 439.384 Q763.339 440.742 764.401 442.966 Q766.427 447.264 766.427 454.823 Q766.427 462.209 764.549 466.236 Q761.807 472.115 755.755 472.115 Q753.482 472.115 751.16 470.954 Q748.863 469.793 747.405 467.002 Q745.133 462.827 745.133 454.823 M749.332 454.206 Q749.332 461.839 749.876 464.877 Q750.493 468.163 752.173 469.596 Q753.878 471.004 755.755 471.004 Q757.781 471.004 759.461 469.497 Q761.165 467.965 761.684 464.68 Q762.252 461.444 762.227 454.206 Q762.227 447.165 761.733 444.349 Q761.066 441.063 759.288 439.754 Q757.534 438.42 755.755 438.42 Q755.088 438.42 754.372 438.618 Q753.68 438.815 752.667 439.384 Q751.654 439.952 750.864 441.36 Q750.098 442.768 749.727 444.892 Q749.332 447.634 749.332 454.206 Z" fill="#000000" fill-rule="evenodd" fill-opacity="1" /><path clip-path="url(#clip250)" d="M770.429 454.823 Q770.429 447.387 772.306 443.336 Q774.925 437.308 781.101 437.308 Q782.41 437.308 783.769 437.679 Q785.152 438.025 786.881 439.384 Q788.635 440.742 789.697 442.966 Q791.723 447.264 791.723 454.823 Q791.723 462.209 789.846 466.236 Q787.104 472.115 781.051 472.115 Q778.779 472.115 776.456 470.954 Q774.159 469.793 772.702 467.002 Q770.429 462.827 770.429 454.823 M774.628 454.206 Q774.628 461.839 775.172 464.877 Q775.789 468.163 777.469 469.596 Q779.174 471.004 781.051 471.004 Q783.077 471.004 784.757 469.497 Q786.461 467.965 786.98 464.68 Q787.548 461.444 787.524 454.206 Q787.524 447.165 787.029 444.349 Q786.363 441.063 784.584 439.754 Q782.83 438.42 781.051 438.42 Q780.384 438.42 779.668 438.618 Q778.976 438.815 777.963 439.384 Q776.951 439.952 776.16 441.36 Q775.394 442.768 775.024 444.892 Q774.628 447.634 774.628 454.206 Z" fill="#000000" fill-rule="evenodd" fill-opacity="1" /><path clip-path="url(#clip250)" d="M795.725 454.823 Q795.725 447.387 797.603 443.336 Q800.221 437.308 806.397 437.308 Q807.706 437.308 809.065 437.679 Q810.448 438.025 812.178 439.384 Q813.931 440.742 814.994 442.966 Q817.019 447.264 817.019 454.823 Q817.019 462.209 815.142 466.236 Q812.4 472.115 806.348 472.115 Q804.075 472.115 801.753 470.954 Q799.455 469.793 797.998 467.002 Q795.725 462.827 795.725 454.823 M799.925 454.206 Q799.925 461.839 800.468 464.877 Q801.086 468.163 802.766 469.596 Q804.47 471.004 806.348 471.004 Q808.373 471.004 810.053 469.497 Q811.758 467.965 812.276 464.68 Q812.845 461.444 812.82 454.206 Q812.82 447.165 812.326 444.349 Q811.659 441.063 809.88 439.754 Q808.126 438.42 806.348 438.42 Q805.681 438.42 804.964 438.618 Q804.272 438.815 803.26 439.384 Q802.247 439.952 801.456 441.36 Q800.69 442.768 800.32 444.892 Q799.925 447.634 799.925 454.206 Z" fill="#000000" fill-rule="evenodd" fill-opacity="1" /><path clip-path="url(#clip250)" d="M382.986 545.068 L382.986 542.928 L384.65 542.928 Q388.42 542.928 389.27 542.317 Q390.153 541.671 390.153 539.633 L390.153 503.186 Q390.153 501.182 389.27 500.571 Q388.386 499.926 384.65 499.926 L382.986 499.926 L382.986 497.752 L422.15 497.752 L424.086 513.41 L422.354 513.41 Q421.878 509.436 421.233 507.161 Q420.621 504.851 419.093 503.084 Q417.598 501.318 415.119 500.639 Q412.673 499.926 408.699 499.926 L399.731 499.926 Q397.354 499.926 396.844 500.435 Q396.335 500.911 396.335 502.711 L396.335 519.389 L402.585 519.389 Q407.374 519.389 408.733 517.724 Q410.091 516.06 410.091 511.271 L411.858 511.271 L411.858 529.681 L410.091 529.681 Q410.091 524.959 408.733 523.261 Q407.374 521.563 402.585 521.563 L396.335 521.563 L396.335 540.143 Q396.335 541.943 396.844 542.452 Q397.388 542.928 399.731 542.928 L409.004 542.928 Q411.994 542.928 414.167 542.554 Q416.375 542.147 417.904 541.196 Q419.432 540.211 420.451 539.09 Q421.504 537.969 422.218 535.965 Q422.965 533.927 423.373 532.058 Q423.814 530.19 424.29 527.133 L426.022 527.133 L423.101 545.068 L382.986 545.068 Z" fill="#000000" fill-rule="evenodd" fill-opacity="1" /><path clip-path="url(#clip250)" d="M429.894 556.413 Q433.597 556.413 434.446 555.937 Q435.329 555.496 435.329 553.288 L435.329 520.713 Q435.329 518.404 434.446 517.826 Q433.597 517.249 429.894 517.249 L429.894 515.075 L439.915 514.328 L439.915 518.913 Q444.093 514.328 449.663 514.328 Q455.573 514.328 459.887 518.913 Q464.201 523.499 464.201 530.054 Q464.201 536.678 459.615 541.264 Q455.03 545.849 448.678 545.849 Q445.213 545.849 442.87 544.083 Q440.56 542.283 440.118 540.958 L440.118 541.603 L440.118 553.288 Q440.118 555.53 441.001 555.971 Q441.885 556.413 445.553 556.413 L445.553 558.553 Q438.25 558.349 437.707 558.349 Q437.027 558.349 429.894 558.553 L429.894 556.413 M440.118 537.154 Q440.118 538.206 440.254 538.58 Q440.424 538.954 441.103 540.075 Q443.855 544.287 448.338 544.287 Q448.372 544.287 448.406 544.287 Q452.38 544.287 455.404 540.245 Q458.427 536.168 458.427 530.054 Q458.427 524.212 455.675 520.136 Q452.924 516.06 449.12 516.06 Q446.402 516.06 444.025 517.521 Q441.647 518.981 440.118 521.631 L440.118 537.154 Z" fill="#000000" fill-rule="evenodd" fill-opacity="1" /><path clip-path="url(#clip250)" d="M468.855 545.068 L468.855 542.928 Q472.557 542.928 473.406 542.486 Q474.255 542.011 474.255 539.769 L474.255 521.053 Q474.255 518.472 473.372 517.86 Q472.523 517.249 469.126 517.249 L469.126 515.075 L478.841 514.328 L478.841 539.837 Q478.841 541.909 479.588 542.418 Q480.335 542.928 483.732 542.928 L483.732 545.068 Q476.633 544.864 476.497 544.864 Q475.546 544.864 468.855 545.068 M471.776 502.201 Q471.776 500.809 472.829 499.688 Q473.916 498.533 475.444 498.533 Q476.973 498.533 478.06 499.586 Q479.147 500.605 479.147 502.235 Q479.147 503.832 478.06 504.885 Q476.973 505.904 475.444 505.904 Q473.848 505.904 472.795 504.783 Q471.776 503.662 471.776 502.201 Z" fill="#000000" fill-rule="evenodd" fill-opacity="1" /><path clip-path="url(#clip250)" d="M488.114 544.151 L488.114 534.98 Q488.114 534.198 488.148 533.927 Q488.182 533.655 488.386 533.451 Q488.589 533.247 488.997 533.247 Q489.473 533.247 489.642 533.451 Q489.846 533.655 489.982 534.436 Q491.035 539.225 493.277 541.773 Q495.553 544.287 499.663 544.287 Q503.569 544.287 505.539 542.554 Q507.509 540.822 507.509 537.969 Q507.509 532.874 500.274 531.583 Q496.096 530.734 494.364 530.19 Q492.632 529.613 491.103 528.356 Q488.114 525.91 488.114 522.446 Q488.114 518.981 490.729 516.434 Q493.379 513.886 499.221 513.886 Q503.127 513.886 505.777 515.856 Q506.558 515.245 506.966 514.735 Q507.883 513.886 508.358 513.886 Q508.902 513.886 509.004 514.26 Q509.106 514.599 509.106 515.584 L509.106 522.582 Q509.106 523.363 509.072 523.635 Q509.038 523.906 508.834 524.11 Q508.63 524.28 508.188 524.28 Q507.407 524.28 507.373 523.635 Q506.83 515.211 499.221 515.211 Q495.111 515.211 493.277 516.807 Q491.443 518.37 491.443 520.51 Q491.443 521.698 491.986 522.616 Q492.564 523.499 493.277 524.042 Q494.024 524.552 495.383 525.061 Q496.742 525.537 497.557 525.707 Q498.406 525.876 500.002 526.216 Q505.573 527.269 507.917 529.545 Q510.838 532.466 510.838 536.168 Q510.838 540.278 508.053 543.064 Q505.267 545.849 499.663 545.849 Q495.145 545.849 491.986 542.826 Q491.579 543.234 491.273 543.607 Q490.967 543.947 490.831 544.083 Q490.729 544.219 490.695 544.321 Q490.661 544.389 490.593 544.456 Q489.201 545.849 488.861 545.849 Q488.318 545.849 488.216 545.475 Q488.114 545.136 488.114 544.151 Z" fill="#000000" fill-rule="evenodd" fill-opacity="1" /><path clip-path="url(#clip250)" d="M519.703 541.331 Q515.118 536.78 515.118 530.19 Q515.118 523.567 519.601 518.743 Q524.119 513.886 530.573 513.886 Q536.891 513.886 541.408 518.709 Q545.96 523.499 545.96 530.19 Q545.96 536.746 541.374 541.297 Q536.823 545.849 530.505 545.849 Q524.323 545.849 519.703 541.331 M520.892 529.613 Q520.892 536.372 522.658 539.429 Q525.376 544.083 530.573 544.083 Q533.154 544.083 535.294 542.69 Q537.468 541.297 538.657 538.954 Q540.185 535.897 540.185 529.613 Q540.185 522.921 538.351 519.966 Q535.634 515.449 530.505 515.449 Q528.263 515.449 526.055 516.637 Q523.881 517.792 522.557 520.102 Q520.892 523.159 520.892 529.613 Z" fill="#000000" fill-rule="evenodd" fill-opacity="1" /><path clip-path="url(#clip250)" d="M552.278 530.122 Q552.278 523.499 556.897 518.913 Q561.517 514.328 567.767 514.328 Q573.066 514.328 576.53 518.641 L576.53 503.594 Q576.53 501.012 575.613 500.367 Q574.73 499.722 571.13 499.722 L571.13 497.548 L581.15 496.801 L581.15 539.022 Q581.15 541.603 582.033 542.283 Q582.95 542.928 586.551 542.928 L586.551 545.068 L576.327 545.849 L576.327 541.23 Q572.726 545.815 567.02 545.849 Q561.041 545.849 556.66 541.264 Q552.278 536.678 552.278 530.122 M558.052 530.19 Q558.052 536.644 560.056 539.837 Q562.842 544.287 567.359 544.287 Q572.522 544.287 575.579 539.429 Q576.36 538.24 576.327 536.848 L576.327 522.582 Q576.327 521.189 575.579 520.034 Q572.726 515.856 568.072 515.856 Q563.215 515.856 560.192 520.306 Q558.052 523.635 558.052 530.19 Z" fill="#000000" fill-rule="evenodd" fill-opacity="1" /><path clip-path="url(#clip250)" d="M590.423 529.749 Q590.423 523.193 594.635 518.54 Q598.847 513.886 604.893 513.886 Q611.007 513.886 614.166 517.86 Q617.359 521.834 617.359 527.541 Q617.359 528.594 617.087 528.798 Q616.815 529.001 615.626 529.001 L596.197 529.001 Q596.197 536.101 598.303 539.429 Q601.224 544.083 606.15 544.083 Q606.829 544.083 607.644 543.947 Q608.459 543.811 610.124 543.234 Q611.788 542.622 613.249 541.026 Q614.709 539.429 615.559 536.916 Q615.762 535.931 616.442 535.965 Q617.359 535.965 617.359 536.78 Q617.359 537.391 616.679 538.784 Q616.034 540.143 614.777 541.773 Q613.52 543.403 611.075 544.626 Q608.663 545.849 605.742 545.849 Q599.628 545.849 595.008 541.23 Q590.423 536.576 590.423 529.749 M596.265 527.541 L612.773 527.541 Q612.773 526.08 612.501 524.45 Q612.264 522.819 611.516 520.578 Q610.803 518.302 609.105 516.875 Q607.406 515.449 604.893 515.449 Q603.772 515.449 602.549 515.924 Q601.36 516.4 599.9 517.554 Q598.439 518.709 597.42 521.325 Q596.401 523.94 596.265 527.541 Z" fill="#000000" fill-rule="evenodd" fill-opacity="1" /><path clip-path="url(#clip250)" d="M621.673 544.151 L621.673 534.98 Q621.673 534.198 621.707 533.927 Q621.741 533.655 621.944 533.451 Q622.148 533.247 622.556 533.247 Q623.031 533.247 623.201 533.451 Q623.405 533.655 623.541 534.436 Q624.594 539.225 626.836 541.773 Q629.111 544.287 633.221 544.287 Q637.128 544.287 639.098 542.554 Q641.068 540.822 641.068 537.969 Q641.068 532.874 633.833 531.583 Q629.655 530.734 627.923 530.19 Q626.19 529.613 624.662 528.356 Q621.673 525.91 621.673 522.446 Q621.673 518.981 624.288 516.434 Q626.938 513.886 632.78 513.886 Q636.686 513.886 639.336 515.856 Q640.117 515.245 640.524 514.735 Q641.441 513.886 641.917 513.886 Q642.46 513.886 642.562 514.26 Q642.664 514.599 642.664 515.584 L642.664 522.582 Q642.664 523.363 642.63 523.635 Q642.596 523.906 642.393 524.11 Q642.189 524.28 641.747 524.28 Q640.966 524.28 640.932 523.635 Q640.388 515.211 632.78 515.211 Q628.67 515.211 626.836 516.807 Q625.001 518.37 625.001 520.51 Q625.001 521.698 625.545 522.616 Q626.122 523.499 626.836 524.042 Q627.583 524.552 628.942 525.061 Q630.3 525.537 631.115 525.707 Q631.965 525.876 633.561 526.216 Q639.132 527.269 641.475 529.545 Q644.397 532.466 644.397 536.168 Q644.397 540.278 641.611 543.064 Q638.826 545.849 633.221 545.849 Q628.704 545.849 625.545 542.826 Q625.137 543.234 624.832 543.607 Q624.526 543.947 624.39 544.083 Q624.288 544.219 624.254 544.321 Q624.22 544.389 624.152 544.456 Q622.76 545.849 622.42 545.849 Q621.876 545.849 621.775 545.475 Q621.673 545.136 621.673 544.151 Z" fill="#000000" fill-rule="evenodd" fill-opacity="1" /><polyline clip-path="url(#clip252)" style="stroke:#000000; stroke-linecap:round; stroke-linejoin:round; stroke-width:2; stroke-opacity:0.1; fill:none" points="
  170.446,407.705 856.936,407.705 
  "/>
<polyline clip-path="url(#clip252)" style="stroke:#000000; stroke-linecap:round; stroke-linejoin:round; stroke-width:2; stroke-opacity:0.1; fill:none" points="
  170.446,311.72 856.936,311.72 
  "/>
<polyline clip-path="url(#clip252)" style="stroke:#000000; stroke-linecap:round; stroke-linejoin:round; stroke-width:2; stroke-opacity:0.1; fill:none" points="
  170.446,215.735 856.936,215.735 
  "/>
<polyline clip-path="url(#clip252)" style="stroke:#000000; stroke-linecap:round; stroke-linejoin:round; stroke-width:2; stroke-opacity:0.1; fill:none" points="
  170.446,119.749 856.936,119.749 
  "/>
<polyline clip-path="url(#clip250)" style="stroke:#000000; stroke-linecap:round; stroke-linejoin:round; stroke-width:4; stroke-opacity:1; fill:none" points="
  170.446,418.204 170.446,47.2441 
  "/>
<polyline clip-path="url(#clip250)" style="stroke:#000000; stroke-linecap:round; stroke-linejoin:round; stroke-width:4; stroke-opacity:1; fill:none" points="
  170.446,407.705 183.653,407.705 
  "/>
<polyline clip-path="url(#clip250)" style="stroke:#000000; stroke-linecap:round; stroke-linejoin:round; stroke-width:4; stroke-opacity:1; fill:none" points="
  170.446,311.72 183.653,311.72 
  "/>
<polyline clip-path="url(#clip250)" style="stroke:#000000; stroke-linecap:round; stroke-linejoin:round; stroke-width:4; stroke-opacity:1; fill:none" points="
  170.446,215.735 183.653,215.735 
  "/>
<polyline clip-path="url(#clip250)" style="stroke:#000000; stroke-linecap:round; stroke-linejoin:round; stroke-width:4; stroke-opacity:1; fill:none" points="
  170.446,119.749 183.653,119.749 
  "/>
<path clip-path="url(#clip250)" d="M131.152 408.804 Q131.152 401.369 133.03 397.317 Q135.648 391.29 141.824 391.29 Q143.133 391.29 144.492 391.66 Q145.875 392.006 147.605 393.365 Q149.359 394.723 150.421 396.947 Q152.446 401.245 152.446 408.804 Q152.446 416.191 150.569 420.217 Q147.827 426.097 141.775 426.097 Q139.502 426.097 137.18 424.936 Q134.882 423.775 133.425 420.983 Q131.152 416.808 131.152 408.804 M135.352 408.187 Q135.352 415.82 135.895 418.859 Q136.513 422.144 138.193 423.577 Q139.897 424.985 141.775 424.985 Q143.8 424.985 145.48 423.478 Q147.185 421.946 147.703 418.661 Q148.272 415.425 148.247 408.187 Q148.247 401.146 147.753 398.33 Q147.086 395.045 145.307 393.735 Q143.553 392.401 141.775 392.401 Q141.108 392.401 140.391 392.599 Q139.7 392.797 138.687 393.365 Q137.674 393.933 136.883 395.341 Q136.118 396.749 135.747 398.874 Q135.352 401.616 135.352 408.187 Z" fill="#000000" fill-rule="evenodd" fill-opacity="1" /><path clip-path="url(#clip250)" d="M108.376 300.122 L108.376 298.541 Q114.453 298.541 117.59 295.304 Q118.455 295.304 118.603 295.502 Q118.751 295.7 118.751 296.614 L118.751 324.998 Q118.751 326.505 119.492 326.974 Q120.233 327.443 123.469 327.443 L125.075 327.443 L125.075 329 Q123.297 328.852 116.874 328.852 Q110.451 328.852 108.697 329 L108.697 327.443 L110.303 327.443 Q113.489 327.443 114.255 326.999 Q115.021 326.529 115.021 324.998 L115.021 298.788 Q112.378 300.122 108.376 300.122 Z" fill="#000000" fill-rule="evenodd" fill-opacity="1" /><path clip-path="url(#clip250)" d="M131.152 312.819 Q131.152 305.383 133.03 301.332 Q135.648 295.304 141.824 295.304 Q143.133 295.304 144.492 295.675 Q145.875 296.021 147.605 297.379 Q149.359 298.738 150.421 300.961 Q152.446 305.26 152.446 312.819 Q152.446 320.205 150.569 324.232 Q147.827 330.111 141.775 330.111 Q139.502 330.111 137.18 328.95 Q134.882 327.789 133.425 324.998 Q131.152 320.823 131.152 312.819 M135.352 312.202 Q135.352 319.835 135.895 322.873 Q136.513 326.159 138.193 327.592 Q139.897 329 141.775 329 Q143.8 329 145.48 327.493 Q147.185 325.961 147.703 322.676 Q148.272 319.44 148.247 312.202 Q148.247 305.161 147.753 302.345 Q147.086 299.059 145.307 297.75 Q143.553 296.416 141.775 296.416 Q141.108 296.416 140.391 296.614 Q139.7 296.811 138.687 297.379 Q137.674 297.948 136.883 299.356 Q136.118 300.764 135.747 302.888 Q135.352 305.63 135.352 312.202 Z" fill="#000000" fill-rule="evenodd" fill-opacity="1" /><path clip-path="url(#clip250)" d="M106.399 233.015 Q106.399 232.101 106.474 231.829 Q106.572 231.557 106.968 231.137 L116.676 220.317 Q121.987 214.339 121.987 209.126 Q121.987 205.742 120.209 203.321 Q118.455 200.9 115.219 200.9 Q112.995 200.9 111.118 202.259 Q109.24 203.618 108.376 206.039 Q108.524 205.989 109.043 205.989 Q110.303 205.989 110.994 206.78 Q111.711 207.57 111.711 208.632 Q111.711 209.991 110.821 210.658 Q109.957 211.3 109.092 211.3 Q108.746 211.3 108.277 211.226 Q107.832 211.152 107.116 210.46 Q106.399 209.744 106.399 208.484 Q106.399 204.952 109.067 202.135 Q111.76 199.319 115.861 199.319 Q120.505 199.319 123.544 202.086 Q126.607 204.828 126.607 209.126 Q126.607 210.633 126.137 212.017 Q125.693 213.375 125.075 214.438 Q124.482 215.5 122.852 217.204 Q121.221 218.909 119.912 220.119 Q118.603 221.33 115.663 223.899 L110.303 229.111 L119.418 229.111 Q123.865 229.111 124.211 228.716 Q124.705 228 125.322 224.22 L126.607 224.22 L125.174 233.015 L106.399 233.015 Z" fill="#000000" fill-rule="evenodd" fill-opacity="1" /><path clip-path="url(#clip250)" d="M131.152 216.834 Q131.152 209.398 133.03 205.347 Q135.648 199.319 141.824 199.319 Q143.133 199.319 144.492 199.69 Q145.875 200.036 147.605 201.394 Q149.359 202.753 150.421 204.976 Q152.446 209.275 152.446 216.834 Q152.446 224.22 150.569 228.247 Q147.827 234.126 141.775 234.126 Q139.502 234.126 137.18 232.965 Q134.882 231.804 133.425 229.013 Q131.152 224.838 131.152 216.834 M135.352 216.216 Q135.352 223.85 135.895 226.888 Q136.513 230.174 138.193 231.606 Q139.897 233.015 141.775 233.015 Q143.8 233.015 145.48 231.508 Q147.185 229.976 147.703 226.691 Q148.272 223.454 148.247 216.216 Q148.247 209.176 147.753 206.36 Q147.086 203.074 145.307 201.765 Q143.553 200.431 141.775 200.431 Q141.108 200.431 140.391 200.628 Q139.7 200.826 138.687 201.394 Q137.674 201.962 136.883 203.371 Q136.118 204.779 135.747 206.903 Q135.352 209.645 135.352 216.216 Z" fill="#000000" fill-rule="evenodd" fill-opacity="1" /><path clip-path="url(#clip250)" d="M106.004 130.211 Q106.004 128.704 106.869 127.988 Q107.733 127.272 108.845 127.272 Q110.006 127.272 110.821 128.037 Q111.661 128.778 111.661 130.088 Q111.661 131.496 110.673 132.286 Q109.71 133.077 108.326 132.879 Q109.537 134.905 111.76 135.819 Q114.008 136.733 116.083 136.733 Q118.257 136.733 120.011 134.855 Q121.79 132.978 121.79 128.383 Q121.79 124.48 120.258 122.232 Q118.751 119.984 115.762 119.984 L113.539 119.984 Q112.773 119.984 112.551 119.91 Q112.328 119.836 112.328 119.416 Q112.328 118.922 113.094 118.823 Q113.86 118.823 115.07 118.675 Q118.01 118.576 119.566 116.032 Q120.974 113.66 120.974 110.276 Q120.974 107.188 119.492 105.903 Q118.035 104.594 116.133 104.594 Q114.354 104.594 112.402 105.335 Q110.451 106.076 109.389 107.731 Q112.526 107.731 112.526 110.276 Q112.526 111.387 111.809 112.128 Q111.118 112.845 109.957 112.845 Q108.845 112.845 108.104 112.153 Q107.363 111.437 107.363 110.226 Q107.363 107.336 109.932 105.335 Q112.526 103.334 116.33 103.334 Q120.085 103.334 122.852 105.31 Q125.643 107.287 125.643 110.325 Q125.643 113.314 123.667 115.76 Q121.691 118.205 118.553 119.218 Q122.407 119.984 124.705 122.603 Q127.002 125.196 127.002 128.383 Q127.002 132.336 123.889 135.251 Q120.777 138.141 116.231 138.141 Q112.032 138.141 109.018 135.868 Q106.004 133.596 106.004 130.211 Z" fill="#000000" fill-rule="evenodd" fill-opacity="1" /><path clip-path="url(#clip250)" d="M131.152 120.849 Q131.152 113.413 133.03 109.362 Q135.648 103.334 141.824 103.334 Q143.133 103.334 144.492 103.705 Q145.875 104.05 147.605 105.409 Q149.359 106.768 150.421 108.991 Q152.446 113.289 152.446 120.849 Q152.446 128.235 150.569 132.262 Q147.827 138.141 141.775 138.141 Q139.502 138.141 137.18 136.98 Q134.882 135.819 133.425 133.027 Q131.152 128.853 131.152 120.849 M135.352 120.231 Q135.352 127.864 135.895 130.903 Q136.513 134.189 138.193 135.621 Q139.897 137.029 141.775 137.029 Q143.8 137.029 145.48 135.522 Q147.185 133.991 147.703 130.705 Q148.272 127.469 148.247 120.231 Q148.247 113.191 147.753 110.374 Q147.086 107.089 145.307 105.78 Q143.553 104.446 141.775 104.446 Q141.108 104.446 140.391 104.643 Q139.7 104.841 138.687 105.409 Q137.674 105.977 136.883 107.385 Q136.118 108.793 135.747 110.918 Q135.352 113.66 135.352 120.231 Z" fill="#000000" fill-rule="evenodd" fill-opacity="1" /><path clip-path="url(#clip250)" d="M35.5691 465.195 Q29.5909 465.195 25.5828 462.138 Q21.5747 459.081 21.5747 454.971 Q21.5747 452.457 23.8165 449.978 Q29.1833 444.339 29.1493 436.968 Q29.1493 428.612 22.5597 423.755 Q21.5747 422.906 21.5747 422.294 Q21.5747 421.751 22.0162 421.343 Q22.4238 420.902 22.9673 420.902 Q23.3749 420.902 24.2241 421.445 L76.6014 456.635 Q77.6544 457.416 77.6544 458.028 Q77.6544 458.571 77.2128 459.013 Q76.8052 459.421 76.2617 459.421 Q75.7862 459.421 74.8691 458.809 L28.3341 427.559 L28.2662 427.627 Q30.7118 431.228 30.6779 436.9 Q30.6779 442.267 27.7567 447.396 Q31.3572 445.936 35.637 445.936 Q41.4794 445.936 45.5554 448.551 Q49.5975 451.167 49.5975 454.971 Q49.5975 459.081 45.6573 462.138 Q41.6832 465.195 35.5691 465.195 M29.8966 460.406 Q32.3422 460.881 35.637 460.881 Q38.8979 460.881 41.3435 460.406 Q43.7552 459.93 45.012 459.251 Q46.2688 458.537 47.016 457.586 Q47.7293 456.635 47.8992 456.058 Q48.069 455.48 48.069 454.903 Q48.069 452.05 44.5364 449.876 Q40.9699 447.668 35.5691 447.668 Q30.2702 447.668 26.7037 449.876 Q23.1032 452.05 23.1032 454.903 Q23.1032 455.514 23.273 456.126 Q23.4429 456.703 24.1901 457.62 Q24.9034 458.537 26.1602 459.251 Q27.417 459.93 29.8966 460.406 M63.592 434.387 Q57.6138 434.387 53.6057 431.33 Q49.5975 428.273 49.5975 424.163 Q49.5975 420.392 53.6736 417.777 Q57.7496 415.127 63.6599 415.127 Q69.5023 415.127 73.5783 417.743 Q77.6544 420.324 77.6544 424.163 Q77.6544 428.273 73.6802 431.33 Q69.7061 434.387 63.592 434.387 M57.9195 429.597 Q60.3991 430.073 63.6599 430.073 Q66.9208 430.073 69.3664 429.597 Q71.812 429.088 73.0688 428.409 Q74.2916 427.695 75.0049 426.778 Q75.7522 425.827 75.9221 425.25 Q76.1259 424.638 76.1259 424.095 Q76.1259 421.241 72.5933 419.068 Q69.0267 416.86 63.592 416.86 Q58.2931 416.86 54.7266 419.068 Q51.1261 421.241 51.1261 424.095 Q51.1261 424.706 51.3299 425.318 Q51.4997 425.895 52.247 426.812 Q52.9603 427.695 54.2171 428.409 Q55.4399 429.088 57.9195 429.597 Z" fill="#000000" fill-rule="evenodd" fill-opacity="1" /><path clip-path="url(#clip250)" d="M73.7482 385.746 L71.6082 385.746 Q71.6082 382.043 71.1667 381.194 Q70.6911 380.345 68.4493 380.345 L49.7334 380.345 Q47.1519 380.345 46.5405 381.228 Q45.9291 382.077 45.9291 385.474 L43.7552 385.474 L43.0079 375.76 L68.5172 375.76 Q70.5892 375.76 71.0987 375.012 Q71.6082 374.265 71.6082 370.868 L73.7482 370.868 Q73.5444 377.967 73.5444 378.103 Q73.5444 379.054 73.7482 385.746 M30.8817 382.825 Q29.489 382.825 28.3681 381.772 Q27.2132 380.685 27.2132 379.156 Q27.2132 377.628 28.2662 376.541 Q29.2852 375.454 30.9156 375.454 Q32.5121 375.454 33.5651 376.541 Q34.5841 377.628 34.5841 379.156 Q34.5841 380.753 33.4632 381.806 Q32.3422 382.825 30.8817 382.825 Z" fill="#000000" fill-rule="evenodd" fill-opacity="1" /><path clip-path="url(#clip250)" d="M73.7482 366.554 L71.6082 366.554 Q71.6082 362.852 71.1667 362.003 Q70.6911 361.154 68.4493 361.154 L49.8013 361.154 Q47.2198 361.154 46.5745 362.071 Q45.9291 362.954 45.9291 366.554 L43.7552 366.554 L43.0079 356.772 L50.3108 356.772 Q43.0079 353.511 43.0079 346.48 Q43.0079 341.249 45.5894 339.177 Q47.3217 337.648 49.2579 337.343 Q51.194 337.003 56.2211 337.003 L69.5023 337.003 Q70.9629 336.935 71.3025 335.814 Q71.6082 334.693 71.6082 331.568 L73.7482 331.568 Q73.5444 338.667 73.5444 339.381 Q73.5444 339.924 73.7482 347.227 L71.6082 347.227 Q71.6082 343.525 71.1667 342.676 Q70.6911 341.792 68.4493 341.792 L52.247 341.792 Q48.7144 341.792 46.6424 342.879 Q44.5364 343.966 44.5364 346.955 Q44.5364 350.556 47.5595 353.443 Q50.5826 356.33 55.6776 356.33 L68.4493 356.33 Q70.6911 356.33 71.1667 355.481 Q71.6082 354.598 71.6082 350.93 L73.7482 350.93 Q73.5444 358.029 73.5444 358.708 Q73.5444 359.251 73.7482 366.554 Z" fill="#000000" fill-rule="evenodd" fill-opacity="1" /><path clip-path="url(#clip250)" d="M45.9291 330.821 L44.4006 330.821 Q44.2647 327.628 42.0229 325.522 Q39.7471 323.382 36.9618 322.669 Q34.1765 321.922 30.9496 321.854 L30.9496 320.121 L43.7552 320.121 L43.7552 310.169 L45.9291 310.169 L45.9291 320.121 L65.2564 320.121 Q72.7631 320.121 72.7631 315.434 Q72.7631 313.43 70.7251 312.105 Q68.6531 310.78 64.9846 310.78 L61.1464 310.78 L61.1464 309.048 L65.1205 309.048 Q68.8909 309.048 71.7101 310.78 Q74.5294 312.513 74.5294 315.943 Q74.5294 317.2 74.1897 318.457 Q73.884 319.68 73.0688 321.31 Q72.2196 322.907 70.1816 323.926 Q68.1096 324.911 65.1205 324.911 L45.9291 324.911 L45.9291 330.821 Z" fill="#000000" fill-rule="evenodd" fill-opacity="1" /><path clip-path="url(#clip250)" d="M58.429 303.24 Q51.8733 303.24 47.2198 299.028 Q42.5663 294.816 42.5663 288.77 Q42.5663 282.656 46.5405 279.497 Q50.5146 276.304 56.2211 276.304 Q57.2741 276.304 57.4779 276.576 Q57.6817 276.847 57.6817 278.036 L57.6817 297.465 Q64.7808 297.465 68.1096 295.359 Q72.7631 292.438 72.7631 287.513 Q72.7631 286.834 72.6272 286.018 Q72.4914 285.203 71.9139 283.539 Q71.3025 281.874 69.7061 280.414 Q68.1096 278.953 65.596 278.104 Q64.611 277.9 64.645 277.221 Q64.645 276.304 65.4602 276.304 Q66.0716 276.304 67.4642 276.983 Q68.8229 277.629 70.4533 278.885 Q72.0838 280.142 73.3066 282.588 Q74.5294 284.999 74.5294 287.921 Q74.5294 294.035 69.9099 298.654 Q65.2564 303.24 58.429 303.24 M56.2211 297.397 L56.2211 280.889 Q54.7605 280.889 53.1301 281.161 Q51.4997 281.399 49.2579 282.146 Q46.9821 282.859 45.5554 284.558 Q44.1288 286.256 44.1288 288.77 Q44.1288 289.891 44.6044 291.113 Q45.0799 292.302 46.2348 293.763 Q47.3897 295.223 50.0051 296.242 Q52.6206 297.261 56.2211 297.397 Z" fill="#000000" fill-rule="evenodd" fill-opacity="1" /><path clip-path="url(#clip250)" d="M73.7482 272.364 L71.6082 272.364 Q71.6082 268.661 71.1667 267.812 Q70.6911 266.929 68.4493 266.929 L49.8013 266.929 Q47.2198 266.929 46.5745 267.846 Q45.9291 268.729 45.9291 272.364 L43.7552 272.364 L43.0079 262.683 L50.6505 262.683 Q47.6614 261.698 45.3516 259.626 Q43.0079 257.52 43.0079 254.123 Q43.0079 251.881 44.2647 250.455 Q45.5215 248.994 47.2538 248.994 Q48.7823 248.994 49.5636 249.945 Q50.3108 250.862 50.3108 251.983 Q50.3108 253.24 49.5296 254.123 Q48.7144 254.972 47.3217 254.972 Q46.4726 254.972 45.8272 254.599 Q45.1478 254.191 44.9101 253.885 Q44.6723 253.58 44.6044 253.376 Q44.5364 253.512 44.5364 254.123 Q44.5364 257.962 48.3747 260.169 Q52.179 262.343 57.6138 262.343 L68.3134 262.343 Q70.3175 262.343 70.9629 261.528 Q71.6082 260.679 71.6082 257.044 L71.6082 255.584 L73.7482 255.584 Q73.5444 258.369 73.5444 264.415 Q73.5444 265.264 73.5783 266.589 Q73.6123 267.914 73.6802 269.646 Q73.7482 271.379 73.7482 272.364 Z" fill="#000000" fill-rule="evenodd" fill-opacity="1" /><path clip-path="url(#clip250)" d="M45.9291 245.801 L43.7552 245.801 Q43.959 242.676 43.959 239.042 Q43.959 237.717 43.7552 231.467 L45.9291 231.467 Q45.9291 235.441 47.7293 235.441 Q48.0011 235.441 48.9182 235.034 L68.3134 227.221 L50.5826 220.122 Q49.3937 219.715 48.9182 219.715 Q47.7293 219.715 46.8802 220.53 Q45.997 221.311 45.9291 223.043 L43.7552 223.043 Q43.959 219.511 43.959 216.997 Q43.959 214.144 43.7552 211.8 L45.9291 211.8 Q45.9291 213.872 46.8802 215.333 Q47.7973 216.793 48.6125 217.269 Q49.3937 217.711 50.5826 218.186 L73.2047 227.289 Q74.5294 227.833 74.5294 228.75 Q74.5294 229.361 74.2577 229.633 Q74.0199 229.871 73.2047 230.21 L48.5106 240.231 Q46.7783 240.91 46.3707 241.793 Q45.9291 242.676 45.9291 245.801 Z" fill="#000000" fill-rule="evenodd" fill-opacity="1" /><path clip-path="url(#clip250)" d="M58.429 210.476 Q51.8733 210.476 47.2198 206.264 Q42.5663 202.052 42.5663 196.006 Q42.5663 189.891 46.5405 186.732 Q50.5146 183.54 56.2211 183.54 Q57.2741 183.54 57.4779 183.811 Q57.6817 184.083 57.6817 185.272 L57.6817 204.701 Q64.7808 204.701 68.1096 202.595 Q72.7631 199.674 72.7631 194.749 Q72.7631 194.069 72.6272 193.254 Q72.4914 192.439 71.9139 190.775 Q71.3025 189.11 69.7061 187.65 Q68.1096 186.189 65.596 185.34 Q64.611 185.136 64.645 184.457 Q64.645 183.54 65.4602 183.54 Q66.0716 183.54 67.4642 184.219 Q68.8229 184.864 70.4533 186.121 Q72.0838 187.378 73.3066 189.823 Q74.5294 192.235 74.5294 195.156 Q74.5294 201.27 69.9099 205.89 Q65.2564 210.476 58.429 210.476 M56.2211 204.633 L56.2211 188.125 Q54.7605 188.125 53.1301 188.397 Q51.4997 188.635 49.2579 189.382 Q46.9821 190.095 45.5554 191.794 Q44.1288 193.492 44.1288 196.006 Q44.1288 197.126 44.6044 198.349 Q45.0799 199.538 46.2348 200.999 Q47.3897 202.459 50.0051 203.478 Q52.6206 204.497 56.2211 204.633 Z" fill="#000000" fill-rule="evenodd" fill-opacity="1" /><path clip-path="url(#clip250)" d="M73.7482 179.294 L71.6082 179.294 Q71.6082 175.591 71.1667 174.742 Q70.6911 173.893 68.4493 173.893 L49.8013 173.893 Q47.2198 173.893 46.5745 174.81 Q45.9291 175.693 45.9291 179.294 L43.7552 179.294 L43.0079 169.511 L50.3108 169.511 Q43.0079 166.25 43.0079 159.219 Q43.0079 153.988 45.5894 151.916 Q47.3217 150.388 49.2579 150.082 Q51.194 149.742 56.2211 149.742 L69.5023 149.742 Q70.9629 149.674 71.3025 148.553 Q71.6082 147.433 71.6082 144.308 L73.7482 144.308 Q73.5444 151.407 73.5444 152.12 Q73.5444 152.663 73.7482 159.966 L71.6082 159.966 Q71.6082 156.264 71.1667 155.415 Q70.6911 154.532 68.4493 154.532 L52.247 154.532 Q48.7144 154.532 46.6424 155.619 Q44.5364 156.706 44.5364 159.695 Q44.5364 163.295 47.5595 166.182 Q50.5826 169.07 55.6776 169.07 L68.4493 169.07 Q70.6911 169.07 71.1667 168.22 Q71.6082 167.337 71.6082 163.669 L73.7482 163.669 Q73.5444 170.768 73.5444 171.447 Q73.5444 171.991 73.7482 179.294 Z" fill="#000000" fill-rule="evenodd" fill-opacity="1" /><path clip-path="url(#clip250)" d="M45.9291 143.56 L44.4006 143.56 Q44.2647 140.367 42.0229 138.261 Q39.7471 136.121 36.9618 135.408 Q34.1765 134.661 30.9496 134.593 L30.9496 132.861 L43.7552 132.861 L43.7552 122.908 L45.9291 122.908 L45.9291 132.861 L65.2564 132.861 Q72.7631 132.861 72.7631 128.173 Q72.7631 126.169 70.7251 124.844 Q68.6531 123.52 64.9846 123.52 L61.1464 123.52 L61.1464 121.787 L65.1205 121.787 Q68.8909 121.787 71.7101 123.52 Q74.5294 125.252 74.5294 128.683 Q74.5294 129.939 74.1897 131.196 Q73.884 132.419 73.0688 134.049 Q72.2196 135.646 70.1816 136.665 Q68.1096 137.65 65.1205 137.65 L45.9291 137.65 L45.9291 143.56 Z" fill="#000000" fill-rule="evenodd" fill-opacity="1" /><path clip-path="url(#clip250)" d="M73.7482 115.605 L71.6082 115.605 Q71.6082 111.903 71.1667 111.054 Q70.6911 110.205 68.4493 110.205 L49.7334 110.205 Q47.1519 110.205 46.5405 111.088 Q45.9291 111.937 45.9291 115.334 L43.7552 115.334 L43.0079 105.619 L68.5172 105.619 Q70.5892 105.619 71.0987 104.872 Q71.6082 104.124 71.6082 100.728 L73.7482 100.728 Q73.5444 107.827 73.5444 107.963 Q73.5444 108.914 73.7482 115.605 M30.8817 112.684 Q29.489 112.684 28.3681 111.631 Q27.2132 110.544 27.2132 109.016 Q27.2132 107.487 28.2662 106.4 Q29.2852 105.313 30.9156 105.313 Q32.5121 105.313 33.5651 106.4 Q34.5841 107.487 34.5841 109.016 Q34.5841 110.612 33.4632 111.665 Q32.3422 112.684 30.8817 112.684 Z" fill="#000000" fill-rule="evenodd" fill-opacity="1" /><path clip-path="url(#clip250)" d="M70.0118 92.1341 Q65.4602 96.7196 58.8706 96.7196 Q52.247 96.7196 47.4236 92.236 Q42.5663 87.7183 42.5663 81.2646 Q42.5663 74.9467 47.3897 70.4291 Q52.179 65.8775 58.8706 65.8775 Q65.4262 65.8775 69.9778 70.463 Q74.5294 75.0146 74.5294 81.3325 Q74.5294 87.5145 70.0118 92.1341 M58.2931 90.9452 Q65.0526 90.9452 68.1096 89.1789 Q72.7631 86.4616 72.7631 81.2646 Q72.7631 78.6831 71.3705 76.5432 Q69.9778 74.3693 67.6341 73.1804 Q64.577 71.6519 58.2931 71.6519 Q51.6016 71.6519 48.6465 73.4861 Q44.1288 76.2035 44.1288 81.3325 Q44.1288 83.5743 45.3177 85.7822 Q46.4726 87.9561 48.7823 89.2808 Q51.8394 90.9452 58.2931 90.9452 Z" fill="#000000" fill-rule="evenodd" fill-opacity="1" /><path clip-path="url(#clip250)" d="M73.7482 61.6316 L71.6082 61.6316 Q71.6082 57.9292 71.1667 57.08 Q70.6911 56.2308 68.4493 56.2308 L49.8013 56.2308 Q47.2198 56.2308 46.5745 57.1479 Q45.9291 58.0311 45.9291 61.6316 L43.7552 61.6316 L43.0079 51.8491 L50.3108 51.8491 Q43.0079 48.5882 43.0079 41.557 Q43.0079 36.3261 45.5894 34.2541 Q47.3217 32.7256 49.2579 32.4199 Q51.194 32.0802 56.2211 32.0802 L69.5023 32.0802 Q70.9629 32.0123 71.3025 30.8913 Q71.6082 29.7704 71.6082 26.6455 L73.7482 26.6455 Q73.5444 33.7446 73.5444 34.4579 Q73.5444 35.0014 73.7482 42.3043 L71.6082 42.3043 Q71.6082 38.6019 71.1667 37.7527 Q70.6911 36.8696 68.4493 36.8696 L52.247 36.8696 Q48.7144 36.8696 46.6424 37.9565 Q44.5364 39.0435 44.5364 42.0326 Q44.5364 45.6331 47.5595 48.5203 Q50.5826 51.4075 55.6776 51.4075 L68.4493 51.4075 Q70.6911 51.4075 71.1667 50.5583 Q71.6082 49.6752 71.6082 46.0067 L73.7482 46.0067 Q73.5444 53.1058 73.5444 53.7852 Q73.5444 54.3287 73.7482 61.6316 Z" fill="#000000" fill-rule="evenodd" fill-opacity="1" /><path clip-path="url(#clip250)" d="M72.831 22.977 L63.6599 22.977 Q62.8787 22.977 62.6069 22.943 Q62.3352 22.9091 62.1314 22.7053 Q61.9276 22.5015 61.9276 22.0939 Q61.9276 21.6183 62.1314 21.4485 Q62.3352 21.2447 63.1164 21.1088 Q67.9058 20.0558 70.4533 17.814 Q72.9669 15.5382 72.9669 11.4282 Q72.9669 7.52197 71.2346 5.55187 Q69.5023 3.58178 66.649 3.58178 Q61.554 3.58178 60.2632 10.8168 Q59.414 14.9947 58.8706 16.7271 Q58.2931 18.4594 57.0363 19.9879 Q54.5907 22.977 51.1261 22.977 Q47.6614 22.977 45.1139 20.3615 Q42.5663 17.7121 42.5663 11.8698 Q42.5663 7.96354 44.5364 5.3141 Q43.925 4.53286 43.4155 4.12526 Q42.5663 3.20814 42.5663 2.7326 Q42.5663 2.18913 42.94 2.08723 Q43.2797 1.98533 44.2647 1.98533 L51.2619 1.98533 Q52.0432 1.98533 52.3149 2.01929 Q52.5866 2.05326 52.7904 2.25706 Q52.9603 2.46087 52.9603 2.90244 Q52.9603 3.68368 52.3149 3.71765 Q43.8911 4.26112 43.8911 11.8698 Q43.8911 15.9798 45.4875 17.814 Q47.05 19.6482 49.1899 19.6482 Q50.3788 19.6482 51.2959 19.1048 Q52.179 18.5273 52.7225 17.814 Q53.232 17.0667 53.7415 15.708 Q54.2171 14.3494 54.3869 13.5341 Q54.5567 12.685 54.8964 11.0885 Q55.9494 5.51791 58.2252 3.17418 Q61.1464 0.253004 64.8488 0.253004 Q68.9588 0.253004 71.7441 3.03831 Q74.5294 5.82361 74.5294 11.4282 Q74.5294 15.9458 71.5063 19.1048 Q71.9139 19.5124 72.2876 19.8181 Q72.6272 20.1238 72.7631 20.2596 Q72.899 20.3615 73.0009 20.3955 Q73.0688 20.4295 73.1367 20.4974 Q74.5294 21.8901 74.5294 22.2297 Q74.5294 22.7732 74.1558 22.8751 Q73.8161 22.977 72.831 22.977 Z" fill="#000000" fill-rule="evenodd" fill-opacity="1" /><path clip-path="url(#clip252)" d="
M205.45 63.5021 L205.45 407.705 L237.896 407.705 L237.896 63.5021 L205.45 63.5021 L205.45 63.5021  Z
  " fill="#1abc9c" fill-rule="evenodd" fill-opacity="1"/>
<polyline clip-path="url(#clip252)" style="stroke:#1abc9c; stroke-linecap:round; stroke-linejoin:round; stroke-width:4; stroke-opacity:1; fill:none" points="
  205.45,63.5021 205.45,407.705 237.896,407.705 237.896,63.5021 205.45,63.5021 
  "/>
<path clip-path="url(#clip252)" d="
M367.682 133.475 L367.682 407.705 L400.129 407.705 L400.129 133.475 L367.682 133.475 L367.682 133.475  Z
  " fill="#1abc9c" fill-rule="evenodd" fill-opacity="1"/>
<polyline clip-path="url(#clip252)" style="stroke:#1abc9c; stroke-linecap:round; stroke-linejoin:round; stroke-width:4; stroke-opacity:1; fill:none" points="
  367.682,133.475 367.682,407.705 400.129,407.705 400.129,133.475 367.682,133.475 
  "/>
<path clip-path="url(#clip252)" d="
M529.914 62.2543 L529.914 407.705 L562.361 407.705 L562.361 62.2543 L529.914 62.2543 L529.914 62.2543  Z
  " fill="#1abc9c" fill-rule="evenodd" fill-opacity="1"/>
<polyline clip-path="url(#clip252)" style="stroke:#1abc9c; stroke-linecap:round; stroke-linejoin:round; stroke-width:4; stroke-opacity:1; fill:none" points="
  529.914,62.2543 529.914,407.705 562.361,407.705 562.361,62.2543 529.914,62.2543 
  "/>
<path clip-path="url(#clip252)" d="
M692.147 201.529 L692.147 407.705 L724.593 407.705 L724.593 201.529 L692.147 201.529 L692.147 201.529  Z
  " fill="#1abc9c" fill-rule="evenodd" fill-opacity="1"/>
<polyline clip-path="url(#clip252)" style="stroke:#1abc9c; stroke-linecap:round; stroke-linejoin:round; stroke-width:4; stroke-opacity:1; fill:none" points="
  692.147,201.529 692.147,407.705 724.593,407.705 724.593,201.529 692.147,201.529 
  "/>
<circle clip-path="url(#clip252)" style="fill:#1abc9c; stroke:none; fill-opacity:0" cx="221.673" cy="63.5021" r="2"/>
<circle clip-path="url(#clip252)" style="fill:#1abc9c; stroke:none; fill-opacity:0" cx="383.905" cy="133.475" r="2"/>
<circle clip-path="url(#clip252)" style="fill:#1abc9c; stroke:none; fill-opacity:0" cx="546.138" cy="62.2543" r="2"/>
<circle clip-path="url(#clip252)" style="fill:#1abc9c; stroke:none; fill-opacity:0" cx="708.37" cy="201.529" r="2"/>
<path clip-path="url(#clip252)" d="
M237.896 57.743 L237.896 407.705 L270.343 407.705 L270.343 57.743 L237.896 57.743 L237.896 57.743  Z
  " fill="#3498db" fill-rule="evenodd" fill-opacity="1"/>
<polyline clip-path="url(#clip252)" style="stroke:#3498db; stroke-linecap:round; stroke-linejoin:round; stroke-width:4; stroke-opacity:1; fill:none" points="
  237.896,57.743 237.896,407.705 270.343,407.705 270.343,57.743 237.896,57.743 
  "/>
<path clip-path="url(#clip252)" d="
M400.129 118.022 L400.129 407.705 L432.575 407.705 L432.575 118.022 L400.129 118.022 L400.129 118.022  Z
  " fill="#3498db" fill-rule="evenodd" fill-opacity="1"/>
<polyline clip-path="url(#clip252)" style="stroke:#3498db; stroke-linecap:round; stroke-linejoin:round; stroke-width:4; stroke-opacity:1; fill:none" points="
  400.129,118.022 400.129,407.705 432.575,407.705 432.575,118.022 400.129,118.022 
  "/>
<path clip-path="url(#clip252)" d="
M562.361 66.2856 L562.361 407.705 L594.807 407.705 L594.807 66.2856 L562.361 66.2856 L562.361 66.2856  Z
  " fill="#3498db" fill-rule="evenodd" fill-opacity="1"/>
<polyline clip-path="url(#clip252)" style="stroke:#3498db; stroke-linecap:round; stroke-linejoin:round; stroke-width:4; stroke-opacity:1; fill:none" points="
  562.361,66.2856 562.361,407.705 594.807,407.705 594.807,66.2856 562.361,66.2856 
  "/>
<path clip-path="url(#clip252)" d="
M724.593 193.178 L724.593 407.705 L757.04 407.705 L757.04 193.178 L724.593 193.178 L724.593 193.178  Z
  " fill="#3498db" fill-rule="evenodd" fill-opacity="1"/>
<polyline clip-path="url(#clip252)" style="stroke:#3498db; stroke-linecap:round; stroke-linejoin:round; stroke-width:4; stroke-opacity:1; fill:none" points="
  724.593,193.178 724.593,407.705 757.04,407.705 757.04,193.178 724.593,193.178 
  "/>
<circle clip-path="url(#clip252)" style="fill:#3498db; stroke:none; fill-opacity:0" cx="254.119" cy="57.743" r="2"/>
<circle clip-path="url(#clip252)" style="fill:#3498db; stroke:none; fill-opacity:0" cx="416.352" cy="118.022" r="2"/>
<circle clip-path="url(#clip252)" style="fill:#3498db; stroke:none; fill-opacity:0" cx="578.584" cy="66.2856" r="2"/>
<circle clip-path="url(#clip252)" style="fill:#3498db; stroke:none; fill-opacity:0" cx="740.816" cy="193.178" r="2"/>
<path clip-path="url(#clip252)" d="
M270.343 280.525 L270.343 407.705 L302.789 407.705 L302.789 280.525 L270.343 280.525 L270.343 280.525  Z
  " fill="#2ecc71" fill-rule="evenodd" fill-opacity="1"/>
<polyline clip-path="url(#clip252)" style="stroke:#2ecc71; stroke-linecap:round; stroke-linejoin:round; stroke-width:4; stroke-opacity:1; fill:none" points="
  270.343,280.525 270.343,407.705 302.789,407.705 302.789,280.525 270.343,280.525 
  "/>
<path clip-path="url(#clip252)" d="
M432.575 71.9488 L432.575 407.705 L465.021 407.705 L465.021 71.9488 L432.575 71.9488 L432.575 71.9488  Z
  " fill="#2ecc71" fill-rule="evenodd" fill-opacity="1"/>
<polyline clip-path="url(#clip252)" style="stroke:#2ecc71; stroke-linecap:round; stroke-linejoin:round; stroke-width:4; stroke-opacity:1; fill:none" points="
  432.575,71.9488 432.575,407.705 465.021,407.705 465.021,71.9488 432.575,71.9488 
  "/>
<path clip-path="url(#clip252)" d="
M594.807 268.047 L594.807 407.705 L627.254 407.705 L627.254 268.047 L594.807 268.047 L594.807 268.047  Z
  " fill="#2ecc71" fill-rule="evenodd" fill-opacity="1"/>
<polyline clip-path="url(#clip252)" style="stroke:#2ecc71; stroke-linecap:round; stroke-linejoin:round; stroke-width:4; stroke-opacity:1; fill:none" points="
  594.807,268.047 594.807,407.705 627.254,407.705 627.254,268.047 594.807,268.047 
  "/>
<path clip-path="url(#clip252)" d="
M757.04 324.678 L757.04 407.705 L789.486 407.705 L789.486 324.678 L757.04 324.678 L757.04 324.678  Z
  " fill="#2ecc71" fill-rule="evenodd" fill-opacity="1"/>
<polyline clip-path="url(#clip252)" style="stroke:#2ecc71; stroke-linecap:round; stroke-linejoin:round; stroke-width:4; stroke-opacity:1; fill:none" points="
  757.04,324.678 757.04,407.705 789.486,407.705 789.486,324.678 757.04,324.678 
  "/>
<circle clip-path="url(#clip252)" style="fill:#2ecc71; stroke:none; fill-opacity:0" cx="286.566" cy="280.525" r="2"/>
<circle clip-path="url(#clip252)" style="fill:#2ecc71; stroke:none; fill-opacity:0" cx="448.798" cy="71.9488" r="2"/>
<circle clip-path="url(#clip252)" style="fill:#2ecc71; stroke:none; fill-opacity:0" cx="611.031" cy="268.047" r="2"/>
<circle clip-path="url(#clip252)" style="fill:#2ecc71; stroke:none; fill-opacity:0" cx="773.263" cy="324.678" r="2"/>
<path clip-path="url(#clip252)" d="
M302.789 339.364 L302.789 407.705 L335.236 407.705 L335.236 339.364 L302.789 339.364 L302.789 339.364  Z
  " fill="#9b59b6" fill-rule="evenodd" fill-opacity="1"/>
<polyline clip-path="url(#clip252)" style="stroke:#9b59b6; stroke-linecap:round; stroke-linejoin:round; stroke-width:4; stroke-opacity:1; fill:none" points="
  302.789,339.364 302.789,407.705 335.236,407.705 335.236,339.364 302.789,339.364 
  "/>
<path clip-path="url(#clip252)" d="
M465.021 229.173 L465.021 407.705 L497.468 407.705 L497.468 229.173 L465.021 229.173 L465.021 229.173  Z
  " fill="#9b59b6" fill-rule="evenodd" fill-opacity="1"/>
<polyline clip-path="url(#clip252)" style="stroke:#9b59b6; stroke-linecap:round; stroke-linejoin:round; stroke-width:4; stroke-opacity:1; fill:none" points="
  465.021,229.173 465.021,407.705 497.468,407.705 497.468,229.173 465.021,229.173 
  "/>
<path clip-path="url(#clip252)" d="
M627.254 385.82 L627.254 407.705 L659.7 407.705 L659.7 385.82 L627.254 385.82 L627.254 385.82  Z
  " fill="#9b59b6" fill-rule="evenodd" fill-opacity="1"/>
<polyline clip-path="url(#clip252)" style="stroke:#9b59b6; stroke-linecap:round; stroke-linejoin:round; stroke-width:4; stroke-opacity:1; fill:none" points="
  627.254,385.82 627.254,407.705 659.7,407.705 659.7,385.82 627.254,385.82 
  "/>
<path clip-path="url(#clip252)" d="
M789.486 394.075 L789.486 407.705 L821.933 407.705 L821.933 394.075 L789.486 394.075 L789.486 394.075  Z
  " fill="#9b59b6" fill-rule="evenodd" fill-opacity="1"/>
<polyline clip-path="url(#clip252)" style="stroke:#9b59b6; stroke-linecap:round; stroke-linejoin:round; stroke-width:4; stroke-opacity:1; fill:none" points="
  789.486,394.075 789.486,407.705 821.933,407.705 821.933,394.075 789.486,394.075 
  "/>
<circle clip-path="url(#clip252)" style="fill:#9b59b6; stroke:none; fill-opacity:0" cx="319.012" cy="339.364" r="2"/>
<circle clip-path="url(#clip252)" style="fill:#9b59b6; stroke:none; fill-opacity:0" cx="481.245" cy="229.173" r="2"/>
<circle clip-path="url(#clip252)" style="fill:#9b59b6; stroke:none; fill-opacity:0" cx="643.477" cy="385.82" r="2"/>
<circle clip-path="url(#clip252)" style="fill:#9b59b6; stroke:none; fill-opacity:0" cx="805.709" cy="394.075" r="2"/>
<path clip-path="url(#clip250)" d="
M889.679 348.769 L1152.76 348.769 L1152.76 89.5693 L889.679 89.5693  Z
  " fill="#ffffff" fill-rule="evenodd" fill-opacity="1"/>
<polyline clip-path="url(#clip250)" style="stroke:#000000; stroke-linecap:round; stroke-linejoin:round; stroke-width:4; stroke-opacity:1; fill:none" points="
  889.679,348.769 1152.76,348.769 1152.76,89.5693 889.679,89.5693 889.679,348.769 
  "/>
<path clip-path="url(#clip250)" d="
M900.594 162.145 L966.081 162.145 L966.081 120.673 L900.594 120.673 L900.594 162.145  Z
  " fill="#1abc9c" fill-rule="evenodd" fill-opacity="1"/>
<polyline clip-path="url(#clip250)" style="stroke:#1abc9c; stroke-linecap:round; stroke-linejoin:round; stroke-width:4; stroke-opacity:1; fill:none" points="
  900.594,162.145 966.081,162.145 966.081,120.673 900.594,120.673 900.594,162.145 
  "/>
<path clip-path="url(#clip250)" d="M976.996 147.82 Q976.996 143.003 980.355 139.668 Q983.715 136.333 988.261 136.333 Q992.114 136.333 994.634 139.47 L994.634 128.526 Q994.634 126.649 993.967 126.18 Q993.325 125.71 990.706 125.71 L990.706 124.129 L997.994 123.586 L997.994 154.292 Q997.994 156.17 998.636 156.664 Q999.303 157.133 1001.92 157.133 L1001.92 158.689 L994.486 159.257 L994.486 155.898 Q991.867 159.233 987.717 159.257 Q983.369 159.257 980.183 155.923 Q976.996 152.588 976.996 147.82 M981.195 147.869 Q981.195 152.563 982.653 154.885 Q984.679 158.121 987.964 158.121 Q991.719 158.121 993.942 154.589 Q994.511 153.724 994.486 152.711 L994.486 142.336 Q994.486 141.323 993.942 140.483 Q991.867 137.444 988.483 137.444 Q984.95 137.444 982.752 140.681 Q981.195 143.101 981.195 147.869 Z" fill="#000000" fill-rule="evenodd" fill-opacity="1" /><path clip-path="url(#clip250)" d="M1006.22 151.007 Q1006.27 150.389 1007.23 150.389 L1038.24 150.389 Q1039.69 150.389 1039.72 150.957 Q1039.72 151.575 1038.33 151.55 L1007.58 151.55 Q1006.22 151.575 1006.22 151.007 M1006.22 141.125 Q1006.22 140.508 1007.28 140.532 L1038.19 140.532 Q1039.69 140.532 1039.72 141.125 Q1039.72 141.693 1038.43 141.693 L1007.23 141.693 Q1006.22 141.693 1006.22 141.125 Z" fill="#000000" fill-rule="evenodd" fill-opacity="1" /><path clip-path="url(#clip250)" d="M1044.66 142.509 Q1044.66 135.073 1046.54 131.022 Q1049.15 124.994 1055.33 124.994 Q1056.64 124.994 1058 125.364 Q1059.38 125.71 1061.11 127.069 Q1062.86 128.428 1063.93 130.651 Q1065.95 134.949 1065.95 142.509 Q1065.95 149.895 1064.08 153.922 Q1061.33 159.801 1055.28 159.801 Q1053.01 159.801 1050.69 158.64 Q1048.39 157.479 1046.93 154.687 Q1044.66 150.512 1044.66 142.509 M1048.86 141.891 Q1048.86 149.524 1049.4 152.563 Q1050.02 155.848 1051.7 157.281 Q1053.4 158.689 1055.28 158.689 Q1057.31 158.689 1058.99 157.182 Q1060.69 155.651 1061.21 152.365 Q1061.78 149.129 1061.75 141.891 Q1061.75 134.851 1061.26 132.034 Q1060.59 128.749 1058.81 127.44 Q1057.06 126.106 1055.28 126.106 Q1054.61 126.106 1053.9 126.303 Q1053.21 126.501 1052.19 127.069 Q1051.18 127.637 1050.39 129.045 Q1049.62 130.453 1049.25 132.578 Q1048.86 135.32 1048.86 141.891 Z" fill="#000000" fill-rule="evenodd" fill-opacity="1" /><path clip-path="url(#clip250)" d="
M900.594 213.985 L966.081 213.985 L966.081 172.513 L900.594 172.513 L900.594 213.985  Z
  " fill="#3498db" fill-rule="evenodd" fill-opacity="1"/>
<polyline clip-path="url(#clip250)" style="stroke:#3498db; stroke-linecap:round; stroke-linejoin:round; stroke-width:4; stroke-opacity:1; fill:none" points="
  900.594,213.985 966.081,213.985 966.081,172.513 900.594,172.513 900.594,213.985 
  "/>
<path clip-path="url(#clip250)" d="M976.996 199.66 Q976.996 194.843 980.355 191.508 Q983.715 188.173 988.261 188.173 Q992.114 188.173 994.634 191.31 L994.634 180.366 Q994.634 178.489 993.967 178.02 Q993.325 177.55 990.706 177.55 L990.706 175.969 L997.994 175.426 L997.994 206.132 Q997.994 208.01 998.636 208.504 Q999.303 208.973 1001.92 208.973 L1001.92 210.529 L994.486 211.097 L994.486 207.738 Q991.867 211.073 987.717 211.097 Q983.369 211.097 980.183 207.763 Q976.996 204.428 976.996 199.66 M981.195 199.709 Q981.195 204.403 982.653 206.725 Q984.679 209.961 987.964 209.961 Q991.719 209.961 993.942 206.429 Q994.511 205.564 994.486 204.551 L994.486 194.176 Q994.486 193.163 993.942 192.323 Q991.867 189.284 988.483 189.284 Q984.95 189.284 982.752 192.521 Q981.195 194.941 981.195 199.709 Z" fill="#000000" fill-rule="evenodd" fill-opacity="1" /><path clip-path="url(#clip250)" d="M1006.22 202.847 Q1006.27 202.229 1007.23 202.229 L1038.24 202.229 Q1039.69 202.229 1039.72 202.797 Q1039.72 203.415 1038.33 203.39 L1007.58 203.39 Q1006.22 203.415 1006.22 202.847 M1006.22 192.965 Q1006.22 192.348 1007.28 192.372 L1038.19 192.372 Q1039.69 192.372 1039.72 192.965 Q1039.72 193.533 1038.43 193.533 L1007.23 193.533 Q1006.22 193.533 1006.22 192.965 Z" fill="#000000" fill-rule="evenodd" fill-opacity="1" /><path clip-path="url(#clip250)" d="M1047.18 181.651 L1047.18 180.07 Q1053.26 180.07 1056.39 176.834 Q1057.26 176.834 1057.41 177.032 Q1057.55 177.229 1057.55 178.143 L1057.55 206.527 Q1057.55 208.034 1058.29 208.504 Q1059.04 208.973 1062.27 208.973 L1063.88 208.973 L1063.88 210.529 Q1062.1 210.381 1055.68 210.381 Q1049.25 210.381 1047.5 210.529 L1047.5 208.973 L1049.1 208.973 Q1052.29 208.973 1053.06 208.528 Q1053.82 208.059 1053.82 206.527 L1053.82 180.317 Q1051.18 181.651 1047.18 181.651 Z" fill="#000000" fill-rule="evenodd" fill-opacity="1" /><path clip-path="url(#clip250)" d="M1069.95 194.349 Q1069.95 186.913 1071.83 182.862 Q1074.45 176.834 1080.63 176.834 Q1081.94 176.834 1083.29 177.204 Q1084.68 177.55 1086.41 178.909 Q1088.16 180.268 1089.22 182.491 Q1091.25 186.789 1091.25 194.349 Q1091.25 201.735 1089.37 205.762 Q1086.63 211.641 1080.58 211.641 Q1078.3 211.641 1075.98 210.48 Q1073.68 209.319 1072.23 206.527 Q1069.95 202.352 1069.95 194.349 M1074.15 193.731 Q1074.15 201.364 1074.7 204.403 Q1075.32 207.688 1077 209.121 Q1078.7 210.529 1080.58 210.529 Q1082.6 210.529 1084.28 209.022 Q1085.99 207.491 1086.51 204.205 Q1087.07 200.969 1087.05 193.731 Q1087.05 186.691 1086.56 183.874 Q1085.89 180.589 1084.11 179.28 Q1082.36 177.946 1080.58 177.946 Q1079.91 177.946 1079.19 178.143 Q1078.5 178.341 1077.49 178.909 Q1076.48 179.477 1075.69 180.885 Q1074.92 182.293 1074.55 184.418 Q1074.15 187.16 1074.15 193.731 Z" fill="#000000" fill-rule="evenodd" fill-opacity="1" /><path clip-path="url(#clip250)" d="
M900.594 265.825 L966.081 265.825 L966.081 224.353 L900.594 224.353 L900.594 265.825  Z
  " fill="#2ecc71" fill-rule="evenodd" fill-opacity="1"/>
<polyline clip-path="url(#clip250)" style="stroke:#2ecc71; stroke-linecap:round; stroke-linejoin:round; stroke-width:4; stroke-opacity:1; fill:none" points="
  900.594,265.825 966.081,265.825 966.081,224.353 900.594,224.353 900.594,265.825 
  "/>
<path clip-path="url(#clip250)" d="M976.996 251.5 Q976.996 246.683 980.355 243.348 Q983.715 240.013 988.261 240.013 Q992.114 240.013 994.634 243.15 L994.634 232.206 Q994.634 230.329 993.967 229.86 Q993.325 229.39 990.706 229.39 L990.706 227.809 L997.994 227.266 L997.994 257.972 Q997.994 259.85 998.636 260.344 Q999.303 260.813 1001.92 260.813 L1001.92 262.369 L994.486 262.937 L994.486 259.578 Q991.867 262.913 987.717 262.937 Q983.369 262.937 980.183 259.603 Q976.996 256.268 976.996 251.5 M981.195 251.549 Q981.195 256.243 982.653 258.565 Q984.679 261.801 987.964 261.801 Q991.719 261.801 993.942 258.269 Q994.511 257.404 994.486 256.391 L994.486 246.016 Q994.486 245.003 993.942 244.163 Q991.867 241.124 988.483 241.124 Q984.95 241.124 982.752 244.361 Q981.195 246.781 981.195 251.549 Z" fill="#000000" fill-rule="evenodd" fill-opacity="1" /><path clip-path="url(#clip250)" d="M1006.22 254.687 Q1006.27 254.069 1007.23 254.069 L1038.24 254.069 Q1039.69 254.069 1039.72 254.637 Q1039.72 255.255 1038.33 255.23 L1007.58 255.23 Q1006.22 255.255 1006.22 254.687 M1006.22 244.805 Q1006.22 244.188 1007.28 244.212 L1038.19 244.212 Q1039.69 244.212 1039.72 244.805 Q1039.72 245.373 1038.43 245.373 L1007.23 245.373 Q1006.22 245.373 1006.22 244.805 Z" fill="#000000" fill-rule="evenodd" fill-opacity="1" /><path clip-path="url(#clip250)" d="M1047.18 233.491 L1047.18 231.91 Q1053.26 231.91 1056.39 228.674 Q1057.26 228.674 1057.41 228.872 Q1057.55 229.069 1057.55 229.983 L1057.55 258.367 Q1057.55 259.874 1058.29 260.344 Q1059.04 260.813 1062.27 260.813 L1063.88 260.813 L1063.88 262.369 Q1062.1 262.221 1055.68 262.221 Q1049.25 262.221 1047.5 262.369 L1047.5 260.813 L1049.1 260.813 Q1052.29 260.813 1053.06 260.368 Q1053.82 259.899 1053.82 258.367 L1053.82 232.157 Q1051.18 233.491 1047.18 233.491 Z" fill="#000000" fill-rule="evenodd" fill-opacity="1" /><path clip-path="url(#clip250)" d="M1069.95 246.189 Q1069.95 238.753 1071.83 234.702 Q1074.45 228.674 1080.63 228.674 Q1081.94 228.674 1083.29 229.044 Q1084.68 229.39 1086.41 230.749 Q1088.16 232.108 1089.22 234.331 Q1091.25 238.629 1091.25 246.189 Q1091.25 253.575 1089.37 257.602 Q1086.63 263.481 1080.58 263.481 Q1078.3 263.481 1075.98 262.32 Q1073.68 261.159 1072.23 258.367 Q1069.95 254.192 1069.95 246.189 M1074.15 245.571 Q1074.15 253.204 1074.7 256.243 Q1075.32 259.528 1077 260.961 Q1078.7 262.369 1080.58 262.369 Q1082.6 262.369 1084.28 260.862 Q1085.99 259.331 1086.51 256.045 Q1087.07 252.809 1087.05 245.571 Q1087.05 238.531 1086.56 235.714 Q1085.89 232.429 1084.11 231.12 Q1082.36 229.786 1080.58 229.786 Q1079.91 229.786 1079.19 229.983 Q1078.5 230.181 1077.49 230.749 Q1076.48 231.317 1075.69 232.725 Q1074.92 234.133 1074.55 236.258 Q1074.15 239 1074.15 245.571 Z" fill="#000000" fill-rule="evenodd" fill-opacity="1" /><path clip-path="url(#clip250)" d="M1095.25 246.189 Q1095.25 238.753 1097.13 234.702 Q1099.75 228.674 1105.92 228.674 Q1107.23 228.674 1108.59 229.044 Q1109.97 229.39 1111.7 230.749 Q1113.46 232.108 1114.52 234.331 Q1116.55 238.629 1116.55 246.189 Q1116.55 253.575 1114.67 257.602 Q1111.93 263.481 1105.87 263.481 Q1103.6 263.481 1101.28 262.32 Q1098.98 261.159 1097.52 258.367 Q1095.25 254.192 1095.25 246.189 M1099.45 245.571 Q1099.45 253.204 1099.99 256.243 Q1100.61 259.528 1102.29 260.961 Q1104 262.369 1105.87 262.369 Q1107.9 262.369 1109.58 260.862 Q1111.28 259.331 1111.8 256.045 Q1112.37 252.809 1112.35 245.571 Q1112.35 238.531 1111.85 235.714 Q1111.18 232.429 1109.41 231.12 Q1107.65 229.786 1105.87 229.786 Q1105.21 229.786 1104.49 229.983 Q1103.8 230.181 1102.79 230.749 Q1101.77 231.317 1100.98 232.725 Q1100.22 234.133 1099.85 236.258 Q1099.45 239 1099.45 245.571 Z" fill="#000000" fill-rule="evenodd" fill-opacity="1" /><path clip-path="url(#clip250)" d="
M900.594 317.665 L966.081 317.665 L966.081 276.193 L900.594 276.193 L900.594 317.665  Z
  " fill="#9b59b6" fill-rule="evenodd" fill-opacity="1"/>
<polyline clip-path="url(#clip250)" style="stroke:#9b59b6; stroke-linecap:round; stroke-linejoin:round; stroke-width:4; stroke-opacity:1; fill:none" points="
  900.594,317.665 966.081,317.665 966.081,276.193 900.594,276.193 900.594,317.665 
  "/>
<path clip-path="url(#clip250)" d="M976.996 303.34 Q976.996 298.523 980.355 295.188 Q983.715 291.853 988.261 291.853 Q992.114 291.853 994.634 294.99 L994.634 284.046 Q994.634 282.169 993.967 281.7 Q993.325 281.23 990.706 281.23 L990.706 279.649 L997.994 279.106 L997.994 309.812 Q997.994 311.69 998.636 312.184 Q999.303 312.653 1001.92 312.653 L1001.92 314.209 L994.486 314.777 L994.486 311.418 Q991.867 314.753 987.717 314.777 Q983.369 314.777 980.183 311.443 Q976.996 308.108 976.996 303.34 M981.195 303.389 Q981.195 308.083 982.653 310.405 Q984.679 313.641 987.964 313.641 Q991.719 313.641 993.942 310.109 Q994.511 309.244 994.486 308.231 L994.486 297.856 Q994.486 296.843 993.942 296.003 Q991.867 292.964 988.483 292.964 Q984.95 292.964 982.752 296.201 Q981.195 298.621 981.195 303.389 Z" fill="#000000" fill-rule="evenodd" fill-opacity="1" /><path clip-path="url(#clip250)" d="M1006.22 306.527 Q1006.27 305.909 1007.23 305.909 L1038.24 305.909 Q1039.69 305.909 1039.72 306.477 Q1039.72 307.095 1038.33 307.07 L1007.58 307.07 Q1006.22 307.095 1006.22 306.527 M1006.22 296.645 Q1006.22 296.028 1007.28 296.052 L1038.19 296.052 Q1039.69 296.052 1039.72 296.645 Q1039.72 297.213 1038.43 297.213 L1007.23 297.213 Q1006.22 297.213 1006.22 296.645 Z" fill="#000000" fill-rule="evenodd" fill-opacity="1" /><path clip-path="url(#clip250)" d="M1047.18 285.331 L1047.18 283.75 Q1053.26 283.75 1056.39 280.514 Q1057.26 280.514 1057.41 280.712 Q1057.55 280.909 1057.55 281.823 L1057.55 310.207 Q1057.55 311.714 1058.29 312.184 Q1059.04 312.653 1062.27 312.653 L1063.88 312.653 L1063.88 314.209 Q1062.1 314.061 1055.68 314.061 Q1049.25 314.061 1047.5 314.209 L1047.5 312.653 L1049.1 312.653 Q1052.29 312.653 1053.06 312.208 Q1053.82 311.739 1053.82 310.207 L1053.82 283.997 Q1051.18 285.331 1047.18 285.331 Z" fill="#000000" fill-rule="evenodd" fill-opacity="1" /><path clip-path="url(#clip250)" d="M1069.95 298.029 Q1069.95 290.593 1071.83 286.542 Q1074.45 280.514 1080.63 280.514 Q1081.94 280.514 1083.29 280.884 Q1084.68 281.23 1086.41 282.589 Q1088.16 283.948 1089.22 286.171 Q1091.25 290.469 1091.25 298.029 Q1091.25 305.415 1089.37 309.442 Q1086.63 315.321 1080.58 315.321 Q1078.3 315.321 1075.98 314.16 Q1073.68 312.999 1072.23 310.207 Q1069.95 306.032 1069.95 298.029 M1074.15 297.411 Q1074.15 305.044 1074.7 308.083 Q1075.32 311.368 1077 312.801 Q1078.7 314.209 1080.58 314.209 Q1082.6 314.209 1084.28 312.702 Q1085.99 311.171 1086.51 307.885 Q1087.07 304.649 1087.05 297.411 Q1087.05 290.371 1086.56 287.554 Q1085.89 284.269 1084.11 282.96 Q1082.36 281.626 1080.58 281.626 Q1079.91 281.626 1079.19 281.823 Q1078.5 282.021 1077.49 282.589 Q1076.48 283.157 1075.69 284.565 Q1074.92 285.973 1074.55 288.098 Q1074.15 290.84 1074.15 297.411 Z" fill="#000000" fill-rule="evenodd" fill-opacity="1" /><path clip-path="url(#clip250)" d="M1095.25 298.029 Q1095.25 290.593 1097.13 286.542 Q1099.75 280.514 1105.92 280.514 Q1107.23 280.514 1108.59 280.884 Q1109.97 281.23 1111.7 282.589 Q1113.46 283.948 1114.52 286.171 Q1116.55 290.469 1116.55 298.029 Q1116.55 305.415 1114.67 309.442 Q1111.93 315.321 1105.87 315.321 Q1103.6 315.321 1101.28 314.16 Q1098.98 312.999 1097.52 310.207 Q1095.25 306.032 1095.25 298.029 M1099.45 297.411 Q1099.45 305.044 1099.99 308.083 Q1100.61 311.368 1102.29 312.801 Q1104 314.209 1105.87 314.209 Q1107.9 314.209 1109.58 312.702 Q1111.28 311.171 1111.8 307.885 Q1112.37 304.649 1112.35 297.411 Q1112.35 290.371 1111.85 287.554 Q1111.18 284.269 1109.41 282.96 Q1107.65 281.626 1105.87 281.626 Q1105.21 281.626 1104.49 281.823 Q1103.8 282.021 1102.79 282.589 Q1101.77 283.157 1100.98 284.565 Q1100.22 285.973 1099.85 288.098 Q1099.45 290.84 1099.45 297.411 Z" fill="#000000" fill-rule="evenodd" fill-opacity="1" /><path clip-path="url(#clip250)" d="M1120.55 298.029 Q1120.55 290.593 1122.42 286.542 Q1125.04 280.514 1131.22 280.514 Q1132.53 280.514 1133.89 280.884 Q1135.27 281.23 1137 282.589 Q1138.75 283.948 1139.82 286.171 Q1141.84 290.469 1141.84 298.029 Q1141.84 305.415 1139.96 309.442 Q1137.22 315.321 1131.17 315.321 Q1128.9 315.321 1126.57 314.16 Q1124.28 312.999 1122.82 310.207 Q1120.55 306.032 1120.55 298.029 M1124.75 297.411 Q1124.75 305.044 1125.29 308.083 Q1125.91 311.368 1127.59 312.801 Q1129.29 314.209 1131.17 314.209 Q1133.2 314.209 1134.88 312.702 Q1136.58 311.171 1137.1 307.885 Q1137.67 304.649 1137.64 297.411 Q1137.64 290.371 1137.15 287.554 Q1136.48 284.269 1134.7 282.96 Q1132.95 281.626 1131.17 281.626 Q1130.5 281.626 1129.79 281.823 Q1129.09 282.021 1128.08 282.589 Q1127.07 283.157 1126.28 284.565 Q1125.51 285.973 1125.14 288.098 Q1124.75 290.84 1124.75 297.411 Z" fill="#000000" fill-rule="evenodd" fill-opacity="1" /></svg>
