<?xml version="1.0" encoding="utf-8"?>
<svg xmlns="http://www.w3.org/2000/svg" xmlns:xlink="http://www.w3.org/1999/xlink" width="400" height="400" viewBox="0 0 1600 1600">
<defs>
  <clipPath id="clip710">
    <rect x="0" y="0" width="1600" height="1600"/>
  </clipPath>
</defs>
<path clip-path="url(#clip710)" d="M0 1600 L1600 1600 L1600 0 L0 0  Z" fill="#ffffff" fill-rule="evenodd" fill-opacity="1"/>
<defs>
  <clipPath id="clip711">
    <rect x="320" y="160" width="1121" height="1121"/>
  </clipPath>
</defs>
<path clip-path="url(#clip710)" d="M288.057 1382.14 L1552.76 1382.14 L1552.76 47.2441 L288.057 47.2441  Z" fill="#ffffff" fill-rule="evenodd" fill-opacity="1"/>
<defs>
  <clipPath id="clip712">
    <rect x="288" y="47" width="1266" height="1336"/>
  </clipPath>
</defs>
<polyline clip-path="url(#clip712)" style="stroke:#000000; stroke-linecap:round; stroke-linejoin:round; stroke-width:2; stroke-opacity:0.1; fill:none" points="311.798,1382.14 311.798,47.2441 "/>
<polyline clip-path="url(#clip712)" style="stroke:#000000; stroke-linecap:round; stroke-linejoin:round; stroke-width:2; stroke-opacity:0.1; fill:none" points="613.089,1382.14 613.089,47.2441 "/>
<polyline clip-path="url(#clip712)" style="stroke:#000000; stroke-linecap:round; stroke-linejoin:round; stroke-width:2; stroke-opacity:0.1; fill:none" points="914.38,1382.14 914.38,47.2441 "/>
<polyline clip-path="url(#clip712)" style="stroke:#000000; stroke-linecap:round; stroke-linejoin:round; stroke-width:2; stroke-opacity:0.1; fill:none" points="1215.67,1382.14 1215.67,47.2441 "/>
<polyline clip-path="url(#clip712)" style="stroke:#000000; stroke-linecap:round; stroke-linejoin:round; stroke-width:2; stroke-opacity:0.1; fill:none" points="1516.96,1382.14 1516.96,47.2441 "/>
<polyline clip-path="url(#clip712)" style="stroke:#000000; stroke-linecap:round; stroke-linejoin:round; stroke-width:2; stroke-opacity:0.1; fill:none" points="288.057,1382.14 1552.76,1382.14 "/>
<polyline clip-path="url(#clip712)" style="stroke:#000000; stroke-linecap:round; stroke-linejoin:round; stroke-width:2; stroke-opacity:0.1; fill:none" points="288.057,977.626 1552.76,977.626 "/>
<polyline clip-path="url(#clip712)" style="stroke:#000000; stroke-linecap:round; stroke-linejoin:round; stroke-width:2; stroke-opacity:0.1; fill:none" points="288.057,573.112 1552.76,573.112 "/>
<polyline clip-path="url(#clip712)" style="stroke:#000000; stroke-linecap:round; stroke-linejoin:round; stroke-width:2; stroke-opacity:0.1; fill:none" points="288.057,168.598 1552.76,168.598 "/>
<polyline clip-path="url(#clip712)" style="stroke:#000000; stroke-linecap:round; stroke-linejoin:round; stroke-width:2; stroke-opacity:0.1; fill:none" points="288.057,87.6955 1552.76,87.6955 "/>
<polyline clip-path="url(#clip710)" style="stroke:#000000; stroke-linecap:round; stroke-linejoin:round; stroke-width:4; stroke-opacity:1; fill:none" points="288.057,1382.14 1552.76,1382.14 "/>
<polyline clip-path="url(#clip710)" style="stroke:#000000; stroke-linecap:round; stroke-linejoin:round; stroke-width:4; stroke-opacity:1; fill:none" points="311.798,1382.14 311.798,1363.24 "/>
<polyline clip-path="url(#clip710)" style="stroke:#000000; stroke-linecap:round; stroke-linejoin:round; stroke-width:4; stroke-opacity:1; fill:none" points="613.089,1382.14 613.089,1363.24 "/>
<polyline clip-path="url(#clip710)" style="stroke:#000000; stroke-linecap:round; stroke-linejoin:round; stroke-width:4; stroke-opacity:1; fill:none" points="914.38,1382.14 914.38,1363.24 "/>
<polyline clip-path="url(#clip710)" style="stroke:#000000; stroke-linecap:round; stroke-linejoin:round; stroke-width:4; stroke-opacity:1; fill:none" points="1215.67,1382.14 1215.67,1363.24 "/>
<polyline clip-path="url(#clip710)" style="stroke:#000000; stroke-linecap:round; stroke-linejoin:round; stroke-width:4; stroke-opacity:1; fill:none" points="1516.96,1382.14 1516.96,1363.24 "/>
<path clip-path="url(#clip710)" d="M311.798 1406.66 Q308.187 1406.66 306.358 1410.22 Q304.553 1413.76 304.553 1420.89 Q304.553 1428 306.358 1431.57 Q308.187 1435.11 311.798 1435.11 Q315.433 1435.11 317.238 1431.57 Q319.067 1428 319.067 1420.89 Q319.067 1413.76 317.238 1410.22 Q315.433 1406.66 311.798 1406.66 M311.798 1402.95 Q317.608 1402.95 320.664 1407.56 Q323.743 1412.14 323.743 1420.89 Q323.743 1429.62 320.664 1434.23 Q317.608 1438.81 311.798 1438.81 Q305.988 1438.81 302.909 1434.23 Q299.854 1429.62 299.854 1420.89 Q299.854 1412.14 302.909 1407.56 Q305.988 1402.95 311.798 1402.95 Z" fill="#000000" fill-rule="nonzero" fill-opacity="1" /><path clip-path="url(#clip710)" d="M592.36 1434.2 L608.68 1434.2 L608.68 1438.14 L586.735 1438.14 L586.735 1434.2 Q589.397 1431.45 593.981 1426.82 Q598.587 1422.17 599.768 1420.83 Q602.013 1418.3 602.893 1416.57 Q603.795 1414.81 603.795 1413.12 Q603.795 1410.36 601.851 1408.63 Q599.93 1406.89 596.828 1406.89 Q594.629 1406.89 592.175 1407.65 Q589.745 1408.42 586.967 1409.97 L586.967 1405.25 Q589.791 1404.11 592.245 1403.53 Q594.698 1402.95 596.735 1402.95 Q602.106 1402.95 605.3 1405.64 Q608.494 1408.33 608.494 1412.82 Q608.494 1414.95 607.684 1416.87 Q606.897 1418.76 604.791 1421.36 Q604.212 1422.03 601.11 1425.25 Q598.008 1428.44 592.36 1434.2 Z" fill="#000000" fill-rule="nonzero" fill-opacity="1" /><path clip-path="url(#clip710)" d="M618.541 1403.58 L636.897 1403.58 L636.897 1407.52 L622.823 1407.52 L622.823 1415.99 Q623.842 1415.64 624.86 1415.48 Q625.879 1415.29 626.897 1415.29 Q632.684 1415.29 636.064 1418.46 Q639.443 1421.64 639.443 1427.05 Q639.443 1432.63 635.971 1435.73 Q632.499 1438.81 626.18 1438.81 Q624.004 1438.81 621.735 1438.44 Q619.49 1438.07 617.082 1437.33 L617.082 1432.63 Q619.166 1433.76 621.388 1434.32 Q623.61 1434.88 626.087 1434.88 Q630.092 1434.88 632.43 1432.77 Q634.767 1430.66 634.767 1427.05 Q634.767 1423.44 632.43 1421.33 Q630.092 1419.23 626.087 1419.23 Q624.212 1419.23 622.337 1419.64 Q620.485 1420.06 618.541 1420.94 L618.541 1403.58 Z" fill="#000000" fill-rule="nonzero" fill-opacity="1" /><path clip-path="url(#clip710)" d="M889.08 1403.58 L907.436 1403.58 L907.436 1407.52 L893.362 1407.52 L893.362 1415.99 Q894.381 1415.64 895.399 1415.48 Q896.418 1415.29 897.436 1415.29 Q903.223 1415.29 906.603 1418.46 Q909.982 1421.64 909.982 1427.05 Q909.982 1432.63 906.51 1435.73 Q903.038 1438.81 896.718 1438.81 Q894.543 1438.81 892.274 1438.44 Q890.029 1438.07 887.621 1437.33 L887.621 1432.63 Q889.705 1433.76 891.927 1434.32 Q894.149 1434.88 896.626 1434.88 Q900.63 1434.88 902.968 1432.77 Q905.306 1430.66 905.306 1427.05 Q905.306 1423.44 902.968 1421.33 Q900.63 1419.23 896.626 1419.23 Q894.751 1419.23 892.876 1419.64 Q891.024 1420.06 889.08 1420.94 L889.08 1403.58 Z" fill="#000000" fill-rule="nonzero" fill-opacity="1" /><path clip-path="url(#clip710)" d="M929.195 1406.66 Q925.584 1406.66 923.755 1410.22 Q921.95 1413.76 921.95 1420.89 Q921.95 1428 923.755 1431.57 Q925.584 1435.11 929.195 1435.11 Q932.829 1435.11 934.635 1431.57 Q936.464 1428 936.464 1420.89 Q936.464 1413.76 934.635 1410.22 Q932.829 1406.66 929.195 1406.66 M929.195 1402.95 Q935.005 1402.95 938.061 1407.56 Q941.14 1412.14 941.14 1420.89 Q941.14 1429.62 938.061 1434.23 Q935.005 1438.81 929.195 1438.81 Q923.385 1438.81 920.306 1434.23 Q917.251 1429.62 917.251 1420.89 Q917.251 1412.14 920.306 1407.56 Q923.385 1402.95 929.195 1402.95 Z" fill="#000000" fill-rule="nonzero" fill-opacity="1" /><path clip-path="url(#clip710)" d="M1189.53 1403.58 L1211.75 1403.58 L1211.75 1405.57 L1199.2 1438.14 L1194.32 1438.14 L1206.12 1407.52 L1189.53 1407.52 L1189.53 1403.58 Z" fill="#000000" fill-rule="nonzero" fill-opacity="1" /><path clip-path="url(#clip710)" d="M1220.91 1403.58 L1239.27 1403.58 L1239.27 1407.52 L1225.2 1407.52 L1225.2 1415.99 Q1226.22 1415.64 1227.23 1415.48 Q1228.25 1415.29 1229.27 1415.29 Q1235.06 1415.29 1238.44 1418.46 Q1241.82 1421.64 1241.82 1427.05 Q1241.82 1432.63 1238.34 1435.73 Q1234.87 1438.81 1228.55 1438.81 Q1226.38 1438.81 1224.11 1438.44 Q1221.86 1438.07 1219.46 1437.33 L1219.46 1432.63 Q1221.54 1433.76 1223.76 1434.32 Q1225.98 1434.88 1228.46 1434.88 Q1232.47 1434.88 1234.8 1432.77 Q1237.14 1430.66 1237.14 1427.05 Q1237.14 1423.44 1234.8 1421.33 Q1232.47 1419.23 1228.46 1419.23 Q1226.59 1419.23 1224.71 1419.64 Q1222.86 1420.06 1220.91 1420.94 L1220.91 1403.58 Z" fill="#000000" fill-rule="nonzero" fill-opacity="1" /><path clip-path="url(#clip710)" d="M1476.57 1434.2 L1484.21 1434.2 L1484.21 1407.84 L1475.9 1409.51 L1475.9 1405.25 L1484.16 1403.58 L1488.84 1403.58 L1488.84 1434.2 L1496.48 1434.2 L1496.48 1438.14 L1476.57 1438.14 L1476.57 1434.2 Z" fill="#000000" fill-rule="nonzero" fill-opacity="1" /><path clip-path="url(#clip710)" d="M1515.92 1406.66 Q1512.31 1406.66 1510.48 1410.22 Q1508.68 1413.76 1508.68 1420.89 Q1508.68 1428 1510.48 1431.57 Q1512.31 1435.11 1515.92 1435.11 Q1519.56 1435.11 1521.36 1431.57 Q1523.19 1428 1523.19 1420.89 Q1523.19 1413.76 1521.36 1410.22 Q1519.56 1406.66 1515.92 1406.66 M1515.92 1402.95 Q1521.73 1402.95 1524.79 1407.56 Q1527.87 1412.14 1527.87 1420.89 Q1527.87 1429.62 1524.79 1434.23 Q1521.73 1438.81 1515.92 1438.81 Q1510.11 1438.81 1507.03 1434.23 Q1503.98 1429.62 1503.98 1420.89 Q1503.98 1412.14 1507.03 1407.56 Q1510.11 1402.95 1515.92 1402.95 Z" fill="#000000" fill-rule="nonzero" fill-opacity="1" /><path clip-path="url(#clip710)" d="M1546.08 1406.66 Q1542.47 1406.66 1540.64 1410.22 Q1538.84 1413.76 1538.84 1420.89 Q1538.84 1428 1540.64 1431.57 Q1542.47 1435.11 1546.08 1435.11 Q1549.72 1435.11 1551.52 1431.57 Q1553.35 1428 1553.35 1420.89 Q1553.35 1413.76 1551.52 1410.22 Q1549.72 1406.66 1546.08 1406.66 M1546.08 1402.95 Q1551.89 1402.95 1554.95 1407.56 Q1558.03 1412.14 1558.03 1420.89 Q1558.03 1429.62 1554.95 1434.23 Q1551.89 1438.81 1546.08 1438.81 Q1540.27 1438.81 1537.19 1434.23 Q1534.14 1429.62 1534.14 1420.89 Q1534.14 1412.14 1537.19 1407.56 Q1540.27 1402.95 1546.08 1402.95 Z" fill="#000000" fill-rule="nonzero" fill-opacity="1" /><path clip-path="url(#clip710)" d="M880.716 1469.04 L880.716 1475.31 Q877.056 1473.56 873.809 1472.7 Q870.563 1471.84 867.539 1471.84 Q862.287 1471.84 859.423 1473.88 Q856.59 1475.92 856.59 1479.67 Q856.59 1482.83 858.468 1484.45 Q860.378 1486.04 865.661 1487.03 L869.544 1487.82 Q876.737 1489.19 880.143 1492.66 Q883.581 1496.1 883.581 1501.89 Q883.581 1508.8 878.934 1512.36 Q874.319 1515.93 865.375 1515.93 Q862.001 1515.93 858.181 1515.16 Q854.394 1514.4 850.32 1512.9 L850.32 1506.28 Q854.235 1508.48 857.99 1509.59 Q861.746 1510.71 865.375 1510.71 Q870.881 1510.71 873.873 1508.54 Q876.865 1506.38 876.865 1502.37 Q876.865 1498.87 874.7 1496.89 Q872.568 1494.92 867.666 1493.93 L863.751 1493.17 Q856.558 1491.74 853.344 1488.68 Q850.129 1485.63 850.129 1480.18 Q850.129 1473.88 854.553 1470.25 Q859.009 1466.62 866.807 1466.62 Q870.149 1466.62 873.618 1467.23 Q877.088 1467.83 880.716 1469.04 Z" fill="#000000" fill-rule="nonzero" fill-opacity="1" /><path clip-path="url(#clip710)" d="M899.145 1469.23 L899.145 1479.36 L911.208 1479.36 L911.208 1483.91 L899.145 1483.91 L899.145 1503.26 Q899.145 1507.62 900.322 1508.86 Q901.532 1510.1 905.192 1510.1 L911.208 1510.1 L911.208 1515 L905.192 1515 Q898.413 1515 895.835 1512.49 Q893.256 1509.94 893.256 1503.26 L893.256 1483.91 L888.96 1483.91 L888.96 1479.36 L893.256 1479.36 L893.256 1469.23 L899.145 1469.23 Z" fill="#000000" fill-rule="nonzero" fill-opacity="1" /><path clip-path="url(#clip710)" d="M949.402 1495.72 L949.402 1498.58 L922.475 1498.58 Q922.857 1504.63 926.104 1507.81 Q929.382 1510.96 935.206 1510.96 Q938.58 1510.96 941.731 1510.13 Q944.914 1509.31 948.033 1507.65 L948.033 1513.19 Q944.882 1514.53 941.572 1515.23 Q938.262 1515.93 934.856 1515.93 Q926.326 1515.93 921.329 1510.96 Q916.364 1506 916.364 1497.53 Q916.364 1488.78 921.075 1483.65 Q925.817 1478.5 933.838 1478.5 Q941.031 1478.5 945.201 1483.14 Q949.402 1487.76 949.402 1495.72 M943.546 1494 Q943.482 1489.19 940.84 1486.33 Q938.23 1483.46 933.902 1483.46 Q929 1483.46 926.04 1486.23 Q923.112 1489 922.666 1494.03 L943.546 1494 Z" fill="#000000" fill-rule="nonzero" fill-opacity="1" /><path clip-path="url(#clip710)" d="M964.68 1509.66 L964.68 1528.56 L958.791 1528.56 L958.791 1479.36 L964.68 1479.36 L964.68 1484.77 Q966.526 1481.58 969.327 1480.06 Q972.159 1478.5 976.074 1478.5 Q982.567 1478.5 986.61 1483.65 Q990.684 1488.81 990.684 1497.21 Q990.684 1505.61 986.61 1510.77 Q982.567 1515.93 976.074 1515.93 Q972.159 1515.93 969.327 1514.4 Q966.526 1512.84 964.68 1509.66 M984.604 1497.21 Q984.604 1490.75 981.931 1487.09 Q979.289 1483.4 974.642 1483.4 Q969.995 1483.4 967.321 1487.09 Q964.68 1490.75 964.68 1497.21 Q964.68 1503.67 967.321 1507.36 Q969.995 1511.03 974.642 1511.03 Q979.289 1511.03 981.931 1507.36 Q984.604 1503.67 984.604 1497.21 Z" fill="#000000" fill-rule="nonzero" fill-opacity="1" /><polyline clip-path="url(#clip710)" style="stroke:#000000; stroke-linecap:round; stroke-linejoin:round; stroke-width:4; stroke-opacity:1; fill:none" points="288.057,1382.14 288.057,47.2441 "/>
<polyline clip-path="url(#clip710)" style="stroke:#000000; stroke-linecap:round; stroke-linejoin:round; stroke-width:4; stroke-opacity:1; fill:none" points="288.057,1382.14 306.954,1382.14 "/>
<polyline clip-path="url(#clip710)" style="stroke:#000000; stroke-linecap:round; stroke-linejoin:round; stroke-width:4; stroke-opacity:1; fill:none" points="288.057,977.626 306.954,977.626 "/>
<polyline clip-path="url(#clip710)" style="stroke:#000000; stroke-linecap:round; stroke-linejoin:round; stroke-width:4; stroke-opacity:1; fill:none" points="288.057,573.112 306.954,573.112 "/>
<polyline clip-path="url(#clip710)" style="stroke:#000000; stroke-linecap:round; stroke-linejoin:round; stroke-width:4; stroke-opacity:1; fill:none" points="288.057,168.598 306.954,168.598 "/>
<polyline clip-path="url(#clip710)" style="stroke:#000000; stroke-linecap:round; stroke-linejoin:round; stroke-width:4; stroke-opacity:1; fill:none" points="288.057,87.6955 306.954,87.6955 "/>
<path clip-path="url(#clip710)" d="M142.02 1382.59 L171.696 1382.59 L171.696 1386.53 L142.02 1386.53 L142.02 1382.59 Z" fill="#000000" fill-rule="nonzero" fill-opacity="1" /><path clip-path="url(#clip710)" d="M182.599 1395.48 L190.237 1395.48 L190.237 1369.12 L181.927 1370.79 L181.927 1366.53 L190.191 1364.86 L194.867 1364.86 L194.867 1395.48 L202.506 1395.48 L202.506 1399.42 L182.599 1399.42 L182.599 1395.48 Z" fill="#000000" fill-rule="nonzero" fill-opacity="1" /><path clip-path="url(#clip710)" d="M211.997 1364.86 L230.353 1364.86 L230.353 1368.8 L216.279 1368.8 L216.279 1377.27 Q217.298 1376.92 218.316 1376.76 Q219.335 1376.57 220.353 1376.57 Q226.14 1376.57 229.52 1379.74 Q232.899 1382.92 232.899 1388.33 Q232.899 1393.91 229.427 1397.01 Q225.955 1400.09 219.635 1400.09 Q217.46 1400.09 215.191 1399.72 Q212.946 1399.35 210.538 1398.61 L210.538 1393.91 Q212.622 1395.04 214.844 1395.6 Q217.066 1396.16 219.543 1396.16 Q223.547 1396.16 225.885 1394.05 Q228.223 1391.94 228.223 1388.33 Q228.223 1384.72 225.885 1382.61 Q223.547 1380.51 219.543 1380.51 Q217.668 1380.51 215.793 1380.92 Q213.941 1381.34 211.997 1382.22 L211.997 1364.86 Z" fill="#000000" fill-rule="nonzero" fill-opacity="1" /><path clip-path="url(#clip710)" d="M252.112 1367.94 Q248.501 1367.94 246.672 1371.5 Q244.867 1375.04 244.867 1382.17 Q244.867 1389.28 246.672 1392.85 Q248.501 1396.39 252.112 1396.39 Q255.746 1396.39 257.552 1392.85 Q259.381 1389.28 259.381 1382.17 Q259.381 1375.04 257.552 1371.5 Q255.746 1367.94 252.112 1367.94 M252.112 1364.23 Q257.922 1364.23 260.978 1368.84 Q264.057 1373.42 264.057 1382.17 Q264.057 1390.9 260.978 1395.51 Q257.922 1400.09 252.112 1400.09 Q246.302 1400.09 243.223 1395.51 Q240.168 1390.9 240.168 1382.17 Q240.168 1373.42 243.223 1368.84 Q246.302 1364.23 252.112 1364.23 Z" fill="#000000" fill-rule="nonzero" fill-opacity="1" /><path clip-path="url(#clip710)" d="M142.02 978.077 L171.696 978.077 L171.696 982.013 L142.02 982.013 L142.02 978.077 Z" fill="#000000" fill-rule="nonzero" fill-opacity="1" /><path clip-path="url(#clip710)" d="M182.599 990.971 L190.237 990.971 L190.237 964.605 L181.927 966.272 L181.927 962.013 L190.191 960.346 L194.867 960.346 L194.867 990.971 L202.506 990.971 L202.506 994.906 L182.599 994.906 L182.599 990.971 Z" fill="#000000" fill-rule="nonzero" fill-opacity="1" /><path clip-path="url(#clip710)" d="M221.95 963.425 Q218.339 963.425 216.51 966.989 Q214.705 970.531 214.705 977.661 Q214.705 984.767 216.51 988.332 Q218.339 991.874 221.95 991.874 Q225.585 991.874 227.39 988.332 Q229.219 984.767 229.219 977.661 Q229.219 970.531 227.39 966.989 Q225.585 963.425 221.95 963.425 M221.95 959.721 Q227.76 959.721 230.816 964.327 Q233.895 968.911 233.895 977.661 Q233.895 986.388 230.816 990.994 Q227.76 995.577 221.95 995.577 Q216.14 995.577 213.061 990.994 Q210.006 986.388 210.006 977.661 Q210.006 968.911 213.061 964.327 Q216.14 959.721 221.95 959.721 Z" fill="#000000" fill-rule="nonzero" fill-opacity="1" /><path clip-path="url(#clip710)" d="M252.112 963.425 Q248.501 963.425 246.672 966.989 Q244.867 970.531 244.867 977.661 Q244.867 984.767 246.672 988.332 Q248.501 991.874 252.112 991.874 Q255.746 991.874 257.552 988.332 Q259.381 984.767 259.381 977.661 Q259.381 970.531 257.552 966.989 Q255.746 963.425 252.112 963.425 M252.112 959.721 Q257.922 959.721 260.978 964.327 Q264.057 968.911 264.057 977.661 Q264.057 986.388 260.978 990.994 Q257.922 995.577 252.112 995.577 Q246.302 995.577 243.223 990.994 Q240.168 986.388 240.168 977.661 Q240.168 968.911 243.223 964.327 Q246.302 959.721 252.112 959.721 Z" fill="#000000" fill-rule="nonzero" fill-opacity="1" /><path clip-path="url(#clip710)" d="M172.182 573.564 L201.858 573.564 L201.858 577.499 L172.182 577.499 L172.182 573.564 Z" fill="#000000" fill-rule="nonzero" fill-opacity="1" /><path clip-path="url(#clip710)" d="M211.997 555.832 L230.353 555.832 L230.353 559.767 L216.279 559.767 L216.279 568.239 Q217.298 567.892 218.316 567.73 Q219.335 567.545 220.353 567.545 Q226.14 567.545 229.52 570.716 Q232.899 573.888 232.899 579.304 Q232.899 584.883 229.427 587.985 Q225.955 591.063 219.635 591.063 Q217.46 591.063 215.191 590.693 Q212.946 590.323 210.538 589.582 L210.538 584.883 Q212.622 586.017 214.844 586.573 Q217.066 587.128 219.543 587.128 Q223.547 587.128 225.885 585.022 Q228.223 582.915 228.223 579.304 Q228.223 575.693 225.885 573.587 Q223.547 571.48 219.543 571.48 Q217.668 571.48 215.793 571.897 Q213.941 572.314 211.997 573.193 L211.997 555.832 Z" fill="#000000" fill-rule="nonzero" fill-opacity="1" /><path clip-path="url(#clip710)" d="M252.112 558.911 Q248.501 558.911 246.672 562.476 Q244.867 566.017 244.867 573.147 Q244.867 580.253 246.672 583.818 Q248.501 587.36 252.112 587.36 Q255.746 587.36 257.552 583.818 Q259.381 580.253 259.381 573.147 Q259.381 566.017 257.552 562.476 Q255.746 558.911 252.112 558.911 M252.112 555.207 Q257.922 555.207 260.978 559.814 Q264.057 564.397 264.057 573.147 Q264.057 581.874 260.978 586.48 Q257.922 591.063 252.112 591.063 Q246.302 591.063 243.223 586.48 Q240.168 581.874 240.168 573.147 Q240.168 564.397 243.223 559.814 Q246.302 555.207 252.112 555.207 Z" fill="#000000" fill-rule="nonzero" fill-opacity="1" /><path clip-path="url(#clip710)" d="M252.112 154.397 Q248.501 154.397 246.672 157.962 Q244.867 161.503 244.867 168.633 Q244.867 175.739 246.672 179.304 Q248.501 182.846 252.112 182.846 Q255.746 182.846 257.552 179.304 Q259.381 175.739 259.381 168.633 Q259.381 161.503 257.552 157.962 Q255.746 154.397 252.112 154.397 M252.112 150.693 Q257.922 150.693 260.978 155.3 Q264.057 159.883 264.057 168.633 Q264.057 177.36 260.978 181.966 Q257.922 186.55 252.112 186.55 Q246.302 186.55 243.223 181.966 Q240.168 177.36 240.168 168.633 Q240.168 159.883 243.223 155.3 Q246.302 150.693 252.112 150.693 Z" fill="#000000" fill-rule="nonzero" fill-opacity="1" /><path clip-path="url(#clip710)" d="M212.761 101.04 L220.399 101.04 L220.399 74.6747 L212.089 76.3414 L212.089 72.0821 L220.353 70.4155 L225.029 70.4155 L225.029 101.04 L232.668 101.04 L232.668 104.975 L212.761 104.975 L212.761 101.04 Z" fill="#000000" fill-rule="nonzero" fill-opacity="1" /><path clip-path="url(#clip710)" d="M252.112 73.4942 Q248.501 73.4942 246.672 77.059 Q244.867 80.6006 244.867 87.7302 Q244.867 94.8366 246.672 98.4014 Q248.501 101.943 252.112 101.943 Q255.746 101.943 257.552 98.4014 Q259.381 94.8366 259.381 87.7302 Q259.381 80.6006 257.552 77.059 Q255.746 73.4942 252.112 73.4942 M252.112 69.7905 Q257.922 69.7905 260.978 74.3969 Q264.057 78.9802 264.057 87.7302 Q264.057 96.457 260.978 101.063 Q257.922 105.647 252.112 105.647 Q246.302 105.647 243.223 101.063 Q240.168 96.457 240.168 87.7302 Q240.168 78.9802 243.223 74.3969 Q246.302 69.7905 252.112 69.7905 Z" fill="#000000" fill-rule="nonzero" fill-opacity="1" /><path clip-path="url(#clip710)" d="M81.4842 807.377 Q82.1844 805.308 84.4761 803.366 Q86.7677 801.393 90.7781 799.42 L103.764 792.895 L103.764 799.801 L91.5738 805.881 Q86.7995 808.236 85.24 810.464 Q83.6804 812.66 83.6804 816.48 L83.6804 823.482 L103.764 823.482 L103.764 829.911 L56.2442 829.911 L56.2442 815.397 Q56.2442 807.249 59.6498 803.239 Q63.0555 799.229 69.9304 799.229 Q74.4182 799.229 77.3783 801.329 Q80.3384 803.398 81.4842 807.377 M61.5277 823.482 L78.3968 823.482 L78.3968 815.397 Q78.3968 810.75 76.2643 808.395 Q74.1 806.008 69.9304 806.008 Q65.7609 806.008 63.6602 808.395 Q61.5277 810.75 61.5277 815.397 L61.5277 823.482 Z" fill="#000000" fill-rule="nonzero" fill-opacity="1" /><path clip-path="url(#clip710)" d="M84.4761 757.31 L87.3406 757.31 L87.3406 784.237 Q93.3881 783.855 96.5709 780.609 Q99.7219 777.331 99.7219 771.506 Q99.7219 768.132 98.8944 764.981 Q98.0669 761.798 96.4118 758.679 L101.95 758.679 Q103.287 761.83 103.987 765.14 Q104.687 768.45 104.687 771.856 Q104.687 780.386 99.7219 785.383 Q94.7567 790.348 86.2903 790.348 Q77.5374 790.348 72.4131 785.638 Q67.2568 780.895 67.2568 772.875 Q67.2568 765.681 71.9038 761.512 Q76.5189 757.31 84.4761 757.31 M82.7573 763.167 Q77.9512 763.23 75.0866 765.872 Q72.2221 768.482 72.2221 772.811 Q72.2221 777.712 74.9912 780.673 Q77.7602 783.601 82.7892 784.046 L82.7573 763.167 Z" fill="#000000" fill-rule="nonzero" fill-opacity="1" /><path clip-path="url(#clip710)" d="M68.1162 751.104 L68.1162 745.247 L95.9343 737.927 L68.1162 730.638 L68.1162 723.731 L95.9343 716.411 L68.1162 709.122 L68.1162 703.266 L103.764 712.591 L103.764 719.498 L74.5456 727.169 L103.764 734.871 L103.764 741.778 L68.1162 751.104 Z" fill="#000000" fill-rule="nonzero" fill-opacity="1" /><path clip-path="url(#clip710)" d="M85.8447 678.185 Q85.8447 685.282 87.4679 688.02 Q89.0912 690.757 93.0061 690.757 Q96.1253 690.757 97.9714 688.72 Q99.7856 686.651 99.7856 683.118 Q99.7856 678.248 96.3481 675.32 Q92.8788 672.36 87.1497 672.36 L85.8447 672.36 L85.8447 678.185 M83.4257 666.504 L103.764 666.504 L103.764 672.36 L98.3533 672.36 Q101.6 674.365 103.159 677.357 Q104.687 680.349 104.687 684.678 Q104.687 690.152 101.632 693.399 Q98.5443 696.613 93.3881 696.613 Q87.3725 696.613 84.3169 692.603 Q81.2614 688.561 81.2614 680.572 L81.2614 672.36 L80.6885 672.36 Q76.6462 672.36 74.4501 675.034 Q72.2221 677.675 72.2221 682.481 Q72.2221 685.537 72.9541 688.433 Q73.6862 691.33 75.1503 694.003 L69.7395 694.003 Q68.4981 690.789 67.8934 687.765 Q67.2568 684.741 67.2568 681.877 Q67.2568 674.142 71.2672 670.323 Q75.2776 666.504 83.4257 666.504 Z" fill="#000000" fill-rule="nonzero" fill-opacity="1" /><path clip-path="url(#clip710)" d="M73.5907 633.784 Q73.0178 634.771 72.7632 635.948 Q72.4767 637.094 72.4767 638.494 Q72.4767 643.46 75.7232 646.133 Q78.9379 648.775 84.9853 648.775 L103.764 648.775 L103.764 654.663 L68.1162 654.663 L68.1162 648.775 L73.6544 648.775 Q70.4079 646.929 68.8483 643.969 Q67.2568 641.009 67.2568 636.776 Q67.2568 636.171 67.3523 635.439 Q67.416 634.707 67.5751 633.816 L73.5907 633.784 Z" fill="#000000" fill-rule="nonzero" fill-opacity="1" /><path clip-path="url(#clip710)" d="M73.5271 605.329 L54.239 605.329 L54.239 599.473 L103.764 599.473 L103.764 605.329 L98.417 605.329 Q101.6 607.175 103.159 610.008 Q104.687 612.809 104.687 616.756 Q104.687 623.217 99.531 627.291 Q94.3747 631.333 85.972 631.333 Q77.5693 631.333 72.4131 627.291 Q67.2568 623.217 67.2568 616.756 Q67.2568 612.809 68.8164 610.008 Q70.3442 607.175 73.5271 605.329 M85.972 625.286 Q92.4332 625.286 96.1253 622.644 Q99.7856 619.97 99.7856 615.323 Q99.7856 610.676 96.1253 608.003 Q92.4332 605.329 85.972 605.329 Q79.5108 605.329 75.8505 608.003 Q72.1584 610.676 72.1584 615.323 Q72.1584 619.97 75.8505 622.644 Q79.5108 625.286 85.972 625.286 Z" fill="#000000" fill-rule="nonzero" fill-opacity="1" /><polyline clip-path="url(#clip712)" style="stroke:#009af9; stroke-linecap:round; stroke-linejoin:round; stroke-width:4; stroke-opacity:1; fill:none" points="323.85,1115.16 335.902,1042.35 347.953,556.932 360.005,168.598 372.056,597.383 384.108,168.598 396.16,378.945 408.211,249.501 420.263,289.952 432.315,298.043 444.366,370.855 456.418,136.237 468.47,120.057 480.521,184.779 492.573,120.057 504.625,152.418 516.676,176.689 528.728,225.23 540.779,128.147 552.831,128.147 564.883,128.147 576.934,136.237 588.986,128.147 601.038,128.147 613.089,120.057 625.141,128.147 637.193,120.057 649.244,128.147 661.296,128.147 673.348,152.418 685.399,120.057 697.451,136.237 709.502,1009.99 721.554,168.598 733.606,241.411 745.657,144.327 757.709,168.598 769.761,306.133 781.812,322.314 793.864,1009.99 805.916,168.598 817.967,192.869 830.019,176.689 842.071,176.689 854.122,192.869 866.174,136.237 878.225,136.237 890.277,160.508 902.329,184.779 914.38,168.598 926.432,176.689 938.484,152.418 950.535,152.418 962.587,136.237 974.639,184.779 986.69,144.327 998.742,144.327 1010.79,152.418 1022.85,144.327 1034.9,136.237 1046.95,144.327 1059,144.327 1071.05,144.327 1083.1,144.327 1095.16,136.237 1107.21,136.237 1119.26,136.237 1131.31,144.327 1143.36,136.237 1155.41,144.327 1167.46,144.327 1179.52,136.237 1191.57,192.869 1203.62,136.237 1215.67,144.327 1227.72,136.237 1239.77,144.327 1251.83,144.327 1263.88,136.237 1275.93,136.237 1287.98,144.327 1300.03,144.327 1312.08,144.327 1324.14,136.237 1336.19,144.327 1348.24,136.237 1360.29,144.327 1372.34,144.327 1384.39,192.869 1396.45,136.237 1408.5,136.237 1420.55,144.327 1432.6,136.237 1444.65,136.237 1456.7,136.237 1468.76,144.327 1480.81,144.327 1492.86,144.327 1504.91,136.237 1516.96,136.237 "/>
</svg>
